# Blender 5.0.0
# www.blender.org
mtllib Can_02.mtl
o Can_2
v 0.000000 0.456443 -0.435376
v 0.084938 0.456443 -0.427011
v 0.166611 0.456443 -0.402235
v 0.241882 0.456443 -0.362002
v 0.307858 0.456443 -0.307858
v 0.362002 0.456443 -0.241882
v 0.402235 0.456443 -0.166611
v 0.427011 0.456443 -0.084938
v 0.435376 0.456443 0.000000
v 0.427011 0.456443 0.084938
v 0.402235 0.456443 0.166611
v 0.362002 0.456443 0.241882
v 0.307858 0.456443 0.307858
v 0.241882 0.456443 0.362002
v 0.166611 0.456443 0.402235
v 0.084938 0.456443 0.427011
v 0.000000 0.456443 0.435376
v -0.084938 0.456443 0.427011
v -0.166611 0.456443 0.402235
v -0.241882 0.456443 0.362002
v -0.307858 0.456443 0.307858
v -0.362002 0.456443 0.241882
v -0.402235 0.456443 0.166611
v -0.427011 0.456443 0.084938
v -0.435376 0.456443 0.000000
v -0.427011 0.456443 -0.084938
v -0.402235 0.456443 -0.166611
v -0.362002 0.456443 -0.241882
v -0.307858 0.456443 -0.307858
v -0.241882 0.456443 -0.362002
v -0.166611 0.456443 -0.402235
v -0.084938 0.456443 -0.427011
v 0.081196 0.456443 -0.408199
v 0.000000 0.456443 -0.416196
v -0.081196 0.456443 -0.408199
v -0.159272 0.456443 -0.384515
v -0.231226 0.456443 -0.346055
v -0.294295 0.456443 -0.294295
v -0.346055 0.456443 -0.231226
v -0.384515 0.456443 -0.159272
v -0.408199 0.456443 -0.081196
v -0.416196 0.456443 0.000000
v -0.408199 0.456443 0.081196
v -0.384515 0.456443 0.159272
v -0.346055 0.456443 0.231226
v -0.294295 0.456443 0.294295
v -0.231226 0.456443 0.346055
v -0.159272 0.456443 0.384515
v -0.081196 0.456443 0.408199
v 0.000000 0.456443 0.416196
v 0.081196 0.456443 0.408199
v 0.159272 0.456443 0.384515
v 0.231226 0.456443 0.346055
v 0.294295 0.456443 0.294295
v 0.346055 0.456443 0.231226
v 0.384515 0.456443 0.159272
v 0.408199 0.456443 0.081196
v 0.416196 0.456443 0.000000
v 0.408199 0.456443 -0.081196
v 0.384515 0.456443 -0.159272
v 0.346055 0.456443 -0.231226
v 0.294295 0.456443 -0.294295
v 0.231226 0.456443 -0.346055
v 0.159272 0.456443 -0.384515
v 0.084938 0.468193 -0.427011
v 0.000000 0.468193 -0.435376
v 0.166611 0.468193 -0.402235
v 0.241882 0.468193 -0.362002
v 0.307858 0.468193 -0.307858
v 0.362002 0.468193 -0.241882
v 0.402235 0.468193 -0.166611
v 0.427011 0.468193 -0.084938
v 0.435376 0.468193 0.000000
v 0.427011 0.468193 0.084938
v 0.402235 0.468193 0.166611
v 0.362002 0.468193 0.241882
v 0.307858 0.468193 0.307858
v 0.241882 0.468193 0.362002
v 0.166611 0.468193 0.402235
v 0.084938 0.468193 0.427011
v 0.000000 0.468193 0.435376
v -0.084938 0.468193 0.427011
v -0.166611 0.468193 0.402235
v -0.241882 0.468193 0.362002
v -0.307858 0.468193 0.307858
v -0.362002 0.468193 0.241882
v -0.402235 0.468193 0.166611
v -0.427011 0.468193 0.084938
v -0.435376 0.468193 0.000000
v -0.427011 0.468193 -0.084938
v -0.402235 0.468193 -0.166611
v -0.362002 0.468193 -0.241882
v -0.307858 0.468193 -0.307858
v -0.241882 0.468193 -0.362002
v -0.166611 0.468193 -0.402235
v -0.084938 0.468193 -0.427011
v 0.081196 0.468193 -0.408199
v 0.000000 0.468193 -0.416196
v 0.159272 0.468193 -0.384515
v -0.081196 0.468193 -0.408199
v -0.159272 0.468193 -0.384515
v -0.231226 0.468193 -0.346055
v -0.294295 0.468193 -0.294295
v -0.346055 0.468193 -0.231226
v -0.384515 0.468193 -0.159272
v -0.408199 0.468193 -0.081196
v -0.416196 0.468193 0.000000
v -0.408199 0.468193 0.081196
v -0.384515 0.468193 0.159272
v -0.346055 0.468193 0.231226
v -0.294295 0.468193 0.294295
v -0.231226 0.468193 0.346055
v -0.159272 0.468193 0.384515
v -0.081196 0.468193 0.408199
v 0.000000 0.468193 0.416196
v 0.081196 0.468193 0.408199
v 0.159272 0.468193 0.384515
v 0.231226 0.468193 0.346055
v 0.294295 0.468193 0.294295
v 0.346055 0.468193 0.231226
v 0.384515 0.468193 0.159272
v 0.408199 0.468193 0.081196
v 0.416196 0.468193 0.000000
v 0.408199 0.468193 -0.081196
v 0.384515 0.468193 -0.159272
v 0.346055 0.468193 -0.231226
v 0.294295 0.468193 -0.294295
v 0.231226 0.468193 -0.346055
v 0.000000 -0.456443 -0.366224
v 0.000000 -0.384294 -0.435376
v 0.000000 -0.452912 -0.387593
v 0.000000 -0.442664 -0.406871
v 0.000000 -0.426702 -0.422169
v 0.000000 -0.406589 -0.431992
v 0.071447 -0.456443 -0.359187
v 0.084938 -0.384294 -0.427011
v 0.075616 -0.452912 -0.380146
v 0.079377 -0.442664 -0.399053
v 0.082361 -0.426702 -0.414058
v 0.084277 -0.406589 -0.423691
v 0.140148 -0.456443 -0.338347
v 0.166611 -0.384294 -0.402235
v 0.148326 -0.452912 -0.358090
v 0.155703 -0.442664 -0.375900
v 0.161557 -0.426702 -0.390034
v 0.165316 -0.406589 -0.399108
v 0.203463 -0.456443 -0.304504
v 0.241882 -0.384294 -0.362002
v 0.215335 -0.452912 -0.322272
v 0.226045 -0.442664 -0.338301
v 0.234545 -0.426702 -0.351021
v 0.240002 -0.406589 -0.359188
v 0.258960 -0.456443 -0.258960
v 0.307858 -0.384294 -0.307858
v 0.274070 -0.452912 -0.274070
v 0.287701 -0.442664 -0.287701
v 0.298519 -0.426702 -0.298519
v 0.305464 -0.406589 -0.305464
v 0.304504 -0.456443 -0.203463
v 0.362002 -0.384294 -0.241882
v 0.322272 -0.452912 -0.215335
v 0.338301 -0.442664 -0.226045
v 0.351021 -0.426702 -0.234545
v 0.359188 -0.406589 -0.240002
v 0.338347 -0.456443 -0.140148
v 0.402235 -0.384294 -0.166611
v 0.358090 -0.452912 -0.148326
v 0.375900 -0.442664 -0.155703
v 0.390034 -0.426702 -0.161557
v 0.399108 -0.406589 -0.165316
v 0.359187 -0.456443 -0.071447
v 0.427011 -0.384294 -0.084938
v 0.380146 -0.452912 -0.075616
v 0.399053 -0.442664 -0.079377
v 0.414058 -0.426702 -0.082361
v 0.423691 -0.406589 -0.084277
v 0.366224 -0.456443 0.000000
v 0.435376 -0.384294 0.000000
v 0.387593 -0.452912 0.000000
v 0.406871 -0.442664 0.000000
v 0.422169 -0.426702 0.000000
v 0.431992 -0.406589 0.000000
v 0.359187 -0.456443 0.071447
v 0.427011 -0.384294 0.084938
v 0.380146 -0.452912 0.075616
v 0.399053 -0.442664 0.079377
v 0.414058 -0.426702 0.082361
v 0.423691 -0.406589 0.084277
v 0.338347 -0.456443 0.140148
v 0.402235 -0.384294 0.166611
v 0.358090 -0.452912 0.148326
v 0.375900 -0.442664 0.155703
v 0.390034 -0.426702 0.161557
v 0.399108 -0.406589 0.165316
v 0.304504 -0.456443 0.203463
v 0.362002 -0.384294 0.241882
v 0.322272 -0.452912 0.215335
v 0.338301 -0.442664 0.226045
v 0.351021 -0.426702 0.234545
v 0.359188 -0.406589 0.240002
v 0.258960 -0.456443 0.258960
v 0.307858 -0.384294 0.307858
v 0.274070 -0.452912 0.274070
v 0.287701 -0.442664 0.287701
v 0.298519 -0.426702 0.298519
v 0.305464 -0.406589 0.305464
v 0.203463 -0.456443 0.304504
v 0.241882 -0.384294 0.362002
v 0.215335 -0.452912 0.322272
v 0.226045 -0.442664 0.338301
v 0.234545 -0.426702 0.351021
v 0.240002 -0.406589 0.359188
v 0.140148 -0.456443 0.338347
v 0.166611 -0.384294 0.402235
v 0.148326 -0.452912 0.358090
v 0.155703 -0.442664 0.375900
v 0.161557 -0.426702 0.390034
v 0.165316 -0.406589 0.399108
v 0.071447 -0.456443 0.359187
v 0.084938 -0.384294 0.427011
v 0.075616 -0.452912 0.380146
v 0.079377 -0.442664 0.399053
v 0.082361 -0.426702 0.414058
v 0.084277 -0.406589 0.423691
v -0.000000 -0.456443 0.366224
v 0.000000 -0.384294 0.435376
v -0.000000 -0.452912 0.387593
v -0.000000 -0.442664 0.406871
v -0.000000 -0.426702 0.422169
v 0.000000 -0.406589 0.431992
v -0.071447 -0.456443 0.359187
v -0.084938 -0.384294 0.427011
v -0.075616 -0.452912 0.380146
v -0.079377 -0.442664 0.399053
v -0.082361 -0.426702 0.414058
v -0.084277 -0.406589 0.423691
v -0.140148 -0.456443 0.338347
v -0.166611 -0.384294 0.402235
v -0.148326 -0.452912 0.358090
v -0.155703 -0.442664 0.375900
v -0.161557 -0.426702 0.390034
v -0.165316 -0.406589 0.399108
v -0.203463 -0.456443 0.304504
v -0.241882 -0.384294 0.362002
v -0.215335 -0.452912 0.322272
v -0.226045 -0.442664 0.338301
v -0.234545 -0.426702 0.351021
v -0.240002 -0.406589 0.359188
v -0.258960 -0.456443 0.258960
v -0.307858 -0.384294 0.307858
v -0.274070 -0.452912 0.274070
v -0.287701 -0.442664 0.287701
v -0.298519 -0.426702 0.298519
v -0.305464 -0.406589 0.305464
v -0.304504 -0.456443 0.203463
v -0.362002 -0.384294 0.241882
v -0.322272 -0.452912 0.215335
v -0.338301 -0.442664 0.226045
v -0.351021 -0.426702 0.234545
v -0.359188 -0.406589 0.240002
v -0.338347 -0.456443 0.140148
v -0.402235 -0.384294 0.166611
v -0.358090 -0.452912 0.148326
v -0.375900 -0.442664 0.155703
v -0.390034 -0.426702 0.161557
v -0.399108 -0.406589 0.165316
v -0.359187 -0.456443 0.071447
v -0.427011 -0.384294 0.084938
v -0.380146 -0.452912 0.075616
v -0.399053 -0.442664 0.079377
v -0.414058 -0.426702 0.082361
v -0.423691 -0.406589 0.084277
v -0.366224 -0.456443 -0.000000
v -0.435376 -0.384294 0.000000
v -0.387593 -0.452912 -0.000000
v -0.406871 -0.442664 -0.000000
v -0.422169 -0.426702 -0.000000
v -0.431992 -0.406589 0.000000
v -0.359187 -0.456443 -0.071447
v -0.427011 -0.384294 -0.084938
v -0.380146 -0.452912 -0.075616
v -0.399053 -0.442664 -0.079377
v -0.414058 -0.426702 -0.082361
v -0.423691 -0.406589 -0.084277
v -0.338347 -0.456443 -0.140148
v -0.402235 -0.384294 -0.166611
v -0.358090 -0.452912 -0.148326
v -0.375900 -0.442664 -0.155703
v -0.390034 -0.426702 -0.161557
v -0.399108 -0.406589 -0.165316
v -0.304504 -0.456443 -0.203463
v -0.362002 -0.384294 -0.241882
v -0.322272 -0.452912 -0.215335
v -0.338301 -0.442664 -0.226045
v -0.351021 -0.426702 -0.234545
v -0.359188 -0.406589 -0.240002
v -0.258960 -0.456443 -0.258960
v -0.307858 -0.384294 -0.307858
v -0.274070 -0.452912 -0.274070
v -0.287701 -0.442664 -0.287701
v -0.298519 -0.426702 -0.298519
v -0.305464 -0.406589 -0.305464
v -0.203463 -0.456443 -0.304504
v -0.241882 -0.384294 -0.362002
v -0.215335 -0.452912 -0.322272
v -0.226045 -0.442664 -0.338301
v -0.234545 -0.426702 -0.351021
v -0.240002 -0.406589 -0.359188
v -0.140148 -0.456443 -0.338347
v -0.166611 -0.384294 -0.402235
v -0.148326 -0.452912 -0.358090
v -0.155703 -0.442664 -0.375900
v -0.161557 -0.426702 -0.390034
v -0.165316 -0.406589 -0.399108
v -0.071447 -0.456443 -0.359187
v -0.084938 -0.384294 -0.427011
v -0.075616 -0.452912 -0.380146
v -0.079377 -0.442664 -0.399053
v -0.082361 -0.426702 -0.414058
v -0.084277 -0.406589 -0.423691
vn -0.0000 1.0000 -0.0000
vn -0.9952 -0.0000 0.0980
vn -0.2903 -0.0000 0.9569
vn -0.9569 -0.0000 0.2903
vn 0.2903 -0.0000 0.9569
vn -0.0980 -0.0000 0.9952
vn 0.8819 -0.0000 -0.4714
vn -0.0980 -0.0000 -0.9952
vn -0.9952 -0.0000 -0.0980
vn -0.9569 -0.0000 -0.2903
vn 0.4714 -0.0000 0.8819
vn -0.8819 -0.0000 -0.4714
vn 0.7730 -0.0000 -0.6344
vn -0.2903 -0.0000 -0.9569
vn -0.7730 -0.0000 -0.6344
vn -0.8819 -0.0000 0.4714
vn -0.6344 -0.0000 -0.7730
vn 0.6344 -0.0000 0.7730
vn -0.4714 -0.0000 -0.8819
vn 0.6344 -0.0000 -0.7730
vn -0.7730 -0.0000 0.6344
vn 0.7730 -0.0000 0.6344
vn 0.0980 -0.0000 -0.9952
vn 0.4714 -0.0000 -0.8819
vn 0.2903 -0.0000 -0.9569
vn -0.6344 -0.0000 0.7730
vn 0.0980 -0.0000 0.9952
vn 0.9569 -0.0000 -0.2903
vn -0.4714 -0.0000 0.8819
vn 0.9952 -0.0000 -0.0980
vn 0.8819 -0.0000 0.4714
vn 0.9569 -0.0000 0.2903
vn 0.9952 -0.0000 0.0980
vn 0.0969 -0.1494 -0.9840
vn 0.0882 -0.4371 -0.8951
vn 0.0709 -0.6902 -0.7201
vn 0.0462 -0.8820 -0.4689
vn 0.0161 -0.9865 -0.1630
vn 0.2870 -0.1494 -0.9462
vn 0.2611 -0.4371 -0.8607
vn 0.2101 -0.6902 -0.6925
vn 0.1368 -0.8820 -0.4509
vn 0.0475 -0.9865 -0.1568
vn 0.4661 -0.1494 -0.8720
vn 0.4240 -0.4371 -0.7932
vn 0.3411 -0.6902 -0.6382
vn 0.2221 -0.8820 -0.4155
vn 0.0772 -0.9865 -0.1445
vn 0.6273 -0.1494 -0.7643
vn 0.5706 -0.4371 -0.6952
vn 0.4591 -0.6902 -0.5594
vn 0.2989 -0.8820 -0.3642
vn 0.1039 -0.9865 -0.1266
vn 0.7643 -0.1494 -0.6273
vn 0.6952 -0.4371 -0.5706
vn 0.5594 -0.6902 -0.4591
vn 0.3642 -0.8820 -0.2989
vn 0.1266 -0.9865 -0.1039
vn 0.8720 -0.1494 -0.4661
vn 0.7932 -0.4371 -0.4240
vn 0.6382 -0.6902 -0.3411
vn 0.4155 -0.8820 -0.2221
vn 0.1445 -0.9865 -0.0772
vn 0.9462 -0.1494 -0.2870
vn 0.8607 -0.4371 -0.2611
vn 0.6924 -0.6902 -0.2101
vn 0.4509 -0.8820 -0.1368
vn 0.1568 -0.9865 -0.0475
vn 0.9840 -0.1494 -0.0969
vn 0.8951 -0.4371 -0.0882
vn 0.7201 -0.6902 -0.0709
vn 0.4689 -0.8820 -0.0462
vn 0.1630 -0.9865 -0.0161
vn 0.9840 -0.1494 0.0969
vn 0.8951 -0.4371 0.0882
vn 0.7201 -0.6902 0.0709
vn 0.4689 -0.8820 0.0462
vn 0.1630 -0.9865 0.0161
vn 0.9462 -0.1494 0.2870
vn 0.8607 -0.4371 0.2611
vn 0.6924 -0.6902 0.2101
vn 0.4509 -0.8820 0.1368
vn 0.1568 -0.9865 0.0475
vn 0.8720 -0.1494 0.4661
vn 0.7932 -0.4371 0.4240
vn 0.6382 -0.6902 0.3411
vn 0.4155 -0.8820 0.2221
vn 0.1445 -0.9865 0.0772
vn 0.7643 -0.1494 0.6273
vn 0.6952 -0.4371 0.5706
vn 0.5594 -0.6902 0.4591
vn 0.3642 -0.8820 0.2989
vn 0.1266 -0.9865 0.1039
vn 0.6273 -0.1494 0.7643
vn 0.5706 -0.4371 0.6952
vn 0.4591 -0.6902 0.5594
vn 0.2989 -0.8820 0.3642
vn 0.1039 -0.9865 0.1266
vn 0.4661 -0.1494 0.8720
vn 0.4240 -0.4371 0.7932
vn 0.3411 -0.6902 0.6382
vn 0.2221 -0.8820 0.4155
vn 0.0772 -0.9865 0.1445
vn 0.2870 -0.1494 0.9462
vn 0.2611 -0.4371 0.8607
vn 0.2101 -0.6902 0.6925
vn 0.1368 -0.8820 0.4509
vn 0.0475 -0.9865 0.1568
vn 0.0969 -0.1494 0.9840
vn 0.0882 -0.4371 0.8951
vn 0.0709 -0.6902 0.7201
vn 0.0462 -0.8820 0.4689
vn 0.0161 -0.9865 0.1630
vn -0.0969 -0.1494 0.9840
vn -0.0882 -0.4371 0.8951
vn -0.0709 -0.6902 0.7201
vn -0.0462 -0.8820 0.4689
vn -0.0161 -0.9865 0.1630
vn -0.2870 -0.1494 0.9462
vn -0.2611 -0.4371 0.8607
vn -0.2101 -0.6902 0.6925
vn -0.1368 -0.8820 0.4509
vn -0.0475 -0.9865 0.1568
vn -0.4661 -0.1494 0.8720
vn -0.4240 -0.4371 0.7932
vn -0.3411 -0.6902 0.6382
vn -0.2221 -0.8820 0.4155
vn -0.0772 -0.9865 0.1445
vn -0.6273 -0.1494 0.7643
vn -0.5706 -0.4371 0.6952
vn -0.4591 -0.6902 0.5594
vn -0.2989 -0.8820 0.3642
vn -0.1039 -0.9865 0.1266
vn -0.7643 -0.1494 0.6273
vn -0.6952 -0.4371 0.5706
vn -0.5594 -0.6902 0.4591
vn -0.3642 -0.8820 0.2989
vn -0.1266 -0.9865 0.1039
vn -0.8720 -0.1494 0.4661
vn -0.7932 -0.4371 0.4240
vn -0.6382 -0.6902 0.3411
vn -0.4155 -0.8820 0.2221
vn -0.1445 -0.9865 0.0772
vn -0.9462 -0.1494 0.2870
vn -0.8607 -0.4371 0.2611
vn -0.6924 -0.6902 0.2101
vn -0.4509 -0.8820 0.1368
vn -0.1568 -0.9865 0.0475
vn -0.9840 -0.1494 0.0969
vn -0.8951 -0.4371 0.0882
vn -0.7201 -0.6902 0.0709
vn -0.4689 -0.8820 0.0462
vn -0.1630 -0.9865 0.0161
vn -0.9840 -0.1494 -0.0969
vn -0.8951 -0.4371 -0.0882
vn -0.7201 -0.6902 -0.0709
vn -0.4689 -0.8820 -0.0462
vn -0.1630 -0.9865 -0.0161
vn -0.9462 -0.1494 -0.2870
vn -0.8607 -0.4371 -0.2611
vn -0.6924 -0.6902 -0.2101
vn -0.4509 -0.8820 -0.1368
vn -0.1568 -0.9865 -0.0475
vn -0.8720 -0.1494 -0.4661
vn -0.7932 -0.4371 -0.4240
vn -0.6382 -0.6902 -0.3411
vn -0.4155 -0.8820 -0.2221
vn -0.1445 -0.9865 -0.0772
vn -0.7643 -0.1494 -0.6273
vn -0.6952 -0.4371 -0.5706
vn -0.5594 -0.6902 -0.4591
vn -0.3642 -0.8820 -0.2989
vn -0.1266 -0.9865 -0.1039
vn -0.6273 -0.1494 -0.7643
vn -0.5706 -0.4371 -0.6952
vn -0.4591 -0.6902 -0.5594
vn -0.2989 -0.8820 -0.3642
vn -0.1039 -0.9865 -0.1266
vn -0.4661 -0.1494 -0.8720
vn -0.4240 -0.4371 -0.7932
vn -0.3411 -0.6902 -0.6382
vn -0.2221 -0.8820 -0.4155
vn -0.0772 -0.9865 -0.1445
vn -0.2870 -0.1494 -0.9462
vn -0.2611 -0.4371 -0.8607
vn -0.2101 -0.6902 -0.6925
vn -0.1368 -0.8820 -0.4509
vn -0.0475 -0.9865 -0.1568
vn -0.0969 -0.1494 -0.9840
vn -0.0882 -0.4371 -0.8951
vn -0.0709 -0.6902 -0.7201
vn -0.0462 -0.8820 -0.4689
vn -0.0161 -0.9865 -0.1630
vn -0.0000 -1.0000 -0.0000
vt 0.247136 0.950952
vt 0.212098 0.954403
vt 0.177060 0.950952
vt 0.143368 0.940732
vt 0.112318 0.924135
vt 0.085102 0.901799
vt 0.062767 0.874584
vt 0.046170 0.843534
vt 0.035950 0.809842
vt 0.032499 0.774804
vt 0.035950 0.739766
vt 0.046170 0.706075
vt 0.062767 0.675025
vt 0.085102 0.647809
vt 0.112318 0.625474
vt 0.143368 0.608877
vt 0.177060 0.598657
vt 0.212098 0.595206
vt 0.247136 0.598657
vt 0.280827 0.608877
vt 0.311877 0.625474
vt 0.339093 0.647809
vt 0.361428 0.675025
vt 0.378025 0.706075
vt 0.388245 0.739766
vt 0.391696 0.774804
vt 0.388245 0.809842
vt 0.378025 0.843534
vt 0.361428 0.874584
vt 0.339093 0.901799
vt 0.311877 0.924135
vt 0.280827 0.940732
vt 0.830217 0.407241
vt 0.791562 0.407241
vt 0.791562 0.412342
vt 0.830217 0.412342
vt 0.224495 0.210922
vt 0.259974 0.210922
vt 0.259974 0.216015
vt 0.224495 0.216015
vt 0.868873 0.407241
vt 0.906043 0.407241
vt 0.906043 0.412342
vt 0.868873 0.412342
vt 0.187598 0.210922
vt 0.187598 0.216015
vt 0.912640 0.965784
vt 0.946895 0.965784
vt 0.946896 0.970884
vt 0.912640 0.970884
vt 0.836814 0.965784
vt 0.798159 0.965784
vt 0.798159 0.970884
vt 0.836814 0.970884
vt 0.150701 0.210922
vt 0.150701 0.216015
vt 0.754392 0.407241
vt 0.754392 0.412342
vt 0.115222 0.210922
vt 0.115222 0.216015
vt 0.940299 0.407241
vt 0.940299 0.412342
vt 0.082524 0.210922
vt 0.082524 0.216015
vt 0.976921 0.965784
vt 0.976921 0.970884
vt 0.760989 0.965784
vt 0.760989 0.970884
vt 0.053865 0.210922
vt 0.053865 0.216015
vt 0.720136 0.407241
vt 0.720136 0.412342
vt 0.323530 0.239509
vt 0.294870 0.239509
vt 0.294870 0.244602
vt 0.323530 0.244602
vt 0.970324 0.407241
vt 0.970324 0.412342
vt 0.262173 0.239509
vt 0.262173 0.244602
vt 0.726733 0.965784
vt 0.726733 0.970884
vt 0.226694 0.239509
vt 0.226694 0.244602
vt 0.690110 0.407241
vt 0.690110 0.412342
vt 0.189797 0.239509
vt 0.189797 0.244602
vt 0.696707 0.965784
vt 0.696707 0.970884
vt 0.152900 0.239509
vt 0.152900 0.244602
vt 0.117421 0.239509
vt 0.117421 0.244602
vt 0.084723 0.239509
vt 0.084723 0.244602
vt 0.257741 0.405120
vt 0.221089 0.408730
vt 0.221089 0.400453
vt 0.256127 0.397002
vt 0.184436 0.405120
vt 0.186051 0.397002
vt 0.149192 0.394429
vt 0.152359 0.386782
vt 0.116711 0.377067
vt 0.121309 0.370185
vt 0.088241 0.353702
vt 0.094094 0.347850
vt 0.064877 0.325233
vt 0.071758 0.320634
vt 0.047515 0.292751
vt 0.055162 0.289584
vt 0.036824 0.257507
vt 0.044941 0.255893
vt 0.033214 0.220855
vt 0.041490 0.220855
vt 0.036824 0.184202
vt 0.044941 0.185817
vt 0.047515 0.148958
vt 0.055162 0.152125
vt 0.064877 0.116477
vt 0.071758 0.121075
vt 0.088241 0.088007
vt 0.094094 0.093860
vt 0.116711 0.064642
vt 0.121309 0.071524
vt 0.149192 0.047281
vt 0.152359 0.054927
vt 0.184436 0.036590
vt 0.186051 0.044707
vt 0.221089 0.032980
vt 0.221089 0.041256
vt 0.257741 0.036590
vt 0.256127 0.044707
vt 0.292985 0.047281
vt 0.289818 0.054927
vt 0.325467 0.064642
vt 0.320868 0.071524
vt 0.353936 0.088007
vt 0.348084 0.093860
vt 0.377301 0.116477
vt 0.370419 0.121075
vt 0.394663 0.148958
vt 0.387016 0.152125
vt 0.405354 0.184202
vt 0.397236 0.185817
vt 0.408964 0.220855
vt 0.400687 0.220855
vt 0.405354 0.257507
vt 0.397236 0.255893
vt 0.394663 0.292751
vt 0.387016 0.289584
vt 0.377301 0.325233
vt 0.370419 0.320634
vt 0.353936 0.353702
vt 0.348084 0.347850
vt 0.325467 0.377067
vt 0.320868 0.370185
vt 0.292985 0.394429
vt 0.289818 0.386782
vt 0.292672 0.210922
vt 0.292672 0.216015
vt 0.875470 0.965784
vt 0.875470 0.970884
vt 0.321331 0.210922
vt 0.321331 0.216015
vt 0.115222 0.210922
vt 0.115222 0.216015
vt 0.056064 0.239509
vt 0.056064 0.244602
vt 0.836814 0.600821
vt 0.875470 0.600821
vt 0.875169 0.591143
vt 0.836814 0.591143
vt 0.874297 0.582412
vt 0.836814 0.582412
vt 0.508482 0.694131
vt 0.544746 0.690559
vt 0.543431 0.683952
vt 0.508482 0.687394
vt 0.541775 0.675627
vt 0.508482 0.678907
vt 0.539940 0.666399
vt 0.508482 0.669498
vt 0.912640 0.600821
vt 0.912050 0.591143
vt 0.910340 0.582412
vt 0.579616 0.679981
vt 0.577038 0.673758
vt 0.573790 0.665916
vt 0.570189 0.657223
vt 0.946895 0.600821
vt 0.946040 0.591143
vt 0.943556 0.582412
vt 0.611753 0.662804
vt 0.608010 0.657203
vt 0.603295 0.650145
vt 0.598067 0.642322
vt 0.976921 0.600821
vt 0.975832 0.591143
vt 0.972671 0.582412
vt 0.639921 0.639687
vt 0.635158 0.634924
vt 0.629156 0.628922
vt 0.622503 0.622269
vt 0.946896 0.600821
vt 0.663038 0.611519
vt 0.657437 0.607776
vt 0.650379 0.603061
vt 0.642556 0.597833
vt 0.680215 0.579382
vt 0.673992 0.576804
vt 0.666150 0.573556
vt 0.657457 0.569955
vt 0.690793 0.544511
vt 0.684186 0.543197
vt 0.675862 0.541541
vt 0.666633 0.539706
vt 0.694365 0.508247
vt 0.687629 0.508247
vt 0.679141 0.508247
vt 0.669732 0.508247
vt 0.798159 0.600821
vt 0.798460 0.591143
vt 0.799331 0.582412
vt 0.690793 0.471983
vt 0.684186 0.473298
vt 0.675862 0.474954
vt 0.666633 0.476789
vt 0.760989 0.600821
vt 0.761579 0.591143
vt 0.763289 0.582412
vt 0.680215 0.437113
vt 0.673992 0.439691
vt 0.666150 0.442939
vt 0.657457 0.446540
vt 0.726733 0.600821
vt 0.727589 0.591143
vt 0.730072 0.582412
vt 0.663038 0.404976
vt 0.657437 0.408719
vt 0.650379 0.413434
vt 0.642556 0.418662
vt 0.696707 0.600821
vt 0.697797 0.591143
vt 0.700958 0.582412
vt 0.639921 0.376808
vt 0.635158 0.381571
vt 0.629156 0.387573
vt 0.622503 0.394226
vt 0.970324 0.042278
vt 0.940299 0.042278
vt 0.939443 0.032600
vt 0.969235 0.032600
vt 0.936959 0.023869
vt 0.966074 0.023869
vt 0.611753 0.353691
vt 0.608010 0.359292
vt 0.603295 0.366350
vt 0.598067 0.374173
vt 0.906043 0.042278
vt 0.905453 0.032600
vt 0.903743 0.023869
vt 0.579616 0.336514
vt 0.577038 0.342737
vt 0.573790 0.350579
vt 0.570189 0.359272
vt 0.868873 0.042278
vt 0.868572 0.032600
vt 0.867700 0.023869
vt 0.544746 0.325936
vt 0.543431 0.332543
vt 0.541775 0.340867
vt 0.539940 0.350096
vt 0.830217 0.042278
vt 0.830217 0.032600
vt 0.830217 0.023869
vt 0.508482 0.322364
vt 0.508482 0.329100
vt 0.508482 0.337588
vt 0.508482 0.346997
vt 0.791562 0.042278
vt 0.791862 0.032600
vt 0.792735 0.023869
vt 0.472218 0.325936
vt 0.473532 0.332543
vt 0.475188 0.340867
vt 0.477023 0.350096
vt 0.754392 0.042278
vt 0.754982 0.032600
vt 0.756692 0.023869
vt 0.437347 0.336514
vt 0.439925 0.342737
vt 0.443173 0.350579
vt 0.446774 0.359272
vt 0.720136 0.042278
vt 0.720992 0.032600
vt 0.723475 0.023869
vt 0.405210 0.353691
vt 0.408953 0.359292
vt 0.413668 0.366350
vt 0.418896 0.374173
vt 0.690110 0.042278
vt 0.691200 0.032600
vt 0.694360 0.023869
vt 0.377042 0.376808
vt 0.381805 0.381571
vt 0.387807 0.387573
vt 0.394460 0.394226
vt 0.720136 0.042278
vt 0.720992 0.032600
vt 0.353925 0.404976
vt 0.359526 0.408719
vt 0.366584 0.413434
vt 0.374407 0.418662
vt 0.336748 0.437113
vt 0.342971 0.439691
vt 0.350813 0.442939
vt 0.359506 0.446540
vt 0.326170 0.471983
vt 0.332777 0.473298
vt 0.341101 0.474954
vt 0.350330 0.476789
vt 0.322598 0.508247
vt 0.329334 0.508247
vt 0.337822 0.508247
vt 0.347231 0.508247
vt 0.326170 0.544511
vt 0.332777 0.543197
vt 0.341101 0.541541
vt 0.350330 0.539706
vt 0.336748 0.579382
vt 0.342971 0.576804
vt 0.350813 0.573556
vt 0.359506 0.569955
vt 0.353925 0.611519
vt 0.359526 0.607776
vt 0.366584 0.603061
vt 0.374407 0.597833
vt 0.377042 0.639687
vt 0.381805 0.634924
vt 0.387807 0.628922
vt 0.394460 0.622269
vt 0.696707 0.600821
vt 0.405210 0.662804
vt 0.408953 0.657203
vt 0.413668 0.650145
vt 0.418896 0.642322
vt 0.437347 0.679981
vt 0.439925 0.673758
vt 0.443173 0.665916
vt 0.446774 0.657223
vt 0.798459 0.591143
vt 0.472218 0.690559
vt 0.473532 0.683952
vt 0.475188 0.675627
vt 0.477023 0.666399
s 0
g Can_2_Material.009
usemtl Material.009
f 33/1/1 34/2/1 35/3/1 36/4/1 37/5/1 38/6/1 39/7/1 40/8/1 41/9/1 42/10/1 43/11/1 44/12/1 45/13/1 46/14/1 47/15/1 48/16/1 49/17/1 50/18/1 51/19/1 52/20/1 53/21/1 54/22/1 55/23/1 56/24/1 57/25/1 58/26/1 59/27/1 60/28/1 61/29/1 62/30/1 63/31/1 64/32/1
f 25/33/2 24/34/2 88/35/2 89/36/2
f 33/37/3 64/38/3 99/39/3 97/40/3
f 60/38/4 59/37/4 124/40/4 125/39/4
f 16/41/5 15/42/5 79/43/5 80/44/5
f 34/45/6 33/37/6 97/40/6 98/46/6
f 59/37/2 58/45/2 123/46/2 124/40/2
f 7/47/7 6/48/7 70/49/7 71/50/7
f 1/51/8 32/52/8 96/53/8 66/54/8
f 58/45/9 57/55/9 122/56/9 123/46/9
f 24/34/4 23/57/4 87/58/4 88/35/4
f 57/55/10 56/59/10 121/60/10 122/56/10
f 15/42/11 14/61/11 78/62/11 79/43/11
f 56/59/12 55/63/12 120/64/12 121/60/12
f 6/48/13 5/65/13 69/66/13 70/49/13
f 32/52/14 31/67/14 95/68/14 96/53/14
f 55/63/15 54/69/15 119/70/15 120/64/15
f 23/57/16 22/71/16 86/72/16 87/58/16
f 54/73/17 53/74/17 118/75/17 119/76/17
f 14/61/18 13/77/18 77/78/18 78/62/18
f 53/74/19 52/79/19 117/80/19 118/75/19
f 5/65/20 4/48/20 68/49/20 69/66/20
f 31/67/19 30/81/19 94/82/19 95/68/19
f 52/79/14 51/83/14 116/84/14 117/80/14
f 22/71/21 21/85/21 85/86/21 86/72/21
f 51/83/8 50/87/8 115/88/8 116/84/8
f 13/89/22 12/81/22 76/82/22 77/90/22
f 50/87/23 49/91/23 114/92/23 115/88/23
f 4/48/24 3/47/24 67/50/24 68/49/24
f 30/81/17 29/89/17 93/90/17 94/82/17
f 49/91/25 48/93/25 113/94/25 114/92/25
f 21/85/26 20/71/26 84/72/26 85/86/26
f 48/93/24 47/95/24 112/96/24 113/94/24
f 65/97/1 66/98/1 98/99/1 97/100/1
f 66/98/1 96/101/1 100/102/1 98/99/1
f 96/101/1 95/103/1 101/104/1 100/102/1
f 95/103/1 94/105/1 102/106/1 101/104/1
f 94/105/1 93/107/1 103/108/1 102/106/1
f 93/107/1 92/109/1 104/110/1 103/108/1
f 92/109/1 91/111/1 105/112/1 104/110/1
f 91/111/1 90/113/1 106/114/1 105/112/1
f 90/113/1 89/115/1 107/116/1 106/114/1
f 89/115/1 88/117/1 108/118/1 107/116/1
f 88/117/1 87/119/1 109/120/1 108/118/1
f 87/119/1 86/121/1 110/122/1 109/120/1
f 86/121/1 85/123/1 111/124/1 110/122/1
f 85/123/1 84/125/1 112/126/1 111/124/1
f 84/125/1 83/127/1 113/128/1 112/126/1
f 83/127/1 82/129/1 114/130/1 113/128/1
f 82/129/1 81/131/1 115/132/1 114/130/1
f 81/131/1 80/133/1 116/134/1 115/132/1
f 80/133/1 79/135/1 117/136/1 116/134/1
f 79/135/1 78/137/1 118/138/1 117/136/1
f 78/137/1 77/139/1 119/140/1 118/138/1
f 77/139/1 76/141/1 120/142/1 119/140/1
f 76/141/1 75/143/1 121/144/1 120/142/1
f 75/143/1 74/145/1 122/146/1 121/144/1
f 74/145/1 73/147/1 123/148/1 122/146/1
f 73/147/1 72/149/1 124/150/1 123/148/1
f 72/149/1 71/151/1 125/152/1 124/150/1
f 71/151/1 70/153/1 126/154/1 125/152/1
f 70/153/1 69/155/1 127/156/1 126/154/1
f 69/155/1 68/157/1 128/158/1 127/156/1
f 68/157/1 67/159/1 99/160/1 128/158/1
f 67/159/1 65/97/1 97/100/1 99/160/1
f 61/161/16 60/38/16 125/39/16 126/162/16
f 35/55/27 34/45/27 98/46/27 100/56/27
f 8/163/28 7/47/28 71/50/28 72/164/28
f 62/165/21 61/161/21 126/162/21 127/166/21
f 36/167/5 35/55/5 100/56/5 101/168/5
f 17/33/27 16/41/27 80/44/27 81/36/27
f 63/161/26 62/165/26 127/166/26 128/162/26
f 37/63/11 36/167/11 101/168/11 102/64/11
f 26/41/9 25/33/9 89/36/9 90/44/9
f 64/38/29 63/161/29 128/162/29 99/39/29
f 38/69/18 37/63/18 102/64/18 103/70/18
f 9/51/30 8/163/30 72/164/30 73/54/30
f 39/74/22 38/73/22 103/76/22 104/75/22
f 18/34/6 17/33/6 81/36/6 82/35/6
f 40/79/31 39/74/31 104/75/31 105/80/31
f 27/42/10 26/41/10 90/44/10 91/43/10
f 41/83/32 40/79/32 105/80/32 106/84/32
f 10/52/33 9/51/33 73/54/33 74/53/33
f 42/87/33 41/83/33 106/84/33 107/88/33
f 19/57/3 18/34/3 82/35/3 83/58/3
f 2/163/23 1/51/23 66/54/23 65/164/23
f 43/91/30 42/87/30 107/88/30 108/92/30
f 28/61/12 27/42/12 91/43/12 92/62/12
f 44/93/28 43/91/28 108/92/28 109/94/28
f 11/67/32 10/52/32 74/53/32 75/68/32
f 45/95/7 44/93/7 109/94/7 110/96/7
f 20/71/29 19/57/29 83/58/29 84/72/29
f 46/169/13 45/95/13 110/96/13 111/170/13
f 29/77/15 28/61/15 92/62/15 93/78/15
f 3/47/25 2/163/25 65/164/25 67/50/25
f 47/95/20 46/169/20 111/170/20 112/96/20
f 12/81/31 11/67/31 75/68/31 76/82/31
f 130/171/34 136/172/34 140/173/34 134/174/34
f 134/174/35 140/173/35 139/175/35 133/176/35
f 133/177/36 139/178/36 138/179/36 132/180/36
f 132/180/37 138/179/37 137/181/37 131/182/37
f 131/182/38 137/181/38 135/183/38 129/184/38
f 136/172/39 142/185/39 146/186/39 140/173/39
f 140/173/40 146/186/40 145/187/40 139/175/40
f 139/178/41 145/188/41 144/189/41 138/179/41
f 138/179/42 144/189/42 143/190/42 137/181/42
f 137/181/43 143/190/43 141/191/43 135/183/43
f 142/185/44 148/192/44 152/193/44 146/186/44
f 146/186/45 152/193/45 151/194/45 145/187/45
f 145/188/46 151/195/46 150/196/46 144/189/46
f 144/189/47 150/196/47 149/197/47 143/190/47
f 143/190/48 149/197/48 147/198/48 141/191/48
f 148/192/49 154/199/49 158/200/49 152/193/49
f 152/193/50 158/200/50 157/201/50 151/194/50
f 151/195/51 157/202/51 156/203/51 150/196/51
f 150/196/52 156/203/52 155/204/52 149/197/52
f 149/197/53 155/204/53 153/205/53 147/198/53
f 154/199/54 160/206/54 164/193/54 158/200/54
f 158/200/55 164/193/55 163/194/55 157/201/55
f 157/202/56 163/207/56 162/208/56 156/203/56
f 156/203/57 162/208/57 161/209/57 155/204/57
f 155/204/58 161/209/58 159/210/58 153/205/58
f 160/206/59 166/185/59 170/186/59 164/193/59
f 164/193/60 170/186/60 169/187/60 163/194/60
f 163/207/61 169/211/61 168/212/61 162/208/61
f 162/208/62 168/212/62 167/213/62 161/209/62
f 161/209/63 167/213/63 165/214/63 159/210/63
f 166/185/64 172/172/64 176/173/64 170/186/64
f 170/186/65 176/173/65 175/175/65 169/187/65
f 169/211/66 175/215/66 174/216/66 168/212/66
f 168/212/67 174/216/67 173/217/67 167/213/67
f 167/213/68 173/217/68 171/218/68 165/214/68
f 172/172/69 178/171/69 182/174/69 176/173/69
f 176/173/70 182/174/70 181/176/70 175/175/70
f 175/215/71 181/219/71 180/220/71 174/216/71
f 174/216/72 180/220/72 179/221/72 173/217/72
f 173/217/73 179/221/73 177/222/73 171/218/73
f 178/171/74 184/223/74 188/224/74 182/174/74
f 182/174/75 188/224/75 187/225/75 181/176/75
f 181/219/76 187/226/76 186/227/76 180/220/76
f 180/220/77 186/227/77 185/228/77 179/221/77
f 179/221/78 185/228/78 183/229/78 177/222/78
f 184/223/79 190/230/79 194/231/79 188/224/79
f 188/224/80 194/231/80 193/232/80 187/225/80
f 187/226/81 193/233/81 192/234/81 186/227/81
f 186/227/82 192/234/82 191/235/82 185/228/82
f 185/228/83 191/235/83 189/236/83 183/229/83
f 190/230/84 196/237/84 200/238/84 194/231/84
f 194/231/85 200/238/85 199/239/85 193/232/85
f 193/233/86 199/240/86 198/241/86 192/234/86
f 192/234/87 198/241/87 197/242/87 191/235/87
f 191/235/88 197/242/88 195/243/88 189/236/88
f 196/237/89 202/244/89 206/245/89 200/238/89
f 200/238/90 206/245/90 205/246/90 199/239/90
f 199/240/91 205/247/91 204/248/91 198/241/91
f 198/241/92 204/248/92 203/249/92 197/242/92
f 197/242/93 203/249/93 201/250/93 195/243/93
f 202/251/94 208/252/94 212/253/94 206/254/94
f 206/254/95 212/253/95 211/255/95 205/256/95
f 205/247/96 211/257/96 210/258/96 204/248/96
f 204/248/97 210/258/97 209/259/97 203/249/97
f 203/249/98 209/259/98 207/260/98 201/250/98
f 208/252/99 214/261/99 218/262/99 212/253/99
f 212/253/100 218/262/100 217/263/100 211/255/100
f 211/257/101 217/264/101 216/265/101 210/258/101
f 210/258/102 216/265/102 215/266/102 209/259/102
f 209/259/103 215/266/103 213/267/103 207/260/103
f 214/261/104 220/268/104 224/269/104 218/262/104
f 218/262/105 224/269/105 223/270/105 217/263/105
f 217/264/106 223/271/106 222/272/106 216/265/106
f 216/265/107 222/272/107 221/273/107 215/266/107
f 215/266/108 221/273/108 219/274/108 213/267/108
f 220/268/109 226/275/109 230/276/109 224/269/109
f 224/269/110 230/276/110 229/277/110 223/270/110
f 223/271/111 229/278/111 228/279/111 222/272/111
f 222/272/112 228/279/112 227/280/112 221/273/112
f 221/273/113 227/280/113 225/281/113 219/274/113
f 226/275/114 232/282/114 236/283/114 230/276/114
f 230/276/115 236/283/115 235/284/115 229/277/115
f 229/278/116 235/285/116 234/286/116 228/279/116
f 228/279/117 234/286/117 233/287/117 227/280/117
f 227/280/118 233/287/118 231/288/118 225/281/118
f 232/282/119 238/289/119 242/290/119 236/283/119
f 236/283/120 242/290/120 241/291/120 235/284/120
f 235/285/121 241/292/121 240/293/121 234/286/121
f 234/286/122 240/293/122 239/294/122 233/287/122
f 233/287/123 239/294/123 237/295/123 231/288/123
f 238/289/124 244/296/124 248/297/124 242/290/124
f 242/290/125 248/297/125 247/298/125 241/291/125
f 241/292/126 247/299/126 246/300/126 240/293/126
f 240/293/127 246/300/127 245/301/127 239/294/127
f 239/294/128 245/301/128 243/302/128 237/295/128
f 244/296/129 250/303/129 254/304/129 248/297/129
f 248/297/130 254/304/130 253/305/130 247/298/130
f 247/299/131 253/306/131 252/307/131 246/300/131
f 246/300/132 252/307/132 251/308/132 245/301/132
f 245/301/133 251/308/133 249/309/133 243/302/133
f 250/303/134 256/310/134 260/311/134 254/304/134
f 254/304/135 260/311/135 259/298/135 253/305/135
f 253/306/136 259/312/136 258/313/136 252/307/136
f 252/307/137 258/313/137 257/314/137 251/308/137
f 251/308/138 257/314/138 255/315/138 249/309/138
f 256/310/139 262/289/139 266/290/139 260/311/139
f 260/311/140 266/290/140 265/291/140 259/298/140
f 259/312/141 265/316/141 264/317/141 258/313/141
f 258/313/142 264/317/142 263/318/142 257/314/142
f 257/314/143 263/318/143 261/319/143 255/315/143
f 262/289/144 268/282/144 272/283/144 266/290/144
f 266/290/145 272/283/145 271/284/145 265/291/145
f 265/316/146 271/320/146 270/321/146 264/317/146
f 264/317/147 270/321/147 269/322/147 263/318/147
f 263/318/148 269/322/148 267/323/148 261/319/148
f 268/282/149 274/275/149 278/276/149 272/283/149
f 272/283/150 278/276/150 277/277/150 271/284/150
f 271/320/151 277/324/151 276/325/151 270/321/151
f 270/321/152 276/325/152 275/326/152 269/322/152
f 269/322/153 275/326/153 273/327/153 267/323/153
f 274/275/154 280/268/154 284/269/154 278/276/154
f 278/276/155 284/269/155 283/270/155 277/277/155
f 277/324/156 283/328/156 282/329/156 276/325/156
f 276/325/157 282/329/157 281/330/157 275/326/157
f 275/326/158 281/330/158 279/331/158 273/327/158
f 280/268/159 286/261/159 290/262/159 284/269/159
f 284/269/160 290/262/160 289/263/160 283/270/160
f 283/328/161 289/332/161 288/333/161 282/329/161
f 282/329/162 288/333/162 287/334/162 281/330/162
f 281/330/163 287/334/163 285/335/163 279/331/163
f 286/261/164 292/252/164 296/253/164 290/262/164
f 290/262/165 296/253/165 295/255/165 289/263/165
f 289/332/166 295/336/166 294/337/166 288/333/166
f 288/333/167 294/337/167 293/338/167 287/334/167
f 287/334/168 293/338/168 291/339/168 285/335/168
f 292/252/169 298/251/169 302/254/169 296/253/169
f 296/253/170 302/254/170 301/256/170 295/255/170
f 295/336/171 301/340/171 300/341/171 294/337/171
f 294/337/172 300/341/172 299/342/172 293/338/172
f 293/338/173 299/342/173 297/343/173 291/339/173
f 298/344/174 304/237/174 308/238/174 302/245/174
f 302/245/175 308/238/175 307/239/175 301/246/175
f 301/340/176 307/345/176 306/346/176 300/341/176
f 300/341/177 306/346/177 305/347/177 299/342/177
f 299/342/178 305/347/178 303/348/178 297/343/178
f 304/237/179 310/230/179 314/231/179 308/238/179
f 308/238/180 314/231/180 313/232/180 307/239/180
f 307/345/181 313/349/181 312/350/181 306/346/181
f 306/346/182 312/350/182 311/351/182 305/347/182
f 305/347/183 311/351/183 309/352/183 303/348/183
f 310/230/184 316/223/184 320/353/184 314/231/184
f 314/231/185 320/353/185 319/225/185 313/232/185
f 313/349/186 319/354/186 318/355/186 312/350/186
f 312/350/187 318/355/187 317/356/187 311/351/187
f 311/351/188 317/356/188 315/357/188 309/352/188
f 316/223/189 130/171/189 134/174/189 320/353/189
f 320/353/190 134/174/190 133/176/190 319/225/190
f 319/354/191 133/177/191 132/180/191 318/355/191
f 318/355/192 132/180/192 131/182/192 317/356/192
f 317/356/193 131/182/193 129/184/193 315/357/193
f 129/184/194 135/183/194 141/191/194 147/198/194 153/205/194 159/210/194 165/214/194 171/218/194 177/222/194 183/229/194 189/236/194 195/243/194 201/250/194 207/260/194 213/267/194 219/274/194 225/281/194 231/288/194 237/295/194 243/302/194 249/309/194 255/315/194 261/319/194 267/323/194 273/327/194 279/331/194 285/335/194 291/339/194 297/343/194 303/348/194 309/352/194 315/357/194
f 130/171/23 1/51/23 2/163/23 136/172/23
f 316/223/8 32/52/8 1/51/8 130/171/8
f 136/172/25 2/163/25 3/47/25 142/185/25
f 142/185/24 3/47/24 4/48/24 148/192/24
f 148/192/20 4/48/20 5/65/20 154/199/20
f 154/199/13 5/65/13 6/48/13 160/206/13
f 160/206/7 6/48/7 7/47/7 166/185/7
f 166/185/28 7/47/28 8/163/28 172/172/28
f 172/172/30 8/163/30 9/51/30 178/171/30
f 178/171/33 9/51/33 10/52/33 184/223/33
f 184/223/32 10/52/32 11/67/32 190/230/32
f 190/230/31 11/67/31 12/81/31 196/237/31
f 196/237/22 12/81/22 13/89/22 202/244/22
f 202/251/18 13/77/18 14/61/18 208/252/18
f 208/252/11 14/61/11 15/42/11 214/261/11
f 214/261/5 15/42/5 16/41/5 220/268/5
f 220/268/27 16/41/27 17/33/27 226/275/27
f 226/275/6 17/33/6 18/34/6 232/282/6
f 232/282/3 18/34/3 19/57/3 238/289/3
f 238/289/29 19/57/29 20/71/29 244/296/29
f 244/296/26 20/71/26 21/85/26 250/303/26
f 250/303/21 21/85/21 22/71/21 256/310/21
f 256/310/16 22/71/16 23/57/16 262/289/16
f 262/289/4 23/57/4 24/34/4 268/282/4
f 268/282/2 24/34/2 25/33/2 274/275/2
f 274/275/9 25/33/9 26/41/9 280/268/9
f 280/268/10 26/41/10 27/42/10 286/261/10
f 286/261/12 27/42/12 28/61/12 292/252/12
f 292/252/15 28/61/15 29/77/15 298/251/15
f 298/344/17 29/89/17 30/81/17 304/237/17
f 304/237/19 30/81/19 31/67/19 310/230/19
f 310/230/14 31/67/14 32/52/14 316/223/14
