# Blender 5.0.0
# www.blender.org
mtllib Charger.mtl
o Electric_Plug(Charger)
v -0.500000 -0.805702 0.598778
v -0.500000 0.943887 0.598778
v -0.500000 -0.805702 -0.598778
v -0.500000 0.943887 -0.598778
v 0.500000 -0.805702 0.598778
v 0.500000 0.943887 0.598778
v 0.500000 -0.805702 -0.598778
v 0.500000 0.943887 -0.598778
v -0.500000 0.000000 0.598778
v -0.500000 0.000000 -0.598778
v 0.500000 0.000000 -0.598778
v 0.500000 0.000000 0.598778
v -0.500000 0.488457 0.598778
v -0.500000 0.943887 0.000000
v -0.500000 0.488457 -0.598778
v -0.500000 0.000000 0.000000
v -0.500000 0.488457 0.000000
v -0.500000 0.732685 0.598778
v -0.500000 0.943887 -0.299389
v -0.500000 0.244228 -0.598778
v -0.500000 0.000000 -0.299389
v -0.500000 0.244228 0.598778
v -0.500000 0.943887 0.299389
v -0.500000 0.732685 -0.598778
v -0.500000 0.000000 0.299389
v -0.500000 0.488457 -0.299389
v -0.500000 0.488457 0.299389
v -0.500000 0.244228 0.000000
v -0.500000 0.732685 0.000000
v -0.500000 0.732685 0.299389
v -0.500000 0.244228 0.299389
v -0.500000 0.244228 -0.299389
v -0.500000 0.732685 -0.299389
v -0.500000 0.854800 0.598778
v -0.500000 0.943887 -0.449084
v -0.500000 0.122114 -0.598778
v -0.500000 0.000000 -0.449084
v -0.500000 0.366343 0.598778
v -0.500000 0.943887 0.149695
v -0.500000 0.610571 -0.598778
v -0.500000 0.000000 0.149695
v -0.500000 0.488457 -0.449084
v -0.500000 0.488457 0.149695
v -0.500000 0.122114 0.000000
v -0.500000 0.610571 0.000000
v -0.500000 0.610571 0.598778
v -0.500000 0.943887 -0.149695
v -0.500000 0.366343 -0.598778
v -0.500000 0.000000 -0.149695
v -0.500000 0.122114 0.598778
v -0.500000 0.943887 0.449084
v -0.500000 0.854800 -0.598778
v -0.500000 0.000000 0.449084
v -0.500000 0.488457 -0.149695
v -0.500000 0.488457 0.449084
v -0.500000 0.366343 0.000000
v -0.500000 0.854800 0.000000
v -0.500000 0.732685 0.149695
v -0.500000 0.732685 0.449084
v -0.500000 0.610571 0.299389
v -0.500000 0.854800 0.299389
v -0.500000 0.244228 0.149695
v -0.500000 0.244228 0.449084
v -0.500000 0.122114 0.299389
v -0.500000 0.366343 0.299389
v -0.500000 0.244228 -0.449084
v -0.500000 0.244228 -0.149695
v -0.500000 0.122114 -0.299389
v -0.500000 0.366343 -0.299389
v -0.500000 0.732685 -0.449084
v -0.500000 0.732685 -0.149695
v -0.500000 0.610571 -0.299389
v -0.500000 0.854800 -0.299389
v -0.500000 0.854800 -0.149695
v -0.500000 0.610571 -0.149695
v -0.500000 0.610571 -0.449084
v -0.500000 0.366343 -0.149695
v -0.500000 0.122114 -0.149695
v -0.500000 0.122114 -0.449084
v -0.500000 0.366343 0.449084
v -0.500000 0.122114 0.449084
v -0.500000 0.122114 0.149695
v -0.500000 0.854800 0.449084
v -0.500000 0.610571 0.449084
v -0.500000 0.610571 0.149695
v -0.500000 0.854800 0.149695
v -0.500000 0.366343 0.149695
v -0.500000 0.366343 -0.449084
v -0.500000 0.854800 -0.449084
v -1.267279 0.610571 0.299389
v -1.267279 0.488457 0.299389
v -1.267279 0.366343 0.299389
v -1.267279 0.366343 -0.299389
v -1.267279 0.610571 -0.299389
v -1.267279 0.488457 -0.299389
v -1.267279 0.610571 -0.149695
v -1.267279 0.488457 -0.149695
v -1.267279 0.366343 -0.149695
v -1.267279 0.610571 0.149695
v -1.267279 0.488457 0.149695
v -1.267279 0.366343 0.149695
v -1.194780 0.732685 -0.299389
v -1.194780 0.732685 -0.149695
v -1.194780 0.488457 -0.299389
v -1.194780 0.610571 -0.299389
v -1.194780 0.366343 -0.299389
v -1.194780 0.244228 -0.149695
v -1.194780 0.244228 -0.299389
v -1.194780 0.610571 -0.149695
v -1.194780 0.488457 -0.149695
v -1.194780 0.366343 -0.149695
v -1.007491 0.732685 -0.149695
v -1.007491 0.610571 -0.299389
v -1.007491 0.244228 -0.299389
v -1.007491 0.488457 -0.149695
v -1.007491 0.732685 -0.299389
v -1.007491 0.488457 -0.299389
v -1.007491 0.366343 -0.299389
v -1.007491 0.244228 -0.149695
v -1.007491 0.610571 -0.149695
v -1.007491 0.366343 -0.149695
v -1.101136 0.732685 -0.299389
v -1.101136 0.366343 -0.299389
v -1.101136 0.244228 -0.149695
v -1.101136 0.610571 -0.149695
v -1.101136 0.366343 -0.149695
v -1.101136 0.732685 -0.149695
v -1.101136 0.610571 -0.299389
v -1.101136 0.244228 -0.299389
v -1.197101 0.488457 0.149695
v -1.197101 0.610571 0.149695
v -1.197101 0.244228 0.149695
v -1.197101 0.366343 0.149695
v -1.197101 0.732685 0.149695
v -1.197101 0.366343 0.299389
v -1.197101 0.244228 0.299389
v -1.197101 0.610571 0.299389
v -1.197101 0.488457 0.299389
v -1.197101 0.732685 0.299389
v -1.008025 0.610571 0.149695
v -1.008025 0.366343 0.149695
v -1.008025 0.732685 0.149695
v -1.008025 0.244228 0.299389
v -1.008025 0.488457 0.299389
v -1.008025 0.732685 0.299389
v -1.008025 0.488457 0.149695
v -1.008025 0.244228 0.149695
v -1.008025 0.366343 0.299389
v -1.008025 0.610571 0.299389
v -1.102563 0.244228 0.149695
v -1.102563 0.366343 0.299389
v -1.102563 0.610571 0.299389
v -1.102563 0.610571 0.149695
v -1.102563 0.366343 0.149695
v -1.102563 0.732685 0.149695
v -1.102563 0.244228 0.299389
v -1.102563 0.732685 0.299389
v -1.148800 0.488457 -0.299389
v -1.147958 0.366343 -0.299389
v -1.147958 0.610571 -0.149695
v -1.147958 0.366343 -0.149695
v -1.194780 0.427400 -0.149695
v -1.194780 0.549514 -0.149695
v -1.194780 0.549514 -0.299389
v -1.194780 0.427400 -0.299389
v -1.054313 0.610571 -0.299389
v -1.053471 0.488457 -0.149695
v -1.007491 0.427400 -0.299389
v -1.007491 0.549514 -0.299389
v -1.007491 0.549514 -0.149695
v -1.007491 0.427400 -0.149695
v -1.053471 0.488457 -0.299389
v -1.054313 0.366343 -0.299389
v -1.054313 0.610571 -0.149695
v -1.054313 0.366343 -0.149695
v -1.147958 0.610571 -0.299389
v -1.148800 0.488457 -0.149695
v -1.101136 0.441180 -0.299389
v -1.101136 0.535734 -0.299389
v -1.101136 0.535734 -0.149695
v -1.101136 0.441180 -0.149695
v -1.150525 0.488457 0.149695
v -1.149832 0.366343 0.299389
v -1.149832 0.610571 0.299389
v -1.197101 0.427400 0.299389
v -1.197101 0.549514 0.299389
v -1.197101 0.427400 0.149695
v -1.197101 0.549514 0.149695
v -1.055294 0.610571 0.149695
v -1.055294 0.366343 0.149695
v -1.054601 0.488457 0.299389
v -1.008025 0.549514 0.149695
v -1.008025 0.427400 0.149695
v -1.008025 0.549514 0.299389
v -1.008025 0.427400 0.299389
v -1.054601 0.488457 0.149695
v -1.055294 0.366343 0.299389
v -1.055294 0.610571 0.299389
v -1.149832 0.610571 0.149695
v -1.149832 0.366343 0.149695
v -1.150525 0.488457 0.299389
v -1.102563 0.536029 0.149695
v -1.102563 0.440885 0.149695
v -1.102563 0.536029 0.299389
v -1.102563 0.440885 0.299389
v -1.068648 0.454818 0.299389
v -1.068648 0.522095 0.299389
v -1.068648 0.454818 0.149695
v -1.068648 0.522095 0.149695
v -1.136477 0.522095 0.149695
v -1.136477 0.454818 0.149695
v -1.136477 0.522095 0.299389
v -1.136477 0.454818 0.299389
v -1.067432 0.455027 -0.149695
v -1.067432 0.521887 -0.149695
v -1.067432 0.521887 -0.299389
v -1.067432 0.455027 -0.299389
v -1.134839 0.455027 -0.299389
v -1.134839 0.521887 -0.299389
v -1.134839 0.521887 -0.149695
v -1.134839 0.455027 -0.149695
v -1.267279 0.366343 0.299389
v -1.197101 0.244228 0.299389
v -1.265519 0.339170 0.299389
v -1.260329 0.313359 0.299389
v -1.251968 0.290206 0.299389
v -1.240856 0.270870 0.299389
v -1.227550 0.256322 0.299389
v -1.212717 0.247290 0.299389
v -1.267279 0.366343 -0.149695
v -1.194780 0.244228 -0.149695
v -1.265461 0.339170 -0.149695
v -1.260099 0.313359 -0.149695
v -1.251462 0.290206 -0.149695
v -1.239982 0.270870 -0.149695
v -1.226236 0.256322 -0.149695
v -1.210912 0.247290 -0.149695
v -1.194780 0.244228 -0.299389
v -1.267279 0.366343 -0.299389
v -1.210912 0.247290 -0.299389
v -1.226236 0.256322 -0.299389
v -1.239982 0.270870 -0.299389
v -1.251462 0.290206 -0.299389
v -1.260099 0.313359 -0.299389
v -1.265461 0.339170 -0.299389
v -1.194780 0.732685 -0.149695
v -1.267279 0.610571 -0.149695
v -1.210912 0.729624 -0.149695
v -1.226236 0.720592 -0.149695
v -1.239982 0.706044 -0.149695
v -1.251462 0.686708 -0.149695
v -1.260099 0.663555 -0.149695
v -1.265461 0.637744 -0.149695
v -1.267279 0.610571 -0.299389
v -1.194780 0.732685 -0.299389
v -1.265461 0.637744 -0.299389
v -1.260099 0.663555 -0.299389
v -1.251462 0.686708 -0.299389
v -1.239982 0.706044 -0.299389
v -1.226236 0.720592 -0.299389
v -1.210912 0.729624 -0.299389
v -1.197101 0.732685 0.299389
v -1.267279 0.610571 0.299389
v -1.212717 0.729624 0.299389
v -1.227550 0.720592 0.299389
v -1.240856 0.706044 0.299389
v -1.251968 0.686708 0.299389
v -1.260329 0.663555 0.299389
v -1.265519 0.637744 0.299389
v -1.267279 0.610571 0.149695
v -1.197101 0.732685 0.149695
v -1.265519 0.637744 0.149695
v -1.260329 0.663555 0.149695
v -1.251968 0.686708 0.149695
v -1.240856 0.706044 0.149695
v -1.227550 0.720592 0.149695
v -1.212717 0.729624 0.149695
v -1.197101 0.244228 0.149695
v -1.267279 0.366343 0.149695
v -1.212717 0.247290 0.149695
v -1.227550 0.256322 0.149695
v -1.240856 0.270870 0.149695
v -1.251968 0.290206 0.149695
v -1.260329 0.313359 0.149695
v -1.265519 0.339170 0.149695
v -0.157342 -0.805702 -0.188425
v 0.157342 -0.805702 -0.188425
v 0.157342 -0.805702 0.188425
v -0.157342 -0.805702 0.188425
v 0.157342 -1.057702 -0.188425
v -0.157342 -1.057702 -0.188425
v -0.157342 -1.057702 0.188425
v 0.157342 -1.057702 0.188425
vn -1.0000 -0.0000 -0.0000
vn -0.0000 -0.0000 -1.0000
vn 1.0000 -0.0000 -0.0000
vn -0.0000 -0.0000 1.0000
vn -0.0000 1.0000 -0.0000
vn -0.0000 -1.0000 -0.0000
vn -0.3800 0.9250 -0.0000
vn 0.3800 0.9250 -0.0000
vn 0.9228 0.3854 -0.0000
vn 0.9228 -0.3854 -0.0000
vn 0.3800 -0.9250 -0.0000
vn -0.3800 -0.9250 -0.0000
vn -0.9228 -0.3854 -0.0000
vn -0.9228 0.3854 -0.0000
vn -0.1865 0.9825 -0.0000
vn -0.5078 0.8615 -0.0000
vn -0.7269 0.6868 -0.0000
vn -0.8599 0.5105 -0.0000
vn -0.9369 0.3495 -0.0000
vn -0.9791 0.2034 -0.0000
vn -0.9978 0.0667 -0.0000
vn -0.9978 -0.0667 -0.0000
vn -0.9791 -0.2034 -0.0000
vn -0.9369 -0.3495 -0.0000
vn -0.8599 -0.5105 -0.0000
vn -0.7269 -0.6868 -0.0000
vn -0.5078 -0.8615 -0.0000
vn -0.1865 -0.9825 -0.0000
vn -0.1924 0.9813 -0.0000
vn -0.5201 0.8541 -0.0000
vn -0.7379 0.6749 -0.0000
vn -0.8670 0.4983 -0.0000
vn -0.9406 0.3396 -0.0000
vn -0.9804 0.1971 -0.0000
vn -0.9979 0.0646 -0.0000
vn -0.9979 -0.0646 -0.0000
vn -0.9804 -0.1971 -0.0000
vn -0.9406 -0.3396 -0.0000
vn -0.8670 -0.4983 -0.0000
vn -0.7379 -0.6749 -0.0000
vn -0.5201 -0.8541 -0.0000
vn -0.1924 -0.9813 -0.0000
vt 0.619279 0.887251
vt 0.619279 0.901214
vt 0.657558 0.901214
vt 0.657558 0.887251
vt 0.351323 0.137999
vt 0.351323 0.157139
vt 0.351323 0.176279
vt 0.351323 0.195418
vt 0.351323 0.214558
vt 0.351323 0.233698
vt 0.351323 0.252837
vt 0.351323 0.271977
vt 0.351323 0.285940
vt 0.657558 0.285940
vt 0.657558 0.137999
vt 0.317884 0.817346
vt 0.317884 0.965287
vt 0.011649 0.965287
vt 0.011649 0.817346
vt 0.657558 0.445636
vt 0.657558 0.593577
vt 0.351323 0.593577
vt 0.351323 0.579614
vt 0.351323 0.560474
vt 0.351323 0.541335
vt 0.351323 0.522195
vt 0.351323 0.503055
vt 0.351323 0.483915
vt 0.351323 0.464776
vt 0.351323 0.445636
vt 0.787281 0.906057
vt 0.690914 0.906057
vt 0.690914 0.866560
vt 0.787281 0.866560
vt 0.317884 0.317964
vt 0.011649 0.317964
vt 0.011649 0.279685
vt 0.011649 0.241406
vt 0.011649 0.203126
vt 0.011649 0.164847
vt 0.011649 0.126567
vt 0.011649 0.088288
vt 0.011649 0.050009
vt 0.011649 0.011729
vt 0.317884 0.011729
vt 0.657558 0.319353
vt 0.351323 0.319353
vt 0.317884 0.691064
vt 0.011649 0.691064
vt 0.351323 0.011717
vt 0.657558 0.011717
vt 0.351323 0.626990
vt 0.351323 0.753273
vt 0.389602 0.753273
vt 0.427882 0.753273
vt 0.466161 0.753273
vt 0.504440 0.753273
vt 0.542720 0.753273
vt 0.580999 0.753273
vt 0.619279 0.753273
vt 0.657558 0.753273
vt 0.657558 0.626990
vt 0.619279 0.810692
vt 0.619279 0.829832
vt 0.657558 0.829832
vt 0.657558 0.810692
vt 0.466161 0.810692
vt 0.466161 0.829832
vt 0.504440 0.829832
vt 0.504440 0.810692
vt 0.466161 0.887251
vt 0.466161 0.901214
vt 0.504440 0.901214
vt 0.504440 0.887251
vt 0.466161 0.848971
vt 0.466161 0.868111
vt 0.504440 0.868111
vt 0.504440 0.848971
vt 0.389602 0.848971
vt 0.389602 0.868111
vt 0.427882 0.868111
vt 0.427882 0.848971
vt 0.389602 0.887251
vt 0.389602 0.901214
vt 0.427882 0.901214
vt 0.427882 0.887251
vt 0.466161 0.772413
vt 0.466161 0.791552
vt 0.504440 0.791552
vt 0.504440 0.772413
vt 0.389602 0.772413
vt 0.389602 0.791552
vt 0.427882 0.791552
vt 0.427882 0.772413
vt 0.389602 0.810692
vt 0.389602 0.829832
vt 0.427882 0.829832
vt 0.427882 0.810692
vt 0.619279 0.772413
vt 0.619279 0.791552
vt 0.657558 0.791552
vt 0.657558 0.772412
vt 0.542720 0.772413
vt 0.542720 0.791552
vt 0.580999 0.791552
vt 0.580999 0.772413
vt 0.619279 0.848971
vt 0.619279 0.868111
vt 0.657558 0.868111
vt 0.657558 0.848971
vt 0.712459 0.069058
vt 0.712459 0.059488
vt 0.712459 0.049918
vt 0.690968 0.049918
vt 0.690968 0.069058
vt 0.542720 0.887251
vt 0.542720 0.901214
vt 0.580999 0.901214
vt 0.580999 0.887251
vt 0.542720 0.868111
vt 0.580999 0.868111
vt 0.542720 0.848971
vt 0.542720 0.829832
vt 0.580999 0.829832
vt 0.580999 0.848971
vt 0.713170 0.159735
vt 0.713170 0.150165
vt 0.713170 0.140595
vt 0.690968 0.140595
vt 0.690968 0.159735
vt 0.542720 0.810692
vt 0.351323 0.791552
vt 0.351323 0.810692
vt 0.351323 0.829832
vt 0.351323 0.772412
vt 0.351323 0.868111
vt 0.351323 0.887251
vt 0.351323 0.901214
vt 0.351323 0.848971
vt 0.713170 0.178875
vt 0.713170 0.169305
vt 0.690968 0.178875
vt 0.580999 0.810692
vt 0.712459 0.040349
vt 0.712459 0.030779
vt 0.690968 0.030779
vt 0.712459 0.269552
vt 0.712459 0.279121
vt 0.712459 0.288691
vt 0.690968 0.288691
vt 0.690968 0.269552
vt 0.712459 0.250412
vt 0.712459 0.259982
vt 0.690968 0.250412
vt 0.713170 0.379368
vt 0.713170 0.388938
vt 0.713170 0.398508
vt 0.690968 0.398508
vt 0.690968 0.379368
vt 0.713170 0.360228
vt 0.713170 0.369798
vt 0.690968 0.360228
vt 0.731526 0.374128
vt 0.727251 0.379368
vt 0.741847 0.398508
vt 0.741847 0.417648
vt 0.713170 0.417648
vt 0.727509 0.398508
vt 0.741847 0.140595
vt 0.741847 0.121456
vt 0.713170 0.121456
vt 0.727509 0.140595
vt 0.741847 0.341089
vt 0.741847 0.360228
vt 0.727509 0.360228
vt 0.713170 0.341089
vt 0.731526 0.384608
vt 0.741847 0.198014
vt 0.741847 0.178875
vt 0.727509 0.178875
vt 0.713170 0.198014
vt 0.736712 0.632264
vt 0.736712 0.593824
vt 0.707914 0.593824
vt 0.707914 0.632264
vt 0.736712 0.665331
vt 0.736712 0.703771
vt 0.707914 0.703771
vt 0.707914 0.665331
vt 0.731526 0.164975
vt 0.727251 0.159735
vt 0.731526 0.154495
vt 0.925936 0.159735
vt 0.925936 0.140595
vt 0.770524 0.140595
vt 0.770524 0.150165
vt 0.770524 0.159735
vt 0.925936 0.178875
vt 0.770524 0.169305
vt 0.770524 0.178875
vt 0.921573 0.665331
vt 0.921573 0.703771
vt 0.765509 0.703771
vt 0.765509 0.665331
vt 0.921573 0.632264
vt 0.921573 0.593824
vt 0.765509 0.593824
vt 0.765509 0.632264
vt 0.925936 0.198014
vt 0.770524 0.198014
vt 0.925936 0.379368
vt 0.925936 0.398508
vt 0.770524 0.398508
vt 0.770524 0.388938
vt 0.770524 0.379368
vt 0.925936 0.341089
vt 0.925936 0.360228
vt 0.770524 0.360228
vt 0.770524 0.341089
vt 0.925936 0.121456
vt 0.770524 0.121456
vt 0.925936 0.417648
vt 0.770524 0.417648
vt 0.770524 0.369798
vt 0.752168 0.154495
vt 0.756186 0.140595
vt 0.741847 0.152325
vt 0.960551 0.966191
vt 0.960551 0.927496
vt 0.971050 0.927496
vt 0.971050 0.966191
vt 0.756186 0.178875
vt 0.752168 0.384608
vt 0.756186 0.398508
vt 0.741847 0.386778
vt 0.756186 0.360228
vt 0.950052 0.966191
vt 0.950052 0.927496
vt 0.741410 0.288691
vt 0.741410 0.307831
vt 0.712459 0.307831
vt 0.726935 0.288691
vt 0.736421 0.450808
vt 0.736421 0.489252
vt 0.707345 0.489252
vt 0.707345 0.450808
vt 0.731024 0.264279
vt 0.726722 0.269552
vt 0.731024 0.274824
vt 0.731024 0.044646
vt 0.726935 0.030779
vt 0.736421 0.560759
vt 0.736421 0.522315
vt 0.707345 0.522315
vt 0.707345 0.560759
vt 0.741410 0.030779
vt 0.741410 0.011639
vt 0.712459 0.011639
vt 0.741410 0.231272
vt 0.741410 0.250412
vt 0.726935 0.250412
vt 0.712459 0.231272
vt 0.731024 0.055191
vt 0.726722 0.049918
vt 0.741410 0.088198
vt 0.741410 0.069058
vt 0.726935 0.069058
vt 0.712459 0.088198
vt 0.925936 0.088198
vt 0.925936 0.069058
vt 0.770361 0.069058
vt 0.770361 0.088198
vt 0.925936 0.049918
vt 0.770361 0.049918
vt 0.770361 0.059488
vt 0.925936 0.231272
vt 0.925936 0.250412
vt 0.770361 0.250412
vt 0.770361 0.231272
vt 0.925936 0.030779
vt 0.925936 0.011639
vt 0.770361 0.011639
vt 0.770361 0.030779
vt 0.921741 0.560759
vt 0.921741 0.522315
vt 0.765496 0.522315
vt 0.765496 0.560759
vt 0.770361 0.040349
vt 0.925936 0.269552
vt 0.925936 0.288691
vt 0.770361 0.288691
vt 0.770361 0.279121
vt 0.770361 0.269552
vt 0.770361 0.259982
vt 0.921742 0.450808
vt 0.921742 0.489252
vt 0.765496 0.489252
vt 0.765496 0.450808
vt 0.925936 0.307831
vt 0.770361 0.307831
vt 0.755886 0.069058
vt 0.510312 0.933806
vt 0.553799 0.933806
vt 0.553799 0.939796
vt 0.510312 0.939796
vt 0.755886 0.250412
vt 0.755886 0.030779
vt 0.751796 0.044646
vt 0.741410 0.042462
vt 0.751796 0.274824
vt 0.755886 0.288691
vt 0.741410 0.277008
vt 0.553799 0.945786
vt 0.510312 0.945786
vt 0.751796 0.264279
vt 0.741410 0.262095
vt 0.756098 0.269552
vt 0.351098 0.973022
vt 0.361596 0.973022
vt 0.361596 0.934326
vt 0.351098 0.934326
vt 0.372095 0.973022
vt 0.372095 0.934326
vt 0.756098 0.049918
vt 0.751796 0.055191
vt 0.741410 0.057375
vt 0.625306 0.945786
vt 0.625306 0.939796
vt 0.581819 0.939796
vt 0.581819 0.945786
vt 0.625306 0.933806
vt 0.581819 0.933806
vt 0.415517 0.973022
vt 0.415517 0.934326
vt 0.425951 0.934326
vt 0.425951 0.973022
vt 0.405084 0.973022
vt 0.405084 0.934326
vt 0.752168 0.374128
vt 0.741847 0.371958
vt 0.756444 0.379368
vt 0.688287 0.938561
vt 0.731775 0.938561
vt 0.731775 0.944514
vt 0.688287 0.944514
vt 0.752168 0.164975
vt 0.741847 0.167145
vt 0.756444 0.159735
vt 0.731775 0.950467
vt 0.688287 0.950467
vt 0.458940 0.973022
vt 0.469374 0.973022
vt 0.469374 0.934326
vt 0.458940 0.934326
vt 0.479807 0.973022
vt 0.479807 0.934326
vt 0.861415 0.966278
vt 0.861415 0.960326
vt 0.817927 0.960326
vt 0.817927 0.966278
vt 0.861415 0.954373
vt 0.817927 0.954373
vt 0.702953 0.703771
vt 0.702953 0.665331
vt 0.698241 0.703771
vt 0.698241 0.665331
vt 0.694014 0.703771
vt 0.694014 0.665331
vt 0.690483 0.703771
vt 0.690483 0.665331
vt 0.949800 0.799677
vt 0.988823 0.799677
vt 0.988823 0.795978
vt 0.949800 0.795978
vt 0.988823 0.791854
vt 0.949800 0.791854
vt 0.988823 0.787512
vt 0.949800 0.787512
vt 0.949800 0.748490
vt 0.988823 0.748490
vt 0.988823 0.744148
vt 0.949800 0.744148
vt 0.988823 0.740024
vt 0.949800 0.740024
vt 0.988823 0.736325
vt 0.949800 0.736325
vt 0.690483 0.593824
vt 0.690483 0.632264
vt 0.694014 0.632264
vt 0.694014 0.593824
vt 0.698241 0.632264
vt 0.698241 0.593824
vt 0.702953 0.632264
vt 0.702953 0.593824
vt 0.702542 0.489252
vt 0.702542 0.450808
vt 0.697980 0.489252
vt 0.697980 0.450808
vt 0.693888 0.489252
vt 0.693888 0.450808
vt 0.690470 0.489252
vt 0.690470 0.450808
vt 0.949822 0.895035
vt 0.988801 0.895035
vt 0.988801 0.891340
vt 0.949822 0.891340
vt 0.988801 0.887220
vt 0.949822 0.887220
vt 0.988801 0.882884
vt 0.949822 0.882884
vt 0.949822 0.843904
vt 0.988801 0.843904
vt 0.988801 0.839567
vt 0.949822 0.839567
vt 0.988801 0.835448
vt 0.949822 0.835448
vt 0.988801 0.831752
vt 0.949822 0.831752
vt 0.690470 0.522315
vt 0.690470 0.560759
vt 0.693888 0.560759
vt 0.693888 0.522315
vt 0.697981 0.560759
vt 0.697981 0.522315
vt 0.702542 0.560759
vt 0.702542 0.522315
vt 0.949822 0.863394
vt 0.988801 0.863394
vt 0.988801 0.843904
vt 0.691507 0.246153
vt 0.693097 0.242107
vt 0.695657 0.238478
vt 0.699060 0.235448
vt 0.703135 0.233168
vt 0.707677 0.231752
vt 0.949800 0.768001
vt 0.988823 0.787512
vt 0.988823 0.768001
vt 0.691525 0.355969
vt 0.693167 0.351924
vt 0.695812 0.348295
vt 0.699327 0.345264
vt 0.703537 0.342984
vt 0.708230 0.341569
vt 0.713170 0.341089
vt 0.708230 0.121935
vt 0.703537 0.123351
vt 0.699328 0.125631
vt 0.695812 0.128662
vt 0.693167 0.132291
vt 0.691525 0.136336
vt 0.708230 0.417168
vt 0.703537 0.415752
vt 0.699327 0.413472
vt 0.695812 0.410441
vt 0.693167 0.406812
vt 0.691525 0.402767
vt 0.691525 0.183134
vt 0.693167 0.187179
vt 0.695812 0.190808
vt 0.699328 0.193839
vt 0.703537 0.196119
vt 0.708230 0.197534
vt 0.713170 0.198014
vt 0.707677 0.307351
vt 0.703135 0.305936
vt 0.699060 0.303655
vt 0.695657 0.300625
vt 0.693097 0.296996
vt 0.691507 0.292950
vt 0.691507 0.073317
vt 0.693097 0.077363
vt 0.695657 0.080992
vt 0.699060 0.084022
vt 0.703135 0.086302
vt 0.707677 0.087718
vt 0.707677 0.012119
vt 0.703135 0.013534
vt 0.699060 0.015815
vt 0.695657 0.018845
vt 0.693097 0.022474
vt 0.691507 0.026520
vt 0.011649 0.657638
vt 0.317884 0.657638
vt 0.212950 0.552704
vt 0.116583 0.552704
vt 0.317884 0.351403
vt 0.212950 0.456337
vt 0.011649 0.351403
vt 0.116583 0.456337
vt 0.690914 0.833309
vt 0.787281 0.833309
vt 0.787281 0.736941
vt 0.690914 0.736941
vt 0.820554 0.776417
vt 0.916921 0.776417
vt 0.916921 0.736919
vt 0.820554 0.736919
vt 0.916921 0.849143
vt 0.820554 0.849143
vt 0.820554 0.809645
vt 0.916921 0.809645
vt 0.820554 0.921869
vt 0.916921 0.921869
vt 0.916921 0.882371
vt 0.820554 0.882371
s 0
g Electric_Plug(Charger)_Electric_Plug_Charger
usemtl Electric_Plug_Charger
f 89/1/1 35/2/1 4/3/1 52/4/1
f 10/5/2 36/6/2 20/7/2 48/8/2 15/9/2 40/10/2 24/11/2 52/12/2 4/13/2 8/14/2 11/15/2
f 11/16/3 8/17/3 6/18/3 12/19/3
f 12/20/4 6/21/4 2/22/4 34/23/4 18/24/4 46/25/4 13/26/4 38/27/4 22/28/4 50/29/4 9/30/4
f 287/31/3 288/32/3 293/33/3 290/34/3
f 8/35/5 4/36/5 35/37/5 19/38/5 47/39/5 14/40/5 39/41/5 23/42/5 51/43/5 2/44/5 6/45/5
f 5/46/4 12/20/4 9/30/4 1/47/4
f 7/48/3 11/16/3 12/19/3 5/49/3
f 3/50/2 10/5/2 11/15/2 7/51/2
f 1/52/1 9/53/1 53/54/1 25/55/1 41/56/1 16/57/1 49/58/1 21/59/1 37/60/1 10/61/1 3/62/1
f 88/63/1 42/64/1 15/65/1 48/66/1
f 87/67/1 43/68/1 17/69/1 56/70/1
f 86/71/1 39/72/1 14/73/1 57/74/1
f 85/75/1 58/76/1 29/77/1 45/78/1
f 84/79/1 59/80/1 30/81/1 60/82/1
f 83/83/1 51/84/1 23/85/1 61/86/1
f 82/87/1 62/88/1 28/89/1 44/90/1
f 81/91/1 63/92/1 31/93/1 64/94/1
f 80/95/1 55/96/1 27/97/1 65/98/1
f 79/99/1 66/100/1 20/101/1 36/102/1
f 78/103/1 67/104/1 32/105/1 68/106/1
f 76/107/1 70/108/1 24/109/1 40/110/1
f 131/111/2 188/112/2 130/113/2 100/114/2 99/115/2
f 74/116/1 47/117/1 19/118/1 73/119/1
f 71/120/1 74/116/1 73/119/1 33/121/1
f 29/77/1 57/74/1 74/116/1 71/120/1
f 57/74/1 14/73/1 47/117/1 74/116/1
f 17/69/1 45/78/1 75/122/1 54/123/1
f 45/78/1 29/77/1 71/120/1 75/122/1
f 42/64/1 76/107/1 40/110/1 15/65/1
f 26/124/1 72/125/1 76/107/1 42/64/1
f 72/125/1 33/121/1 70/108/1 76/107/1
f 104/126/2 165/127/2 106/128/2 93/129/2 95/130/2
f 28/89/1 56/70/1 77/131/1 67/104/1
f 56/70/1 17/69/1 54/123/1 77/131/1
f 49/58/1 78/103/1 68/106/1 21/59/1
f 16/57/1 44/90/1 78/103/1 49/58/1
f 44/90/1 28/89/1 67/104/1 78/103/1
f 37/60/1 79/99/1 36/102/1 10/61/1
f 21/59/1 68/106/1 79/99/1 37/60/1
f 68/106/1 32/105/1 66/100/1 79/99/1
f 63/92/1 80/95/1 65/98/1 31/93/1
f 22/132/1 38/133/1 80/95/1 63/92/1
f 38/133/1 13/134/1 55/96/1 80/95/1
f 53/54/1 81/91/1 64/94/1 25/55/1
f 9/53/1 50/135/1 81/91/1 53/54/1
f 50/135/1 22/132/1 63/92/1 81/91/1
f 41/56/1 82/87/1 44/90/1 16/57/1
f 25/55/1 64/94/1 82/87/1 41/56/1
f 64/94/1 31/93/1 62/88/1 82/87/1
f 59/80/1 83/83/1 61/86/1 30/81/1
f 18/136/1 34/137/1 83/83/1 59/80/1
f 34/137/1 2/138/1 51/84/1 83/83/1
f 55/96/1 84/79/1 60/82/1 27/97/1
f 13/134/1 46/139/1 84/79/1 55/96/1
f 46/139/1 18/136/1 59/80/1 84/79/1
f 43/68/1 85/75/1 45/78/1 17/69/1
f 105/140/2 164/141/2 104/126/2 95/130/2 94/142/2
f 58/76/1 86/71/1 57/74/1 29/77/1
f 30/81/1 61/86/1 86/71/1 58/76/1
f 61/86/1 23/85/1 39/72/1 86/71/1
f 62/88/1 87/67/1 56/70/1 28/89/1
f 66/100/1 88/63/1 48/66/1 20/101/1
f 32/105/1 69/143/1 88/63/1 66/100/1
f 69/143/1 26/124/1 42/64/1 88/63/1
f 70/108/1 89/1/1 52/4/1 24/109/1
f 33/121/1 73/119/1 89/1/1 70/108/1
f 73/119/1 19/118/1 35/2/1 89/1/1
f 130/113/2 187/144/2 133/145/2 101/146/2 100/114/2
f 138/147/4 186/148/4 137/149/4 90/150/4 91/151/4
f 135/152/4 185/153/4 138/147/4 91/151/4 92/154/4
f 110/155/4 163/156/4 109/157/4 96/158/4 97/159/4
f 111/160/4 162/161/4 110/155/4 97/159/4 98/162/4
f 221/163/4 177/164/4 110/155/4 162/161/4
f 125/165/4 127/166/4 103/167/4 109/157/4 160/168/4
f 123/169/2 129/170/2 108/171/2 106/128/2 159/172/2
f 124/173/4 126/174/4 161/175/4 111/160/4 107/176/4
f 220/177/4 160/168/4 109/157/4 163/156/4
f 122/178/2 128/179/2 176/180/2 105/140/2 102/181/2
f 129/182/6 124/183/6 107/184/6 108/185/6
f 127/186/5 122/187/5 102/188/5 103/189/5
f 219/190/2 158/191/2 104/126/2 164/141/2
f 218/192/2 159/172/2 106/128/2 165/127/2
f 26/193/2 69/194/2 118/195/2 168/196/2 117/197/2
f 72/198/2 26/193/2 117/197/2 169/199/2 113/200/2
f 71/201/5 33/202/5 116/203/5 112/204/5
f 32/205/6 67/206/6 119/207/6 114/208/6
f 33/209/2 72/198/2 113/200/2 116/210/2
f 54/211/4 75/212/4 120/213/4 170/214/4 115/215/4
f 67/216/4 77/217/4 121/218/4 119/219/4
f 69/194/2 32/220/2 114/221/2 118/195/2
f 75/212/4 71/222/4 112/223/4 120/213/4
f 77/217/4 54/211/4 115/215/4 171/224/4 121/218/4
f 217/225/2 173/226/2 123/169/2 178/227/2
f 203/228/7 205/229/7 206/230/7 208/231/7
f 112/204/5 116/203/5 122/187/5 127/186/5
f 114/208/6 119/207/6 124/183/6 129/182/6
f 116/210/2 113/200/2 166/232/2 128/179/2 122/178/2
f 215/233/4 174/234/4 125/165/4 180/235/4
f 119/219/4 121/218/4 175/236/4 126/174/4 124/173/4
f 118/195/2 114/221/2 129/170/2 123/169/2 173/226/2
f 120/213/4 112/223/4 127/166/4 125/165/4 174/234/4
f 205/229/8 203/228/8 211/237/8 213/238/8
f 152/239/4 157/240/4 139/241/4 137/149/4 184/242/4
f 157/243/5 155/244/5 134/245/5 139/246/5
f 213/247/4 201/248/4 138/147/4 185/153/4
f 212/249/4 184/242/4 137/149/4 186/148/4
f 211/250/2 200/251/2 133/145/2 187/144/2
f 150/252/6 156/253/6 136/254/6 132/255/6
f 154/256/2 150/257/2 132/258/2 133/145/2 200/251/2
f 156/259/4 151/260/4 183/261/4 135/152/4 136/262/4
f 210/263/2 182/264/2 130/113/2 188/112/2
f 155/265/2 153/266/2 199/267/2 131/111/2 134/268/2
f 58/269/2 85/270/2 140/271/2 142/272/2
f 85/270/2 43/273/2 146/274/2 192/275/2 140/271/2
f 31/276/4 65/277/4 148/278/4 143/279/4
f 87/280/2 62/281/2 147/282/2 141/283/2
f 62/284/6 31/285/6 143/286/6 147/287/6
f 43/273/2 87/280/2 141/283/2 193/288/2 146/274/2
f 27/289/4 60/290/4 149/291/4 194/292/4 144/293/4
f 65/277/4 27/289/4 144/293/4 195/294/4 148/278/4
f 30/295/5 58/296/5 142/297/5 145/298/5
f 60/290/4 30/299/4 145/300/4 149/291/4
f 142/272/2 140/271/2 189/301/2 153/266/2 155/265/2
f 213/302/9 211/303/9 182/304/9 201/305/9
f 143/279/4 148/278/4 197/306/4 151/260/4 156/259/4
f 141/283/2 147/282/2 150/257/2 154/256/2 190/307/2
f 147/287/6 143/286/6 156/253/6 150/252/6
f 208/308/2 190/307/2 154/256/2 203/309/2
f 207/310/4 198/311/4 152/239/4 204/312/4
f 201/305/10 182/304/10 210/313/10 212/314/10
f 145/298/5 142/297/5 155/244/5 157/243/5
f 149/291/4 145/300/4 157/240/4 152/239/4 198/311/4
f 197/306/4 206/315/4 205/316/4 151/260/4
f 148/278/4 195/294/4 206/315/4 197/306/4
f 195/294/4 144/293/4 191/317/4 206/315/4
f 210/318/11 202/319/11 204/320/11 212/321/11
f 144/293/4 194/292/4 207/310/4 191/317/4
f 194/292/4 149/291/4 198/311/4 207/310/4
f 202/319/12 209/322/12 207/323/12 204/320/12
f 146/274/2 193/288/2 208/308/2 196/324/2
f 193/288/2 141/283/2 190/307/2 208/308/2
f 189/301/2 209/325/2 202/326/2 153/266/2
f 140/271/2 192/275/2 209/325/2 189/301/2
f 192/275/2 146/274/2 196/324/2 209/325/2
f 199/267/2 210/263/2 188/112/2 131/111/2
f 153/266/2 202/326/2 210/263/2 199/267/2
f 209/327/13 196/328/13 191/329/13 207/330/13
f 182/264/2 211/250/2 187/144/2 130/113/2
f 208/331/14 206/332/14 191/329/14 196/328/14
f 203/309/2 154/256/2 200/251/2 211/250/2
f 201/248/4 212/249/4 186/148/4 138/147/4
f 178/333/7 181/334/7 214/335/7 217/336/7
f 204/312/4 152/239/4 184/242/4 212/249/4
f 183/261/4 213/247/4 185/153/4 135/152/4
f 151/260/4 205/316/4 213/247/4 183/261/4
f 181/334/8 178/333/8 218/337/8 221/338/8
f 175/236/4 214/339/4 181/340/4 126/174/4
f 121/218/4 171/224/4 214/339/4 175/236/4
f 171/224/4 115/215/4 167/341/4 214/339/4
f 221/342/9 218/343/9 158/344/9 177/345/9
f 115/215/4 170/214/4 215/233/4 167/341/4
f 170/214/4 120/213/4 174/234/4 215/233/4
f 166/232/2 216/346/2 179/347/2 128/179/2
f 113/200/2 169/199/2 216/346/2 166/232/2
f 169/199/2 117/197/2 172/348/2 216/346/2
f 177/345/10 158/344/10 219/349/10 220/350/10
f 117/197/2 168/196/2 217/225/2 172/348/2
f 168/196/2 118/195/2 173/226/2 217/225/2
f 158/191/2 218/192/2 165/127/2 104/126/2
f 219/351/11 179/352/11 180/353/11 220/354/11
f 178/227/2 123/169/2 159/172/2 218/192/2
f 176/180/2 219/190/2 164/141/2 105/140/2
f 128/179/2 179/347/2 219/190/2 176/180/2
f 179/352/12 216/355/12 215/356/12 180/353/12
f 177/164/4 220/177/4 163/156/4 110/155/4
f 216/357/13 172/358/13 167/359/13 215/360/13
f 180/235/4 125/165/4 160/168/4 220/177/4
f 161/175/4 221/163/4 162/161/4 111/160/4
f 126/174/4 181/340/4 221/163/4 161/175/4
f 217/361/14 214/362/14 167/359/14 172/358/14
f 246/189/15 255/188/15 261/363/15 248/364/15
f 248/364/16 261/363/16 260/365/16 249/366/16
f 249/366/17 260/365/17 259/367/17 250/368/17
f 250/368/18 259/367/18 258/369/18 251/370/18
f 251/371/19 258/372/19 257/373/19 252/374/19
f 252/374/20 257/373/20 256/375/20 253/376/20
f 253/376/21 256/375/21 254/377/21 247/378/21
f 230/379/22 239/380/22 245/381/22 232/382/22
f 232/382/23 245/381/23 244/383/23 233/384/23
f 233/384/24 244/383/24 243/385/24 234/386/24
f 234/387/25 243/388/25 242/389/25 235/390/25
f 235/390/26 242/389/26 241/391/26 236/392/26
f 236/392/27 241/391/27 240/393/27 237/394/27
f 237/394/28 240/393/28 238/185/28 231/184/28
f 262/246/29 271/245/29 277/395/29 264/396/29
f 264/396/30 277/395/30 276/397/30 265/398/30
f 265/398/31 276/397/31 275/399/31 266/400/31
f 266/400/32 275/399/32 274/401/32 267/402/32
f 267/403/33 274/404/33 273/405/33 268/406/33
f 268/406/34 273/405/34 272/407/34 269/408/34
f 269/408/35 272/407/35 270/409/35 263/410/35
f 222/411/36 279/412/36 285/413/36 224/414/36
f 224/414/37 285/413/37 284/415/37 225/416/37
f 225/416/38 284/415/38 283/417/38 226/418/38
f 226/419/39 283/420/39 282/421/39 227/422/39
f 227/422/40 282/421/40 281/423/40 228/424/40
f 228/424/41 281/423/41 280/425/41 229/426/41
f 229/426/42 280/425/42 278/255/42 223/254/42
f 91/427/1 90/410/1 263/410/1 270/409/1 99/409/1 100/428/1 101/429/1 279/412/1 222/411/1 92/411/1
f 132/255/5 136/254/5 223/254/5 278/255/5
f 136/262/4 135/152/4 92/154/4 222/154/4 224/430/4 225/431/4 226/432/4 227/433/4 228/434/4 229/435/4 223/262/4
f 108/185/5 107/184/5 231/184/5 238/185/5
f 98/379/1 97/436/1 96/378/1 247/378/1 254/377/1 94/437/1 95/438/1 93/380/1 239/380/1 230/379/1
f 107/176/4 111/160/4 98/162/4 230/162/4 232/439/4 233/440/4 234/441/4 235/442/4 236/443/4 237/444/4 231/445/4
f 106/128/2 108/171/2 238/171/2 240/446/2 241/447/2 242/448/2 243/449/2 244/450/2 245/451/2 239/129/2 93/129/2
f 103/189/5 102/188/5 255/188/5 246/189/5
f 109/157/4 103/167/4 246/167/4 248/452/4 249/453/4 250/454/4 251/455/4 252/456/4 253/457/4 247/158/4 96/158/4
f 102/181/2 105/140/2 94/142/2 254/142/2 256/458/2 257/459/2 258/460/2 259/461/2 260/462/2 261/463/2 255/464/2
f 139/246/5 134/245/5 271/245/5 262/246/5
f 137/149/4 139/241/4 262/241/4 264/465/4 265/466/4 266/467/4 267/468/4 268/469/4 269/470/4 263/150/4 90/150/4
f 134/268/2 131/111/2 99/115/2 270/115/2 272/471/2 273/472/2 274/473/2 275/474/2 276/475/2 277/476/2 271/268/2
f 133/145/2 132/258/2 278/258/2 280/477/2 281/478/2 282/479/2 283/480/2 284/481/2 285/482/2 279/146/2 101/146/2
f 3/483/6 7/484/6 287/485/6 286/486/6
f 7/484/6 5/487/6 288/488/6 287/485/6
f 5/487/6 1/489/6 289/490/6 288/488/6
f 1/489/6 3/483/6 286/486/6 289/490/6
f 291/491/6 290/492/6 293/493/6 292/494/6
f 286/495/2 287/496/2 290/497/2 291/498/2
f 288/499/4 289/500/4 292/501/4 293/502/4
f 289/503/1 286/504/1 291/505/1 292/506/1
