# Blender 5.0.0
# www.blender.org
mtllib ElectricPlug.mtl
o Electric_Plug(Appliances)
v -0.504000 -0.504000 0.504000
v -0.504000 0.504000 0.504000
v -0.504000 -0.504000 -0.504000
v -0.504000 0.504000 -0.504000
v 0.504000 -0.504000 0.504000
v 0.504000 0.504000 0.504000
v 0.504000 -0.504000 -0.504000
v 0.504000 0.504000 -0.504000
v -0.504000 -0.630000 -0.630000
v -0.504000 -0.630000 0.630000
v -0.504000 0.630000 0.630000
v -0.504000 0.630000 -0.630000
v -0.693000 -0.630000 -0.630000
v -0.693000 -0.630000 0.630000
v -0.693000 0.630000 0.630000
v -0.693000 0.630000 -0.630000
v -0.693000 -0.630000 0.000000
v -0.693000 0.000000 0.630000
v -0.693000 0.630000 0.000000
v -0.693000 0.000000 -0.630000
v -0.693000 0.000000 0.000000
v -0.693000 -0.630000 0.315000
v -0.693000 0.315000 0.630000
v -0.693000 0.630000 -0.315000
v -0.693000 -0.315000 -0.630000
v -0.693000 -0.630000 -0.315000
v -0.693000 -0.315000 0.630000
v -0.693000 0.630000 0.315000
v -0.693000 0.315000 -0.630000
v -0.693000 0.000000 -0.315000
v -0.693000 0.000000 0.315000
v -0.693000 -0.315000 0.000000
v -0.693000 0.315000 0.000000
v -0.693000 0.315000 0.315000
v -0.693000 -0.315000 0.315000
v -0.693000 -0.315000 -0.315000
v -0.693000 0.315000 -0.315000
v -0.693000 -0.630000 0.472500
v -0.693000 0.472500 0.630000
v -0.693000 0.630000 -0.472500
v -0.693000 -0.472500 -0.630000
v -0.693000 -0.630000 -0.157500
v -0.693000 -0.157500 0.630000
v -0.693000 0.630000 0.157500
v -0.693000 0.157500 -0.630000
v -0.693000 0.000000 -0.472500
v -0.693000 0.000000 0.157500
v -0.693000 -0.472500 0.000000
v -0.693000 0.157500 0.000000
v -0.693000 -0.630000 0.157500
v -0.693000 0.157500 0.630000
v -0.693000 0.630000 -0.157500
v -0.693000 -0.157500 -0.630000
v -0.693000 -0.630000 -0.472500
v -0.693000 -0.472500 0.630000
v -0.693000 0.630000 0.472500
v -0.693000 0.472500 -0.630000
v -0.693000 0.000000 -0.157500
v -0.693000 0.000000 0.472500
v -0.693000 -0.157500 0.000000
v -0.693000 0.472500 0.000000
v -0.693000 0.315000 0.157500
v -0.693000 0.315000 0.472500
v -0.693000 0.157500 0.315000
v -0.693000 0.472500 0.315000
v -0.693000 -0.315000 0.157500
v -0.693000 -0.315000 0.472500
v -0.693000 -0.472500 0.315000
v -0.693000 -0.157500 0.315000
v -0.693000 -0.315000 -0.472500
v -0.693000 -0.315000 -0.157500
v -0.693000 -0.472500 -0.315000
v -0.693000 -0.157500 -0.315000
v -0.693000 0.315000 -0.472500
v -0.693000 0.315000 -0.157500
v -0.693000 0.157500 -0.315000
v -0.693000 0.472500 -0.315000
v -0.693000 0.472500 -0.157500
v -0.693000 0.157500 -0.157500
v -0.693000 0.157500 -0.472500
v -0.693000 -0.157500 -0.157500
v -0.693000 -0.472500 -0.157500
v -0.693000 -0.472500 -0.472500
v -0.693000 -0.157500 0.472500
v -0.693000 -0.472500 0.472500
v -0.693000 -0.472500 0.157500
v -0.693000 0.472500 0.472500
v -0.693000 0.157500 0.472500
v -0.693000 0.157500 0.157500
v -0.693000 0.472500 0.157500
v -0.693000 -0.157500 0.157500
v -0.693000 -0.157500 -0.472500
v -0.693000 0.472500 -0.472500
v -1.378824 0.157500 0.315000
v -1.378824 0.000000 0.315000
v -1.378824 -0.157500 0.315000
v -1.378824 -0.315000 0.315000
v -1.378824 -0.315000 -0.157500
v -1.378824 -0.315000 -0.315000
v -1.378824 -0.157500 -0.315000
v -1.378824 0.315000 -0.157500
v -1.378824 0.315000 -0.315000
v -1.378824 0.157500 -0.315000
v -1.378824 0.000000 -0.315000
v -1.378824 0.315000 0.315000
v -1.378824 0.315000 0.157500
v -1.378824 -0.315000 0.157500
v -1.378824 0.157500 -0.157500
v -1.378824 0.000000 -0.157500
v -1.378824 -0.157500 -0.157500
v -1.378824 0.157500 0.157500
v -1.378824 0.000000 0.157500
v -1.378824 -0.157500 0.157500
v -1.317259 -0.121322 -0.157500
v -1.321672 -0.315000 -0.157500
v -1.321672 -0.315000 -0.315000
v -1.317259 -0.121322 -0.315000
v -1.321672 0.315000 -0.157500
v -1.317259 0.121322 -0.157500
v -1.367512 -0.000000 -0.157500
v -1.321672 0.315000 -0.315000
v -1.367512 0.000000 -0.315000
v -1.317259 0.121322 -0.315000
v -1.070203 -0.315000 -0.157500
v -1.074615 -0.121322 -0.315000
v -1.074615 0.121322 -0.157500
v -1.074615 0.121322 -0.315000
v -1.074615 -0.121322 -0.157500
v -1.070203 -0.315000 -0.315000
v -1.070203 0.315000 -0.157500
v -1.024362 0.000000 -0.157500
v -1.070203 0.315000 -0.315000
v -1.024362 0.000000 -0.315000
v -1.195937 -0.171575 -0.157500
v -1.195937 -0.315000 -0.315000
v -1.195937 0.315000 -0.157500
v -1.195937 0.315000 -0.315000
v -1.195937 -0.315000 -0.157500
v -1.195937 -0.171575 -0.315000
v -1.195937 0.171575 -0.157500
v -1.195937 0.171575 -0.315000
v -1.322169 0.315000 0.315000
v -1.317518 0.121479 0.315000
v -1.367836 -0.000000 0.157500
v -1.317518 0.121479 0.157500
v -1.322169 -0.315000 0.157500
v -1.317518 -0.121479 0.157500
v -1.322169 0.315000 0.157500
v -1.322169 -0.315000 0.315000
v -1.317518 -0.121479 0.315000
v -1.367836 -0.000000 0.315000
v -1.074559 0.121479 0.315000
v -1.074559 0.121479 0.157500
v -1.074559 -0.121479 0.157500
v -1.069908 0.315000 0.157500
v -1.024241 0.000000 0.315000
v -1.069908 0.315000 0.315000
v -1.024241 0.000000 0.157500
v -1.069908 -0.315000 0.157500
v -1.069908 -0.315000 0.315000
v -1.074559 -0.121479 0.315000
v -1.196038 0.315000 0.315000
v -1.196038 -0.315000 0.157500
v -1.196038 -0.315000 0.315000
v -1.196038 -0.171798 0.315000
v -1.196038 0.171798 0.315000
v -1.196038 0.171798 0.157500
v -1.196038 -0.171798 0.157500
v -1.196038 0.315000 0.157500
v -1.503191 0.157500 -0.315000
v -1.503191 0.000000 -0.315000
v -1.503191 -0.157500 0.315000
v -1.503191 -0.157500 -0.315000
v -1.503191 0.157500 0.315000
v -1.503191 0.000000 0.315000
v -1.503191 0.157500 -0.157500
v -1.503191 0.000000 -0.157500
v -1.503191 -0.157500 -0.157500
v -1.503191 0.157500 0.157500
v -1.503191 0.000000 0.157500
v -1.503191 -0.157500 0.157500
v -1.503191 -0.157500 0.315000
v -1.378824 -0.315000 0.315000
v -1.500073 -0.192547 0.315000
v -1.490875 -0.225837 0.315000
v -1.476058 -0.255700 0.315000
v -1.456365 -0.280638 0.315000
v -1.432785 -0.299403 0.315000
v -1.406498 -0.311051 0.315000
v -1.378824 -0.315000 -0.315000
v -1.503191 -0.157500 -0.315000
v -1.406498 -0.311051 -0.315000
v -1.432785 -0.299403 -0.315000
v -1.456365 -0.280638 -0.315000
v -1.476058 -0.255700 -0.315000
v -1.490875 -0.225837 -0.315000
v -1.500073 -0.192547 -0.315000
v -1.378824 0.315000 -0.157500
v -1.503191 0.157500 -0.157500
v -1.406498 0.311051 -0.157500
v -1.432785 0.299403 -0.157500
v -1.456365 0.280638 -0.157500
v -1.476058 0.255700 -0.157500
v -1.490875 0.225837 -0.157500
v -1.500073 0.192547 -0.157500
v -1.503191 0.157500 -0.315000
v -1.378824 0.315000 -0.315000
v -1.500073 0.192547 -0.315000
v -1.490875 0.225837 -0.315000
v -1.476058 0.255700 -0.315000
v -1.456365 0.280638 -0.315000
v -1.432785 0.299403 -0.315000
v -1.406498 0.311051 -0.315000
v -1.503191 -0.157500 -0.157500
v -1.378824 -0.315000 -0.157500
v -1.500073 -0.192547 -0.157500
v -1.490875 -0.225837 -0.157500
v -1.476058 -0.255700 -0.157500
v -1.456365 -0.280638 -0.157500
v -1.432785 -0.299403 -0.157500
v -1.406498 -0.311051 -0.157500
v -1.378824 0.315000 0.315000
v -1.503191 0.157500 0.315000
v -1.406498 0.311051 0.315000
v -1.432785 0.299403 0.315000
v -1.456365 0.280638 0.315000
v -1.476058 0.255700 0.315000
v -1.490875 0.225837 0.315000
v -1.500073 0.192547 0.315000
v -1.503191 0.157500 0.157500
v -1.378824 0.315000 0.157500
v -1.500073 0.192547 0.157500
v -1.490875 0.225837 0.157500
v -1.476058 0.255700 0.157500
v -1.456365 0.280638 0.157500
v -1.432785 0.299403 0.157500
v -1.406498 0.311051 0.157500
v -1.378824 -0.315000 0.157500
v -1.503191 -0.157500 0.157500
v -1.406498 -0.311051 0.157500
v -1.432785 -0.299403 0.157500
v -1.456365 -0.280638 0.157500
v -1.476058 -0.255700 0.157500
v -1.490875 -0.225837 0.157500
v -1.500073 -0.192547 0.157500
v 0.504000 -0.313467 -0.313467
v 0.504000 0.313467 -0.313467
v 0.504000 0.313467 0.313467
v 0.504000 -0.313467 0.313467
v 1.140451 0.313467 -0.313467
v 1.140451 -0.313467 -0.313467
v 1.140451 -0.313467 0.313467
v 1.140451 0.313467 0.313467
vn 1.0000 -0.0000 -0.0000
vn -0.0000 -0.0000 -1.0000
vn -0.0000 -0.0000 1.0000
vn -0.0000 -1.0000 -0.0000
vn -0.0000 1.0000 -0.0000
vn -1.0000 -0.0000 -0.0000
vn -0.9239 0.3827 -0.0000
vn -0.3827 0.9239 -0.0000
vn 0.3827 0.9239 -0.0000
vn -0.9239 -0.3827 -0.0000
vn -0.3827 -0.9239 -0.0000
vn 0.3827 -0.9239 -0.0000
vn 0.9239 -0.3827 -0.0000
vn 0.9239 0.3827 -0.0000
vn -0.1413 0.9900 -0.0000
vn -0.4051 0.9143 -0.0000
vn -0.6227 0.7825 -0.0000
vn -0.7848 0.6197 -0.0000
vn -0.8958 0.4445 -0.0000
vn -0.9639 0.2663 -0.0000
vn -0.9961 0.0886 -0.0000
vn -0.9961 -0.0886 -0.0000
vn -0.9639 -0.2663 -0.0000
vn -0.8958 -0.4445 -0.0000
vn -0.7848 -0.6197 -0.0000
vn -0.6227 -0.7825 -0.0000
vn -0.4051 -0.9143 -0.0000
vn -0.1413 -0.9900 -0.0000
vt 0.039718 0.286309
vt 0.286347 0.286309
vt 0.317176 0.317138
vt 0.008889 0.317138
vt 0.352215 0.008803
vt 0.352215 0.255432
vt 0.598844 0.255432
vt 0.598844 0.008803
vt 0.008769 0.848871
vt 0.008769 0.695478
vt 0.164491 0.695478
vt 0.164491 0.848871
vt 0.598844 0.290423
vt 0.598844 0.537052
vt 0.352215 0.537052
vt 0.352215 0.290423
vt 0.913065 0.317138
vt 0.913065 0.008852
vt 0.866822 0.008852
vt 0.866822 0.047387
vt 0.866822 0.085923
vt 0.866822 0.124459
vt 0.866822 0.162995
vt 0.866822 0.201530
vt 0.866822 0.240066
vt 0.866822 0.278602
vt 0.866822 0.317138
vt 0.286347 0.039680
vt 0.039718 0.039680
vt 0.008889 0.008851
vt 0.317176 0.008851
vt 0.278640 0.621976
vt 0.278640 0.660512
vt 0.317175 0.660512
vt 0.317175 0.621976
vt 0.913065 0.386829
vt 0.913065 0.695115
vt 0.866822 0.695115
vt 0.866822 0.656579
vt 0.866822 0.618043
vt 0.866822 0.579508
vt 0.866822 0.540972
vt 0.866822 0.502436
vt 0.866822 0.463900
vt 0.866822 0.425365
vt 0.866822 0.386829
vt 0.278640 0.467833
vt 0.278640 0.506368
vt 0.317175 0.506368
vt 0.317175 0.467833
vt 0.124496 0.467833
vt 0.124496 0.506368
vt 0.163032 0.506368
vt 0.163032 0.467833
vt 0.124496 0.621976
vt 0.124496 0.660512
vt 0.163032 0.660512
vt 0.163032 0.621976
vt 0.124496 0.544904
vt 0.124496 0.583440
vt 0.163032 0.583440
vt 0.163032 0.544904
vt 0.047425 0.544904
vt 0.047425 0.583440
vt 0.085961 0.583440
vt 0.085961 0.544904
vt 0.047425 0.621976
vt 0.047425 0.660512
vt 0.085961 0.660512
vt 0.085961 0.621976
vt 0.124496 0.390761
vt 0.124496 0.429297
vt 0.163032 0.429297
vt 0.163032 0.390761
vt 0.047425 0.390761
vt 0.047425 0.429297
vt 0.085961 0.429297
vt 0.085961 0.390761
vt 0.047425 0.467833
vt 0.047425 0.506368
vt 0.085961 0.506368
vt 0.085961 0.467833
vt 0.278640 0.390761
vt 0.278640 0.429297
vt 0.317175 0.429297
vt 0.317175 0.390761
vt 0.201568 0.390761
vt 0.201568 0.429297
vt 0.240104 0.429297
vt 0.240104 0.390761
vt 0.678135 0.124390
vt 0.678135 0.162978
vt 0.664132 0.162978
vt 0.664132 0.124390
vt 0.278640 0.544904
vt 0.278640 0.583440
vt 0.317175 0.583440
vt 0.317175 0.544904
vt 0.679216 0.056078
vt 0.678135 0.008626
vt 0.664132 0.008626
vt 0.664132 0.047214
vt 0.201568 0.621976
vt 0.201568 0.660512
vt 0.240104 0.660512
vt 0.240104 0.621976
vt 0.201568 0.583440
vt 0.240104 0.583440
vt 0.679225 0.304513
vt 0.666914 0.274791
vt 0.664225 0.274791
vt 0.664225 0.313326
vt 0.201568 0.544904
vt 0.201568 0.506368
vt 0.240104 0.506368
vt 0.240104 0.544904
vt 0.679152 0.493542
vt 0.678013 0.540955
vt 0.664132 0.540955
vt 0.664132 0.502367
vt 0.201568 0.467833
vt 0.201568 0.352225
vt 0.240104 0.352225
vt 0.163032 0.352225
vt 0.278640 0.352225
vt 0.317175 0.352225
vt 0.008889 0.429297
vt 0.008889 0.467833
vt 0.008889 0.506368
vt 0.047425 0.352225
vt 0.085961 0.352225
vt 0.008889 0.352225
vt 0.008889 0.390761
vt 0.124496 0.352225
vt 0.008889 0.583440
vt 0.008889 0.621976
vt 0.008889 0.660512
vt 0.008889 0.544904
vt 0.679289 0.682452
vt 0.678209 0.729839
vt 0.664225 0.729839
vt 0.664225 0.691303
vt 0.679289 0.623084
vt 0.666993 0.652768
vt 0.664225 0.652768
vt 0.664225 0.614232
vt 0.240104 0.467833
vt 0.678209 0.575696
vt 0.664225 0.575696
vt 0.679225 0.245068
vt 0.678087 0.197719
vt 0.664225 0.197719
vt 0.664225 0.236255
vt 0.679216 0.115526
vt 0.666904 0.085802
vt 0.664132 0.085802
vt 0.664132 0.124390
vt 0.678087 0.351862
vt 0.664225 0.351862
vt 0.678013 0.425191
vt 0.678013 0.386603
vt 0.664132 0.386603
vt 0.664132 0.425191
vt 0.679152 0.434016
vt 0.664132 0.425191
vt 0.041382 0.922278
vt 0.041382 0.883508
vt 0.027314 0.883508
vt 0.027314 0.922278
vt 0.666824 0.463779
vt 0.664132 0.463779
vt 0.384634 0.853382
vt 0.384634 0.892152
vt 0.370688 0.892152
vt 0.370688 0.853382
vt 0.708940 0.162978
vt 0.708940 0.127839
vt 0.072333 0.922278
vt 0.072333 0.883508
vt 0.708973 0.575696
vt 0.708973 0.610788
vt 0.708973 0.694747
vt 0.708973 0.729839
vt 0.708940 0.043766
vt 0.708940 0.008626
vt 0.708940 0.124390
vt 0.832162 0.124390
vt 0.832162 0.162978
vt 0.739745 0.162978
vt 0.739745 0.124390
vt 0.832162 0.047214
vt 0.832162 0.008626
vt 0.739745 0.008626
vt 0.738664 0.056078
vt 0.832027 0.691304
vt 0.832027 0.729839
vt 0.739736 0.729839
vt 0.738657 0.682452
vt 0.832027 0.614232
vt 0.832027 0.652768
vt 0.750952 0.652768
vt 0.738657 0.623084
vt 0.832027 0.575696
vt 0.739736 0.575696
vt 0.832162 0.085802
vt 0.750977 0.085802
vt 0.738664 0.115526
vt 0.196135 0.922278
vt 0.196135 0.883508
vt 0.103283 0.883508
vt 0.103283 0.922278
vt 0.415682 0.853382
vt 0.415682 0.892152
vt 0.708915 0.386603
vt 0.708915 0.421688
vt 0.708915 0.425191
vt 0.708948 0.351862
vt 0.708948 0.316825
vt 0.708948 0.232757
vt 0.708948 0.197719
vt 0.708915 0.505870
vt 0.708915 0.540955
vt 0.832027 0.313326
vt 0.832027 0.274791
vt 0.750982 0.274791
vt 0.738670 0.304513
vt 0.832162 0.502367
vt 0.832162 0.540955
vt 0.739818 0.540955
vt 0.738678 0.493542
vt 0.832027 0.236255
vt 0.832027 0.197719
vt 0.739808 0.197719
vt 0.738670 0.245068
vt 0.832027 0.351862
vt 0.739808 0.351862
vt 0.832162 0.425191
vt 0.832162 0.386603
vt 0.739818 0.386603
vt 0.739818 0.425191
vt 0.738678 0.434016
vt 0.832162 0.463779
vt 0.751006 0.463779
vt 0.539509 0.853382
vt 0.539509 0.892152
vt 0.446730 0.892152
vt 0.446730 0.853382
vt 0.946957 0.038340
vt 0.987049 0.038340
vt 0.987049 0.007457
vt 0.946957 0.007457
vt 0.281205 0.980048
vt 0.281205 0.939956
vt 0.312087 0.939956
vt 0.312087 0.980048
vt 0.250322 0.980048
vt 0.250322 0.939956
vt 0.946957 0.069223
vt 0.987049 0.069223
vt 0.694254 0.952054
vt 0.663371 0.952054
vt 0.663371 0.992146
vt 0.694254 0.992145
vt 0.632489 0.952054
vt 0.632489 0.992145
vt 0.946957 0.163287
vt 0.946957 0.132405
vt 0.987049 0.132405
vt 0.987049 0.163287
vt 0.987049 0.101522
vt 0.946957 0.101522
vt 0.281243 0.906849
vt 0.281243 0.866757
vt 0.312166 0.866757
vt 0.312166 0.906849
vt 0.391365 0.925515
vt 0.351273 0.925515
vt 0.351273 0.956438
vt 0.391365 0.956438
vt 0.351273 0.987360
vt 0.391365 0.987360
vt 0.485912 0.925921
vt 0.454990 0.925920
vt 0.454990 0.966012
vt 0.485912 0.966012
vt 0.424067 0.925921
vt 0.424067 0.966012
vt 0.518615 0.987360
vt 0.518615 0.956438
vt 0.558706 0.956438
vt 0.558706 0.987360
vt 0.518615 0.925515
vt 0.558706 0.925515
vt 0.250320 0.906849
vt 0.250320 0.866757
vt 0.633796 0.236255
vt 0.633796 0.274791
vt 0.633796 0.691304
vt 0.633796 0.652768
vt 0.633796 0.614232
vt 0.633662 0.085802
vt 0.633662 0.124390
vt 0.633796 0.313326
vt 0.633662 0.463779
vt 0.633662 0.425191
vt 0.633662 0.502367
vt 0.633662 0.047214
vt 0.657352 0.162978
vt 0.657352 0.124390
vt 0.650911 0.162978
vt 0.650911 0.124390
vt 0.645134 0.162978
vt 0.645134 0.124390
vt 0.272049 0.834210
vt 0.311380 0.834210
vt 0.311380 0.827982
vt 0.272049 0.827982
vt 0.311380 0.820525
vt 0.272049 0.820525
vt 0.311380 0.812212
vt 0.272049 0.812212
vt 0.311380 0.803460
vt 0.272049 0.803460
vt 0.272049 0.724799
vt 0.311380 0.724799
vt 0.311380 0.716047
vt 0.272049 0.716047
vt 0.311380 0.707734
vt 0.272049 0.707734
vt 0.311380 0.700276
vt 0.272049 0.700276
vt 0.311380 0.694049
vt 0.272049 0.694049
vt 0.008227 0.883508
vt 0.008227 0.922278
vt 0.014031 0.922278
vt 0.014031 0.883508
vt 0.020502 0.922278
vt 0.020502 0.883508
vt 0.363876 0.892152
vt 0.363876 0.853382
vt 0.357405 0.892152
vt 0.357405 0.853382
vt 0.351600 0.892152
vt 0.351600 0.853382
vt 0.198849 0.834210
vt 0.238180 0.834210
vt 0.238180 0.827982
vt 0.198849 0.827982
vt 0.238180 0.820525
vt 0.198849 0.820525
vt 0.238180 0.812212
vt 0.198849 0.812212
vt 0.238180 0.803460
vt 0.198849 0.803460
vt 0.198849 0.724799
vt 0.238180 0.724799
vt 0.238180 0.716047
vt 0.198849 0.716047
vt 0.238180 0.707734
vt 0.198849 0.707734
vt 0.238180 0.700276
vt 0.198849 0.700276
vt 0.238180 0.694049
vt 0.198849 0.694049
vt 0.645134 0.386603
vt 0.645134 0.425191
vt 0.650911 0.425191
vt 0.650911 0.386603
vt 0.657352 0.425191
vt 0.657352 0.386603
vt 0.634426 0.416604
vt 0.636679 0.408448
vt 0.640309 0.401132
vt 0.645134 0.395022
vt 0.650911 0.390424
vt 0.657352 0.387570
vt 0.198849 0.764129
vt 0.238180 0.764129
vt 0.657352 0.009593
vt 0.650911 0.012447
vt 0.645134 0.017044
vt 0.640309 0.023155
vt 0.636679 0.030471
vt 0.634426 0.038627
vt 0.272049 0.764129
vt 0.311380 0.764129
vt 0.657454 0.728873
vt 0.651023 0.726023
vt 0.645253 0.721432
vt 0.640435 0.715330
vt 0.636810 0.708024
vt 0.634559 0.699879
vt 0.634426 0.132977
vt 0.636679 0.141133
vt 0.640309 0.148450
vt 0.645134 0.154560
vt 0.650911 0.159157
vt 0.657352 0.162011
vt 0.634559 0.605657
vt 0.636810 0.597512
vt 0.640435 0.590205
vt 0.645253 0.584104
vt 0.651023 0.579512
vt 0.657454 0.576662
vt 0.657352 0.539988
vt 0.650911 0.537134
vt 0.645134 0.532537
vt 0.640309 0.526427
vt 0.636679 0.519110
vt 0.634426 0.510954
vt 0.634559 0.321901
vt 0.636810 0.330046
vt 0.640435 0.337353
vt 0.645253 0.343455
vt 0.651023 0.348046
vt 0.657454 0.350896
vt 0.657454 0.198685
vt 0.651023 0.201535
vt 0.645253 0.206126
vt 0.640435 0.212228
vt 0.636810 0.219535
vt 0.634559 0.227680
vt 0.598844 0.572043
vt 0.598844 0.818672
vt 0.552226 0.772054
vt 0.552226 0.618661
vt 0.352215 0.818672
vt 0.398832 0.772054
vt 0.352215 0.572043
vt 0.398832 0.618661
vt 0.977724 0.764684
vt 0.977724 0.918077
vt 0.824330 0.918077
vt 0.824330 0.764684
vt 0.633763 0.918077
vt 0.633763 0.764684
vt 0.789484 0.764684
vt 0.789484 0.918077
s 0
g Electric_Plug(Appliances)_Material.008
usemtl Material.008
f 2/1/1 4/2/1 12/3/1 11/4/1
f 3/5/2 4/6/2 8/7/2 7/8/2
f 248/9/3 249/10/3 252/11/3 253/12/3
f 5/13/3 6/14/3 2/15/3 1/16/3
f 3/15/4 7/14/4 5/13/4 1/16/4
f 8/7/5 4/6/5 2/5/5 6/8/5
f 12/17/2 9/18/2 13/19/2 41/20/2 25/21/2 53/22/2 20/23/2 45/24/2 29/25/2 57/26/2 16/27/2
f 3/28/1 1/29/1 10/30/1 9/31/1
f 4/2/1 3/28/1 9/31/1 12/3/1
f 1/29/1 2/1/1 11/4/1 10/30/1
f 93/32/6 40/33/6 16/34/6 57/35/6
f 10/36/3 11/37/3 15/38/3 39/39/3 23/40/3 51/41/3 18/42/3 43/43/3 27/44/3 55/45/3 14/46/3
f 11/18/5 12/17/5 16/27/5 40/26/5 24/25/5 52/24/5 19/23/5 44/22/5 28/21/5 56/20/5 15/19/5
f 9/37/4 10/36/4 14/46/4 38/45/4 22/44/4 50/43/4 17/42/4 42/41/4 26/40/4 54/39/4 13/38/4
f 92/47/6 46/48/6 20/49/6 53/50/6
f 91/51/6 47/52/6 21/53/6 60/54/6
f 90/55/6 44/56/6 19/57/6 61/58/6
f 89/59/6 62/60/6 33/61/6 49/62/6
f 88/63/6 63/64/6 34/65/6 64/66/6
f 87/67/6 56/68/6 28/69/6 65/70/6
f 86/71/6 66/72/6 32/73/6 48/74/6
f 85/75/6 67/76/6 35/77/6 68/78/6
f 84/79/6 59/80/6 31/81/6 69/82/6
f 83/83/6 70/84/6 25/85/6 41/86/6
f 82/87/6 71/88/6 36/89/6 72/90/6
f 118/91/5 121/92/5 102/93/5 101/94/5
f 80/95/6 74/96/6 29/97/6 45/98/6
f 117/99/2 116/100/2 99/101/2 100/102/2
f 78/103/6 52/104/6 24/105/6 77/106/6
f 75/107/6 78/103/6 77/106/6 37/108/6
f 33/61/6 61/58/6 78/103/6 75/107/6
f 61/58/6 19/57/6 52/104/6 78/103/6
f 145/109/2 144/110/2 112/111/2 111/112/2
f 21/53/6 49/62/6 79/113/6 58/114/6
f 49/62/6 33/61/6 75/107/6 79/113/6
f 46/48/6 80/95/6 45/98/6 20/49/6
f 30/115/6 76/116/6 80/95/6 46/48/6
f 76/116/6 37/108/6 74/96/6 80/95/6
f 143/117/3 142/118/3 105/119/3 94/120/3
f 32/73/6 60/54/6 81/121/6 71/88/6
f 60/54/6 21/53/6 58/114/6 81/121/6
f 42/122/6 82/87/6 72/90/6 26/123/6
f 17/124/6 48/74/6 82/87/6 42/122/6
f 48/74/6 32/73/6 71/88/6 82/87/6
f 54/125/6 83/83/6 41/86/6 13/126/6
f 26/123/6 72/90/6 83/83/6 54/125/6
f 72/90/6 36/89/6 70/84/6 83/83/6
f 67/76/6 84/79/6 69/82/6 35/77/6
f 27/127/6 43/128/6 84/79/6 67/76/6
f 43/128/6 18/129/6 59/80/6 84/79/6
f 38/130/6 85/75/6 68/78/6 22/131/6
f 14/132/6 55/133/6 85/75/6 38/130/6
f 55/133/6 27/127/6 67/76/6 85/75/6
f 50/134/6 86/71/6 48/74/6 17/124/6
f 22/131/6 68/78/6 86/71/6 50/134/6
f 68/78/6 35/77/6 66/72/6 86/71/6
f 63/64/6 87/67/6 65/70/6 34/65/6
f 23/135/6 39/136/6 87/67/6 63/64/6
f 39/136/6 15/137/6 56/68/6 87/67/6
f 59/80/6 88/63/6 64/66/6 31/81/6
f 18/129/6 51/138/6 88/63/6 59/80/6
f 51/138/6 23/135/6 63/64/6 88/63/6
f 47/52/6 89/59/6 49/62/6 21/53/6
f 119/139/3 118/140/3 101/141/3 108/142/3
f 114/143/3 120/144/3 109/145/3 110/146/3
f 62/60/6 90/55/6 61/58/6 33/61/6
f 34/65/6 65/70/6 90/55/6 62/60/6
f 65/70/6 28/69/6 44/56/6 90/55/6
f 66/72/6 91/51/6 60/54/6 32/73/6
f 70/84/6 92/47/6 53/50/6 25/85/6
f 36/89/6 73/147/6 92/47/6 70/84/6
f 73/147/6 30/115/6 46/48/6 92/47/6
f 74/96/6 93/32/6 57/35/6 29/97/6
f 37/108/6 77/106/6 93/32/6 74/96/6
f 77/106/6 24/105/6 40/33/6 93/32/6
f 115/148/3 114/143/3 110/146/3 98/149/3
f 147/150/2 146/151/2 107/152/2 113/153/2
f 123/154/2 122/155/2 104/156/2 103/157/2
f 122/155/2 117/99/2 100/102/2 104/156/2
f 148/158/2 145/109/2 111/112/2 106/159/2
f 146/160/4 149/161/4 97/162/4 107/163/4
f 149/161/3 150/164/3 96/165/3 97/162/3
f 144/110/2 147/150/2 113/153/2 112/111/2
f 116/166/4 115/167/4 98/168/4 99/169/4
f 151/170/3 143/117/3 94/120/3 95/171/3
f 121/92/2 123/154/2 103/157/2 102/93/2
f 150/164/3 151/170/3 95/171/3 96/165/3
f 120/144/3 119/139/3 108/142/3 109/145/3
f 142/172/5 148/173/5 106/174/5 105/175/5
f 137/176/2 141/177/2 123/154/2 121/92/2
f 135/178/4 138/179/4 115/167/4 116/166/4
f 138/180/3 134/181/3 114/143/3 115/148/3
f 140/182/3 136/183/3 118/140/3 119/139/3
f 139/184/2 135/185/2 116/100/2 117/99/2
f 136/186/5 137/176/5 121/92/5 118/91/5
f 75/187/5 37/188/5 132/189/5 130/190/5
f 73/191/2 36/192/2 129/193/2 125/194/2
f 79/195/3 75/196/3 130/197/3 126/198/3
f 81/199/3 58/200/3 131/201/3 128/202/3
f 71/203/3 81/199/3 128/202/3 124/204/3
f 76/187/2 30/205/2 133/206/2 127/207/2
f 30/205/2 73/191/2 125/194/2 133/206/2
f 36/208/4 71/209/4 124/210/4 129/211/4
f 37/188/2 76/187/2 127/207/2 132/189/2
f 58/200/3 79/195/3 126/198/3 131/201/3
f 130/190/5 132/189/5 137/176/5 136/186/5
f 125/194/2 129/193/2 135/185/2 139/184/2
f 126/198/3 130/197/3 136/183/3 140/182/3
f 124/204/3 128/202/3 134/181/3 138/180/3
f 129/211/4 124/210/4 138/179/4 135/178/4
f 132/189/2 127/207/2 141/177/2 137/176/2
f 162/212/5 169/213/5 148/173/5 142/172/5
f 164/214/3 165/215/3 150/164/3 149/161/3
f 163/216/4 164/214/4 149/161/4 146/160/4
f 169/217/2 167/218/2 145/109/2 148/158/2
f 168/219/2 163/220/2 146/151/2 147/150/2
f 166/221/3 162/222/3 142/118/3 143/117/3
f 89/223/2 47/224/2 158/225/2 153/226/2
f 64/227/3 34/228/3 157/229/3 152/230/3
f 91/231/2 66/232/2 159/233/2 154/234/2
f 62/235/2 89/223/2 153/226/2 155/236/2
f 66/237/4 35/238/4 160/239/4 159/240/4
f 35/238/3 69/237/3 161/241/3 160/239/3
f 47/224/2 91/231/2 154/234/2 158/225/2
f 31/242/3 64/227/3 152/230/3 156/243/3
f 69/237/3 31/242/3 156/243/3 161/241/3
f 34/244/5 62/245/5 155/246/5 157/247/5
f 152/230/3 157/229/3 162/222/3 166/221/3
f 154/234/2 159/233/2 163/220/2 168/219/2
f 155/236/2 153/226/2 167/218/2 169/217/2
f 159/240/4 160/239/4 164/214/4 163/216/4
f 160/239/3 161/241/3 165/215/3 164/214/3
f 157/247/5 155/246/5 169/213/5 162/212/5
f 131/248/7 133/249/7 125/250/7 128/251/7
f 139/252/8 134/253/8 128/254/8 125/255/8
f 134/253/9 139/252/9 117/256/9 114/257/9
f 133/249/10 131/248/10 126/258/10 127/259/10
f 126/260/11 140/261/11 141/262/11 127/263/11
f 140/261/12 119/264/12 123/265/12 141/262/12
f 119/266/13 120/267/13 122/268/13 123/269/13
f 117/270/14 122/268/14 120/267/14 114/271/14
f 168/272/8 165/273/8 161/274/8 154/275/8
f 154/276/7 161/277/7 156/278/7 158/279/7
f 158/279/10 156/278/10 152/280/10 153/281/10
f 152/282/11 166/283/11 167/284/11 153/285/11
f 166/283/12 143/286/12 145/287/12 167/284/12
f 143/288/13 151/289/13 144/290/13 145/291/13
f 151/289/14 150/292/14 147/293/14 144/290/14
f 165/273/9 168/272/9 147/294/9 150/295/9
f 112/111/2 113/153/2 181/296/2 180/297/2
f 109/145/3 108/142/3 176/298/3 177/299/3
f 110/146/3 109/145/3 177/299/3 178/300/3
f 103/157/2 104/156/2 171/301/2 170/302/2
f 111/112/2 112/111/2 180/297/2 179/303/2
f 96/165/3 95/171/3 175/304/3 172/305/3
f 95/171/3 94/120/3 174/306/3 175/304/3
f 104/156/2 100/102/2 173/307/2 171/301/2
f 198/94/15 207/93/15 213/308/15 200/309/15
f 200/309/16 213/308/16 212/310/16 201/311/16
f 201/311/17 212/310/17 211/312/17 202/313/17
f 202/314/18 211/315/18 210/316/18 203/317/18
f 203/317/19 210/316/19 209/318/19 204/319/19
f 204/319/20 209/318/20 208/320/20 205/321/20
f 205/321/21 208/320/21 206/322/21 199/323/21
f 214/324/22 191/325/22 197/326/22 216/327/22
f 216/327/23 197/326/23 196/328/23 217/329/23
f 217/329/24 196/328/24 195/330/24 218/331/24
f 218/331/25 195/330/25 194/332/25 219/333/25
f 219/334/26 194/335/26 193/336/26 220/337/26
f 220/337/27 193/336/27 192/338/27 221/339/27
f 221/339/28 192/338/28 190/169/28 215/168/28
f 222/175/15 231/174/15 237/340/15 224/341/15
f 224/341/16 237/340/16 236/342/16 225/343/16
f 225/343/17 236/342/17 235/344/17 226/345/17
f 226/346/18 235/347/18 234/348/18 227/349/18
f 227/349/19 234/348/19 233/350/19 228/351/19
f 228/351/20 233/350/20 232/352/20 229/353/20
f 229/353/21 232/352/21 230/354/21 223/355/21
f 182/356/22 239/357/22 245/358/22 184/359/22
f 184/359/23 245/358/23 244/360/23 185/361/23
f 185/361/24 244/360/24 243/362/24 186/363/24
f 186/363/25 243/362/25 242/364/25 187/365/25
f 187/366/26 242/367/26 241/368/26 188/369/26
f 188/369/27 241/368/27 240/370/27 189/371/27
f 189/371/28 240/370/28 238/163/28 183/162/28
f 97/162/3 96/165/3 172/305/3 182/305/3 184/372/3 185/373/3 186/374/3 187/375/3 188/376/3 189/377/3 183/162/3
f 175/378/6 174/355/6 223/355/6 230/354/6 179/354/6 180/379/6 181/357/6 239/357/6 182/356/6 172/356/6
f 107/163/5 97/162/5 183/162/5 238/163/5
f 100/102/2 99/101/2 190/101/2 192/380/2 193/381/2 194/382/2 195/383/2 196/384/2 197/385/2 191/307/2 173/307/2
f 178/324/6 177/386/6 176/323/6 199/323/6 206/322/6 170/322/6 171/387/6 173/325/6 191/325/6 214/324/6
f 99/169/5 98/168/5 215/168/5 190/169/5
f 101/94/5 102/93/5 207/93/5 198/94/5
f 108/142/3 101/141/3 198/141/3 200/388/3 201/389/3 202/390/3 203/391/3 204/392/3 205/393/3 199/298/3 176/298/3
f 102/93/2 103/157/2 170/302/2 206/302/2 208/394/2 209/395/2 210/396/2 211/397/2 212/398/2 213/399/2 207/93/2
f 98/149/3 110/146/3 178/300/3 214/300/3 216/400/3 217/401/3 218/402/3 219/403/3 220/404/3 221/405/3 215/149/3
f 105/175/5 106/174/5 231/174/5 222/175/5
f 94/120/3 105/119/3 222/119/3 224/406/3 225/407/3 226/408/3 227/409/3 228/410/3 229/411/3 223/306/3 174/306/3
f 106/159/2 111/112/2 179/303/2 230/303/2 232/412/2 233/413/2 234/414/2 235/415/2 236/416/2 237/417/2 231/159/2
f 113/153/2 107/152/2 238/152/2 240/418/2 241/419/2 242/420/2 243/421/2 244/422/2 245/423/2 239/296/2 181/296/2
f 7/424/1 8/425/1 247/426/1 246/427/1
f 8/425/1 6/428/1 248/429/1 247/426/1
f 6/428/1 5/430/1 249/431/1 248/429/1
f 5/430/1 7/424/1 246/427/1 249/431/1
f 251/432/1 250/433/1 253/434/1 252/435/1
f 249/10/4 246/9/4 251/12/4 252/11/4
f 247/436/5 248/437/5 253/438/5 250/439/5
f 246/437/2 247/436/2 250/439/2 251/438/2
