# Blender 5.0.0
# www.blender.org
mtllib GoBag.mtl
o GoBag
v -4.032000 -3.024000 -1.008000
v -4.032000 -3.024000 1.008000
v -4.032000 3.024000 -1.008000
v -4.032000 3.024000 1.008000
v 4.032000 -3.024000 -1.008000
v 4.032000 -3.024000 1.008000
v 4.032000 3.024000 -1.008000
v 4.032000 3.024000 1.008000
v 2.028346 3.024000 1.008000
v 2.028346 3.024000 -1.008000
v 1.008324 3.024000 -1.008000
v 1.008324 3.024000 1.008000
v -2.013006 3.024000 1.008000
v -2.013005 3.024000 -1.008000
v -1.005895 3.024000 -1.008000
v -1.005895 3.024000 1.008000
v 4.032000 3.024000 0.483688
v -4.032000 3.024000 0.483688
v -1.005895 3.024000 0.483688
v -2.013006 3.024000 0.483688
v 1.008324 3.024000 0.483688
v 2.028346 3.024000 0.483688
v 4.032000 3.024000 -0.510510
v -4.032000 3.024000 -0.510510
v -1.005895 3.024000 -0.510510
v -2.013006 3.024000 -0.510510
v 1.008324 3.024000 -0.510510
v 2.028346 3.024000 -0.510510
v 1.530567 3.024000 -0.510510
v 1.530567 3.024000 0.483688
v 1.008324 3.024000 -0.011141
v 2.028346 3.024000 -0.011141
v -2.013006 3.024000 -0.029396
v -1.005895 3.024000 -0.029396
v -1.490651 3.024000 -0.510510
v -1.490651 3.024000 0.483688
v 1.008324 3.024000 0.236274
v 2.028346 3.024000 0.236274
v 1.534308 3.024000 0.291855
v 1.008324 3.024000 -0.260825
v 2.028346 3.024000 -0.260825
v 1.517652 3.024000 -0.315839
v 1.779457 3.024000 0.483688
v 1.779457 3.024000 -0.510510
v 1.829827 3.024000 -0.020320
v 1.746722 3.024000 0.196972
v 1.734944 3.024000 -0.232733
v 1.269446 3.024000 -0.510510
v 1.269446 3.024000 0.483688
v 1.222133 3.024000 -0.003664
v 1.317017 3.024000 0.208749
v 1.305239 3.024000 -0.220956
v -1.248273 3.024000 0.483688
v -1.248273 3.024000 -0.510510
v -1.195893 3.024000 -0.010770
v -1.799508 3.024000 -0.036033
v -1.751828 3.024000 -0.510510
v -1.751828 3.024000 0.483688
v -1.005895 3.024000 0.227146
v -2.013006 3.024000 0.227146
v -1.510333 3.024000 0.278406
v -1.293223 3.024000 0.198941
v -1.720043 3.024000 0.181077
v -2.013006 3.024000 -0.269953
v -1.005895 3.024000 -0.269953
v -1.485069 3.024000 -0.325209
v -1.275358 3.024000 -0.227879
v -1.702179 3.024000 -0.245744
v 1.534308 4.035003 0.291855
v 1.222133 4.035003 -0.003664
v -1.195893 4.035003 -0.010770
v -1.510333 4.035003 0.278406
v 1.517652 4.035003 -0.315839
v 1.829827 4.035003 -0.020320
v 1.746722 4.035003 0.196972
v 1.734944 4.035003 -0.232733
v 1.317017 4.035003 0.208749
v 1.305239 4.035003 -0.220956
v -1.275358 4.035003 -0.227879
v -1.799508 4.035003 -0.036033
v -1.702179 4.035003 -0.245744
v -1.293223 4.035003 0.198941
v -1.720043 4.035003 0.181077
v -1.485069 4.035003 -0.325209
v -1.485069 3.877079 -0.325209
v -1.702179 3.877079 -0.245744
v 1.734944 3.877079 -0.232733
v -1.510333 3.877079 0.278406
v -1.195893 3.877079 -0.010770
v 1.517652 3.877079 -0.315839
v -1.720043 3.877079 0.181077
v 1.222133 3.877079 -0.003664
v 1.305239 3.877079 -0.220956
v -1.799508 3.877079 -0.036033
v -1.293223 3.877079 0.198941
v 1.746722 3.877079 0.196972
v 1.317017 3.877079 0.208749
v -1.275358 3.877079 -0.227879
v 1.829827 3.877079 -0.020320
v 1.534308 3.877079 0.291855
v -0.703088 4.035003 -0.297763
v 0.014425 4.035003 -0.288868
v 0.733005 4.035003 -0.296059
v -0.598634 4.035003 -0.206788
v 0.013606 4.035003 -0.200117
v 0.626619 4.035003 -0.205481
v -0.559337 4.035003 0.008077
v 0.012966 4.035003 0.014147
v 0.585355 4.035003 0.009796
v -0.608216 4.035003 0.220967
v 0.012879 4.035003 0.228412
v 0.633384 4.035003 0.223664
v -0.716638 4.035002 0.307173
v 0.013396 4.035002 0.317165
v 0.742573 4.035002 0.310843
v -0.716638 3.877078 0.307173
v 0.013396 3.877078 0.317165
v 0.742573 3.877078 0.310843
v -0.608216 3.877078 0.220967
v 0.012879 3.877078 0.228412
v 0.633385 3.877078 0.223664
v -0.559337 3.877079 0.008077
v 0.012966 3.877078 0.014147
v 0.585355 3.877078 0.009796
v -0.598634 3.877079 -0.206788
v 0.013606 3.877079 -0.200117
v 0.626619 3.877079 -0.205481
v 0.733005 3.877078 -0.296059
v 0.014425 3.877078 -0.288868
v -0.703088 3.877078 -0.297763
vn -1.0000 -0.0000 -0.0000
vn -0.0000 1.0000 -0.0000
vn 1.0000 -0.0000 -0.0000
vn -0.0000 -1.0000 -0.0000
vn -0.0000 -0.0000 -1.0000
vn -0.0000 -0.0000 1.0000
vn -0.4210 -0.0000 0.9071
vn 0.4079 -0.0000 0.9130
vn -0.9391 -0.0000 0.3437
vn -0.9130 -0.0000 0.4079
vn 0.9071 -0.0000 0.4210
vn 0.9130 -0.0000 -0.4079
vn 0.4210 -0.0000 -0.9071
vn 0.9391 -0.0000 -0.3437
vn -0.9071 -0.0000 -0.4210
vn 0.3572 -0.0000 -0.9340
vn -0.3572 -0.0000 0.9340
vn -0.3437 -0.0000 -0.9391
vn -0.4079 -0.0000 -0.9130
vn 0.9340 -0.0000 0.3572
vn 0.3437 -0.0000 0.9391
vn -0.9340 -0.0000 -0.3572
vn 0.0240 -0.0000 0.9997
vn -0.0252 -0.0000 -0.9997
vn 0.0087 -0.0000 1.0000
vn -0.0137 -0.0000 0.9999
vn -0.0362 -0.0000 0.9993
vn -0.0100 -0.0000 -0.9999
vn 0.0124 -0.0000 -0.9999
vn 0.0351 -0.0000 -0.9994
vt 0.511757 0.292234
vt 0.511757 0.414620
vt 0.878917 0.414620
vt 0.878917 0.382791
vt 0.878917 0.322435
vt 0.878917 0.292234
vt 0.511807 0.000840
vt 0.511807 0.031041
vt 0.634376 0.031041
vt 0.634376 0.000840
vt 0.878917 0.437931
vt 0.878917 0.468132
vt 0.878917 0.528488
vt 0.878917 0.560318
vt 0.511757 0.560318
vt 0.511757 0.437931
vt 1.001353 0.146537
vt 1.001353 0.268923
vt 0.511807 0.268923
vt 0.511807 0.146537
vt -0.001351 0.368100
vt 0.121218 0.368100
vt 0.182357 0.368100
vt 0.304635 0.368100
vt 0.366558 0.368100
vt 0.488195 0.368100
vt 0.488195 0.000940
vt -0.001351 0.000940
vt 0.488195 0.758771
vt 0.366558 0.758771
vt 0.304635 0.758771
vt 0.182357 0.758771
vt 0.121218 0.758771
vt -0.001351 0.758771
vt -0.001351 0.391611
vt 0.488195 0.391611
vt 0.879716 0.000840
vt 0.879716 0.031041
vt 1.001353 0.031041
vt 1.001353 0.000840
vt 0.817793 0.000840
vt 0.817793 0.031041
vt 0.833645 0.031041
vt 0.849497 0.031041
vt 0.864607 0.031041
vt 0.650231 0.031041
vt 0.666086 0.031041
vt 0.680801 0.031041
vt 0.695515 0.031041
vt 0.695515 0.000840
vt 0.634376 0.091397
vt 0.511807 0.091397
vt 0.511807 0.123226
vt 0.634376 0.123226
vt 1.001353 0.091397
vt 0.879716 0.091397
vt 0.879716 0.123226
vt 1.001353 0.123226
vt 0.864607 0.091397
vt 0.849497 0.091397
vt 0.833645 0.091397
vt 0.817793 0.091397
vt 0.817793 0.123226
vt 0.695515 0.091397
vt 0.680801 0.091397
vt 0.666086 0.091397
vt 0.650231 0.091397
vt 0.695515 0.123226
vt 0.634376 0.075822
vt 0.634376 0.060248
vt 0.634376 0.045645
vt 0.879716 0.046199
vt 0.879716 0.061357
vt 0.879716 0.076377
vt 0.633953 0.653117
vt 0.647016 0.653117
vt 0.647016 0.706253
vt 0.633953 0.706253
vt 0.836660 0.653117
vt 0.849891 0.653117
vt 0.849891 0.706253
vt 0.836660 0.706253
vt 0.695515 0.045645
vt 0.695515 0.060248
vt 0.695515 0.075822
vt 0.817793 0.076377
vt 0.817793 0.061357
vt 0.817793 0.046199
vt 0.836533 0.074705
vt 0.830773 0.061810
vt 0.862620 0.073991
vt 0.849725 0.079751
vt 0.835818 0.048619
vt 0.848713 0.042859
vt 0.678072 0.074110
vt 0.664892 0.078934
vt 0.652161 0.073026
vt 0.647336 0.059845
vt 0.653245 0.047114
vt 0.658771 0.857364
vt 0.658771 0.871083
vt 0.712674 0.871083
vt 0.712674 0.857364
vt 0.743605 0.857839
vt 0.743605 0.871258
vt 0.797495 0.871258
vt 0.797495 0.857839
vt 0.861905 0.047904
vt 0.867665 0.060799
vt 0.818640 0.871082
vt 0.818640 0.857831
vt 0.872543 0.857831
vt 0.872543 0.871082
vt 0.679156 0.048199
vt 0.683981 0.061379
vt 0.666425 0.042290
vt 0.574142 0.857531
vt 0.574142 0.844113
vt 0.628032 0.844113
vt 0.628032 0.857531
vt 0.660613 0.729960
vt 0.647559 0.729960
vt 0.647559 0.783063
vt 0.660613 0.783063
vt 0.818640 0.844113
vt 0.872543 0.844113
vt 0.658771 0.844113
vt 0.712674 0.844113
vt 0.848000 0.729960
vt 0.834474 0.729960
vt 0.834474 0.783063
vt 0.848000 0.783063
vt 0.823126 0.653117
vt 0.823126 0.706253
vt 0.634044 0.729960
vt 0.634044 0.783063
vt 0.821251 0.729960
vt 0.821251 0.783063
vt 0.574142 0.871258
vt 0.628032 0.871258
vt 0.660539 0.653117
vt 0.660539 0.706253
vt 0.743605 0.844113
vt 0.797495 0.844113
vt 0.325927 0.882108
vt 0.338822 0.876348
vt 0.343867 0.863157
vt 0.338107 0.850262
vt 0.324916 0.845216
vt 0.312021 0.850976
vt 0.306976 0.864168
vt 0.312736 0.877063
vt 0.160183 0.863736
vt 0.155359 0.850556
vt 0.142628 0.844648
vt 0.129448 0.849472
vt 0.123539 0.862203
vt 0.128363 0.875383
vt 0.141094 0.881292
vt 0.154274 0.876467
vt 0.722653 0.857364
vt 0.722653 0.844113
vt 0.834474 0.792894
vt 0.848000 0.792894
vt 0.647016 0.716090
vt 0.633953 0.716090
vt 0.634044 0.792894
vt 0.647559 0.792894
vt 0.638008 0.844113
vt 0.638008 0.857531
vt 0.722653 0.871083
vt 0.849891 0.716090
vt 0.836660 0.716090
vt 0.638008 0.871258
vt 0.551065 0.845216
vt 0.538170 0.850976
vt 0.496973 0.851916
vt 0.503431 0.846417
vt 0.533125 0.864168
vt 0.494468 0.864985
vt 0.538885 0.877063
vt 0.497384 0.877968
vt 0.552076 0.882108
vt 0.504012 0.883261
vt 0.787345 0.716090
vt 0.787345 0.706253
vt 0.271234 0.877968
vt 0.277863 0.883261
vt 0.268318 0.864985
vt 0.270823 0.851916
vt 0.277282 0.846417
vt 0.785631 0.783063
vt 0.785631 0.792894
vt 0.233658 0.846854
vt 0.233609 0.852242
vt 0.190100 0.846314
vt 0.196441 0.851837
vt 0.233570 0.865249
vt 0.198827 0.864881
vt 0.233565 0.878257
vt 0.195859 0.877805
vt 0.233596 0.883644
vt 0.189277 0.883038
vt 0.741926 0.716090
vt 0.741926 0.706253
vt 0.696453 0.716090
vt 0.696453 0.706253
vt 0.459745 0.883644
vt 0.459714 0.878257
vt 0.415427 0.883038
vt 0.422009 0.877805
vt 0.367244 0.881292
vt 0.380424 0.876467
vt 0.459719 0.865249
vt 0.424976 0.864880
vt 0.386332 0.863736
vt 0.459758 0.852242
vt 0.422591 0.851837
vt 0.381508 0.850556
vt 0.459808 0.846854
vt 0.416249 0.846314
vt 0.368777 0.844648
vt 0.740900 0.783063
vt 0.740900 0.792894
vt 0.696236 0.783063
vt 0.696236 0.792894
s 0
g GoBag_Material.001
usemtl Material.001
f 1/1/1 2/2/1 4/3/1 18/4/1 24/5/1 3/6/1
f 3/7/2 24/8/2 26/9/2 14/10/2
f 7/11/3 23/12/3 17/13/3 8/14/3 6/15/3 5/16/3
f 5/17/4 6/18/4 2/19/4 1/20/4
f 3/21/5 14/22/5 15/23/5 11/24/5 10/25/5 7/26/5 5/27/5 1/28/5
f 8/29/6 9/30/6 12/31/6 16/32/6 13/33/6 4/34/6 2/35/6 6/36/6
f 10/37/2 28/38/2 23/39/2 7/40/2
f 11/41/2 27/42/2 48/43/2 29/44/2 44/45/2 28/38/2 10/37/2
f 14/10/2 26/9/2 57/46/2 35/47/2 54/48/2 25/49/2 15/50/2
f 15/50/2 25/49/2 27/42/2 11/41/2
f 20/51/2 18/52/2 4/53/2 13/54/2
f 17/55/2 22/56/2 9/57/2 8/58/2
f 22/56/2 43/59/2 30/60/2 49/61/2 21/62/2 12/63/2 9/57/2
f 19/64/2 53/65/2 36/66/2 58/67/2 20/51/2 13/54/2 16/68/2
f 21/62/2 19/64/2 16/68/2 12/63/2
f 26/9/2 24/8/2 18/52/2 20/51/2 60/69/2 33/70/2 64/71/2
f 23/39/2 28/38/2 41/72/2 32/73/2 38/74/2 22/56/2 17/55/2
f 63/75/7 61/76/7 88/77/7 91/78/7
f 39/79/8 46/80/8 96/81/8 100/82/8
f 27/42/2 25/49/2 65/83/2 34/84/2 59/85/2 19/64/2 21/62/2 37/86/2 31/87/2 40/88/2
f 51/89/2 50/90/2 31/87/2 37/86/2
f 46/91/2 39/92/2 30/60/2 43/59/2
f 52/93/2 42/94/2 29/44/2 48/43/2
f 62/95/2 61/96/2 36/66/2 53/65/2
f 63/97/2 56/98/2 33/70/2 60/69/2
f 68/99/2 57/46/2 26/9/2 64/71/2
f 56/100/9 63/101/9 91/102/9 94/103/9
f 49/61/2 51/89/2 37/86/2 21/62/2
f 50/104/10 51/105/10 97/106/10 92/107/10
f 44/45/2 29/44/2 42/94/2 47/108/2
f 28/38/2 44/45/2 47/108/2 41/72/2
f 32/73/2 45/109/2 46/91/2 38/74/2
f 38/74/2 46/91/2 43/59/2 22/56/2
f 41/72/2 47/108/2 45/109/2 32/73/2
f 31/87/2 50/90/2 52/93/2 40/88/2
f 30/60/2 39/92/2 51/89/2 49/61/2
f 40/88/2 52/93/2 48/43/2 27/42/2
f 62/110/11 55/111/11 89/112/11 95/113/11
f 59/85/2 62/95/2 53/65/2 19/64/2
f 65/83/2 67/114/2 55/115/2 34/84/2
f 66/116/2 35/47/2 57/46/2 68/99/2
f 45/117/12 47/118/12 87/119/12 99/120/12
f 36/66/2 61/96/2 63/97/2 58/67/2
f 34/84/2 55/115/2 62/95/2 59/85/2
f 58/67/2 63/97/2 60/69/2 20/51/2
f 67/121/13 66/122/13 85/123/13 98/124/13
f 55/111/14 67/125/14 98/126/14 89/112/14
f 25/49/2 54/48/2 67/114/2 65/83/2
f 56/98/2 68/99/2 64/71/2 33/70/2
f 54/48/2 35/47/2 66/116/2 67/114/2
f 68/127/15 56/100/15 94/103/15 86/128/15
f 47/129/16 42/130/16 90/131/16 87/132/16
f 51/133/17 39/79/17 100/82/17 97/134/17
f 66/122/18 68/135/18 86/136/18 85/123/18
f 42/130/19 52/137/19 93/138/19 90/131/19
f 46/139/20 45/117/20 99/120/20 96/140/20
f 61/76/21 62/141/21 95/142/21 88/77/21
f 52/143/22 50/104/22 92/107/22 93/144/22
f 69/145/2 75/146/2 74/147/2 76/148/2 73/149/2 78/150/2 70/151/2 77/152/2
f 71/153/2 79/154/2 84/155/2 81/156/2 80/157/2 83/158/2 72/159/2 82/160/2
f 86/128/15 94/103/15 80/161/15 81/162/15
f 87/132/16 90/131/16 73/163/16 76/164/16
f 91/78/7 88/77/7 72/165/7 83/166/7
f 85/123/18 86/136/18 81/167/18 84/168/18
f 99/120/12 87/119/12 76/169/12 74/170/12
f 94/103/9 91/102/9 83/171/9 80/161/9
f 100/82/8 96/81/8 75/172/8 69/173/8
f 96/140/20 99/120/20 74/170/20 75/174/20
f 90/175/4 93/176/4 127/177/4 128/178/4
f 93/176/4 92/179/4 124/180/4 127/177/4
f 92/179/4 97/181/4 121/182/4 124/180/4
f 97/181/4 100/183/4 118/184/4 121/182/4
f 100/82/23 69/173/23 115/185/23 118/186/23
f 69/145/2 77/152/2 112/187/2 115/188/2
f 77/152/2 70/151/2 109/189/2 112/187/2
f 70/151/2 78/150/2 106/190/2 109/189/2
f 78/150/2 73/149/2 103/191/2 106/190/2
f 73/163/24 90/131/24 128/192/24 103/193/24
f 106/190/2 103/191/2 102/194/2 105/195/2
f 105/195/2 102/194/2 101/196/2 104/197/2
f 104/197/2 101/196/2 84/155/2 79/154/2
f 109/189/2 106/190/2 105/195/2 108/198/2
f 108/198/2 105/195/2 104/197/2 107/199/2
f 107/199/2 104/197/2 79/154/2 71/153/2
f 112/187/2 109/189/2 108/198/2 111/200/2
f 111/200/2 108/198/2 107/199/2 110/201/2
f 110/201/2 107/199/2 71/153/2 82/160/2
f 115/188/2 112/187/2 111/200/2 114/202/2
f 114/202/2 111/200/2 110/201/2 113/203/2
f 113/203/2 110/201/2 82/160/2 72/159/2
f 118/186/25 115/185/25 114/204/25 117/205/25
f 117/205/26 114/204/26 113/206/26 116/207/26
f 116/207/27 113/206/27 72/165/27 88/77/27
f 121/182/4 118/184/4 117/208/4 120/209/4
f 120/209/4 117/208/4 116/210/4 119/211/4
f 119/211/4 116/210/4 88/212/4 95/213/4
f 124/180/4 121/182/4 120/209/4 123/214/4
f 123/214/4 120/209/4 119/211/4 122/215/4
f 122/215/4 119/211/4 95/213/4 89/216/4
f 127/177/4 124/180/4 123/214/4 126/217/4
f 126/217/4 123/214/4 122/215/4 125/218/4
f 125/218/4 122/215/4 89/216/4 98/219/4
f 128/178/4 127/177/4 126/217/4 129/220/4
f 129/220/4 126/217/4 125/218/4 130/221/4
f 130/221/4 125/218/4 98/219/4 85/222/4
f 103/193/28 128/192/28 129/223/28 102/224/28
f 102/224/29 129/223/29 130/225/29 101/226/29
f 101/226/30 130/225/30 85/123/30 84/168/30
