# Blender 5.0.0
# www.blender.org
mtllib Matchbox.mtl
o MatchBox
v -1.008000 -0.504000 2.016000
v -1.008000 0.504000 2.016000
v -1.008000 -0.504000 -2.016000
v -1.008000 0.504000 -2.016000
v 1.008000 -0.504000 2.016000
v 1.008000 0.504000 2.016000
v 1.008000 -0.504000 -2.016000
v 1.008000 0.504000 -2.016000
vn -1.0000 -0.0000 -0.0000
vn -0.0000 -0.0000 -1.0000
vn 1.0000 -0.0000 -0.0000
vn -0.0000 -0.0000 1.0000
vn -0.0000 -1.0000 -0.0000
vn -0.0000 1.0000 -0.0000
vt 0.015625 0.484375
vt 0.015625 0.718750
vt 0.718750 0.718750
vt 0.718750 0.484375
vt 0.015625 0.734375
vt 0.015625 0.984375
vt 0.390625 0.984375
vt 0.390625 0.734375
vt 0.000000 0.453125
vt 0.437500 0.453125
vt 0.437500 0.000000
vt 0.000000 0.000000
s 0
g MatchBox_Matchbox
usemtl Matchbox
f 1/1/1 2/2/1 4/3/1 3/4/1
f 3/5/2 4/6/2 8/7/2 7/8/2
f 7/4/3 8/3/3 6/2/3 5/1/3
f 5/8/4 6/7/4 2/6/4 1/5/4
f 3/9/5 7/10/5 5/11/5 1/12/5
f 8/10/6 4/9/6 2/12/6 6/11/6
