# Blender 5.0.0
# www.blender.org
mtllib Medicine_02.mtl
o Medicine(tablets)
v -1.008000 0.000000 1.645821
v 1.008000 0.000000 1.645821
v -1.008000 0.000000 0.637821
v 1.008000 0.000000 0.637821
v -1.008000 0.000000 0.637821
v -1.008000 0.000000 1.645821
v 1.008000 0.000000 1.645821
v 1.008000 0.000000 0.637821
v -1.008000 0.000000 0.729457
v -1.008000 0.000000 0.821094
v -1.008000 0.000000 0.912730
v -1.008000 0.000000 1.004366
v -1.008000 0.000000 1.096003
v -1.008000 0.000000 1.187639
v -1.008000 0.000000 1.279275
v -1.008000 0.000000 1.370912
v -1.008000 0.000000 1.462548
v -1.008000 0.000000 1.554185
v -0.824727 0.000000 1.645821
v -0.641455 0.000000 1.645821
v -0.458182 0.000000 1.645821
v -0.274909 0.000000 1.645821
v -0.091636 0.000000 1.645821
v 0.091636 0.000000 1.645821
v 0.274909 0.000000 1.645821
v 0.458182 0.000000 1.645821
v 0.641455 0.000000 1.645821
v 0.824727 0.000000 1.645821
v 1.008000 0.000000 1.554185
v 1.008000 0.000000 1.462548
v 1.008000 0.000000 1.370912
v 1.008000 0.000000 1.279275
v 1.008000 0.000000 1.187639
v 1.008000 0.000000 1.096003
v 1.008000 0.000000 1.004366
v 1.008000 0.000000 0.912730
v 1.008000 0.000000 0.821094
v 1.008000 0.000000 0.729457
v 0.824727 0.000000 0.637821
v 0.641455 0.000000 0.637821
v 0.458182 0.000000 0.637821
v 0.274909 0.000000 0.637821
v 0.091636 0.000000 0.637821
v -0.091636 0.000000 0.637821
v -0.274909 0.000000 0.637821
v -0.458182 0.000000 0.637821
v -0.641455 0.000000 0.637821
v -0.824727 0.000000 0.637821
v -0.811090 0.000000 1.564322
v -0.824727 0.000000 1.370912
v -0.811090 0.000000 1.177501
v -0.811090 0.000000 1.106141
v -0.824727 0.000000 0.912730
v -0.830343 0.000000 0.721884
v -0.657642 0.000000 1.538748
v -0.625461 0.000000 1.459882
v -0.641455 0.000000 1.370912
v -0.625461 0.000000 1.281941
v -0.657642 0.000000 1.203076
v -0.657642 0.000000 1.080566
v -0.625461 0.000000 1.001701
v -0.641455 0.000000 0.912730
v -0.620302 0.000000 0.814186
v -0.671736 0.000000 0.737886
v -0.427900 0.000000 1.545756
v -0.479334 0.000000 1.469455
v -0.458182 0.000000 1.370912
v -0.479334 0.000000 1.272368
v -0.427900 0.000000 1.196068
v -0.427900 0.000000 1.087574
v -0.479334 0.000000 1.011274
v -0.458182 0.000000 0.912730
v -0.479334 0.000000 0.814186
v -0.427901 0.000000 0.737886
v -0.269294 0.000000 1.561757
v -0.274909 0.000000 1.370912
v -0.269294 0.000000 1.180066
v -0.269294 0.000000 1.103576
v -0.274909 0.000000 0.912730
v -0.269294 0.000000 0.721884
v -0.091636 0.000000 1.554185
v -0.091636 0.000000 1.462548
v -0.091636 0.000000 1.370912
v -0.091636 0.000000 1.279275
v -0.091636 0.000000 1.187639
v -0.091636 0.000000 1.096003
v -0.091636 0.000000 1.004366
v -0.091636 0.000000 0.912730
v -0.091636 0.000000 0.821094
v -0.091636 0.000000 0.729457
v 0.091636 0.000000 1.554185
v 0.091636 0.000000 1.462548
v 0.091636 0.000000 1.370912
v 0.091636 0.000000 1.279275
v 0.091636 0.000000 1.187639
v 0.091636 0.000000 1.096003
v 0.091636 0.000000 1.004366
v 0.091636 0.000000 0.912730
v 0.091636 0.000000 0.821094
v 0.091636 0.000000 0.729457
v 0.269294 0.000000 1.561757
v 0.274909 0.000000 1.370912
v 0.269294 0.000000 1.180066
v 0.269294 0.000000 1.103576
v 0.274909 0.000000 0.912730
v 0.269294 0.000000 0.721884
v 0.427900 0.000000 1.545756
v 0.479334 0.000000 1.469455
v 0.458182 0.000000 1.370912
v 0.479334 0.000000 1.272368
v 0.427901 0.000000 1.196068
v 0.427900 0.000000 1.087574
v 0.479334 0.000000 1.011274
v 0.458182 0.000000 0.912730
v 0.479334 0.000000 0.814186
v 0.427900 0.000000 0.737886
v 0.671736 0.000000 1.545756
v 0.620302 0.000000 1.469455
v 0.641455 0.000000 1.370912
v 0.625461 0.000000 1.281941
v 0.657642 0.000000 1.203076
v 0.671736 0.000000 1.087574
v 0.620302 0.000000 1.011274
v 0.641455 0.000000 0.912730
v 0.620302 0.000000 0.814186
v 0.671736 0.000000 0.737886
v 0.830343 0.000000 1.561757
v 0.824727 0.000000 1.370912
v 0.811090 0.000000 1.177501
v 0.830343 0.000000 1.103576
v 0.824727 0.000000 0.912730
v 0.830343 0.000000 0.721884
v -1.008000 0.000000 1.600003
v 0.916364 0.000000 1.645821
v 1.008000 0.000000 0.683639
v -0.916364 0.000000 0.637821
v -1.008000 0.000000 0.683639
v -1.008000 0.000000 0.775275
v -1.008000 0.000000 0.866912
v -1.008000 0.000000 0.958548
v -1.008000 0.000000 1.050184
v -1.008000 0.000000 1.141821
v -1.008000 0.000000 1.233457
v -1.008000 0.000000 1.325094
v -1.008000 0.000000 1.416730
v -1.008000 0.000000 1.508366
v -0.916364 0.000000 1.645821
v -0.733091 0.000000 1.645821
v -0.549818 0.000000 1.645821
v -0.366545 0.000000 1.645821
v -0.183273 0.000000 1.645821
v 0.000000 0.000000 1.645821
v 0.183273 0.000000 1.645821
v 0.366546 0.000000 1.645821
v 0.549818 0.000000 1.645821
v 0.733091 0.000000 1.645821
v 1.008000 0.000000 1.600003
v 1.008000 0.000000 1.508366
v 1.008000 0.000000 1.416730
v 1.008000 0.000000 1.325094
v 1.008000 0.000000 1.233457
v 1.008000 0.000000 1.141821
v 1.008000 0.000000 1.050184
v 1.008000 0.000000 0.958548
v 1.008000 0.000000 0.866912
v 1.008000 0.000000 0.775275
v 0.916364 0.000000 0.637821
v 0.733091 0.000000 0.637821
v 0.549818 0.000000 0.637821
v 0.366545 0.000000 0.637821
v 0.183273 0.000000 0.637821
v -0.000000 0.000000 0.637821
v -0.183273 0.000000 0.637821
v -0.366546 0.000000 0.637821
v -0.549818 0.000000 0.637821
v -0.733091 0.000000 0.637821
v -0.824727 0.000000 0.683639
v -0.824727 0.000000 1.600003
v -0.830343 0.000000 1.409157
v -0.830343 0.000000 1.332667
v -0.824727 0.000000 1.141821
v -0.830343 0.000000 0.950975
v -0.811091 0.000000 0.877050
v -0.641455 0.000000 0.683639
v -0.641455 0.000000 1.600003
v -0.620302 0.000000 1.501459
v -0.671736 0.000000 1.425159
v -0.671736 0.000000 1.316665
v -0.620302 0.000000 1.240365
v -0.641455 0.000000 1.141821
v -0.620302 0.000000 1.043277
v -0.671736 0.000000 0.966977
v -0.657642 0.000000 0.851475
v -0.625461 0.000000 0.772610
v -0.458182 0.000000 0.683639
v -0.458182 0.000000 1.600003
v -0.474175 0.000000 1.511032
v -0.441994 0.000000 1.432167
v -0.441994 0.000000 1.309657
v -0.474175 0.000000 1.230792
v -0.458182 0.000000 1.141821
v -0.474175 0.000000 1.052850
v -0.441994 0.000000 0.973985
v -0.441994 0.000000 0.851475
v -0.474175 0.000000 0.772610
v -0.274909 0.000000 0.683639
v -0.274909 0.000000 1.600003
v -0.288546 0.000000 1.406592
v -0.288546 0.000000 1.335232
v -0.274909 0.000000 1.141821
v -0.288546 0.000000 0.948410
v -0.288546 0.000000 0.877050
v -0.091636 0.000000 0.683639
v -0.091636 0.000000 1.600003
v -0.091636 0.000000 1.508366
v -0.091636 0.000000 1.416730
v -0.091636 0.000000 1.325094
v -0.091636 0.000000 1.233457
v -0.091636 0.000000 1.141821
v -0.091636 0.000000 1.050184
v -0.091636 0.000000 0.958548
v -0.091636 0.000000 0.866912
v -0.091636 0.000000 0.775275
v 0.091636 0.000000 0.683639
v 0.091636 0.000000 1.600003
v 0.091636 0.000000 1.508366
v 0.091636 0.000000 1.416730
v 0.091636 0.000000 1.325094
v 0.091636 0.000000 1.233457
v 0.091636 0.000000 1.141821
v 0.091636 0.000000 1.050184
v 0.091636 0.000000 0.958548
v 0.091636 0.000000 0.866912
v 0.091636 0.000000 0.775275
v 0.274909 0.000000 0.683639
v 0.274909 0.000000 1.600003
v 0.288546 0.000000 1.406592
v 0.288546 0.000000 1.335232
v 0.274909 0.000000 1.141821
v 0.288546 0.000000 0.948410
v 0.288546 0.000000 0.877050
v 0.458182 0.000000 0.683639
v 0.458182 0.000000 1.600003
v 0.474175 0.000000 1.511032
v 0.441994 0.000000 1.432167
v 0.441994 0.000000 1.309657
v 0.474175 0.000000 1.230792
v 0.458182 0.000000 1.141821
v 0.474175 0.000000 1.052850
v 0.441994 0.000000 0.973985
v 0.441994 0.000000 0.851475
v 0.474175 0.000000 0.772610
v 0.641455 0.000000 0.683639
v 0.641455 0.000000 1.600003
v 0.625461 0.000000 1.511032
v 0.657642 0.000000 1.432167
v 0.671736 0.000000 1.316665
v 0.620302 0.000000 1.240365
v 0.641455 0.000000 1.141821
v 0.625461 0.000000 1.052850
v 0.657642 0.000000 0.973985
v 0.657642 0.000000 0.851475
v 0.625461 0.000000 0.772610
v 0.824727 0.000000 0.683639
v 0.824727 0.000000 1.600003
v 0.811090 0.000000 1.406592
v 0.830343 0.000000 1.332667
v 0.824727 0.000000 1.141821
v 0.811090 0.000000 0.948410
v 0.811090 0.000000 0.877050
v -0.886082 0.000000 1.545756
v -0.937516 0.000000 1.469455
v -0.916364 0.000000 1.370912
v -0.937516 0.000000 1.272368
v -0.886082 0.000000 1.196068
v -0.886082 0.000000 1.087574
v -0.937516 0.000000 1.011274
v -0.916364 0.000000 0.912730
v -0.932357 0.000000 0.823759
v -0.900176 0.000000 0.744894
v -0.727476 0.000000 1.561757
v -0.733091 0.000000 1.370912
v -0.727476 0.000000 1.180066
v -0.727476 0.000000 1.103576
v -0.733091 0.000000 0.912730
v -0.746728 0.000000 0.719319
v -0.549818 0.000000 1.554185
v -0.549818 0.000000 1.462548
v -0.549818 0.000000 1.370912
v -0.549818 0.000000 1.279275
v -0.549818 0.000000 1.187639
v -0.549818 0.000000 1.096003
v -0.549818 0.000000 1.004366
v -0.549818 0.000000 0.912730
v -0.549818 0.000000 0.821094
v -0.549818 0.000000 0.729457
v -0.352909 0.000000 1.564322
v -0.366545 0.000000 1.370912
v -0.352909 0.000000 1.177501
v -0.352909 0.000000 1.106141
v -0.366545 0.000000 0.912730
v -0.352909 0.000000 0.719319
v -0.199461 0.000000 1.538748
v -0.167279 0.000000 1.459882
v -0.183273 0.000000 1.370912
v -0.167279 0.000000 1.281941
v -0.199461 0.000000 1.203076
v -0.199461 0.000000 1.080566
v -0.167279 0.000000 1.001701
v -0.183273 0.000000 0.912730
v -0.167279 0.000000 0.823759
v -0.199461 0.000000 0.744894
v 0.000000 0.000000 1.554185
v 0.000000 0.000000 1.462548
v 0.000000 0.000000 1.370912
v 0.000000 0.000000 1.279275
v 0.000000 0.000000 1.187639
v -0.000000 0.000000 1.096003
v -0.000000 0.000000 1.004366
v -0.000000 0.000000 0.912730
v -0.000000 0.000000 0.821094
v -0.000000 0.000000 0.729457
v 0.199461 0.000000 1.538748
v 0.167279 0.000000 1.459882
v 0.183273 0.000000 1.370912
v 0.167279 0.000000 1.281941
v 0.199461 0.000000 1.203076
v 0.199461 0.000000 1.080566
v 0.167279 0.000000 1.001701
v 0.183273 0.000000 0.912730
v 0.167279 0.000000 0.823759
v 0.199461 0.000000 0.744894
v 0.352909 0.000000 1.564322
v 0.366546 0.000000 1.370912
v 0.352909 0.000000 1.177501
v 0.352909 0.000000 1.106141
v 0.366545 0.000000 0.912730
v 0.352909 0.000000 0.719319
v 0.549818 0.000000 1.554185
v 0.549818 0.000000 1.462548
v 0.549818 0.000000 1.370912
v 0.549818 0.000000 1.279275
v 0.549818 0.000000 1.187639
v 0.549818 0.000000 1.096003
v 0.549818 0.000000 1.004366
v 0.549818 0.000000 0.912730
v 0.549818 0.000000 0.821094
v 0.549818 0.000000 0.729457
v 0.746728 0.000000 1.564322
v 0.733091 0.000000 1.370912
v 0.727476 0.000000 1.180066
v 0.746728 0.000000 1.106141
v 0.733091 0.000000 0.912730
v 0.746728 0.000000 0.719319
v 0.900176 0.000000 1.538748
v 0.932357 0.000000 1.459882
v 0.916364 0.000000 1.370912
v 0.937516 0.000000 1.272368
v 0.886082 0.000000 1.196068
v 0.900176 0.000000 1.080566
v 0.932357 0.000000 1.001701
v 0.916364 0.000000 0.912730
v 0.932357 0.000000 0.823759
v 0.900176 0.000000 0.744894
v 0.937516 0.000000 0.782183
v 0.886082 0.000000 0.858483
v 0.886082 0.000000 0.966977
v 0.937516 0.000000 1.043277
v 0.916364 0.000000 1.141821
v 0.932357 0.000000 1.230792
v 0.900176 0.000000 1.309657
v 0.886082 0.000000 1.425159
v 0.937516 0.000000 1.501459
v 0.916364 0.000000 1.600003
v 0.727476 0.000000 0.874485
v 0.727476 0.000000 0.950975
v 0.733091 0.000000 1.141821
v 0.746728 0.000000 1.335232
v 0.727476 0.000000 1.409157
v 0.733091 0.000000 1.600003
v 0.549818 0.000000 0.775275
v 0.549818 0.000000 0.866912
v 0.549818 0.000000 0.958548
v 0.549818 0.000000 1.050184
v 0.549818 0.000000 1.141821
v 0.549818 0.000000 1.233457
v 0.549818 0.000000 1.325094
v 0.549818 0.000000 1.416730
v 0.549818 0.000000 1.508366
v 0.549818 0.000000 1.600003
v 0.372161 0.000000 0.874485
v 0.372161 0.000000 0.950975
v 0.366546 0.000000 1.141821
v 0.372161 0.000000 1.332667
v 0.372161 0.000000 1.409157
v 0.366546 0.000000 1.600003
v 0.162121 0.000000 0.782183
v 0.213554 0.000000 0.858483
v 0.213554 0.000000 0.966977
v 0.162121 0.000000 1.043277
v 0.183273 0.000000 1.141821
v 0.162121 0.000000 1.240365
v 0.213554 0.000000 1.316665
v 0.213554 0.000000 1.425159
v 0.162121 0.000000 1.501459
v 0.183273 0.000000 1.600003
v -0.000000 0.000000 0.775275
v -0.000000 0.000000 0.866912
v -0.000000 0.000000 0.958548
v -0.000000 0.000000 1.050184
v -0.000000 0.000000 1.141821
v 0.000000 0.000000 1.233457
v 0.000000 0.000000 1.325094
v 0.000000 0.000000 1.416730
v 0.000000 0.000000 1.508366
v 0.000000 0.000000 1.600003
v -0.162121 0.000000 0.782183
v -0.213554 0.000000 0.858483
v -0.213554 0.000000 0.966977
v -0.162121 0.000000 1.043277
v -0.183273 0.000000 1.141821
v -0.162121 0.000000 1.240365
v -0.213554 0.000000 1.316665
v -0.213554 0.000000 1.425159
v -0.162121 0.000000 1.501459
v -0.183273 0.000000 1.600003
v -0.372161 0.000000 0.874485
v -0.372161 0.000000 0.950975
v -0.366545 0.000000 1.141821
v -0.372161 0.000000 1.332667
v -0.372161 0.000000 1.409157
v -0.366545 0.000000 1.600003
v -0.549818 0.000000 0.775275
v -0.549818 0.000000 0.866912
v -0.549818 0.000000 0.958548
v -0.549818 0.000000 1.050184
v -0.549818 0.000000 1.141821
v -0.549818 0.000000 1.233457
v -0.549818 0.000000 1.325094
v -0.549818 0.000000 1.416730
v -0.549818 0.000000 1.508366
v -0.549818 0.000000 1.600003
v -0.727476 0.000000 0.874485
v -0.746728 0.000000 0.948410
v -0.733091 0.000000 1.141821
v -0.746728 0.000000 1.335232
v -0.746728 0.000000 1.406592
v -0.733091 0.000000 1.600003
v -0.937516 0.000000 0.782183
v -0.886082 0.000000 0.858483
v -0.900176 0.000000 0.973985
v -0.932357 0.000000 1.052850
v -0.916364 0.000000 1.141821
v -0.932357 0.000000 1.230792
v -0.900176 0.000000 1.309657
v -0.900176 0.000000 1.432167
v -0.932357 0.000000 1.511032
v -0.916364 0.000000 1.600003
v 0.733091 0.000000 0.683639
v 0.549818 0.000000 0.683639
v 0.366545 0.000000 0.683639
v 0.183273 0.000000 0.683639
v -0.000000 0.000000 0.683639
v -0.183273 0.000000 0.683639
v -0.366546 0.000000 0.683639
v -0.549818 0.000000 0.683639
v -0.733091 0.000000 0.683639
v -0.916364 0.000000 0.683639
v 0.916364 0.000000 0.683639
v -0.824727 0.033337 1.508366
v -0.824727 0.033337 1.462548
v -0.830343 0.033337 1.332667
v -0.824727 0.033337 1.279275
v -0.824727 0.033337 1.233457
v -0.811090 0.033337 1.177501
v -0.824727 0.033337 1.050184
v -0.824727 0.033337 1.004366
v -0.811091 0.033337 0.877050
v -0.824727 0.033337 0.821094
v -0.824727 0.033337 0.775275
v -0.830343 0.033337 0.721884
v -0.620302 0.033337 1.501459
v -0.625461 0.033337 1.459882
v -0.671736 0.033337 1.316665
v -0.625461 0.033337 1.281941
v -0.620302 0.033337 1.240365
v -0.657642 0.033337 1.203076
v -0.620302 0.033337 1.043277
v -0.625461 0.033337 1.001701
v -0.657642 0.033337 0.851475
v -0.620302 0.033337 0.814186
v -0.625461 0.033337 0.772610
v -0.671736 0.033337 0.737886
v -0.474175 0.033337 1.511032
v -0.479334 0.033337 1.469455
v -0.441994 0.033337 1.309657
v -0.479334 0.033337 1.272368
v -0.474175 0.033337 1.230792
v -0.427900 0.033337 1.196068
v -0.474175 0.033337 1.052850
v -0.479334 0.033337 1.011274
v -0.441994 0.033337 0.851475
v -0.479334 0.033337 0.814186
v -0.474175 0.033337 0.772610
v -0.427901 0.033337 0.737886
v -0.274909 0.033337 1.508366
v -0.274909 0.033337 1.462548
v -0.288546 0.033337 1.335232
v -0.274909 0.033337 1.279275
v -0.274909 0.033337 1.233457
v -0.269294 0.033337 1.180066
v -0.274909 0.033337 1.050184
v -0.274909 0.033337 1.004366
v -0.288546 0.033337 0.877050
v -0.274909 0.033337 0.821094
v -0.274909 0.033337 0.775275
v -0.269294 0.033337 0.721884
v 0.274909 0.033337 1.508366
v 0.274909 0.033337 1.462548
v 0.288546 0.033337 1.335232
v 0.274909 0.033337 1.279275
v 0.274909 0.033337 1.233457
v 0.269294 0.033337 1.180066
v 0.274909 0.033337 1.050184
v 0.274909 0.033337 1.004366
v 0.288546 0.033337 0.877050
v 0.274909 0.033337 0.821094
v 0.274909 0.033337 0.775275
v 0.269294 0.033337 0.721884
v 0.474175 0.033337 1.511032
v 0.479334 0.033337 1.469455
v 0.441994 0.033337 1.309657
v 0.479334 0.033337 1.272368
v 0.474175 0.033337 1.230792
v 0.427901 0.033337 1.196068
v 0.474175 0.033337 1.052850
v 0.479334 0.033337 1.011274
v 0.441994 0.033337 0.851475
v 0.479334 0.033337 0.814186
v 0.474175 0.033337 0.772610
v 0.427900 0.033337 0.737886
v 0.625461 0.033337 1.511032
v 0.620302 0.033337 1.469455
v 0.671736 0.033337 1.316665
v 0.625461 0.033337 1.281941
v 0.620302 0.033337 1.240365
v 0.657642 0.033337 1.203076
v 0.625461 0.033337 1.052850
v 0.620302 0.033337 1.011274
v 0.657642 0.033337 0.851475
v 0.620302 0.033337 0.814186
v 0.625461 0.033337 0.772610
v 0.671736 0.033337 0.737886
v 0.824727 0.033337 1.508366
v 0.824727 0.033337 1.462548
v 0.830343 0.033337 1.332667
v 0.824727 0.033337 1.279275
v 0.824727 0.033337 1.233457
v 0.811090 0.033337 1.177501
v 0.824727 0.033337 1.050184
v 0.824727 0.033337 1.004366
v 0.811090 0.033337 0.877050
v 0.824727 0.033337 0.821094
v 0.824727 0.033337 0.775275
v 0.830343 0.033337 0.721884
v -0.727476 0.033337 1.561757
v -0.811090 0.033337 1.564322
v -0.733091 0.033337 1.462548
v -0.733091 0.033337 1.279275
v -0.727476 0.033337 1.180066
v -0.727476 0.033337 1.103576
v -0.811090 0.033337 1.106141
v -0.733091 0.033337 1.004366
v -0.733091 0.033337 0.821094
v -0.746728 0.033337 0.719319
v -0.352909 0.033337 1.564322
v -0.427900 0.033337 1.545756
v -0.366545 0.033337 1.462548
v -0.366545 0.033337 1.279275
v -0.352909 0.033337 1.177501
v -0.352909 0.033337 1.106141
v -0.427900 0.033337 1.087574
v -0.366545 0.033337 1.004366
v -0.366545 0.033337 0.821094
v -0.352909 0.033337 0.719319
v -0.199461 0.033337 1.538748
v -0.269294 0.033337 1.561757
v -0.167279 0.033337 1.459882
v -0.167279 0.033337 1.281941
v -0.199461 0.033337 1.203076
v -0.199461 0.033337 1.080566
v -0.269294 0.033337 1.103576
v -0.167279 0.033337 1.001701
v -0.167279 0.033337 0.823759
v -0.199461 0.033337 0.744894
v 0.352909 0.033337 1.564322
v 0.269294 0.033337 1.561757
v 0.366546 0.033337 1.462548
v 0.366546 0.033337 1.279275
v 0.352909 0.033337 1.177501
v 0.352909 0.033337 1.106141
v 0.269294 0.033337 1.103576
v 0.366546 0.033337 1.004366
v 0.366545 0.033337 0.821094
v 0.352909 0.033337 0.719319
v 0.746728 0.033337 1.564322
v 0.671736 0.033337 1.545756
v 0.733091 0.033337 1.462548
v 0.733091 0.033337 1.279275
v 0.727476 0.033337 1.180066
v 0.746728 0.033337 1.106141
v 0.671736 0.033337 1.087574
v 0.733091 0.033337 1.004366
v 0.733091 0.033337 0.821094
v 0.746728 0.033337 0.719319
v 0.900176 0.033337 1.538748
v 0.830343 0.033337 1.561757
v 0.932357 0.033337 1.459882
v 0.937516 0.033337 1.272368
v 0.886082 0.033337 1.196068
v 0.900176 0.033337 1.080566
v 0.830343 0.033337 1.103576
v 0.932357 0.033337 1.001701
v 0.932357 0.033337 0.823759
v 0.900176 0.033337 0.744894
v -0.830343 0.033337 1.409157
v -0.830343 0.033337 0.950975
v -0.657642 0.033337 1.538748
v -0.671736 0.033337 1.425159
v -0.657642 0.033337 1.080566
v -0.671736 0.033337 0.966977
v -0.441994 0.033337 1.432167
v -0.441994 0.033337 0.973985
v -0.288546 0.033337 1.406592
v -0.288546 0.033337 0.948410
v 0.288546 0.033337 1.406592
v 0.288546 0.033337 0.948410
v 0.427900 0.033337 1.545756
v 0.441994 0.033337 1.432167
v 0.427900 0.033337 1.087574
v 0.441994 0.033337 0.973985
v 0.657642 0.033337 1.432167
v 0.657642 0.033337 0.973985
v 0.811090 0.033337 1.406592
v 0.811090 0.033337 0.948410
v -0.886082 0.033337 1.545756
v -0.937516 0.033337 1.469455
v -0.937516 0.033337 1.272368
v -0.886082 0.033337 1.196068
v -0.886082 0.033337 1.087574
v -0.937516 0.033337 1.011274
v -0.932357 0.033337 0.823759
v -0.900176 0.033337 0.744894
v 0.199461 0.033337 1.538748
v 0.167279 0.033337 1.459882
v 0.167279 0.033337 1.281941
v 0.199461 0.033337 1.203076
v 0.199461 0.033337 1.080566
v 0.167279 0.033337 1.001701
v 0.167279 0.033337 0.823759
v 0.199461 0.033337 0.744894
v 0.937516 0.033337 0.782183
v 0.886082 0.033337 0.858483
v 0.886082 0.033337 0.966977
v 0.937516 0.033337 1.043277
v 0.932357 0.033337 1.230792
v 0.900176 0.033337 1.309657
v 0.886082 0.033337 1.425159
v 0.937516 0.033337 1.501459
v 0.733091 0.033337 0.775275
v 0.727476 0.033337 0.874485
v 0.727476 0.033337 0.950975
v 0.733091 0.033337 1.050184
v 0.733091 0.033337 1.233457
v 0.746728 0.033337 1.335232
v 0.727476 0.033337 1.409157
v 0.733091 0.033337 1.508366
v 0.366545 0.033337 0.775275
v 0.372161 0.033337 0.874485
v 0.372161 0.033337 0.950975
v 0.366546 0.033337 1.050184
v 0.366546 0.033337 1.233457
v 0.372161 0.033337 1.332667
v 0.372161 0.033337 1.409157
v 0.366546 0.033337 1.508366
v 0.162121 0.033337 0.782183
v 0.213554 0.033337 0.858483
v 0.213554 0.033337 0.966977
v 0.162121 0.033337 1.043277
v 0.162121 0.033337 1.240365
v 0.213554 0.033337 1.316665
v 0.213554 0.033337 1.425159
v 0.162121 0.033337 1.501459
v -0.162121 0.033337 0.782183
v -0.213554 0.033337 0.858483
v -0.213554 0.033337 0.966977
v -0.162121 0.033337 1.043277
v -0.162121 0.033337 1.240365
v -0.213554 0.033337 1.316665
v -0.213554 0.033337 1.425159
v -0.162121 0.033337 1.501459
v -0.366545 0.033337 0.775275
v -0.372161 0.033337 0.874485
v -0.372161 0.033337 0.950975
v -0.366545 0.033337 1.050184
v -0.366545 0.033337 1.233457
v -0.372161 0.033337 1.332667
v -0.372161 0.033337 1.409157
v -0.366545 0.033337 1.508366
v -0.733091 0.033337 0.775275
v -0.727476 0.033337 0.874485
v -0.746728 0.033337 0.948410
v -0.733091 0.033337 1.050184
v -0.733091 0.033337 1.233457
v -0.746728 0.033337 1.335232
v -0.746728 0.033337 1.406592
v -0.733091 0.033337 1.508366
v -0.937516 0.033337 0.782183
v -0.886082 0.033337 0.858483
v -0.900176 0.033337 0.973985
v -0.932357 0.033337 1.052850
v -0.932357 0.033337 1.230792
v -0.900176 0.033337 1.309657
v -0.900176 0.033337 1.432167
v -0.932357 0.033337 1.511032
vn -0.0000 -1.0000 -0.0000
vn -0.0000 1.0000 -0.0000
vn 0.7066 -0.0000 -0.7076
vn -0.0307 -0.0000 -0.9995
vn -0.2403 -0.0000 -0.9707
vn 0.7066 -0.0000 0.7076
vn -0.3129 -0.0000 -0.9498
vn -0.2403 -0.0000 0.9707
vn -0.9924 -0.0000 -0.1231
vn 0.9924 -0.0000 -0.1231
vn 0.0307 -0.0000 -0.9995
vn 0.0307 -0.0000 0.9995
vn 0.2403 -0.0000 -0.9707
vn 0.3129 -0.0000 0.9498
vn -0.7066 -0.0000 -0.7076
vn -0.0307 -0.0000 0.9995
vn 0.3129 -0.0000 -0.9498
vn -0.6002 -0.0000 0.7999
vn 0.6002 -0.0000 -0.7999
vn -0.3129 -0.0000 0.9498
vn -0.9924 -0.0000 0.1231
vn 0.2403 -0.0000 0.9707
vn -0.6002 -0.0000 -0.7999
vn -0.7066 -0.0000 0.7076
vn 0.6002 -0.0000 0.7999
vn 0.9924 -0.0000 0.1231
vt 0.011329 0.011664
vt 0.011329 0.544686
vt 0.541406 0.544686
vt 0.541406 0.011664
vt 0.517312 0.520458
vt 0.541406 0.520458
vt 0.541406 0.544686
vt 0.517312 0.544686
vt 0.035423 0.544686
vt 0.059517 0.544686
vt 0.083612 0.544686
vt 0.107706 0.544686
vt 0.131801 0.544686
vt 0.155895 0.544686
vt 0.179990 0.544686
vt 0.204084 0.544686
vt 0.228178 0.544686
vt 0.252273 0.544686
vt 0.276367 0.544686
vt 0.300462 0.544686
vt 0.324556 0.544686
vt 0.348650 0.544686
vt 0.372745 0.544686
vt 0.396839 0.544686
vt 0.420934 0.544686
vt 0.445028 0.544686
vt 0.469123 0.544686
vt 0.493217 0.544686
vt 0.541406 0.011664
vt 0.517312 0.011664
vt 0.493217 0.011664
vt 0.469123 0.011664
vt 0.445028 0.011664
vt 0.420934 0.011664
vt 0.396839 0.011664
vt 0.372745 0.011664
vt 0.348651 0.011664
vt 0.324556 0.011664
vt 0.300462 0.011664
vt 0.276367 0.011664
vt 0.252273 0.011664
vt 0.228178 0.011664
vt 0.204084 0.011664
vt 0.179990 0.011664
vt 0.155895 0.011664
vt 0.131801 0.011664
vt 0.107706 0.011664
vt 0.083612 0.011664
vt 0.059517 0.011664
vt 0.035423 0.011664
vt 0.541406 0.496230
vt 0.541406 0.472002
vt 0.541406 0.447773
vt 0.541406 0.423545
vt 0.541406 0.399317
vt 0.541406 0.375088
vt 0.541406 0.350860
vt 0.541406 0.326632
vt 0.541406 0.302404
vt 0.541406 0.278175
vt 0.541406 0.253947
vt 0.541406 0.229719
vt 0.541406 0.205491
vt 0.541406 0.181262
vt 0.541406 0.157034
vt 0.541406 0.132806
vt 0.541406 0.108577
vt 0.541406 0.084349
vt 0.541406 0.060121
vt 0.541406 0.035893
vt 0.011329 0.035893
vt 0.011329 0.060121
vt 0.011329 0.084349
vt 0.011329 0.108577
vt 0.011329 0.132806
vt 0.011329 0.157034
vt 0.011329 0.181262
vt 0.011329 0.205491
vt 0.011329 0.229719
vt 0.011329 0.253947
vt 0.011329 0.278175
vt 0.011329 0.302404
vt 0.011329 0.326632
vt 0.011329 0.350860
vt 0.011329 0.375089
vt 0.011329 0.399317
vt 0.011329 0.423545
vt 0.011329 0.447773
vt 0.011329 0.472002
vt 0.011329 0.496230
vt 0.011329 0.520458
vt 0.035423 0.520458
vt 0.059517 0.520458
vt 0.083612 0.520458
vt 0.107706 0.520458
vt 0.131801 0.520458
vt 0.155895 0.520458
vt 0.179990 0.520458
vt 0.204084 0.520458
vt 0.228178 0.520458
vt 0.252273 0.520458
vt 0.276367 0.520458
vt 0.300462 0.520458
vt 0.324556 0.520458
vt 0.348651 0.520458
vt 0.372745 0.520458
vt 0.396839 0.520458
vt 0.420934 0.520458
vt 0.445028 0.520458
vt 0.469123 0.520458
vt 0.493217 0.520458
vt 0.035423 0.035893
vt 0.059517 0.035893
vt 0.063103 0.054760
vt 0.043385 0.064578
vt 0.251089 0.766394
vt 0.271771 0.766394
vt 0.271771 0.784884
vt 0.251089 0.784884
vt 0.039679 0.124643
vt 0.058041 0.136810
vt 0.059517 0.157034
vt 0.035423 0.157034
vt 0.351173 0.766394
vt 0.328112 0.766394
vt 0.328112 0.784884
vt 0.351173 0.784884
vt 0.429618 0.766394
vt 0.408936 0.766394
vt 0.408936 0.784884
vt 0.429618 0.784884
vt 0.035423 0.278175
vt 0.059517 0.278175
vt 0.063103 0.297043
vt 0.043385 0.306861
vt 0.928395 0.009855
vt 0.949077 0.009855
vt 0.949077 0.028345
vt 0.928395 0.028345
vt 0.039679 0.366926
vt 0.058041 0.379093
vt 0.059517 0.399317
vt 0.035423 0.399317
vt 0.308853 0.766394
vt 0.308853 0.784884
vt 0.581213 0.808573
vt 0.601895 0.808573
vt 0.601895 0.827063
vt 0.581213 0.827063
vt 0.083612 0.035893
vt 0.107706 0.035893
vt 0.103450 0.068284
vt 0.085088 0.056116
vt 0.748504 0.808573
vt 0.725444 0.808573
vt 0.725444 0.827062
vt 0.748504 0.827062
vt 0.080026 0.138167
vt 0.099744 0.128349
vt 0.107706 0.157034
vt 0.083612 0.157034
vt 0.972137 0.009855
vt 0.972137 0.028345
vt 0.052346 0.823813
vt 0.029286 0.823813
vt 0.029286 0.842303
vt 0.052346 0.842303
vt 0.083612 0.278175
vt 0.107706 0.278175
vt 0.103450 0.310566
vt 0.085088 0.298399
vt 0.949077 0.495343
vt 0.972137 0.495343
vt 0.972137 0.513833
vt 0.949077 0.513833
vt 0.080026 0.380449
vt 0.099744 0.370631
vt 0.107706 0.399317
vt 0.083612 0.399317
vt 0.991396 0.067275
vt 0.970715 0.067275
vt 0.970715 0.085765
vt 0.991396 0.085765
vt 0.152429 0.823813
vt 0.171688 0.823813
vt 0.171688 0.842303
vt 0.152429 0.842303
vt 0.131801 0.035893
vt 0.155895 0.035893
vt 0.163857 0.064578
vt 0.131801 0.060121
vt 0.131801 0.084349
vt 0.151690 0.082940
vt 0.150333 0.104925
vt 0.131801 0.108577
vt 0.131801 0.132806
vt 0.160152 0.124643
vt 0.155895 0.157034
vt 0.131801 0.157034
vt 0.131801 0.181262
vt 0.160152 0.189425
vt 0.150333 0.209143
vt 0.131801 0.205491
vt 0.131801 0.229719
vt 0.151690 0.231128
vt 0.163857 0.249490
vt 0.131801 0.253947
vt 0.131801 0.278175
vt 0.155895 0.278175
vt 0.163857 0.306861
vt 0.131801 0.302404
vt 0.131801 0.326632
vt 0.151690 0.325222
vt 0.150333 0.347208
vt 0.131801 0.350860
vt 0.131801 0.375088
vt 0.160152 0.366926
vt 0.155895 0.399317
vt 0.131801 0.399317
vt 0.131801 0.423545
vt 0.160152 0.431708
vt 0.150333 0.451426
vt 0.131801 0.447773
vt 0.131801 0.472002
vt 0.151690 0.473411
vt 0.163857 0.491773
vt 0.131801 0.496230
vt 0.179990 0.035893
vt 0.204084 0.035893
vt 0.205560 0.056116
vt 0.183575 0.054760
vt 0.271771 0.823813
vt 0.251089 0.823813
vt 0.251089 0.842303
vt 0.271771 0.842303
vt 0.178513 0.136810
vt 0.200498 0.138167
vt 0.204084 0.157034
vt 0.179990 0.157034
vt 0.947654 0.067275
vt 0.947654 0.085765
vt 0.371855 0.823813
vt 0.351173 0.823813
vt 0.351173 0.842303
vt 0.371855 0.842303
vt 0.179990 0.278175
vt 0.204084 0.278175
vt 0.205560 0.298399
vt 0.183575 0.297043
vt 0.428196 0.823813
vt 0.451256 0.823813
vt 0.451256 0.842303
vt 0.428196 0.842303
vt 0.178513 0.379093
vt 0.200498 0.380449
vt 0.204084 0.399317
vt 0.179990 0.399317
vt 0.867847 0.751153
vt 0.848588 0.751153
vt 0.848588 0.769643
vt 0.867847 0.769643
vt 0.127946 0.708974
vt 0.108687 0.708974
vt 0.108687 0.727464
vt 0.127946 0.727464
vt 0.228178 0.035893
vt 0.252273 0.035893
vt 0.252273 0.060121
vt 0.223922 0.068284
vt 0.233740 0.088002
vt 0.252273 0.084349
vt 0.252273 0.108577
vt 0.232384 0.109987
vt 0.220216 0.128349
vt 0.252273 0.132806
vt 0.252273 0.157034
vt 0.228178 0.157034
vt 0.220216 0.185719
vt 0.252273 0.181262
vt 0.252273 0.205491
vt 0.232384 0.204081
vt 0.233740 0.226066
vt 0.252273 0.229719
vt 0.252273 0.253947
vt 0.223922 0.245784
vt 0.228178 0.278175
vt 0.252273 0.278175
vt 0.252273 0.302404
vt 0.223922 0.310566
vt 0.233740 0.330284
vt 0.252273 0.326632
vt 0.252273 0.350860
vt 0.232384 0.352270
vt 0.220216 0.370631
vt 0.252273 0.375088
vt 0.252273 0.399317
vt 0.228178 0.399317
vt 0.220216 0.428002
vt 0.252273 0.423545
vt 0.252273 0.447773
vt 0.232384 0.446364
vt 0.233740 0.468349
vt 0.252273 0.472002
vt 0.252273 0.496230
vt 0.223922 0.488067
vt 0.276367 0.035893
vt 0.300462 0.035893
vt 0.300462 0.060121
vt 0.276367 0.060121
vt 0.276367 0.084349
vt 0.300462 0.084349
vt 0.300462 0.108577
vt 0.276367 0.108577
vt 0.276367 0.132806
vt 0.300462 0.132806
vt 0.300462 0.157034
vt 0.276367 0.157034
vt 0.276367 0.181262
vt 0.300462 0.181262
vt 0.300462 0.205491
vt 0.276367 0.205491
vt 0.276367 0.229719
vt 0.300462 0.229719
vt 0.300462 0.253947
vt 0.276367 0.253947
vt 0.276367 0.278175
vt 0.300462 0.278175
vt 0.300462 0.302404
vt 0.276367 0.302404
vt 0.276367 0.326632
vt 0.300462 0.326632
vt 0.300462 0.350860
vt 0.276367 0.350860
vt 0.276367 0.375088
vt 0.300462 0.375088
vt 0.300462 0.399317
vt 0.276367 0.399317
vt 0.276367 0.423545
vt 0.300462 0.423545
vt 0.300462 0.447773
vt 0.276367 0.447773
vt 0.276367 0.472002
vt 0.300462 0.472002
vt 0.300462 0.496230
vt 0.276367 0.496230
vt 0.324556 0.035893
vt 0.348651 0.035893
vt 0.347174 0.056116
vt 0.328812 0.068284
vt 0.928395 0.561473
vt 0.949077 0.561473
vt 0.949077 0.579963
vt 0.928395 0.579963
vt 0.332518 0.128349
vt 0.352236 0.138167
vt 0.348651 0.157034
vt 0.324556 0.157034
vt 0.228029 0.823813
vt 0.208770 0.823813
vt 0.208770 0.842303
vt 0.228029 0.842303
vt 0.991396 0.009855
vt 0.991396 0.028345
vt 0.324556 0.278175
vt 0.348651 0.278175
vt 0.347174 0.298399
vt 0.328812 0.310566
vt 0.408936 0.823813
vt 0.408936 0.842303
vt 0.332518 0.370631
vt 0.352236 0.380449
vt 0.348651 0.399317
vt 0.324556 0.399317
vt 0.824105 0.808572
vt 0.804845 0.808572
vt 0.804845 0.827062
vt 0.824105 0.827062
vt 0.644214 0.865992
vt 0.624955 0.865992
vt 0.624955 0.884482
vt 0.644214 0.884482
vt 0.372745 0.035893
vt 0.396839 0.035893
vt 0.388877 0.064578
vt 0.369159 0.054760
vt 0.129369 0.823813
vt 0.129369 0.842303
vt 0.374221 0.136810
vt 0.392583 0.124643
vt 0.396839 0.157034
vt 0.372745 0.157034
vt 0.251089 0.708974
vt 0.228029 0.708974
vt 0.228029 0.727464
vt 0.251089 0.727464
vt 0.601895 0.865992
vt 0.601895 0.884482
vt 0.372745 0.278175
vt 0.396839 0.278175
vt 0.388877 0.306861
vt 0.369159 0.297043
vt 0.747082 0.865992
vt 0.767764 0.865992
vt 0.767764 0.884482
vt 0.747082 0.884482
vt 0.374221 0.379093
vt 0.392583 0.366926
vt 0.396839 0.399317
vt 0.372745 0.399317
vt 0.825527 0.751153
vt 0.825527 0.769643
vt 0.151006 0.708974
vt 0.151006 0.727464
vt 0.420934 0.035893
vt 0.445028 0.035893
vt 0.452990 0.064578
vt 0.420934 0.060121
vt 0.420934 0.084349
vt 0.440823 0.082940
vt 0.439467 0.104925
vt 0.420934 0.108577
vt 0.420934 0.132806
vt 0.449285 0.124643
vt 0.445028 0.157034
vt 0.420934 0.157034
vt 0.420934 0.181262
vt 0.452990 0.185719
vt 0.440823 0.204081
vt 0.420934 0.205491
vt 0.420934 0.229719
vt 0.439467 0.226066
vt 0.449285 0.245784
vt 0.420934 0.253947
vt 0.420934 0.278175
vt 0.445028 0.278175
vt 0.452990 0.306861
vt 0.420934 0.302404
vt 0.420934 0.326632
vt 0.440823 0.325222
vt 0.439467 0.347208
vt 0.420934 0.350860
vt 0.420934 0.375088
vt 0.449285 0.366926
vt 0.445028 0.399317
vt 0.420934 0.399317
vt 0.420934 0.423545
vt 0.449285 0.431708
vt 0.439467 0.451426
vt 0.420934 0.447773
vt 0.420934 0.472002
vt 0.440823 0.473411
vt 0.452990 0.491773
vt 0.420934 0.496230
vt 0.469123 0.035893
vt 0.493217 0.035893
vt 0.494694 0.056116
vt 0.472708 0.054760
vt 0.724021 0.865992
vt 0.724021 0.884482
vt 0.467646 0.136810
vt 0.489631 0.138167
vt 0.493217 0.157034
vt 0.469123 0.157034
vt 0.972137 0.618893
vt 0.991396 0.618893
vt 0.991396 0.637383
vt 0.972137 0.637383
vt 0.848588 0.865992
vt 0.867847 0.865992
vt 0.867847 0.884482
vt 0.848588 0.884482
vt 0.469123 0.278175
vt 0.493217 0.278175
vt 0.494694 0.298399
vt 0.472708 0.297043
vt 0.171688 0.708974
vt 0.171688 0.727464
vt 0.467646 0.379093
vt 0.489631 0.380449
vt 0.493217 0.399317
vt 0.469123 0.399317
vt 0.891313 0.009855
vt 0.870631 0.009855
vt 0.870631 0.028345
vt 0.891313 0.028345
vt 0.767764 0.808573
vt 0.767764 0.827062
vt 0.517312 0.035893
vt 0.513055 0.068284
vt 0.522873 0.088002
vt 0.521517 0.109987
vt 0.509349 0.128349
vt 0.517312 0.157034
vt 0.513055 0.189425
vt 0.522873 0.209143
vt 0.521517 0.231128
vt 0.509349 0.249490
vt 0.517312 0.278175
vt 0.513055 0.310566
vt 0.522873 0.330284
vt 0.521517 0.352270
vt 0.509349 0.370631
vt 0.517312 0.399317
vt 0.509349 0.428002
vt 0.521517 0.446364
vt 0.522873 0.468349
vt 0.513055 0.488067
vt 0.008604 0.823813
vt 0.008604 0.842303
vt 0.928395 0.495343
vt 0.928395 0.513833
vt 0.847571 0.009855
vt 0.828312 0.009855
vt 0.828312 0.028345
vt 0.847571 0.028345
vt 0.489631 0.418184
vt 0.704762 0.808573
vt 0.704762 0.827062
vt 0.052346 0.708974
vt 0.071605 0.708974
vt 0.071605 0.727464
vt 0.052346 0.727464
vt 0.308853 0.708974
vt 0.329535 0.708974
vt 0.329535 0.727464
vt 0.308853 0.727464
vt 0.489631 0.259308
vt 0.029286 0.708974
vt 0.029286 0.727464
vt 0.825527 0.865992
vt 0.825527 0.884482
vt 0.494694 0.177258
vt 0.847571 0.067275
vt 0.828312 0.067275
vt 0.828312 0.085765
vt 0.847571 0.085765
vt 0.848994 0.133405
vt 0.872054 0.133405
vt 0.872054 0.151895
vt 0.848994 0.151895
vt 0.352595 0.708974
vt 0.352595 0.727464
vt 0.108687 0.823813
vt 0.108687 0.842303
vt 0.870631 0.067275
vt 0.870631 0.085765
vt 0.891313 0.190825
vt 0.870631 0.190825
vt 0.870631 0.209314
vt 0.891313 0.209314
vt 0.271771 0.708974
vt 0.271771 0.727464
vt 0.467646 0.419541
vt 0.371855 0.708974
vt 0.371855 0.727464
vt 0.804845 0.751153
vt 0.804845 0.769643
vt 0.928395 0.067275
vt 0.928395 0.085765
vt 0.328112 0.823813
vt 0.328112 0.842303
vt 0.870631 0.256955
vt 0.891313 0.256955
vt 0.891313 0.275445
vt 0.870631 0.275445
vt 0.467646 0.257952
vt 0.208770 0.708974
vt 0.208770 0.727464
vt 0.848994 0.314374
vt 0.828312 0.314374
vt 0.828312 0.332864
vt 0.848994 0.332864
vt 0.308853 0.823813
vt 0.308853 0.842303
vt 0.828312 0.256955
vt 0.847571 0.256955
vt 0.847571 0.275445
vt 0.828312 0.275445
vt 0.472708 0.175901
vt 0.872054 0.314374
vt 0.872054 0.332864
vt 0.891313 0.067275
vt 0.891313 0.085765
vt 0.872054 0.380504
vt 0.848994 0.380504
vt 0.848994 0.398994
vt 0.872054 0.398994
vt 0.581213 0.865992
vt 0.581213 0.884482
vt 0.401045 0.473411
vt 0.388877 0.491773
vt 0.402401 0.451426
vt 0.392583 0.431708
vt 0.402401 0.347208
vt 0.401045 0.325222
vt 0.388877 0.249490
vt 0.401045 0.231128
vt 0.402401 0.209143
vt 0.392583 0.189425
vt 0.402401 0.104925
vt 0.401045 0.082940
vt 0.870631 0.437924
vt 0.891313 0.437924
vt 0.891313 0.456414
vt 0.870631 0.456414
vt 0.429618 0.708974
vt 0.452679 0.708974
vt 0.452679 0.727464
vt 0.429618 0.727464
vt 0.928395 0.124694
vt 0.949077 0.124694
vt 0.949077 0.143184
vt 0.928395 0.143184
vt 0.804845 0.865992
vt 0.804845 0.884482
vt 0.374221 0.419541
vt 0.352236 0.418184
vt 0.704762 0.865992
vt 0.704762 0.884482
vt 0.891313 0.504054
vt 0.870631 0.504054
vt 0.870631 0.522544
vt 0.891313 0.522544
vt 0.949077 0.618893
vt 0.949077 0.637383
vt 0.891313 0.561473
vt 0.870631 0.561473
vt 0.870631 0.579963
vt 0.891313 0.579963
vt 0.972137 0.124694
vt 0.972137 0.143184
vt 0.347174 0.257952
vt 0.369159 0.259308
vt 0.891313 0.314374
vt 0.891313 0.332864
vt 0.847571 0.504054
vt 0.828312 0.504054
vt 0.828312 0.522544
vt 0.847571 0.522544
vt 0.928395 0.618893
vt 0.928395 0.637383
vt 0.870631 0.627604
vt 0.891313 0.627604
vt 0.891313 0.646093
vt 0.870631 0.646093
vt 0.374221 0.177258
vt 0.352236 0.175901
vt 0.891313 0.133405
vt 0.891313 0.151895
vt 0.847571 0.190825
vt 0.847571 0.209314
vt 0.828312 0.627604
vt 0.847571 0.627604
vt 0.847571 0.646093
vt 0.828312 0.646093
vt 0.828312 0.133405
vt 0.828312 0.151895
vt 0.828312 0.685023
vt 0.848994 0.685023
vt 0.848994 0.703513
vt 0.828312 0.703513
vt 0.318994 0.468349
vt 0.328812 0.488067
vt 0.320351 0.446364
vt 0.071605 0.881233
vt 0.050923 0.881233
vt 0.050923 0.899723
vt 0.071605 0.899723
vt 0.332518 0.428002
vt 0.320351 0.352270
vt 0.008604 0.708974
vt 0.008604 0.727464
vt 0.318994 0.330284
vt 0.601895 0.751153
vt 0.581213 0.751153
vt 0.581213 0.769643
vt 0.601895 0.769643
vt 0.328812 0.245784
vt 0.318994 0.226066
vt 0.320351 0.204081
vt 0.748504 0.751153
vt 0.725444 0.751153
vt 0.725444 0.769643
vt 0.748504 0.769643
vt 0.332518 0.185719
vt 0.320351 0.109987
vt 0.872054 0.685023
vt 0.872054 0.703513
vt 0.318994 0.088002
vt 0.991396 0.124694
vt 0.991396 0.143184
vt 0.171688 0.881233
vt 0.151006 0.881233
vt 0.151006 0.899723
vt 0.171688 0.899723
vt 0.251089 0.881233
vt 0.271771 0.881233
vt 0.271771 0.899723
vt 0.251089 0.899723
vt 0.200498 0.418184
vt 0.991396 0.182114
vt 0.970714 0.182114
vt 0.970714 0.200604
vt 0.991396 0.200604
vt 0.371855 0.881233
vt 0.351173 0.881233
vt 0.351173 0.899722
vt 0.371855 0.899723
vt 0.891313 0.380504
vt 0.891313 0.398994
vt 0.205560 0.257952
vt 0.828312 0.190825
vt 0.828312 0.209314
vt 0.947654 0.182114
vt 0.947654 0.200604
vt 0.471938 0.881233
vt 0.451256 0.881233
vt 0.451256 0.899722
vt 0.471938 0.899723
vt 0.200498 0.175901
vt 0.600472 0.923411
vt 0.581213 0.923411
vt 0.581213 0.941901
vt 0.600472 0.941901
vt 0.624955 0.751153
vt 0.624955 0.769643
vt 0.328112 0.881233
vt 0.308853 0.881233
vt 0.308853 0.899723
vt 0.328112 0.899722
vt 0.828312 0.380504
vt 0.828312 0.398994
vt 0.847571 0.437924
vt 0.847571 0.456414
vt 0.471938 0.708974
vt 0.471938 0.727464
vt 0.891313 0.685023
vt 0.891313 0.703513
vt 0.178513 0.419541
vt 0.747082 0.923411
vt 0.767764 0.923411
vt 0.767764 0.941901
vt 0.747082 0.941901
vt 0.644214 0.751153
vt 0.644214 0.769643
vt 0.847571 0.561473
vt 0.847571 0.579963
vt 0.408936 0.708974
vt 0.408936 0.727464
vt 0.972137 0.239533
vt 0.991396 0.239533
vt 0.991396 0.258023
vt 0.972137 0.258023
vt 0.183575 0.259308
vt 0.848587 0.923411
vt 0.867847 0.923411
vt 0.867847 0.941901
vt 0.848587 0.941901
vt 0.008604 0.766394
vt 0.027863 0.766394
vt 0.027863 0.784884
vt 0.008604 0.784884
vt 0.071605 0.938652
vt 0.052346 0.938652
vt 0.052346 0.957142
vt 0.071605 0.957142
vt 0.178513 0.177258
vt 0.623532 0.923411
vt 0.623532 0.941901
vt 0.129369 0.938652
vt 0.152429 0.938652
vt 0.152429 0.957142
vt 0.129369 0.957142
vt 0.828312 0.437924
vt 0.828312 0.456414
vt 0.825527 0.923411
vt 0.825527 0.941901
vt 0.111912 0.473411
vt 0.099744 0.491773
vt 0.113268 0.451426
vt 0.103450 0.431708
vt 0.111912 0.352270
vt 0.113268 0.330284
vt 0.103450 0.245784
vt 0.113268 0.226066
vt 0.111912 0.204081
vt 0.099744 0.185719
vt 0.111912 0.109987
vt 0.113268 0.088002
vt 0.251089 0.938652
vt 0.271771 0.938652
vt 0.271771 0.957142
vt 0.251089 0.957142
vt 0.644214 0.923411
vt 0.644214 0.941901
vt 0.767764 0.751153
vt 0.767764 0.769643
vt 0.828312 0.561473
vt 0.828312 0.579963
vt 0.085088 0.419541
vt 0.063103 0.418184
vt 0.127946 0.881233
vt 0.127946 0.899723
vt 0.352595 0.938652
vt 0.371855 0.938652
vt 0.371855 0.957142
vt 0.352595 0.957142
vt 0.704762 0.751153
vt 0.704762 0.769643
vt 0.228029 0.881233
vt 0.228029 0.899723
vt 0.408936 0.938652
vt 0.428196 0.938652
vt 0.428196 0.957142
vt 0.408936 0.957142
vt 0.063103 0.259308
vt 0.085088 0.257952
vt 0.050923 0.766394
vt 0.050923 0.784884
vt 0.308853 0.938652
vt 0.329535 0.938652
vt 0.329535 0.957142
vt 0.308853 0.957142
vt 0.071605 0.766394
vt 0.071605 0.784884
vt 0.972137 0.314374
vt 0.991396 0.314374
vt 0.991396 0.332864
vt 0.972137 0.332864
vt 0.080026 0.175901
vt 0.058041 0.177258
vt 0.027863 0.881233
vt 0.027863 0.899723
vt 0.108687 0.881233
vt 0.108687 0.899723
vt 0.924188 0.751153
vt 0.904929 0.751153
vt 0.904929 0.769643
vt 0.924188 0.769643
vt 0.127946 0.766394
vt 0.151006 0.766394
vt 0.151006 0.784884
vt 0.127946 0.784884
vt 0.029861 0.468349
vt 0.039679 0.488067
vt 0.031218 0.446364
vt 0.008604 0.881233
vt 0.008604 0.899723
vt 0.043385 0.428002
vt 0.029861 0.347208
vt 0.208770 0.881233
vt 0.208770 0.899723
vt 0.031218 0.325222
vt 0.451256 0.938652
vt 0.451256 0.957142
vt 0.043385 0.249490
vt 0.031218 0.231128
vt 0.029861 0.209143
vt 0.949077 0.239533
vt 0.949077 0.258023
vt 0.039679 0.189425
vt 0.029861 0.104925
vt 0.947248 0.751153
vt 0.947248 0.769643
vt 0.031218 0.082940
vt 0.471938 0.938652
vt 0.471938 0.957142
vt 0.472708 0.501591
vt 0.494694 0.500234
vt 0.347174 0.500234
vt 0.369159 0.501591
vt 0.205560 0.500234
vt 0.183575 0.501591
vt 0.058041 0.500234
vt 0.080026 0.501591
vt 0.258590 0.614211
vt 0.286890 0.615621
vt 0.286890 0.639849
vt 0.257233 0.636196
vt 0.592561 0.271085
vt 0.610923 0.258918
vt 0.612399 0.287151
vt 0.582743 0.290803
vt 0.584100 0.312789
vt 0.612399 0.311379
vt 0.615985 0.340968
vt 0.596267 0.331150
vt 0.584100 0.409291
vt 0.612399 0.410700
vt 0.612399 0.434929
vt 0.582743 0.431276
vt 0.596267 0.020280
vt 0.615985 0.010462
vt 0.612399 0.040051
vt 0.584100 0.038642
vt 0.582743 0.060627
vt 0.612399 0.064280
vt 0.610923 0.092513
vt 0.592561 0.080345
vt 0.310984 0.615621
vt 0.340640 0.619273
vt 0.339284 0.641259
vt 0.310984 0.639849
vt 0.632908 0.257561
vt 0.652626 0.267379
vt 0.664793 0.285741
vt 0.636494 0.287151
vt 0.636494 0.311379
vt 0.666150 0.307726
vt 0.656332 0.327444
vt 0.637970 0.339612
vt 0.636494 0.410700
vt 0.666150 0.414353
vt 0.664793 0.436338
vt 0.636494 0.434929
vt 0.637970 0.011819
vt 0.656332 0.023986
vt 0.666150 0.043704
vt 0.636494 0.040051
vt 0.636494 0.064280
vt 0.664793 0.065689
vt 0.652626 0.084051
vt 0.632908 0.093869
vt 0.735949 0.287151
vt 0.760043 0.287151
vt 0.760043 0.311379
vt 0.735949 0.311379
vt 0.408963 0.587388
vt 0.430948 0.586031
vt 0.434534 0.615621
vt 0.410439 0.615621
vt 0.410439 0.639849
vt 0.434534 0.639849
vt 0.436010 0.668082
vt 0.414025 0.669438
vt 0.735949 0.657799
vt 0.760043 0.657799
vt 0.760043 0.682028
vt 0.735949 0.682028
vt 0.610923 0.629567
vt 0.632908 0.628210
vt 0.636494 0.657799
vt 0.612399 0.657799
vt 0.612399 0.682028
vt 0.636494 0.682028
vt 0.637970 0.710261
vt 0.615985 0.711617
vt 0.706293 0.043704
vt 0.735949 0.040051
vt 0.735949 0.064280
vt 0.707649 0.065689
vt 0.596267 0.514479
vt 0.615985 0.504661
vt 0.612399 0.534250
vt 0.584100 0.532840
vt 0.582743 0.554826
vt 0.612399 0.558478
vt 0.610923 0.586711
vt 0.592561 0.574544
vt 0.010134 0.619273
vt 0.039790 0.615621
vt 0.039790 0.639849
vt 0.011491 0.641259
vt 0.719816 0.390929
vt 0.739534 0.381111
vt 0.735949 0.410700
vt 0.707649 0.409291
vt 0.706293 0.431276
vt 0.735949 0.434929
vt 0.734472 0.463161
vt 0.716111 0.450994
vt 0.760043 0.040051
vt 0.788343 0.038642
vt 0.789700 0.060627
vt 0.760043 0.064280
vt 0.637970 0.506017
vt 0.656332 0.518184
vt 0.666150 0.537902
vt 0.636494 0.534250
vt 0.636494 0.558478
vt 0.664793 0.559888
vt 0.652626 0.578249
vt 0.632908 0.588067
vt 0.063885 0.615621
vt 0.092185 0.614211
vt 0.093541 0.636196
vt 0.063885 0.639849
vt 0.761520 0.382467
vt 0.779882 0.394635
vt 0.789700 0.414353
vt 0.760043 0.410700
vt 0.760043 0.434929
vt 0.788343 0.436338
vt 0.776176 0.454700
vt 0.756458 0.464518
vt 0.735949 0.163601
vt 0.760043 0.163601
vt 0.760043 0.187829
vt 0.735949 0.187829
vt 0.166926 0.586031
vt 0.188911 0.587388
vt 0.187434 0.615621
vt 0.163340 0.615621
vt 0.163340 0.639849
vt 0.187434 0.639849
vt 0.183849 0.669438
vt 0.161863 0.668082
vt 0.735949 0.534250
vt 0.760043 0.534250
vt 0.760043 0.558478
vt 0.735949 0.558478
vt 0.610923 0.135368
vt 0.632908 0.134012
vt 0.636494 0.163601
vt 0.612399 0.163601
vt 0.612399 0.187829
vt 0.636494 0.187829
vt 0.637970 0.216062
vt 0.615985 0.217419
vt 0.666150 0.184177
vt 0.656332 0.203895
vt 0.664793 0.162191
vt 0.652626 0.143830
vt 0.788343 0.559888
vt 0.776176 0.578249
vt 0.756458 0.588067
vt 0.789700 0.537902
vt 0.761520 0.506017
vt 0.779882 0.518184
vt 0.215734 0.641259
vt 0.203567 0.659620
vt 0.217091 0.619273
vt 0.207273 0.599555
vt 0.788343 0.189239
vt 0.776176 0.207601
vt 0.756458 0.217419
vt 0.789699 0.167254
vt 0.761520 0.135368
vt 0.779882 0.147535
vt 0.584100 0.189239
vt 0.596267 0.207601
vt 0.582743 0.167254
vt 0.592561 0.147535
vt 0.706293 0.554826
vt 0.734472 0.586711
vt 0.716111 0.574544
vt 0.707649 0.532840
vt 0.719817 0.514479
vt 0.739535 0.504661
vt 0.133684 0.636196
vt 0.143502 0.655915
vt 0.135040 0.614211
vt 0.147208 0.595850
vt 0.706293 0.184177
vt 0.734472 0.216062
vt 0.716111 0.203895
vt 0.707649 0.162191
vt 0.719817 0.143830
vt 0.739534 0.134012
vt 0.065361 0.668082
vt 0.043376 0.669438
vt 0.083723 0.655914
vt 0.038314 0.587388
vt 0.060299 0.586031
vt 0.080017 0.595849
vt 0.761520 0.092513
vt 0.739534 0.093869
vt 0.779882 0.080345
vt 0.734472 0.011819
vt 0.756458 0.010462
vt 0.776176 0.020280
vt 0.023658 0.659620
vt 0.019952 0.599555
vt 0.719817 0.084051
vt 0.716111 0.023986
vt 0.666150 0.678375
vt 0.656332 0.698093
vt 0.664794 0.656390
vt 0.652626 0.638028
vt 0.788343 0.683437
vt 0.776176 0.701799
vt 0.756458 0.711617
vt 0.789699 0.661452
vt 0.761520 0.629567
vt 0.779881 0.641734
vt 0.464190 0.636196
vt 0.454372 0.655914
vt 0.462833 0.614211
vt 0.450666 0.595849
vt 0.788343 0.312789
vt 0.776176 0.331150
vt 0.756458 0.340968
vt 0.789699 0.290803
vt 0.761520 0.258918
vt 0.779882 0.271085
vt 0.584100 0.683437
vt 0.596267 0.701799
vt 0.582743 0.661452
vt 0.592561 0.641734
vt 0.706293 0.678375
vt 0.734472 0.710261
vt 0.716111 0.698093
vt 0.707649 0.656390
vt 0.719816 0.638028
vt 0.739534 0.628210
vt 0.382139 0.641259
vt 0.394307 0.659620
vt 0.380783 0.619273
vt 0.390601 0.599555
vt 0.706293 0.307726
vt 0.734472 0.339612
vt 0.716111 0.327444
vt 0.707649 0.285741
vt 0.719816 0.267379
vt 0.739534 0.257561
vt 0.632908 0.464518
vt 0.610923 0.463161
vt 0.652626 0.454700
vt 0.615985 0.381111
vt 0.637970 0.382467
vt 0.656332 0.394635
vt 0.307398 0.669438
vt 0.285413 0.668082
vt 0.327116 0.659620
vt 0.290475 0.586031
vt 0.312460 0.587388
vt 0.330822 0.599555
vt 0.592561 0.450994
vt 0.596267 0.390929
vt 0.267051 0.655914
vt 0.270757 0.595849
vt 0.991396 0.495343
vt 0.991396 0.513833
vt 0.991396 0.380504
vt 0.972137 0.380504
vt 0.972137 0.398994
vt 0.991396 0.398994
vt 0.071605 0.823813
vt 0.071605 0.842303
vt 0.228029 0.766394
vt 0.228029 0.784884
vt 0.847165 0.808572
vt 0.847165 0.827062
vt 0.972137 0.561473
vt 0.972137 0.579963
vt 0.925611 0.808573
vt 0.904929 0.808573
vt 0.904929 0.827062
vt 0.925611 0.827062
vt 0.949077 0.380504
vt 0.949077 0.398994
vt 0.208770 0.766394
vt 0.208770 0.784884
vt 0.867847 0.808572
vt 0.867847 0.827062
vt 0.928395 0.380504
vt 0.928395 0.398994
vt 0.991396 0.561473
vt 0.991396 0.579963
vt 0.967930 0.865992
vt 0.947248 0.865992
vt 0.947248 0.884482
vt 0.967930 0.884482
vt 0.471938 0.823813
vt 0.471938 0.842303
vt 0.452678 0.766394
vt 0.452678 0.784884
vt 0.924188 0.865992
vt 0.924188 0.884482
vt 0.949077 0.437924
vt 0.972137 0.437924
vt 0.972137 0.456414
vt 0.949077 0.456414
vt 0.624955 0.808573
vt 0.624955 0.827063
vt 0.948671 0.923411
vt 0.967930 0.923411
vt 0.967930 0.941901
vt 0.948671 0.941901
vt 0.471938 0.766394
vt 0.471938 0.784884
vt 0.904928 0.865992
vt 0.904928 0.884482
vt 0.644214 0.808573
vt 0.644214 0.827063
vt 0.928395 0.314374
vt 0.949077 0.314374
vt 0.949077 0.332864
vt 0.928395 0.332864
vt 0.371855 0.766394
vt 0.371855 0.784884
vt 0.108687 0.766394
vt 0.108687 0.784884
vt 0.208770 0.938652
vt 0.228029 0.938652
vt 0.228029 0.957142
vt 0.208770 0.957142
vt 0.171688 0.766394
vt 0.171688 0.784884
vt 0.925611 0.923411
vt 0.925611 0.941901
vt 0.804845 0.923411
vt 0.804845 0.941901
vt 0.948671 0.808573
vt 0.948671 0.827062
vt 0.904928 0.923411
vt 0.904928 0.941901
vt 0.967930 0.808573
vt 0.967930 0.827062
vt 0.029286 0.938652
vt 0.008604 0.938652
vt 0.008604 0.957142
vt 0.029286 0.957142
vt 0.704762 0.923411
vt 0.724021 0.923411
vt 0.724021 0.941901
vt 0.704762 0.941901
vt 0.967930 0.751153
vt 0.967930 0.769643
vt 0.928395 0.239533
vt 0.928395 0.258023
vt 0.428196 0.881233
vt 0.408936 0.881233
vt 0.408936 0.899723
vt 0.428196 0.899722
vt 0.108687 0.938652
vt 0.108687 0.957142
vt 0.928395 0.437924
vt 0.928395 0.456414
vt 0.991396 0.437924
vt 0.991396 0.456414
vt 0.171688 0.938652
vt 0.171688 0.957142
vt 0.928395 0.182114
vt 0.928395 0.200604
s 0
g Medicine(tablets)_Material.004
usemtl Material.004
f 1/1/1 3/2/1 4/3/1 2/4/1
f 469/5/2 135/6/2 8/7/2 167/8/2
f 4/3/1 3/2/1 5/2/1 136/9/1 48/10/1 176/11/1 47/12/1 175/13/1 46/14/1 174/15/1 45/16/1 173/17/1 44/18/1 172/19/1 43/20/1 171/21/1 42/22/1 170/23/1 41/24/1 169/25/1 40/26/1 168/27/1 39/28/1 167/8/1 8/7/1
f 1/1/1 2/4/1 7/29/1 134/30/1 28/31/1 156/32/1 27/33/1 155/34/1 26/35/1 154/36/1 25/37/1 153/38/1 24/39/1 152/40/1 23/41/1 151/42/1 22/43/1 150/44/1 21/45/1 149/46/1 20/47/1 148/48/1 19/49/1 147/50/1 6/1/1
f 2/4/2 4/3/2 8/7/2 135/6/2 38/51/2 166/52/2 37/53/2 165/54/2 36/55/2 164/56/2 35/57/2 163/58/2 34/59/2 162/60/2 33/61/2 161/62/2 32/63/2 160/64/2 31/65/2 159/66/2 30/67/2 158/68/2 29/69/2 157/70/2 7/29/2
f 3/2/2 1/1/2 6/1/2 133/71/2 18/72/2 146/73/2 17/74/2 145/75/2 16/76/2 144/77/2 15/78/2 143/79/2 14/80/2 142/81/2 13/82/2 141/83/2 12/84/2 140/85/2 11/86/2 139/87/2 10/88/2 138/89/2 9/90/2 137/91/2 5/2/2
f 468/92/2 177/93/2 48/10/2 136/9/2
f 467/94/2 184/95/2 47/12/2 176/11/2
f 466/96/2 195/97/2 46/14/2 175/13/2
f 465/98/2 206/99/2 45/16/2 174/15/2
f 464/100/2 213/101/2 44/18/2 173/17/2
f 463/102/2 224/103/2 43/20/2 172/19/2
f 462/104/2 235/105/2 42/22/2 171/21/2
f 461/106/2 242/107/2 41/24/2 170/23/2
f 460/108/2 253/109/2 40/26/2 169/25/2
f 459/110/2 264/111/2 39/28/2 168/27/2
f 458/112/2 178/113/2 49/114/2 271/115/2
f 417/116/3 312/117/3 595/118/3 694/119/3
f 456/120/2 179/121/2 50/122/2 273/123/2
f 211/124/4 428/125/4 704/126/4 635/127/4
f 354/128/5 126/129/5 553/130/5 615/131/5
f 453/132/2 181/133/2 52/134/2 276/135/2
f 355/136/6 373/137/6 669/138/6 616/139/6
f 451/140/2 182/141/2 53/142/2 278/143/2
f 428/125/7 203/144/7 633/145/7 704/126/7
f 403/146/8 238/147/8 520/148/8 691/149/8
f 448/150/2 185/151/2 55/152/2 281/153/2
f 263/154/9 125/155/9 551/156/9 552/157/9
f 447/158/2 187/159/2 57/160/2 282/161/2
f 373/137/10 356/162/10 618/163/10 669/138/10
f 80/164/11 302/165/11 585/166/11 517/167/11
f 445/168/2 190/169/2 60/170/2 284/171/2
f 349/172/12 127/173/12 617/174/12 606/175/12
f 444/176/2 192/177/2 62/178/2 285/179/2
f 187/180/13 447/181/13 716/182/13 629/183/13
f 78/184/14 308/185/14 591/186/14 592/187/14
f 442/188/2 196/189/2 65/190/2 287/191/2
f 441/192/2 197/193/2 66/194/2 288/195/2
f 440/196/2 198/197/2 67/198/2 289/199/2
f 439/200/2 199/201/2 68/202/2 290/203/2
f 438/204/2 200/205/2 69/206/2 291/207/2
f 437/208/2 201/209/2 70/210/2 292/211/2
f 436/212/2 202/213/2 71/214/2 293/215/2
f 435/216/2 203/217/2 72/218/2 294/219/2
f 434/220/2 204/221/2 73/222/2 295/223/2
f 433/224/2 205/225/2 74/226/2 296/227/2
f 432/228/2 207/229/2 75/230/2 297/231/2
f 261/232/15 123/233/15 549/234/15 643/235/15
f 431/236/2 208/237/2 76/238/2 298/239/2
f 447/181/4 179/240/4 626/241/4 716/182/4
f 372/242/13 266/243/13 644/244/13 668/245/13
f 429/246/2 210/247/2 78/248/2 300/249/2
f 427/250/16 212/251/16 514/252/16 703/253/16
f 428/254/2 211/255/2 79/256/2 301/257/2
f 307/258/17 77/259/17 511/260/17 590/261/17
f 326/262/18 403/263/18 691/264/18 656/265/18
f 426/266/2 214/267/2 81/268/2 303/269/2
f 425/270/2 215/271/2 82/272/2 304/273/2
f 424/274/2 216/275/2 83/276/2 305/277/2
f 423/278/2 217/279/2 84/280/2 306/281/2
f 422/282/2 218/283/2 85/284/2 307/285/2
f 421/286/2 219/287/2 86/288/2 308/289/2
f 420/290/2 220/291/2 87/292/2 309/293/2
f 419/294/2 221/295/2 88/296/2 310/297/2
f 418/298/2 222/299/2 89/300/2 311/301/2
f 417/302/2 223/303/2 90/304/2 312/305/2
f 416/306/2 225/307/2 91/308/2 313/309/2
f 415/310/2 226/311/2 92/312/2 314/313/2
f 414/314/2 227/315/2 93/316/2 315/317/2
f 413/318/2 228/319/2 94/320/2 316/321/2
f 412/322/2 229/323/2 95/324/2 317/325/2
f 411/326/2 230/327/2 96/328/2 318/329/2
f 410/330/2 231/331/2 97/332/2 319/333/2
f 409/334/2 232/335/2 98/336/2 320/337/2
f 408/338/2 233/339/2 99/340/2 321/341/2
f 407/342/2 234/343/2 100/344/2 322/345/2
f 406/346/2 236/347/2 101/348/2 323/349/2
f 122/350/8 352/351/8 611/352/8 612/353/8
f 404/354/2 237/355/2 102/356/2 325/357/2
f 260/358/18 122/359/18 612/360/18 548/361/18
f 356/162/19 372/362/19 668/363/19 618/163/19
f 401/364/2 239/365/2 104/366/2 328/367/2
f 204/368/20 427/250/20 703/253/20 502/369/20
f 399/370/2 240/371/2 105/372/2 330/373/2
f 351/374/7 121/375/7 547/376/7 610/377/7
f 250/378/17 392/379/17 680/380/17 641/381/17
f 396/382/2 243/383/2 107/384/2 333/385/2
f 300/386/12 78/184/12 592/187/12 581/387/12
f 395/388/2 245/389/2 109/390/2 334/391/2
f 258/392/21 120/393/21 545/394/21 546/395/21
f 392/379/11 240/396/11 637/397/11 680/380/11
f 393/398/2 248/399/2 112/400/2 336/401/2
f 446/402/22 188/403/22 484/404/22 715/405/22
f 392/406/2 250/407/2 114/408/2 337/409/2
f 77/259/11 299/410/11 580/411/11 511/260/11
f 402/412/21 326/262/21 656/265/21 690/413/21
f 390/414/2 254/415/2 117/416/2 339/417/2
f 389/418/2 255/419/2 118/420/2 340/421/2
f 388/422/2 256/423/2 119/424/2 341/425/2
f 387/426/2 257/427/2 120/428/2 342/429/2
f 386/430/2 258/431/2 121/432/2 343/433/2
f 385/434/2 259/435/2 122/436/2 344/437/2
f 384/438/2 260/439/2 123/440/2 345/441/2
f 383/442/2 261/443/2 124/444/2 346/445/2
f 382/446/2 262/447/2 125/448/2 347/449/2
f 381/450/2 263/451/2 126/452/2 348/453/2
f 380/454/2 265/455/2 127/456/2 349/457/2
f 180/458/16 446/402/16 715/405/16 472/459/16
f 379/460/2 266/461/2 128/462/2 350/463/2
f 267/464/14 371/465/14 667/466/14 556/467/14
f 75/468/14 303/469/14 586/470/14 587/471/14
f 377/472/2 268/473/2 130/474/2 352/475/2
f 327/476/15 402/412/15 690/413/15 657/477/15
f 376/478/2 269/479/2 131/480/2 353/481/2
f 256/482/15 118/483/15 543/484/15 642/485/15
f 126/486/23 263/154/23 552/157/23 553/487/23
f 374/488/2 157/70/2 29/69/2 355/489/2
f 373/490/2 158/68/2 30/67/2 356/491/2
f 372/492/2 159/66/2 31/65/2 357/493/2
f 371/494/2 160/64/2 32/63/2 358/495/2
f 370/496/2 161/62/2 33/61/2 359/497/2
f 369/498/2 162/60/2 34/59/2 360/499/2
f 368/500/2 163/58/2 35/57/2 361/501/2
f 367/502/2 164/56/2 36/55/2 362/503/2
f 366/504/2 165/54/2 37/53/2 363/505/2
f 365/506/2 166/52/2 38/51/2 364/507/2
f 302/165/5 74/508/5 505/509/5 585/166/5
f 117/510/8 349/172/8 606/175/8 607/511/8
f 363/505/2 37/53/2 166/52/2 365/506/2
f 255/512/18 117/513/18 607/514/18 542/515/18
f 131/480/2 362/503/2 366/504/2 270/516/2
f 362/503/2 36/55/2 165/54/2 366/504/2
f 269/479/2 367/502/2 362/503/2 131/480/2
f 125/155/24 262/517/24 550/518/24 551/156/24
f 361/501/2 35/57/2 164/56/2 367/502/2
f 391/519/14 251/520/14 538/521/14 679/522/14
f 371/523/6 358/524/6 619/525/6 667/526/6
f 360/499/2 34/59/2 163/58/2 368/500/2
f 268/473/2 369/498/2 360/499/2 130/474/2
f 129/527/2 359/497/2 369/498/2 268/473/2
f 359/497/2 33/61/2 162/60/2 369/498/2
f 241/528/12 391/519/12 679/522/12 526/529/12
f 297/530/12 75/468/12 587/471/12 576/531/12
f 358/495/2 32/63/2 161/62/2 370/496/2
f 123/233/21 260/358/21 548/361/21 549/234/21
f 128/462/2 357/493/2 371/494/2 267/532/2
f 357/493/2 31/65/2 160/64/2 371/494/2
f 266/461/2 372/492/2 357/493/2 128/462/2
f 457/533/18 271/534/18 646/535/18 725/536/18
f 356/491/2 30/67/2 159/66/2 372/492/2
f 115/537/10 252/538/10 540/539/10 539/540/10
f 358/524/10 370/541/10 666/542/10 619/525/10
f 355/489/2 29/69/2 158/68/2 373/490/2
f 265/455/2 374/488/2 355/489/2 127/456/2
f 28/31/2 134/30/2 374/488/2 265/455/2
f 134/30/2 7/29/2 157/70/2 374/488/2
f 70/543/8 300/386/8 581/387/8 582/544/8
f 272/545/21 457/533/21 725/536/21 647/546/21
f 116/547/13 338/548/13 605/549/13 541/550/13
f 121/551/15 258/392/15 546/395/15 547/552/15
f 124/444/2 353/481/2 375/553/2 262/447/2
f 353/481/2 131/480/2 270/516/2 375/553/2
f 261/443/2 376/478/2 353/481/2 124/444/2
f 370/541/19 359/554/19 620/555/19 666/542/19
f 299/410/5 69/556/5 499/557/5 580/411/5
f 179/240/7 456/558/7 724/559/7 626/241/7
f 266/243/4 379/560/4 676/561/4 644/244/4
f 113/562/3 250/563/3 641/564/3 537/565/3
f 259/435/2 377/472/2 352/475/2 122/436/2
f 121/432/2 351/566/2 377/472/2 259/435/2
f 351/566/2 129/527/2 268/473/2 377/472/2
f 120/393/18 257/567/18 544/568/18 545/394/18
f 400/569/24 328/570/24 658/571/24 689/572/24
f 379/560/7 256/573/7 642/574/7 676/561/7
f 112/575/25 249/576/25 536/577/25 640/578/25
f 119/424/2 350/463/2 378/579/2 257/427/2
f 350/463/2 128/462/2 267/532/2 378/579/2
f 256/423/2 379/460/2 350/463/2 119/424/2
f 329/580/9 400/569/9 689/572/9 659/581/9
f 456/582/15 272/545/15 647/546/15 724/583/15
f 205/584/9 73/585/9 503/586/9 504/587/9
f 118/483/21 255/512/21 542/515/21 543/484/21
f 240/396/5 399/588/5 688/589/5 637/397/5
f 254/415/2 380/454/2 349/457/2 117/416/2
f 27/33/2 156/32/2 380/454/2 254/415/2
f 156/32/2 28/31/2 265/455/2 380/454/2
f 252/590/2 381/450/2 348/453/2 116/591/2
f 115/592/2 347/449/2 381/450/2 252/590/2
f 347/449/2 125/448/2 263/451/2 381/450/2
f 251/593/2 382/446/2 347/449/2 115/592/2
f 114/408/2 346/445/2 382/446/2 251/593/2
f 346/445/2 124/444/2 262/447/2 382/446/2
f 250/407/2 383/442/2 346/445/2 114/408/2
f 113/594/2 345/441/2 383/442/2 250/407/2
f 345/441/2 123/440/2 261/443/2 383/442/2
f 249/595/2 384/438/2 345/441/2 113/594/2
f 112/400/2 344/437/2 384/438/2 249/595/2
f 344/437/2 122/436/2 260/439/2 384/438/2
f 248/399/2 385/434/2 344/437/2 112/400/2
f 111/596/2 343/433/2 385/434/2 248/399/2
f 343/433/2 121/432/2 259/435/2 385/434/2
f 247/597/2 386/430/2 343/433/2 111/596/2
f 110/598/2 342/429/2 386/430/2 247/597/2
f 342/429/2 120/428/2 258/431/2 386/430/2
f 246/599/2 387/426/2 342/429/2 110/598/2
f 109/390/2 341/425/2 387/426/2 246/599/2
f 341/425/2 119/424/2 257/427/2 387/426/2
f 245/389/2 388/422/2 341/425/2 109/390/2
f 108/600/2 340/421/2 388/422/2 245/389/2
f 340/421/2 118/420/2 256/423/2 388/422/2
f 244/601/2 389/418/2 340/421/2 108/600/2
f 107/384/2 339/417/2 389/418/2 244/601/2
f 339/417/2 117/416/2 255/419/2 389/418/2
f 243/383/2 390/414/2 339/417/2 107/384/2
f 26/35/2 155/34/2 390/414/2 243/383/2
f 155/34/2 27/33/2 254/415/2 390/414/2
f 336/602/22 112/603/22 640/604/22 601/605/22
f 110/606/10 247/607/10 534/608/10 533/609/10
f 303/610/6 425/611/6 701/612/6 586/613/6
f 65/614/8 297/530/8 576/531/8 577/615/8
f 105/372/2 337/409/2 391/616/2 241/617/2
f 337/409/2 114/408/2 251/593/2 391/616/2
f 240/371/2 392/406/2 337/409/2 105/372/2
f 455/618/20 180/458/20 472/459/20 723/619/20
f 203/620/15 71/621/15 501/622/15 633/623/15
f 378/624/12 267/464/12 556/467/12 675/625/12
f 111/626/13 335/627/13 600/628/13 535/629/13
f 425/611/10 304/630/10 588/631/10 701/612/10
f 239/365/2 393/398/2 336/401/2 104/366/2
f 103/632/2 335/633/2 393/398/2 239/365/2
f 335/633/2 111/596/2 248/399/2 393/398/2
f 399/634/23 329/580/23 659/581/23 688/635/23
f 202/636/18 70/637/18 582/638/18 500/639/18
f 257/640/8 378/624/8 675/625/8 544/641/8
f 108/642/3 245/643/3 639/644/3 531/645/3
f 102/356/2 334/391/2 394/646/2 238/647/2
f 334/391/2 109/390/2 246/599/2 394/646/2
f 237/355/2 395/388/2 334/391/2 102/356/2
f 252/538/19 116/648/19 541/649/19 540/539/19
f 338/548/4 106/650/4 529/651/4 605/549/4
f 107/652/25 244/653/25 530/654/25 638/655/25
f 251/656/6 115/537/6 539/540/6 538/657/6
f 360/658/6 368/659/6 665/660/6 621/661/6
f 236/347/2 396/382/2 333/385/2 101/348/2
f 25/37/2 154/36/2 396/382/2 236/347/2
f 154/36/2 26/35/2 243/383/2 396/382/2
f 234/343/2 397/662/2 332/663/2 100/344/2
f 99/340/2 331/664/2 397/662/2 234/343/2
f 424/665/13 208/666/13 634/667/13 700/668/13
f 233/339/2 398/669/2 331/664/2 99/340/2
f 98/336/2 330/373/2 398/669/2 233/339/2
f 330/373/2 105/372/2 241/617/2 398/669/2
f 232/335/2 399/370/2 330/373/2 98/336/2
f 97/332/2 329/670/2 399/370/2 232/335/2
f 398/671/8 241/528/8 526/529/8 687/672/8
f 231/331/2 400/673/2 329/670/2 97/332/2
f 96/328/2 328/367/2 400/673/2 231/331/2
f 274/674/24 455/675/24 723/676/24 648/677/24
f 230/327/2 401/364/2 328/367/2 96/328/2
f 95/324/2 327/678/2 401/364/2 230/327/2
f 327/678/2 103/632/2 239/365/2 401/364/2
f 229/323/2 402/679/2 327/678/2 95/324/2
f 94/320/2 326/680/2 402/679/2 229/323/2
f 200/681/9 68/682/9 497/683/9 498/684/9
f 228/319/2 403/685/2 326/680/2 94/320/2
f 93/316/2 325/357/2 403/685/2 228/319/2
f 325/357/2 102/356/2 238/647/2 403/685/2
f 227/315/2 404/354/2 325/357/2 93/316/2
f 92/312/2 324/686/2 404/354/2 227/315/2
f 368/659/10 361/687/10 623/688/10 665/660/10
f 226/311/2 405/689/2 324/686/2 92/312/2
f 91/308/2 323/349/2 405/689/2 226/311/2
f 304/630/19 424/690/19 700/691/19 588/631/19
f 225/307/2 406/346/2 323/349/2 91/308/2
f 24/39/2 153/38/2 406/346/2 225/307/2
f 153/38/2 25/37/2 236/347/2 406/346/2
f 223/303/2 407/342/2 322/345/2 90/304/2
f 89/300/2 321/341/2 407/342/2 223/303/2
f 321/341/2 99/340/2 234/343/2 407/342/2
f 222/299/2 408/338/2 321/341/2 89/300/2
f 88/296/2 320/337/2 408/338/2 222/299/2
f 320/337/2 98/336/2 233/339/2 408/338/2
f 221/295/2 409/334/2 320/337/2 88/296/2
f 87/292/2 319/333/2 409/334/2 221/295/2
f 319/333/2 97/332/2 232/335/2 409/334/2
f 220/291/2 410/330/2 319/333/2 87/292/2
f 86/288/2 318/329/2 410/330/2 220/291/2
f 318/329/2 96/328/2 231/331/2 410/330/2
f 219/287/2 411/326/2 318/329/2 86/288/2
f 85/284/2 317/325/2 411/326/2 219/287/2
f 317/325/2 95/324/2 230/327/2 411/326/2
f 218/283/2 412/322/2 317/325/2 85/284/2
f 84/280/2 316/321/2 412/322/2 218/283/2
f 316/321/2 94/320/2 229/323/2 412/322/2
f 217/279/2 413/318/2 316/321/2 84/280/2
f 83/276/2 315/317/2 413/318/2 217/279/2
f 315/317/2 93/316/2 228/319/2 413/318/2
f 216/275/2 414/314/2 315/317/2 83/276/2
f 82/272/2 314/313/2 414/314/2 216/275/2
f 314/313/2 92/312/2 227/315/2 414/314/2
f 215/271/2 415/310/2 314/313/2 82/272/2
f 81/268/2 313/309/2 415/310/2 215/271/2
f 313/309/2 91/308/2 226/311/2 415/310/2
f 214/267/2 416/306/2 313/309/2 81/268/2
f 23/41/2 152/40/2 416/306/2 214/267/2
f 152/40/2 24/39/2 225/307/2 416/306/2
f 64/692/13 286/693/13 575/694/13 493/695/13
f 333/696/22 107/697/22 638/698/22 596/699/22
f 311/301/2 89/300/2 223/303/2 417/302/2
f 249/576/26 113/562/26 537/565/26 536/577/26
f 79/256/2 310/297/2 418/298/2 212/700/2
f 310/297/2 88/296/2 222/299/2 418/298/2
f 211/255/2 419/294/2 310/297/2 79/256/2
f 192/701/13 444/702/13 712/703/13 631/704/13
f 309/293/2 87/292/2 221/295/2 419/294/2
f 198/705/15 66/706/15 495/707/15 632/708/15
f 74/709/23 205/584/23 504/587/23 505/710/23
f 308/289/2 86/288/2 220/291/2 420/290/2
f 210/247/2 421/286/2 308/289/2 78/248/2
f 77/711/2 307/285/2 421/286/2 210/247/2
f 307/285/2 85/284/2 219/287/2 421/286/2
f 106/650/7 332/712/7 661/713/7 529/651/7
f 444/702/4 182/714/4 627/715/4 712/703/4
f 306/281/2 84/280/2 218/283/2 422/282/2
f 367/716/13 269/717/13 645/718/13 664/719/13
f 76/238/2 305/277/2 423/278/2 209/720/2
f 305/277/2 83/276/2 217/279/2 423/278/2
f 208/237/2 424/274/2 305/277/2 76/238/2
f 331/721/18 398/722/18 687/723/18 660/724/18
f 304/273/2 82/272/2 216/275/2 424/274/2
f 454/725/9 274/674/9 648/677/9 722/726/9
f 197/727/18 65/728/18 577/729/18 494/730/18
f 303/269/2 81/268/2 215/271/2 425/270/2
f 207/229/2 426/266/2 303/269/2 75/230/2
f 22/43/2 151/42/2 426/266/2 207/229/2
f 151/42/2 23/41/2 214/267/2 426/266/2
f 73/585/24 204/731/24 502/732/24 503/586/24
f 104/733/16 336/602/16 601/605/16 602/734/16
f 247/607/19 111/735/19 535/736/19 534/608/19
f 361/687/19 367/737/19 664/738/19 623/688/19
f 72/218/2 301/257/2 427/739/2 204/221/2
f 301/257/2 79/256/2 212/700/2 427/739/2
f 203/217/2 428/254/2 301/257/2 72/218/2
f 209/740/22 423/741/22 699/742/22 508/743/22
f 275/744/23 454/725/23 722/726/23 649/745/23
f 335/627/4 103/746/4 523/747/4 600/628/4
f 246/748/6 110/606/6 533/609/6 532/749/6
f 284/750/14 60/751/14 630/752/14 571/753/14
f 201/209/2 429/246/2 300/249/2 70/210/2
f 69/206/2 299/754/2 429/246/2 201/209/2
f 299/754/2 77/711/2 210/247/2 429/246/2
f 71/621/21 202/636/21 500/639/21 501/622/21
f 443/755/14 193/756/14 490/757/14 711/758/14
f 423/759/25 306/760/25 589/761/25 699/762/25
f 59/763/17 283/764/17 570/765/17 487/766/17
f 67/198/2 298/239/2 430/767/2 199/201/2
f 298/239/2 76/238/2 209/720/2 430/767/2
f 198/197/2 431/236/2 298/239/2 67/198/2
f 397/768/21 331/721/21 660/724/21 686/769/21
f 63/770/10 194/771/10 492/772/10 491/773/10
f 328/774/20 104/733/20 602/734/20 658/775/20
f 244/653/26 108/642/26 531/645/26 530/654/26
f 183/776/12 443/755/12 711/758/12 478/777/12
f 196/189/2 432/228/2 297/231/2 65/190/2
f 21/45/2 150/44/2 432/228/2 196/189/2
f 150/44/2 22/43/2 207/229/2 432/228/2
f 194/778/2 433/224/2 296/227/2 64/779/2
f 63/780/2 295/223/2 433/224/2 194/778/2
f 295/223/2 73/222/2 205/225/2 433/224/2
f 193/781/2 434/220/2 295/223/2 63/780/2
f 62/178/2 294/219/2 434/220/2 193/781/2
f 294/219/2 72/218/2 204/221/2 434/220/2
f 192/177/2 435/216/2 294/219/2 62/178/2
f 61/782/2 293/215/2 435/216/2 192/177/2
f 293/215/2 71/214/2 203/217/2 435/216/2
f 191/783/2 436/212/2 293/215/2 61/782/2
f 60/170/2 292/211/2 436/212/2 191/783/2
f 292/211/2 70/210/2 202/213/2 436/212/2
f 190/169/2 437/208/2 292/211/2 60/170/2
f 59/784/2 291/207/2 437/208/2 190/169/2
f 291/207/2 69/206/2 201/209/2 437/208/2
f 189/785/2 438/204/2 291/207/2 59/784/2
f 58/786/2 290/203/2 438/204/2 189/785/2
f 290/203/2 68/202/2 200/205/2 438/204/2
f 188/787/2 439/200/2 290/203/2 58/786/2
f 57/160/2 289/199/2 439/200/2 188/787/2
f 289/199/2 67/198/2 199/201/2 439/200/2
f 187/159/2 440/196/2 289/199/2 57/160/2
f 56/788/2 288/195/2 440/196/2 187/159/2
f 288/195/2 66/194/2 198/197/2 440/196/2
f 186/789/2 441/192/2 288/195/2 56/788/2
f 55/152/2 287/191/2 441/192/2 186/789/2
f 287/191/2 65/190/2 197/193/2 441/192/2
f 185/151/2 442/188/2 287/191/2 55/152/2
f 20/47/2 149/46/2 442/188/2 185/151/2
f 149/46/2 21/45/2 196/189/2 442/188/2
f 270/790/22 366/791/22 663/792/22 562/793/22
f 332/794/15 397/768/15 686/769/15 661/795/15
f 69/796/23 200/681/23 498/684/23 499/797/23
f 103/746/7 327/798/7 657/799/7 523/747/7
f 53/142/2 285/179/2 443/800/2 183/801/2
f 285/179/2 62/178/2 193/781/2 443/800/2
f 182/141/2 444/176/2 285/179/2 53/142/2
f 286/693/4 54/802/4 481/803/4 575/694/4
f 61/804/19 192/805/19 631/806/19 489/807/19
f 68/682/24 199/808/24 496/809/24 497/683/24
f 101/810/16 333/696/16 596/699/16 597/811/16
f 366/812/25 363/813/25 624/814/25 663/815/25
f 181/133/2 445/168/2 284/171/2 52/134/2
f 51/816/2 283/817/2 445/168/2 181/133/2
f 283/817/2 59/784/2 190/169/2 445/168/2
f 306/760/26 422/818/26 698/819/26 589/761/26
f 60/820/6 191/821/6 488/822/6 630/823/6
f 422/818/3 307/824/3 590/825/3 698/819/3
f 281/826/14 55/827/14 628/828/14 566/829/14
f 50/122/2 282/161/2 446/830/2 180/831/2
f 282/161/2 57/160/2 188/787/2 446/830/2
f 179/121/2 447/158/2 282/161/2 50/122/2
f 66/706/21 197/727/21 494/730/21 495/707/21
f 208/666/4 431/832/4 708/833/4 634/667/4
f 54/802/7 280/834/7 653/835/7 481/803/7
f 452/836/18 276/837/18 650/838/18 721/839/18
f 58/840/26 189/841/26 486/842/26 485/843/26
f 178/113/2 448/150/2 281/153/2 49/114/2
f 19/49/2 148/48/2 448/150/2 178/113/2
f 148/48/2 20/47/2 185/151/2 448/150/2
f 138/89/2 449/844/2 280/845/2 9/90/2
f 10/88/2 279/846/2 449/844/2 138/89/2
f 431/832/7 198/847/7 632/848/7 708/833/7
f 139/87/2 450/849/2 279/846/2 10/88/2
f 11/86/2 278/143/2 450/849/2 139/87/2
f 278/143/2 53/142/2 183/801/2 450/849/2
f 140/85/2 451/140/2 278/143/2 11/86/2
f 12/84/2 277/850/2 451/140/2 140/85/2
f 323/851/20 101/810/20 597/811/20 654/852/20
f 141/83/2 452/853/2 277/850/2 12/84/2
f 13/82/2 276/135/2 452/853/2 141/83/2
f 363/813/26 365/854/26 662/855/26 624/814/26
f 142/81/2 453/132/2 276/135/2 13/82/2
f 14/80/2 275/856/2 453/132/2 142/81/2
f 275/856/2 51/816/2 181/133/2 453/132/2
f 143/79/2 454/857/2 275/856/2 14/80/2
f 15/78/2 274/858/2 454/857/2 143/79/2
f 52/859/12 284/750/12 571/753/12 572/860/12
f 144/77/2 455/861/2 274/858/2 15/78/2
f 16/76/2 273/123/2 455/861/2 144/77/2
f 273/123/2 50/122/2 180/831/2 455/861/2
f 145/75/2 456/120/2 273/123/2 16/76/2
f 17/74/2 272/862/2 456/120/2 145/75/2
f 277/863/21 452/836/21 721/839/21 651/864/21
f 146/73/2 457/865/2 272/862/2 17/74/2
f 18/72/2 271/115/2 457/865/2 146/73/2
f 365/854/3 364/866/3 625/867/3 662/855/3
f 133/71/2 458/112/2 271/115/2 18/72/2
f 6/1/2 147/50/2 458/112/2 133/71/2
f 147/50/2 19/49/2 178/113/2 458/112/2
f 253/109/2 459/110/2 168/27/2 40/26/2
f 126/452/2 354/868/2 459/110/2 253/109/2
f 354/868/2 132/869/2 264/111/2 459/110/2
f 242/107/2 460/108/2 169/25/2 41/24/2
f 116/591/2 348/453/2 460/108/2 242/107/2
f 348/453/2 126/452/2 253/109/2 460/108/2
f 235/105/2 461/106/2 170/23/2 42/22/2
f 106/870/2 338/871/2 461/106/2 235/105/2
f 338/871/2 116/591/2 242/107/2 461/106/2
f 224/103/2 462/104/2 171/21/2 43/20/2
f 100/344/2 332/663/2 462/104/2 224/103/2
f 332/663/2 106/870/2 235/105/2 462/104/2
f 213/101/2 463/102/2 172/19/2 44/18/2
f 90/304/2 322/345/2 463/102/2 213/101/2
f 322/345/2 100/344/2 224/103/2 463/102/2
f 206/99/2 464/100/2 173/17/2 45/16/2
f 80/872/2 312/305/2 464/100/2 206/99/2
f 312/305/2 90/304/2 213/101/2 464/100/2
f 195/97/2 465/98/2 174/15/2 46/14/2
f 74/226/2 302/873/2 465/98/2 195/97/2
f 302/873/2 80/872/2 206/99/2 465/98/2
f 184/95/2 466/96/2 175/13/2 47/12/2
f 64/779/2 296/227/2 466/96/2 184/95/2
f 296/227/2 74/226/2 195/97/2 466/96/2
f 177/93/2 467/94/2 176/11/2 48/10/2
f 54/874/2 286/875/2 467/94/2 177/93/2
f 286/875/2 64/779/2 184/95/2 467/94/2
f 137/91/2 468/92/2 136/9/2 5/2/2
f 9/90/2 280/845/2 468/92/2 137/91/2
f 280/845/2 54/874/2 177/93/2 468/92/2
f 264/111/2 469/5/2 167/8/2 39/28/2
f 132/869/2 364/507/2 469/5/2 264/111/2
f 364/507/2 38/51/2 135/6/2 469/5/2
f 725/876/2 470/877/2 471/878/2 647/879/2
f 723/880/2 472/881/2 473/882/2 648/883/2
f 722/884/2 474/885/2 475/886/2 649/887/2
f 721/888/2 476/889/2 477/890/2 651/891/2
f 719/892/2 478/893/2 479/894/2 652/895/2
f 718/896/2 480/897/2 481/898/2 653/899/2
f 717/900/2 482/901/2 483/902/2 568/903/2
f 715/904/2 484/905/2 485/906/2 569/907/2
f 714/908/2 486/909/2 487/910/2 570/911/2
f 713/912/2 488/913/2 489/914/2 573/915/2
f 711/916/2 490/917/2 491/918/2 574/919/2
f 710/920/2 492/921/2 493/922/2 575/923/2
f 709/924/2 506/925/2 507/926/2 578/927/2
f 707/928/2 508/929/2 509/930/2 579/931/2
f 706/932/2 510/933/2 511/934/2 580/935/2
f 705/936/2 512/937/2 513/938/2 583/939/2
f 703/940/2 514/941/2 515/942/2 584/943/2
f 702/944/2 516/945/2 517/946/2 585/947/2
f 693/948/2 518/949/2 519/950/2 655/951/2
f 691/952/2 520/953/2 521/954/2 656/955/2
f 690/956/2 522/957/2 523/958/2 657/959/2
f 689/960/2 524/961/2 525/962/2 659/963/2
f 687/964/2 526/965/2 527/966/2 660/967/2
f 686/968/2 528/969/2 529/970/2 661/971/2
f 685/972/2 530/973/2 531/974/2 598/975/2
f 683/976/2 532/977/2 533/978/2 599/979/2
f 682/980/2 534/981/2 535/982/2 600/983/2
f 681/984/2 536/985/2 537/986/2 603/987/2
f 679/988/2 538/989/2 539/990/2 604/991/2
f 678/992/2 540/993/2 541/994/2 605/995/2
f 677/996/2 554/997/2 555/998/2 608/999/2
f 675/1000/2 556/1001/2 557/1002/2 609/1003/2
f 674/1004/2 558/1005/2 559/1006/2 610/1007/2
f 673/1008/2 560/1009/2 561/1010/2 613/1011/2
f 671/1012/2 562/1013/2 563/1014/2 614/1015/2
f 670/1016/2 564/1017/2 565/1018/2 615/1019/2
f 564/1017/2 662/1020/2 625/1021/2 565/1018/2
f 563/1014/2 624/1022/2 662/1020/2 564/1017/2
f 562/1013/2 663/1023/2 624/1022/2 563/1014/2
f 561/1010/2 623/1024/2 664/1025/2 645/1026/2
f 560/1009/2 665/1027/2 623/1024/2 561/1010/2
f 622/1028/2 621/1029/2 665/1027/2 560/1009/2
f 558/1005/2 666/1030/2 620/1031/2 559/1006/2
f 557/1002/2 619/1032/2 666/1030/2 558/1005/2
f 556/1001/2 667/1033/2 619/1032/2 557/1002/2
f 555/998/2 618/1034/2 668/1035/2 644/1036/2
f 554/997/2 669/1037/2 618/1034/2 555/998/2
f 617/1038/2 616/1039/2 669/1037/2 554/997/2
f 552/1040/2 670/1016/2 615/1019/2 553/1041/2
f 551/1042/2 614/1015/2 670/1016/2 552/1040/2
f 614/1015/2 563/1014/2 564/1017/2 670/1016/2
f 550/1043/2 671/1012/2 614/1015/2 551/1042/2
f 549/1044/2 613/1011/2 672/1045/2 643/1046/2
f 613/1011/2 561/1010/2 645/1026/2 672/1045/2
f 548/1047/2 673/1008/2 613/1011/2 549/1044/2
f 612/1048/2 611/1049/2 673/1008/2 548/1047/2
f 611/1049/2 622/1028/2 560/1009/2 673/1008/2
f 546/1050/2 674/1004/2 610/1007/2 547/1051/2
f 545/1052/2 609/1003/2 674/1004/2 546/1050/2
f 609/1003/2 557/1002/2 558/1005/2 674/1004/2
f 544/1053/2 675/1000/2 609/1003/2 545/1052/2
f 543/1054/2 608/999/2 676/1055/2 642/1056/2
f 608/999/2 555/998/2 644/1036/2 676/1055/2
f 542/1057/2 677/996/2 608/999/2 543/1054/2
f 607/1058/2 606/1059/2 677/996/2 542/1057/2
f 606/1059/2 617/1038/2 554/997/2 677/996/2
f 528/969/2 678/992/2 605/995/2 529/970/2
f 527/966/2 604/991/2 678/992/2 528/969/2
f 604/991/2 539/990/2 540/993/2 678/992/2
f 526/965/2 679/988/2 604/991/2 527/966/2
f 525/962/2 603/987/2 680/1060/2 637/1061/2
f 603/987/2 537/986/2 641/1062/2 680/1060/2
f 524/961/2 681/984/2 603/987/2 525/962/2
f 602/1063/2 601/1064/2 681/984/2 524/961/2
f 601/1064/2 640/1065/2 536/985/2 681/984/2
f 522/957/2 682/980/2 600/983/2 523/958/2
f 521/954/2 599/979/2 682/980/2 522/957/2
f 599/979/2 533/978/2 534/981/2 682/980/2
f 520/953/2 683/976/2 599/979/2 521/954/2
f 519/950/2 598/975/2 684/1066/2 636/1067/2
f 598/975/2 531/974/2 639/1068/2 684/1066/2
f 518/949/2 685/972/2 598/975/2 519/950/2
f 597/1069/2 596/1070/2 685/972/2 518/949/2
f 596/1070/2 638/1071/2 530/973/2 685/972/2
f 660/967/2 527/966/2 528/969/2 686/968/2
f 659/963/2 525/962/2 637/1061/2 688/1072/2
f 658/1073/2 602/1063/2 524/961/2 689/960/2
f 656/955/2 521/954/2 522/957/2 690/956/2
f 655/951/2 519/950/2 636/1067/2 692/1074/2
f 654/1075/2 597/1069/2 518/949/2 693/948/2
f 516/945/2 694/1076/2 595/1077/2 517/946/2
f 515/942/2 594/1078/2 694/1076/2 516/945/2
f 514/941/2 695/1079/2 594/1078/2 515/942/2
f 513/938/2 593/1080/2 696/1081/2 635/1082/2
f 512/937/2 697/1083/2 593/1080/2 513/938/2
f 592/1084/2 591/1085/2 697/1083/2 512/937/2
f 510/933/2 698/1086/2 590/1087/2 511/934/2
f 509/930/2 589/1088/2 698/1086/2 510/933/2
f 508/929/2 699/1089/2 589/1088/2 509/930/2
f 507/926/2 588/1090/2 700/1091/2 634/1092/2
f 506/925/2 701/1093/2 588/1090/2 507/926/2
f 587/1094/2 586/1095/2 701/1093/2 506/925/2
f 504/1096/2 702/944/2 585/947/2 505/1097/2
f 503/1098/2 584/943/2 702/944/2 504/1096/2
f 584/943/2 515/942/2 516/945/2 702/944/2
f 502/1099/2 703/940/2 584/943/2 503/1098/2
f 501/1100/2 583/939/2 704/1101/2 633/1102/2
f 583/939/2 513/938/2 635/1082/2 704/1101/2
f 500/1103/2 705/936/2 583/939/2 501/1100/2
f 582/1104/2 581/1105/2 705/936/2 500/1103/2
f 581/1105/2 592/1084/2 512/937/2 705/936/2
f 498/1106/2 706/932/2 580/935/2 499/1107/2
f 497/1108/2 579/931/2 706/932/2 498/1106/2
f 579/931/2 509/930/2 510/933/2 706/932/2
f 496/1109/2 707/928/2 579/931/2 497/1108/2
f 495/1110/2 578/927/2 708/1111/2 632/1112/2
f 578/927/2 507/926/2 634/1092/2 708/1111/2
f 494/1113/2 709/924/2 578/927/2 495/1110/2
f 577/1114/2 576/1115/2 709/924/2 494/1113/2
f 576/1115/2 587/1094/2 506/925/2 709/924/2
f 480/897/2 710/920/2 575/923/2 481/898/2
f 479/894/2 574/919/2 710/920/2 480/897/2
f 574/919/2 491/918/2 492/921/2 710/920/2
f 478/893/2 711/916/2 574/919/2 479/894/2
f 477/890/2 573/915/2 712/1116/2 627/1117/2
f 573/915/2 489/914/2 631/1118/2 712/1116/2
f 476/889/2 713/912/2 573/915/2 477/890/2
f 572/1119/2 571/1120/2 713/912/2 476/889/2
f 571/1120/2 630/1121/2 488/913/2 713/912/2
f 474/885/2 714/908/2 570/911/2 475/886/2
f 473/882/2 569/907/2 714/908/2 474/885/2
f 569/907/2 485/906/2 486/909/2 714/908/2
f 472/881/2 715/904/2 569/907/2 473/882/2
f 471/878/2 568/903/2 716/1122/2 626/1123/2
f 568/903/2 483/902/2 629/1124/2 716/1122/2
f 470/877/2 717/900/2 568/903/2 471/878/2
f 567/1125/2 566/1126/2 717/900/2 470/877/2
f 566/1126/2 628/1127/2 482/901/2 717/900/2
f 652/895/2 479/894/2 480/897/2 718/896/2
f 651/891/2 477/890/2 627/1117/2 720/1128/2
f 650/1129/2 572/1119/2 476/889/2 721/888/2
f 648/883/2 473/882/2 474/885/2 722/884/2
f 647/879/2 471/878/2 626/1123/2 724/1130/2
f 646/1131/2 567/1125/2 470/877/2 725/876/2
f 127/173/14 355/1132/14 616/1133/14 617/174/14
f 404/1134/23 324/1135/23 655/1136/23 692/1137/23
f 312/1138/17 80/164/17 517/167/17 595/1139/17
f 311/1140/26 417/116/26 694/119/26 594/1141/26
f 129/1142/4 351/374/4 610/377/4 559/1143/4
f 352/351/12 130/1144/12 622/1145/12 611/352/12
f 237/1146/5 404/1147/5 692/1148/5 636/1149/5
f 324/1135/9 405/1150/9 693/1151/9 655/1136/9
f 418/1152/25 311/1140/25 594/1141/25 695/1153/25
f 359/1154/13 129/1142/13 559/1143/13 620/1155/13
f 405/1150/24 323/1156/24 654/1157/24 693/1151/24
f 130/1144/14 360/1158/14 621/1159/14 622/1145/14
f 280/1160/15 449/1161/15 718/1162/15 653/1163/15
f 212/251/22 418/1164/22 695/1165/22 514/252/22
f 132/1166/11 354/128/11 615/131/11 565/1167/11
f 449/1161/21 279/1168/21 652/1169/21 718/1162/21
f 186/1170/10 56/1171/10 483/1172/10 482/1173/10
f 238/147/12 394/1174/12 683/1175/12 520/148/12
f 309/1176/19 419/1177/19 696/1178/19 593/1179/19
f 364/1180/17 132/1166/17 565/1167/17 625/1181/17
f 279/1168/18 450/1182/18 719/1183/18 652/1169/18
f 394/1174/14 246/1184/14 532/1185/14 683/1175/14
f 271/1186/8 49/1187/8 567/1188/8 646/1189/8
f 419/1190/13 211/124/13 635/127/13 696/1191/13
f 188/1192/25 58/840/25 485/843/25 484/1193/25
f 262/1194/20 375/1195/20 671/1196/20 550/1197/20
f 189/841/3 59/1198/3 487/1199/3 486/842/3
f 420/1200/10 309/1176/10 593/1179/10 697/1201/10
f 375/1195/16 270/790/16 562/793/16 671/1196/16
f 450/1202/8 183/776/8 478/777/8 719/1203/8
f 395/1204/11 237/1146/11 636/1149/11 684/1205/11
f 49/1187/12 281/826/12 566/829/12 567/1188/12
f 308/1206/6 420/1200/6 697/1201/6 591/1207/6
f 191/821/10 61/804/10 489/807/10 488/822/10
f 245/1208/17 395/1204/17 684/1205/17 639/1209/17
f 51/1210/5 275/1211/5 649/1212/5 475/1213/5
f 199/1214/20 430/1215/20 707/1216/20 496/1217/20
f 451/1218/15 277/863/15 651/864/15 720/1219/15
f 276/1220/8 52/859/8 572/860/8 650/1221/8
f 430/1215/16 209/740/16 508/743/16 707/1216/16
f 376/1222/7 261/1223/7 643/1224/7 672/1225/7
f 193/1226/6 63/770/6 491/773/6 490/1227/6
f 55/1228/6 186/1170/6 482/1173/6 628/1229/6
f 269/717/4 376/1222/4 672/1225/4 645/718/4
f 56/1171/19 187/1230/19 629/1231/19 483/1172/19
f 194/771/19 64/1232/19 493/1233/19 492/772/19
f 182/714/7 451/1234/7 720/1235/7 627/715/7
f 283/764/11 51/1210/11 475/1213/11 570/765/11
