# Blender 5.0.0
# www.blender.org
mtllib Paper Documents.mtl
o Paper_Documents
v -0.504000 0.000000 0.756000
v 0.504000 0.000000 0.756000
v -0.504000 0.000000 -0.756000
v 0.504000 0.000000 -0.756000
v -0.504000 0.014696 -0.756000
v -0.504000 0.014696 0.756000
v 0.504000 0.014696 0.756000
v 0.504000 0.014696 -0.756000
vn -0.0000 -1.0000 -0.0000
vn -0.0000 1.0000 -0.0000
vn -0.0000 -0.0000 1.0000
vn 1.0000 -0.0000 -0.0000
vn -1.0000 -0.0000 -0.0000
vn -0.0000 -0.0000 -1.0000
vt 0.520833 0.208333
vt 0.520833 0.916667
vt 0.937500 0.916667
vt 0.937500 0.208333
vt 0.083333 0.208333
vt 0.500000 0.208333
vt 0.500000 0.916667
vt 0.083333 0.916667
vt 0.708333 0.020833
vt 0.958333 0.020833
vt 0.958333 0.041667
vt 0.708333 0.041667
vt 0.979167 0.020833
vt 0.979167 0.041667
vt 0.729167 0.020833
vt 0.729167 0.041667
s 0
g Paper_Documents_Documents
usemtl Documents
f 1/1/1 3/2/1 4/3/1 2/4/1
f 6/5/2 7/6/2 8/7/2 5/8/2
f 1/9/3 2/10/3 7/11/3 6/12/3
f 2/9/4 4/13/4 8/14/4 7/12/4
f 3/10/5 1/9/5 6/12/5 5/11/5
f 4/13/6 3/15/6 5/16/6 8/14/6
