# Blender 5.0.0
# www.blender.org
mtllib Safe.mtl
o Safe
v -2.016000 -2.016000 2.016000
v -2.016000 2.016000 2.016000
v -2.016000 -2.016000 -2.016000
v -2.016000 2.016000 -2.016000
v 2.016000 -2.016000 2.016000
v 2.016000 2.016000 2.016000
v 2.016000 -2.016000 -2.016000
v 2.016000 2.016000 -2.016000
v 2.016000 0.000000 -2.016000
v 2.016000 -2.016000 0.000000
v 2.016000 2.016000 0.000000
v 2.016000 0.000000 2.016000
v 2.016000 0.000000 0.000000
v 2.016000 -1.008000 -2.016000
v 2.016000 -2.016000 -1.008000
v 2.016000 2.016000 1.008000
v 2.016000 -1.008000 2.016000
v 2.016000 1.008000 -2.016000
v 2.016000 -2.016000 1.008000
v 2.016000 2.016000 -1.008000
v 2.016000 1.008000 2.016000
v 2.016000 0.000000 1.008000
v 2.016000 0.000000 -1.008000
v 2.016000 -1.008000 0.000000
v 2.016000 1.008000 0.000000
v 2.016000 -1.008000 -1.008000
v 2.016000 -1.008000 1.008000
v 2.016000 1.008000 1.008000
v 2.016000 -1.512000 -2.016000
v 2.016000 -2.016000 -1.512000
v 2.016000 2.016000 1.512000
v 2.016000 -1.512000 2.016000
v 2.016000 0.504000 -2.016000
v 2.016000 -2.016000 0.504000
v 2.016000 2.016000 -0.504000
v 2.016000 0.504000 2.016000
v 2.016000 0.000000 1.512000
v 2.016000 0.000000 -0.504000
v 2.016000 -1.512000 0.000000
v 2.016000 0.504000 0.000000
v 2.016000 -0.504000 -2.016000
v 2.016000 -2.016000 -0.504000
v 2.016000 2.016000 0.504000
v 2.016000 -0.504000 2.016000
v 2.016000 1.512000 -2.016000
v 2.016000 -2.016000 1.512000
v 2.016000 2.016000 -1.512000
v 2.016000 1.512000 2.016000
v 2.016000 0.000000 0.504000
v 2.016000 0.000000 -1.512000
v 2.016000 -0.504000 0.000000
v 2.016000 1.512000 0.000000
v 2.016001 1.008000 -0.399618
v 2.016001 1.008000 -1.616382
v 2.016001 0.399618 -1.008000
v 2.016001 1.616382 -1.008000
v 2.016000 -1.008000 -0.504000
v 2.016000 -1.008000 -1.512000
v 2.016000 -1.512000 -1.008000
v 2.016000 -0.504000 -1.008000
v 2.016000 -1.008000 1.512000
v 2.016000 -1.008000 0.504000
v 2.016000 -1.512000 1.008000
v 2.016000 -0.504000 1.008000
v 2.016000 1.008000 1.512000
v 2.016000 1.008000 0.504000
v 2.016000 0.504000 1.008000
v 2.016000 1.512000 1.008000
v 2.016000 1.512000 0.504000
v 2.016000 0.504000 0.504000
v 2.016000 0.504000 1.512000
v 2.016000 -0.504000 0.504000
v 2.016000 -1.512000 0.504000
v 2.016000 -1.512000 1.512000
v 2.016000 -0.504000 -1.512000
v 2.016000 -1.512000 -1.512000
v 2.016000 -1.512000 -0.504000
v 2.016001 1.438191 -1.438191
v 2.016001 0.577809 -1.438191
v 2.016001 0.577809 -0.577809
v 2.016001 1.438191 -0.577809
v 2.016000 -0.504000 -0.504000
v 2.016000 -0.504000 1.512000
v 2.016000 1.512000 1.512000
v 2.108369 1.008000 -1.453117
v 2.108369 1.616382 -1.008000
v 2.108369 1.008000 -0.399618
v 2.108369 0.562883 -1.008000
v 2.108369 1.322745 -1.322745
v 2.108369 0.693255 -1.322745
v 2.108369 0.693255 -0.693255
v 2.108369 1.322745 -0.693255
v 2.108369 1.438191 -1.438191
v 2.108369 1.453117 -1.008000
v 2.108369 1.008000 -1.616382
v 2.108369 0.577809 -1.438191
v 2.108369 0.399618 -1.008000
v 2.108369 0.577809 -0.577809
v 2.108369 1.008000 -0.562883
v 2.108369 1.438191 -0.577809
v 2.310702 1.008000 -1.453117
v 2.310702 1.008000 -1.008000
v 2.310702 1.453117 -1.008000
v 2.310702 1.008000 -0.562883
v 2.310702 0.562883 -1.008000
v 2.310702 1.322745 -1.322745
v 2.310702 0.693255 -1.322745
v 2.310702 0.693255 -0.693255
v 2.310702 1.322745 -0.693255
vn -1.0000 -0.0000 -0.0000
vn -0.0000 -0.0000 -1.0000
vn 1.0000 -0.0000 -0.0000
vn -0.0000 -0.0000 1.0000
vn -0.0000 -1.0000 -0.0000
vn -0.0000 1.0000 -0.0000
vn -0.0000 -0.9239 -0.3827
vn -0.0000 0.3827 0.9239
vn -0.0000 -0.3827 -0.9239
vn -0.0000 -0.9239 0.3827
vn -0.0000 0.3827 -0.9239
vn -0.0000 -0.3827 0.9239
vn -0.0000 0.9239 0.3827
vn -0.0000 0.9239 -0.3827
vt 0.010417 0.010417
vt 0.010417 0.427083
vt 0.427083 0.427083
vt 0.427083 0.010417
vt 0.020833 0.447917
vt 0.020833 0.864583
vt 0.437500 0.864583
vt 0.437500 0.812500
vt 0.437500 0.760417
vt 0.437500 0.708333
vt 0.437500 0.656250
vt 0.437500 0.604167
vt 0.437500 0.552083
vt 0.437500 0.500000
vt 0.437500 0.447917
vt 0.510417 0.375000
vt 0.510417 0.427083
vt 0.458333 0.427083
vt 0.458333 0.375000
vt 0.875000 0.447917
vt 0.875000 0.500000
vt 0.875000 0.552083
vt 0.875000 0.604167
vt 0.875000 0.656250
vt 0.875000 0.708333
vt 0.875000 0.760417
vt 0.875000 0.812500
vt 0.875000 0.864583
vt 0.458333 0.864583
vt 0.458333 0.447917
vt 0.510417 0.166667
vt 0.510417 0.218750
vt 0.458333 0.218750
vt 0.458333 0.166667
vt 0.708333 0.166667
vt 0.708333 0.218750
vt 0.656250 0.218750
vt 0.656250 0.166667
vt 0.718750 0.364583
vt 0.708333 0.427083
vt 0.656250 0.427083
vt 0.656250 0.375000
vt 0.718750 0.281250
vt 0.697917 0.322917
vt 0.656250 0.322917
vt 0.656250 0.270833
vt 0.917570 0.437500
vt 0.917570 0.489583
vt 0.895833 0.489583
vt 0.895833 0.437500
vt 0.812500 0.364583
vt 0.812500 0.427083
vt 0.760417 0.427083
vt 0.760417 0.385417
vt 0.708333 0.062500
vt 0.708333 0.114583
vt 0.656250 0.114583
vt 0.656250 0.062500
vt 0.812500 0.062500
vt 0.812500 0.114583
vt 0.760417 0.114583
vt 0.760417 0.062500
vt 0.812500 0.166667
vt 0.812500 0.218750
vt 0.760417 0.218750
vt 0.760417 0.166667
vt 0.510417 0.062500
vt 0.510417 0.114583
vt 0.458333 0.114583
vt 0.458333 0.062500
vt 0.604167 0.062500
vt 0.604167 0.114583
vt 0.562500 0.114583
vt 0.562500 0.062500
vt 0.604167 0.166667
vt 0.604167 0.218750
vt 0.562500 0.218750
vt 0.562500 0.166667
vt 0.510417 0.270833
vt 0.510417 0.322917
vt 0.458333 0.322917
vt 0.458333 0.270833
vt 0.604167 0.270833
vt 0.604167 0.322917
vt 0.562500 0.322917
vt 0.562500 0.270833
vt 0.604167 0.375000
vt 0.604167 0.427083
vt 0.562500 0.427083
vt 0.562500 0.375000
vt 0.604167 0.010417
vt 0.562500 0.010417
vt 0.656250 0.010417
vt 0.510417 0.010417
vt 0.458333 0.010417
vt 0.864583 0.114583
vt 0.864583 0.166667
vt 0.864583 0.218750
vt 0.812500 0.010417
vt 0.760417 0.010417
vt 0.864583 0.010417
vt 0.864583 0.062500
vt 0.708333 0.010417
vt 0.864583 0.322917
vt 0.864583 0.375000
vt 0.822917 0.322917
vt 0.864583 0.427083
vt 0.812500 0.281250
vt 0.760417 0.260417
vt 0.864583 0.270833
vt 0.917570 0.510417
vt 0.917570 0.552083
vt 0.895833 0.552083
vt 0.895833 0.510417
vt 0.917570 0.395833
vt 0.895833 0.395833
vt 0.750000 0.322917
vt 0.750000 0.354167
vt 0.770833 0.354167
vt 0.770833 0.322917
vt 0.750000 0.291667
vt 0.770833 0.291667
vt 0.885417 0.208333
vt 0.885417 0.177083
vt 0.906250 0.177083
vt 0.906250 0.208333
vt 0.885417 0.239583
vt 0.906250 0.239583
vt 0.917570 0.604167
vt 0.895833 0.604167
vt 0.927083 0.968750
vt 0.958333 0.958333
vt 0.968750 0.968750
vt 0.927083 0.989583
vt 0.968750 0.927083
vt 0.989583 0.927083
vt 0.958333 0.895833
vt 0.927083 0.885417
vt 0.927083 0.864583
vt 0.968750 0.885417
vt 0.895833 0.895833
vt 0.885417 0.885417
vt 0.885417 0.927083
vt 0.864583 0.927083
vt 0.895833 0.958333
vt 0.885417 0.968750
vt 0.083333 0.895833
vt 0.104167 0.927083
vt 0.052083 0.927083
vt 0.052083 0.885417
vt 0.083333 0.958333
vt 0.052083 0.979167
vt 0.010417 0.927083
vt 0.020833 0.895833
vt 0.020833 0.958333
s 0
g Safe_Safe
usemtl Safe
f 1/1/1 2/2/1 4/3/1 3/4/1
f 3/5/2 4/6/2 8/7/2 45/8/2 18/9/2 33/10/2 9/11/2 41/12/2 14/13/2 29/14/2 7/15/2
f 84/16/3 31/17/3 6/18/3 48/19/3
f 5/20/4 32/21/4 17/22/4 44/23/4 12/24/4 36/25/4 21/26/4 48/27/4 6/28/4 2/29/4 1/30/4
f 3/29/5 7/28/5 30/27/5 15/26/5 42/25/5 10/24/5 34/23/5 19/22/5 46/21/5 5/20/5 1/30/5
f 8/7/6 4/6/6 2/5/6 6/15/6 31/14/6 16/13/6 43/12/6 11/11/6 35/10/6 20/9/6 47/8/6
f 83/31/3 37/32/3 12/33/3 44/34/3
f 82/35/3 38/36/3 13/37/3 51/38/3
f 81/39/3 35/40/3 11/41/3 52/42/3
f 80/43/3 53/44/3 25/45/3 40/46/3
f 55/47/7 79/48/7 96/49/7 97/50/7
f 78/51/3 47/52/3 20/53/3 56/54/3
f 77/55/3 57/56/3 24/57/3 39/58/3
f 76/59/3 58/60/3 26/61/3 59/62/3
f 75/63/3 50/64/3 23/65/3 60/66/3
f 74/67/3 61/68/3 17/69/3 32/70/3
f 73/71/3 62/72/3 27/73/3 63/74/3
f 72/75/3 49/76/3 22/77/3 64/78/3
f 71/79/3 65/80/3 21/81/3 36/82/3
f 70/83/3 66/84/3 28/85/3 67/86/3
f 69/87/3 43/88/3 16/89/3 68/90/3
f 66/84/3 69/87/3 68/90/3 28/85/3
f 25/45/3 52/42/3 69/87/3 66/84/3
f 52/42/3 11/41/3 43/88/3 69/87/3
f 49/76/3 70/83/3 67/86/3 22/77/3
f 13/37/3 40/46/3 70/83/3 49/76/3
f 40/46/3 25/45/3 66/84/3 70/83/3
f 37/32/3 71/79/3 36/82/3 12/33/3
f 22/77/3 67/86/3 71/79/3 37/32/3
f 67/86/3 28/85/3 65/80/3 71/79/3
f 62/72/3 72/75/3 64/78/3 27/73/3
f 24/57/3 51/38/3 72/75/3 62/72/3
f 51/38/3 13/37/3 49/76/3 72/75/3
f 34/91/3 73/71/3 63/74/3 19/92/3
f 10/93/3 39/58/3 73/71/3 34/91/3
f 39/58/3 24/57/3 62/72/3 73/71/3
f 46/94/3 74/67/3 32/70/3 5/95/3
f 19/92/3 63/74/3 74/67/3 46/94/3
f 63/74/3 27/73/3 61/68/3 74/67/3
f 58/60/3 75/63/3 60/66/3 26/61/3
f 14/96/3 41/97/3 75/63/3 58/60/3
f 41/97/3 9/98/3 50/64/3 75/63/3
f 30/99/3 76/59/3 59/62/3 15/100/3
f 7/101/3 29/102/3 76/59/3 30/99/3
f 29/102/3 14/96/3 58/60/3 76/59/3
f 42/103/3 77/55/3 39/58/3 10/93/3
f 15/100/3 59/62/3 77/55/3 42/103/3
f 59/62/3 26/61/3 57/56/3 77/55/3
f 81/49/8 53/50/8 87/50/8 100/49/8
f 18/104/3 45/105/3 78/51/3 54/106/3
f 45/105/3 8/107/3 47/52/3 78/51/3
f 50/64/3 79/108/3 55/109/3 23/65/3
f 9/98/3 33/110/3 79/108/3 50/64/3
f 33/110/3 18/104/3 54/106/3 79/108/3
f 38/36/3 80/43/3 40/46/3 13/37/3
f 23/65/3 55/109/3 80/43/3 38/36/3
f 79/111/9 54/112/9 95/113/9 96/114/9
f 53/44/3 81/39/3 52/42/3 25/45/3
f 80/115/10 55/47/10 97/50/10 98/116/10
f 56/54/3 20/53/3 35/40/3 81/39/3
f 57/56/3 82/35/3 51/38/3 24/57/3
f 26/61/3 60/66/3 82/35/3 57/56/3
f 60/66/3 23/65/3 38/36/3 82/35/3
f 61/68/3 83/31/3 44/34/3 17/69/3
f 27/73/3 64/78/3 83/31/3 61/68/3
f 64/78/3 22/77/3 37/32/3 83/31/3
f 65/80/3 84/16/3 48/19/3 21/81/3
f 28/85/3 68/90/3 84/16/3 65/80/3
f 68/90/3 16/89/3 31/17/3 84/16/3
f 85/117/11 89/118/11 106/119/11 101/120/11
f 90/121/9 85/117/9 101/120/9 107/122/9
f 99/123/12 91/124/12 108/125/12 104/126/12
f 92/127/8 99/123/8 104/126/8 109/128/8
f 56/113/13 81/114/13 100/114/13 86/113/13
f 54/112/11 78/129/11 93/130/11 95/113/11
f 53/50/12 80/115/12 98/116/12 87/50/12
f 78/129/14 56/113/14 86/113/14 93/130/14
f 94/131/3 89/132/3 93/133/3 86/134/3
f 89/132/3 85/135/3 95/136/3 93/133/3
f 90/137/3 88/138/3 97/139/3 96/140/3
f 85/135/3 90/137/3 96/140/3 95/136/3
f 88/138/3 91/141/3 98/142/3 97/139/3
f 91/141/3 99/143/3 87/144/3 98/142/3
f 92/145/3 94/131/3 86/134/3 100/146/3
f 99/143/3 92/145/3 100/146/3 87/144/3
f 107/147/3 101/148/3 102/149/3 105/150/3
f 101/148/3 106/151/3 103/152/3 102/149/3
f 105/150/3 102/149/3 104/153/3 108/154/3
f 102/149/3 103/152/3 109/155/3 104/153/3
f 94/117/13 92/121/13 109/122/13 103/120/13
f 91/124/10 88/123/10 105/126/10 108/125/10
f 88/123/7 90/127/7 107/128/7 105/126/7
f 89/118/14 94/117/14 103/120/14 106/119/14
