# Blender 5.0.0
# www.blender.org
mtllib Stacked Paper Documents.mtl
o Paper_Documents(Stacked).002
v -0.541044 0.002182 0.729947
v 0.465704 0.002182 0.780174
v -0.465704 0.002182 -0.780174
v 0.541044 0.002182 -0.729947
v -0.465704 0.016877 -0.780174
v -0.541044 0.016877 0.729947
v 0.465704 0.016877 0.780174
v 0.541044 0.016877 -0.729947
v -0.621711 -0.035447 0.662591
v 0.372503 -0.035447 0.828730
v -0.372503 -0.035447 -0.828730
v 0.621711 -0.035447 -0.662591
v -0.372503 -0.020751 -0.828730
v -0.621711 -0.020751 0.662591
v 0.372503 -0.020751 0.828730
v 0.621711 -0.020751 -0.662591
v -0.422208 -0.016877 0.804545
v 0.580269 -0.016877 0.699170
v -0.580269 -0.016877 -0.699170
v 0.422208 -0.016877 -0.804545
v -0.580269 -0.002182 -0.699170
v -0.422208 -0.002182 0.804545
v 0.580269 -0.002182 0.699170
v 0.422208 -0.002182 -0.804545
v -0.488561 0.020751 0.766068
v 0.519232 0.020751 0.745621
v -0.519232 0.020751 -0.745621
v 0.488561 0.020751 -0.766068
v -0.519232 0.035447 -0.745621
v -0.488561 0.035447 0.766068
v 0.519232 0.035447 0.745621
v 0.488561 0.035447 -0.766068
vn -0.0000 -1.0000 -0.0000
vn -0.0000 1.0000 -0.0000
vn -0.0498 -0.0000 0.9988
vn 0.9988 -0.0000 0.0498
vn -0.9988 -0.0000 -0.0498
vn 0.0498 -0.0000 -0.9988
vn -0.1648 -0.0000 0.9863
vn 0.9863 -0.0000 0.1648
vn -0.9863 -0.0000 -0.1648
vn 0.1648 -0.0000 -0.9863
vn 0.1045 -0.0000 0.9945
vn 0.9945 -0.0000 -0.1045
vn -0.9945 -0.0000 0.1045
vn -0.1045 -0.0000 -0.9945
vn 0.0203 -0.0000 0.9998
vn 0.9998 -0.0000 -0.0203
vn -0.9998 -0.0000 0.0203
vn -0.0203 -0.0000 -0.9998
vt 0.520833 0.208333
vt 0.520833 0.916667
vt 0.937500 0.916667
vt 0.937500 0.208333
vt 0.083333 0.208333
vt 0.500000 0.208333
vt 0.500000 0.916667
vt 0.083333 0.916667
vt 0.708333 0.020833
vt 0.958333 0.020833
vt 0.958333 0.041667
vt 0.708333 0.041667
vt 0.979167 0.020833
vt 0.979167 0.041667
vt 0.729167 0.020833
vt 0.729167 0.041667
s 0
g Paper_Documents(Stacked).002_Documents
usemtl Documents
f 1/1/1 3/2/1 4/3/1 2/4/1
f 6/5/2 7/6/2 8/7/2 5/8/2
f 1/9/3 2/10/3 7/11/3 6/12/3
f 2/9/4 4/13/4 8/14/4 7/12/4
f 3/10/5 1/9/5 6/12/5 5/11/5
f 4/13/6 3/15/6 5/16/6 8/14/6
f 9/1/1 11/2/1 12/3/1 10/4/1
f 14/5/2 15/6/2 16/7/2 13/8/2
f 9/9/7 10/10/7 15/11/7 14/12/7
f 10/9/8 12/13/8 16/14/8 15/12/8
f 11/10/9 9/9/9 14/12/9 13/11/9
f 12/13/10 11/15/10 13/16/10 16/14/10
f 17/1/1 19/2/1 20/3/1 18/4/1
f 22/5/2 23/6/2 24/7/2 21/8/2
f 17/9/11 18/10/11 23/11/11 22/12/11
f 18/9/12 20/13/12 24/14/12 23/12/12
f 19/10/13 17/9/13 22/12/13 21/11/13
f 20/13/14 19/15/14 21/16/14 24/14/14
f 25/1/1 27/2/1 28/3/1 26/4/1
f 30/5/2 31/6/2 32/7/2 29/8/2
f 25/9/15 26/10/15 31/11/15 30/12/15
f 26/9/16 28/13/16 32/14/16 31/12/16
f 27/10/17 25/9/17 30/12/17 29/11/17
f 28/13/18 27/15/18 29/16/18 32/14/18
