# Blender 5.0.0
# www.blender.org
mtllib Water Bottle.mtl
o Water_Bottle
v 0.000000 -0.004534 -0.976112
v 0.190430 -0.004534 -0.957357
v 0.373542 -0.004534 -0.901810
v 0.542299 -0.004534 -0.811608
v 0.690216 -0.004534 -0.690216
v 0.811608 -0.004534 -0.542299
v 0.901810 -0.004534 -0.373542
v 0.957357 -0.004534 -0.190430
v 0.976112 -0.004534 0.000000
v 0.957357 -0.004534 0.190430
v 0.901810 -0.004534 0.373542
v 0.811608 -0.004534 0.542299
v 0.690216 -0.004534 0.690216
v 0.542299 -0.004534 0.811608
v 0.373542 -0.004534 0.901810
v 0.190430 -0.004534 0.957357
v 0.000000 -0.004534 0.976112
v -0.190430 -0.004534 0.957357
v -0.373542 -0.004534 0.901810
v -0.542299 -0.004534 0.811608
v -0.690216 -0.004534 0.690216
v -0.811608 -0.004534 0.542299
v -0.901810 -0.004534 0.373542
v -0.957357 -0.004534 0.190430
v -0.976112 -0.004534 0.000000
v -0.957357 -0.004534 -0.190430
v -0.901810 -0.004534 -0.373542
v -0.811608 -0.004534 -0.542299
v -0.690216 -0.004534 -0.690216
v -0.542299 -0.004534 -0.811608
v -0.373542 -0.004534 -0.901810
v -0.190430 -0.004534 -0.957357
v 0.000000 4.024271 -0.374965
v 0.000000 3.275663 -0.976112
v 0.000000 4.005502 -0.694916
v 0.000000 3.950135 -0.771361
v 0.000000 3.860948 -0.839937
v 0.000000 3.742413 -0.897206
v 0.000000 3.600472 -0.940295
v 0.000000 3.442244 -0.967044
v 0.073152 4.024271 -0.367760
v 0.190430 3.275663 -0.957357
v 0.135571 4.005502 -0.681563
v 0.150485 3.950135 -0.756539
v 0.163863 3.860948 -0.823798
v 0.175036 3.742413 -0.879966
v 0.183442 3.600472 -0.922227
v 0.188661 3.442244 -0.948463
v 0.143493 4.024271 -0.346423
v 0.373542 3.275663 -0.901810
v 0.265933 4.005502 -0.642018
v 0.295187 3.950135 -0.712644
v 0.321430 3.860948 -0.776000
v 0.343346 3.742413 -0.828910
v 0.359835 3.600472 -0.868719
v 0.370072 3.442244 -0.893432
v 0.208320 4.024271 -0.311772
v 0.542299 3.275663 -0.811608
v 0.386074 4.005502 -0.577801
v 0.428545 3.950135 -0.641363
v 0.466644 3.860948 -0.698382
v 0.498461 3.742413 -0.745999
v 0.522400 3.600472 -0.781827
v 0.537261 3.442244 -0.804068
v 0.265140 4.024271 -0.265140
v 0.690216 3.275663 -0.690216
v 0.491380 4.005502 -0.491380
v 0.545434 3.950135 -0.545434
v 0.593925 3.860948 -0.593925
v 0.634420 3.742413 -0.634420
v 0.664889 3.600472 -0.664889
v 0.683804 3.442244 -0.683804
v 0.311772 4.024271 -0.208320
v 0.811608 3.275663 -0.542299
v 0.577801 4.005502 -0.386075
v 0.641363 3.950135 -0.428545
v 0.698382 3.860948 -0.466644
v 0.745999 3.742413 -0.498461
v 0.781827 3.600472 -0.522400
v 0.804068 3.442244 -0.537261
v 0.346423 4.024271 -0.143493
v 0.901810 3.275663 -0.373542
v 0.642018 4.005502 -0.265933
v 0.712644 3.950135 -0.295187
v 0.776000 3.860948 -0.321430
v 0.828910 3.742413 -0.343346
v 0.868719 3.600472 -0.359835
v 0.893432 3.442244 -0.370072
v 0.367760 4.024271 -0.073152
v 0.957357 3.275663 -0.190430
v 0.681563 4.005502 -0.135571
v 0.756539 3.950135 -0.150485
v 0.823798 3.860948 -0.163863
v 0.879966 3.742413 -0.175036
v 0.922227 3.600472 -0.183442
v 0.948463 3.442244 -0.188661
v 0.374965 4.024271 0.000000
v 0.976112 3.275663 0.000000
v 0.694916 4.005502 0.000000
v 0.771361 3.950135 0.000000
v 0.839937 3.860948 0.000000
v 0.897206 3.742413 0.000000
v 0.940295 3.600472 0.000000
v 0.967044 3.442244 0.000000
v 0.367760 4.024271 0.073152
v 0.957357 3.275663 0.190430
v 0.681563 4.005502 0.135571
v 0.756539 3.950135 0.150485
v 0.823798 3.860948 0.163863
v 0.879966 3.742413 0.175036
v 0.922227 3.600472 0.183442
v 0.948463 3.442244 0.188661
v 0.346423 4.024271 0.143493
v 0.901810 3.275663 0.373542
v 0.642018 4.005502 0.265933
v 0.712644 3.950135 0.295187
v 0.776000 3.860948 0.321430
v 0.828910 3.742413 0.343346
v 0.868719 3.600472 0.359835
v 0.893432 3.442244 0.370072
v 0.311772 4.024271 0.208320
v 0.811608 3.275663 0.542299
v 0.577801 4.005502 0.386074
v 0.641363 3.950135 0.428545
v 0.698382 3.860948 0.466644
v 0.745999 3.742413 0.498461
v 0.781827 3.600472 0.522400
v 0.804068 3.442244 0.537261
v 0.265140 4.024271 0.265140
v 0.690216 3.275663 0.690216
v 0.491380 4.005502 0.491380
v 0.545434 3.950135 0.545434
v 0.593925 3.860948 0.593925
v 0.634420 3.742413 0.634420
v 0.664889 3.600472 0.664889
v 0.683804 3.442244 0.683804
v 0.208320 4.024271 0.311772
v 0.542299 3.275663 0.811608
v 0.386075 4.005502 0.577801
v 0.428545 3.950135 0.641363
v 0.466644 3.860948 0.698382
v 0.498461 3.742413 0.745999
v 0.522400 3.600472 0.781827
v 0.537261 3.442244 0.804068
v 0.143493 4.024271 0.346423
v 0.373542 3.275663 0.901810
v 0.265933 4.005502 0.642018
v 0.295187 3.950135 0.712644
v 0.321430 3.860948 0.776000
v 0.343346 3.742413 0.828910
v 0.359835 3.600472 0.868719
v 0.370072 3.442244 0.893432
v 0.073152 4.024271 0.367760
v 0.190430 3.275663 0.957357
v 0.135571 4.005502 0.681563
v 0.150485 3.950135 0.756539
v 0.163863 3.860948 0.823798
v 0.175036 3.742413 0.879966
v 0.183442 3.600472 0.922227
v 0.188661 3.442244 0.948463
v 0.000000 4.024271 0.374965
v 0.000000 3.275663 0.976112
v 0.000000 4.005502 0.694916
v 0.000000 3.950135 0.771361
v 0.000000 3.860948 0.839937
v 0.000000 3.742413 0.897206
v 0.000000 3.600472 0.940295
v 0.000000 3.442244 0.967044
v -0.073152 4.024271 0.367760
v -0.190430 3.275663 0.957357
v -0.135571 4.005502 0.681563
v -0.150485 3.950135 0.756539
v -0.163863 3.860948 0.823798
v -0.175036 3.742413 0.879966
v -0.183442 3.600472 0.922227
v -0.188661 3.442244 0.948463
v -0.143493 4.024271 0.346423
v -0.373542 3.275663 0.901810
v -0.265933 4.005502 0.642018
v -0.295187 3.950135 0.712644
v -0.321430 3.860948 0.776000
v -0.343346 3.742413 0.828910
v -0.359835 3.600472 0.868719
v -0.370072 3.442244 0.893432
v -0.208320 4.024271 0.311772
v -0.542299 3.275663 0.811608
v -0.386074 4.005502 0.577801
v -0.428545 3.950135 0.641363
v -0.466644 3.860948 0.698382
v -0.498461 3.742413 0.745999
v -0.522400 3.600472 0.781827
v -0.537261 3.442244 0.804068
v -0.265140 4.024271 0.265140
v -0.690216 3.275663 0.690216
v -0.491380 4.005502 0.491380
v -0.545434 3.950135 0.545434
v -0.593925 3.860948 0.593925
v -0.634420 3.742413 0.634420
v -0.664889 3.600472 0.664889
v -0.683804 3.442244 0.683804
v -0.311772 4.024271 0.208320
v -0.811608 3.275663 0.542299
v -0.577801 4.005502 0.386075
v -0.641363 3.950135 0.428545
v -0.698382 3.860948 0.466644
v -0.745999 3.742413 0.498461
v -0.781827 3.600472 0.522400
v -0.804068 3.442244 0.537261
v -0.346423 4.024271 0.143493
v -0.901810 3.275663 0.373542
v -0.642018 4.005502 0.265933
v -0.712644 3.950135 0.295187
v -0.776000 3.860948 0.321430
v -0.828910 3.742413 0.343346
v -0.868719 3.600472 0.359835
v -0.893432 3.442244 0.370072
v -0.367760 4.024271 0.073152
v -0.957357 3.275663 0.190430
v -0.681563 4.005502 0.135571
v -0.756539 3.950135 0.150485
v -0.823798 3.860948 0.163863
v -0.879966 3.742413 0.175036
v -0.922227 3.600472 0.183442
v -0.948463 3.442244 0.188661
v -0.374965 4.024271 0.000000
v -0.976112 3.275663 0.000000
v -0.694916 4.005502 0.000000
v -0.771361 3.950135 0.000000
v -0.839937 3.860948 0.000000
v -0.897206 3.742413 0.000000
v -0.940295 3.600472 0.000000
v -0.967044 3.442244 0.000000
v -0.367760 4.024271 -0.073152
v -0.957357 3.275663 -0.190430
v -0.681563 4.005502 -0.135571
v -0.756539 3.950135 -0.150485
v -0.823798 3.860948 -0.163863
v -0.879966 3.742413 -0.175036
v -0.922227 3.600472 -0.183442
v -0.948463 3.442244 -0.188661
v -0.346423 4.024271 -0.143493
v -0.901810 3.275663 -0.373542
v -0.642018 4.005502 -0.265933
v -0.712644 3.950135 -0.295187
v -0.776000 3.860948 -0.321430
v -0.828910 3.742413 -0.343346
v -0.868719 3.600472 -0.359835
v -0.893432 3.442244 -0.370072
v -0.311772 4.024271 -0.208320
v -0.811608 3.275663 -0.542299
v -0.577801 4.005502 -0.386074
v -0.641363 3.950135 -0.428545
v -0.698382 3.860948 -0.466644
v -0.745999 3.742413 -0.498461
v -0.781827 3.600472 -0.522400
v -0.804068 3.442244 -0.537261
v -0.265140 4.024271 -0.265140
v -0.690216 3.275663 -0.690216
v -0.491380 4.005502 -0.491380
v -0.545434 3.950135 -0.545434
v -0.593925 3.860948 -0.593925
v -0.634420 3.742413 -0.634420
v -0.664889 3.600472 -0.664889
v -0.683804 3.442244 -0.683804
v -0.208320 4.024271 -0.311772
v -0.542299 3.275663 -0.811608
v -0.386075 4.005502 -0.577801
v -0.428545 3.950135 -0.641363
v -0.466644 3.860948 -0.698382
v -0.498461 3.742413 -0.745999
v -0.522400 3.600472 -0.781827
v -0.537261 3.442244 -0.804068
v -0.143493 4.024271 -0.346423
v -0.373542 3.275663 -0.901810
v -0.265933 4.005502 -0.642018
v -0.295187 3.950135 -0.712644
v -0.321430 3.860948 -0.776000
v -0.343346 3.742413 -0.828910
v -0.359835 3.600472 -0.868719
v -0.370072 3.442244 -0.893432
v -0.073152 4.024271 -0.367760
v -0.190430 3.275663 -0.957357
v -0.135571 4.005502 -0.681563
v -0.150485 3.950135 -0.756539
v -0.163863 3.860948 -0.823798
v -0.175036 3.742413 -0.879966
v -0.183442 3.600472 -0.922227
v -0.188661 3.442244 -0.948463
v 0.000000 4.024271 -0.614435
v 0.119870 4.024271 -0.602629
v 0.235134 4.024271 -0.567664
v 0.341362 4.024271 -0.510884
v 0.434471 4.024271 -0.434471
v 0.510884 4.024271 -0.341362
v 0.567664 4.024271 -0.235134
v 0.602629 4.024271 -0.119870
v 0.614435 4.024271 0.000000
v 0.602629 4.024271 0.119870
v 0.567664 4.024271 0.235134
v 0.510884 4.024271 0.341362
v 0.434471 4.024271 0.434471
v 0.341362 4.024271 0.510884
v 0.235134 4.024271 0.567664
v 0.119870 4.024271 0.602629
v 0.000000 4.024271 0.614435
v -0.119870 4.024271 0.602629
v -0.235134 4.024271 0.567664
v -0.341362 4.024271 0.510884
v -0.434471 4.024271 0.434471
v -0.510884 4.024271 0.341362
v -0.567664 4.024271 0.235134
v -0.602629 4.024271 0.119870
v -0.614435 4.024271 0.000000
v -0.602629 4.024271 -0.119870
v -0.567664 4.024271 -0.235134
v -0.510884 4.024271 -0.341362
v -0.434471 4.024271 -0.434471
v -0.341362 4.024271 -0.510884
v -0.235134 4.024271 -0.567664
v -0.119870 4.024271 -0.602629
v 0.000000 4.138707 -0.374965
v 0.073152 4.138707 -0.367760
v 0.143493 4.138707 -0.346423
v 0.208320 4.138707 -0.311772
v 0.265140 4.138707 -0.265140
v 0.311772 4.138707 -0.208320
v 0.346423 4.138707 -0.143493
v 0.367760 4.138707 -0.073152
v 0.374965 4.138707 0.000000
v 0.367760 4.138707 0.073152
v 0.346423 4.138707 0.143493
v 0.311772 4.138707 0.208320
v 0.265140 4.138707 0.265140
v 0.208320 4.138707 0.311772
v 0.143493 4.138707 0.346423
v 0.073152 4.138707 0.367760
v 0.000000 4.138707 0.374965
v -0.073152 4.138707 0.367760
v -0.143493 4.138707 0.346423
v -0.208320 4.138707 0.311772
v -0.265140 4.138707 0.265140
v -0.311772 4.138707 0.208320
v -0.346423 4.138707 0.143493
v -0.367760 4.138707 0.073152
v -0.374965 4.138707 0.000000
v -0.367760 4.138707 -0.073152
v -0.346423 4.138707 -0.143493
v -0.311772 4.138707 -0.208320
v -0.265140 4.138707 -0.265140
v -0.208320 4.138707 -0.311772
v -0.143493 4.138707 -0.346423
v -0.073152 4.138707 -0.367760
v 0.000000 4.138707 -0.456271
v 0.089014 4.138707 -0.447504
v 0.174608 4.138707 -0.421540
v 0.253491 4.138707 -0.379376
v 0.322633 4.138707 -0.322633
v 0.379376 4.138707 -0.253491
v 0.421540 4.138707 -0.174607
v 0.447504 4.138707 -0.089014
v 0.456271 4.138707 0.000000
v 0.447504 4.138707 0.089014
v 0.421540 4.138707 0.174608
v 0.379376 4.138707 0.253491
v 0.322633 4.138707 0.322633
v 0.253491 4.138707 0.379376
v 0.174608 4.138707 0.421540
v 0.089014 4.138707 0.447504
v 0.000000 4.138707 0.456271
v -0.089014 4.138707 0.447504
v -0.174607 4.138707 0.421540
v -0.253491 4.138707 0.379376
v -0.322633 4.138707 0.322633
v -0.379376 4.138707 0.253491
v -0.421540 4.138707 0.174608
v -0.447504 4.138707 0.089014
v -0.456271 4.138707 0.000000
v -0.447504 4.138707 -0.089014
v -0.421540 4.138707 -0.174607
v -0.379376 4.138707 -0.253491
v -0.322633 4.138707 -0.322633
v -0.253491 4.138707 -0.379376
v -0.174607 4.138707 -0.421540
v -0.089014 4.138707 -0.447504
v 0.000000 4.446350 -0.456271
v 0.089014 4.446350 -0.447504
v 0.174608 4.446350 -0.421540
v 0.253491 4.446350 -0.379376
v 0.322633 4.446350 -0.322633
v 0.379376 4.446350 -0.253491
v 0.421540 4.446350 -0.174607
v 0.447504 4.446350 -0.089014
v 0.456271 4.446350 0.000000
v 0.447504 4.446350 0.089014
v 0.421540 4.446350 0.174608
v 0.379376 4.446350 0.253491
v 0.322633 4.446350 0.322633
v 0.253491 4.446350 0.379376
v 0.174608 4.446350 0.421540
v 0.089014 4.446350 0.447504
v 0.000000 4.446350 0.456271
v -0.089014 4.446350 0.447504
v -0.174607 4.446350 0.421540
v -0.253491 4.446350 0.379376
v -0.322633 4.446350 0.322633
v -0.379376 4.446350 0.253491
v -0.421540 4.446350 0.174608
v -0.447504 4.446350 0.089014
v -0.456271 4.446350 0.000000
v -0.447504 4.446350 -0.089014
v -0.421540 4.446350 -0.174607
v -0.379376 4.446350 -0.253491
v -0.322633 4.446350 -0.322633
v -0.253491 4.446350 -0.379376
v -0.174607 4.446350 -0.421540
v -0.089014 4.446350 -0.447504
vn -0.0000 -1.0000 -0.0000
vn 0.0979 0.0541 -0.9937
vn 0.0967 0.1659 -0.9814
vn 0.0938 0.2892 -0.9527
vn 0.0883 0.4333 -0.8969
vn 0.0778 0.6077 -0.7903
vn 0.0577 0.8085 -0.5856
vn 0.0224 0.9736 -0.2271
vn 0.2899 0.0541 -0.9555
vn 0.2863 0.1659 -0.9437
vn 0.2779 0.2892 -0.9160
vn 0.2616 0.4333 -0.8624
vn 0.2305 0.6077 -0.7600
vn 0.1708 0.8085 -0.5631
vn 0.0662 0.9736 -0.2183
vn 0.4707 0.0541 -0.8806
vn 0.4649 0.1659 -0.8697
vn 0.4513 0.2892 -0.8442
vn 0.4248 0.4333 -0.7948
vn 0.3744 0.6077 -0.7004
vn 0.2774 0.8085 -0.5190
vn 0.1076 0.9736 -0.2012
vn 0.6335 0.0541 -0.7719
vn 0.6256 0.1659 -0.7623
vn 0.6073 0.2892 -0.7400
vn 0.5717 0.4333 -0.6967
vn 0.5038 0.6077 -0.6139
vn 0.3733 0.8085 -0.4549
vn 0.1447 0.9736 -0.1764
vn 0.7719 0.0541 -0.6335
vn 0.7623 0.1659 -0.6256
vn 0.7400 0.2892 -0.6073
vn 0.6967 0.4333 -0.5717
vn 0.6139 0.6077 -0.5038
vn 0.4549 0.8085 -0.3733
vn 0.1764 0.9736 -0.1447
vn 0.8806 0.0541 -0.4707
vn 0.8697 0.1659 -0.4649
vn 0.8442 0.2892 -0.4513
vn 0.7948 0.4333 -0.4248
vn 0.7004 0.6077 -0.3744
vn 0.5190 0.8085 -0.2774
vn 0.2012 0.9736 -0.1076
vn 0.9555 0.0541 -0.2899
vn 0.9437 0.1659 -0.2863
vn 0.9160 0.2892 -0.2779
vn 0.8624 0.4333 -0.2616
vn 0.7600 0.6077 -0.2305
vn 0.5631 0.8085 -0.1708
vn 0.2183 0.9736 -0.0662
vn 0.9937 0.0541 -0.0979
vn 0.9814 0.1659 -0.0967
vn 0.9527 0.2892 -0.0938
vn 0.8969 0.4333 -0.0883
vn 0.7903 0.6077 -0.0778
vn 0.5856 0.8085 -0.0577
vn 0.2271 0.9736 -0.0224
vn 0.9937 0.0541 0.0979
vn 0.9814 0.1659 0.0967
vn 0.9527 0.2892 0.0938
vn 0.8969 0.4333 0.0883
vn 0.7903 0.6077 0.0778
vn 0.5856 0.8085 0.0577
vn 0.2271 0.9736 0.0224
vn 0.9555 0.0541 0.2899
vn 0.9437 0.1659 0.2863
vn 0.9160 0.2892 0.2779
vn 0.8624 0.4333 0.2616
vn 0.7600 0.6077 0.2305
vn 0.5631 0.8085 0.1708
vn 0.2183 0.9736 0.0662
vn 0.8806 0.0541 0.4707
vn 0.8697 0.1659 0.4649
vn 0.8442 0.2892 0.4513
vn 0.7948 0.4333 0.4248
vn 0.7004 0.6077 0.3744
vn 0.5190 0.8085 0.2774
vn 0.2012 0.9736 0.1076
vn 0.7719 0.0541 0.6335
vn 0.7623 0.1659 0.6256
vn 0.7400 0.2892 0.6073
vn 0.6967 0.4333 0.5717
vn 0.6139 0.6077 0.5038
vn 0.4549 0.8085 0.3733
vn 0.1764 0.9736 0.1447
vn 0.6335 0.0541 0.7719
vn 0.6256 0.1659 0.7623
vn 0.6073 0.2892 0.7400
vn 0.5717 0.4333 0.6967
vn 0.5038 0.6077 0.6139
vn 0.3733 0.8085 0.4549
vn 0.1447 0.9736 0.1764
vn 0.4707 0.0541 0.8806
vn 0.4649 0.1659 0.8697
vn 0.4513 0.2892 0.8442
vn 0.4248 0.4333 0.7948
vn 0.3744 0.6077 0.7004
vn 0.2774 0.8085 0.5190
vn 0.1076 0.9736 0.2012
vn 0.2899 0.0541 0.9555
vn 0.2863 0.1659 0.9437
vn 0.2779 0.2892 0.9160
vn 0.2616 0.4333 0.8624
vn 0.2305 0.6077 0.7600
vn 0.1708 0.8085 0.5631
vn 0.0662 0.9736 0.2183
vn 0.0979 0.0541 0.9937
vn 0.0967 0.1659 0.9814
vn 0.0938 0.2892 0.9527
vn 0.0883 0.4333 0.8969
vn 0.0778 0.6077 0.7903
vn 0.0577 0.8085 0.5856
vn 0.0224 0.9736 0.2271
vn -0.0979 0.0541 0.9937
vn -0.0967 0.1659 0.9814
vn -0.0938 0.2892 0.9527
vn -0.0883 0.4333 0.8969
vn -0.0778 0.6077 0.7903
vn -0.0577 0.8085 0.5856
vn -0.0224 0.9736 0.2271
vn -0.2899 0.0541 0.9555
vn -0.2863 0.1659 0.9437
vn -0.2779 0.2892 0.9160
vn -0.2616 0.4333 0.8624
vn -0.2305 0.6077 0.7600
vn -0.1708 0.8085 0.5631
vn -0.0662 0.9736 0.2183
vn -0.4707 0.0541 0.8806
vn -0.4649 0.1659 0.8697
vn -0.4513 0.2892 0.8442
vn -0.4248 0.4333 0.7948
vn -0.3744 0.6077 0.7004
vn -0.2774 0.8085 0.5190
vn -0.1076 0.9736 0.2012
vn -0.6335 0.0541 0.7719
vn -0.6256 0.1659 0.7623
vn -0.6073 0.2892 0.7400
vn -0.5717 0.4333 0.6967
vn -0.5038 0.6077 0.6139
vn -0.3733 0.8085 0.4549
vn -0.1447 0.9736 0.1764
vn -0.7719 0.0541 0.6335
vn -0.7623 0.1659 0.6256
vn -0.7400 0.2892 0.6073
vn -0.6967 0.4333 0.5717
vn -0.6139 0.6077 0.5038
vn -0.4549 0.8085 0.3733
vn -0.1764 0.9736 0.1447
vn -0.8806 0.0541 0.4707
vn -0.8697 0.1659 0.4649
vn -0.8442 0.2892 0.4513
vn -0.7948 0.4333 0.4248
vn -0.7004 0.6077 0.3744
vn -0.5190 0.8085 0.2774
vn -0.2012 0.9736 0.1076
vn -0.9555 0.0541 0.2899
vn -0.9437 0.1659 0.2863
vn -0.9160 0.2892 0.2779
vn -0.8624 0.4333 0.2616
vn -0.7600 0.6077 0.2305
vn -0.5631 0.8085 0.1708
vn -0.2183 0.9736 0.0662
vn -0.9937 0.0541 0.0979
vn -0.9814 0.1659 0.0967
vn -0.9527 0.2892 0.0938
vn -0.8969 0.4333 0.0883
vn -0.7903 0.6077 0.0778
vn -0.5856 0.8085 0.0577
vn -0.2271 0.9736 0.0224
vn -0.9937 0.0541 -0.0979
vn -0.9814 0.1659 -0.0967
vn -0.9527 0.2892 -0.0938
vn -0.8969 0.4333 -0.0883
vn -0.7903 0.6077 -0.0778
vn -0.5856 0.8085 -0.0577
vn -0.2271 0.9736 -0.0224
vn -0.9555 0.0541 -0.2899
vn -0.9437 0.1659 -0.2863
vn -0.9160 0.2892 -0.2779
vn -0.8624 0.4333 -0.2616
vn -0.7600 0.6077 -0.2305
vn -0.5631 0.8085 -0.1708
vn -0.2183 0.9736 -0.0662
vn -0.8806 0.0541 -0.4707
vn -0.8697 0.1659 -0.4649
vn -0.8442 0.2892 -0.4513
vn -0.7948 0.4333 -0.4248
vn -0.7004 0.6077 -0.3744
vn -0.5190 0.8085 -0.2774
vn -0.2012 0.9736 -0.1076
vn -0.7719 0.0541 -0.6335
vn -0.7623 0.1659 -0.6256
vn -0.7400 0.2892 -0.6073
vn -0.6967 0.4333 -0.5717
vn -0.6139 0.6077 -0.5038
vn -0.4549 0.8085 -0.3733
vn -0.1764 0.9736 -0.1447
vn -0.6335 0.0541 -0.7719
vn -0.6256 0.1659 -0.7623
vn -0.6073 0.2892 -0.7400
vn -0.5717 0.4333 -0.6967
vn -0.5038 0.6077 -0.6139
vn -0.3733 0.8085 -0.4549
vn -0.1447 0.9736 -0.1764
vn -0.4707 0.0541 -0.8806
vn -0.4649 0.1659 -0.8697
vn -0.4513 0.2892 -0.8442
vn -0.4248 0.4333 -0.7948
vn -0.3744 0.6077 -0.7004
vn -0.2774 0.8085 -0.5190
vn -0.1076 0.9736 -0.2012
vn -0.2899 0.0541 -0.9555
vn -0.2863 0.1659 -0.9437
vn -0.2779 0.2892 -0.9160
vn -0.2616 0.4333 -0.8624
vn -0.2305 0.6077 -0.7600
vn -0.1708 0.8085 -0.5631
vn -0.0662 0.9736 -0.2183
vn -0.0979 0.0541 -0.9937
vn -0.0967 0.1659 -0.9814
vn -0.0938 0.2892 -0.9527
vn -0.0883 0.4333 -0.8969
vn -0.0778 0.6077 -0.7903
vn -0.0577 0.8085 -0.5856
vn -0.0224 0.9736 -0.2271
vn -0.7730 -0.0000 -0.6344
vn 0.0980 -0.0000 -0.9952
vn -0.0980 -0.0000 -0.9952
vn 0.2903 -0.0000 -0.9569
vn 0.4714 -0.0000 -0.8819
vn 0.6344 -0.0000 -0.7730
vn 0.7730 -0.0000 -0.6344
vn 0.8819 -0.0000 -0.4714
vn 0.9569 -0.0000 -0.2903
vn 0.9952 -0.0000 -0.0980
vn 0.9952 -0.0000 0.0980
vn 0.9569 -0.0000 0.2903
vn 0.8819 -0.0000 0.4714
vn 0.7730 -0.0000 0.6344
vn 0.6344 -0.0000 0.7730
vn 0.4714 -0.0000 0.8819
vn 0.2903 -0.0000 0.9569
vn 0.0980 -0.0000 0.9952
vn -0.0980 -0.0000 0.9952
vn -0.2903 -0.0000 0.9569
vn -0.4714 -0.0000 0.8819
vn -0.6344 -0.0000 0.7730
vn -0.7730 -0.0000 0.6344
vn -0.8819 -0.0000 0.4714
vn -0.9569 -0.0000 0.2903
vn -0.9952 -0.0000 0.0980
vn -0.9952 -0.0000 -0.0980
vn -0.9569 -0.0000 -0.2903
vn -0.8819 -0.0000 -0.4714
vn -0.6344 -0.0000 -0.7730
vn -0.4714 -0.0000 -0.8819
vn -0.2903 -0.0000 -0.9569
vn -0.0000 1.0000 -0.0000
vt 0.216003 0.409594
vt 0.253323 0.405918
vt 0.289209 0.395032
vt 0.322282 0.377354
vt 0.351270 0.353564
vt 0.375060 0.324575
vt 0.392738 0.291503
vt 0.403624 0.255617
vt 0.407300 0.218296
vt 0.403624 0.180976
vt 0.392738 0.145090
vt 0.375060 0.112017
vt 0.351270 0.083029
vt 0.322282 0.059238
vt 0.289209 0.041561
vt 0.253323 0.030675
vt 0.216003 0.026999
vt 0.178682 0.030675
vt 0.142796 0.041561
vt 0.109724 0.059238
vt 0.080735 0.083029
vt 0.056945 0.112017
vt 0.039267 0.145090
vt 0.028381 0.180976
vt 0.024705 0.218296
vt 0.028381 0.255617
vt 0.039267 0.291503
vt 0.056945 0.324575
vt 0.080735 0.353564
vt 0.109724 0.377354
vt 0.142796 0.395032
vt 0.178682 0.405918
vt 0.662590 0.357421
vt 0.618585 0.357421
vt 0.618585 0.375929
vt 0.662181 0.375929
vt 0.618585 0.393510
vt 0.660975 0.393510
vt 0.618585 0.409280
vt 0.659032 0.409280
vt 0.238175 0.869943
vt 0.198018 0.873899
vt 0.198018 0.860760
vt 0.235612 0.857057
vt 0.198018 0.845026
vt 0.232543 0.841626
vt 0.198018 0.827488
vt 0.229121 0.824425
vt 0.198018 0.809024
vt 0.225519 0.806315
vt 0.704903 0.357421
vt 0.704102 0.375929
vt 0.701736 0.393510
vt 0.697926 0.409280
vt 0.276790 0.858230
vt 0.271762 0.846091
vt 0.265741 0.831556
vt 0.259029 0.815352
vt 0.251963 0.798293
vt 0.743900 0.357421
vt 0.742736 0.375929
vt 0.739302 0.393510
vt 0.733770 0.409280
vt 0.312377 0.839208
vt 0.305077 0.828283
vt 0.296337 0.815202
vt 0.286593 0.800619
vt 0.276334 0.785267
vt 0.778081 0.357421
vt 0.776599 0.375929
vt 0.772228 0.393510
vt 0.765188 0.409280
vt 0.343569 0.813609
vt 0.334279 0.804318
vt 0.323154 0.793193
vt 0.310752 0.780792
vt 0.297696 0.767736
vt 0.742736 0.375930
vt 0.739302 0.393510
vt 0.369168 0.782416
vt 0.358244 0.775117
vt 0.345162 0.766376
vt 0.330580 0.756632
vt 0.315227 0.746374
vt 0.704904 0.357421
vt 0.704102 0.375930
vt 0.701736 0.393510
vt 0.388190 0.746829
vt 0.376051 0.741801
vt 0.361516 0.735780
vt 0.345313 0.729069
vt 0.328254 0.722003
vt 0.399904 0.708215
vt 0.387017 0.705652
vt 0.371587 0.702582
vt 0.354385 0.699161
vt 0.336276 0.695558
vt 0.618585 0.357421
vt 0.403859 0.668057
vt 0.390720 0.668057
vt 0.374987 0.668057
vt 0.357449 0.668057
vt 0.338984 0.668057
vt 0.574580 0.357421
vt 0.574988 0.375929
vt 0.576194 0.393510
vt 0.578137 0.409280
vt 0.399904 0.627900
vt 0.387017 0.630463
vt 0.371587 0.633532
vt 0.354385 0.636954
vt 0.336276 0.640556
vt 0.532266 0.357421
vt 0.533068 0.375929
vt 0.535433 0.393510
vt 0.539244 0.409280
vt 0.388190 0.589285
vt 0.376051 0.594313
vt 0.361516 0.600334
vt 0.345313 0.607046
vt 0.328254 0.614112
vt 0.493269 0.357421
vt 0.494433 0.375930
vt 0.497867 0.393510
vt 0.503399 0.409280
vt 0.369168 0.553698
vt 0.358244 0.560997
vt 0.345162 0.569738
vt 0.330580 0.579482
vt 0.315227 0.589740
vt 0.459088 0.357421
vt 0.460570 0.375929
vt 0.464941 0.393510
vt 0.471982 0.409280
vt 0.343569 0.522505
vt 0.334279 0.531796
vt 0.323154 0.542921
vt 0.310752 0.555322
vt 0.297696 0.568379
vt 0.743900 0.790827
vt 0.778081 0.790827
vt 0.776599 0.809335
vt 0.742736 0.809335
vt 0.772228 0.826915
vt 0.739302 0.826915
vt 0.765188 0.842685
vt 0.733770 0.842685
vt 0.312377 0.496906
vt 0.305077 0.507831
vt 0.296337 0.520913
vt 0.286593 0.535495
vt 0.276334 0.550848
vt 0.704903 0.790827
vt 0.704102 0.809335
vt 0.701736 0.826915
vt 0.697926 0.842685
vt 0.276790 0.477885
vt 0.271762 0.490023
vt 0.265741 0.504559
vt 0.259029 0.520762
vt 0.251963 0.537821
vt 0.662590 0.790827
vt 0.662181 0.809335
vt 0.660975 0.826915
vt 0.659032 0.842685
vt 0.238175 0.466171
vt 0.235612 0.479057
vt 0.232543 0.494488
vt 0.229121 0.511690
vt 0.225519 0.529799
vt 0.618585 0.790827
vt 0.618585 0.809335
vt 0.618585 0.826915
vt 0.618585 0.842685
vt 0.198018 0.462216
vt 0.198018 0.475355
vt 0.198018 0.491088
vt 0.198018 0.508626
vt 0.198018 0.527091
vt 0.574580 0.790827
vt 0.574988 0.809335
vt 0.576194 0.826915
vt 0.578137 0.842685
vt 0.157860 0.466171
vt 0.160423 0.479057
vt 0.163493 0.494488
vt 0.166914 0.511690
vt 0.170516 0.529799
vt 0.532266 0.790827
vt 0.533068 0.809335
vt 0.535433 0.826915
vt 0.539244 0.842685
vt 0.119246 0.477885
vt 0.124274 0.490023
vt 0.130294 0.504559
vt 0.137006 0.520762
vt 0.144072 0.537821
vt 0.493269 0.790827
vt 0.494433 0.809335
vt 0.497867 0.826915
vt 0.503399 0.842685
vt 0.083658 0.496906
vt 0.090958 0.507831
vt 0.099699 0.520913
vt 0.109443 0.535495
vt 0.119701 0.550848
vt 0.459088 0.790827
vt 0.460570 0.809335
vt 0.464941 0.826915
vt 0.471982 0.842685
vt 0.052466 0.522505
vt 0.061756 0.531796
vt 0.072881 0.542921
vt 0.085283 0.555322
vt 0.098339 0.568379
vt 0.026867 0.553698
vt 0.037791 0.560997
vt 0.050873 0.569738
vt 0.065456 0.579482
vt 0.080808 0.589740
vt 0.532266 0.790827
vt 0.007845 0.589285
vt 0.019984 0.594313
vt 0.034519 0.600334
vt 0.050723 0.607046
vt 0.067781 0.614112
vt 0.574988 0.809335
vt 0.578137 0.842685
vt -0.003869 0.627900
vt 0.009018 0.630463
vt 0.024449 0.633532
vt 0.041650 0.636954
vt 0.059760 0.640556
vt 0.618585 0.790827
vt 0.618585 0.809335
vt -0.007824 0.668057
vt 0.005315 0.668057
vt 0.021048 0.668057
vt 0.038587 0.668057
vt 0.057051 0.668057
vt 0.662181 0.809335
vt -0.003869 0.708215
vt 0.009018 0.705652
vt 0.024449 0.702582
vt 0.041650 0.699161
vt 0.059760 0.695558
vt 0.701736 0.826915
vt 0.007845 0.746829
vt 0.019984 0.741801
vt 0.034519 0.735780
vt 0.050723 0.729069
vt 0.067781 0.722003
vt 0.739302 0.826915
vt 0.026867 0.782416
vt 0.037791 0.775117
vt 0.050873 0.766376
vt 0.065456 0.756632
vt 0.080808 0.746374
vt 0.052466 0.813609
vt 0.061756 0.804318
vt 0.072881 0.793193
vt 0.085283 0.780792
vt 0.098339 0.767736
vt 0.494433 0.375929
vt 0.464941 0.393510
vt 0.083658 0.839208
vt 0.090958 0.828283
vt 0.099699 0.815202
vt 0.109443 0.800619
vt 0.119701 0.785267
vt 0.119246 0.858230
vt 0.124274 0.846091
vt 0.130294 0.831556
vt 0.137006 0.815352
vt 0.144072 0.798293
vt 0.157860 0.869943
vt 0.160423 0.857057
vt 0.163493 0.841626
vt 0.166914 0.824425
vt 0.170516 0.806315
vt 0.947994 0.636627
vt 0.934924 0.636627
vt 0.934924 0.649284
vt 0.947994 0.649284
vt 0.618585 -0.007028
vt 0.662590 -0.007028
vt 0.574580 -0.007028
vt 0.704904 -0.007028
vt 0.743900 -0.007028
vt 0.778081 -0.007028
vt 0.532266 -0.007028
vt 0.493269 -0.007028
vt 0.459088 -0.007028
vt 0.778081 0.426377
vt 0.743900 0.426377
vt 0.704904 0.426377
vt 0.662590 0.426377
vt 0.618585 0.426377
vt 0.574580 0.426377
vt 0.532266 0.426377
vt 0.493269 0.426377
vt 0.459088 0.426377
vt 0.198018 0.754084
vt 0.214800 0.752431
vt 0.230938 0.747535
vt 0.245811 0.739586
vt 0.258847 0.728887
vt 0.269546 0.715851
vt 0.277496 0.700978
vt 0.282391 0.684840
vt 0.284044 0.668057
vt 0.282391 0.651274
vt 0.277496 0.635136
vt 0.269546 0.620263
vt 0.258847 0.607227
vt 0.245811 0.596529
vt 0.230938 0.588579
vt 0.214800 0.583684
vt 0.198018 0.582031
vt 0.181235 0.583684
vt 0.165097 0.588579
vt 0.150224 0.596529
vt 0.137188 0.607227
vt 0.126489 0.620263
vt 0.118540 0.635136
vt 0.113644 0.651274
vt 0.111991 0.668057
vt 0.113644 0.684840
vt 0.118540 0.700978
vt 0.126489 0.715851
vt 0.137188 0.728887
vt 0.150224 0.739586
vt 0.165097 0.747535
vt 0.181235 0.752431
vt 0.960596 0.273208
vt 0.970782 0.285620
vt 0.985549 0.275753
vt 0.973154 0.260650
vt 0.903832 0.636627
vt 0.920012 0.636627
vt 0.920012 0.649284
vt 0.903832 0.649284
vt 0.920012 0.671948
vt 0.903832 0.671948
vt 0.903832 0.684604
vt 0.920012 0.684604
vt 0.839087 0.671948
vt 0.826017 0.671948
vt 0.826017 0.684604
vt 0.839087 0.684604
vt 0.887005 0.636627
vt 0.887005 0.649284
vt 0.934924 0.671948
vt 0.934924 0.684604
vt 0.853999 0.671948
vt 0.853999 0.684604
vt 0.870179 0.636627
vt 0.870179 0.649284
vt 0.947994 0.671948
vt 0.947994 0.684604
vt 0.870179 0.671948
vt 0.870179 0.684604
vt 0.853999 0.636627
vt 0.853999 0.649284
vt 0.887005 0.671948
vt 0.887005 0.684604
vt 0.839087 0.636627
vt 0.839087 0.649284
vt 0.826017 0.636627
vt 0.826017 0.649284
vt 0.839087 0.671948
vt 0.839087 0.684604
vt 0.892696 0.513699
vt 0.912384 0.513699
vt 0.912384 0.547724
vt 0.892696 0.547724
vt 0.827010 0.362467
vt 0.822349 0.347103
vt 0.804930 0.350567
vt 0.810602 0.369264
vt 0.948185 0.263022
vt 0.958052 0.248255
vt 0.834579 0.376628
vt 0.819812 0.386495
vt 0.934024 0.255453
vt 0.940821 0.239045
vt 0.918659 0.411455
vt 0.902681 0.413029
vt 0.902681 0.430789
vt 0.922124 0.428874
vt 0.844765 0.389039
vt 0.832207 0.401598
vt 0.918659 0.250792
vt 0.922124 0.233374
vt 0.934024 0.406794
vt 0.940821 0.423202
vt 0.857177 0.399225
vt 0.847310 0.413992
vt 0.902681 0.249219
vt 0.902681 0.231459
vt 0.948185 0.399225
vt 0.958052 0.413992
vt 0.871337 0.406794
vt 0.864540 0.423202
vt 0.886702 0.250792
vt 0.883237 0.233374
vt 0.960596 0.389039
vt 0.973154 0.401598
vt 0.886702 0.411455
vt 0.883237 0.428874
vt 0.871337 0.255453
vt 0.864540 0.239045
vt 0.970782 0.376628
vt 0.985549 0.386495
vt 0.857176 0.263022
vt 0.847310 0.248255
vt 0.978351 0.362467
vt 0.994759 0.369264
vt 0.844765 0.273208
vt 0.832207 0.260650
vt 0.983012 0.347103
vt 1.000431 0.350567
vt 0.834579 0.285620
vt 0.819812 0.275753
vt 0.984586 0.331124
vt 1.002346 0.331124
vt 0.827010 0.299780
vt 0.810602 0.292984
vt 0.983012 0.315145
vt 1.000431 0.311680
vt 0.822349 0.315145
vt 0.804930 0.311680
vt 0.978351 0.299780
vt 0.994759 0.292984
vt 0.820775 0.331124
vt 0.803015 0.331124
vt 0.922124 0.428334
vt 0.902681 0.430249
vt 0.883237 0.428334
vt 0.864540 0.422662
vt 0.847310 0.413452
vt 0.832207 0.401057
vt 0.819812 0.385955
vt 0.810602 0.368724
vt 0.804930 0.350027
vt 0.803015 0.330584
vt 0.804930 0.311140
vt 0.810602 0.292443
vt 0.819812 0.275213
vt 0.832207 0.260110
vt 0.847310 0.247715
vt 0.864540 0.238505
vt 0.883237 0.232833
vt 0.902681 0.230918
vt 0.922124 0.232833
vt 0.940821 0.238505
vt 0.958052 0.247715
vt 0.973154 0.260110
vt 0.985549 0.275213
vt 0.994759 0.292443
vt 1.000431 0.311140
vt 1.002346 0.330584
vt 1.000431 0.350027
vt 0.994759 0.368724
vt 0.985549 0.385955
vt 0.973154 0.401058
vt 0.958052 0.413452
vt 0.940821 0.422662
vt 0.914025 0.467048
vt 0.894336 0.467048
vt 0.894336 0.501073
vt 0.914025 0.501073
vt 0.815552 0.467048
vt 0.799648 0.467048
vt 0.799648 0.501073
vt 0.815552 0.501073
vt 0.872221 0.513699
vt 0.872221 0.547724
vt 0.932170 0.467048
vt 0.932170 0.501073
vt 0.833697 0.467048
vt 0.833697 0.501073
vt 0.851745 0.513699
vt 0.851745 0.547724
vt 0.948074 0.467048
vt 0.948074 0.501073
vt 0.853386 0.467048
vt 0.853386 0.501073
vt 0.832057 0.513699
vt 0.832057 0.547724
vt 0.932170 0.467048
vt 0.932170 0.501073
vt 0.873861 0.467048
vt 0.873861 0.501073
vt 0.813911 0.513699
vt 0.813911 0.547724
vt 0.798007 0.513699
vt 0.798007 0.547724
vt 0.813911 0.570193
vt 0.798007 0.570193
vt 0.798007 0.604217
vt 0.813911 0.604217
vt 0.832057 0.570193
vt 0.832057 0.604217
vt 0.851745 0.570193
vt 0.851745 0.604217
vt 0.872221 0.570193
vt 0.872221 0.604217
vt 0.815552 0.467048
vt 0.815552 0.501073
vt 0.892696 0.570193
vt 0.892696 0.604217
vt 0.912384 0.570193
vt 0.912384 0.604217
vt 0.930530 0.513699
vt 0.946434 0.513699
vt 0.946434 0.547724
vt 0.930530 0.547724
vt 0.930529 0.570193
vt 0.930529 0.604217
vt 0.946434 0.570193
vt 0.946434 0.604217
s 0
g Water_Bottle_WaterBottle
usemtl WaterBottle
f 1/1/1 2/2/1 3/3/1 4/4/1 5/5/1 6/6/1 7/7/1 8/8/1 9/9/1 10/10/1 11/11/1 12/12/1 13/13/1 14/14/1 15/15/1 16/16/1 17/17/1 18/18/1 19/19/1 20/20/1 21/21/1 22/22/1 23/23/1 24/24/1 25/25/1 26/26/1 27/27/1 28/28/1 29/29/1 30/30/1 31/31/1 32/32/1
f 42/33/2 34/34/2 40/35/2 48/36/2
f 48/36/3 40/35/3 39/37/3 47/38/3
f 47/38/4 39/37/4 38/39/4 46/40/4
f 46/41/5 38/42/5 37/43/5 45/44/5
f 45/44/6 37/43/6 36/45/6 44/46/6
f 44/46/7 36/45/7 35/47/7 43/48/7
f 43/48/8 35/47/8 289/49/8 290/50/8
f 50/51/9 42/33/9 48/36/9 56/52/9
f 56/52/10 48/36/10 47/38/10 55/53/10
f 55/53/11 47/38/11 46/40/11 54/54/11
f 54/55/12 46/41/12 45/44/12 53/56/12
f 53/56/13 45/44/13 44/46/13 52/57/13
f 52/57/14 44/46/14 43/48/14 51/58/14
f 51/58/15 43/48/15 290/50/15 291/59/15
f 58/60/16 50/51/16 56/52/16 64/61/16
f 64/61/17 56/52/17 55/53/17 63/62/17
f 63/62/18 55/53/18 54/54/18 62/63/18
f 62/64/19 54/55/19 53/56/19 61/65/19
f 61/65/20 53/56/20 52/57/20 60/66/20
f 60/66/21 52/57/21 51/58/21 59/67/21
f 59/67/22 51/58/22 291/59/22 292/68/22
f 66/69/23 58/60/23 64/61/23 72/70/23
f 72/70/24 64/61/24 63/62/24 71/71/24
f 71/71/25 63/62/25 62/63/25 70/72/25
f 70/73/26 62/64/26 61/65/26 69/74/26
f 69/74/27 61/65/27 60/66/27 68/75/27
f 68/75/28 60/66/28 59/67/28 67/76/28
f 67/76/29 59/67/29 292/68/29 293/77/29
f 74/60/30 66/69/30 72/70/30 80/78/30
f 80/78/31 72/70/31 71/71/31 79/79/31
f 79/79/32 71/71/32 70/72/32 78/63/32
f 78/80/33 70/73/33 69/74/33 77/81/33
f 77/81/34 69/74/34 68/75/34 76/82/34
f 76/82/35 68/75/35 67/76/35 75/83/35
f 75/83/36 67/76/36 293/77/36 294/84/36
f 82/85/37 74/60/37 80/78/37 88/86/37
f 88/86/38 80/78/38 79/79/38 87/87/38
f 87/87/39 79/79/39 78/63/39 86/54/39
f 86/88/40 78/80/40 77/81/40 85/89/40
f 85/89/41 77/81/41 76/82/41 84/90/41
f 84/90/42 76/82/42 75/83/42 83/91/42
f 83/91/43 75/83/43 294/84/43 295/92/43
f 90/33/44 82/85/44 88/86/44 96/36/44
f 96/36/45 88/86/45 87/87/45 95/38/45
f 95/38/46 87/87/46 86/54/46 94/40/46
f 94/93/47 86/88/47 85/89/47 93/94/47
f 93/94/48 85/89/48 84/90/48 92/95/48
f 92/95/49 84/90/49 83/91/49 91/96/49
f 91/96/50 83/91/50 295/92/50 296/97/50
f 98/98/51 90/33/51 96/36/51 104/35/51
f 104/35/52 96/36/52 95/38/52 103/37/52
f 103/37/53 95/38/53 94/40/53 102/39/53
f 102/99/54 94/93/54 93/94/54 101/100/54
f 101/100/55 93/94/55 92/95/55 100/101/55
f 100/101/56 92/95/56 91/96/56 99/102/56
f 99/102/57 91/96/57 296/97/57 297/103/57
f 106/104/58 98/98/58 104/35/58 112/105/58
f 112/105/59 104/35/59 103/37/59 111/106/59
f 111/106/60 103/37/60 102/39/60 110/107/60
f 110/108/61 102/99/61 101/100/61 109/109/61
f 109/109/62 101/100/62 100/101/62 108/110/62
f 108/110/63 100/101/63 99/102/63 107/111/63
f 107/111/64 99/102/64 297/103/64 298/112/64
f 114/113/65 106/104/65 112/105/65 120/114/65
f 120/114/66 112/105/66 111/106/66 119/115/66
f 119/115/67 111/106/67 110/107/67 118/116/67
f 118/117/68 110/108/68 109/109/68 117/118/68
f 117/118/69 109/109/69 108/110/69 116/119/69
f 116/119/70 108/110/70 107/111/70 115/120/70
f 115/120/71 107/111/71 298/112/71 299/121/71
f 122/122/72 114/113/72 120/114/72 128/123/72
f 128/123/73 120/114/73 119/115/73 127/124/73
f 127/124/74 119/115/74 118/116/74 126/125/74
f 126/126/75 118/117/75 117/118/75 125/127/75
f 125/127/76 117/118/76 116/119/76 124/128/76
f 124/128/77 116/119/77 115/120/77 123/129/77
f 123/129/78 115/120/78 299/121/78 300/130/78
f 130/131/79 122/122/79 128/123/79 136/132/79
f 136/132/80 128/123/80 127/124/80 135/133/80
f 135/133/81 127/124/81 126/125/81 134/134/81
f 134/135/82 126/126/82 125/127/82 133/136/82
f 133/136/83 125/127/83 124/128/83 132/137/83
f 132/137/84 124/128/84 123/129/84 131/138/84
f 131/138/85 123/129/85 300/130/85 301/139/85
f 138/140/86 130/141/86 136/142/86 144/143/86
f 144/143/87 136/142/87 135/144/87 143/145/87
f 143/145/88 135/144/88 134/146/88 142/147/88
f 142/148/89 134/135/89 133/136/89 141/149/89
f 141/149/90 133/136/90 132/137/90 140/150/90
f 140/150/91 132/137/91 131/138/91 139/151/91
f 139/151/92 131/138/92 301/139/92 302/152/92
f 146/153/93 138/140/93 144/143/93 152/154/93
f 152/154/94 144/143/94 143/145/94 151/155/94
f 151/155/95 143/145/95 142/147/95 150/156/95
f 150/157/96 142/148/96 141/149/96 149/158/96
f 149/158/97 141/149/97 140/150/97 148/159/97
f 148/159/98 140/150/98 139/151/98 147/160/98
f 147/160/99 139/151/99 302/152/99 303/161/99
f 154/162/100 146/153/100 152/154/100 160/163/100
f 160/163/101 152/154/101 151/155/101 159/164/101
f 159/164/102 151/155/102 150/156/102 158/165/102
f 158/166/103 150/157/103 149/158/103 157/167/103
f 157/167/104 149/158/104 148/159/104 156/168/104
f 156/168/105 148/159/105 147/160/105 155/169/105
f 155/169/106 147/160/106 303/161/106 304/170/106
f 162/171/107 154/162/107 160/163/107 168/172/107
f 168/172/108 160/163/108 159/164/108 167/173/108
f 167/173/109 159/164/109 158/165/109 166/174/109
f 166/175/110 158/166/110 157/167/110 165/176/110
f 165/176/111 157/167/111 156/168/111 164/177/111
f 164/177/112 156/168/112 155/169/112 163/178/112
f 163/178/113 155/169/113 304/170/113 305/179/113
f 170/180/114 162/171/114 168/172/114 176/181/114
f 176/181/115 168/172/115 167/173/115 175/182/115
f 175/182/116 167/173/116 166/174/116 174/183/116
f 174/184/117 166/175/117 165/176/117 173/185/117
f 173/185/118 165/176/118 164/177/118 172/186/118
f 172/186/119 164/177/119 163/178/119 171/187/119
f 171/187/120 163/178/120 305/179/120 306/188/120
f 178/189/121 170/180/121 176/181/121 184/190/121
f 184/190/122 176/181/122 175/182/122 183/191/122
f 183/191/123 175/182/123 174/183/123 182/192/123
f 182/193/124 174/184/124 173/185/124 181/194/124
f 181/194/125 173/185/125 172/186/125 180/195/125
f 180/195/126 172/186/126 171/187/126 179/196/126
f 179/196/127 171/187/127 306/188/127 307/197/127
f 186/198/128 178/189/128 184/190/128 192/199/128
f 192/199/129 184/190/129 183/191/129 191/200/129
f 191/200/130 183/191/130 182/192/130 190/201/130
f 190/202/131 182/193/131 181/194/131 189/203/131
f 189/203/132 181/194/132 180/195/132 188/204/132
f 188/204/133 180/195/133 179/196/133 187/205/133
f 187/205/134 179/196/134 307/197/134 308/206/134
f 194/207/135 186/198/135 192/199/135 200/208/135
f 200/208/136 192/199/136 191/200/136 199/209/136
f 199/209/137 191/200/137 190/201/137 198/210/137
f 198/211/138 190/202/138 189/203/138 197/212/138
f 197/212/139 189/203/139 188/204/139 196/213/139
f 196/213/140 188/204/140 187/205/140 195/214/140
f 195/214/141 187/205/141 308/206/141 309/215/141
f 202/198/142 194/207/142 200/208/142 208/199/142
f 208/199/143 200/208/143 199/209/143 207/200/143
f 207/200/144 199/209/144 198/210/144 206/201/144
f 206/216/145 198/211/145 197/212/145 205/217/145
f 205/217/146 197/212/146 196/213/146 204/218/146
f 204/218/147 196/213/147 195/214/147 203/219/147
f 203/219/148 195/214/148 309/215/148 310/220/148
f 210/221/149 202/198/149 208/199/149 216/190/149
f 216/190/150 208/199/150 207/200/150 215/191/150
f 215/191/151 207/200/151 206/201/151 214/192/151
f 214/222/152 206/216/152 205/217/152 213/223/152
f 213/223/153 205/217/153 204/218/153 212/224/153
f 212/224/154 204/218/154 203/219/154 211/225/154
f 211/225/155 203/219/155 310/220/155 311/226/155
f 218/180/156 210/221/156 216/190/156 224/227/156
f 224/227/157 216/190/157 215/191/157 223/182/157
f 223/182/158 215/191/158 214/192/158 222/228/158
f 222/229/159 214/222/159 213/223/159 221/230/159
f 221/230/160 213/223/160 212/224/160 220/231/160
f 220/231/161 212/224/161 211/225/161 219/232/161
f 219/232/162 211/225/162 311/226/162 312/233/162
f 226/234/163 218/180/163 224/227/163 232/235/163
f 232/235/164 224/227/164 223/182/164 231/173/164
f 231/173/165 223/182/165 222/228/165 230/174/165
f 230/236/166 222/229/166 221/230/166 229/237/166
f 229/237/167 221/230/167 220/231/167 228/238/167
f 228/238/168 220/231/168 219/232/168 227/239/168
f 227/239/169 219/232/169 312/233/169 313/240/169
f 234/162/170 226/234/170 232/235/170 240/241/170
f 240/241/171 232/235/171 231/173/171 239/164/171
f 239/164/172 231/173/172 230/174/172 238/165/172
f 238/242/173 230/236/173 229/237/173 237/243/173
f 237/243/174 229/237/174 228/238/174 236/244/174
f 236/244/175 228/238/175 227/239/175 235/245/175
f 235/245/176 227/239/176 313/240/176 314/246/176
f 242/153/177 234/162/177 240/241/177 248/154/177
f 248/154/178 240/241/178 239/164/178 247/247/178
f 247/247/179 239/164/179 238/165/179 246/156/179
f 246/248/180 238/242/180 237/243/180 245/249/180
f 245/249/181 237/243/181 236/244/181 244/250/181
f 244/250/182 236/244/182 235/245/182 243/251/182
f 243/251/183 235/245/183 314/246/183 315/252/183
f 250/140/184 242/153/184 248/154/184 256/143/184
f 256/143/185 248/154/185 247/247/185 255/253/185
f 255/253/186 247/247/186 246/156/186 254/147/186
f 254/254/187 246/248/187 245/249/187 253/255/187
f 253/255/188 245/249/188 244/250/188 252/256/188
f 252/256/189 244/250/189 243/251/189 251/257/189
f 251/257/190 243/251/190 315/252/190 316/258/190
f 258/141/191 250/140/191 256/143/191 264/142/191
f 264/142/192 256/143/192 255/253/192 263/144/192
f 263/144/193 255/253/193 254/147/193 262/146/193
f 262/259/194 254/254/194 253/255/194 261/260/194
f 261/260/195 253/255/195 252/256/195 260/261/195
f 260/261/196 252/256/196 251/257/196 259/262/196
f 259/262/197 251/257/197 316/258/197 317/263/197
f 266/122/198 258/131/198 264/132/198 272/264/198
f 272/264/199 264/132/199 263/265/199 271/124/199
f 271/124/200 263/265/200 262/134/200 270/125/200
f 270/266/201 262/259/201 261/260/201 269/267/201
f 269/267/202 261/260/202 260/261/202 268/268/202
f 268/268/203 260/261/203 259/262/203 267/269/203
f 267/269/204 259/262/204 317/263/204 318/270/204
f 274/113/205 266/122/205 272/264/205 280/114/205
f 280/114/206 272/264/206 271/124/206 279/115/206
f 279/115/207 271/124/207 270/125/207 278/116/207
f 278/271/208 270/266/208 269/267/208 277/272/208
f 277/272/209 269/267/209 268/268/209 276/273/209
f 276/273/210 268/268/210 267/269/210 275/274/210
f 275/274/211 267/269/211 318/270/211 319/275/211
f 282/104/212 274/113/212 280/114/212 288/105/212
f 288/105/213 280/114/213 279/115/213 287/106/213
f 287/106/214 279/115/214 278/116/214 286/107/214
f 286/276/215 278/271/215 277/272/215 285/277/215
f 285/277/216 277/272/216 276/273/216 284/278/216
f 284/278/217 276/273/217 275/274/217 283/279/217
f 283/279/218 275/274/218 319/275/218 320/280/218
f 34/34/219 282/104/219 288/105/219 40/35/219
f 40/35/220 288/105/220 287/106/220 39/37/220
f 39/37/221 287/106/221 286/107/221 38/39/221
f 38/42/222 286/276/222 285/277/222 37/43/222
f 37/43/223 285/277/223 284/278/223 36/45/223
f 36/45/224 284/278/224 283/279/224 35/47/224
f 35/47/225 283/279/225 320/280/225 289/49/225
f 257/281/226 249/282/226 348/283/226 349/284/226
f 1/285/227 34/34/227 42/33/227 2/286/227
f 32/287/228 282/104/228 34/34/228 1/285/228
f 2/286/229 42/33/229 50/51/229 3/288/229
f 3/288/230 50/51/230 58/60/230 4/289/230
f 4/289/231 58/60/231 66/69/231 5/290/231
f 5/290/232 66/69/232 74/60/232 6/289/232
f 6/289/233 74/60/233 82/85/233 7/288/233
f 7/288/234 82/85/234 90/33/234 8/286/234
f 8/286/235 90/33/235 98/98/235 9/285/235
f 9/285/236 98/98/236 106/104/236 10/287/236
f 10/287/237 106/104/237 114/113/237 11/291/237
f 11/291/238 114/113/238 122/122/238 12/292/238
f 12/292/239 122/122/239 130/131/239 13/293/239
f 13/294/240 130/141/240 138/140/240 14/295/240
f 14/295/241 138/140/241 146/153/241 15/296/241
f 15/296/242 146/153/242 154/162/242 16/297/242
f 16/297/243 154/162/243 162/171/243 17/298/243
f 17/298/244 162/171/244 170/180/244 18/299/244
f 18/299/245 170/180/245 178/189/245 19/300/245
f 19/300/246 178/189/246 186/198/246 20/301/246
f 20/301/247 186/198/247 194/207/247 21/302/247
f 21/302/248 194/207/248 202/198/248 22/301/248
f 22/301/249 202/198/249 210/221/249 23/300/249
f 23/300/250 210/221/250 218/180/250 24/299/250
f 24/299/251 218/180/251 226/234/251 25/298/251
f 25/298/252 226/234/252 234/162/252 26/297/252
f 26/297/253 234/162/253 242/153/253 27/296/253
f 27/296/254 242/153/254 250/140/254 28/295/254
f 28/295/226 250/140/226 258/141/226 29/294/226
f 29/293/255 258/131/255 266/122/255 30/292/255
f 30/292/256 266/122/256 274/113/256 31/291/256
f 31/291/257 274/113/257 282/104/257 32/287/257
f 33/303/258 41/304/258 290/50/258 289/49/258
f 41/304/258 49/305/258 291/59/258 290/50/258
f 49/305/258 57/306/258 292/68/258 291/59/258
f 57/306/258 65/307/258 293/77/258 292/68/258
f 65/307/258 73/308/258 294/84/258 293/77/258
f 73/308/258 81/309/258 295/92/258 294/84/258
f 81/309/258 89/310/258 296/97/258 295/92/258
f 89/310/258 97/311/258 297/103/258 296/97/258
f 97/311/258 105/312/258 298/112/258 297/103/258
f 105/312/258 113/313/258 299/121/258 298/112/258
f 113/313/258 121/314/258 300/130/258 299/121/258
f 121/314/258 129/315/258 301/139/258 300/130/258
f 129/315/258 137/316/258 302/152/258 301/139/258
f 137/316/258 145/317/258 303/161/258 302/152/258
f 145/317/258 153/318/258 304/170/258 303/161/258
f 153/318/258 161/319/258 305/179/258 304/170/258
f 161/319/258 169/320/258 306/188/258 305/179/258
f 169/320/258 177/321/258 307/197/258 306/188/258
f 177/321/258 185/322/258 308/206/258 307/197/258
f 185/322/258 193/323/258 309/215/258 308/206/258
f 193/323/258 201/324/258 310/220/258 309/215/258
f 201/324/258 209/325/258 311/226/258 310/220/258
f 209/325/258 217/326/258 312/233/258 311/226/258
f 217/326/258 225/327/258 313/240/258 312/233/258
f 225/327/258 233/328/258 314/246/258 313/240/258
f 233/328/258 241/329/258 315/252/258 314/246/258
f 241/329/258 249/330/258 316/258/258 315/252/258
f 249/330/258 257/331/258 317/263/258 316/258/258
f 257/331/258 265/332/258 318/270/258 317/263/258
f 265/332/258 273/333/258 319/275/258 318/270/258
f 273/333/258 281/334/258 320/280/258 319/275/258
f 281/334/258 33/303/258 289/49/258 320/280/258
f 333/335/1 332/336/1 364/337/1 365/338/1
f 153/339/242 145/340/242 335/341/242 336/342/242
f 49/343/229 41/344/229 322/345/229 323/346/229
f 265/347/255 257/348/255 349/349/255 350/350/255
f 161/351/243 153/339/243 336/342/243 337/352/243
f 57/353/230 49/343/230 323/346/230 324/354/230
f 273/355/256 265/347/256 350/350/256 351/356/256
f 169/357/244 161/351/244 337/352/244 338/358/244
f 65/359/231 57/353/231 324/354/231 325/360/231
f 281/361/257 273/355/257 351/356/257 352/362/257
f 177/363/245 169/357/245 338/358/245 339/364/245
f 73/353/232 65/359/232 325/360/232 326/354/232
f 33/365/228 281/361/228 352/362/228 321/366/228
f 185/367/246 177/363/246 339/364/246 340/368/246
f 81/343/233 73/353/233 326/354/233 327/346/233
f 193/369/247 185/367/247 340/368/247 341/370/247
f 89/344/234 81/343/234 327/346/234 328/345/234
f 201/367/248 193/369/248 341/370/248 342/368/248
f 97/365/235 89/344/235 328/345/235 329/366/235
f 209/363/249 201/367/249 342/368/249 343/364/249
f 105/361/236 97/365/236 329/366/236 330/362/236
f 217/357/250 209/363/250 343/364/250 344/358/250
f 113/355/237 105/361/237 330/362/237 331/356/237
f 225/351/251 217/357/251 344/358/251 345/352/251
f 121/371/238 113/355/238 331/356/238 332/372/238
f 233/339/252 225/351/252 345/352/252 346/342/252
f 129/348/239 121/371/239 332/372/239 333/349/239
f 241/340/253 233/339/253 346/342/253 347/341/253
f 137/282/240 129/281/240 333/284/240 334/283/240
f 249/282/254 241/340/254 347/341/254 348/283/254
f 145/340/241 137/282/241 334/283/241 335/341/241
f 41/344/227 33/365/227 321/366/227 322/345/227
f 368/373/242 367/374/242 399/375/242 400/376/242
f 347/377/1 346/378/1 378/379/1 379/380/1
f 334/381/1 333/335/1 365/338/1 366/382/1
f 348/383/1 347/377/1 379/380/1 380/384/1
f 335/385/1 334/381/1 366/382/1 367/386/1
f 322/387/1 321/388/1 353/389/1 354/390/1
f 349/391/1 348/383/1 380/384/1 381/392/1
f 336/393/1 335/385/1 367/386/1 368/394/1
f 323/395/1 322/387/1 354/390/1 355/396/1
f 350/397/1 349/391/1 381/392/1 382/398/1
f 337/399/1 336/393/1 368/394/1 369/400/1
f 324/401/1 323/395/1 355/396/1 356/402/1
f 351/403/1 350/397/1 382/398/1 383/404/1
f 338/405/1 337/399/1 369/400/1 370/406/1
f 325/407/1 324/401/1 356/402/1 357/408/1
f 352/409/1 351/403/1 383/404/1 384/410/1
f 339/411/1 338/405/1 370/406/1 371/412/1
f 326/413/1 325/407/1 357/408/1 358/414/1
f 321/388/1 352/409/1 384/410/1 353/389/1
f 340/415/1 339/411/1 371/412/1 372/416/1
f 327/417/1 326/413/1 358/414/1 359/418/1
f 341/419/1 340/415/1 372/416/1 373/420/1
f 328/421/1 327/417/1 359/418/1 360/422/1
f 342/423/1 341/419/1 373/420/1 374/424/1
f 329/425/1 328/421/1 360/422/1 361/426/1
f 343/427/1 342/423/1 374/424/1 375/428/1
f 330/429/1 329/425/1 361/426/1 362/430/1
f 344/431/1 343/427/1 375/428/1 376/432/1
f 331/433/1 330/429/1 362/430/1 363/434/1
f 345/435/1 344/431/1 376/432/1 377/436/1
f 332/336/1 331/433/1 363/434/1 364/337/1
f 346/378/1 345/435/1 377/436/1 378/379/1
f 386/437/258 385/438/258 416/439/258 415/440/258 414/441/258 413/442/258 412/443/258 411/444/258 410/445/258 409/446/258 408/447/258 407/448/258 406/449/258 405/450/258 404/451/258 403/452/258 402/453/258 401/454/258 400/455/258 399/456/258 398/457/258 397/458/258 396/459/258 395/460/258 394/461/258 393/462/258 392/463/258 391/464/258 390/465/258 389/466/258 388/467/258 387/468/258
f 355/469/229 354/470/229 386/471/229 387/472/229
f 382/473/255 381/474/255 413/475/255 414/476/255
f 369/477/243 368/373/243 400/376/243 401/478/243
f 356/479/230 355/469/230 387/472/230 388/480/230
f 383/481/256 382/473/256 414/476/256 415/482/256
f 370/483/244 369/477/244 401/478/244 402/484/244
f 357/485/231 356/479/231 388/480/231 389/486/231
f 384/487/257 383/481/257 415/482/257 416/488/257
f 371/489/245 370/483/245 402/484/245 403/490/245
f 358/491/232 357/485/232 389/486/232 390/492/232
f 353/493/228 384/487/228 416/488/228 385/494/228
f 372/495/246 371/489/246 403/490/246 404/496/246
f 359/469/233 358/491/233 390/492/233 391/472/233
f 373/497/247 372/495/247 404/496/247 405/498/247
f 360/470/234 359/469/234 391/472/234 392/471/234
f 374/499/248 373/500/248 405/501/248 406/502/248
f 361/493/235 360/470/235 392/471/235 393/494/235
f 375/503/249 374/499/249 406/502/249 407/504/249
f 362/487/236 361/493/236 393/494/236 394/488/236
f 376/505/250 375/503/250 407/504/250 408/506/250
f 363/481/237 362/487/237 394/488/237 395/482/237
f 377/507/251 376/505/251 408/506/251 409/508/251
f 364/509/238 363/481/238 395/482/238 396/510/238
f 378/511/252 377/507/252 409/508/252 410/512/252
f 365/474/239 364/509/239 396/510/239 397/475/239
f 379/513/253 378/511/253 410/512/253 411/514/253
f 366/515/240 365/516/240 397/517/240 398/518/240
f 380/519/254 379/513/254 411/514/254 412/520/254
f 367/374/241 366/515/241 398/518/241 399/375/241
f 354/470/227 353/493/227 385/494/227 386/471/227
f 381/521/226 380/519/226 412/520/226 413/522/226
