# Blender 5.0.0
# www.blender.org
mtllib WoodenDoor.mtl
o Locked_Door(Base)
v 0.219036 -12.143511 6.096028
v 0.219036 11.887861 6.096028
v 0.219036 -11.960180 3.507060
v 0.219036 12.224023 4.021379
v -0.219036 -12.143511 6.096028
v -0.219036 11.887861 6.096028
v -0.219036 -11.960180 3.507060
v -0.219036 12.224023 4.021379
v 0.219036 -11.673140 3.437460
v 0.219036 11.900568 3.920408
v 0.219036 -11.933256 -0.036643
v 0.219036 11.795371 -0.036643
v -0.219036 -11.673140 3.437460
v -0.219036 11.900568 3.920408
v -0.219036 -11.933256 -0.036643
v -0.219036 11.795371 -0.036643
v 0.219036 -11.793063 -0.121315
v 0.219036 11.408924 -0.121315
v 0.219036 -11.898325 -3.145315
v 0.219036 11.780671 -3.889330
v -0.219036 -11.793063 -0.121315
v -0.219036 11.408924 -0.121315
v -0.219036 -11.898325 -3.145315
v -0.219036 11.780671 -3.889330
v 0.219036 -11.967978 -3.229987
v 0.219036 11.921124 -3.989842
v 0.219036 -11.773114 -6.253986
v 0.219036 12.224023 -6.253986
v -0.219036 -11.967978 -3.229987
v -0.219036 11.921124 -3.989842
v -0.219036 -11.773114 -6.253986
v -0.219036 12.224023 -6.253986
v 0.229218 -10.216585 6.205873
v 0.229218 -9.216585 6.205873
v 0.229218 -10.216585 -6.205869
v 0.229218 -9.216585 -6.205869
v 0.529900 -10.216585 6.205873
v 0.529900 -9.216585 6.205873
v 0.529900 -10.216585 -6.205869
v 0.529900 -9.216585 -6.205869
v 0.229218 -0.207586 6.205873
v 0.229218 0.792415 6.205873
v 0.229308 -0.207586 -6.205871
v 0.229308 0.792415 -6.205871
v 0.529900 -0.207586 6.205873
v 0.529900 0.792415 6.205873
v 0.530094 -0.207586 -6.205871
v 0.530094 0.792415 -6.205871
v 0.229218 9.801415 6.205873
v 0.229218 10.801415 6.205873
v 0.229218 9.801415 -6.205869
v 0.229218 10.801415 -6.205869
v 0.529900 9.801415 6.205873
v 0.529900 10.801415 6.205873
v 0.529900 9.801415 -6.205869
v 0.529900 10.801415 -6.205869
v -0.526388 -10.216584 6.205873
v -0.526388 -9.216584 6.205873
v -0.526388 -10.216584 -6.205869
v -0.526388 -9.216584 -6.205869
v -0.225707 -10.216584 6.205873
v -0.225707 -9.216584 6.205873
v -0.225707 -10.216584 -6.205869
v -0.225707 -9.216584 -6.205869
v -0.526388 -0.207586 6.205873
v -0.526388 0.792415 6.205873
v -0.526388 -0.207586 -6.205869
v -0.526388 0.792415 -6.205869
v -0.225707 -0.207586 6.205873
v -0.225707 0.792415 6.205873
v -0.225707 -0.207586 -6.205869
v -0.225707 0.792415 -6.205869
v -0.526388 9.801415 6.205873
v -0.526388 10.801415 6.205873
v -0.526388 9.801415 -6.205869
v -0.526388 10.801415 -6.205869
v -0.225707 9.801415 6.205873
v -0.225707 10.801415 6.205873
v -0.225707 9.801415 -6.205869
v -0.225707 10.801415 -6.205869
v 0.000000 -10.185394 6.087612
v 0.000000 -9.243648 6.087612
v 0.042106 -10.185394 6.091759
v 0.042106 -9.243648 6.091759
v 0.082593 -10.185394 6.104041
v 0.082593 -9.243648 6.104041
v 0.119906 -10.185394 6.123985
v 0.119906 -9.243648 6.123985
v 0.152612 -10.185394 6.150826
v 0.152612 -9.243648 6.150826
v 0.179453 -10.185394 6.183532
v 0.179453 -9.243648 6.183532
v 0.199397 -10.185394 6.220845
v 0.199397 -9.243648 6.220845
v 0.211679 -10.185394 6.261333
v 0.211679 -9.243648 6.261333
v 0.215826 -10.185394 6.303438
v 0.215826 -9.243648 6.303438
v 0.211679 -10.185394 6.345543
v 0.211679 -9.243648 6.345543
v 0.199397 -10.185394 6.386031
v 0.199397 -9.243648 6.386031
v 0.179453 -10.185394 6.423344
v 0.179453 -9.243648 6.423344
v 0.152612 -10.185394 6.456049
v 0.152612 -9.243648 6.456049
v 0.119906 -10.185394 6.482891
v 0.119906 -9.243648 6.482891
v 0.082593 -10.185394 6.502835
v 0.082593 -9.243648 6.502835
v 0.042106 -10.185394 6.515117
v 0.042106 -9.243648 6.515117
v 0.000000 -10.185394 6.519264
v 0.000000 -9.243648 6.519264
v -0.042106 -10.185394 6.515117
v -0.042106 -9.243648 6.515117
v -0.082593 -10.185394 6.502835
v -0.082593 -9.243648 6.502835
v -0.119906 -10.185394 6.482891
v -0.119906 -9.243648 6.482891
v -0.152612 -10.185394 6.456049
v -0.152612 -9.243648 6.456049
v -0.179453 -10.185394 6.423344
v -0.179453 -9.243648 6.423344
v -0.199397 -10.185394 6.386031
v -0.199397 -9.243648 6.386031
v -0.211679 -10.185394 6.345543
v -0.211679 -9.243648 6.345543
v -0.215826 -10.185394 6.303438
v -0.215826 -9.243648 6.303438
v -0.211679 -10.185394 6.261333
v -0.211679 -9.243648 6.261333
v -0.199397 -10.185394 6.220845
v -0.199397 -9.243648 6.220845
v -0.179453 -10.185394 6.183532
v -0.179453 -9.243648 6.183532
v -0.152612 -10.185394 6.150826
v -0.152612 -9.243648 6.150826
v -0.119906 -10.185394 6.123985
v -0.119906 -9.243648 6.123985
v -0.082593 -10.185394 6.104041
v -0.082593 -9.243648 6.104041
v -0.042106 -10.185394 6.091759
v -0.042106 -9.243648 6.091759
v 0.000000 -0.180267 6.087612
v 0.000000 0.761480 6.087612
v 0.042106 -0.180267 6.091759
v 0.042106 0.761480 6.091759
v 0.082593 -0.180267 6.104041
v 0.082593 0.761480 6.104041
v 0.119906 -0.180267 6.123985
v 0.119906 0.761480 6.123985
v 0.152612 -0.180267 6.150826
v 0.152612 0.761480 6.150826
v 0.179453 -0.180267 6.183532
v 0.179453 0.761480 6.183532
v 0.199397 -0.180267 6.220845
v 0.199397 0.761480 6.220845
v 0.211679 -0.180267 6.261333
v 0.211679 0.761480 6.261333
v 0.215826 -0.180267 6.303438
v 0.215826 0.761480 6.303438
v 0.211679 -0.180267 6.345543
v 0.211679 0.761480 6.345543
v 0.199397 -0.180267 6.386031
v 0.199397 0.761480 6.386031
v 0.179453 -0.180267 6.423344
v 0.179453 0.761480 6.423344
v 0.152612 -0.180267 6.456049
v 0.152612 0.761480 6.456049
v 0.119906 -0.180267 6.482891
v 0.119906 0.761480 6.482891
v 0.082593 -0.180267 6.502835
v 0.082593 0.761480 6.502835
v 0.042106 -0.180267 6.515117
v 0.042106 0.761480 6.515117
v 0.000000 -0.180267 6.519264
v 0.000000 0.761480 6.519264
v -0.042106 -0.180267 6.515117
v -0.042106 0.761480 6.515117
v -0.082593 -0.180267 6.502835
v -0.082593 0.761480 6.502835
v -0.119906 -0.180267 6.482891
v -0.119906 0.761480 6.482891
v -0.152612 -0.180267 6.456049
v -0.152612 0.761480 6.456049
v -0.179453 -0.180267 6.423344
v -0.179453 0.761480 6.423344
v -0.199397 -0.180267 6.386031
v -0.199397 0.761480 6.386031
v -0.211679 -0.180267 6.345543
v -0.211679 0.761480 6.345543
v -0.215826 -0.180267 6.303438
v -0.215826 0.761480 6.303438
v -0.211679 -0.180267 6.261333
v -0.211679 0.761480 6.261333
v -0.199397 -0.180267 6.220845
v -0.199397 0.761480 6.220845
v -0.179453 -0.180267 6.183532
v -0.179453 0.761480 6.183532
v -0.152612 -0.180267 6.150826
v -0.152612 0.761480 6.150826
v -0.119906 -0.180267 6.123985
v -0.119906 0.761480 6.123985
v -0.082593 -0.180267 6.104041
v -0.082593 0.761480 6.104041
v -0.042106 -0.180267 6.091759
v -0.042106 0.761480 6.091759
v 0.000000 9.824860 6.087612
v 0.000000 10.766607 6.087612
v 0.042106 9.824860 6.091759
v 0.042106 10.766607 6.091759
v 0.082593 9.824860 6.104041
v 0.082593 10.766607 6.104041
v 0.119906 9.824860 6.123985
v 0.119906 10.766607 6.123985
v 0.152612 9.824860 6.150826
v 0.152612 10.766607 6.150826
v 0.179453 9.824860 6.183532
v 0.179453 10.766607 6.183532
v 0.199397 9.824860 6.220845
v 0.199397 10.766607 6.220845
v 0.211679 9.824860 6.261333
v 0.211679 10.766607 6.261333
v 0.215826 9.824860 6.303438
v 0.215826 10.766607 6.303438
v 0.211679 9.824860 6.345543
v 0.211679 10.766607 6.345543
v 0.199397 9.824860 6.386031
v 0.199397 10.766607 6.386031
v 0.179453 9.824860 6.423344
v 0.179453 10.766607 6.423344
v 0.152612 9.824860 6.456049
v 0.152612 10.766607 6.456049
v 0.119906 9.824860 6.482891
v 0.119906 10.766607 6.482891
v 0.082593 9.824860 6.502835
v 0.082593 10.766607 6.502835
v 0.042106 9.824860 6.515117
v 0.042106 10.766607 6.515117
v 0.000000 9.824860 6.519264
v 0.000000 10.766607 6.519264
v -0.042106 9.824860 6.515117
v -0.042106 10.766607 6.515117
v -0.082593 9.824860 6.502835
v -0.082593 10.766607 6.502835
v -0.119906 9.824860 6.482891
v -0.119906 10.766607 6.482891
v -0.152612 9.824860 6.456049
v -0.152612 10.766607 6.456049
v -0.179453 9.824860 6.423344
v -0.179453 10.766607 6.423344
v -0.199397 9.824860 6.386031
v -0.199397 10.766607 6.386031
v -0.211679 9.824860 6.345543
v -0.211679 10.766607 6.345543
v -0.215826 9.824860 6.303438
v -0.215826 10.766607 6.303438
v -0.211679 9.824860 6.261333
v -0.211679 10.766607 6.261333
v -0.199397 9.824860 6.220845
v -0.199397 10.766607 6.220845
v -0.179453 9.824860 6.183532
v -0.179453 10.766607 6.183532
v -0.152612 9.824860 6.150826
v -0.152612 10.766607 6.150826
v -0.119906 9.824860 6.123985
v -0.119906 10.766607 6.123985
v -0.082593 9.824860 6.104041
v -0.082593 10.766607 6.104041
v -0.042106 9.824860 6.091759
v -0.042106 10.766607 6.091759
vn 1.0000 -0.0000 -0.0000
vn -0.0000 0.0213 -0.9998
vn -1.0000 -0.0000 -0.0000
vn -0.0000 -0.0000 1.0000
vn -0.0000 -0.9975 -0.0706
vn -0.0000 0.9871 0.1599
vn -0.0000 -0.0000 -1.0000
vn -0.0000 -0.0205 0.9998
vn -0.0000 -0.9972 0.0747
vn -0.0000 0.9996 -0.0266
vn -0.0000 -0.0314 -0.9995
vn -0.0000 -0.9994 0.0348
vn -0.0000 0.9952 0.0982
vn -0.0000 0.0318 0.9995
vn -0.0000 -0.9979 -0.0643
vn -0.0000 0.9912 0.1326
vn -0.0000 1.0000 -0.0000
vn -0.0000 -1.0000 -0.0000
vn -0.0980 -0.0000 0.9952
vn -0.2903 -0.0000 0.9569
vn -0.4714 -0.0000 0.8819
vn -0.6344 -0.0000 0.7730
vn -0.7730 -0.0000 0.6344
vn -0.8819 -0.0000 0.4714
vn -0.9569 -0.0000 0.2903
vn -0.9952 -0.0000 0.0980
vn -0.9952 -0.0000 -0.0980
vn -0.9569 -0.0000 -0.2903
vn -0.8819 -0.0000 -0.4714
vn -0.7730 -0.0000 -0.6344
vn -0.6344 -0.0000 -0.7730
vn -0.4714 -0.0000 -0.8819
vn -0.2903 -0.0000 -0.9569
vn -0.0980 -0.0000 -0.9952
vn 0.0980 -0.0000 -0.9952
vn 0.2903 -0.0000 -0.9569
vn 0.4714 -0.0000 -0.8819
vn 0.6344 -0.0000 -0.7730
vn 0.7730 -0.0000 -0.6344
vn 0.8819 -0.0000 -0.4714
vn 0.9569 -0.0000 -0.2903
vn 0.9952 -0.0000 -0.0980
vn 0.9952 -0.0000 0.0980
vn 0.9569 -0.0000 0.2903
vn 0.8819 -0.0000 0.4714
vn 0.7730 -0.0000 0.6344
vn 0.6344 -0.0000 0.7730
vn 0.4714 -0.0000 0.8819
vn 0.2903 -0.0000 0.9569
vn 0.0980 -0.0000 0.9952
vt 0.718750 0.507812
vt 0.718750 0.984375
vt 0.835938 0.992188
vt 0.867188 0.507812
vt 0.015625 0.578125
vt 0.015625 0.992188
vt 0.031250 0.992188
vt 0.031250 0.578125
vt 0.867188 0.500000
vt 0.843750 0.992188
vt 0.718750 0.976562
vt 0.718750 0.500000
vt 0.046875 0.992188
vt 0.062500 0.992188
vt 0.062500 0.820312
vt 0.046875 0.820312
vt 0.421875 0.031250
vt 0.398438 0.570312
vt 0.609375 0.562500
vt 0.609375 0.031250
vt 0.679688 0.015625
vt 0.679688 0.484375
vt 0.953125 0.484375
vt 0.898438 0.015625
vt 0.953125 0.492188
vt 0.679688 0.476562
vt 0.140625 0.125000
vt 0.187500 0.617188
vt 0.312500 0.625000
vt 0.312500 0.125000
vt 0.312500 0.617188
vt 0.148438 0.125000
vt 0.015625 0.843750
vt 0.015625 0.984375
vt 0.984375 0.984375
vt 0.984375 0.843750
vt 0.875000 0.687500
vt 0.875000 0.828125
vt 0.953125 0.828125
vt 0.953125 0.687500
vt 0.953125 0.015625
vt 0.875000 0.015625
vt 0.662353 0.059140
vt 0.662353 0.294196
vt 0.685282 0.294196
vt 0.685282 0.059140
vt 0.707330 0.294196
vt 0.707330 0.059140
vt 0.727648 0.294196
vt 0.727648 0.059140
vt 0.745458 0.294196
vt 0.745458 0.059140
vt 0.639425 0.294196
vt 0.639425 0.059140
vt 0.617377 0.294196
vt 0.617377 0.059140
vt 0.597058 0.294196
vt 0.597058 0.059140
vt 0.579249 0.294196
vt 0.579249 0.059140
vt 0.934244 0.058021
vt 0.934244 0.293076
vt 0.916434 0.293076
vt 0.916434 0.058021
vt 0.896115 0.293076
vt 0.896115 0.058021
vt 0.874068 0.293076
vt 0.874068 0.058021
vt 0.851139 0.293076
vt 0.851139 0.058021
vt 0.828211 0.293076
vt 0.828211 0.058021
vt 0.806163 0.293076
vt 0.806163 0.058021
vt 0.785844 0.293076
vt 0.785844 0.058021
vt 0.768034 0.293076
vt 0.768034 0.058021
vt 0.205104 0.285010
vt 0.183331 0.287154
vt 0.161558 0.285010
vt 0.140621 0.278659
vt 0.121326 0.268346
vt 0.104414 0.254466
vt 0.090534 0.237554
vt 0.080221 0.218258
vt 0.073870 0.197322
vt 0.071725 0.175549
vt 0.073870 0.153775
vt 0.080221 0.132839
vt 0.090534 0.113544
vt 0.104414 0.096631
vt 0.121326 0.082752
vt 0.140621 0.072438
vt 0.161558 0.066087
vt 0.183331 0.063943
vt 0.205104 0.066087
vt 0.226041 0.072438
vt 0.245336 0.082752
vt 0.262249 0.096631
vt 0.276128 0.113544
vt 0.286442 0.132839
vt 0.292793 0.153775
vt 0.294937 0.175549
vt 0.292793 0.197322
vt 0.286442 0.218258
vt 0.276128 0.237554
vt 0.262249 0.254466
vt 0.245336 0.268346
vt 0.226041 0.278659
vt 0.183331 0.287715
vt 0.205105 0.285570
vt 0.226041 0.279219
vt 0.245336 0.268906
vt 0.262249 0.255026
vt 0.276128 0.238114
vt 0.286442 0.218818
vt 0.292793 0.197882
vt 0.294937 0.176109
vt 0.292793 0.154335
vt 0.286442 0.133399
vt 0.276128 0.114104
vt 0.262249 0.097191
vt 0.245336 0.083312
vt 0.226041 0.072998
vt 0.205105 0.066647
vt 0.183331 0.064503
vt 0.161558 0.066647
vt 0.140621 0.072998
vt 0.121326 0.083312
vt 0.104414 0.097191
vt 0.090534 0.114104
vt 0.080221 0.133399
vt 0.073870 0.154335
vt 0.071725 0.176109
vt 0.073870 0.197882
vt 0.080221 0.218818
vt 0.090534 0.238114
vt 0.104414 0.255026
vt 0.121326 0.268906
vt 0.140621 0.279219
vt 0.161558 0.285570
vt 0.851139 0.058580
vt 0.851139 0.293636
vt 0.874068 0.293636
vt 0.874068 0.058580
vt 0.896115 0.293636
vt 0.896115 0.058580
vt 0.916434 0.293636
vt 0.916434 0.058580
vt 0.934244 0.293636
vt 0.934244 0.058580
vt 0.828211 0.293636
vt 0.828211 0.058580
vt 0.806163 0.293636
vt 0.806163 0.058580
vt 0.785844 0.293636
vt 0.785844 0.058580
vt 0.768035 0.293636
vt 0.768035 0.058580
vt 0.934244 0.059140
vt 0.934244 0.294196
vt 0.916434 0.294196
vt 0.916434 0.059140
vt 0.896115 0.294196
vt 0.896115 0.059140
vt 0.874068 0.294196
vt 0.874068 0.059140
vt 0.851139 0.294196
vt 0.851139 0.059140
vt 0.828211 0.294196
vt 0.828211 0.059140
vt 0.806163 0.294196
vt 0.806163 0.059140
vt 0.785844 0.294196
vt 0.785844 0.059140
vt 0.768035 0.294196
vt 0.768035 0.059140
vt 0.461524 0.285010
vt 0.439751 0.287154
vt 0.417977 0.285010
vt 0.397041 0.278659
vt 0.377746 0.268346
vt 0.360833 0.254466
vt 0.346954 0.237554
vt 0.336640 0.218258
vt 0.330289 0.197322
vt 0.328145 0.175549
vt 0.330289 0.153775
vt 0.336640 0.132839
vt 0.346954 0.113544
vt 0.360833 0.096631
vt 0.377746 0.082752
vt 0.397041 0.072438
vt 0.417977 0.066087
vt 0.439751 0.063943
vt 0.461524 0.066087
vt 0.482460 0.072438
vt 0.501756 0.082752
vt 0.518668 0.096631
vt 0.532548 0.113544
vt 0.542861 0.132839
vt 0.549212 0.153775
vt 0.551357 0.175549
vt 0.549212 0.197322
vt 0.542861 0.218258
vt 0.532548 0.237554
vt 0.518668 0.254466
vt 0.501756 0.268346
vt 0.482460 0.278659
vt 0.439751 0.287715
vt 0.461524 0.285570
vt 0.482460 0.279219
vt 0.501756 0.268906
vt 0.518668 0.255026
vt 0.532548 0.238114
vt 0.542861 0.218818
vt 0.549212 0.197882
vt 0.551357 0.176109
vt 0.549212 0.154335
vt 0.542861 0.133399
vt 0.532548 0.114104
vt 0.518668 0.097191
vt 0.501756 0.083312
vt 0.482460 0.072998
vt 0.461524 0.066647
vt 0.439751 0.064503
vt 0.417977 0.066647
vt 0.397041 0.072998
vt 0.377746 0.083312
vt 0.360833 0.097191
vt 0.346954 0.114104
vt 0.336640 0.133399
vt 0.330289 0.154335
vt 0.328145 0.176109
vt 0.330289 0.197882
vt 0.336640 0.218818
vt 0.346954 0.238114
vt 0.360833 0.255026
vt 0.377746 0.268906
vt 0.397041 0.279219
vt 0.417977 0.285570
vt 0.662353 0.058021
vt 0.662353 0.293077
vt 0.685282 0.293077
vt 0.685282 0.058021
vt 0.707329 0.293077
vt 0.707329 0.058021
vt 0.727648 0.293077
vt 0.727648 0.058021
vt 0.745458 0.293077
vt 0.745458 0.058021
vt 0.639425 0.293077
vt 0.639425 0.058021
vt 0.617377 0.293077
vt 0.617377 0.058021
vt 0.597058 0.293077
vt 0.597058 0.058021
vt 0.579249 0.293077
vt 0.579249 0.058021
vt 0.745458 0.058581
vt 0.745458 0.293636
vt 0.727648 0.293636
vt 0.727648 0.058581
vt 0.707329 0.293636
vt 0.707329 0.058581
vt 0.685282 0.293636
vt 0.685282 0.058581
vt 0.662353 0.293636
vt 0.662353 0.058581
vt 0.639425 0.293636
vt 0.639425 0.058581
vt 0.617377 0.293636
vt 0.617377 0.058581
vt 0.597058 0.293636
vt 0.597058 0.058581
vt 0.579249 0.293636
vt 0.579249 0.058581
vt 0.205104 0.286130
vt 0.183331 0.288274
vt 0.161558 0.286130
vt 0.140621 0.279779
vt 0.121326 0.269466
vt 0.104414 0.255586
vt 0.090534 0.238673
vt 0.080221 0.219378
vt 0.073870 0.198442
vt 0.071725 0.176668
vt 0.073870 0.154895
vt 0.080221 0.133959
vt 0.090534 0.114663
vt 0.104414 0.097751
vt 0.121326 0.083871
vt 0.140621 0.073558
vt 0.161558 0.067207
vt 0.183331 0.065062
vt 0.205104 0.067207
vt 0.226041 0.073558
vt 0.245336 0.083871
vt 0.262249 0.097751
vt 0.276128 0.114663
vt 0.286442 0.133959
vt 0.292793 0.154895
vt 0.294937 0.176668
vt 0.292793 0.198442
vt 0.286442 0.219378
vt 0.276128 0.238673
vt 0.262249 0.255586
vt 0.245336 0.269466
vt 0.226041 0.279779
vt 0.439751 0.288274
vt 0.461524 0.286130
vt 0.482460 0.279779
vt 0.501756 0.269466
vt 0.518668 0.255586
vt 0.532548 0.238673
vt 0.542861 0.219378
vt 0.549212 0.198442
vt 0.551357 0.176668
vt 0.549212 0.154895
vt 0.542861 0.133959
vt 0.532548 0.114663
vt 0.518668 0.097751
vt 0.501756 0.083871
vt 0.482460 0.073558
vt 0.461524 0.067207
vt 0.439751 0.065062
vt 0.417977 0.067207
vt 0.397041 0.073558
vt 0.377746 0.083871
vt 0.360833 0.097751
vt 0.346954 0.114663
vt 0.336640 0.133959
vt 0.330289 0.154895
vt 0.328145 0.176668
vt 0.330289 0.198442
vt 0.336640 0.219378
vt 0.346954 0.238674
vt 0.360833 0.255586
vt 0.377746 0.269466
vt 0.397041 0.279779
vt 0.417977 0.286130
s 0
g Locked_Door(Base)_Door
usemtl Door
f 1/1/1 3/4/1 4/3/1 2/2/1
f 3/5/2 7/8/2 8/7/2 4/6/2
f 7/9/3 5/12/3 6/11/3 8/10/3
f 5/8/4 1/5/4 2/6/4 6/7/4
f 3/13/5 1/16/5 5/15/5 7/14/5
f 8/14/6 6/15/6 2/16/6 4/13/6
f 9/17/1 11/20/1 12/19/1 10/18/1
f 11/5/7 15/8/7 16/7/7 12/6/7
f 15/20/3 13/17/3 14/18/3 16/19/3
f 13/8/8 9/5/8 10/6/8 14/7/8
f 11/13/9 9/16/9 13/15/9 15/14/9
f 16/14/10 14/15/10 10/16/10 12/13/10
f 17/21/1 19/24/1 20/23/1 18/22/1
f 19/5/11 23/8/11 24/7/11 20/6/11
f 23/24/3 21/21/3 22/26/3 24/25/3
f 21/8/4 17/5/4 18/6/4 22/7/4
f 19/16/12 17/13/12 21/14/12 23/15/12
f 24/14/13 22/15/13 18/16/13 20/13/13
f 25/27/1 27/30/1 28/29/1 26/28/1
f 27/5/7 31/8/7 32/7/7 28/6/7
f 31/30/3 29/32/3 30/28/3 32/31/3
f 29/8/14 25/5/14 26/6/14 30/7/14
f 27/13/15 25/16/15 29/15/15 31/14/15
f 32/14/16 30/15/16 26/16/16 28/13/16
g Locked_Door(Base)_Bar_Support
usemtl Bar_Support
f 33/33/1 35/36/1 36/35/1 34/34/1
f 35/37/4 39/40/4 40/39/4 36/38/4
f 39/36/3 37/33/3 38/34/3 40/35/3
f 37/40/7 33/37/7 34/38/7 38/39/7
f 35/37/17 33/42/17 37/41/17 39/40/17
f 40/40/18 38/41/18 34/42/18 36/37/18
f 41/33/1 43/36/1 44/35/1 42/34/1
f 43/38/4 47/39/4 48/40/4 44/37/4
f 47/36/3 45/33/3 46/34/3 48/35/3
f 45/37/7 41/38/7 42/39/7 46/40/7
f 43/37/17 41/42/17 45/41/17 47/40/17
f 48/40/18 46/41/18 42/42/18 44/37/18
f 49/33/1 51/36/1 52/35/1 50/34/1
f 51/37/4 55/40/4 56/39/4 52/38/4
f 55/36/3 53/33/3 54/34/3 56/35/3
f 53/40/7 49/37/7 50/38/7 54/39/7
f 51/37/17 49/42/17 53/41/17 55/40/17
f 56/40/18 54/41/18 50/42/18 52/37/18
f 57/33/1 59/36/1 60/35/1 58/34/1
f 59/37/4 63/40/4 64/39/4 60/38/4
f 63/36/3 61/33/3 62/34/3 64/35/3
f 61/40/7 57/37/7 58/38/7 62/39/7
f 59/37/17 57/42/17 61/41/17 63/40/17
f 64/40/18 62/41/18 58/42/18 60/37/18
f 65/33/1 67/36/1 68/35/1 66/34/1
f 67/38/4 71/39/4 72/40/4 68/37/4
f 71/36/3 69/33/3 70/34/3 72/35/3
f 69/40/7 65/37/7 66/38/7 70/39/7
f 67/37/17 65/42/17 69/41/17 71/40/17
f 72/40/18 70/41/18 66/42/18 68/37/18
f 73/33/1 75/36/1 76/35/1 74/34/1
f 75/37/4 79/40/4 80/39/4 76/38/4
f 79/36/3 77/33/3 78/34/3 80/35/3
f 77/40/7 73/37/7 74/38/7 78/39/7
f 75/37/17 73/42/17 77/41/17 79/40/17
f 80/40/18 78/41/18 74/42/18 76/37/18
g Locked_Door(Base)_Pivot
usemtl Pivot
f 81/43/19 83/46/19 84/45/19 82/44/19
f 83/46/20 85/48/20 86/47/20 84/45/20
f 85/48/21 87/50/21 88/49/21 86/47/21
f 87/50/22 89/52/22 90/51/22 88/49/22
f 89/52/23 91/50/23 92/49/23 90/51/23
f 91/50/24 93/48/24 94/47/24 92/49/24
f 93/48/25 95/46/25 96/45/25 94/47/25
f 95/46/26 97/43/26 98/44/26 96/45/26
f 97/43/27 99/54/27 100/53/27 98/44/27
f 99/54/28 101/56/28 102/55/28 100/53/28
f 101/56/29 103/58/29 104/57/29 102/55/29
f 103/58/30 105/60/30 106/59/30 104/57/30
f 105/61/31 107/64/31 108/63/31 106/62/31
f 107/64/32 109/66/32 110/65/32 108/63/32
f 109/66/33 111/68/33 112/67/33 110/65/33
f 111/68/34 113/70/34 114/69/34 112/67/34
f 113/70/35 115/72/35 116/71/35 114/69/35
f 115/72/36 117/74/36 118/73/36 116/71/36
f 117/74/37 119/76/37 120/75/37 118/73/37
f 119/76/38 121/78/38 122/77/38 120/75/38
f 121/78/39 123/76/39 124/75/39 122/77/39
f 123/76/40 125/74/40 126/73/40 124/75/40
f 125/74/41 127/72/41 128/71/41 126/73/41
f 127/72/42 129/70/42 130/69/42 128/71/42
f 129/70/43 131/68/43 132/67/43 130/69/43
f 131/68/44 133/66/44 134/65/44 132/67/44
f 133/66/45 135/64/45 136/63/45 134/65/45
f 135/64/46 137/61/46 138/62/46 136/63/46
f 137/60/47 139/58/47 140/57/47 138/59/47
f 139/58/48 141/56/48 142/55/48 140/57/48
f 84/79/18 86/110/18 88/109/18 90/108/18 92/107/18 94/106/18 96/105/18 98/104/18 100/103/18 102/102/18 104/101/18 106/100/18 108/99/18 110/98/18 112/97/18 114/96/18 116/95/18 118/94/18 120/93/18 122/92/18 124/91/18 126/90/18 128/89/18 130/88/18 132/87/18 134/86/18 136/85/18 138/84/18 140/83/18 142/82/18 144/81/18 82/80/18
f 141/56/49 143/54/49 144/53/49 142/55/49
f 143/54/50 81/43/50 82/44/50 144/53/50
f 81/111/17 143/142/17 141/141/17 139/140/17 137/139/17 135/138/17 133/137/17 131/136/17 129/135/17 127/134/17 125/133/17 123/132/17 121/131/17 119/130/17 117/129/17 115/128/17 113/127/17 111/126/17 109/125/17 107/124/17 105/123/17 103/122/17 101/121/17 99/120/17 97/119/17 95/118/17 93/117/17 91/116/17 89/115/17 87/114/17 85/113/17 83/112/17
f 145/143/19 147/146/19 148/145/19 146/144/19
f 147/146/20 149/148/20 150/147/20 148/145/20
f 149/148/21 151/150/21 152/149/21 150/147/21
f 151/150/22 153/152/22 154/151/22 152/149/22
f 153/152/23 155/150/23 156/149/23 154/151/23
f 155/150/24 157/148/24 158/147/24 156/149/24
f 157/148/25 159/146/25 160/145/25 158/147/25
f 159/146/26 161/143/26 162/144/26 160/145/26
f 161/143/27 163/154/27 164/153/27 162/144/27
f 163/154/28 165/156/28 166/155/28 164/153/28
f 165/156/29 167/158/29 168/157/29 166/155/29
f 167/158/30 169/160/30 170/159/30 168/157/30
f 169/161/31 171/164/31 172/163/31 170/162/31
f 171/164/32 173/166/32 174/165/32 172/163/32
f 173/166/33 175/168/33 176/167/33 174/165/33
f 175/168/34 177/170/34 178/169/34 176/167/34
f 177/170/35 179/172/35 180/171/35 178/169/35
f 179/172/36 181/174/36 182/173/36 180/171/36
f 181/174/37 183/176/37 184/175/37 182/173/37
f 183/176/38 185/178/38 186/177/38 184/175/38
f 185/178/39 187/176/39 188/175/39 186/177/39
f 187/176/40 189/174/40 190/173/40 188/175/40
f 189/174/41 191/172/41 192/171/41 190/173/41
f 191/172/42 193/170/42 194/169/42 192/171/42
f 193/170/43 195/168/43 196/167/43 194/169/43
f 195/168/44 197/166/44 198/165/44 196/167/44
f 197/166/45 199/164/45 200/163/45 198/165/45
f 199/164/46 201/161/46 202/162/46 200/163/46
f 201/160/47 203/158/47 204/157/47 202/159/47
f 203/158/48 205/156/48 206/155/48 204/157/48
f 148/179/18 150/210/18 152/209/18 154/208/18 156/207/18 158/206/18 160/205/18 162/204/18 164/203/18 166/202/18 168/201/18 170/200/18 172/199/18 174/198/18 176/197/18 178/196/18 180/195/18 182/194/18 184/193/18 186/192/18 188/191/18 190/190/18 192/189/18 194/188/18 196/187/18 198/186/18 200/185/18 202/184/18 204/183/18 206/182/18 208/181/18 146/180/18
f 205/156/49 207/154/49 208/153/49 206/155/49
f 207/154/50 145/143/50 146/144/50 208/153/50
f 145/211/17 207/242/17 205/241/17 203/240/17 201/239/17 199/238/17 197/237/17 195/236/17 193/235/17 191/234/17 189/233/17 187/232/17 185/231/17 183/230/17 181/229/17 179/228/17 177/227/17 175/226/17 173/225/17 171/224/17 169/223/17 167/222/17 165/221/17 163/220/17 161/219/17 159/218/17 157/217/17 155/216/17 153/215/17 151/214/17 149/213/17 147/212/17
f 209/243/19 211/246/19 212/245/19 210/244/19
f 211/246/20 213/248/20 214/247/20 212/245/20
f 213/248/21 215/250/21 216/249/21 214/247/21
f 215/250/22 217/252/22 218/251/22 216/249/22
f 217/252/23 219/250/23 220/249/23 218/251/23
f 219/250/24 221/248/24 222/247/24 220/249/24
f 221/248/25 223/246/25 224/245/25 222/247/25
f 223/246/26 225/243/26 226/244/26 224/245/26
f 225/243/27 227/254/27 228/253/27 226/244/27
f 227/254/28 229/256/28 230/255/28 228/253/28
f 229/256/29 231/258/29 232/257/29 230/255/29
f 231/258/30 233/260/30 234/259/30 232/257/30
f 233/261/31 235/264/31 236/263/31 234/262/31
f 235/264/32 237/266/32 238/265/32 236/263/32
f 237/266/33 239/268/33 240/267/33 238/265/33
f 239/268/34 241/270/34 242/269/34 240/267/34
f 241/270/35 243/272/35 244/271/35 242/269/35
f 243/272/36 245/274/36 246/273/36 244/271/36
f 245/274/37 247/276/37 248/275/37 246/273/37
f 247/276/38 249/278/38 250/277/38 248/275/38
f 249/278/39 251/276/39 252/275/39 250/277/39
f 251/276/40 253/274/40 254/273/40 252/275/40
f 253/274/41 255/272/41 256/271/41 254/273/41
f 255/272/42 257/270/42 258/269/42 256/271/42
f 257/270/43 259/268/43 260/267/43 258/269/43
f 259/268/44 261/266/44 262/265/44 260/267/44
f 261/266/45 263/264/45 264/263/45 262/265/45
f 263/264/46 265/261/46 266/262/46 264/263/46
f 265/260/47 267/258/47 268/257/47 266/259/47
f 267/258/48 269/256/48 270/255/48 268/257/48
f 212/279/18 214/310/18 216/309/18 218/308/18 220/307/18 222/306/18 224/305/18 226/304/18 228/303/18 230/302/18 232/301/18 234/300/18 236/299/18 238/298/18 240/297/18 242/296/18 244/295/18 246/294/18 248/293/18 250/292/18 252/291/18 254/290/18 256/289/18 258/288/18 260/287/18 262/286/18 264/285/18 266/284/18 268/283/18 270/282/18 272/281/18 210/280/18
f 269/256/49 271/254/49 272/253/49 270/255/49
f 271/254/50 209/243/50 210/244/50 272/253/50
f 209/311/17 271/342/17 269/341/17 267/340/17 265/339/17 263/338/17 261/337/17 259/336/17 257/335/17 255/334/17 253/333/17 251/332/17 249/331/17 247/330/17 245/329/17 243/328/17 241/327/17 239/326/17 237/325/17 235/324/17 233/323/17 231/322/17 229/321/17 227/320/17 225/319/17 223/318/17 221/317/17 219/316/17 217/315/17 215/314/17 213/313/17 211/312/17
