# Blender 5.0.0
# www.blender.org
mtllib Bucket.mtl
o Bucket
v 7.056000 -1.981227 -2.720197
v 7.586684 -1.981227 -2.667929
v 8.096974 -1.981227 -2.513134
v 8.567261 -1.981227 -2.261761
v 8.979470 -1.981227 -1.923470
v 9.317761 -1.981227 -1.511261
v 9.569135 -1.981227 -1.040974
v 9.723929 -1.981227 -0.530684
v 9.776197 -1.981227 -0.000000
v 9.723929 -1.981227 0.530684
v 9.569135 -1.981227 1.040974
v 9.317761 -1.981227 1.511261
v 8.979470 -1.981227 1.923470
v 8.567261 -1.981227 2.261761
v 8.096974 -1.981227 2.513134
v 7.586684 -1.981227 2.667929
v 7.056000 -1.981227 2.720197
v 6.525316 -1.981227 2.667929
v 6.015026 -1.981227 2.513134
v 5.544740 -1.981227 2.261761
v 5.132531 -1.981227 1.923470
v 4.794239 -1.981227 1.511261
v 4.542866 -1.981227 1.040974
v 4.388071 -1.981227 0.530684
v 4.335803 -1.981227 -0.000000
v 4.388071 -1.981227 -0.530684
v 4.542866 -1.981227 -1.040974
v 4.794239 -1.981227 -1.511261
v 5.132531 -1.981227 -1.923470
v 5.544740 -1.981227 -2.261761
v 6.015026 -1.981227 -2.513134
v 6.525316 -1.981227 -2.667929
v 7.056000 3.010783 -2.989227
v 7.639170 3.010783 -2.931790
v 8.199928 3.010783 -2.761686
v 8.716726 3.010783 -2.485451
v 9.169703 3.010783 -2.113703
v 9.541451 3.010783 -1.660726
v 9.817686 3.010783 -1.143928
v 9.987790 3.010783 -0.583169
v 10.045227 3.010783 0.000000
v 9.987790 3.010783 0.583169
v 9.817686 3.010783 1.143928
v 9.541451 3.010783 1.660726
v 9.169703 3.010783 2.113703
v 8.716726 3.010783 2.485451
v 8.199928 3.010783 2.761686
v 7.639170 3.010783 2.931790
v 7.056000 3.010783 2.989227
v 6.472831 3.010783 2.931790
v 5.912072 3.010783 2.761686
v 5.395274 3.010783 2.485451
v 4.942297 3.010783 2.113703
v 4.570549 3.010783 1.660726
v 4.294314 3.010783 1.143928
v 4.124210 3.010783 0.583169
v 4.066773 3.010783 0.000000
v 4.124210 3.010783 -0.583169
v 4.294314 3.010783 -1.143928
v 4.570549 3.010783 -1.660726
v 4.942297 3.010783 -2.113703
v 5.395274 3.010783 -2.485451
v 5.912072 3.010783 -2.761686
v 6.472831 3.010783 -2.931790
v 7.613270 4.044467 -2.801584
v 7.056000 4.044467 -2.856471
v 7.056000 2.963542 -3.275530
v 8.149124 4.044467 -2.639035
v 8.642971 4.044467 -2.375068
v 9.075830 4.044467 -2.019830
v 9.431068 4.044467 -1.586970
v 9.695035 4.044467 -1.093124
v 9.857584 4.044467 -0.557270
v 9.912471 4.044467 0.000000
v 9.857584 4.044467 0.557270
v 9.695035 4.044467 1.093124
v 9.431068 4.044467 1.586970
v 9.075830 4.044467 2.019830
v 8.642971 4.044467 2.375068
v 8.149124 4.044467 2.639035
v 7.613270 4.044467 2.801584
v 7.056000 4.044467 2.856471
v 6.498731 4.044467 2.801584
v 5.962876 4.044467 2.639035
v 5.469030 4.044467 2.375068
v 5.036170 4.044467 2.019830
v 4.680932 4.044467 1.586970
v 4.416965 4.044467 1.093124
v 4.254416 4.044467 0.557270
v 4.199530 4.044467 0.000000
v 4.254416 4.044467 -0.557270
v 4.416965 4.044467 -1.093124
v 4.680932 4.044467 -1.586970
v 5.036170 4.044467 -2.019830
v 5.469030 4.044467 -2.375068
v 5.962876 4.044467 -2.639035
v 6.498731 4.044467 -2.801584
v 7.695024 2.963542 -3.212592
v 8.309491 2.963542 -3.026195
v 8.875788 2.963542 -2.723504
v 9.372149 2.963542 -2.316149
v 9.779504 2.963542 -1.819787
v 10.082195 2.963542 -1.253491
v 10.268592 2.963542 -0.639024
v 10.331530 2.963542 0.000000
v 10.268592 2.963542 0.639024
v 10.082195 2.963542 1.253491
v 9.779504 2.963542 1.819787
v 9.372149 2.963542 2.316149
v 8.875788 2.963542 2.723504
v 8.309491 2.963542 3.026195
v 7.695024 2.963542 3.212592
v 7.056000 2.963542 3.275530
v 6.416976 2.963542 3.212592
v 5.802509 2.963542 3.026195
v 5.236213 2.963542 2.723504
v 4.739851 2.963542 2.316149
v 4.332497 2.963542 1.819787
v 4.029805 2.963542 1.253491
v 3.843408 2.963542 0.639024
v 3.780470 2.963542 0.000000
v 3.843408 2.963542 -0.639024
v 4.029805 2.963542 -1.253491
v 4.332497 2.963542 -1.819787
v 4.739851 2.963542 -2.316149
v 5.236213 2.963542 -2.723504
v 5.802509 2.963542 -3.026195
v 6.416976 2.963542 -3.212592
v 7.695024 4.044467 -3.212592
v 7.056000 4.044467 -3.275530
v 8.309491 4.044467 -3.026195
v 8.875788 4.044467 -2.723504
v 9.372149 4.044467 -2.316149
v 9.779504 4.044467 -1.819787
v 10.082195 4.044467 -1.253491
v 10.268592 4.044467 -0.639024
v 10.331530 4.044467 0.000000
v 10.268592 4.044467 0.639024
v 10.082195 4.044467 1.253491
v 9.779504 4.044467 1.819787
v 9.372149 4.044467 2.316149
v 8.875788 4.044467 2.723504
v 8.309491 4.044467 3.026195
v 7.695024 4.044467 3.212592
v 7.056000 4.044467 3.275530
v 6.416976 4.044467 3.212592
v 5.802509 4.044467 3.026195
v 5.236213 4.044467 2.723504
v 4.739851 4.044467 2.316149
v 4.332497 4.044467 1.819787
v 4.029805 4.044467 1.253491
v 3.843408 4.044467 0.639024
v 3.780470 4.044467 0.000000
v 3.843408 4.044467 -0.639024
v 4.029805 4.044467 -1.253491
v 4.332497 4.044467 -1.819787
v 4.739851 4.044467 -2.316149
v 5.236213 4.044467 -2.723504
v 5.802509 4.044467 -3.026195
v 6.416976 4.044467 -3.212592
v 7.557543 -1.775708 -2.521426
v 7.056000 -1.775708 -2.570824
v 8.039812 -1.775708 -2.375131
v 8.484274 -1.775708 -2.137562
v 8.873847 -1.775708 -1.817847
v 9.193562 -1.775708 -1.428273
v 9.431131 -1.775708 -0.983812
v 9.577426 -1.775708 -0.501543
v 9.626823 -1.775708 0.000000
v 9.577426 -1.775708 0.501543
v 9.431131 -1.775708 0.983812
v 9.193562 -1.775708 1.428273
v 8.873847 -1.775708 1.817847
v 8.484274 -1.775708 2.137562
v 8.039812 -1.775708 2.375131
v 7.557543 -1.775708 2.521426
v 7.056000 -1.775708 2.570824
v 6.554457 -1.775708 2.521426
v 6.072188 -1.775708 2.375131
v 5.627727 -1.775708 2.137562
v 5.238153 -1.775708 1.817847
v 4.918438 -1.775708 1.428273
v 4.680869 -1.775708 0.983812
v 4.534574 -1.775708 0.501543
v 4.485176 -1.775708 0.000000
v 4.534574 -1.775708 -0.501543
v 4.680869 -1.775708 -0.983812
v 4.918438 -1.775708 -1.428273
v 5.238153 -1.775708 -1.817847
v 5.627727 -1.775708 -2.137562
v 6.072188 -1.775708 -2.375131
v 6.554457 -1.775708 -2.521426
vn -0.1628 -0.9865 -0.0160
vn 0.1565 -0.9865 -0.0475
vn -0.1565 -0.9865 -0.0475
vn 0.1628 -0.9865 -0.0160
vn -0.1443 -0.9865 -0.0771
vn 0.1628 -0.9865 0.0160
vn -0.1264 -0.9865 -0.1038
vn 0.1565 -0.9865 0.0475
vn -0.1038 -0.9865 -0.1264
vn 0.1443 -0.9865 0.0771
vn -0.0771 -0.9865 -0.1443
vn -0.0160 -0.9865 0.1628
vn 0.1264 -0.9865 0.1038
vn -0.0475 -0.9865 -0.1565
vn -0.0475 -0.9865 0.1565
vn 0.1038 -0.9865 0.1264
vn -0.0160 -0.9865 -0.1628
vn -0.0771 -0.9865 0.1443
vn 0.0771 -0.9865 0.1443
vn 0.0160 -0.9865 -0.1628
vn -0.1038 -0.9865 0.1264
vn 0.0475 -0.9865 0.1565
vn 0.0475 -0.9865 -0.1565
vn -0.1264 -0.9865 0.1038
vn 0.0160 -0.9865 0.1628
vn 0.0771 -0.9865 -0.1443
vn -0.1443 -0.9865 0.0771
vn 0.1038 -0.9865 -0.1264
vn -0.1565 -0.9865 0.0475
vn 0.1264 -0.9865 -0.1038
vn -0.1628 -0.9865 0.0160
vn 0.1443 -0.9865 -0.0771
vn -0.0000 -1.0000 -0.0000
vn -0.0979 -0.0536 -0.9938
vn -0.2899 -0.0536 -0.9556
vn -0.4707 -0.0536 -0.8807
vn -0.6335 -0.0536 -0.7719
vn -0.7719 -0.0536 -0.6335
vn -0.8807 -0.0536 -0.4707
vn -0.9556 -0.0536 -0.2899
vn -0.9938 -0.0536 -0.0979
vn -0.9938 -0.0536 0.0979
vn -0.9556 -0.0536 0.2899
vn -0.8807 -0.0536 0.4707
vn -0.7719 -0.0536 0.6335
vn -0.6335 -0.0536 0.7719
vn -0.4707 -0.0536 0.8807
vn -0.2899 -0.0536 0.9556
vn -0.0979 -0.0536 0.9938
vn 0.0979 -0.0536 0.9938
vn 0.2899 -0.0536 0.9556
vn 0.4707 -0.0536 0.8807
vn 0.6335 -0.0536 0.7719
vn 0.7719 -0.0536 0.6335
vn 0.8807 -0.0536 0.4707
vn 0.9556 -0.0536 0.2899
vn 0.9938 -0.0536 0.0979
vn 0.9938 -0.0536 -0.0979
vn 0.9556 -0.0536 -0.2899
vn 0.8807 -0.0536 -0.4707
vn 0.7719 -0.0536 -0.6335
vn 0.6335 -0.0536 -0.7719
vn 0.4707 -0.0536 -0.8807
vn 0.2899 -0.0536 -0.9556
vn 0.0979 -0.0536 -0.9938
vn 0.0980 -0.0000 -0.9952
vn 0.2903 -0.0000 -0.9569
vn 0.4714 -0.0000 -0.8819
vn 0.6344 -0.0000 -0.7730
vn 0.7730 -0.0000 -0.6344
vn 0.8819 -0.0000 -0.4714
vn 0.9569 -0.0000 -0.2903
vn 0.9952 -0.0000 -0.0980
vn 0.9952 -0.0000 0.0980
vn 0.9569 -0.0000 0.2903
vn 0.8819 -0.0000 0.4714
vn 0.7730 -0.0000 0.6344
vn 0.6344 -0.0000 0.7730
vn 0.4714 -0.0000 0.8819
vn 0.2903 -0.0000 0.9569
vn 0.0980 -0.0000 0.9952
vn -0.0980 -0.0000 0.9952
vn -0.2903 -0.0000 0.9569
vn -0.4714 -0.0000 0.8819
vn -0.6344 -0.0000 0.7730
vn -0.7730 -0.0000 0.6344
vn -0.8819 -0.0000 0.4714
vn -0.9569 -0.0000 0.2903
vn -0.9952 -0.0000 0.0980
vn -0.9952 -0.0000 -0.0980
vn -0.9569 -0.0000 -0.2903
vn -0.8819 -0.0000 -0.4714
vn -0.7730 -0.0000 -0.6344
vn -0.6344 -0.0000 -0.7730
vn -0.4714 -0.0000 -0.8819
vn 0.9940 0.0488 -0.0979
vn -0.2903 -0.0000 -0.9569
vn -0.0980 -0.0000 -0.9952
vn -0.0000 1.0000 -0.0000
vn -0.8809 0.0488 -0.4708
vn 0.9940 0.0488 0.0979
vn -0.7721 0.0488 -0.6336
vn 0.9558 0.0488 0.2899
vn -0.6336 0.0488 -0.7721
vn 0.8809 0.0488 0.4708
vn -0.4708 0.0488 -0.8809
vn -0.0979 0.0488 0.9940
vn 0.7721 0.0488 0.6336
vn -0.2899 0.0488 -0.9558
vn -0.2899 0.0488 0.9558
vn 0.6336 0.0488 0.7721
vn -0.0979 0.0488 -0.9940
vn -0.4708 0.0488 0.8809
vn 0.4708 0.0488 0.8809
vn 0.0979 0.0488 -0.9940
vn -0.6336 0.0488 0.7721
vn 0.2899 0.0488 0.9558
vn 0.2899 0.0488 -0.9558
vn -0.7721 0.0488 0.6336
vn 0.0979 0.0488 0.9940
vn 0.4708 0.0488 -0.8809
vn -0.8809 0.0488 0.4708
vn 0.6336 0.0488 -0.7721
vn -0.9558 0.0488 0.2899
vn 0.7721 0.0488 -0.6336
vn -0.9940 0.0488 0.0979
vn 0.8809 0.0488 -0.4708
vn -0.9940 0.0488 -0.0979
vn 0.9558 0.0488 -0.2899
vn -0.9558 0.0488 -0.2899
vt 0.334232 0.165644
vt 0.336988 0.193626
vt 0.350726 0.193626
vt 0.347706 0.162964
vt 0.052877 0.165644
vt 0.061039 0.138737
vt 0.048347 0.133479
vt 0.039403 0.162964
vt 0.326070 0.138737
vt 0.338762 0.133479
vt 0.050121 0.193626
vt 0.036383 0.193626
vt 0.312815 0.113939
vt 0.324238 0.106306
vt 0.052877 0.221609
vt 0.039403 0.224289
vt 0.294977 0.092203
vt 0.304691 0.082489
vt 0.061039 0.248516
vt 0.048347 0.253773
vt 0.273242 0.074366
vt 0.280874 0.062943
vt 0.074293 0.273314
vt 0.062871 0.280946
vt 0.248444 0.061111
vt 0.253701 0.048419
vt 0.221537 0.334304
vt 0.193554 0.337060
vt 0.193554 0.350798
vt 0.224217 0.347778
vt 0.092131 0.295049
vt 0.082417 0.304763
vt 0.221537 0.052949
vt 0.224217 0.039475
vt 0.248444 0.326142
vt 0.253701 0.338834
vt 0.113867 0.312887
vt 0.106234 0.324310
vt 0.193554 0.050193
vt 0.193554 0.036455
vt 0.273242 0.312887
vt 0.280874 0.324310
vt 0.138665 0.326142
vt 0.133407 0.338834
vt 0.165572 0.052949
vt 0.162892 0.039475
vt 0.294977 0.295049
vt 0.304691 0.304763
vt 0.165572 0.334304
vt 0.162892 0.347778
vt 0.138665 0.061111
vt 0.133407 0.048419
vt 0.312815 0.273314
vt 0.324238 0.280946
vt 0.113867 0.074366
vt 0.106234 0.062943
vt 0.326070 0.248516
vt 0.338762 0.253773
vt 0.092131 0.092203
vt 0.082417 0.082489
vt 0.334232 0.221609
vt 0.347706 0.224289
vt 0.074293 0.113939
vt 0.062871 0.106306
vt 0.165986 0.647789
vt 0.191278 0.645298
vt 0.215598 0.637920
vt 0.238011 0.625940
vt 0.257657 0.609817
vt 0.273780 0.590172
vt 0.285760 0.567758
vt 0.293137 0.543438
vt 0.295628 0.518146
vt 0.293137 0.492854
vt 0.285760 0.468534
vt 0.273780 0.446120
vt 0.257657 0.426475
vt 0.238011 0.410352
vt 0.215598 0.398372
vt 0.191278 0.390994
vt 0.165986 0.388503
vt 0.140694 0.390994
vt 0.116374 0.398372
vt 0.093960 0.410352
vt 0.074314 0.426475
vt 0.058192 0.446120
vt 0.046211 0.468534
vt 0.038834 0.492854
vt 0.036343 0.518146
vt 0.038834 0.543438
vt 0.046211 0.567758
vt 0.058192 0.590172
vt 0.074314 0.609817
vt 0.093960 0.625940
vt 0.116374 0.637920
vt 0.140694 0.645298
vt 0.813401 0.029568
vt 0.810764 0.280288
vt 0.840054 0.280288
vt 0.840054 0.029568
vt 0.787771 0.029568
vt 0.782601 0.280288
vt 0.764152 0.029568
vt 0.756645 0.280288
vt 0.743449 0.029568
vt 0.733895 0.280288
vt 0.915956 0.304260
vt 0.923462 0.554980
vt 0.946213 0.554980
vt 0.936658 0.304260
vt 0.892336 0.304260
vt 0.897506 0.554980
vt 0.866707 0.304260
vt 0.869343 0.554980
vt 0.840054 0.304260
vt 0.840054 0.554980
vt 0.813401 0.304260
vt 0.810764 0.554980
vt 0.787771 0.304260
vt 0.782601 0.554980
vt 0.764152 0.304260
vt 0.756645 0.554980
vt 0.743449 0.304260
vt 0.733895 0.554980
vt 0.866707 0.029568
vt 0.869343 0.280288
vt 0.892336 0.029568
vt 0.897506 0.280288
vt 0.915956 0.029568
vt 0.923462 0.280288
vt 0.936658 0.029568
vt 0.946213 0.280288
vt 0.850104 0.580108
vt 0.850104 0.634357
vt 0.882175 0.634357
vt 0.882175 0.580108
vt 0.913014 0.634357
vt 0.913014 0.580108
vt 0.941436 0.634357
vt 0.941436 0.580108
vt 0.966347 0.634357
vt 0.966347 0.580108
vt 0.818032 0.634357
vt 0.818032 0.580108
vt 0.787193 0.634357
vt 0.787193 0.580108
vt 0.758772 0.634357
vt 0.758772 0.580108
vt 0.733860 0.634357
vt 0.733860 0.580108
vt 0.966347 0.660641
vt 0.966347 0.714890
vt 0.941436 0.714890
vt 0.941436 0.660641
vt 0.913014 0.714890
vt 0.913014 0.660641
vt 0.882175 0.714890
vt 0.882175 0.660641
vt 0.850104 0.714890
vt 0.850104 0.660641
vt 0.818032 0.714890
vt 0.818032 0.660641
vt 0.787193 0.714890
vt 0.787193 0.660641
vt 0.758772 0.714890
vt 0.758772 0.660641
vt 0.733860 0.714890
vt 0.733860 0.660641
vt 0.733860 0.741174
vt 0.733860 0.795424
vt 0.758772 0.795424
vt 0.758772 0.741174
vt 0.787193 0.795424
vt 0.787193 0.741174
vt 0.818032 0.795424
vt 0.818032 0.741174
vt 0.850104 0.795424
vt 0.850104 0.741174
vt 0.882175 0.795424
vt 0.882175 0.741174
vt 0.913014 0.795424
vt 0.913014 0.741174
vt 0.941436 0.795424
vt 0.941436 0.741174
vt 0.966347 0.795424
vt 0.966347 0.741174
vt 0.586046 0.970663
vt 0.558061 0.970663
vt 0.560859 0.678385
vt 0.586046 0.678385
vt 0.545642 0.329764
vt 0.572201 0.327148
vt 0.576098 0.346736
vt 0.545642 0.349736
vt 0.597740 0.319401
vt 0.605383 0.337853
vt 0.621276 0.306820
vt 0.632372 0.323427
vt 0.641906 0.289890
vt 0.656028 0.304012
vt 0.658836 0.269260
vt 0.675443 0.280356
vt 0.671417 0.245724
vt 0.689869 0.253367
vt 0.679164 0.220185
vt 0.698752 0.224082
vt 0.681780 0.193626
vt 0.701752 0.193626
vt 0.679164 0.167067
vt 0.698752 0.163171
vt 0.671417 0.141529
vt 0.689869 0.133886
vt 0.658836 0.117992
vt 0.675443 0.106896
vt 0.641906 0.097363
vt 0.656028 0.083240
vt 0.621276 0.080432
vt 0.632372 0.063826
vt 0.597740 0.067852
vt 0.605383 0.049400
vt 0.572201 0.060105
vt 0.576098 0.040516
vt 0.545642 0.057489
vt 0.545642 0.037517
vt 0.519083 0.060105
vt 0.515187 0.040516
vt 0.493545 0.067852
vt 0.485902 0.049400
vt 0.470008 0.080432
vt 0.458913 0.063826
vt 0.449379 0.097363
vt 0.435256 0.083240
vt 0.432448 0.117992
vt 0.415842 0.106896
vt 0.419868 0.141529
vt 0.401416 0.133886
vt 0.412121 0.167067
vt 0.392532 0.163171
vt 0.409505 0.193626
vt 0.389533 0.193626
vt 0.412121 0.220185
vt 0.392532 0.224082
vt 0.419868 0.245724
vt 0.401416 0.253367
vt 0.432448 0.269260
vt 0.415842 0.280356
vt 0.449379 0.289890
vt 0.435256 0.304012
vt 0.470008 0.306820
vt 0.458913 0.323427
vt 0.493545 0.319401
vt 0.485902 0.337853
vt 0.519083 0.327148
vt 0.515187 0.346736
vt 0.479425 0.630900
vt 0.455521 0.633254
vt 0.431618 0.630900
vt 0.408634 0.623928
vt 0.387451 0.612605
vt 0.368884 0.597368
vt 0.353647 0.578801
vt 0.342324 0.557618
vt 0.335352 0.534634
vt 0.332998 0.510731
vt 0.335352 0.486827
vt 0.342324 0.463843
vt 0.353647 0.442660
vt 0.368884 0.424093
vt 0.387451 0.408856
vt 0.408634 0.397533
vt 0.431618 0.390561
vt 0.455521 0.388207
vt 0.479425 0.390561
vt 0.502409 0.397533
vt 0.523592 0.408856
vt 0.542159 0.424093
vt 0.557396 0.442660
vt 0.568719 0.463843
vt 0.575691 0.486827
vt 0.578045 0.510731
vt 0.575691 0.534634
vt 0.568719 0.557618
vt 0.557396 0.578801
vt 0.542159 0.597368
vt 0.523592 0.612605
vt 0.502409 0.623928
vt 0.051523 0.970663
vt 0.076323 0.970663
vt 0.081812 0.678385
vt 0.059492 0.678385
vt 0.614031 0.970663
vt 0.611232 0.678385
vt 0.029785 0.970663
vt 0.039929 0.678385
vt 0.640940 0.970663
vt 0.635451 0.678385
vt 0.438326 0.970663
vt 0.460063 0.970663
vt 0.449920 0.678385
vt 0.430357 0.678385
vt 0.665740 0.970663
vt 0.657771 0.678385
vt 0.413526 0.970663
vt 0.408037 0.678385
vt 0.159202 0.970663
vt 0.131217 0.970663
vt 0.131217 0.678385
vt 0.156404 0.678385
vt 0.687478 0.970663
vt 0.677334 0.678385
vt 0.386616 0.970663
vt 0.383818 0.678385
vt 0.186112 0.970663
vt 0.180622 0.678385
vt 0.358631 0.970663
vt 0.358631 0.678385
vt 0.210912 0.970663
vt 0.202942 0.678385
vt 0.330646 0.970663
vt 0.333445 0.678385
vt 0.232649 0.970663
vt 0.222506 0.678385
vt 0.103232 0.970663
vt 0.106031 0.678385
vt 0.303737 0.970663
vt 0.309226 0.678385
vt 0.210912 0.970663
vt 0.278937 0.970663
vt 0.286906 0.678385
vt 0.257200 0.970663
vt 0.267343 0.678385
vt 0.506351 0.970663
vt 0.484614 0.970663
vt 0.494757 0.678385
vt 0.514320 0.678385
vt 0.531151 0.970663
vt 0.536641 0.678385
s 0
g Bucket_Material.011
usemtl Material.011
f 42/1/1 41/2/1 105/3/1 106/4/1
f 56/5/2 55/6/2 119/7/2 120/8/2
f 43/9/3 42/1/3 106/4/3 107/10/3
f 57/11/4 56/5/4 120/8/4 121/12/4
f 44/13/5 43/9/5 107/10/5 108/14/5
f 58/15/6 57/11/6 121/12/6 122/16/6
f 45/17/7 44/13/7 108/14/7 109/18/7
f 59/19/8 58/15/8 122/16/8 123/20/8
f 46/21/9 45/17/9 109/18/9 110/22/9
f 60/23/10 59/19/10 123/20/10 124/24/10
f 47/25/11 46/21/11 110/22/11 111/26/11
f 34/27/12 33/28/12 67/29/12 98/30/12
f 61/31/13 60/23/13 124/24/13 125/32/13
f 48/33/14 47/25/14 111/26/14 112/34/14
f 35/35/15 34/27/15 98/30/15 99/36/15
f 62/37/16 61/31/16 125/32/16 126/38/16
f 49/39/17 48/33/17 112/34/17 113/40/17
f 36/41/18 35/35/18 99/36/18 100/42/18
f 63/43/19 62/37/19 126/38/19 127/44/19
f 50/45/20 49/39/20 113/40/20 114/46/20
f 37/47/21 36/41/21 100/42/21 101/48/21
f 64/49/22 63/43/22 127/44/22 128/50/22
f 51/51/23 50/45/23 114/46/23 115/52/23
f 38/53/24 37/47/24 101/48/24 102/54/24
f 33/28/25 64/49/25 128/50/25 67/29/25
f 52/55/26 51/51/26 115/52/26 116/56/26
f 39/57/27 38/53/27 102/54/27 103/58/27
f 53/59/28 52/55/28 116/56/28 117/60/28
f 40/61/29 39/57/29 103/58/29 104/62/29
f 54/63/30 53/59/30 117/60/30 118/64/30
f 41/2/31 40/61/31 104/62/31 105/3/31
f 55/6/32 54/63/32 118/64/32 119/7/32
f 1/65/33 2/66/33 3/67/33 4/68/33 5/69/33 6/70/33 7/71/33 8/72/33 9/73/33 10/74/33 11/75/33 12/76/33 13/77/33 14/78/33 15/79/33 16/80/33 17/81/33 18/82/33 19/83/33 20/84/33 21/85/33 22/86/33 23/87/33 24/88/33 25/89/33 26/90/33 27/91/33 28/92/33 29/93/33 30/94/33 31/95/33 32/96/33
f 32/97/34 64/98/34 33/99/34 1/100/34
f 31/101/35 63/102/35 64/98/35 32/97/35
f 30/103/36 62/104/36 63/102/36 31/101/36
f 29/105/37 61/106/37 62/104/37 30/103/37
f 28/107/38 60/108/38 61/109/38 29/110/38
f 27/111/39 59/112/39 60/108/39 28/107/39
f 26/113/40 58/114/40 59/112/40 27/111/40
f 25/115/41 57/116/41 58/114/41 26/113/41
f 24/117/42 56/118/42 57/116/42 25/115/42
f 23/119/43 55/120/43 56/118/43 24/117/43
f 22/121/44 54/122/44 55/120/44 23/119/44
f 21/123/45 53/124/45 54/122/45 22/121/45
f 20/121/46 52/122/46 53/124/46 21/123/46
f 19/119/47 51/120/47 52/122/47 20/121/47
f 18/117/48 50/118/48 51/120/48 19/119/48
f 17/115/49 49/116/49 50/118/49 18/117/49
f 16/113/50 48/114/50 49/116/50 17/115/50
f 15/111/51 47/112/51 48/114/51 16/113/51
f 14/107/52 46/108/52 47/112/52 15/111/52
f 13/110/53 45/109/53 46/108/53 14/107/53
f 12/103/54 44/104/54 45/106/54 13/105/54
f 11/101/55 43/102/55 44/104/55 12/103/55
f 10/97/56 42/98/56 43/102/56 11/101/56
f 9/100/57 41/99/57 42/98/57 10/97/57
f 8/125/58 40/126/58 41/99/58 9/100/58
f 7/127/59 39/128/59 40/126/59 8/125/59
f 6/129/60 38/130/60 39/128/60 7/127/60
f 5/131/61 37/132/61 38/130/61 6/129/61
f 4/129/62 36/130/62 37/132/62 5/131/62
f 3/127/63 35/128/63 36/130/63 4/129/63
f 2/125/64 34/126/64 35/128/64 3/127/64
f 1/100/65 33/99/65 34/126/65 2/125/65
f 67/133/66 130/134/66 129/135/66 98/136/66
f 98/136/67 129/135/67 131/137/67 99/138/67
f 99/138/68 131/137/68 132/139/68 100/140/68
f 100/140/69 132/139/69 133/141/69 101/142/69
f 101/142/70 133/141/70 134/139/70 102/140/70
f 102/140/71 134/139/71 135/137/71 103/138/71
f 103/138/72 135/137/72 136/135/72 104/136/72
f 104/136/73 136/135/73 137/134/73 105/133/73
f 105/133/74 137/134/74 138/143/74 106/144/74
f 106/144/75 138/143/75 139/145/75 107/146/75
f 107/146/76 139/145/76 140/147/76 108/148/76
f 108/148/77 140/147/77 141/149/77 109/150/77
f 109/151/78 141/152/78 142/153/78 110/154/78
f 110/154/79 142/153/79 143/155/79 111/156/79
f 111/156/80 143/155/80 144/157/80 112/158/80
f 112/158/81 144/157/81 145/159/81 113/160/81
f 113/160/82 145/159/82 146/161/82 114/162/82
f 114/162/83 146/161/83 147/163/83 115/164/83
f 115/164/84 147/163/84 148/165/84 116/166/84
f 116/166/85 148/165/85 149/167/85 117/168/85
f 117/169/86 149/170/86 150/171/86 118/172/86
f 118/172/87 150/171/87 151/173/87 119/174/87
f 119/174/88 151/173/88 152/175/88 120/176/88
f 120/176/89 152/175/89 153/177/89 121/178/89
f 121/178/90 153/177/90 154/179/90 122/180/90
f 122/180/91 154/179/91 155/181/91 123/182/91
f 123/182/92 155/181/92 156/183/92 124/184/92
f 124/184/93 156/183/93 157/185/93 125/186/93
f 125/150/94 157/149/94 158/147/94 126/148/94
f 126/148/95 158/147/95 159/145/95 127/146/95
f 90/187/96 89/188/96 184/189/96 185/190/96
f 127/146/97 159/145/97 160/143/97 128/144/97
f 128/144/98 160/143/98 130/134/98 67/133/98
f 66/191/99 65/192/99 129/193/99 130/194/99
f 65/192/99 68/195/99 131/196/99 129/193/99
f 68/195/99 69/197/99 132/198/99 131/196/99
f 69/197/99 70/199/99 133/200/99 132/198/99
f 70/199/99 71/201/99 134/202/99 133/200/99
f 71/201/99 72/203/99 135/204/99 134/202/99
f 72/203/99 73/205/99 136/206/99 135/204/99
f 73/205/99 74/207/99 137/208/99 136/206/99
f 74/207/99 75/209/99 138/210/99 137/208/99
f 75/209/99 76/211/99 139/212/99 138/210/99
f 76/211/99 77/213/99 140/214/99 139/212/99
f 77/213/99 78/215/99 141/216/99 140/214/99
f 78/215/99 79/217/99 142/218/99 141/216/99
f 79/217/99 80/219/99 143/220/99 142/218/99
f 80/219/99 81/221/99 144/222/99 143/220/99
f 81/221/99 82/223/99 145/224/99 144/222/99
f 82/223/99 83/225/99 146/226/99 145/224/99
f 83/225/99 84/227/99 147/228/99 146/226/99
f 84/227/99 85/229/99 148/230/99 147/228/99
f 85/229/99 86/231/99 149/232/99 148/230/99
f 86/231/99 87/233/99 150/234/99 149/232/99
f 87/233/99 88/235/99 151/236/99 150/234/99
f 88/235/99 89/237/99 152/238/99 151/236/99
f 89/237/99 90/239/99 153/240/99 152/238/99
f 90/239/99 91/241/99 154/242/99 153/240/99
f 91/241/99 92/243/99 155/244/99 154/242/99
f 92/243/99 93/245/99 156/246/99 155/244/99
f 93/245/99 94/247/99 157/248/99 156/246/99
f 94/247/99 95/249/99 158/250/99 157/248/99
f 95/249/99 96/251/99 159/252/99 158/250/99
f 96/251/99 97/253/99 160/254/99 159/252/99
f 97/253/99 66/191/99 130/194/99 160/254/99
f 161/255/99 162/256/99 192/257/99 191/258/99 190/259/99 189/260/99 188/261/99 187/262/99 186/263/99 185/264/99 184/265/99 183/266/99 182/267/99 181/268/99 180/269/99 179/270/99 178/271/99 177/272/99 176/273/99 175/274/99 174/275/99 173/276/99 172/277/99 171/278/99 170/279/99 169/280/99 168/281/99 167/282/99 166/283/99 165/284/99 164/285/99 163/286/99
f 77/287/100 76/288/100 171/289/100 172/290/100
f 91/291/101 90/187/101 185/190/101 186/292/101
f 78/293/102 77/287/102 172/290/102 173/294/102
f 92/295/103 91/291/103 186/292/103 187/296/103
f 79/297/104 78/298/104 173/299/104 174/300/104
f 93/301/105 92/295/105 187/296/105 188/302/105
f 80/303/106 79/297/106 174/300/106 175/304/106
f 65/305/107 66/306/107 162/307/107 161/308/107
f 94/309/108 93/301/108 188/302/108 189/310/108
f 81/311/109 80/303/109 175/304/109 176/312/109
f 68/313/110 65/305/110 161/308/110 163/314/110
f 95/287/111 94/293/111 189/294/111 190/290/111
f 82/315/112 81/311/112 176/312/112 177/316/112
f 69/317/113 68/313/113 163/314/113 164/318/113
f 96/288/114 95/287/114 190/290/114 191/289/114
f 83/319/115 82/315/115 177/316/115 178/320/115
f 70/321/116 69/317/116 164/318/116 165/322/116
f 97/323/117 96/288/117 191/289/117 192/324/117
f 84/325/118 83/319/118 178/320/118 179/326/118
f 71/327/119 70/321/119 165/322/119 166/318/119
f 66/306/120 97/323/120 192/324/120 162/307/120
f 85/328/121 84/325/121 179/326/121 180/329/121
f 72/313/122 71/327/122 166/318/122 167/314/122
f 86/330/123 85/328/123 180/329/123 181/331/123
f 73/305/124 72/313/124 167/314/124 168/308/124
f 87/332/125 86/333/125 181/334/125 182/335/125
f 74/306/126 73/305/126 168/308/126 169/307/126
f 88/336/127 87/332/127 182/335/127 183/337/127
f 75/323/128 74/306/128 169/307/128 170/324/128
f 89/188/129 88/336/129 183/337/129 184/189/129
f 76/288/130 75/323/130 170/324/130 171/289/130
