# Blender 5.0.0
# www.blender.org
mtllib Can_03.mtl
o Can_3
v 0.000000 0.838379 -0.779717
v 0.152115 0.838379 -0.764735
v 0.298385 0.838379 -0.720364
v 0.433187 0.838379 -0.648311
v 0.551343 0.838379 -0.551343
v 0.648311 0.838379 -0.433187
v 0.720364 0.838379 -0.298385
v 0.764735 0.838379 -0.152115
v 0.779717 0.838379 0.000000
v 0.764735 0.838379 0.152115
v 0.720364 0.838379 0.298385
v 0.648311 0.838379 0.433187
v 0.551343 0.838379 0.551343
v 0.433187 0.838379 0.648311
v 0.298385 0.838379 0.720364
v 0.152115 0.838379 0.764735
v 0.000000 0.838379 0.779717
v -0.152115 0.838379 0.764735
v -0.298385 0.838379 0.720364
v -0.433187 0.838379 0.648311
v -0.551343 0.838379 0.551343
v -0.648311 0.838379 0.433187
v -0.720364 0.838379 0.298385
v -0.764735 0.838379 0.152115
v -0.779717 0.838379 0.000000
v -0.764735 0.838379 -0.152115
v -0.720364 0.838379 -0.298385
v -0.648311 0.838379 -0.433187
v -0.551343 0.838379 -0.551343
v -0.433187 0.838379 -0.648311
v -0.298385 0.838379 -0.720364
v -0.152115 0.838379 -0.764735
v 0.145414 0.838379 -0.731046
v 0.000000 0.838379 -0.745368
v -0.145414 0.838379 -0.731046
v -0.285240 0.838379 -0.688630
v -0.414104 0.838379 -0.619750
v -0.527054 0.838379 -0.527054
v -0.619750 0.838379 -0.414104
v -0.688630 0.838379 -0.285240
v -0.731046 0.838379 -0.145414
v -0.745368 0.838379 0.000000
v -0.731046 0.838379 0.145414
v -0.688630 0.838379 0.285240
v -0.619750 0.838379 0.414104
v -0.527054 0.838379 0.527054
v -0.414104 0.838379 0.619750
v -0.285240 0.838379 0.688630
v -0.145414 0.838379 0.731046
v 0.000000 0.838379 0.745368
v 0.145414 0.838379 0.731046
v 0.285240 0.838379 0.688630
v 0.414104 0.838379 0.619750
v 0.527054 0.838379 0.527054
v 0.619750 0.838379 0.414104
v 0.688630 0.838379 0.285240
v 0.731046 0.838379 0.145414
v 0.745368 0.838379 0.000000
v 0.731046 0.838379 -0.145414
v 0.688630 0.838379 -0.285240
v 0.619750 0.838379 -0.414104
v 0.527054 0.838379 -0.527054
v 0.414104 0.838379 -0.619750
v 0.285240 0.838379 -0.688630
v 0.152115 0.859960 -0.764735
v 0.000000 0.859960 -0.779717
v 0.298385 0.859960 -0.720364
v 0.433187 0.859960 -0.648311
v 0.551343 0.859960 -0.551343
v 0.648311 0.859960 -0.433187
v 0.720364 0.859960 -0.298385
v 0.764735 0.859960 -0.152115
v 0.779717 0.859960 0.000000
v 0.764735 0.859960 0.152115
v 0.720364 0.859960 0.298385
v 0.648311 0.859960 0.433187
v 0.551343 0.859960 0.551343
v 0.433187 0.859960 0.648311
v 0.298385 0.859960 0.720364
v 0.152115 0.859960 0.764735
v 0.000000 0.859960 0.779717
v -0.152115 0.859960 0.764735
v -0.298385 0.859960 0.720364
v -0.433187 0.859960 0.648311
v -0.551343 0.859960 0.551343
v -0.648311 0.859960 0.433187
v -0.720364 0.859960 0.298385
v -0.764735 0.859960 0.152115
v -0.779717 0.859960 0.000000
v -0.764735 0.859960 -0.152115
v -0.720364 0.859960 -0.298385
v -0.648311 0.859960 -0.433187
v -0.551343 0.859960 -0.551343
v -0.433187 0.859960 -0.648311
v -0.298385 0.859960 -0.720364
v -0.152115 0.859960 -0.764735
v 0.145414 0.859960 -0.731046
v 0.000000 0.859960 -0.745368
v 0.285240 0.859960 -0.688630
v -0.145414 0.859960 -0.731046
v -0.285240 0.859960 -0.688630
v -0.414104 0.859960 -0.619750
v -0.527054 0.859960 -0.527054
v -0.619750 0.859960 -0.414104
v -0.688630 0.859960 -0.285240
v -0.731046 0.859960 -0.145414
v -0.745368 0.859960 0.000000
v -0.731046 0.859960 0.145414
v -0.688630 0.859960 0.285240
v -0.619750 0.859960 0.414104
v -0.527054 0.859960 0.527054
v -0.414104 0.859960 0.619750
v -0.285240 0.859960 0.688630
v -0.145414 0.859960 0.731046
v 0.000000 0.859960 0.745368
v 0.145414 0.859960 0.731046
v 0.285240 0.859960 0.688630
v 0.414104 0.859960 0.619750
v 0.527054 0.859960 0.527054
v 0.619750 0.859960 0.414104
v 0.688630 0.859960 0.285240
v 0.731046 0.859960 0.145414
v 0.745368 0.859960 0.000000
v 0.731046 0.859960 -0.145414
v 0.688630 0.859960 -0.285240
v 0.619750 0.859960 -0.414104
v 0.527054 0.859960 -0.527054
v 0.414104 0.859960 -0.619750
v 0.000000 -0.838379 -0.655872
v 0.000000 -0.705858 -0.779717
v 0.000000 -0.831893 -0.694142
v 0.000000 -0.813069 -0.728666
v 0.000000 -0.783752 -0.756065
v 0.000000 -0.746809 -0.773655
v 0.127954 -0.838379 -0.643270
v 0.152115 -0.705858 -0.764735
v 0.135420 -0.831893 -0.680805
v 0.142156 -0.813069 -0.714665
v 0.147501 -0.783752 -0.741537
v 0.150933 -0.746809 -0.758790
v 0.250991 -0.838379 -0.605947
v 0.298385 -0.705858 -0.720364
v 0.265637 -0.831893 -0.641304
v 0.278848 -0.813069 -0.673200
v 0.289333 -0.783752 -0.698513
v 0.296065 -0.746809 -0.714764
v 0.364383 -0.838379 -0.545338
v 0.433187 -0.705858 -0.648311
v 0.385645 -0.831893 -0.577158
v 0.404825 -0.813069 -0.605864
v 0.420047 -0.783752 -0.628645
v 0.429820 -0.746809 -0.643271
v 0.463772 -0.838379 -0.463772
v 0.551343 -0.705858 -0.551343
v 0.490833 -0.831893 -0.490833
v 0.515245 -0.813069 -0.515245
v 0.534618 -0.783752 -0.534618
v 0.547057 -0.746809 -0.547057
v 0.545338 -0.838379 -0.364383
v 0.648311 -0.705858 -0.433187
v 0.577158 -0.831893 -0.385645
v 0.605864 -0.813069 -0.404825
v 0.628645 -0.783752 -0.420047
v 0.643271 -0.746809 -0.429820
v 0.605947 -0.838379 -0.250991
v 0.720364 -0.705858 -0.298385
v 0.641304 -0.831893 -0.265637
v 0.673200 -0.813069 -0.278848
v 0.698513 -0.783752 -0.289333
v 0.714764 -0.746809 -0.296065
v 0.643270 -0.838379 -0.127954
v 0.764735 -0.705858 -0.152115
v 0.680805 -0.831893 -0.135420
v 0.714665 -0.813069 -0.142156
v 0.741537 -0.783752 -0.147501
v 0.758790 -0.746809 -0.150933
v 0.655872 -0.838379 0.000000
v 0.779717 -0.705858 0.000000
v 0.694142 -0.831893 0.000000
v 0.728666 -0.813069 0.000000
v 0.756065 -0.783752 0.000000
v 0.773655 -0.746809 0.000000
v 0.643270 -0.838379 0.127954
v 0.764735 -0.705858 0.152115
v 0.680805 -0.831893 0.135420
v 0.714665 -0.813069 0.142156
v 0.741537 -0.783752 0.147501
v 0.758790 -0.746809 0.150933
v 0.605947 -0.838379 0.250991
v 0.720364 -0.705858 0.298385
v 0.641304 -0.831893 0.265637
v 0.673200 -0.813069 0.278848
v 0.698513 -0.783752 0.289333
v 0.714764 -0.746809 0.296065
v 0.545338 -0.838379 0.364383
v 0.648311 -0.705858 0.433187
v 0.577158 -0.831893 0.385645
v 0.605864 -0.813069 0.404825
v 0.628645 -0.783752 0.420047
v 0.643271 -0.746809 0.429820
v 0.463772 -0.838379 0.463772
v 0.551343 -0.705858 0.551343
v 0.490833 -0.831893 0.490833
v 0.515245 -0.813069 0.515245
v 0.534618 -0.783752 0.534618
v 0.547057 -0.746809 0.547057
v 0.364383 -0.838379 0.545338
v 0.433187 -0.705858 0.648311
v 0.385645 -0.831893 0.577158
v 0.404825 -0.813069 0.605864
v 0.420047 -0.783752 0.628645
v 0.429820 -0.746809 0.643271
v 0.250991 -0.838379 0.605947
v 0.298385 -0.705858 0.720364
v 0.265637 -0.831893 0.641304
v 0.278848 -0.813069 0.673200
v 0.289333 -0.783752 0.698513
v 0.296065 -0.746809 0.714764
v 0.127954 -0.838379 0.643270
v 0.152115 -0.705858 0.764735
v 0.135420 -0.831893 0.680805
v 0.142156 -0.813069 0.714665
v 0.147501 -0.783752 0.741537
v 0.150933 -0.746809 0.758790
v -0.000000 -0.838379 0.655872
v 0.000000 -0.705858 0.779717
v -0.000000 -0.831893 0.694142
v -0.000000 -0.813069 0.728666
v -0.000000 -0.783752 0.756065
v 0.000000 -0.746809 0.773655
v -0.127954 -0.838379 0.643270
v -0.152115 -0.705858 0.764735
v -0.135420 -0.831893 0.680805
v -0.142156 -0.813069 0.714665
v -0.147501 -0.783752 0.741537
v -0.150933 -0.746809 0.758790
v -0.250991 -0.838379 0.605947
v -0.298385 -0.705858 0.720364
v -0.265637 -0.831893 0.641304
v -0.278848 -0.813069 0.673200
v -0.289333 -0.783752 0.698513
v -0.296065 -0.746809 0.714764
v -0.364383 -0.838379 0.545338
v -0.433187 -0.705858 0.648311
v -0.385645 -0.831893 0.577158
v -0.404825 -0.813069 0.605864
v -0.420047 -0.783752 0.628645
v -0.429820 -0.746809 0.643271
v -0.463772 -0.838379 0.463772
v -0.551343 -0.705858 0.551343
v -0.490833 -0.831893 0.490833
v -0.515245 -0.813069 0.515245
v -0.534618 -0.783752 0.534618
v -0.547057 -0.746809 0.547057
v -0.545338 -0.838379 0.364383
v -0.648311 -0.705858 0.433187
v -0.577158 -0.831893 0.385645
v -0.605864 -0.813069 0.404825
v -0.628645 -0.783752 0.420047
v -0.643271 -0.746809 0.429820
v -0.605947 -0.838379 0.250991
v -0.720364 -0.705858 0.298385
v -0.641304 -0.831893 0.265637
v -0.673200 -0.813069 0.278848
v -0.698513 -0.783752 0.289333
v -0.714764 -0.746809 0.296065
v -0.643270 -0.838379 0.127954
v -0.764735 -0.705858 0.152115
v -0.680805 -0.831893 0.135420
v -0.714665 -0.813069 0.142156
v -0.741537 -0.783752 0.147501
v -0.758790 -0.746809 0.150933
v -0.655872 -0.838379 -0.000000
v -0.779717 -0.705858 0.000000
v -0.694142 -0.831893 -0.000000
v -0.728666 -0.813069 -0.000000
v -0.756065 -0.783752 -0.000000
v -0.773655 -0.746809 0.000000
v -0.643270 -0.838379 -0.127954
v -0.764735 -0.705858 -0.152115
v -0.680805 -0.831893 -0.135420
v -0.714665 -0.813069 -0.142156
v -0.741537 -0.783752 -0.147501
v -0.758790 -0.746809 -0.150933
v -0.605947 -0.838379 -0.250991
v -0.720364 -0.705858 -0.298385
v -0.641304 -0.831893 -0.265637
v -0.673200 -0.813069 -0.278848
v -0.698513 -0.783752 -0.289333
v -0.714764 -0.746809 -0.296065
v -0.545338 -0.838379 -0.364383
v -0.648311 -0.705858 -0.433187
v -0.577158 -0.831893 -0.385645
v -0.605864 -0.813069 -0.404825
v -0.628645 -0.783752 -0.420047
v -0.643271 -0.746809 -0.429820
v -0.463772 -0.838379 -0.463772
v -0.551343 -0.705858 -0.551343
v -0.490833 -0.831893 -0.490833
v -0.515245 -0.813069 -0.515245
v -0.534618 -0.783752 -0.534618
v -0.547057 -0.746809 -0.547057
v -0.364383 -0.838379 -0.545338
v -0.433187 -0.705858 -0.648311
v -0.385645 -0.831893 -0.577158
v -0.404825 -0.813069 -0.605864
v -0.420047 -0.783752 -0.628645
v -0.429820 -0.746809 -0.643271
v -0.250991 -0.838379 -0.605947
v -0.298385 -0.705858 -0.720364
v -0.265637 -0.831893 -0.641304
v -0.278848 -0.813069 -0.673200
v -0.289333 -0.783752 -0.698513
v -0.296065 -0.746809 -0.714764
v -0.127954 -0.838379 -0.643270
v -0.152115 -0.705858 -0.764735
v -0.135420 -0.831893 -0.680805
v -0.142156 -0.813069 -0.714665
v -0.147501 -0.783752 -0.741537
v -0.150933 -0.746809 -0.758790
vn -0.0000 1.0000 -0.0000
vn -0.9952 -0.0000 0.0980
vn -0.2903 -0.0000 0.9569
vn -0.9569 -0.0000 0.2903
vn 0.2903 -0.0000 0.9569
vn -0.0980 -0.0000 0.9952
vn 0.8819 -0.0000 -0.4714
vn -0.0980 -0.0000 -0.9952
vn -0.9952 -0.0000 -0.0980
vn -0.9569 -0.0000 -0.2903
vn 0.4714 -0.0000 0.8819
vn -0.8819 -0.0000 -0.4714
vn 0.7730 -0.0000 -0.6344
vn -0.2903 -0.0000 -0.9569
vn -0.7730 -0.0000 -0.6344
vn -0.8819 -0.0000 0.4714
vn -0.6344 -0.0000 -0.7730
vn 0.6344 -0.0000 0.7730
vn -0.4714 -0.0000 -0.8819
vn 0.6344 -0.0000 -0.7730
vn -0.7730 -0.0000 0.6344
vn 0.7730 -0.0000 0.6344
vn 0.0980 -0.0000 -0.9952
vn 0.4714 -0.0000 -0.8819
vn 0.2903 -0.0000 -0.9569
vn -0.6344 -0.0000 0.7730
vn 0.0980 -0.0000 0.9952
vn 0.9569 -0.0000 -0.2903
vn -0.4714 -0.0000 0.8819
vn 0.9952 -0.0000 -0.0980
vn 0.8819 -0.0000 0.4714
vn 0.9569 -0.0000 0.2903
vn 0.9952 -0.0000 0.0980
vn 0.0970 -0.1457 -0.9846
vn 0.0886 -0.4282 -0.8993
vn 0.0718 -0.6810 -0.7287
vn 0.0471 -0.8770 -0.4782
vn 0.0165 -0.9858 -0.1671
vn 0.2872 -0.1457 -0.9467
vn 0.2623 -0.4282 -0.8648
vn 0.2126 -0.6810 -0.7007
vn 0.1395 -0.8770 -0.4598
vn 0.0487 -0.9858 -0.1607
vn 0.4664 -0.1457 -0.8725
vn 0.4260 -0.4282 -0.7970
vn 0.3452 -0.6810 -0.6458
vn 0.2265 -0.8770 -0.4237
vn 0.0791 -0.9858 -0.1481
vn 0.6276 -0.1457 -0.7648
vn 0.5733 -0.4282 -0.6985
vn 0.4645 -0.6810 -0.5660
vn 0.3048 -0.8770 -0.3714
vn 0.1065 -0.9858 -0.1298
vn 0.7648 -0.1457 -0.6276
vn 0.6985 -0.4282 -0.5733
vn 0.5660 -0.6810 -0.4645
vn 0.3714 -0.8770 -0.3048
vn 0.1298 -0.9858 -0.1065
vn 0.8725 -0.1457 -0.4664
vn 0.7970 -0.4282 -0.4260
vn 0.6458 -0.6810 -0.3452
vn 0.4237 -0.8770 -0.2265
vn 0.1481 -0.9858 -0.0791
vn 0.9467 -0.1457 -0.2872
vn 0.8648 -0.4282 -0.2623
vn 0.7007 -0.6810 -0.2126
vn 0.4598 -0.8770 -0.1395
vn 0.1607 -0.9858 -0.0487
vn 0.9846 -0.1457 -0.0970
vn 0.8993 -0.4282 -0.0886
vn 0.7287 -0.6810 -0.0718
vn 0.4782 -0.8770 -0.0471
vn 0.1671 -0.9858 -0.0165
vn 0.9846 -0.1457 0.0970
vn 0.8993 -0.4282 0.0886
vn 0.7287 -0.6810 0.0718
vn 0.4782 -0.8770 0.0471
vn 0.1671 -0.9858 0.0165
vn 0.9467 -0.1457 0.2872
vn 0.8648 -0.4282 0.2623
vn 0.7007 -0.6810 0.2126
vn 0.4598 -0.8770 0.1395
vn 0.1607 -0.9858 0.0487
vn 0.8725 -0.1457 0.4664
vn 0.7970 -0.4282 0.4260
vn 0.6458 -0.6810 0.3452
vn 0.4237 -0.8770 0.2265
vn 0.1481 -0.9858 0.0791
vn 0.7648 -0.1457 0.6276
vn 0.6985 -0.4282 0.5733
vn 0.5660 -0.6810 0.4645
vn 0.3714 -0.8770 0.3048
vn 0.1298 -0.9858 0.1065
vn 0.6276 -0.1457 0.7648
vn 0.5733 -0.4282 0.6985
vn 0.4645 -0.6810 0.5660
vn 0.3048 -0.8770 0.3714
vn 0.1065 -0.9858 0.1298
vn 0.4664 -0.1457 0.8725
vn 0.4260 -0.4282 0.7970
vn 0.3452 -0.6810 0.6458
vn 0.2265 -0.8770 0.4237
vn 0.0791 -0.9858 0.1481
vn 0.2872 -0.1457 0.9467
vn 0.2623 -0.4282 0.8648
vn 0.2126 -0.6810 0.7007
vn 0.1395 -0.8770 0.4598
vn 0.0487 -0.9858 0.1607
vn 0.0970 -0.1457 0.9846
vn 0.0886 -0.4282 0.8993
vn 0.0718 -0.6810 0.7287
vn 0.0471 -0.8770 0.4782
vn 0.0165 -0.9858 0.1671
vn -0.0970 -0.1457 0.9846
vn -0.0886 -0.4282 0.8993
vn -0.0718 -0.6810 0.7287
vn -0.0471 -0.8770 0.4782
vn -0.0165 -0.9858 0.1671
vn -0.2872 -0.1457 0.9467
vn -0.2623 -0.4282 0.8648
vn -0.2126 -0.6810 0.7007
vn -0.1395 -0.8770 0.4598
vn -0.0487 -0.9858 0.1607
vn -0.4664 -0.1457 0.8725
vn -0.4260 -0.4282 0.7970
vn -0.3452 -0.6810 0.6458
vn -0.2265 -0.8770 0.4237
vn -0.0791 -0.9858 0.1481
vn -0.6276 -0.1457 0.7648
vn -0.5733 -0.4282 0.6985
vn -0.4645 -0.6810 0.5660
vn -0.3048 -0.8770 0.3714
vn -0.1065 -0.9858 0.1298
vn -0.7648 -0.1457 0.6276
vn -0.6985 -0.4282 0.5733
vn -0.5660 -0.6810 0.4645
vn -0.3714 -0.8770 0.3048
vn -0.1298 -0.9858 0.1065
vn -0.8725 -0.1457 0.4664
vn -0.7970 -0.4282 0.4260
vn -0.6458 -0.6810 0.3452
vn -0.4237 -0.8770 0.2265
vn -0.1481 -0.9858 0.0791
vn -0.9467 -0.1457 0.2872
vn -0.8648 -0.4282 0.2623
vn -0.7007 -0.6810 0.2126
vn -0.4598 -0.8770 0.1395
vn -0.1607 -0.9858 0.0487
vn -0.9846 -0.1457 0.0970
vn -0.8993 -0.4282 0.0886
vn -0.7287 -0.6810 0.0718
vn -0.4782 -0.8770 0.0471
vn -0.1671 -0.9858 0.0165
vn -0.9846 -0.1457 -0.0970
vn -0.8993 -0.4282 -0.0886
vn -0.7287 -0.6810 -0.0718
vn -0.4782 -0.8770 -0.0471
vn -0.1671 -0.9858 -0.0165
vn -0.9467 -0.1457 -0.2872
vn -0.8648 -0.4282 -0.2623
vn -0.7007 -0.6810 -0.2126
vn -0.4598 -0.8770 -0.1395
vn -0.1607 -0.9858 -0.0487
vn -0.8725 -0.1457 -0.4664
vn -0.7970 -0.4282 -0.4260
vn -0.6458 -0.6810 -0.3452
vn -0.4237 -0.8770 -0.2265
vn -0.1481 -0.9858 -0.0791
vn -0.7648 -0.1457 -0.6276
vn -0.6985 -0.4282 -0.5733
vn -0.5660 -0.6810 -0.4645
vn -0.3714 -0.8770 -0.3048
vn -0.1298 -0.9858 -0.1065
vn -0.6276 -0.1457 -0.7648
vn -0.5733 -0.4282 -0.6985
vn -0.4645 -0.6810 -0.5660
vn -0.3048 -0.8770 -0.3714
vn -0.1065 -0.9858 -0.1298
vn -0.4664 -0.1457 -0.8725
vn -0.4260 -0.4282 -0.7970
vn -0.3452 -0.6810 -0.6458
vn -0.2265 -0.8770 -0.4237
vn -0.0791 -0.9858 -0.1481
vn -0.2872 -0.1457 -0.9467
vn -0.2623 -0.4282 -0.8648
vn -0.2126 -0.6810 -0.7007
vn -0.1395 -0.8770 -0.4598
vn -0.0487 -0.9858 -0.1607
vn -0.0970 -0.1457 -0.9846
vn -0.0886 -0.4282 -0.8993
vn -0.0718 -0.6810 -0.7287
vn -0.0471 -0.8770 -0.4782
vn -0.0165 -0.9858 -0.1671
vn -0.0000 -1.0000 -0.0000
vt 0.240974 0.961703
vt 0.205108 0.965235
vt 0.169241 0.961703
vt 0.134753 0.951241
vt 0.102969 0.934252
vt 0.075110 0.911388
vt 0.052246 0.883529
vt 0.035257 0.851745
vt 0.024795 0.817257
vt 0.021263 0.781390
vt 0.024795 0.745524
vt 0.035257 0.711035
vt 0.052246 0.679251
vt 0.075110 0.651392
vt 0.102969 0.628528
vt 0.134753 0.611539
vt 0.169241 0.601077
vt 0.205108 0.597545
vt 0.240974 0.601077
vt 0.275462 0.611539
vt 0.307247 0.628528
vt 0.335106 0.651392
vt 0.357970 0.679251
vt 0.374959 0.711036
vt 0.385420 0.745524
vt 0.388953 0.781390
vt 0.385420 0.817257
vt 0.374959 0.851745
vt 0.357970 0.883529
vt 0.335106 0.911388
vt 0.307247 0.934252
vt 0.275462 0.951241
vt 0.837844 0.398684
vt 0.798274 0.398684
vt 0.798274 0.403905
vt 0.837844 0.403905
vt 0.217798 0.204174
vt 0.254116 0.204174
vt 0.254116 0.209388
vt 0.217798 0.209388
vt 0.877413 0.398684
vt 0.915462 0.398684
vt 0.915462 0.403905
vt 0.877413 0.403905
vt 0.180029 0.204174
vt 0.180029 0.209388
vt 0.934075 0.982129
vt 0.969141 0.982129
vt 0.969141 0.987351
vt 0.934075 0.987351
vt 0.856457 0.982129
vt 0.816887 0.982129
vt 0.816887 0.987351
vt 0.856457 0.987351
vt 0.142259 0.204174
vt 0.142259 0.209388
vt 0.760226 0.398684
vt 0.760225 0.403905
vt 0.105941 0.204174
vt 0.105941 0.209388
vt 0.950528 0.398684
vt 0.950528 0.403905
vt 0.072470 0.204174
vt 0.072470 0.209388
vt 0.999877 0.982129
vt 0.999877 0.987351
vt 0.778839 0.982129
vt 0.778839 0.987351
vt 0.043132 0.204174
vt 0.043132 0.209387
vt 0.725159 0.398684
vt 0.725159 0.403905
vt 0.319176 0.233437
vt 0.289838 0.233437
vt 0.289838 0.238650
vt 0.319176 0.238650
vt 0.981264 0.398684
vt 0.981264 0.403905
vt 0.256367 0.233437
vt 0.256367 0.238650
vt 0.743773 0.982129
vt 0.743773 0.987351
vt 0.220049 0.233437
vt 0.220049 0.238650
vt 0.694424 0.398684
vt 0.694424 0.403905
vt 0.182280 0.233437
vt 0.182280 0.238650
vt 0.713037 0.982129
vt 0.713037 0.987351
vt 0.144510 0.233437
vt 0.144510 0.238650
vt 0.108192 0.233437
vt 0.108192 0.238650
vt 0.074721 0.233437
vt 0.074721 0.238650
vt 0.251831 0.402964
vt 0.214312 0.406659
vt 0.214312 0.398187
vt 0.250178 0.394654
vt 0.176792 0.402964
vt 0.178445 0.394654
vt 0.140715 0.392020
vt 0.143957 0.384192
vt 0.107466 0.374248
vt 0.112173 0.367203
vt 0.078323 0.350331
vt 0.084313 0.344340
vt 0.054405 0.321188
vt 0.061450 0.316481
vt 0.036633 0.287938
vt 0.044461 0.284696
vt 0.025689 0.251861
vt 0.033999 0.250208
vt 0.021994 0.214342
vt 0.030466 0.214342
vt 0.025689 0.176822
vt 0.033999 0.178475
vt 0.036633 0.140745
vt 0.044461 0.143987
vt 0.054405 0.107496
vt 0.061450 0.112203
vt 0.078323 0.078353
vt 0.084313 0.084343
vt 0.107466 0.054436
vt 0.112173 0.061480
vt 0.140715 0.036664
vt 0.143957 0.044491
vt 0.176792 0.025720
vt 0.178445 0.034029
vt 0.214312 0.022024
vt 0.214312 0.030496
vt 0.251831 0.025720
vt 0.250178 0.034029
vt 0.287908 0.036664
vt 0.284666 0.044491
vt 0.321157 0.054436
vt 0.316450 0.061480
vt 0.350300 0.078353
vt 0.344310 0.084343
vt 0.374218 0.107496
vt 0.367173 0.112203
vt 0.391990 0.140745
vt 0.384162 0.143987
vt 0.402934 0.176822
vt 0.394624 0.178475
vt 0.406629 0.214342
vt 0.398157 0.214342
vt 0.402934 0.251861
vt 0.394624 0.250208
vt 0.391990 0.287938
vt 0.384162 0.284696
vt 0.374218 0.321188
vt 0.367173 0.316481
vt 0.350300 0.350331
vt 0.344310 0.344340
vt 0.321157 0.374248
vt 0.316450 0.367203
vt 0.287908 0.392020
vt 0.284666 0.384192
vt 0.287587 0.204174
vt 0.287587 0.209388
vt 0.896026 0.982129
vt 0.896026 0.987351
vt 0.316925 0.204174
vt 0.316925 0.209388
vt 0.105941 0.204174
vt 0.105941 0.209388
vt 0.045384 0.233437
vt 0.045384 0.238650
vt 0.856457 0.608537
vt 0.896026 0.608537
vt 0.895719 0.598630
vt 0.856457 0.598630
vt 0.894826 0.589692
vt 0.856457 0.589692
vt 0.508500 0.698809
vt 0.545621 0.695153
vt 0.544276 0.688390
vt 0.508500 0.691913
vt 0.542581 0.679868
vt 0.508500 0.683225
vt 0.540702 0.670422
vt 0.508500 0.673593
vt 0.934075 0.608537
vt 0.933472 0.598630
vt 0.931721 0.589692
vt 0.581317 0.684325
vt 0.578678 0.677954
vt 0.575353 0.669927
vt 0.571667 0.661029
vt 0.969141 0.608537
vt 0.968265 0.598630
vt 0.965723 0.589692
vt 0.614213 0.666741
vt 0.610382 0.661008
vt 0.605555 0.653783
vt 0.600204 0.645775
vt 0.999877 0.608537
vt 0.998762 0.598630
vt 0.995526 0.589692
vt 0.643047 0.643077
vt 0.638172 0.638202
vt 0.632028 0.632058
vt 0.625217 0.625247
vt 0.969141 0.608537
vt 0.965723 0.589692
vt 0.666711 0.614243
vt 0.660977 0.610412
vt 0.653753 0.605585
vt 0.645745 0.600234
vt 0.684294 0.581347
vt 0.677924 0.578708
vt 0.669897 0.575383
vt 0.660999 0.571697
vt 0.896026 0.608537
vt 0.695122 0.545652
vt 0.688360 0.544306
vt 0.679838 0.542611
vt 0.670391 0.540732
vt 0.698779 0.508530
vt 0.691883 0.508530
vt 0.683195 0.508530
vt 0.673563 0.508530
vt 0.816887 0.608537
vt 0.817195 0.598630
vt 0.818088 0.589692
vt 0.695122 0.471409
vt 0.688360 0.472754
vt 0.679838 0.474449
vt 0.670392 0.476328
vt 0.778839 0.608537
vt 0.779442 0.598630
vt 0.781193 0.589692
vt 0.684294 0.435714
vt 0.677924 0.438352
vt 0.669897 0.441678
vt 0.660999 0.445363
vt 0.743773 0.608537
vt 0.744649 0.598630
vt 0.747191 0.589692
vt 0.666711 0.402817
vt 0.660977 0.406648
vt 0.653753 0.411475
vt 0.645745 0.416826
vt 0.713037 0.608537
vt 0.714152 0.598630
vt 0.717387 0.589692
vt 0.643047 0.373983
vt 0.638172 0.378859
vt 0.632028 0.385002
vt 0.625217 0.391813
vt 0.981264 0.025091
vt 0.950528 0.025091
vt 0.949652 0.015184
vt 0.980149 0.015184
vt 0.947110 0.006246
vt 0.976913 0.006246
vt 0.614213 0.350319
vt 0.610382 0.356053
vt 0.605555 0.363277
vt 0.600204 0.371285
vt 0.915462 0.025091
vt 0.914859 0.015184
vt 0.913108 0.006246
vt 0.581317 0.332736
vt 0.578678 0.339106
vt 0.575353 0.347133
vt 0.571667 0.356032
vt 0.877413 0.025091
vt 0.877106 0.015184
vt 0.876213 0.006246
vt 0.545621 0.321908
vt 0.544276 0.328671
vt 0.542581 0.337192
vt 0.540702 0.346639
vt 0.837844 0.025091
vt 0.837844 0.015184
vt 0.837844 0.006246
vt 0.508500 0.318252
vt 0.508500 0.325147
vt 0.508500 0.333836
vt 0.508500 0.343467
vt 0.798274 0.025091
vt 0.798582 0.015184
vt 0.799475 0.006246
vt 0.471379 0.321908
vt 0.472724 0.328671
vt 0.474419 0.337192
vt 0.476298 0.346639
vt 0.760226 0.025091
vt 0.760829 0.015184
vt 0.762580 0.006246
vt 0.435684 0.332736
vt 0.438322 0.339106
vt 0.441647 0.347133
vt 0.445333 0.356032
vt 0.725159 0.025091
vt 0.726035 0.015184
vt 0.728578 0.006246
vt 0.402787 0.350319
vt 0.406618 0.356053
vt 0.411445 0.363277
vt 0.416796 0.371285
vt 0.694424 0.025091
vt 0.695539 0.015184
vt 0.698774 0.006246
vt 0.373953 0.373983
vt 0.378828 0.378859
vt 0.384972 0.385002
vt 0.391783 0.391813
vt 0.725159 0.025091
vt 0.726035 0.015184
vt 0.350289 0.402817
vt 0.356022 0.406648
vt 0.363247 0.411475
vt 0.371255 0.416826
vt 0.332706 0.435714
vt 0.339076 0.438352
vt 0.347103 0.441677
vt 0.356001 0.445363
vt 0.321878 0.471409
vt 0.328640 0.472754
vt 0.337162 0.474449
vt 0.346608 0.476328
vt 0.318221 0.508530
vt 0.325117 0.508530
vt 0.333805 0.508530
vt 0.343437 0.508530
vt 0.321878 0.545652
vt 0.328640 0.544306
vt 0.337162 0.542611
vt 0.346608 0.540732
vt 0.332706 0.581347
vt 0.339076 0.578708
vt 0.347103 0.575383
vt 0.356001 0.571697
vt 0.350289 0.614243
vt 0.356022 0.610412
vt 0.363247 0.605585
vt 0.371255 0.600234
vt 0.373953 0.643077
vt 0.378828 0.638202
vt 0.384972 0.632058
vt 0.391783 0.625247
vt 0.713037 0.608537
vt 0.402787 0.666741
vt 0.406618 0.661008
vt 0.411445 0.653783
vt 0.416796 0.645775
vt 0.779442 0.598630
vt 0.435684 0.684325
vt 0.438322 0.677954
vt 0.441647 0.669927
vt 0.445333 0.661029
vt 0.817195 0.598630
vt 0.818088 0.589692
vt 0.471379 0.695153
vt 0.472724 0.688390
vt 0.474419 0.679868
vt 0.476298 0.670422
s 0
g Can_3_Material.010
usemtl Material.010
f 33/1/1 34/2/1 35/3/1 36/4/1 37/5/1 38/6/1 39/7/1 40/8/1 41/9/1 42/10/1 43/11/1 44/12/1 45/13/1 46/14/1 47/15/1 48/16/1 49/17/1 50/18/1 51/19/1 52/20/1 53/21/1 54/22/1 55/23/1 56/24/1 57/25/1 58/26/1 59/27/1 60/28/1 61/29/1 62/30/1 63/31/1 64/32/1
f 25/33/2 24/34/2 88/35/2 89/36/2
f 33/37/3 64/38/3 99/39/3 97/40/3
f 60/38/4 59/37/4 124/40/4 125/39/4
f 16/41/5 15/42/5 79/43/5 80/44/5
f 34/45/6 33/37/6 97/40/6 98/46/6
f 59/37/2 58/45/2 123/46/2 124/40/2
f 7/47/7 6/48/7 70/49/7 71/50/7
f 1/51/8 32/52/8 96/53/8 66/54/8
f 58/45/9 57/55/9 122/56/9 123/46/9
f 24/34/4 23/57/4 87/58/4 88/35/4
f 57/55/10 56/59/10 121/60/10 122/56/10
f 15/42/11 14/61/11 78/62/11 79/43/11
f 56/59/12 55/63/12 120/64/12 121/60/12
f 6/48/13 5/65/13 69/66/13 70/49/13
f 32/52/14 31/67/14 95/68/14 96/53/14
f 55/63/15 54/69/15 119/70/15 120/64/15
f 23/57/16 22/71/16 86/72/16 87/58/16
f 54/73/17 53/74/17 118/75/17 119/76/17
f 14/61/18 13/77/18 77/78/18 78/62/18
f 53/74/19 52/79/19 117/80/19 118/75/19
f 5/65/20 4/48/20 68/49/20 69/66/20
f 31/67/19 30/81/19 94/82/19 95/68/19
f 52/79/14 51/83/14 116/84/14 117/80/14
f 22/71/21 21/85/21 85/86/21 86/72/21
f 51/83/8 50/87/8 115/88/8 116/84/8
f 13/89/22 12/81/22 76/82/22 77/90/22
f 50/87/23 49/91/23 114/92/23 115/88/23
f 4/48/24 3/47/24 67/50/24 68/49/24
f 30/81/17 29/89/17 93/90/17 94/82/17
f 49/91/25 48/93/25 113/94/25 114/92/25
f 21/85/26 20/71/26 84/72/26 85/86/26
f 48/93/24 47/95/24 112/96/24 113/94/24
f 65/97/1 66/98/1 98/99/1 97/100/1
f 66/98/1 96/101/1 100/102/1 98/99/1
f 96/101/1 95/103/1 101/104/1 100/102/1
f 95/103/1 94/105/1 102/106/1 101/104/1
f 94/105/1 93/107/1 103/108/1 102/106/1
f 93/107/1 92/109/1 104/110/1 103/108/1
f 92/109/1 91/111/1 105/112/1 104/110/1
f 91/111/1 90/113/1 106/114/1 105/112/1
f 90/113/1 89/115/1 107/116/1 106/114/1
f 89/115/1 88/117/1 108/118/1 107/116/1
f 88/117/1 87/119/1 109/120/1 108/118/1
f 87/119/1 86/121/1 110/122/1 109/120/1
f 86/121/1 85/123/1 111/124/1 110/122/1
f 85/123/1 84/125/1 112/126/1 111/124/1
f 84/125/1 83/127/1 113/128/1 112/126/1
f 83/127/1 82/129/1 114/130/1 113/128/1
f 82/129/1 81/131/1 115/132/1 114/130/1
f 81/131/1 80/133/1 116/134/1 115/132/1
f 80/133/1 79/135/1 117/136/1 116/134/1
f 79/135/1 78/137/1 118/138/1 117/136/1
f 78/137/1 77/139/1 119/140/1 118/138/1
f 77/139/1 76/141/1 120/142/1 119/140/1
f 76/141/1 75/143/1 121/144/1 120/142/1
f 75/143/1 74/145/1 122/146/1 121/144/1
f 74/145/1 73/147/1 123/148/1 122/146/1
f 73/147/1 72/149/1 124/150/1 123/148/1
f 72/149/1 71/151/1 125/152/1 124/150/1
f 71/151/1 70/153/1 126/154/1 125/152/1
f 70/153/1 69/155/1 127/156/1 126/154/1
f 69/155/1 68/157/1 128/158/1 127/156/1
f 68/157/1 67/159/1 99/160/1 128/158/1
f 67/159/1 65/97/1 97/100/1 99/160/1
f 61/161/16 60/38/16 125/39/16 126/162/16
f 35/55/27 34/45/27 98/46/27 100/56/27
f 8/163/28 7/47/28 71/50/28 72/164/28
f 62/165/21 61/161/21 126/162/21 127/166/21
f 36/167/5 35/55/5 100/56/5 101/168/5
f 17/33/27 16/41/27 80/44/27 81/36/27
f 63/161/26 62/165/26 127/166/26 128/162/26
f 37/63/11 36/167/11 101/168/11 102/64/11
f 26/41/9 25/33/9 89/36/9 90/44/9
f 64/38/29 63/161/29 128/162/29 99/39/29
f 38/69/18 37/63/18 102/64/18 103/70/18
f 9/51/30 8/163/30 72/164/30 73/54/30
f 39/74/22 38/73/22 103/76/22 104/75/22
f 18/34/6 17/33/6 81/36/6 82/35/6
f 40/79/31 39/74/31 104/75/31 105/80/31
f 27/42/10 26/41/10 90/44/10 91/43/10
f 41/83/32 40/79/32 105/80/32 106/84/32
f 10/52/33 9/51/33 73/54/33 74/53/33
f 42/87/33 41/83/33 106/84/33 107/88/33
f 19/57/3 18/34/3 82/35/3 83/58/3
f 2/163/23 1/51/23 66/54/23 65/164/23
f 43/91/30 42/87/30 107/88/30 108/92/30
f 28/61/12 27/42/12 91/43/12 92/62/12
f 44/93/28 43/91/28 108/92/28 109/94/28
f 11/67/32 10/52/32 74/53/32 75/68/32
f 45/95/7 44/93/7 109/94/7 110/96/7
f 20/71/29 19/57/29 83/58/29 84/72/29
f 46/169/13 45/95/13 110/96/13 111/170/13
f 29/77/15 28/61/15 92/62/15 93/78/15
f 3/47/25 2/163/25 65/164/25 67/50/25
f 47/95/20 46/169/20 111/170/20 112/96/20
f 12/81/31 11/67/31 75/68/31 76/82/31
f 130/171/34 136/172/34 140/173/34 134/174/34
f 134/174/35 140/173/35 139/175/35 133/176/35
f 133/177/36 139/178/36 138/179/36 132/180/36
f 132/180/37 138/179/37 137/181/37 131/182/37
f 131/182/38 137/181/38 135/183/38 129/184/38
f 136/172/39 142/185/39 146/186/39 140/173/39
f 140/173/40 146/186/40 145/187/40 139/175/40
f 139/178/41 145/188/41 144/189/41 138/179/41
f 138/179/42 144/189/42 143/190/42 137/181/42
f 137/181/43 143/190/43 141/191/43 135/183/43
f 142/185/44 148/192/44 152/193/44 146/186/44
f 146/186/45 152/193/45 151/194/45 145/187/45
f 145/188/46 151/195/46 150/196/46 144/189/46
f 144/189/47 150/196/47 149/197/47 143/190/47
f 143/190/48 149/197/48 147/198/48 141/191/48
f 148/192/49 154/199/49 158/200/49 152/193/49
f 152/193/50 158/200/50 157/201/50 151/194/50
f 151/195/51 157/202/51 156/203/51 150/196/51
f 150/196/52 156/203/52 155/204/52 149/197/52
f 149/197/53 155/204/53 153/205/53 147/198/53
f 154/199/54 160/206/54 164/193/54 158/200/54
f 158/200/55 164/193/55 163/207/55 157/201/55
f 157/202/56 163/208/56 162/209/56 156/203/56
f 156/203/57 162/209/57 161/210/57 155/204/57
f 155/204/58 161/210/58 159/211/58 153/205/58
f 160/206/59 166/185/59 170/186/59 164/193/59
f 164/193/60 170/186/60 169/187/60 163/207/60
f 163/208/61 169/212/61 168/213/61 162/209/61
f 162/209/62 168/213/62 167/214/62 161/210/62
f 161/210/63 167/214/63 165/215/63 159/211/63
f 166/185/64 172/216/64 176/173/64 170/186/64
f 170/186/65 176/173/65 175/175/65 169/187/65
f 169/212/66 175/217/66 174/218/66 168/213/66
f 168/213/67 174/218/67 173/219/67 167/214/67
f 167/214/68 173/219/68 171/220/68 165/215/68
f 172/216/69 178/171/69 182/174/69 176/173/69
f 176/173/70 182/174/70 181/176/70 175/175/70
f 175/217/71 181/221/71 180/222/71 174/218/71
f 174/218/72 180/222/72 179/223/72 173/219/72
f 173/219/73 179/223/73 177/224/73 171/220/73
f 178/171/74 184/225/74 188/226/74 182/174/74
f 182/174/75 188/226/75 187/227/75 181/176/75
f 181/221/76 187/228/76 186/229/76 180/222/76
f 180/222/77 186/229/77 185/230/77 179/223/77
f 179/223/78 185/230/78 183/231/78 177/224/78
f 184/225/79 190/232/79 194/233/79 188/226/79
f 188/226/80 194/233/80 193/234/80 187/227/80
f 187/228/81 193/235/81 192/236/81 186/229/81
f 186/229/82 192/236/82 191/237/82 185/230/82
f 185/230/83 191/237/83 189/238/83 183/231/83
f 190/232/84 196/239/84 200/240/84 194/233/84
f 194/233/85 200/240/85 199/241/85 193/234/85
f 193/235/86 199/242/86 198/243/86 192/236/86
f 192/236/87 198/243/87 197/244/87 191/237/87
f 191/237/88 197/244/88 195/245/88 189/238/88
f 196/239/89 202/246/89 206/247/89 200/240/89
f 200/240/90 206/247/90 205/248/90 199/241/90
f 199/242/91 205/249/91 204/250/91 198/243/91
f 198/243/92 204/250/92 203/251/92 197/244/92
f 197/244/93 203/251/93 201/252/93 195/245/93
f 202/253/94 208/254/94 212/255/94 206/256/94
f 206/256/95 212/255/95 211/257/95 205/258/95
f 205/249/96 211/259/96 210/260/96 204/250/96
f 204/250/97 210/260/97 209/261/97 203/251/97
f 203/251/98 209/261/98 207/262/98 201/252/98
f 208/254/99 214/263/99 218/264/99 212/255/99
f 212/255/100 218/264/100 217/265/100 211/257/100
f 211/259/101 217/266/101 216/267/101 210/260/101
f 210/260/102 216/267/102 215/268/102 209/261/102
f 209/261/103 215/268/103 213/269/103 207/262/103
f 214/263/104 220/270/104 224/271/104 218/264/104
f 218/264/105 224/271/105 223/272/105 217/265/105
f 217/266/106 223/273/106 222/274/106 216/267/106
f 216/267/107 222/274/107 221/275/107 215/268/107
f 215/268/108 221/275/108 219/276/108 213/269/108
f 220/270/109 226/277/109 230/278/109 224/271/109
f 224/271/110 230/278/110 229/279/110 223/272/110
f 223/273/111 229/280/111 228/281/111 222/274/111
f 222/274/112 228/281/112 227/282/112 221/275/112
f 221/275/113 227/282/113 225/283/113 219/276/113
f 226/277/114 232/284/114 236/285/114 230/278/114
f 230/278/115 236/285/115 235/286/115 229/279/115
f 229/280/116 235/287/116 234/288/116 228/281/116
f 228/281/117 234/288/117 233/289/117 227/282/117
f 227/282/118 233/289/118 231/290/118 225/283/118
f 232/284/119 238/291/119 242/292/119 236/285/119
f 236/285/120 242/292/120 241/293/120 235/286/120
f 235/287/121 241/294/121 240/295/121 234/288/121
f 234/288/122 240/295/122 239/296/122 233/289/122
f 233/289/123 239/296/123 237/297/123 231/290/123
f 238/291/124 244/298/124 248/299/124 242/292/124
f 242/292/125 248/299/125 247/300/125 241/293/125
f 241/294/126 247/301/126 246/302/126 240/295/126
f 240/295/127 246/302/127 245/303/127 239/296/127
f 239/296/128 245/303/128 243/304/128 237/297/128
f 244/298/129 250/305/129 254/306/129 248/299/129
f 248/299/130 254/306/130 253/307/130 247/300/130
f 247/301/131 253/308/131 252/309/131 246/302/131
f 246/302/132 252/309/132 251/310/132 245/303/132
f 245/303/133 251/310/133 249/311/133 243/304/133
f 250/305/134 256/312/134 260/313/134 254/306/134
f 254/306/135 260/313/135 259/300/135 253/307/135
f 253/308/136 259/314/136 258/315/136 252/309/136
f 252/309/137 258/315/137 257/316/137 251/310/137
f 251/310/138 257/316/138 255/317/138 249/311/138
f 256/312/139 262/291/139 266/292/139 260/313/139
f 260/313/140 266/292/140 265/293/140 259/300/140
f 259/314/141 265/318/141 264/319/141 258/315/141
f 258/315/142 264/319/142 263/320/142 257/316/142
f 257/316/143 263/320/143 261/321/143 255/317/143
f 262/291/144 268/284/144 272/285/144 266/292/144
f 266/292/145 272/285/145 271/286/145 265/293/145
f 265/318/146 271/322/146 270/323/146 264/319/146
f 264/319/147 270/323/147 269/324/147 263/320/147
f 263/320/148 269/324/148 267/325/148 261/321/148
f 268/284/149 274/277/149 278/278/149 272/285/149
f 272/285/150 278/278/150 277/279/150 271/286/150
f 271/322/151 277/326/151 276/327/151 270/323/151
f 270/323/152 276/327/152 275/328/152 269/324/152
f 269/324/153 275/328/153 273/329/153 267/325/153
f 274/277/154 280/270/154 284/271/154 278/278/154
f 278/278/155 284/271/155 283/272/155 277/279/155
f 277/326/156 283/330/156 282/331/156 276/327/156
f 276/327/157 282/331/157 281/332/157 275/328/157
f 275/328/158 281/332/158 279/333/158 273/329/158
f 280/270/159 286/263/159 290/264/159 284/271/159
f 284/271/160 290/264/160 289/265/160 283/272/160
f 283/330/161 289/334/161 288/335/161 282/331/161
f 282/331/162 288/335/162 287/336/162 281/332/162
f 281/332/163 287/336/163 285/337/163 279/333/163
f 286/263/164 292/254/164 296/255/164 290/264/164
f 290/264/165 296/255/165 295/257/165 289/265/165
f 289/334/166 295/338/166 294/339/166 288/335/166
f 288/335/167 294/339/167 293/340/167 287/336/167
f 287/336/168 293/340/168 291/341/168 285/337/168
f 292/254/169 298/253/169 302/256/169 296/255/169
f 296/255/170 302/256/170 301/258/170 295/257/170
f 295/338/171 301/342/171 300/343/171 294/339/171
f 294/339/172 300/343/172 299/344/172 293/340/172
f 293/340/173 299/344/173 297/345/173 291/341/173
f 298/346/174 304/239/174 308/240/174 302/247/174
f 302/247/175 308/240/175 307/241/175 301/248/175
f 301/342/176 307/347/176 306/348/176 300/343/176
f 300/343/177 306/348/177 305/349/177 299/344/177
f 299/344/178 305/349/178 303/350/178 297/345/178
f 304/239/179 310/232/179 314/351/179 308/240/179
f 308/240/180 314/351/180 313/234/180 307/241/180
f 307/347/181 313/352/181 312/353/181 306/348/181
f 306/348/182 312/353/182 311/354/182 305/349/182
f 305/349/183 311/354/183 309/355/183 303/350/183
f 310/232/184 316/225/184 320/356/184 314/351/184
f 314/351/185 320/356/185 319/357/185 313/234/185
f 313/352/186 319/358/186 318/359/186 312/353/186
f 312/353/187 318/359/187 317/360/187 311/354/187
f 311/354/188 317/360/188 315/361/188 309/355/188
f 316/225/189 130/171/189 134/174/189 320/356/189
f 320/356/190 134/174/190 133/176/190 319/357/190
f 319/358/191 133/177/191 132/180/191 318/359/191
f 318/359/192 132/180/192 131/182/192 317/360/192
f 317/360/193 131/182/193 129/184/193 315/361/193
f 129/184/194 135/183/194 141/191/194 147/198/194 153/205/194 159/211/194 165/215/194 171/220/194 177/224/194 183/231/194 189/238/194 195/245/194 201/252/194 207/262/194 213/269/194 219/276/194 225/283/194 231/290/194 237/297/194 243/304/194 249/311/194 255/317/194 261/321/194 267/325/194 273/329/194 279/333/194 285/337/194 291/341/194 297/345/194 303/350/194 309/355/194 315/361/194
f 130/171/23 1/51/23 2/163/23 136/172/23
f 316/225/8 32/52/8 1/51/8 130/171/8
f 136/172/25 2/163/25 3/47/25 142/185/25
f 142/185/24 3/47/24 4/48/24 148/192/24
f 148/192/20 4/48/20 5/65/20 154/199/20
f 154/199/13 5/65/13 6/48/13 160/206/13
f 160/206/7 6/48/7 7/47/7 166/185/7
f 166/185/28 7/47/28 8/163/28 172/216/28
f 172/216/30 8/163/30 9/51/30 178/171/30
f 178/171/33 9/51/33 10/52/33 184/225/33
f 184/225/32 10/52/32 11/67/32 190/232/32
f 190/232/31 11/67/31 12/81/31 196/239/31
f 196/239/22 12/81/22 13/89/22 202/246/22
f 202/253/18 13/77/18 14/61/18 208/254/18
f 208/254/11 14/61/11 15/42/11 214/263/11
f 214/263/5 15/42/5 16/41/5 220/270/5
f 220/270/27 16/41/27 17/33/27 226/277/27
f 226/277/6 17/33/6 18/34/6 232/284/6
f 232/284/3 18/34/3 19/57/3 238/291/3
f 238/291/29 19/57/29 20/71/29 244/298/29
f 244/298/26 20/71/26 21/85/26 250/305/26
f 250/305/21 21/85/21 22/71/21 256/312/21
f 256/312/16 22/71/16 23/57/16 262/291/16
f 262/291/4 23/57/4 24/34/4 268/284/4
f 268/284/2 24/34/2 25/33/2 274/277/2
f 274/277/9 25/33/9 26/41/9 280/270/9
f 280/270/10 26/41/10 27/42/10 286/263/10
f 286/263/12 27/42/12 28/61/12 292/254/12
f 292/254/15 28/61/15 29/77/15 298/253/15
f 298/346/17 29/89/17 30/81/17 304/239/17
f 304/239/19 30/81/19 31/67/19 310/232/19
f 310/232/14 31/67/14 32/52/14 316/225/14
