# Blender 5.0.0
# www.blender.org
mtllib Can_01.mtl
o Can_1
v 0.000000 0.997433 -0.435376
v 0.084938 0.997433 -0.427011
v 0.166611 0.997433 -0.402235
v 0.241882 0.997433 -0.362002
v 0.307858 0.997433 -0.307858
v 0.362002 0.997433 -0.241882
v 0.402235 0.997433 -0.166611
v 0.427011 0.997433 -0.084938
v 0.435376 0.997433 0.000000
v 0.427011 0.997433 0.084938
v 0.402235 0.997433 0.166611
v 0.362002 0.997433 0.241882
v 0.307858 0.997433 0.307858
v 0.241882 0.997433 0.362002
v 0.166611 0.997433 0.402235
v 0.084938 0.997433 0.427011
v 0.000000 0.997433 0.435376
v -0.084938 0.997433 0.427011
v -0.166611 0.997433 0.402235
v -0.241882 0.997433 0.362002
v -0.307858 0.997433 0.307858
v -0.362002 0.997433 0.241882
v -0.402235 0.997433 0.166611
v -0.427011 0.997433 0.084938
v -0.435376 0.997433 0.000000
v -0.427011 0.997433 -0.084938
v -0.402235 0.997433 -0.166611
v -0.362002 0.997433 -0.241882
v -0.307858 0.997433 -0.307858
v -0.241882 0.997433 -0.362002
v -0.166611 0.997433 -0.402235
v -0.084938 0.997433 -0.427011
v 0.081196 0.997433 -0.408199
v 0.000000 0.997433 -0.416196
v -0.081196 0.997433 -0.408199
v -0.159272 0.997433 -0.384515
v -0.231226 0.997433 -0.346055
v -0.294295 0.997433 -0.294295
v -0.346055 0.997433 -0.231226
v -0.384515 0.997433 -0.159272
v -0.408199 0.997433 -0.081196
v -0.416196 0.997433 0.000000
v -0.408199 0.997433 0.081196
v -0.384515 0.997433 0.159272
v -0.346055 0.997433 0.231226
v -0.294295 0.997433 0.294295
v -0.231226 0.997433 0.346055
v -0.159272 0.997433 0.384515
v -0.081196 0.997433 0.408199
v 0.000000 0.997433 0.416196
v 0.081196 0.997433 0.408199
v 0.159272 0.997433 0.384515
v 0.231226 0.997433 0.346055
v 0.294295 0.997433 0.294295
v 0.346055 0.997433 0.231226
v 0.384515 0.997433 0.159272
v 0.408199 0.997433 0.081196
v 0.416196 0.997433 0.000000
v 0.408199 0.997433 -0.081196
v 0.384515 0.997433 -0.159272
v 0.346055 0.997433 -0.231226
v 0.294295 0.997433 -0.294295
v 0.231226 0.997433 -0.346055
v 0.159272 0.997433 -0.384515
v 0.084938 1.023109 -0.427011
v 0.000000 1.023109 -0.435376
v 0.166611 1.023109 -0.402235
v 0.241882 1.023109 -0.362002
v 0.307858 1.023109 -0.307858
v 0.362002 1.023109 -0.241882
v 0.402235 1.023109 -0.166611
v 0.427011 1.023109 -0.084938
v 0.435376 1.023109 0.000000
v 0.427011 1.023109 0.084938
v 0.402235 1.023109 0.166611
v 0.362002 1.023109 0.241882
v 0.307858 1.023109 0.307858
v 0.241882 1.023109 0.362002
v 0.166611 1.023109 0.402235
v 0.084938 1.023109 0.427011
v 0.000000 1.023109 0.435376
v -0.084938 1.023109 0.427011
v -0.166611 1.023109 0.402235
v -0.241882 1.023109 0.362002
v -0.307858 1.023109 0.307858
v -0.362002 1.023109 0.241882
v -0.402235 1.023109 0.166611
v -0.427011 1.023109 0.084938
v -0.435376 1.023109 0.000000
v -0.427011 1.023109 -0.084938
v -0.402235 1.023109 -0.166611
v -0.362002 1.023109 -0.241882
v -0.307858 1.023109 -0.307858
v -0.241882 1.023109 -0.362002
v -0.166611 1.023109 -0.402235
v -0.084938 1.023109 -0.427011
v 0.081196 1.023109 -0.408199
v 0.000000 1.023109 -0.416196
v 0.159272 1.023109 -0.384515
v -0.081196 1.023109 -0.408199
v -0.159272 1.023109 -0.384515
v -0.231226 1.023109 -0.346055
v -0.294295 1.023109 -0.294295
v -0.346055 1.023109 -0.231226
v -0.384515 1.023109 -0.159272
v -0.408199 1.023109 -0.081196
v -0.416196 1.023109 0.000000
v -0.408199 1.023109 0.081196
v -0.384515 1.023109 0.159272
v -0.346055 1.023109 0.231226
v -0.294295 1.023109 0.294295
v -0.231226 1.023109 0.346055
v -0.159272 1.023109 0.384515
v -0.081196 1.023109 0.408199
v 0.000000 1.023109 0.416196
v 0.081196 1.023109 0.408199
v 0.159272 1.023109 0.384515
v 0.231226 1.023109 0.346055
v 0.294295 1.023109 0.294295
v 0.346055 1.023109 0.231226
v 0.384515 1.023109 0.159272
v 0.408199 1.023109 0.081196
v 0.416196 1.023109 0.000000
v 0.408199 1.023109 -0.081196
v 0.384515 1.023109 -0.159272
v 0.346055 1.023109 -0.231226
v 0.294295 1.023109 -0.294295
v 0.231226 1.023109 -0.346055
v 0.000000 -0.997433 -0.366224
v 0.000000 -0.839771 -0.435376
v 0.000000 -0.989717 -0.387593
v 0.000000 -0.967322 -0.406871
v 0.000000 -0.932442 -0.422169
v 0.000000 -0.888491 -0.431992
v 0.071447 -0.997433 -0.359187
v 0.084938 -0.839771 -0.427011
v 0.075616 -0.989717 -0.380146
v 0.079377 -0.967322 -0.399053
v 0.082361 -0.932442 -0.414058
v 0.084277 -0.888491 -0.423691
v 0.140148 -0.997433 -0.338347
v 0.166611 -0.839771 -0.402235
v 0.148326 -0.989717 -0.358090
v 0.155703 -0.967322 -0.375900
v 0.161557 -0.932442 -0.390034
v 0.165316 -0.888491 -0.399108
v 0.203463 -0.997433 -0.304504
v 0.241882 -0.839771 -0.362002
v 0.215335 -0.989717 -0.322272
v 0.226045 -0.967322 -0.338301
v 0.234545 -0.932442 -0.351021
v 0.240002 -0.888491 -0.359188
v 0.258960 -0.997433 -0.258960
v 0.307858 -0.839771 -0.307858
v 0.274070 -0.989717 -0.274070
v 0.287701 -0.967322 -0.287701
v 0.298519 -0.932442 -0.298519
v 0.305464 -0.888491 -0.305464
v 0.304504 -0.997433 -0.203463
v 0.362002 -0.839771 -0.241882
v 0.322272 -0.989717 -0.215335
v 0.338301 -0.967322 -0.226045
v 0.351021 -0.932442 -0.234545
v 0.359188 -0.888491 -0.240002
v 0.338347 -0.997433 -0.140148
v 0.402235 -0.839771 -0.166611
v 0.358090 -0.989717 -0.148326
v 0.375900 -0.967322 -0.155703
v 0.390034 -0.932442 -0.161557
v 0.399108 -0.888491 -0.165316
v 0.359187 -0.997433 -0.071447
v 0.427011 -0.839771 -0.084938
v 0.380146 -0.989717 -0.075616
v 0.399053 -0.967322 -0.079377
v 0.414058 -0.932442 -0.082361
v 0.423691 -0.888491 -0.084277
v 0.366224 -0.997433 0.000000
v 0.435376 -0.839771 0.000000
v 0.387593 -0.989717 0.000000
v 0.406871 -0.967322 0.000000
v 0.422169 -0.932442 0.000000
v 0.431992 -0.888491 0.000000
v 0.359187 -0.997433 0.071447
v 0.427011 -0.839771 0.084938
v 0.380146 -0.989717 0.075616
v 0.399053 -0.967322 0.079377
v 0.414058 -0.932442 0.082361
v 0.423691 -0.888491 0.084277
v 0.338347 -0.997433 0.140148
v 0.402235 -0.839771 0.166611
v 0.358090 -0.989717 0.148326
v 0.375900 -0.967322 0.155703
v 0.390034 -0.932442 0.161557
v 0.399108 -0.888491 0.165316
v 0.304504 -0.997433 0.203463
v 0.362002 -0.839771 0.241882
v 0.322272 -0.989717 0.215335
v 0.338301 -0.967322 0.226045
v 0.351021 -0.932442 0.234545
v 0.359188 -0.888491 0.240002
v 0.258960 -0.997433 0.258960
v 0.307858 -0.839771 0.307858
v 0.274070 -0.989717 0.274070
v 0.287701 -0.967322 0.287701
v 0.298519 -0.932442 0.298519
v 0.305464 -0.888491 0.305464
v 0.203463 -0.997433 0.304504
v 0.241882 -0.839771 0.362002
v 0.215335 -0.989717 0.322272
v 0.226045 -0.967322 0.338301
v 0.234545 -0.932442 0.351021
v 0.240002 -0.888491 0.359188
v 0.140148 -0.997433 0.338347
v 0.166611 -0.839771 0.402235
v 0.148326 -0.989717 0.358090
v 0.155703 -0.967322 0.375900
v 0.161557 -0.932442 0.390034
v 0.165316 -0.888491 0.399108
v 0.071447 -0.997433 0.359187
v 0.084938 -0.839771 0.427011
v 0.075616 -0.989717 0.380146
v 0.079377 -0.967322 0.399053
v 0.082361 -0.932442 0.414058
v 0.084277 -0.888491 0.423691
v -0.000000 -0.997433 0.366224
v 0.000000 -0.839771 0.435376
v -0.000000 -0.989717 0.387593
v -0.000000 -0.967322 0.406871
v -0.000000 -0.932442 0.422169
v 0.000000 -0.888491 0.431992
v -0.071447 -0.997433 0.359187
v -0.084938 -0.839771 0.427011
v -0.075616 -0.989717 0.380146
v -0.079377 -0.967322 0.399053
v -0.082361 -0.932442 0.414058
v -0.084277 -0.888491 0.423691
v -0.140148 -0.997433 0.338347
v -0.166611 -0.839771 0.402235
v -0.148326 -0.989717 0.358090
v -0.155703 -0.967322 0.375900
v -0.161557 -0.932442 0.390034
v -0.165316 -0.888491 0.399108
v -0.203463 -0.997433 0.304504
v -0.241882 -0.839771 0.362002
v -0.215335 -0.989717 0.322272
v -0.226045 -0.967322 0.338301
v -0.234545 -0.932442 0.351021
v -0.240002 -0.888491 0.359188
v -0.258960 -0.997433 0.258960
v -0.307858 -0.839771 0.307858
v -0.274070 -0.989717 0.274070
v -0.287701 -0.967322 0.287701
v -0.298519 -0.932442 0.298519
v -0.305464 -0.888491 0.305464
v -0.304504 -0.997433 0.203463
v -0.362002 -0.839771 0.241882
v -0.322272 -0.989717 0.215335
v -0.338301 -0.967322 0.226045
v -0.351021 -0.932442 0.234545
v -0.359188 -0.888491 0.240002
v -0.338347 -0.997433 0.140148
v -0.402235 -0.839771 0.166611
v -0.358090 -0.989717 0.148326
v -0.375900 -0.967322 0.155703
v -0.390034 -0.932442 0.161557
v -0.399108 -0.888491 0.165316
v -0.359187 -0.997433 0.071447
v -0.427011 -0.839771 0.084938
v -0.380146 -0.989717 0.075616
v -0.399053 -0.967322 0.079377
v -0.414058 -0.932442 0.082361
v -0.423691 -0.888491 0.084277
v -0.366224 -0.997433 -0.000000
v -0.435376 -0.839771 0.000000
v -0.387593 -0.989717 -0.000000
v -0.406871 -0.967322 -0.000000
v -0.422169 -0.932442 -0.000000
v -0.431992 -0.888491 0.000000
v -0.359187 -0.997433 -0.071447
v -0.427011 -0.839771 -0.084938
v -0.380146 -0.989717 -0.075616
v -0.399053 -0.967322 -0.079377
v -0.414058 -0.932442 -0.082361
v -0.423691 -0.888491 -0.084277
v -0.338347 -0.997433 -0.140148
v -0.402235 -0.839771 -0.166611
v -0.358090 -0.989717 -0.148326
v -0.375900 -0.967322 -0.155703
v -0.390034 -0.932442 -0.161557
v -0.399108 -0.888491 -0.165316
v -0.304504 -0.997433 -0.203463
v -0.362002 -0.839771 -0.241882
v -0.322272 -0.989717 -0.215335
v -0.338301 -0.967322 -0.226045
v -0.351021 -0.932442 -0.234545
v -0.359188 -0.888491 -0.240002
v -0.258960 -0.997433 -0.258960
v -0.307858 -0.839771 -0.307858
v -0.274070 -0.989717 -0.274070
v -0.287701 -0.967322 -0.287701
v -0.298519 -0.932442 -0.298519
v -0.305464 -0.888491 -0.305464
v -0.203463 -0.997433 -0.304504
v -0.241882 -0.839771 -0.362002
v -0.215335 -0.989717 -0.322272
v -0.226045 -0.967322 -0.338301
v -0.234545 -0.932442 -0.351021
v -0.240002 -0.888491 -0.359188
v -0.140148 -0.997433 -0.338347
v -0.166611 -0.839771 -0.402235
v -0.148326 -0.989717 -0.358090
v -0.155703 -0.967322 -0.375900
v -0.161557 -0.932442 -0.390034
v -0.165316 -0.888491 -0.399108
v -0.071447 -0.997433 -0.359187
v -0.084938 -0.839771 -0.427011
v -0.075616 -0.989717 -0.380146
v -0.079377 -0.967322 -0.399053
v -0.082361 -0.932442 -0.414058
v -0.084277 -0.888491 -0.423691
vn -0.0000 1.0000 -0.0000
vn -0.9952 -0.0000 0.0980
vn -0.2903 -0.0000 0.9569
vn -0.9569 -0.0000 0.2903
vn 0.2903 -0.0000 0.9569
vn -0.0980 -0.0000 0.9952
vn 0.8819 -0.0000 -0.4714
vn -0.0980 -0.0000 -0.9952
vn -0.9952 -0.0000 -0.0980
vn -0.9569 -0.0000 -0.2903
vn 0.4714 -0.0000 0.8819
vn -0.8819 -0.0000 -0.4714
vn 0.7730 -0.0000 -0.6344
vn -0.2903 -0.0000 -0.9569
vn -0.7730 -0.0000 -0.6344
vn -0.8819 -0.0000 0.4714
vn -0.6344 -0.0000 -0.7730
vn 0.6344 -0.0000 0.7730
vn -0.4714 -0.0000 -0.8819
vn 0.6344 -0.0000 -0.7730
vn -0.7730 -0.0000 0.6344
vn 0.7730 -0.0000 0.6344
vn 0.0980 -0.0000 -0.9952
vn 0.4714 -0.0000 -0.8819
vn 0.2903 -0.0000 -0.9569
vn -0.6344 -0.0000 0.7730
vn 0.0980 -0.0000 0.9952
vn 0.9569 -0.0000 -0.2903
vn -0.4714 -0.0000 0.8819
vn 0.9952 -0.0000 -0.0980
vn 0.8819 -0.0000 0.4714
vn 0.9569 -0.0000 0.2903
vn 0.9952 -0.0000 0.0980
vn 0.0978 -0.0690 -0.9928
vn 0.0957 -0.2171 -0.9714
vn 0.0898 -0.4000 -0.9121
vn 0.0744 -0.6506 -0.7558
vn 0.0334 -0.9400 -0.3394
vn 0.2896 -0.0690 -0.9547
vn 0.2834 -0.2171 -0.9341
vn 0.2660 -0.4000 -0.8770
vn 0.2205 -0.6506 -0.7267
vn 0.0990 -0.9400 -0.3264
vn 0.4703 -0.0690 -0.8798
vn 0.4602 -0.2171 -0.8609
vn 0.4320 -0.4000 -0.8083
vn 0.3580 -0.6506 -0.6698
vn 0.1608 -0.9400 -0.3008
vn 0.6329 -0.0690 -0.7712
vn 0.6193 -0.2171 -0.7546
vn 0.5814 -0.4000 -0.7085
vn 0.4818 -0.6506 -0.5870
vn 0.2164 -0.9400 -0.2637
vn 0.7712 -0.0690 -0.6329
vn 0.7546 -0.2171 -0.6193
vn 0.7085 -0.4000 -0.5814
vn 0.5870 -0.6506 -0.4818
vn 0.2637 -0.9400 -0.2164
vn 0.8798 -0.0690 -0.4703
vn 0.8609 -0.2171 -0.4602
vn 0.8083 -0.4000 -0.4320
vn 0.6698 -0.6506 -0.3580
vn 0.3008 -0.9400 -0.1608
vn 0.9547 -0.0690 -0.2896
vn 0.9341 -0.2171 -0.2834
vn 0.8770 -0.4000 -0.2660
vn 0.7267 -0.6506 -0.2205
vn 0.3264 -0.9400 -0.0990
vn 0.9928 -0.0690 -0.0978
vn 0.9714 -0.2171 -0.0957
vn 0.9121 -0.4000 -0.0898
vn 0.7558 -0.6506 -0.0744
vn 0.3394 -0.9400 -0.0334
vn 0.9928 -0.0690 0.0978
vn 0.9714 -0.2171 0.0957
vn 0.9121 -0.4000 0.0898
vn 0.7558 -0.6506 0.0744
vn 0.3394 -0.9400 0.0334
vn 0.9547 -0.0690 0.2896
vn 0.9341 -0.2171 0.2834
vn 0.8770 -0.4000 0.2660
vn 0.7267 -0.6506 0.2205
vn 0.3264 -0.9400 0.0990
vn 0.8798 -0.0690 0.4703
vn 0.8609 -0.2171 0.4602
vn 0.8083 -0.4000 0.4320
vn 0.6698 -0.6506 0.3580
vn 0.3008 -0.9400 0.1608
vn 0.7712 -0.0690 0.6329
vn 0.7546 -0.2171 0.6193
vn 0.7085 -0.4000 0.5814
vn 0.5871 -0.6506 0.4818
vn 0.2637 -0.9400 0.2164
vn 0.6329 -0.0690 0.7712
vn 0.6193 -0.2171 0.7546
vn 0.5814 -0.4000 0.7085
vn 0.4818 -0.6506 0.5870
vn 0.2164 -0.9400 0.2637
vn 0.4703 -0.0690 0.8798
vn 0.4602 -0.2171 0.8609
vn 0.4320 -0.4000 0.8083
vn 0.3580 -0.6506 0.6698
vn 0.1608 -0.9400 0.3008
vn 0.2896 -0.0690 0.9547
vn 0.2834 -0.2171 0.9341
vn 0.2660 -0.4000 0.8770
vn 0.2205 -0.6506 0.7267
vn 0.0990 -0.9400 0.3264
vn 0.0978 -0.0690 0.9928
vn 0.0957 -0.2171 0.9714
vn 0.0898 -0.4000 0.9121
vn 0.0744 -0.6506 0.7558
vn 0.0334 -0.9400 0.3394
vn -0.0978 -0.0690 0.9928
vn -0.0957 -0.2171 0.9714
vn -0.0898 -0.4000 0.9121
vn -0.0744 -0.6506 0.7558
vn -0.0334 -0.9400 0.3394
vn -0.2896 -0.0690 0.9547
vn -0.2834 -0.2171 0.9341
vn -0.2660 -0.4000 0.8770
vn -0.2205 -0.6506 0.7267
vn -0.0990 -0.9400 0.3264
vn -0.4703 -0.0690 0.8798
vn -0.4602 -0.2171 0.8609
vn -0.4320 -0.4000 0.8083
vn -0.3580 -0.6506 0.6698
vn -0.1608 -0.9400 0.3008
vn -0.6329 -0.0690 0.7712
vn -0.6193 -0.2171 0.7546
vn -0.5814 -0.4000 0.7085
vn -0.4818 -0.6506 0.5870
vn -0.2164 -0.9400 0.2637
vn -0.7712 -0.0690 0.6329
vn -0.7546 -0.2171 0.6193
vn -0.7085 -0.4000 0.5814
vn -0.5870 -0.6506 0.4818
vn -0.2637 -0.9400 0.2164
vn -0.8798 -0.0690 0.4703
vn -0.8609 -0.2171 0.4602
vn -0.8083 -0.4000 0.4320
vn -0.6698 -0.6506 0.3580
vn -0.3008 -0.9400 0.1608
vn -0.9547 -0.0690 0.2896
vn -0.9341 -0.2171 0.2834
vn -0.8770 -0.4000 0.2660
vn -0.7267 -0.6506 0.2205
vn -0.3264 -0.9400 0.0990
vn -0.9928 -0.0690 0.0978
vn -0.9714 -0.2171 0.0957
vn -0.9121 -0.4000 0.0898
vn -0.7558 -0.6506 0.0744
vn -0.3394 -0.9400 0.0334
vn -0.9928 -0.0690 -0.0978
vn -0.9714 -0.2171 -0.0957
vn -0.9121 -0.4000 -0.0898
vn -0.7558 -0.6506 -0.0744
vn -0.3394 -0.9400 -0.0334
vn -0.9547 -0.0690 -0.2896
vn -0.9341 -0.2171 -0.2834
vn -0.8770 -0.4000 -0.2660
vn -0.7267 -0.6506 -0.2205
vn -0.3264 -0.9400 -0.0990
vn -0.8798 -0.0690 -0.4703
vn -0.8609 -0.2171 -0.4602
vn -0.8083 -0.4000 -0.4320
vn -0.6698 -0.6506 -0.3580
vn -0.3008 -0.9400 -0.1608
vn -0.7712 -0.0690 -0.6329
vn -0.7546 -0.2171 -0.6193
vn -0.7085 -0.4000 -0.5814
vn -0.5871 -0.6506 -0.4818
vn -0.2637 -0.9400 -0.2164
vn -0.6329 -0.0690 -0.7712
vn -0.6193 -0.2171 -0.7546
vn -0.5814 -0.4000 -0.7085
vn -0.4818 -0.6506 -0.5870
vn -0.2164 -0.9400 -0.2637
vn -0.4703 -0.0690 -0.8798
vn -0.4602 -0.2171 -0.8609
vn -0.4320 -0.4000 -0.8083
vn -0.3580 -0.6506 -0.6698
vn -0.1608 -0.9400 -0.3008
vn -0.2896 -0.0690 -0.9547
vn -0.2834 -0.2171 -0.9341
vn -0.2660 -0.4000 -0.8770
vn -0.2205 -0.6506 -0.7267
vn -0.0990 -0.9400 -0.3264
vn -0.0978 -0.0690 -0.9928
vn -0.0957 -0.2171 -0.9714
vn -0.0898 -0.4000 -0.9121
vn -0.0744 -0.6506 -0.7558
vn -0.0334 -0.9400 -0.3394
vn -0.0000 -1.0000 -0.0000
vt 0.245296 0.954192
vt 0.210008 0.957667
vt 0.174719 0.954192
vt 0.140787 0.943898
vt 0.109515 0.927183
vt 0.082105 0.904688
vt 0.059610 0.877278
vt 0.042895 0.846006
vt 0.032602 0.812074
vt 0.029126 0.776786
vt 0.032602 0.741498
vt 0.042895 0.707566
vt 0.059610 0.676294
vt 0.082105 0.648884
vt 0.109515 0.626389
vt 0.140787 0.609674
vt 0.174719 0.599380
vt 0.210008 0.595905
vt 0.245296 0.599380
vt 0.279228 0.609673
vt 0.310500 0.626389
vt 0.337910 0.648884
vt 0.360405 0.676294
vt 0.377120 0.707566
vt 0.387413 0.741498
vt 0.390889 0.776786
vt 0.387413 0.812074
vt 0.377120 0.846006
vt 0.360405 0.877278
vt 0.337910 0.904688
vt 0.310500 0.927183
vt 0.279228 0.943898
vt 0.833333 0.416667
vt 0.791667 0.416667
vt 0.791667 0.437500
vt 0.833333 0.437500
vt 0.229167 0.208333
vt 0.270833 0.208333
vt 0.270833 0.229167
vt 0.229167 0.229167
vt 0.875000 0.416667
vt 0.916667 0.416667
vt 0.916667 0.437500
vt 0.875000 0.437500
vt 0.187500 0.208333
vt 0.187500 0.229167
vt 0.916667 0.958333
vt 0.958333 0.958333
vt 0.958333 0.979167
vt 0.916667 0.979167
vt 0.833333 0.958333
vt 0.791667 0.958333
vt 0.791667 0.979167
vt 0.833333 0.979167
vt 0.145833 0.208333
vt 0.145833 0.229167
vt 0.750000 0.416667
vt 0.750000 0.437500
vt 0.125000 0.208333
vt 0.125000 0.229167
vt 0.937500 0.416667
vt 0.937500 0.437500
vt 0.083333 0.208333
vt 0.083333 0.229167
vt 0.979167 0.958333
vt 0.979167 0.979167
vt 0.770833 0.958333
vt 0.770833 0.979167
vt 0.062500 0.208333
vt 0.062500 0.229167
vt 0.729167 0.416667
vt 0.729167 0.437500
vt 0.312500 0.208333
vt 0.291667 0.208333
vt 0.291667 0.229167
vt 0.312500 0.229167
vt 0.979167 0.416667
vt 0.979167 0.437500
vt 0.729167 0.958333
vt 0.729167 0.979167
vt 0.687500 0.416667
vt 0.687500 0.437500
vt 0.708333 0.958333
vt 0.708333 0.979167
vt 0.255977 0.404461
vt 0.219063 0.408097
vt 0.219063 0.399761
vt 0.254351 0.396285
vt 0.182149 0.404461
vt 0.183775 0.396285
vt 0.146653 0.393693
vt 0.149843 0.385992
vt 0.113940 0.376208
vt 0.118571 0.369277
vt 0.085266 0.352676
vt 0.091161 0.346782
vt 0.061735 0.324003
vt 0.068666 0.319372
vt 0.044249 0.291290
vt 0.051950 0.288100
vt 0.033482 0.255794
vt 0.041657 0.254168
vt 0.029846 0.218880
vt 0.038182 0.218880
vt 0.033482 0.181965
vt 0.041657 0.183591
vt 0.044249 0.146469
vt 0.051950 0.149659
vt 0.061735 0.113756
vt 0.068666 0.118387
vt 0.085266 0.085083
vt 0.091161 0.090977
vt 0.113940 0.061552
vt 0.118571 0.068482
vt 0.146653 0.044066
vt 0.149843 0.051767
vt 0.182149 0.033298
vt 0.183775 0.041474
vt 0.219063 0.029663
vt 0.219063 0.037998
vt 0.255977 0.033298
vt 0.254351 0.041474
vt 0.291473 0.044066
vt 0.288283 0.051767
vt 0.324186 0.061552
vt 0.319555 0.068482
vt 0.352860 0.085083
vt 0.346965 0.090977
vt 0.376391 0.113756
vt 0.369460 0.118387
vt 0.393877 0.146469
vt 0.386175 0.149659
vt 0.404644 0.181965
vt 0.396469 0.183591
vt 0.408280 0.218880
vt 0.399944 0.218880
vt 0.404644 0.255794
vt 0.396469 0.254168
vt 0.393877 0.291290
vt 0.386175 0.288100
vt 0.376391 0.324003
vt 0.369460 0.319372
vt 0.352860 0.352676
vt 0.346965 0.346782
vt 0.324186 0.376208
vt 0.319555 0.369277
vt 0.291473 0.393693
vt 0.288283 0.385992
vt 0.875000 0.958333
vt 0.875000 0.979167
vt 0.333333 0.208333
vt 0.333333 0.229167
vt 0.833333 0.604167
vt 0.875000 0.604167
vt 0.875000 0.583333
vt 0.833333 0.583333
vt 0.875000 0.562500
vt 0.833333 0.562500
vt 0.508508 0.695536
vt 0.545031 0.691939
vt 0.543708 0.685285
vt 0.508509 0.688752
vt 0.542040 0.676901
vt 0.508509 0.680203
vt 0.540192 0.667607
vt 0.508508 0.670727
vt 0.916667 0.604167
vt 0.916667 0.583333
vt 0.916667 0.562500
vt 0.580151 0.681286
vt 0.577555 0.675018
vt 0.574283 0.667120
vt 0.570657 0.658365
vt 0.958333 0.604167
vt 0.958333 0.583333
vt 0.937500 0.562500
vt 0.612517 0.663985
vt 0.608748 0.658344
vt 0.603999 0.651237
vt 0.598734 0.643357
vt 0.979167 0.604167
vt 0.979167 0.583333
vt 0.979167 0.562500
vt 0.640887 0.640703
vt 0.636089 0.635906
vt 0.630045 0.629861
vt 0.623344 0.623161
vt 0.664169 0.612334
vt 0.658528 0.608565
vt 0.651420 0.603816
vt 0.643541 0.598551
vt 0.681469 0.579968
vt 0.675201 0.577371
vt 0.667303 0.574100
vt 0.658548 0.570474
vt 0.692122 0.544848
vt 0.685468 0.543525
vt 0.677084 0.541857
vt 0.667790 0.540008
vt 0.695719 0.508325
vt 0.688935 0.508325
vt 0.680387 0.508325
vt 0.670911 0.508325
vt 0.791667 0.604167
vt 0.791667 0.583333
vt 0.791667 0.562500
vt 0.692122 0.471802
vt 0.685468 0.473126
vt 0.677084 0.474793
vt 0.667790 0.476642
vt 0.770833 0.604167
vt 0.770833 0.583333
vt 0.770833 0.562500
vt 0.681469 0.436683
vt 0.675201 0.439279
vt 0.667303 0.442550
vt 0.658548 0.446177
vt 0.729167 0.604167
vt 0.729167 0.583333
vt 0.729167 0.562500
vt 0.664169 0.404316
vt 0.658528 0.408085
vt 0.651420 0.412835
vt 0.643541 0.418099
vt 0.708333 0.604167
vt 0.708333 0.583333
vt 0.708333 0.562500
vt 0.640887 0.375947
vt 0.636089 0.380744
vt 0.630045 0.386789
vt 0.623344 0.393490
vt 0.979167 0.041667
vt 0.937500 0.041667
vt 0.937500 0.020833
vt 0.979167 0.020833
vt 0.937500 0.000000
vt 0.979167 0.000000
vt 0.612517 0.352665
vt 0.608748 0.358306
vt 0.603999 0.365414
vt 0.598734 0.373293
vt 0.916667 0.041667
vt 0.916667 0.020833
vt 0.916667 0.000000
vt 0.580151 0.335365
vt 0.577555 0.341633
vt 0.574283 0.349530
vt 0.570657 0.358285
vt 0.875000 0.041667
vt 0.875000 0.020833
vt 0.875000 0.000000
vt 0.545031 0.324711
vt 0.543708 0.331365
vt 0.542040 0.339749
vt 0.540192 0.349044
vt 0.833333 0.041667
vt 0.833333 0.020833
vt 0.833333 0.000000
vt 0.508508 0.321114
vt 0.508509 0.327898
vt 0.508509 0.336447
vt 0.508508 0.345923
vt 0.791667 0.041667
vt 0.791667 0.020833
vt 0.791667 0.000000
vt 0.471985 0.324711
vt 0.473309 0.331365
vt 0.474977 0.339749
vt 0.476825 0.349044
vt 0.750000 0.041667
vt 0.750000 0.020833
vt 0.750000 0.000000
vt 0.436866 0.335365
vt 0.439462 0.341633
vt 0.442734 0.349530
vt 0.446360 0.358285
vt 0.729167 0.041667
vt 0.729167 0.020833
vt 0.729167 0.000000
vt 0.404500 0.352665
vt 0.408269 0.358306
vt 0.413018 0.365414
vt 0.418283 0.373293
vt 0.687500 0.041667
vt 0.687500 0.020833
vt 0.687500 0.000000
vt 0.376130 0.375947
vt 0.380928 0.380744
vt 0.386972 0.386789
vt 0.393673 0.393490
vt 0.352848 0.404316
vt 0.358489 0.408085
vt 0.365597 0.412835
vt 0.373476 0.418099
vt 0.335548 0.436683
vt 0.341816 0.439279
vt 0.349714 0.442550
vt 0.358468 0.446177
vt 0.324895 0.471802
vt 0.331549 0.473126
vt 0.339933 0.474793
vt 0.349227 0.476642
vt 0.321298 0.508325
vt 0.328082 0.508325
vt 0.336630 0.508325
vt 0.346106 0.508325
vt 0.324895 0.544848
vt 0.331549 0.543525
vt 0.339933 0.541857
vt 0.349227 0.540008
vt 0.335548 0.579968
vt 0.341816 0.577371
vt 0.349714 0.574100
vt 0.358468 0.570474
vt 0.352848 0.612334
vt 0.358489 0.608565
vt 0.365597 0.603816
vt 0.373476 0.598551
vt 0.376130 0.640703
vt 0.380928 0.635906
vt 0.386972 0.629861
vt 0.393673 0.623161
vt 0.404500 0.663985
vt 0.408269 0.658344
vt 0.413018 0.651237
vt 0.418283 0.643357
vt 0.436866 0.681286
vt 0.439462 0.675018
vt 0.442734 0.667120
vt 0.446360 0.658365
vt 0.471985 0.691939
vt 0.473309 0.685285
vt 0.474977 0.676901
vt 0.476825 0.667607
s 0
g Can_1_Can_1
usemtl Can_1
f 33/1/1 34/2/1 35/3/1 36/4/1 37/5/1 38/6/1 39/7/1 40/8/1 41/9/1 42/10/1 43/11/1 44/12/1 45/13/1 46/14/1 47/15/1 48/16/1 49/17/1 50/18/1 51/19/1 52/20/1 53/21/1 54/22/1 55/23/1 56/24/1 57/25/1 58/26/1 59/27/1 60/28/1 61/29/1 62/30/1 63/31/1 64/32/1
f 25/33/2 24/34/2 88/35/2 89/36/2
f 33/37/3 64/38/3 99/39/3 97/40/3
f 60/38/4 59/37/4 124/40/4 125/39/4
f 16/41/5 15/42/5 79/43/5 80/44/5
f 34/45/6 33/37/6 97/40/6 98/46/6
f 59/37/2 58/45/2 123/46/2 124/40/2
f 7/47/7 6/48/7 70/49/7 71/50/7
f 1/51/8 32/52/8 96/53/8 66/54/8
f 58/45/9 57/55/9 122/56/9 123/46/9
f 24/34/4 23/57/4 87/58/4 88/35/4
f 57/55/10 56/59/10 121/60/10 122/56/10
f 15/42/11 14/61/11 78/62/11 79/43/11
f 56/59/12 55/63/12 120/64/12 121/60/12
f 6/48/13 5/65/13 69/66/13 70/49/13
f 32/52/14 31/67/14 95/68/14 96/53/14
f 55/63/15 54/69/15 119/70/15 120/64/15
f 23/57/16 22/71/16 86/72/16 87/58/16
f 54/73/17 53/74/17 118/75/17 119/76/17
f 14/61/18 13/77/18 77/78/18 78/62/18
f 53/74/19 52/38/19 117/39/19 118/75/19
f 5/65/20 4/48/20 68/49/20 69/66/20
f 31/67/19 30/79/19 94/80/19 95/68/19
f 52/38/14 51/37/14 116/40/14 117/39/14
f 22/71/21 21/81/21 85/82/21 86/72/21
f 51/37/8 50/45/8 115/46/8 116/40/8
f 13/83/22 12/79/22 76/80/22 77/84/22
f 50/45/23 49/55/23 114/56/23 115/46/23
f 4/48/24 3/47/24 67/50/24 68/49/24
f 30/79/17 29/83/17 93/84/17 94/80/17
f 49/55/25 48/59/25 113/60/25 114/56/25
f 21/81/26 20/71/26 84/72/26 85/82/26
f 48/59/24 47/63/24 112/64/24 113/60/24
f 65/85/1 66/86/1 98/87/1 97/88/1
f 66/86/1 96/89/1 100/90/1 98/87/1
f 96/89/1 95/91/1 101/92/1 100/90/1
f 95/91/1 94/93/1 102/94/1 101/92/1
f 94/93/1 93/95/1 103/96/1 102/94/1
f 93/95/1 92/97/1 104/98/1 103/96/1
f 92/97/1 91/99/1 105/100/1 104/98/1
f 91/99/1 90/101/1 106/102/1 105/100/1
f 90/101/1 89/103/1 107/104/1 106/102/1
f 89/103/1 88/105/1 108/106/1 107/104/1
f 88/105/1 87/107/1 109/108/1 108/106/1
f 87/107/1 86/109/1 110/110/1 109/108/1
f 86/109/1 85/111/1 111/112/1 110/110/1
f 85/111/1 84/113/1 112/114/1 111/112/1
f 84/113/1 83/115/1 113/116/1 112/114/1
f 83/115/1 82/117/1 114/118/1 113/116/1
f 82/117/1 81/119/1 115/120/1 114/118/1
f 81/119/1 80/121/1 116/122/1 115/120/1
f 80/121/1 79/123/1 117/124/1 116/122/1
f 79/123/1 78/125/1 118/126/1 117/124/1
f 78/125/1 77/127/1 119/128/1 118/126/1
f 77/127/1 76/129/1 120/130/1 119/128/1
f 76/129/1 75/131/1 121/132/1 120/130/1
f 75/131/1 74/133/1 122/134/1 121/132/1
f 74/133/1 73/135/1 123/136/1 122/134/1
f 73/135/1 72/137/1 124/138/1 123/136/1
f 72/137/1 71/139/1 125/140/1 124/138/1
f 71/139/1 70/141/1 126/142/1 125/140/1
f 70/141/1 69/143/1 127/144/1 126/142/1
f 69/143/1 68/145/1 128/146/1 127/144/1
f 68/145/1 67/147/1 99/148/1 128/146/1
f 67/147/1 65/85/1 97/88/1 99/148/1
f 61/74/16 60/38/16 125/39/16 126/75/16
f 35/55/27 34/45/27 98/46/27 100/56/27
f 8/149/28 7/47/28 71/50/28 72/150/28
f 62/151/21 61/74/21 126/75/21 127/152/21
f 36/59/5 35/55/5 100/56/5 101/60/5
f 17/33/27 16/41/27 80/44/27 81/36/27
f 63/74/26 62/151/26 127/152/26 128/75/26
f 37/63/11 36/59/11 101/60/11 102/64/11
f 26/41/9 25/33/9 89/36/9 90/44/9
f 64/38/29 63/74/29 128/75/29 99/39/29
f 38/69/18 37/63/18 102/64/18 103/70/18
f 9/51/30 8/149/30 72/150/30 73/54/30
f 39/74/22 38/73/22 103/76/22 104/75/22
f 18/34/6 17/33/6 81/36/6 82/35/6
f 40/38/31 39/74/31 104/75/31 105/39/31
f 27/42/10 26/41/10 90/44/10 91/43/10
f 41/37/32 40/38/32 105/39/32 106/40/32
f 10/52/33 9/51/33 73/54/33 74/53/33
f 42/45/33 41/37/33 106/40/33 107/46/33
f 19/57/3 18/34/3 82/35/3 83/58/3
f 2/149/23 1/51/23 66/54/23 65/150/23
f 43/55/30 42/45/30 107/46/30 108/56/30
f 28/61/12 27/42/12 91/43/12 92/62/12
f 44/59/28 43/55/28 108/56/28 109/60/28
f 11/67/32 10/52/32 74/53/32 75/68/32
f 45/63/7 44/59/7 109/60/7 110/64/7
f 20/71/29 19/57/29 83/58/29 84/72/29
f 46/69/13 45/63/13 110/64/13 111/70/13
f 29/77/15 28/61/15 92/62/15 93/78/15
f 3/47/25 2/149/25 65/150/25 67/50/25
f 47/63/20 46/69/20 111/70/20 112/64/20
f 12/79/31 11/67/31 75/68/31 76/80/31
f 130/153/34 136/154/34 140/155/34 134/156/34
f 134/156/35 140/155/35 139/157/35 133/158/35
f 133/159/36 139/160/36 138/161/36 132/162/36
f 132/162/37 138/161/37 137/163/37 131/164/37
f 131/164/38 137/163/38 135/165/38 129/166/38
f 136/154/39 142/167/39 146/168/39 140/155/39
f 140/155/40 146/168/40 145/169/40 139/157/40
f 139/160/41 145/170/41 144/171/41 138/161/41
f 138/161/42 144/171/42 143/172/42 137/163/42
f 137/163/43 143/172/43 141/173/43 135/165/43
f 142/167/44 148/174/44 152/175/44 146/168/44
f 146/168/45 152/175/45 151/176/45 145/169/45
f 145/170/46 151/177/46 150/178/46 144/171/46
f 144/171/47 150/178/47 149/179/47 143/172/47
f 143/172/48 149/179/48 147/180/48 141/173/48
f 148/174/49 154/181/49 158/182/49 152/175/49
f 152/175/50 158/182/50 157/183/50 151/176/50
f 151/177/51 157/184/51 156/185/51 150/178/51
f 150/178/52 156/185/52 155/186/52 149/179/52
f 149/179/53 155/186/53 153/187/53 147/180/53
f 154/181/54 160/174/54 164/175/54 158/182/54
f 158/182/55 164/175/55 163/176/55 157/183/55
f 157/184/56 163/188/56 162/189/56 156/185/56
f 156/185/57 162/189/57 161/190/57 155/186/57
f 155/186/58 161/190/58 159/191/58 153/187/58
f 160/174/59 166/167/59 170/168/59 164/175/59
f 164/175/60 170/168/60 169/169/60 163/176/60
f 163/188/61 169/192/61 168/193/61 162/189/61
f 162/189/62 168/193/62 167/194/62 161/190/62
f 161/190/63 167/194/63 165/195/63 159/191/63
f 166/167/64 172/154/64 176/155/64 170/168/64
f 170/168/65 176/155/65 175/157/65 169/169/65
f 169/192/66 175/196/66 174/197/66 168/193/66
f 168/193/67 174/197/67 173/198/67 167/194/67
f 167/194/68 173/198/68 171/199/68 165/195/68
f 172/154/69 178/153/69 182/156/69 176/155/69
f 176/155/70 182/156/70 181/158/70 175/157/70
f 175/196/71 181/200/71 180/201/71 174/197/71
f 174/197/72 180/201/72 179/202/72 173/198/72
f 173/198/73 179/202/73 177/203/73 171/199/73
f 178/153/74 184/204/74 188/205/74 182/156/74
f 182/156/75 188/205/75 187/206/75 181/158/75
f 181/200/76 187/207/76 186/208/76 180/201/76
f 180/201/77 186/208/77 185/209/77 179/202/77
f 179/202/78 185/209/78 183/210/78 177/203/78
f 184/204/79 190/211/79 194/212/79 188/205/79
f 188/205/80 194/212/80 193/213/80 187/206/80
f 187/207/81 193/214/81 192/215/81 186/208/81
f 186/208/82 192/215/82 191/216/82 185/209/82
f 185/209/83 191/216/83 189/217/83 183/210/83
f 190/211/84 196/218/84 200/219/84 194/212/84
f 194/212/85 200/219/85 199/220/85 193/213/85
f 193/214/86 199/221/86 198/222/86 192/215/86
f 192/215/87 198/222/87 197/223/87 191/216/87
f 191/216/88 197/223/88 195/224/88 189/217/88
f 196/218/89 202/225/89 206/226/89 200/219/89
f 200/219/90 206/226/90 205/227/90 199/220/90
f 199/221/91 205/228/91 204/229/91 198/222/91
f 198/222/92 204/229/92 203/230/92 197/223/92
f 197/223/93 203/230/93 201/231/93 195/224/93
f 202/232/94 208/233/94 212/234/94 206/235/94
f 206/235/95 212/234/95 211/236/95 205/237/95
f 205/228/96 211/238/96 210/239/96 204/229/96
f 204/229/97 210/239/97 209/240/97 203/230/97
f 203/230/98 209/240/98 207/241/98 201/231/98
f 208/233/99 214/242/99 218/243/99 212/234/99
f 212/234/100 218/243/100 217/244/100 211/236/100
f 211/238/101 217/245/101 216/246/101 210/239/101
f 210/239/102 216/246/102 215/247/102 209/240/102
f 209/240/103 215/247/103 213/248/103 207/241/103
f 214/242/104 220/249/104 224/250/104 218/243/104
f 218/243/105 224/250/105 223/251/105 217/244/105
f 217/245/106 223/252/106 222/253/106 216/246/106
f 216/246/107 222/253/107 221/254/107 215/247/107
f 215/247/108 221/254/108 219/255/108 213/248/108
f 220/249/109 226/256/109 230/257/109 224/250/109
f 224/250/110 230/257/110 229/258/110 223/251/110
f 223/252/111 229/259/111 228/260/111 222/253/111
f 222/253/112 228/260/112 227/261/112 221/254/112
f 221/254/113 227/261/113 225/262/113 219/255/113
f 226/256/114 232/263/114 236/264/114 230/257/114
f 230/257/115 236/264/115 235/265/115 229/258/115
f 229/259/116 235/266/116 234/267/116 228/260/116
f 228/260/117 234/267/117 233/268/117 227/261/117
f 227/261/118 233/268/118 231/269/118 225/262/118
f 232/263/119 238/270/119 242/271/119 236/264/119
f 236/264/120 242/271/120 241/272/120 235/265/120
f 235/266/121 241/273/121 240/274/121 234/267/121
f 234/267/122 240/274/122 239/275/122 233/268/122
f 233/268/123 239/275/123 237/276/123 231/269/123
f 238/270/124 244/277/124 248/278/124 242/271/124
f 242/271/125 248/278/125 247/279/125 241/272/125
f 241/273/126 247/280/126 246/281/126 240/274/126
f 240/274/127 246/281/127 245/282/127 239/275/127
f 239/275/128 245/282/128 243/283/128 237/276/128
f 244/277/129 250/284/129 254/285/129 248/278/129
f 248/278/130 254/285/130 253/286/130 247/279/130
f 247/280/131 253/287/131 252/288/131 246/281/131
f 246/281/132 252/288/132 251/289/132 245/282/132
f 245/282/133 251/289/133 249/290/133 243/283/133
f 250/284/134 256/277/134 260/278/134 254/285/134
f 254/285/135 260/278/135 259/279/135 253/286/135
f 253/287/136 259/291/136 258/292/136 252/288/136
f 252/288/137 258/292/137 257/293/137 251/289/137
f 251/289/138 257/293/138 255/294/138 249/290/138
f 256/277/139 262/270/139 266/271/139 260/278/139
f 260/278/140 266/271/140 265/272/140 259/279/140
f 259/291/141 265/295/141 264/296/141 258/292/141
f 258/292/142 264/296/142 263/297/142 257/293/142
f 257/293/143 263/297/143 261/298/143 255/294/143
f 262/270/144 268/263/144 272/264/144 266/271/144
f 266/271/145 272/264/145 271/265/145 265/272/145
f 265/295/146 271/299/146 270/300/146 264/296/146
f 264/296/147 270/300/147 269/301/147 263/297/147
f 263/297/148 269/301/148 267/302/148 261/298/148
f 268/263/149 274/256/149 278/257/149 272/264/149
f 272/264/150 278/257/150 277/258/150 271/265/150
f 271/299/151 277/303/151 276/304/151 270/300/151
f 270/300/152 276/304/152 275/305/152 269/301/152
f 269/301/153 275/305/153 273/306/153 267/302/153
f 274/256/154 280/249/154 284/250/154 278/257/154
f 278/257/155 284/250/155 283/251/155 277/258/155
f 277/303/156 283/307/156 282/308/156 276/304/156
f 276/304/157 282/308/157 281/309/157 275/305/157
f 275/305/158 281/309/158 279/310/158 273/306/158
f 280/249/159 286/242/159 290/243/159 284/250/159
f 284/250/160 290/243/160 289/244/160 283/251/160
f 283/307/161 289/311/161 288/312/161 282/308/161
f 282/308/162 288/312/162 287/313/162 281/309/162
f 281/309/163 287/313/163 285/314/163 279/310/163
f 286/242/164 292/233/164 296/234/164 290/243/164
f 290/243/165 296/234/165 295/236/165 289/244/165
f 289/311/166 295/315/166 294/316/166 288/312/166
f 288/312/167 294/316/167 293/317/167 287/313/167
f 287/313/168 293/317/168 291/318/168 285/314/168
f 292/233/169 298/232/169 302/235/169 296/234/169
f 296/234/170 302/235/170 301/237/170 295/236/170
f 295/315/171 301/319/171 300/320/171 294/316/171
f 294/316/172 300/320/172 299/321/172 293/317/172
f 293/317/173 299/321/173 297/322/173 291/318/173
f 298/225/174 304/218/174 308/219/174 302/226/174
f 302/226/175 308/219/175 307/220/175 301/227/175
f 301/319/176 307/323/176 306/324/176 300/320/176
f 300/320/177 306/324/177 305/325/177 299/321/177
f 299/321/178 305/325/178 303/326/178 297/322/178
f 304/218/179 310/211/179 314/212/179 308/219/179
f 308/219/180 314/212/180 313/213/180 307/220/180
f 307/323/181 313/327/181 312/328/181 306/324/181
f 306/324/182 312/328/182 311/329/182 305/325/182
f 305/325/183 311/329/183 309/330/183 303/326/183
f 310/211/184 316/204/184 320/205/184 314/212/184
f 314/212/185 320/205/185 319/206/185 313/213/185
f 313/327/186 319/331/186 318/332/186 312/328/186
f 312/328/187 318/332/187 317/333/187 311/329/187
f 311/329/188 317/333/188 315/334/188 309/330/188
f 316/204/189 130/153/189 134/156/189 320/205/189
f 320/205/190 134/156/190 133/158/190 319/206/190
f 319/331/191 133/159/191 132/162/191 318/332/191
f 318/332/192 132/162/192 131/164/192 317/333/192
f 317/333/193 131/164/193 129/166/193 315/334/193
f 129/166/194 135/165/194 141/173/194 147/180/194 153/187/194 159/191/194 165/195/194 171/199/194 177/203/194 183/210/194 189/217/194 195/224/194 201/231/194 207/241/194 213/248/194 219/255/194 225/262/194 231/269/194 237/276/194 243/283/194 249/290/194 255/294/194 261/298/194 267/302/194 273/306/194 279/310/194 285/314/194 291/318/194 297/322/194 303/326/194 309/330/194 315/334/194
f 130/153/23 1/51/23 2/149/23 136/154/23
f 316/204/8 32/52/8 1/51/8 130/153/8
f 136/154/25 2/149/25 3/47/25 142/167/25
f 142/167/24 3/47/24 4/48/24 148/174/24
f 148/174/20 4/48/20 5/65/20 154/181/20
f 154/181/13 5/65/13 6/48/13 160/174/13
f 160/174/7 6/48/7 7/47/7 166/167/7
f 166/167/28 7/47/28 8/149/28 172/154/28
f 172/154/30 8/149/30 9/51/30 178/153/30
f 178/153/33 9/51/33 10/52/33 184/204/33
f 184/204/32 10/52/32 11/67/32 190/211/32
f 190/211/31 11/67/31 12/79/31 196/218/31
f 196/218/22 12/79/22 13/83/22 202/225/22
f 202/232/18 13/77/18 14/61/18 208/233/18
f 208/233/11 14/61/11 15/42/11 214/242/11
f 214/242/5 15/42/5 16/41/5 220/249/5
f 220/249/27 16/41/27 17/33/27 226/256/27
f 226/256/6 17/33/6 18/34/6 232/263/6
f 232/263/3 18/34/3 19/57/3 238/270/3
f 238/270/29 19/57/29 20/71/29 244/277/29
f 244/277/26 20/71/26 21/81/26 250/284/26
f 250/284/21 21/81/21 22/71/21 256/277/21
f 256/277/16 22/71/16 23/57/16 262/270/16
f 262/270/4 23/57/4 24/34/4 268/263/4
f 268/263/2 24/34/2 25/33/2 274/256/2
f 274/256/9 25/33/9 26/41/9 280/249/9
f 280/249/10 26/41/10 27/42/10 286/242/10
f 286/242/12 27/42/12 28/61/12 292/233/12
f 292/233/15 28/61/15 29/77/15 298/232/15
f 298/225/17 29/83/17 30/79/17 304/218/17
f 304/218/19 30/79/19 31/67/19 310/211/19
f 310/211/14 31/67/14 32/52/14 316/204/14
