# Blender 4.5.4 LTS
# www.blender.org
mtllib Cellphone.mtl
o Cellphone
v -0.630000 -1.071000 0.063000
v -0.630000 1.008000 0.063000
v -0.630000 -1.071000 -0.126000
v -0.630000 1.008000 -0.126000
v 0.567000 -1.071000 0.063000
v 0.567000 1.008000 0.063000
v 0.567000 -1.071000 -0.126000
v 0.567000 1.008000 -0.126000
vn -1.0000 -0.0000 -0.0000
vn -0.0000 -0.0000 -1.0000
vn 1.0000 -0.0000 -0.0000
vn -0.0000 -0.0000 1.0000
vn -0.0000 -1.0000 -0.0000
vn -0.0000 1.0000 -0.0000
vt 0.833333 0.000000
vt 0.833333 0.708333
vt 0.895833 0.708333
vt 0.895833 0.000000
vt -0.000000 0.000000
vt -0.000000 0.708333
vt 0.395833 0.708333
vt 0.395833 0.000000
vt 1.000000 0.000000
vt 1.000000 0.708333
vt 0.937500 0.708333
vt 0.937500 0.000000
vt 0.812500 0.000000
vt 0.812500 0.708333
vt 0.416667 0.708333
vt 0.416667 0.000000
vt 0.041667 0.854167
vt 0.437500 0.854167
vt 0.437500 0.791667
vt 0.041667 0.791667
vt 0.916667 0.854167
vt 0.520833 0.854167
vt 0.520833 0.791667
vt 0.916667 0.791667
s 0
usemtl Cellphone
f 1/1/1 2/2/1 4/3/1 3/4/1
f 3/5/2 4/6/2 8/7/2 7/8/2
f 7/9/3 8/10/3 6/11/3 5/12/3
f 5/13/4 6/14/4 2/15/4 1/16/4
f 3/17/5 7/18/5 5/19/5 1/20/5
f 8/21/6 4/22/6 2/23/6 6/24/6
