# Blender 5.0.0
# www.blender.org
mtllib Clothes 02.mtl
o Clothes_02
v -3.050468 -0.063000 -3.046100
v -3.050468 0.063000 -3.046100
v -3.050467 -0.063000 3.001901
v -3.050467 0.063000 3.001901
v -7.082468 -0.063000 -3.046100
v -7.082468 0.063000 -3.046100
v -7.082468 -0.063000 3.001901
v -7.082468 0.063000 3.001901
v -3.050467 -0.063000 2.749901
v -3.050467 0.063000 2.749901
v -7.082468 -0.063000 2.749901
v -7.082468 0.063000 2.749901
v -3.050467 0.214200 2.749901
v -3.050467 0.214200 3.001901
v -7.082468 0.214200 3.001901
v -7.082468 0.214200 2.749901
v -7.082468 0.088200 3.001901
v -7.082468 0.088200 2.749901
v -3.050467 0.088200 2.749901
v -3.050467 0.088200 3.001901
v -3.050468 0.214200 -3.046100
v -7.082468 0.214200 -3.046100
v -3.050468 0.088200 -3.046100
v -7.082468 0.088200 -3.046100
v -7.082468 0.214200 -1.025142
v -3.050468 0.214200 -1.025142
v -4.059042 0.214200 -3.046100
v -6.072299 0.214200 -3.046100
v -5.069524 0.214200 -1.027450
v -6.070254 0.088200 2.749901
v -6.070254 0.088200 -3.046100
v -4.060153 0.088200 -3.046100
v -5.064242 0.088200 3.001901
v -5.064242 0.214200 3.001901
v -5.064621 0.063000 2.749901
v -5.073326 -0.063000 -3.046100
v -5.073326 0.088200 -2.905687
v -5.064243 -0.063000 3.001901
v -5.064621 -0.063000 2.749901
v -5.064621 0.214200 2.749901
v -5.073326 0.063000 -3.046100
v -5.064242 0.063000 3.001901
v -5.064621 0.088200 2.749901
v -3.050468 0.088200 -1.025107
v -7.082468 0.088200 -1.025839
v -5.071048 0.088200 -1.025473
v -6.070254 0.088200 -1.025655
vn 1.0000 -0.0000 -0.0000
vn -0.0000 -0.0000 1.0000
vn -1.0000 -0.0000 -0.0000
vn -0.0000 -0.0000 -1.0000
vn -0.0000 -1.0000 -0.0000
vn -0.0000 1.0000 -0.0000
vn -0.8943 0.0058 -0.4475
vn 0.8960 -0.0016 -0.4441
vt 0.187500 0.572917
vt 0.166667 0.572917
vt 0.166667 0.583333
vt 0.187500 0.583333
vt 0.020833 0.218750
vt 0.020833 0.239583
vt 0.156250 0.239583
vt 0.156250 0.218750
vt 0.072917 0.572917
vt 0.052083 0.572917
vt 0.052083 0.343750
vt 0.072917 0.343750
vt 0.020833 0.156250
vt 0.020833 0.135417
vt 0.177083 0.135417
vt 0.177083 0.156250
vt 0.364583 0.729167
vt 0.364583 0.843750
vt 0.593750 0.843750
vt 0.593750 0.729167
vt 0.052083 0.583333
vt 0.031250 0.583333
vt 0.031250 0.572917
vt 0.354167 0.739583
vt 0.354167 0.843750
vt 0.072917 0.583333
vt 0.187500 0.343750
vt 0.166667 0.343750
vt 0.260417 0.385417
vt 0.385417 0.385417
vt 0.385417 0.395833
vt 0.260417 0.395833
vt 0.145833 0.572917
vt 0.145833 0.583333
vt 0.281250 0.239583
vt 0.156250 0.260417
vt 0.281250 0.260417
vt 0.166667 0.427083
vt 0.145833 0.427083
vt 0.364583 0.322917
vt 0.364583 0.260417
vt 0.375000 0.260417
vt 0.375000 0.322917
vt 0.312500 0.218750
vt 0.333333 0.218750
vt 0.333333 0.312500
vt 0.312500 0.312500
vt 0.031250 0.427083
vt 0.052083 0.427083
vt 0.385417 0.541667
vt 0.260417 0.541667
vt 0.593750 0.958333
vt 0.583333 0.843750
vt 0.447917 0.843750
vt 0.437500 0.958333
vt 0.322917 0.625000
vt 0.260417 0.625000
vt 0.437500 0.625000
vt 0.500000 0.541667
vt 0.500000 0.625000
vt 0.364583 0.781250
vt 0.437500 0.781250
vt 0.437500 0.718750
vt 0.364583 0.718750
vt 0.281250 0.218750
vt 0.500000 0.385417
vt 0.500000 0.395833
vt 0.364583 0.843750
vt 0.343750 0.791667
vt 0.020833 0.260417
vt 0.364583 0.947917
vt 0.593750 0.947917
vt 0.322917 0.135417
vt 0.322917 0.156250
vt 0.354167 0.947917
vt 0.364583 0.187500
vt 0.375000 0.187500
vt 0.375000 0.229167
vt 0.354167 0.322917
vt 0.354167 0.187500
vt 0.145833 0.343750
vt 0.031250 0.343750
vt 0.583333 0.781250
vt 0.583333 0.718750
vt 0.364583 0.895833
vt 0.364583 0.958333
vt 0.343750 0.906250
s 0
g Clothes_02_Material.001
usemtl Material.001
f 9/1/1 10/2/1 4/3/1 3/4/1
f 3/5/2 4/6/2 42/7/2 38/8/2
f 11/9/3 12/10/3 6/11/3 5/12/3
f 5/13/4 6/14/4 41/15/4 36/16/4
f 9/17/5 39/18/5 36/19/5 1/20/5
f 12/20/6 35/19/6 41/18/6 6/17/6
f 18/10/3 17/21/3 15/22/3 16/23/3
f 3/24/5 38/25/5 39/18/5 9/17/5
f 7/26/3 8/21/3 12/10/3 11/9/3
f 1/27/1 2/28/1 10/2/1 9/1/1
f 15/29/6 34/30/6 40/31/6 16/32/6
f 20/3/1 19/2/1 13/33/1 14/34/1
f 17/35/2 33/7/2 34/36/2 15/37/2
f 13/33/1 19/2/1 44/38/1 26/39/1
f 10/40/4 35/41/4 43/42/4 19/43/4
f 8/35/2 42/7/2 33/7/2 17/35/2
f 4/3/1 10/2/1 19/2/1 20/3/1
f 12/10/3 8/21/3 17/21/3 18/10/3
f 23/44/4 32/45/4 27/46/4 21/47/4
f 18/10/3 16/23/3 25/48/3 45/49/3
f 16/32/6 40/31/6 29/50/6 25/51/6
f 19/52/5 43/53/5 46/54/5 44/55/5
f 28/47/4 31/46/4 24/45/4 22/44/4
f 25/51/6 29/50/6 28/56/6 22/57/6
f 27/58/6 29/50/6 26/59/6 21/60/6
f 31/61/5 47/62/5 45/63/5 24/64/5
f 38/8/2 42/7/2 8/35/2 7/65/2
f 40/31/6 34/30/6 14/66/6 13/67/6
f 29/50/6 40/31/6 13/67/6 26/59/6
f 37/68/5 46/54/5 31/69/5
f 34/36/2 33/7/2 20/6/2 14/70/2
f 36/19/5 39/18/5 11/71/5 5/72/5
f 41/18/6 35/19/6 10/72/6 2/71/6
f 33/7/2 42/7/2 4/6/2 20/6/2
f 36/16/4 41/15/4 2/73/4 1/74/4
f 39/18/5 38/25/5 7/75/5 11/71/5
f 43/42/4 35/41/4 12/76/4 18/77/4 30/78/4
f 32/77/7 46/43/7 29/79/7 27/80/7
f 26/39/1 44/38/1 23/28/1 21/81/1
f 45/49/3 25/48/3 22/82/3 24/11/3
f 47/62/5 46/54/5 43/53/5 30/83/5
f 45/63/5 47/62/5 30/83/5 18/84/5
f 44/55/5 46/54/5 32/85/5 23/86/5
f 31/61/5 46/54/5 47/62/5
f 32/87/5 46/54/5 37/68/5
f 46/43/8 31/77/8 28/80/8 29/79/8
