# Blender 5.0.0
# www.blender.org
mtllib Clothes(Stacked).mtl
o Clothes_(Staked)
v 7.072509 1.449000 -3.024001
v 7.072509 1.575000 -3.024001
v 7.072510 1.449000 3.024000
v 7.072510 1.575000 3.024000
v 3.040509 1.449000 -3.024000
v 3.040509 1.575000 -3.024000
v 3.040510 1.449000 3.024001
v 3.040510 1.575000 3.024001
v 7.072510 1.449000 2.772000
v 7.072510 1.575000 2.772000
v 3.040510 1.449000 2.772001
v 3.040510 1.575000 2.772001
v 7.072510 1.726200 2.772000
v 7.072510 1.726200 3.024000
v 3.040510 1.726200 3.024001
v 3.040510 1.726200 2.772001
v 3.040510 1.600200 3.024001
v 3.040510 1.600200 2.772001
v 7.072510 1.600200 2.772000
v 7.072510 1.600200 3.024000
v 7.072509 1.726200 -3.024001
v 3.040509 1.726200 -3.024000
v 7.072509 1.600200 -3.024001
v 3.040509 1.600200 -3.024000
v 3.040509 1.726200 -1.003043
v 7.072509 1.726200 -1.003042
v 6.063935 1.726200 -3.024000
v 4.050678 1.726200 -3.024000
v 5.053453 1.726200 -1.005350
v 4.052722 1.600200 2.772000
v 4.052723 1.600200 -3.024000
v 6.062824 1.600200 -3.024000
v 5.058735 1.600200 3.024000
v 5.058735 1.726200 3.024000
v 5.058356 1.575000 2.772000
v 5.049652 1.449000 -3.024000
v 5.049652 1.600200 -2.883588
v 5.058734 1.449000 3.024000
v 5.058356 1.449000 2.772000
v 5.058356 1.726200 2.772000
v 5.049652 1.575000 -3.024000
v 5.058734 1.575000 3.024000
v 5.058355 1.600200 2.772000
v 7.072509 1.600200 -1.003008
v 3.040509 1.600200 -1.003739
v 5.051929 1.600200 -1.003374
v 4.052723 1.600200 -1.003555
v 7.072509 0.541800 -3.024001
v 7.072509 0.667800 -3.024001
v 7.072509 0.541800 3.024000
v 7.072509 0.667800 3.024000
v 3.040509 0.541800 -3.024001
v 3.040509 0.667800 -3.024001
v 3.040509 0.541800 3.024001
v 3.040509 0.667800 3.024001
v 7.072509 0.541800 2.772000
v 7.072509 0.667800 2.772000
v 3.040509 0.541800 2.772001
v 3.040509 0.667800 2.772001
v 7.072509 0.819000 2.772000
v 7.072509 0.819000 3.024000
v 3.040509 0.819000 3.024001
v 3.040509 0.819000 2.772001
v 3.040509 0.693000 3.024001
v 3.040509 0.693000 2.772001
v 7.072509 0.693000 2.772000
v 7.072509 0.693000 3.024000
v 7.072509 0.819000 -3.024001
v 3.040509 0.819000 -3.024001
v 7.072509 0.693000 -3.024001
v 3.040509 0.693000 -3.024001
v 3.040509 0.819000 -1.003043
v 7.072509 0.819000 -1.003042
v 6.063934 0.819000 -3.024001
v 4.050678 0.819000 -3.024001
v 5.053452 0.819000 -1.005350
v 4.052722 0.693000 2.772001
v 4.052722 0.693000 -3.024001
v 6.062823 0.693000 -3.024001
v 5.058734 0.693000 3.024001
v 5.058734 0.819000 3.024001
v 5.058355 0.667800 2.772001
v 5.049651 0.541800 -3.024001
v 5.049651 0.693000 -2.883588
v 5.058734 0.541800 3.024001
v 5.058355 0.541800 2.772001
v 5.058355 0.819000 2.772001
v 5.049651 0.667800 -3.024001
v 5.058734 0.667800 3.024001
v 5.058355 0.693000 2.772001
v 7.072509 0.693000 -1.003008
v 3.040509 0.693000 -1.003739
v 5.051929 0.693000 -1.003374
v 4.052722 0.693000 -1.003555
v 7.083552 0.239400 -3.046101
v 7.083552 0.365400 -3.046101
v 7.083553 0.239400 3.001901
v 7.083553 0.365400 3.001901
v 3.051553 0.239400 -3.046100
v 3.051553 0.365400 -3.046100
v 3.051553 0.239400 3.001901
v 3.051553 0.365400 3.001901
v 7.083553 0.239400 2.749901
v 7.083553 0.365400 2.749901
v 3.051553 0.239400 2.749901
v 3.051553 0.365400 2.749901
v 7.083553 0.516600 2.749901
v 7.083553 0.516600 3.001901
v 3.051553 0.516600 3.001901
v 3.051553 0.516600 2.749901
v 3.051553 0.390600 3.001901
v 3.051553 0.390600 2.749901
v 7.083553 0.390600 2.749901
v 7.083553 0.390600 3.001901
v 7.083552 0.516600 -3.046101
v 3.051553 0.516600 -3.046100
v 7.083552 0.390600 -3.046101
v 3.051553 0.390600 -3.046100
v 3.051553 0.516600 -1.025142
v 7.083552 0.516600 -1.025142
v 6.074978 0.516600 -3.046100
v 4.061722 0.516600 -3.046100
v 5.064496 0.516600 -1.027450
v 4.063766 0.390600 2.749901
v 4.063766 0.390600 -3.046100
v 6.073867 0.390600 -3.046100
v 5.069778 0.390600 3.001901
v 5.069778 0.516600 3.001901
v 5.069399 0.365400 2.749901
v 5.060695 0.239400 -3.046100
v 5.060695 0.390600 -2.905688
v 5.069778 0.239400 3.001901
v 5.069399 0.239400 2.749901
v 5.069399 0.516600 2.749901
v 5.060695 0.365400 -3.046100
v 5.069778 0.365400 3.001901
v 5.069399 0.390600 2.749901
v 7.083552 0.390600 -1.025107
v 3.051553 0.390600 -1.025839
v 5.062973 0.390600 -1.025474
v 4.063766 0.390600 -1.025655
v 7.083552 -0.063000 -3.046101
v 7.083552 0.063000 -3.046101
v 7.083553 -0.063000 3.001901
v 7.083553 0.063000 3.001901
v 3.051553 -0.063000 -3.046100
v 3.051553 0.063000 -3.046100
v 3.051553 -0.063000 3.001901
v 3.051553 0.063000 3.001901
v 7.083553 -0.063000 2.749901
v 7.083553 0.063000 2.749901
v 3.051553 -0.063000 2.749901
v 3.051553 0.063000 2.749901
v 7.083553 0.214200 2.749901
v 7.083553 0.214200 3.001901
v 3.051553 0.214200 3.001901
v 3.051553 0.214200 2.749901
v 3.051553 0.088200 3.001901
v 3.051553 0.088200 2.749901
v 7.083553 0.088200 2.749901
v 7.083553 0.088200 3.001901
v 7.083552 0.214200 -3.046101
v 3.051553 0.214200 -3.046100
v 7.083552 0.088200 -3.046101
v 3.051553 0.088200 -3.046100
v 3.051553 0.214200 -1.025142
v 7.083552 0.214200 -1.025142
v 6.074978 0.214200 -3.046100
v 4.061722 0.214200 -3.046100
v 5.064496 0.214200 -1.027450
v 4.063766 0.088200 2.749901
v 4.063766 0.088200 -3.046100
v 6.073867 0.088200 -3.046100
v 5.069778 0.088200 3.001901
v 5.069778 0.214200 3.001901
v 5.069399 0.063000 2.749901
v 5.060695 -0.063000 -3.046100
v 5.060695 0.088200 -2.905688
v 5.069778 -0.063000 3.001901
v 5.069399 -0.063000 2.749901
v 5.069399 0.214200 2.749901
v 5.060695 0.063000 -3.046100
v 5.069778 0.063000 3.001901
v 5.069399 0.088200 2.749901
v 7.083552 0.088200 -1.025107
v 3.051553 0.088200 -1.025839
v 5.062973 0.088200 -1.025474
v 4.063766 0.088200 -1.025655
v 7.083552 0.844200 -3.046101
v 7.083552 0.970200 -3.046101
v 7.083553 0.844200 3.001901
v 7.083553 0.970200 3.001901
v 3.051553 0.844200 -3.046100
v 3.051553 0.970200 -3.046100
v 3.051553 0.844200 3.001901
v 3.051553 0.970200 3.001901
v 7.083553 0.844200 2.749901
v 7.083553 0.970200 2.749901
v 3.051553 0.844200 2.749901
v 3.051553 0.970200 2.749901
v 7.083553 1.121400 2.749901
v 7.083553 1.121400 3.001901
v 3.051553 1.121400 3.001901
v 3.051553 1.121400 2.749901
v 3.051553 0.995400 3.001901
v 3.051553 0.995400 2.749901
v 7.083553 0.995400 2.749901
v 7.083553 0.995400 3.001901
v 7.083552 1.121400 -3.046101
v 3.051553 1.121400 -3.046100
v 7.083552 0.995400 -3.046101
v 3.051553 0.995400 -3.046100
v 3.051553 1.121400 -1.025142
v 7.083552 1.121400 -1.025142
v 6.074978 1.121400 -3.046100
v 4.061722 1.121400 -3.046100
v 5.064496 1.121400 -1.027450
v 4.063766 0.995400 2.749901
v 4.063766 0.995400 -3.046100
v 6.073867 0.995400 -3.046100
v 5.069778 0.995400 3.001901
v 5.069778 1.121400 3.001901
v 5.069399 0.970200 2.749901
v 5.060695 0.844200 -3.046100
v 5.060695 0.995400 -2.905688
v 5.069778 0.844200 3.001901
v 5.069399 0.844200 2.749901
v 5.069399 1.121400 2.749901
v 5.060695 0.970200 -3.046100
v 5.069778 0.970200 3.001901
v 5.069399 0.995400 2.749901
v 7.083552 0.995400 -1.025107
v 3.051553 0.995400 -1.025839
v 5.062973 0.995400 -1.025474
v 4.063766 0.995400 -1.025655
v 7.083552 1.146600 -3.046101
v 7.083552 1.272600 -3.046101
v 7.083553 1.146600 3.001901
v 7.083553 1.272600 3.001901
v 3.051553 1.146600 -3.046100
v 3.051553 1.272600 -3.046100
v 3.051553 1.146600 3.001901
v 3.051553 1.272600 3.001901
v 7.083553 1.146600 2.749901
v 7.083553 1.272600 2.749901
v 3.051553 1.146600 2.749901
v 3.051553 1.272600 2.749901
v 7.083553 1.423800 2.749901
v 7.083553 1.423800 3.001901
v 3.051553 1.423800 3.001901
v 3.051553 1.423800 2.749901
v 3.051553 1.297800 3.001901
v 3.051553 1.297800 2.749901
v 7.083553 1.297800 2.749901
v 7.083553 1.297800 3.001901
v 7.083552 1.423800 -3.046101
v 3.051553 1.423800 -3.046100
v 7.083552 1.297800 -3.046101
v 3.051553 1.297800 -3.046100
v 3.051553 1.423800 -1.025142
v 7.083552 1.423800 -1.025142
v 6.074978 1.423800 -3.046100
v 4.061722 1.423800 -3.046100
v 5.064496 1.423800 -1.027450
v 4.063766 1.297800 2.749901
v 4.063766 1.297800 -3.046100
v 6.073867 1.297800 -3.046100
v 5.069778 1.297800 3.001901
v 5.069778 1.423800 3.001901
v 5.069399 1.272600 2.749901
v 5.060695 1.146600 -3.046100
v 5.060695 1.297800 -2.905688
v 5.069778 1.146600 3.001901
v 5.069399 1.146600 2.749901
v 5.069399 1.423800 2.749901
v 5.060695 1.272600 -3.046100
v 5.069778 1.272600 3.001901
v 5.069399 1.297800 2.749901
v 7.083552 1.297800 -1.025107
v 3.051553 1.297800 -1.025839
v 5.062973 1.297800 -1.025474
v 4.063766 1.297800 -1.025655
vn 1.0000 -0.0000 -0.0000
vn -0.0000 -0.0000 1.0000
vn -1.0000 -0.0000 -0.0000
vn -0.0000 -0.0000 -1.0000
vn -0.0000 -1.0000 -0.0000
vn -0.0000 1.0000 -0.0000
vn -0.8943 0.0058 -0.4475
vn 0.8960 -0.0016 -0.4441
vt 0.187500 0.572917
vt 0.166667 0.572917
vt 0.166667 0.583333
vt 0.187500 0.583333
vt 0.020833 0.218750
vt 0.020833 0.239583
vt 0.156250 0.239583
vt 0.156250 0.218750
vt 0.072917 0.572917
vt 0.052083 0.572917
vt 0.052083 0.343750
vt 0.072917 0.343750
vt 0.020833 0.156250
vt 0.020833 0.135417
vt 0.177083 0.135417
vt 0.177083 0.156250
vt 0.364583 0.729167
vt 0.364583 0.843750
vt 0.593750 0.843750
vt 0.593750 0.729167
vt 0.052083 0.583333
vt 0.031250 0.583333
vt 0.031250 0.572917
vt 0.354167 0.739583
vt 0.354167 0.843750
vt 0.072917 0.583333
vt 0.187500 0.343750
vt 0.166667 0.343750
vt 0.260417 0.385417
vt 0.385417 0.385417
vt 0.385417 0.395833
vt 0.260417 0.395833
vt 0.145833 0.572917
vt 0.145833 0.583333
vt 0.281250 0.239583
vt 0.156250 0.260417
vt 0.281250 0.260417
vt 0.166667 0.427083
vt 0.145833 0.427083
vt 0.364583 0.322917
vt 0.364583 0.260417
vt 0.375000 0.260417
vt 0.375000 0.322917
vt 0.312500 0.218750
vt 0.333333 0.218750
vt 0.333333 0.312500
vt 0.312500 0.312500
vt 0.031250 0.427083
vt 0.052083 0.427083
vt 0.385417 0.541667
vt 0.260417 0.541667
vt 0.593750 0.958333
vt 0.583333 0.843750
vt 0.447917 0.843750
vt 0.437500 0.958333
vt 0.322917 0.625000
vt 0.260417 0.625000
vt 0.437500 0.625000
vt 0.500000 0.541667
vt 0.500000 0.625000
vt 0.364583 0.781250
vt 0.437500 0.781250
vt 0.437500 0.718750
vt 0.364583 0.718750
vt 0.281250 0.218750
vt 0.500000 0.385417
vt 0.500000 0.395833
vt 0.364583 0.843750
vt 0.343750 0.791667
vt 0.020833 0.260417
vt 0.364583 0.947917
vt 0.593750 0.947917
vt 0.322917 0.135417
vt 0.322917 0.156250
vt 0.354167 0.947917
vt 0.364583 0.187500
vt 0.375000 0.187500
vt 0.375000 0.229167
vt 0.354167 0.322917
vt 0.354167 0.187500
vt 0.145833 0.343750
vt 0.031250 0.343750
vt 0.583333 0.781250
vt 0.583333 0.718750
vt 0.364583 0.895833
vt 0.364583 0.958333
vt 0.343750 0.906250
s 0
g Clothes_(Staked)_Clothes_01
usemtl Clothes_01
f 9/1/1 10/2/1 4/3/1 3/4/1
f 3/5/2 4/6/2 42/7/2 38/8/2
f 11/9/3 12/10/3 6/11/3 5/12/3
f 5/13/4 6/14/4 41/15/4 36/16/4
f 9/17/5 39/18/5 36/19/5 1/20/5
f 12/20/6 35/19/6 41/18/6 6/17/6
f 18/10/3 17/21/3 15/22/3 16/23/3
f 3/24/5 38/25/5 39/18/5 9/17/5
f 7/26/3 8/21/3 12/10/3 11/9/3
f 1/27/1 2/28/1 10/2/1 9/1/1
f 15/29/6 34/30/6 40/31/6 16/32/6
f 20/3/1 19/2/1 13/33/1 14/34/1
f 17/35/2 33/7/2 34/36/2 15/37/2
f 13/33/1 19/2/1 44/38/1 26/39/1
f 10/40/4 35/41/4 43/42/4 19/43/4
f 8/35/2 42/7/2 33/7/2 17/35/2
f 4/3/1 10/2/1 19/2/1 20/3/1
f 12/10/3 8/21/3 17/21/3 18/10/3
f 23/44/4 32/45/4 27/46/4 21/47/4
f 18/10/3 16/23/3 25/48/3 45/49/3
f 16/32/6 40/31/6 29/50/6 25/51/6
f 19/52/5 43/53/5 46/54/5 44/55/5
f 28/47/4 31/46/4 24/45/4 22/44/4
f 25/51/6 29/50/6 28/56/6 22/57/6
f 27/58/6 29/50/6 26/59/6 21/60/6
f 31/61/5 47/62/5 45/63/5 24/64/5
f 38/8/2 42/7/2 8/35/2 7/65/2
f 40/31/6 34/30/6 14/66/6 13/67/6
f 29/50/6 40/31/6 13/67/6 26/59/6
f 37/68/5 46/54/5 31/69/5
f 34/36/2 33/7/2 20/6/2 14/70/2
f 36/19/5 39/18/5 11/71/5 5/72/5
f 41/18/6 35/19/6 10/72/6 2/71/6
f 33/7/2 42/7/2 4/6/2 20/6/2
f 36/16/4 41/15/4 2/73/4 1/74/4
f 39/18/5 38/25/5 7/75/5 11/71/5
f 43/42/4 35/41/4 12/76/4 18/77/4 30/78/4
f 32/77/7 46/43/7 29/79/7 27/80/7
f 26/39/1 44/38/1 23/28/1 21/81/1
f 45/49/3 25/48/3 22/82/3 24/11/3
f 47/62/5 46/54/5 43/53/5 30/83/5
f 45/63/5 47/62/5 30/83/5 18/84/5
f 44/55/5 46/54/5 32/85/5 23/86/5
f 31/61/5 46/54/5 47/62/5
f 32/87/5 46/54/5 37/68/5
f 46/43/8 31/77/8 28/80/8 29/79/8
f 56/1/1 57/2/1 51/3/1 50/4/1
f 50/5/2 51/6/2 89/7/2 85/8/2
f 58/9/3 59/10/3 53/11/3 52/12/3
f 52/13/4 53/14/4 88/15/4 83/16/4
f 56/17/5 86/18/5 83/19/5 48/20/5
f 59/20/6 82/19/6 88/18/6 53/17/6
f 65/10/3 64/21/3 62/22/3 63/23/3
f 50/24/5 85/25/5 86/18/5 56/17/5
f 54/26/3 55/21/3 59/10/3 58/9/3
f 48/27/1 49/28/1 57/2/1 56/1/1
f 62/29/6 81/30/6 87/31/6 63/32/6
f 67/3/1 66/2/1 60/33/1 61/34/1
f 64/35/2 80/7/2 81/36/2 62/37/2
f 60/33/1 66/2/1 91/38/1 73/39/1
f 57/40/4 82/41/4 90/42/4 66/43/4
f 55/35/2 89/7/2 80/7/2 64/35/2
f 51/3/1 57/2/1 66/2/1 67/3/1
f 59/10/3 55/21/3 64/21/3 65/10/3
f 70/44/4 79/45/4 74/46/4 68/47/4
f 65/10/3 63/23/3 72/48/3 92/49/3
f 63/32/6 87/31/6 76/50/6 72/51/6
f 66/52/5 90/53/5 93/54/5 91/55/5
f 75/47/4 78/46/4 71/45/4 69/44/4
f 72/51/6 76/50/6 75/56/6 69/57/6
f 74/58/6 76/50/6 73/59/6 68/60/6
f 78/61/5 94/62/5 92/63/5 71/64/5
f 85/8/2 89/7/2 55/35/2 54/65/2
f 87/31/6 81/30/6 61/66/6 60/67/6
f 76/50/6 87/31/6 60/67/6 73/59/6
f 84/68/5 93/54/5 78/69/5
f 81/36/2 80/7/2 67/6/2 61/70/2
f 83/19/5 86/18/5 58/71/5 52/72/5
f 88/18/6 82/19/6 57/72/6 49/71/6
f 80/7/2 89/7/2 51/6/2 67/6/2
f 83/16/4 88/15/4 49/73/4 48/74/4
f 86/18/5 85/25/5 54/75/5 58/71/5
f 90/42/4 82/41/4 59/76/4 65/77/4 77/78/4
f 79/77/7 93/43/7 76/79/7 74/80/7
f 73/39/1 91/38/1 70/28/1 68/81/1
f 92/49/3 72/48/3 69/82/3 71/11/3
f 94/62/5 93/54/5 90/53/5 77/83/5
f 92/63/5 94/62/5 77/83/5 65/84/5
f 91/55/5 93/54/5 79/85/5 70/86/5
f 78/61/5 93/54/5 94/62/5
f 79/87/5 93/54/5 84/68/5
f 93/43/8 78/77/8 75/80/8 76/79/8
g Clothes_(Staked)_Material.001
usemtl Material.001
f 103/1/1 104/2/1 98/3/1 97/4/1
f 97/5/2 98/6/2 136/7/2 132/8/2
f 105/9/3 106/10/3 100/11/3 99/12/3
f 99/13/4 100/14/4 135/15/4 130/16/4
f 103/17/5 133/18/5 130/19/5 95/20/5
f 106/20/6 129/19/6 135/18/6 100/17/6
f 112/10/3 111/21/3 109/22/3 110/23/3
f 97/24/5 132/25/5 133/18/5 103/17/5
f 101/26/3 102/21/3 106/10/3 105/9/3
f 95/27/1 96/28/1 104/2/1 103/1/1
f 109/29/6 128/30/6 134/31/6 110/32/6
f 114/3/1 113/2/1 107/33/1 108/34/1
f 111/35/2 127/7/2 128/36/2 109/37/2
f 107/33/1 113/2/1 138/38/1 120/39/1
f 104/40/4 129/41/4 137/42/4 113/43/4
f 102/35/2 136/7/2 127/7/2 111/35/2
f 98/3/1 104/2/1 113/2/1 114/3/1
f 106/10/3 102/21/3 111/21/3 112/10/3
f 117/44/4 126/45/4 121/46/4 115/47/4
f 112/10/3 110/23/3 119/48/3 139/49/3
f 110/32/6 134/31/6 123/50/6 119/51/6
f 113/52/5 137/53/5 140/54/5 138/55/5
f 122/47/4 125/46/4 118/45/4 116/44/4
f 119/51/6 123/50/6 122/56/6 116/57/6
f 121/58/6 123/50/6 120/59/6 115/60/6
f 125/61/5 141/62/5 139/63/5 118/64/5
f 132/8/2 136/7/2 102/35/2 101/65/2
f 134/31/6 128/30/6 108/66/6 107/67/6
f 123/50/6 134/31/6 107/67/6 120/59/6
f 131/68/5 140/54/5 125/69/5
f 128/36/2 127/7/2 114/6/2 108/70/2
f 130/19/5 133/18/5 105/71/5 99/72/5
f 135/18/6 129/19/6 104/72/6 96/71/6
f 127/7/2 136/7/2 98/6/2 114/6/2
f 130/16/4 135/15/4 96/73/4 95/74/4
f 133/18/5 132/25/5 101/75/5 105/71/5
f 137/42/4 129/41/4 106/76/4 112/77/4 124/78/4
f 126/77/7 140/43/7 123/79/7 121/80/7
f 120/39/1 138/38/1 117/28/1 115/81/1
f 139/49/3 119/48/3 116/82/3 118/11/3
f 141/62/5 140/54/5 137/53/5 124/83/5
f 139/63/5 141/62/5 124/83/5 112/84/5
f 138/55/5 140/54/5 126/85/5 117/86/5
f 125/61/5 140/54/5 141/62/5
f 126/87/5 140/54/5 131/68/5
f 140/43/8 125/77/8 122/80/8 123/79/8
f 197/1/1 198/2/1 192/3/1 191/4/1
f 191/5/2 192/6/2 230/7/2 226/8/2
f 199/9/3 200/10/3 194/11/3 193/12/3
f 193/13/4 194/14/4 229/15/4 224/16/4
f 197/17/5 227/18/5 224/19/5 189/20/5
f 200/20/6 223/19/6 229/18/6 194/17/6
f 206/10/3 205/21/3 203/22/3 204/23/3
f 191/24/5 226/25/5 227/18/5 197/17/5
f 195/26/3 196/21/3 200/10/3 199/9/3
f 189/27/1 190/28/1 198/2/1 197/1/1
f 203/29/6 222/30/6 228/31/6 204/32/6
f 208/3/1 207/2/1 201/33/1 202/34/1
f 205/35/2 221/7/2 222/36/2 203/37/2
f 201/33/1 207/2/1 232/38/1 214/39/1
f 198/40/4 223/41/4 231/42/4 207/43/4
f 196/35/2 230/7/2 221/7/2 205/35/2
f 192/3/1 198/2/1 207/2/1 208/3/1
f 200/10/3 196/21/3 205/21/3 206/10/3
f 211/44/4 220/45/4 215/46/4 209/47/4
f 206/10/3 204/23/3 213/48/3 233/49/3
f 204/32/6 228/31/6 217/50/6 213/51/6
f 207/52/5 231/53/5 234/54/5 232/55/5
f 216/47/4 219/46/4 212/45/4 210/44/4
f 213/51/6 217/50/6 216/56/6 210/57/6
f 215/58/6 217/50/6 214/59/6 209/60/6
f 219/61/5 235/62/5 233/63/5 212/64/5
f 226/8/2 230/7/2 196/35/2 195/65/2
f 228/31/6 222/30/6 202/66/6 201/67/6
f 217/50/6 228/31/6 201/67/6 214/59/6
f 225/68/5 234/54/5 219/69/5
f 222/36/2 221/7/2 208/6/2 202/70/2
f 224/19/5 227/18/5 199/71/5 193/72/5
f 229/18/6 223/19/6 198/72/6 190/71/6
f 221/7/2 230/7/2 192/6/2 208/6/2
f 224/16/4 229/15/4 190/73/4 189/74/4
f 227/18/5 226/25/5 195/75/5 199/71/5
f 231/42/4 223/41/4 200/76/4 206/77/4 218/78/4
f 220/77/7 234/43/7 217/79/7 215/80/7
f 214/39/1 232/38/1 211/28/1 209/81/1
f 233/49/3 213/48/3 210/82/3 212/11/3
f 235/62/5 234/54/5 231/53/5 218/83/5
f 233/63/5 235/62/5 218/83/5 206/84/5
f 232/55/5 234/54/5 220/85/5 211/86/5
f 219/61/5 234/54/5 235/62/5
f 220/87/5 234/54/5 225/68/5
f 234/43/8 219/77/8 216/80/8 217/79/8
g Clothes_(Staked)_Material.002
usemtl Material.002
f 150/1/1 151/2/1 145/3/1 144/4/1
f 144/5/2 145/6/2 183/7/2 179/8/2
f 152/9/3 153/10/3 147/11/3 146/12/3
f 146/13/4 147/14/4 182/15/4 177/16/4
f 150/17/5 180/18/5 177/19/5 142/20/5
f 153/20/6 176/19/6 182/18/6 147/17/6
f 159/10/3 158/21/3 156/22/3 157/23/3
f 144/24/5 179/25/5 180/18/5 150/17/5
f 148/26/3 149/21/3 153/10/3 152/9/3
f 142/27/1 143/28/1 151/2/1 150/1/1
f 156/29/6 175/30/6 181/31/6 157/32/6
f 161/3/1 160/2/1 154/33/1 155/34/1
f 158/35/2 174/7/2 175/36/2 156/37/2
f 154/33/1 160/2/1 185/38/1 167/39/1
f 151/40/4 176/41/4 184/42/4 160/43/4
f 149/35/2 183/7/2 174/7/2 158/35/2
f 145/3/1 151/2/1 160/2/1 161/3/1
f 153/10/3 149/21/3 158/21/3 159/10/3
f 164/44/4 173/45/4 168/46/4 162/47/4
f 159/10/3 157/23/3 166/48/3 186/49/3
f 157/32/6 181/31/6 170/50/6 166/51/6
f 160/52/5 184/53/5 187/54/5 185/55/5
f 169/47/4 172/46/4 165/45/4 163/44/4
f 166/51/6 170/50/6 169/56/6 163/57/6
f 168/58/6 170/50/6 167/59/6 162/60/6
f 172/61/5 188/62/5 186/63/5 165/64/5
f 179/8/2 183/7/2 149/35/2 148/65/2
f 181/31/6 175/30/6 155/66/6 154/67/6
f 170/50/6 181/31/6 154/67/6 167/59/6
f 178/68/5 187/54/5 172/69/5
f 175/36/2 174/7/2 161/6/2 155/70/2
f 177/19/5 180/18/5 152/71/5 146/72/5
f 182/18/6 176/19/6 151/72/6 143/71/6
f 174/7/2 183/7/2 145/6/2 161/6/2
f 177/16/4 182/15/4 143/73/4 142/74/4
f 180/18/5 179/25/5 148/75/5 152/71/5
f 184/42/4 176/41/4 153/76/4 159/77/4 171/78/4
f 173/77/7 187/43/7 170/79/7 168/80/7
f 167/39/1 185/38/1 164/28/1 162/81/1
f 186/49/3 166/48/3 163/82/3 165/11/3
f 188/62/5 187/54/5 184/53/5 171/83/5
f 186/63/5 188/62/5 171/83/5 159/84/5
f 185/55/5 187/54/5 173/85/5 164/86/5
f 172/61/5 187/54/5 188/62/5
f 173/87/5 187/54/5 178/68/5
f 187/43/8 172/77/8 169/80/8 170/79/8
f 244/1/1 245/2/1 239/3/1 238/4/1
f 238/5/2 239/6/2 277/7/2 273/8/2
f 246/9/3 247/10/3 241/11/3 240/12/3
f 240/13/4 241/14/4 276/15/4 271/16/4
f 244/17/5 274/18/5 271/19/5 236/20/5
f 247/20/6 270/19/6 276/18/6 241/17/6
f 253/10/3 252/21/3 250/22/3 251/23/3
f 238/24/5 273/25/5 274/18/5 244/17/5
f 242/26/3 243/21/3 247/10/3 246/9/3
f 236/27/1 237/28/1 245/2/1 244/1/1
f 250/29/6 269/30/6 275/31/6 251/32/6
f 255/3/1 254/2/1 248/33/1 249/34/1
f 252/35/2 268/7/2 269/36/2 250/37/2
f 248/33/1 254/2/1 279/38/1 261/39/1
f 245/40/4 270/41/4 278/42/4 254/43/4
f 243/35/2 277/7/2 268/7/2 252/35/2
f 239/3/1 245/2/1 254/2/1 255/3/1
f 247/10/3 243/21/3 252/21/3 253/10/3
f 258/44/4 267/45/4 262/46/4 256/47/4
f 253/10/3 251/23/3 260/48/3 280/49/3
f 251/32/6 275/31/6 264/50/6 260/51/6
f 254/52/5 278/53/5 281/54/5 279/55/5
f 263/47/4 266/46/4 259/45/4 257/44/4
f 260/51/6 264/50/6 263/56/6 257/57/6
f 262/58/6 264/50/6 261/59/6 256/60/6
f 266/61/5 282/62/5 280/63/5 259/64/5
f 273/8/2 277/7/2 243/35/2 242/65/2
f 275/31/6 269/30/6 249/66/6 248/67/6
f 264/50/6 275/31/6 248/67/6 261/59/6
f 272/68/5 281/54/5 266/69/5
f 269/36/2 268/7/2 255/6/2 249/70/2
f 271/19/5 274/18/5 246/71/5 240/72/5
f 276/18/6 270/19/6 245/72/6 237/71/6
f 268/7/2 277/7/2 239/6/2 255/6/2
f 271/16/4 276/15/4 237/73/4 236/74/4
f 274/18/5 273/25/5 242/75/5 246/71/5
f 278/42/4 270/41/4 247/76/4 253/77/4 265/78/4
f 267/77/7 281/43/7 264/79/7 262/80/7
f 261/39/1 279/38/1 258/28/1 256/81/1
f 280/49/3 260/48/3 257/82/3 259/11/3
f 282/62/5 281/54/5 278/53/5 265/83/5
f 280/63/5 282/62/5 265/83/5 253/84/5
f 279/55/5 281/54/5 267/85/5 258/86/5
f 266/61/5 281/54/5 282/62/5
f 267/87/5 281/54/5 272/68/5
f 281/43/8 266/77/8 263/80/8 264/79/8
