# Blender 5.0.0
# www.blender.org
mtllib Electric Kettle.mtl
o Electric_Kettle_(Handle)
v 4.020589 -3.743089 0.787174
v 3.516589 8.081717 0.787174
v 4.020589 -3.743089 -0.787174
v 3.516589 8.081717 -0.787174
v 4.561257 8.081717 0.643790
v 4.561257 8.081717 -0.643790
v 3.978590 -2.114763 0.787174
v 3.978590 -2.114763 -0.787174
v 4.420395 -2.248736 -0.653201
v 4.420395 -2.248736 0.653201
v 4.014289 -3.498841 -0.787174
v 4.420395 -3.364867 -0.653201
v 4.420395 -3.364867 0.653201
v 4.014289 -3.498841 0.787174
v 4.420395 -2.114763 -0.787174
v 4.420395 -2.114763 0.787174
v 4.420395 -3.498841 -0.787174
v 4.420395 -3.498841 0.787174
v 4.073058 -2.677892 -0.565905
v 4.073058 -2.677892 0.565905
v 4.073058 -2.935712 -0.565905
v 4.073058 -2.935712 0.565905
v 4.073058 -2.248736 -0.653201
v 4.073058 -2.248736 0.653201
v 4.073058 -3.364867 -0.653201
v 4.073058 -3.364867 0.653201
v 6.040388 -2.677892 -0.565905
v 6.040388 -2.677892 0.565905
v 6.040388 -2.935712 -0.565905
v 6.040388 -2.935712 0.565905
v 3.941352 -1.292916 0.787174
v 3.941352 -1.292916 -0.787174
v 4.420395 -1.292916 -0.787174
v 4.420395 -1.292916 0.787174
v 3.891417 -0.190839 0.787174
v 3.891417 -0.190839 -0.787174
v 4.420395 -0.190839 -0.787174
v 4.420395 -0.190839 0.787174
v 3.601778 6.201591 0.787174
v 3.601778 6.201591 -0.787174
v 4.420395 6.201591 -0.787174
v 4.420395 6.201591 0.787174
v 7.055240 0.111562 -0.787174
v 7.055240 0.111562 0.787174
v 7.055240 6.201591 -0.787174
v 7.055240 6.201591 0.787174
v 6.053999 -1.105428 -0.787174
v 6.053999 -1.105428 0.787174
v 5.899963 8.081717 0.643790
v 5.899963 8.081717 -0.643790
v 6.443675 8.081717 -0.787174
v 7.055240 7.470152 -0.787174
v 6.749457 7.999783 -0.787174
v 6.973306 7.775934 -0.787174
v 7.055240 7.470152 0.787174
v 6.443675 8.081717 0.787174
v 6.973306 7.775934 0.787174
v 6.749457 7.999783 0.787174
v 6.052645 0.634539 0.787174
v 5.420268 -0.076084 0.787174
v 6.053999 -0.641241 0.787174
v 6.687730 0.069382 0.787174
v 5.968418 0.305850 0.787174
v 5.736952 0.045744 0.787174
v 5.420268 -0.076084 -0.787174
v 6.052645 0.634539 -0.787174
v 6.687730 0.069382 -0.787174
v 6.053999 -0.641241 -0.787174
v 5.736952 0.045744 -0.787174
v 5.968418 0.305850 -0.787174
v 6.041780 5.751479 -0.787174
v 5.590712 6.201591 -0.787174
v 6.040825 6.651703 -0.787174
v 6.490938 6.201591 -0.787174
v 5.909269 6.069757 -0.787174
v 5.590712 6.201591 0.787174
v 6.041780 5.751479 0.787174
v 6.490938 6.201591 0.787174
v 6.040825 6.651703 0.787174
v 5.909269 6.069757 0.787174
v 7.055240 -0.302923 -0.787174
v 6.372131 -1.068916 -0.787174
v 6.963720 -0.657223 -0.787174
v 6.713685 -0.937596 -0.787174
v 6.372131 -1.068916 0.787174
v 7.055240 -0.302923 0.787174
v 6.713685 -0.937596 0.787174
v 6.963720 -0.657223 0.787174
v 4.236133 -3.743089 0.787174
v 4.420395 -3.558826 0.787174
v 4.366426 -3.689120 0.787174
v 4.420395 -3.558826 -0.787174
v 4.236133 -3.743089 -0.787174
v 4.366426 -3.689120 -0.787174
v 4.420395 8.081717 -0.787174
v 4.420395 8.081717 0.787174
v 6.040825 8.081717 0.787174
v 6.040825 8.081717 -0.787174
v 4.652113 7.942139 -0.552934
v 4.652113 7.942139 0.552934
v 5.809107 7.942139 0.552934
v 5.809107 7.942139 -0.552934
v 4.561257 7.942139 -0.643790
v 4.561257 7.942139 0.643790
v 5.899963 7.942139 0.643790
v 5.899963 7.942139 -0.643790
v 4.652113 7.942139 0.000000
v 5.230610 7.942139 0.552934
v 5.230610 7.942139 -0.552934
v 5.809107 7.942139 0.000000
v 4.652113 7.942139 0.276467
v 4.941361 7.942139 0.552934
v 5.519858 7.942139 -0.552934
v 5.809107 7.942139 -0.276467
v 4.652113 7.942139 -0.276467
v 5.519858 7.942139 0.552934
v 4.941361 7.942139 -0.552934
v 5.809107 7.942139 0.276467
v 5.572100 7.942139 -0.000000
v 4.889119 7.942139 0.000000
v 5.230609 7.942139 -0.341490
v 5.230609 7.942139 0.341490
v 4.989139 7.942139 0.241470
v 4.989139 7.942139 -0.241470
v 5.472080 7.942139 -0.241470
v 5.472080 7.942139 0.241470
v 4.889119 8.270470 0.000000
v 5.230610 8.270470 0.000000
v 5.230609 8.270470 0.341490
v 5.572100 8.270470 -0.000000
v 5.230609 8.270470 -0.341490
v 4.989139 8.270470 0.241470
v 4.989139 8.270470 -0.241470
v 5.472080 8.270470 -0.241470
v 5.472080 8.270470 0.241470
v 0.000000 -4.031903 -4.031903
v 0.000000 8.064001 -3.591000
v 0.786585 -4.031903 -3.954431
v 0.693000 8.064001 -3.528000
v 1.542943 -4.031903 -3.724993
v 1.386000 8.064001 -3.339000
v 2.240005 -4.031903 -3.352405
v 2.016000 8.064001 -2.961000
v 2.850986 -4.031903 -2.850986
v 2.520000 8.064001 -2.520000
v 3.352405 -4.031903 -2.240005
v 2.961000 8.064001 -2.016000
v 3.724993 -4.031903 -1.542943
v 3.339000 8.064001 -1.386000
v 3.954431 -4.031903 -0.786585
v 3.528000 8.064001 -0.693000
v 4.031903 -4.031903 0.000000
v 3.591000 8.064001 0.000000
v 3.954431 -4.031903 0.786585
v 3.528000 8.064001 0.693000
v 3.724993 -4.031903 1.542943
v 3.339000 8.064001 1.386000
v 3.352405 -4.031903 2.240005
v 2.961000 8.064001 2.016000
v 2.850986 -4.031903 2.850986
v 2.520000 8.064001 2.520000
v 2.240005 -4.031903 3.352405
v 2.016000 8.064001 2.961000
v 1.542943 -4.031903 3.724993
v 1.386000 8.064001 3.339000
v 0.786585 -4.031903 3.954431
v 0.693000 8.064001 3.528000
v 0.000000 -4.031903 4.031903
v 0.000000 8.064001 3.591000
v -0.786585 -4.031903 3.954431
v -0.693000 8.064001 3.528000
v -1.542943 -4.031903 3.724993
v -1.386000 8.064001 3.339000
v -2.240005 -4.031903 3.352405
v -2.016000 8.064001 2.961000
v -2.850986 -4.031903 2.850986
v -2.520000 8.064001 2.520000
v -3.352405 -4.031903 2.240005
v -2.961000 8.064001 2.016000
v -3.724993 -4.031903 1.542943
v -3.339000 8.064001 1.386000
v -3.954432 -4.031903 0.786585
v -3.528000 8.064001 0.693000
v -4.031903 -4.031903 0.000000
v -4.538274 8.063904 -0.000000
v -3.954432 -4.031903 -0.786585
v -3.528000 8.064001 -0.693000
v -3.724993 -4.031903 -1.542943
v -3.339000 8.064001 -1.386000
v -3.352405 -4.031903 -2.240005
v -2.961000 8.064001 -2.016000
v -2.850986 -4.031903 -2.850986
v -2.520000 8.064001 -2.520000
v -2.240005 -4.031903 -3.352405
v -2.016000 8.064001 -2.961000
v -1.542943 -4.031903 -3.724993
v -1.386000 8.064001 -3.339000
v -0.786585 -4.031903 -3.954431
v -0.693000 8.064001 -3.528000
v -3.685198 5.889721 -0.000000
v 0.567000 8.316001 -2.772000
v 0.693000 8.253000 -3.528000
v 0.000000 8.253000 -3.591000
v 0.000000 8.316001 -2.835000
v 1.071000 8.316001 -2.646000
v 1.386000 8.253000 -3.339000
v 1.575000 8.316001 -2.331000
v 2.016000 8.253000 -2.961000
v 2.016000 8.316001 -2.016000
v 2.520000 8.253000 -2.520000
v 2.331000 8.316001 -1.575000
v 2.961000 8.253000 -2.016000
v 2.646000 8.316001 -1.071000
v 3.339000 8.253000 -1.386000
v 2.772000 8.316001 -0.567000
v 3.528000 8.253000 -0.693000
v 2.835000 8.316001 0.000000
v 3.591000 8.253000 0.000000
v 2.772000 8.316001 0.567000
v 3.528000 8.253000 0.693000
v 2.646000 8.316001 1.071000
v 3.339000 8.253000 1.386000
v 2.331000 8.316001 1.575000
v 2.961000 8.253000 2.016000
v 2.016000 8.316001 2.016000
v 2.520000 8.253000 2.520000
v 1.575000 8.316001 2.331000
v 2.016000 8.253000 2.961000
v 1.071000 8.316001 2.646000
v 1.386000 8.253000 3.339000
v 0.567000 8.316001 2.772000
v 0.693000 8.253000 3.528000
v 0.000000 8.316001 2.835000
v 0.000000 8.253000 3.591000
v -0.567000 8.316001 2.772000
v -0.693000 8.253000 3.528000
v -1.071000 8.316001 2.646000
v -1.386000 8.253000 3.339000
v -1.575000 8.316001 2.331000
v -2.016000 8.253000 2.961000
v -2.016000 8.316001 2.016000
v -2.520000 8.253000 2.520000
v -2.331000 8.316001 1.575000
v -2.961000 8.253000 2.016000
v -2.646000 8.316001 1.071000
v -3.339000 8.253000 1.386000
v -2.772000 8.316001 0.567000
v -3.528000 8.253000 0.693000
v -2.772000 8.316001 -0.567000
v -3.528000 8.253000 -0.693000
v -2.646000 8.316001 -1.071000
v -3.339000 8.253000 -1.386000
v -2.331000 8.316001 -1.575000
v -2.961000 8.253000 -2.016000
v -2.016000 8.316001 -2.016000
v -2.520000 8.253000 -2.520000
v -1.575000 8.316001 -2.331000
v -2.016000 8.253000 -2.961000
v -1.071000 8.316001 -2.646000
v -1.386000 8.253000 -3.339000
v -0.567000 8.316001 -2.772000
v -0.693000 8.253000 -3.528000
v 0.000000 8.316001 -3.528000
v 0.693000 8.316001 -3.465000
v 1.323000 8.316001 -3.213000
v 1.953000 8.316001 -2.898000
v 2.457000 8.316001 -2.457000
v 2.898000 8.316001 -1.953000
v 3.213000 8.316001 -1.323000
v 3.465000 8.316001 -0.693000
v 3.528000 8.316001 0.000000
v 3.465000 8.316001 0.693000
v 3.213000 8.316001 1.323000
v 2.898000 8.316001 1.953000
v 2.457000 8.316001 2.457000
v 1.953000 8.316001 2.898000
v 1.323000 8.316001 3.213000
v 0.693000 8.316001 3.465000
v 0.000000 8.316001 3.528000
v -0.693000 8.316001 3.465000
v -1.323000 8.316001 3.213000
v -1.953000 8.316001 2.898000
v -2.457000 8.316001 2.457000
v -2.898000 8.316001 1.953000
v -3.213000 8.316001 1.323000
v -3.465001 8.316001 0.693000
v -3.465001 8.316001 -0.693000
v -3.213000 8.316001 -1.323000
v -2.898000 8.316001 -1.953000
v -2.457000 8.316001 -2.457000
v -1.953000 8.316001 -2.898000
v -1.323000 8.316001 -3.213000
v -0.693000 8.316001 -3.465000
v 0.000000 8.190001 -2.709000
v 0.504000 8.190001 -2.646000
v 1.008000 8.190001 -2.520000
v 1.512000 8.190001 -2.268000
v 1.890000 8.190001 -1.890000
v 2.268000 8.190001 -1.512000
v 2.520000 8.190001 -1.008000
v 2.646000 8.190001 -0.504000
v 2.709000 8.190001 0.000000
v 2.646000 8.190001 0.504000
v 2.520000 8.190001 1.008000
v 2.268000 8.190001 1.512000
v 1.890000 8.190001 1.890000
v 1.512000 8.190001 2.268000
v 1.008000 8.190001 2.520000
v 0.504000 8.190001 2.646000
v 0.000000 8.190001 2.709000
v -0.504000 8.190001 2.646000
v -1.008000 8.190001 2.520000
v -1.512000 8.190001 2.268000
v -1.890000 8.190001 1.890000
v -2.268000 8.190001 1.512000
v -2.520000 8.190001 1.008000
v -2.646000 8.190001 0.567000
v -2.646000 8.190001 -0.567000
v -2.520000 8.190001 -1.008000
v -2.268000 8.190001 -1.512000
v -1.890000 8.190001 -1.890000
v -1.512000 8.190001 -2.268000
v -1.008000 8.190001 -2.520000
v -0.504000 8.190001 -2.646000
v 0.000000 8.190001 -2.835000
v 0.567000 8.190001 -2.772000
v 1.071000 8.190001 -2.646000
v 1.575000 8.190001 -2.331000
v 2.016000 8.190001 -2.016000
v 2.331000 8.190001 -1.575000
v 2.646000 8.190001 -1.071000
v 2.772000 8.190001 -0.567000
v 2.835000 8.190001 0.000000
v 2.772000 8.190001 0.567000
v 2.646000 8.190001 1.071000
v 2.331000 8.190001 1.575000
v 2.016000 8.190001 2.016000
v 1.575000 8.190001 2.331000
v 1.071000 8.190001 2.646000
v 0.567000 8.190001 2.772000
v 0.000000 8.190001 2.835000
v -0.567000 8.190001 2.772000
v -1.071000 8.190001 2.646000
v -1.575000 8.190001 2.331000
v -2.016000 8.190001 2.016000
v -2.331000 8.190001 1.575000
v -2.646000 8.190001 1.071000
v -2.772000 8.190001 0.567000
v -2.772000 8.190001 -0.567000
v -2.646000 8.190001 -1.071000
v -2.331000 8.190001 -1.575000
v -2.016000 8.190001 -2.016000
v -1.575000 8.190001 -2.331000
v -1.071000 8.190001 -2.646000
v -0.567000 8.190001 -2.772000
v 0.000000 8.505001 -2.709000
v 0.504000 8.505001 -2.646000
v 1.008000 8.505001 -2.520000
v 1.512000 8.505001 -2.268000
v 1.890000 8.505001 -1.890000
v 2.268000 8.505001 -1.512000
v 2.520000 8.505001 -1.008000
v 2.646000 8.505001 -0.504000
v 2.709000 8.505001 0.000000
v 2.646000 8.505001 0.504000
v 2.520000 8.505001 1.008000
v 2.268000 8.505001 1.512000
v 1.890000 8.505001 1.890000
v 1.512000 8.505001 2.268000
v 1.008000 8.505001 2.520000
v 0.504000 8.505001 2.646000
v 0.000000 8.505001 2.709000
v -0.504000 8.505001 2.646000
v -1.008000 8.505001 2.520000
v -1.512000 8.505001 2.268000
v -1.890000 8.505001 1.890000
v -2.268000 8.505001 1.512000
v -2.520000 8.505001 1.008000
v -2.646000 8.505001 0.567000
v -2.646000 8.505001 -0.567000
v -2.520000 8.505001 -1.008000
v -2.268000 8.505001 -1.512000
v -1.890000 8.505001 -1.890000
v -1.512000 8.505001 -2.268000
v -1.008000 8.505001 -2.520000
v -0.504000 8.505001 -2.646000
v 0.000000 -1.899635 -4.032040
v 0.000000 -2.119862 -4.036639
v 0.787509 -2.119862 -3.959076
v 0.786529 -1.899632 -3.954631
v 1.544755 -2.119862 -3.729368
v 1.543124 -1.899622 -3.725352
v 2.242636 -2.119862 -3.356342
v 2.240310 -1.899639 -3.352247
v 2.854335 -2.119862 -2.854335
v 2.850873 -1.899650 -2.850873
v 3.356342 -2.119862 -2.242636
v 3.352247 -1.899639 -2.240310
v 3.729368 -2.119862 -1.544755
v 3.725351 -1.899622 -1.543124
v 3.959076 -2.119862 -0.787509
v 3.954631 -1.899632 -0.786529
v 4.036639 -2.119862 0.000000
v 4.032040 -1.899635 0.000000
v 3.959076 -2.119862 0.787509
v 3.954631 -1.899632 0.786529
v 3.729368 -2.119862 1.544755
v 3.725351 -1.899622 1.543124
v 3.356342 -2.119862 2.242636
v 3.352247 -1.899639 2.240310
v 2.854335 -2.119862 2.854335
v 2.850873 -1.899650 2.850873
v 2.242636 -2.119862 3.356342
v 2.240310 -1.899639 3.352247
v 1.544755 -2.119862 3.729368
v 1.543124 -1.899622 3.725352
v 0.787509 -2.119862 3.959076
v 0.786529 -1.899632 3.954631
v 0.000000 -2.119862 4.036639
v 0.000000 -1.899635 4.032040
v -0.787509 -2.119862 3.959076
v -0.786529 -1.899632 3.954631
v -1.544755 -2.119862 3.729368
v -1.543124 -1.899622 3.725352
v -2.242637 -2.119862 3.356342
v -2.240311 -1.899639 3.352247
v -2.854335 -2.119862 2.854335
v -2.850873 -1.899650 2.850873
v -3.356342 -2.119862 2.242636
v -3.352248 -1.899639 2.240310
v -3.729368 -2.119862 1.544755
v -3.725352 -1.899622 1.543124
v -3.959076 -2.119862 0.787509
v -3.954631 -1.899632 0.786529
v -4.036639 -2.119862 0.000000
v -4.032012 -1.899636 0.000000
v -3.959076 -2.119862 -0.787509
v -3.954631 -1.899632 -0.786529
v -3.729368 -2.119862 -1.544755
v -3.725352 -1.899622 -1.543124
v -3.356342 -2.119862 -2.242636
v -3.352248 -1.899639 -2.240310
v -2.854335 -2.119862 -2.854335
v -2.850873 -1.899650 -2.850873
v -2.242637 -2.119862 -3.356342
v -2.240311 -1.899639 -3.352247
v -1.544755 -2.119862 -3.729368
v -1.543124 -1.899622 -3.725352
v -0.787509 -2.119862 -3.959076
v -0.786529 -1.899632 -3.954631
v 0.000000 5.216518 -3.717044
v 0.000000 5.072894 -3.723402
v 0.721078 5.072892 -3.656076
v 0.719730 5.216520 -3.649926
v 1.433169 5.072886 -3.454984
v 1.430904 5.216527 -3.449414
v 2.083338 5.072897 -3.078453
v 2.080105 5.216515 -3.072814
v 2.619328 5.072905 -2.619328
v 2.614560 5.216507 -2.614560
v 3.078453 5.072897 -2.083338
v 3.072814 5.216515 -2.080105
v 3.454984 5.072886 -1.433169
v 3.449414 5.216527 -1.430904
v 3.656076 5.072892 -0.721078
v 3.649926 5.216520 -0.719730
v 3.723402 5.072894 0.000000
v 3.717044 5.216518 0.000000
v 3.656076 5.072892 0.721078
v 3.649926 5.216520 0.719730
v 3.454984 5.072886 1.433169
v 3.449414 5.216527 1.430904
v 3.078453 5.072897 2.083338
v 3.072814 5.216515 2.080105
v 2.619328 5.072905 2.619328
v 2.614560 5.216507 2.614560
v 2.083338 5.072897 3.078453
v 2.080105 5.216515 3.072814
v 1.433169 5.072886 3.454984
v 1.430904 5.216527 3.449414
v 0.721078 5.072892 3.656076
v 0.719730 5.216520 3.649926
v 0.000000 5.072894 3.723402
v 0.000000 5.216518 3.717044
v -0.721078 5.072892 3.656076
v -0.719730 5.216520 3.649926
v -1.433169 5.072886 3.454984
v -1.430904 5.216527 3.449414
v -2.083339 5.072897 3.078453
v -2.080105 5.216515 3.072814
v -2.619328 5.072905 2.619328
v -2.614560 5.216507 2.614560
v -3.078454 5.072897 2.083338
v -3.072814 5.216515 2.080105
v -3.454984 5.072886 1.433169
v -3.449414 5.216527 1.430904
v -3.649926 5.216520 0.719730
v -3.656076 5.072892 0.721078
v -3.656076 5.072892 -0.721078
v -3.649926 5.216520 -0.719730
v -3.454984 5.072886 -1.433169
v -3.449414 5.216527 -1.430904
v -3.078454 5.072897 -2.083338
v -3.072814 5.216515 -2.080105
v -2.619328 5.072905 -2.619328
v -2.614560 5.216507 -2.614560
v -2.083339 5.072897 -3.078453
v -2.080105 5.216515 -3.072814
v -1.433169 5.072886 -3.454984
v -1.430904 5.216527 -3.449414
v -0.721078 5.072892 -3.656076
v -0.719730 5.216520 -3.649926
v -3.721566 5.072895 -0.000000
v -3.715172 5.216517 -0.000000
v -0.811135 -2.123165 -4.077849
v -0.810125 -1.896328 -4.073270
v 0.000000 -1.896331 -4.153002
v 0.000000 -2.123165 -4.157739
v -1.591098 -2.123165 -3.841249
v -1.589417 -1.896319 -3.837112
v -2.309916 -2.123165 -3.457033
v -2.307520 -1.896336 -3.452815
v -2.939965 -2.123165 -2.939965
v -2.936400 -1.896347 -2.936400
v -3.457033 -2.123165 -2.309916
v -3.452816 -1.896336 -2.307520
v -3.841249 -2.123165 -1.591098
v -3.837112 -1.896319 -1.589417
v -4.077849 -2.123165 -0.811135
v -4.073270 -1.896328 -0.810125
v -4.157739 -2.123165 0.000000
v -4.152972 -1.896333 0.000000
v -4.077849 -2.123165 0.811135
v -4.073270 -1.896328 0.810125
v -3.841249 -2.123165 1.591098
v -3.837112 -1.896319 1.589417
v -3.457033 -2.123165 2.309916
v -3.452816 -1.896336 2.307520
v -2.939965 -2.123165 2.939965
v -2.936400 -1.896347 2.936400
v -2.309916 -2.123165 3.457033
v -2.307520 -1.896336 3.452815
v -1.591098 -2.123165 3.841249
v -1.589417 -1.896319 3.837112
v -0.811135 -2.123165 4.077849
v -0.810125 -1.896328 4.073270
v 0.000000 -2.123165 4.157739
v 0.000000 -1.896331 4.153002
v 0.811135 -2.123165 4.077849
v 0.810125 -1.896328 4.073270
v 1.591098 -2.123165 3.841249
v 1.589417 -1.896319 3.837112
v 2.309916 -2.123165 3.457033
v 2.307520 -1.896336 3.452815
v 2.939965 -2.123165 2.939965
v 2.936400 -1.896347 2.936400
v 3.457033 -2.123165 2.309916
v 3.452815 -1.896336 2.307520
v 3.841249 -2.123165 1.591098
v 3.837112 -1.896319 1.589417
v 4.077849 -2.123165 0.811135
v 4.073270 -1.896328 0.810125
v 4.157739 -2.123165 0.000000
v 4.153002 -1.896331 0.000000
v 4.077849 -2.123165 -0.811135
v 4.073270 -1.896328 -0.810125
v 3.841249 -2.123165 -1.591098
v 3.837112 -1.896319 -1.589417
v 3.457033 -2.123165 -2.309916
v 3.452815 -1.896336 -2.307520
v 2.939965 -2.123165 -2.939965
v 2.936400 -1.896347 -2.936400
v 2.309916 -2.123165 -3.457033
v 2.307520 -1.896336 -3.452815
v 1.591098 -2.123165 -3.841249
v 1.589417 -1.896319 -3.837112
v 0.811135 -2.123165 -4.077849
v 0.810125 -1.896328 -4.073270
v -0.706655 5.074328 -3.582955
v -0.705334 5.215084 -3.576928
v 0.000001 5.215082 -3.642704
v 0.000001 5.074330 -3.648934
v -1.404505 5.074322 -3.385885
v -1.402285 5.215090 -3.380426
v -2.041671 5.074334 -3.016885
v -2.038502 5.215078 -3.011358
v -2.566941 5.074341 -2.566942
v -2.562268 5.215071 -2.562269
v -3.016883 5.074334 -2.041672
v -3.011357 5.215078 -2.038503
v -3.385884 5.074322 -1.404506
v -3.380425 5.215090 -1.402286
v -3.582954 5.074328 -0.706656
v -3.576927 5.215084 -0.705335
v -3.385884 5.074322 1.404506
v -3.380425 5.215090 1.402286
v -3.576927 5.215084 0.705335
v -3.582954 5.074328 0.706656
v -3.016883 5.074334 2.041672
v -3.011357 5.215078 2.038503
v -2.566941 5.074341 2.566942
v -2.562268 5.215071 2.562269
v -2.041671 5.074334 3.016885
v -2.038502 5.215078 3.011358
v -1.404505 5.074322 3.385885
v -1.402285 5.215090 3.380426
v -0.706655 5.074328 3.582955
v -0.705334 5.215084 3.576928
v 0.000001 5.074330 3.648934
v 0.000001 5.215082 3.642704
v 0.706657 5.074328 3.582955
v 0.705336 5.215084 3.576928
v 1.404507 5.074322 3.385885
v 1.402287 5.215090 3.380426
v 2.041673 5.074334 3.016885
v 2.038505 5.215078 3.011358
v 2.566943 5.074341 2.566942
v 2.562270 5.215071 2.562269
v 3.016886 5.074334 2.041672
v 3.011359 5.215078 2.038503
v 3.385886 5.074322 1.404506
v 3.380427 5.215090 1.402286
v 3.582956 5.074328 0.706656
v 3.576929 5.215084 0.705335
v 3.648935 5.074330 0.000000
v 3.642704 5.215082 0.000000
v 3.582956 5.074328 -0.706656
v 3.576929 5.215084 -0.705335
v 3.385886 5.074322 -1.404506
v 3.380427 5.215090 -1.402286
v 3.016886 5.074334 -2.041672
v 3.011359 5.215078 -2.038503
v 2.566943 5.074341 -2.566942
v 2.562270 5.215071 -2.562269
v 2.041673 5.074334 -3.016885
v 2.038505 5.215078 -3.011358
v 1.404507 5.074322 -3.385885
v 1.402287 5.215090 -3.380426
v 0.706657 5.074328 -3.582955
v 0.705336 5.215084 -3.576928
v -3.647134 5.074331 -0.000000
v -3.640868 5.215081 -0.000000
v 0.000000 2.108322 -3.854628
v 0.748906 2.108322 -3.783015
v -0.748906 2.108322 -3.783015
v 1.479919 2.108322 -3.569939
v 2.150079 2.108322 -3.194865
v 2.717776 2.108322 -2.717776
v 3.194865 2.108322 -2.150079
v 3.569939 2.108322 -1.479919
v 3.783015 2.108322 -0.748906
v 3.854628 2.108322 0.000000
v 3.783015 2.108322 0.748906
v 3.569939 2.108322 1.479919
v 3.194865 2.108322 2.150079
v 2.717776 2.108322 2.717776
v 2.150079 2.108322 3.194865
v 1.479919 2.108322 3.569939
v 0.748906 2.108322 3.783015
v 0.000000 2.108322 3.854628
v -0.748906 2.108322 3.783015
v -1.479919 2.108322 3.569939
v -2.150080 2.108322 3.194865
v -2.717776 2.108322 2.717776
v -3.194865 2.108322 2.150079
v -3.569939 2.108322 1.479919
v -3.783015 2.108322 0.748906
v -3.853561 2.108322 -0.000000
v -3.783015 2.108322 -0.748906
v -3.569939 2.108322 -1.479919
v -3.194865 2.108322 -2.150079
v -2.717776 2.108322 -2.717776
v -2.150080 2.108322 -3.194865
v -1.479919 2.108322 -3.569939
vn -0.9990 -0.0453 -0.0000
vn -0.0000 -0.0000 -1.0000
vn -0.0000 -0.0000 1.0000
vn -0.0000 1.0000 -0.0000
vn -0.9997 -0.0258 -0.0000
vn 1.0000 -0.0000 -0.0000
vn -0.0000 -1.0000 -0.0000
vn 0.1140 -0.9935 -0.0000
vn 0.2588 0.9659 -0.0000
vn 0.7071 0.7071 -0.0000
vn 0.9659 0.2588 -0.0000
vn -0.9687 0.2482 -0.0000
vn -0.7470 0.6648 -0.0000
vn -0.3590 0.9333 -0.0000
vn -0.1140 0.9935 -0.0000
vn -0.9232 -0.3844 -0.0000
vn -0.3824 -0.9240 -0.0000
vn -1.0000 -0.0021 -0.0000
vn 0.9682 -0.2501 -0.0000
vn 0.7463 -0.6656 -0.0000
vn 0.3589 -0.9334 -0.0000
vn 0.3827 -0.9239 -0.0000
vn 0.9239 -0.3827 -0.0000
vn -1.0000 -0.0000 -0.0000
vn -0.3827 -0.0000 -0.9239
vn 0.9239 -0.0000 0.3827
vn -0.9239 -0.0000 -0.3827
vn 0.3827 -0.0000 -0.9239
vn 0.3827 -0.0000 0.9239
vn -0.9239 -0.0000 0.3827
vn 0.9239 -0.0000 -0.3827
vn -0.3827 -0.0000 0.9239
vn -0.5522 -0.2167 -0.8051
vn -0.5522 -0.2167 0.8051
vn -0.9974 0.0721 -0.0000
vn 0.0642 0.7056 -0.7057
vn 0.1690 0.8452 -0.5071
vn 0.2344 0.8737 -0.4262
vn 0.3808 0.8159 -0.4351
vn 0.4351 0.8159 -0.3808
vn 0.4262 0.8737 -0.2344
vn 0.5071 0.8452 -0.1690
vn 0.7057 0.7056 -0.0642
vn 0.7057 0.7056 0.0642
vn 0.5071 0.8452 0.1690
vn 0.4262 0.8737 0.2344
vn 0.4351 0.8159 0.3808
vn 0.3808 0.8159 0.4351
vn 0.2344 0.8737 0.4262
vn 0.1690 0.8452 0.5071
vn 0.0642 0.7056 0.7057
vn -0.0642 0.7056 0.7057
vn -0.1690 0.8452 0.5071
vn -0.2344 0.8737 0.4262
vn -0.3808 0.8159 0.4351
vn -0.4351 0.8159 0.3808
vn -0.4262 0.8737 0.2344
vn -0.5071 0.8452 0.1690
vn -0.5071 0.8452 -0.1690
vn -0.4262 0.8737 -0.2344
vn -0.4351 0.8159 -0.3808
vn -0.3808 0.8159 -0.4351
vn -0.2344 0.8737 -0.4262
vn -0.1690 0.8452 -0.5071
vn -0.0642 0.7056 -0.7057
vn -0.7071 0.7071 -0.0000
vn 0.0905 -0.0000 -0.9959
vn 0.8137 -0.0000 0.5812
vn 0.2631 -0.0000 -0.9648
vn -0.0905 -0.0000 -0.9959
vn 0.5145 -0.0000 -0.8575
vn 0.6585 -0.0000 -0.7526
vn 0.7526 -0.0000 -0.6585
vn 0.8575 -0.0000 -0.5145
vn 0.9648 -0.0000 -0.2631
vn 0.9959 -0.0000 -0.0905
vn 0.9959 -0.0000 0.0905
vn 0.9648 -0.0000 0.2631
vn 0.8575 -0.0000 0.5145
vn 0.7526 -0.0000 0.6585
vn 0.6585 -0.0000 0.7526
vn 0.5145 -0.0000 0.8575
vn 0.2631 -0.0000 0.9648
vn 0.0905 -0.0000 0.9959
vn -0.0905 -0.0000 0.9959
vn -0.2631 -0.0000 0.9648
vn -0.5145 -0.0000 0.8575
vn -0.6585 -0.0000 0.7526
vn -0.7526 -0.0000 0.6585
vn -0.8575 -0.0000 0.5145
vn -0.9648 -0.0000 0.2631
vn -0.9648 -0.0000 -0.2631
vn -0.8575 -0.0000 -0.5145
vn -0.7526 -0.0000 -0.6585
vn -0.6585 -0.0000 -0.7526
vn -0.5145 -0.0000 -0.8575
vn -0.2631 -0.0000 -0.9648
vn -0.4472 -0.0000 0.8944
vn -0.5812 -0.0000 -0.8137
vn 0.5812 -0.0000 0.8137
vn -0.5300 -0.0000 -0.8480
vn -0.1104 -0.0000 0.9939
vn 0.5300 -0.0000 0.8480
vn -0.2425 -0.0000 -0.9701
vn -0.2425 -0.0000 0.9701
vn 0.2425 -0.0000 0.9701
vn -0.1104 -0.0000 -0.9939
vn -0.5300 -0.0000 0.8480
vn 0.1104 -0.0000 0.9939
vn 0.1104 -0.0000 -0.9939
vn -0.5812 -0.0000 0.8137
vn 0.2425 -0.0000 -0.9701
vn -0.8137 -0.0000 0.5812
vn 0.5300 -0.0000 -0.8480
vn -0.8480 -0.0000 0.5300
vn 0.5812 -0.0000 -0.8137
vn -0.9701 -0.0000 0.2425
vn 0.8137 -0.0000 -0.5812
vn -0.9939 -0.0000 0.1104
vn 0.8480 -0.0000 -0.5300
vn -0.9939 -0.0000 -0.1104
vn 0.9701 -0.0000 -0.2425
vn -0.9701 -0.0000 -0.2425
vn 0.9701 -0.0000 0.2425
vn -0.8480 -0.0000 -0.5300
vn 0.8480 -0.0000 0.5300
vn -0.8137 -0.0000 -0.5812
vn 0.8944 -0.0000 -0.4472
vn -0.7071 -0.0000 0.7071
vn 0.9923 -0.0000 -0.1240
vn -0.8944 -0.0000 0.4472
vn 0.9923 -0.0000 0.1240
vn -0.9615 -0.0000 0.2747
vn -0.9615 -0.0000 -0.2747
vn 0.8944 -0.0000 0.4472
vn -0.8944 -0.0000 -0.4472
vn 0.7071 -0.0000 0.7071
vn -0.7071 -0.0000 -0.7071
vn 0.4472 -0.0000 0.8944
vn 0.1240 -0.0000 -0.9923
vn -0.4472 -0.0000 -0.8944
vn 0.1240 -0.0000 0.9923
vn 0.4472 -0.0000 -0.8944
vn -0.1240 -0.0000 -0.9923
vn -0.1240 -0.0000 0.9923
vn 0.7071 -0.0000 -0.7071
vn 0.0174 -0.9996 0.0212
vn 0.0174 0.9996 -0.0212
vn -0.0129 -0.9996 0.0242
vn 0.0174 0.9996 0.0212
vn -0.0212 -0.9996 -0.0174
vn -0.0129 0.9996 0.0242
vn 0.0212 -0.9996 -0.0174
vn -0.0212 0.9996 -0.0174
vn 0.0129 -0.9996 0.0242
vn 0.0212 0.9996 -0.0174
vn -0.0174 -0.9996 0.0212
vn 0.0129 0.9996 0.0242
vn -0.0174 -0.9996 -0.0212
vn -0.0174 0.9996 0.0212
vn 0.0242 -0.9996 -0.0129
vn -0.0174 0.9996 -0.0212
vn 0.0080 -0.9996 0.0262
vn 0.0242 0.9996 -0.0129
vn -0.0212 -0.9996 0.0174
vn 0.0080 0.9996 0.0262
vn -0.0129 -0.9996 -0.0242
vn -0.0212 0.9996 0.0174
vn 0.0262 -0.9996 -0.0080
vn -0.0129 0.9996 -0.0242
vn 0.0027 -0.9996 0.0273
vn 0.0263 0.9996 -0.0080
vn -0.0242 -0.9996 0.0129
vn -0.0080 -0.9996 -0.0262
vn -0.0242 0.9996 0.0129
vn 0.0027 0.9996 0.0273
vn 0.0273 -0.9996 -0.0027
vn -0.0080 0.9996 -0.0262
vn 0.0980 -0.0025 -0.9952
vn -0.0980 -0.0025 -0.9952
vn 0.2903 -0.0025 -0.9569
vn 0.4714 -0.0025 -0.8819
vn 0.6344 -0.0025 -0.7730
vn 0.7730 -0.0025 -0.6344
vn 0.8819 -0.0025 -0.4714
vn 0.9569 -0.0025 -0.2903
vn 0.9952 -0.0025 -0.0980
vn 0.9952 -0.0025 0.0980
vn 0.9569 -0.0025 0.2903
vn 0.8819 -0.0025 0.4714
vn 0.7730 -0.0025 0.6344
vn 0.6344 -0.0025 0.7730
vn 0.4714 -0.0025 0.8819
vn 0.2903 -0.0025 0.9569
vn 0.0980 -0.0025 0.9952
vn -0.0980 -0.0025 0.9952
vn -0.2903 -0.0025 0.9569
vn -0.4714 -0.0025 0.8819
vn -0.6344 -0.0025 0.7730
vn -0.7730 -0.0025 0.6344
vn -0.8819 -0.0025 0.4714
vn -0.9569 -0.0025 0.2903
vn -0.9952 -0.0025 0.0980
vn -0.9952 -0.0025 -0.0980
vn -0.9569 -0.0025 -0.2903
vn -0.8819 -0.0025 -0.4714
vn -0.7730 -0.0025 -0.6344
vn -0.6344 -0.0025 -0.7730
vn -0.4714 -0.0025 -0.8819
vn -0.2903 -0.0025 -0.9569
vn 0.0193 0.9998 0.0018
vn -0.0193 -0.9998 -0.0018
vn -0.0148 -0.9998 -0.0127
vn -0.0053 0.9998 0.0186
vn 0.0193 -0.9998 0.0018
vn -0.0053 -0.9998 0.0186
vn -0.0193 0.9998 -0.0018
vn -0.0126 0.9998 -0.0148
vn 0.0186 0.9998 0.0053
vn 0.0018 0.9998 -0.0193
vn -0.0127 -0.9998 -0.0148
vn -0.0097 0.9998 0.0168
vn 0.0186 -0.9998 0.0053
vn 0.0018 -0.9998 -0.0193
vn -0.0097 -0.9998 0.0168
vn 0.0053 0.9998 -0.0186
vn -0.0097 0.9998 -0.0168
vn 0.0168 0.9998 0.0097
vn 0.0053 -0.9998 -0.0186
vn -0.0097 -0.9998 -0.0168
vn -0.0126 0.9998 0.0148
vn 0.0168 -0.9998 0.0097
vn -0.0127 -0.9998 0.0148
vn 0.0097 0.9998 -0.0168
vn -0.0053 0.9998 -0.0186
vn 0.0148 0.9998 0.0126
vn 0.0097 -0.9998 -0.0168
vn -0.0053 -0.9998 -0.0186
vn -0.0148 0.9998 0.0126
vn 0.0148 -0.9998 0.0127
vn -0.0148 -0.9998 0.0127
vn 0.0126 0.9998 -0.0148
vn -0.0916 0.0437 -0.9948
vn 0.0940 0.0437 -0.9946
vn -0.0940 0.0437 -0.9946
vn 0.0916 0.0437 -0.9948
vn 0.2671 0.0426 -0.9627
vn 0.2756 0.0426 -0.9603
vn 0.5076 0.0433 -0.8605
vn 0.4942 0.0433 -0.8682
vn 0.6539 0.0456 -0.7552
vn 0.6462 0.0456 -0.7618
vn 0.7552 0.0456 -0.6539
vn 0.7618 0.0456 -0.6462
vn 0.8605 0.0433 -0.5076
vn 0.8682 0.0433 -0.4942
vn 0.9627 0.0426 -0.2671
vn 0.9603 0.0426 -0.2756
vn 0.9948 0.0437 -0.0916
vn 0.9946 0.0437 -0.0940
vn 0.9948 0.0437 0.0916
vn 0.9946 0.0437 0.0940
vn 0.9627 0.0426 0.2671
vn 0.9603 0.0426 0.2756
vn 0.8605 0.0433 0.5076
vn 0.8682 0.0433 0.4942
vn 0.7552 0.0456 0.6539
vn 0.7618 0.0456 0.6462
vn 0.6539 0.0456 0.7552
vn 0.6462 0.0456 0.7618
vn 0.5076 0.0433 0.8605
vn 0.4942 0.0433 0.8682
vn 0.2671 0.0426 0.9627
vn 0.2756 0.0426 0.9603
vn 0.0916 0.0437 0.9948
vn 0.0940 0.0437 0.9946
vn -0.0916 0.0437 0.9948
vn -0.0940 0.0437 0.9946
vn -0.2671 0.0426 0.9627
vn -0.2756 0.0426 0.9603
vn -0.5076 0.0433 0.8605
vn -0.4942 0.0433 0.8682
vn -0.6539 0.0456 0.7552
vn -0.6462 0.0456 0.7618
vn -0.7552 0.0456 0.6539
vn -0.7618 0.0456 0.6462
vn -0.8605 0.0433 0.5076
vn -0.8682 0.0433 0.4942
vn -0.9627 0.0426 0.2671
vn -0.9603 0.0426 0.2756
vn -0.9950 0.0436 0.0896
vn -0.9944 0.0439 0.0958
vn -0.9950 0.0436 -0.0896
vn -0.9948 0.0439 -0.0921
vn -0.9627 0.0426 -0.2671
vn -0.9603 0.0426 -0.2756
vn -0.8605 0.0433 -0.5076
vn -0.8682 0.0433 -0.4942
vn -0.7552 0.0456 -0.6539
vn -0.7618 0.0456 -0.6462
vn -0.6539 0.0456 -0.7552
vn -0.6462 0.0456 -0.7618
vn -0.5076 0.0433 -0.8605
vn -0.4942 0.0433 -0.8682
vn -0.2671 0.0426 -0.9627
vn -0.2756 0.0426 -0.9603
vn -0.0980 0.0206 -0.9950
vn -0.2901 0.0201 -0.9568
vn -0.4715 0.0205 -0.8816
vn -0.6344 0.0216 -0.7727
vn -0.7727 0.0216 -0.6344
vn -0.8816 0.0205 -0.4715
vn -0.9568 0.0201 -0.2901
vn -0.9950 0.0207 -0.0979
vn -0.9950 0.0207 0.0979
vn -0.9568 0.0201 0.2901
vn -0.8816 0.0205 0.4715
vn -0.7727 0.0216 0.6344
vn -0.6344 0.0216 0.7727
vn -0.4715 0.0205 0.8816
vn -0.2901 0.0201 0.9568
vn -0.0980 0.0206 0.9950
vn 0.0980 0.0206 0.9950
vn 0.2901 0.0201 0.9568
vn 0.4715 0.0205 0.8816
vn 0.6344 0.0216 0.7727
vn 0.7727 0.0216 0.6344
vn 0.8816 0.0205 0.4715
vn 0.9568 0.0201 0.2901
vn 0.9950 0.0206 0.0980
vn 0.9950 0.0206 -0.0980
vn 0.9568 0.0201 -0.2901
vn 0.8816 0.0205 -0.4715
vn 0.7727 0.0216 -0.6344
vn 0.6344 0.0216 -0.7727
vn 0.4715 0.0205 -0.8816
vn 0.2901 0.0201 -0.9568
vn 0.0980 0.0206 -0.9950
vn -0.0242 0.9996 -0.0129
vn 0.0174 -0.9996 -0.0212
vn -0.0080 0.9996 0.0262
vn -0.0242 -0.9996 -0.0129
vn 0.0212 0.9996 0.0174
vn -0.0080 -0.9996 0.0262
vn 0.0129 0.9996 -0.0242
vn 0.0212 -0.9996 0.0174
vn -0.0027 0.9996 0.0273
vn -0.0263 0.9996 -0.0080
vn 0.0129 -0.9996 -0.0242
vn -0.0027 -0.9996 0.0273
vn -0.0262 -0.9996 -0.0080
vn 0.0242 0.9996 0.0129
vn 0.0080 0.9996 -0.0262
vn 0.0242 -0.9996 0.0129
vn -0.0273 0.9996 -0.0027
vn 0.0080 -0.9996 -0.0262
vn -0.0273 -0.9996 -0.0027
vn 0.0263 0.9996 0.0080
vn 0.0027 0.9996 -0.0273
vn 0.0262 -0.9996 0.0080
vn -0.0273 0.9996 0.0027
vn 0.0027 -0.9996 -0.0273
vn -0.0273 -0.9996 0.0027
vn 0.0273 0.9996 0.0027
vn -0.0027 0.9996 -0.0273
vn 0.0273 -0.9996 0.0027
vn -0.0263 0.9996 0.0080
vn -0.0027 -0.9996 -0.0273
vn -0.0262 -0.9996 0.0080
vn 0.0273 0.9996 -0.0027
vn -0.0928 0.0437 -0.9947
vn -0.2713 0.0426 -0.9615
vn -0.5010 0.0433 -0.8644
vn -0.6501 0.0456 -0.7585
vn -0.7585 0.0456 -0.6501
vn -0.8644 0.0433 -0.5010
vn -0.9615 0.0426 -0.2713
vn -0.9615 0.0426 0.2713
vn -0.8644 0.0433 0.5010
vn -0.7585 0.0456 0.6501
vn -0.6501 0.0456 0.7585
vn -0.5010 0.0433 0.8644
vn -0.2713 0.0426 0.9615
vn -0.0928 0.0437 0.9947
vn 0.0928 0.0437 0.9947
vn 0.2713 0.0426 0.9615
vn 0.5010 0.0433 0.8644
vn 0.6501 0.0456 0.7585
vn 0.7585 0.0456 0.6501
vn 0.8644 0.0433 0.5010
vn 0.9615 0.0426 0.2713
vn 0.9947 0.0437 0.0928
vn 0.9947 0.0437 -0.0928
vn 0.9615 0.0426 -0.2713
vn 0.8644 0.0433 -0.5010
vn 0.7585 0.0456 -0.6501
vn 0.6501 0.0456 -0.7585
vn 0.5010 0.0433 -0.8644
vn 0.2713 0.0426 -0.9615
vn 0.0928 0.0437 -0.9947
vn -0.9949 0.0439 -0.0903
vn -0.9949 0.0439 0.0903
vn -0.0148 0.9998 -0.0126
vn -0.0193 0.9998 0.0018
vn -0.0018 -0.9998 0.0193
vn -0.0193 -0.9998 0.0018
vn 0.0193 -0.9998 -0.0018
vn -0.0018 0.9998 0.0193
vn -0.0168 -0.9998 -0.0097
vn 0.0193 0.9998 -0.0018
vn -0.0168 0.9998 -0.0097
vn 0.0018 -0.9998 0.0193
vn 0.0186 -0.9998 -0.0053
vn 0.0018 0.9998 0.0193
vn -0.0186 -0.9998 -0.0053
vn 0.0186 0.9998 -0.0053
vn -0.0186 0.9998 -0.0053
vn 0.0053 -0.9998 0.0186
vn 0.0168 -0.9998 -0.0097
vn 0.0053 0.9998 0.0186
vn -0.0186 -0.9998 0.0053
vn 0.0168 0.9998 -0.0097
vn 0.0097 -0.9998 0.0168
vn -0.0186 0.9998 0.0053
vn 0.0148 -0.9998 -0.0127
vn 0.0097 0.9998 0.0168
vn 0.0148 0.9998 -0.0126
vn -0.0168 -0.9998 0.0097
vn -0.0018 -0.9998 -0.0193
vn 0.0127 -0.9998 0.0148
vn -0.0168 0.9998 0.0097
vn 0.0127 -0.9998 -0.0148
vn 0.0126 0.9998 0.0148
vn -0.0018 0.9998 -0.0193
vn -0.2848 0.0427 -0.9576
vn -0.4796 0.0434 -0.8764
vn -0.6382 0.0456 -0.7685
vn -0.7685 0.0456 -0.6382
vn -0.8764 0.0434 -0.4796
vn -0.9576 0.0427 -0.2848
vn -0.9944 0.0439 -0.0958
vn -0.9948 0.0439 0.0921
vn -0.9576 0.0427 0.2848
vn -0.8764 0.0434 0.4796
vn -0.7685 0.0456 0.6382
vn -0.6382 0.0456 0.7685
vn -0.4796 0.0434 0.8764
vn -0.2848 0.0427 0.9576
vn -0.0965 0.0437 0.9944
vn 0.0965 0.0437 0.9944
vn 0.2848 0.0427 0.9576
vn 0.4796 0.0434 0.8764
vn 0.6382 0.0456 0.7685
vn 0.7685 0.0456 0.6382
vn 0.8764 0.0434 0.4796
vn 0.9576 0.0427 0.2848
vn 0.9944 0.0437 0.0965
vn 0.9944 0.0437 -0.0965
vn 0.9576 0.0427 -0.2848
vn 0.8764 0.0434 -0.4796
vn 0.7685 0.0456 -0.6382
vn 0.6382 0.0456 -0.7685
vn 0.4796 0.0434 -0.8764
vn 0.2848 0.0427 -0.9576
vn -0.0965 0.0437 -0.9944
vn 0.0965 0.0437 -0.9944
vt 0.543830 0.645390
vt 0.543830 0.764412
vt 0.643495 0.764412
vt 0.643495 0.645390
vt 0.020128 0.645271
vt 0.014738 0.764238
vt 0.071927 0.764238
vt 0.071927 0.645271
vt 0.335159 0.645271
vt 0.335159 0.764238
vt 0.277970 0.764238
vt 0.283361 0.645271
vt 0.615098 0.899719
vt 0.556669 0.899719
vt 0.556669 0.797941
vt 0.615098 0.797941
vt 0.335159 0.031466
vt 0.335159 0.119045
vt 0.307204 0.119045
vt 0.309463 0.031466
vt 0.390712 0.310229
vt 0.390712 0.392893
vt 0.368734 0.392893
vt 0.368734 0.310229
vt 0.046230 0.031466
vt 0.043971 0.119045
vt 0.071927 0.119045
vt 0.071927 0.031466
vt 0.543830 0.031299
vt 0.543830 0.118919
vt 0.643495 0.118919
vt 0.643495 0.031299
vt 0.543830 0.015837
vt 0.643495 0.015837
vt 0.686670 0.693294
vt 0.769636 0.693294
vt 0.778144 0.701802
vt 0.678162 0.701802
vt 0.769636 0.622412
vt 0.778144 0.613904
vt 0.686670 0.622412
vt 0.678162 0.613904
vt 0.137317 0.930961
vt 0.137317 0.914647
vt 0.261802 0.914647
vt 0.261802 0.930961
vt 0.390712 0.432639
vt 0.390712 0.503263
vt 0.368734 0.503263
vt 0.368734 0.432639
vt 0.958559 0.953862
vt 0.958559 0.883238
vt 0.936580 0.883238
vt 0.936580 0.953862
vt 0.126330 0.512440
vt 0.126330 0.429776
vt 0.104352 0.429776
vt 0.104352 0.512440
vt 0.021503 0.954295
vt 0.093119 0.954295
vt 0.098643 0.981450
vt 0.015979 0.981450
vt 0.093119 0.937981
vt 0.098643 0.910825
vt 0.021503 0.937981
vt 0.015979 0.910825
vt 0.523971 0.882462
vt 0.523971 0.898776
vt 0.452355 0.898776
vt 0.452355 0.882462
vt 0.014322 0.873396
vt 0.014322 0.801780
vt 0.138807 0.801780
vt 0.138807 0.873396
vt 0.174101 0.801780
vt 0.174101 0.873396
vt 0.298585 0.873396
vt 0.298585 0.801780
vt 0.449977 0.933039
vt 0.449977 0.949353
vt 0.574462 0.949353
vt 0.574462 0.933039
vt 0.335159 0.171048
vt 0.304847 0.171048
vt 0.778144 0.753995
vt 0.678162 0.753995
vt 0.041615 0.171048
vt 0.071927 0.171048
vt 0.543830 0.170946
vt 0.643495 0.170946
vt 0.335159 0.240783
vt 0.301688 0.240783
vt 0.038455 0.240783
vt 0.071927 0.240783
vt 0.543830 0.240714
vt 0.643495 0.240714
vt 0.912452 0.015467
vt 0.912452 0.419954
vt 0.812833 0.419954
vt 0.812833 0.015467
vt 0.105727 0.014669
vt 0.105727 0.115092
vt 0.209929 0.115092
vt 0.209929 0.014669
vt 0.705569 0.944767
vt 0.620861 0.944767
vt 0.620861 0.935935
vt 0.705569 0.935935
vt 0.778297 0.468415
vt 0.678008 0.468415
vt 0.678008 0.080468
vt 0.778297 0.080468
vt 0.745899 0.899719
vt 0.745899 0.797941
vt 0.765667 0.797941
vt 0.765667 0.899719
vt 0.780138 0.797941
vt 0.780138 0.899719
vt 0.778297 0.568704
vt 0.678008 0.568704
vt 0.678008 0.549225
vt 0.778297 0.549225
vt 0.719855 0.899719
vt 0.719855 0.797941
vt 0.438442 0.293010
vt 0.433112 0.272212
vt 0.418466 0.255753
vt 0.398428 0.248045
vt 0.438528 0.212284
vt 0.478628 0.257249
vt 0.135195 0.248045
vt 0.155234 0.255753
vt 0.169880 0.272212
vt 0.175209 0.293010
vt 0.215395 0.257249
vt 0.175295 0.212284
vt 0.812318 0.499798
vt 0.912967 0.499798
vt 0.912967 0.478785
vt 0.812318 0.478785
vt 0.912967 0.462156
vt 0.812318 0.462156
vt 0.417509 0.800771
vt 0.417509 0.901487
vt 0.397250 0.901487
vt 0.397250 0.800771
vt 0.333284 0.901487
vt 0.333284 0.800771
vt 0.438527 0.182912
vt 0.175295 0.182912
vt 0.174522 0.616790
vt 0.166137 0.636929
vt 0.145980 0.645271
vt 0.174461 0.673753
vt 0.202943 0.645271
vt 0.409213 0.645271
vt 0.429370 0.636929
vt 0.437754 0.616790
vt 0.466175 0.645271
vt 0.437694 0.673753
vt 0.912967 0.826925
vt 0.812318 0.826925
vt 0.812318 0.847273
vt 0.912967 0.847273
vt 0.464574 0.115126
vt 0.464574 0.014634
vt 0.444240 0.014634
vt 0.444240 0.115126
vt 0.238650 0.645271
vt 0.238650 0.259918
vt 0.174461 0.764238
vt 0.199952 0.764238
vt 0.219301 0.759054
vt 0.233465 0.744890
vt 0.238650 0.725541
vt 0.369538 0.014634
vt 0.369538 0.115126
vt 0.437694 0.764238
vt 0.501882 0.645271
vt 0.501882 0.259918
vt 0.501882 0.725541
vt 0.496698 0.744890
vt 0.482533 0.759054
vt 0.463185 0.764238
vt 0.778297 0.054065
vt 0.678008 0.054065
vt 0.678008 0.031495
vt 0.778297 0.031495
vt 0.678008 0.013635
vt 0.778297 0.013635
vt 0.252009 0.115092
vt 0.252009 0.014669
vt 0.230222 0.014669
vt 0.230222 0.115092
vt 0.238650 0.233691
vt 0.232859 0.211272
vt 0.217037 0.193531
vt 0.195425 0.185222
vt 0.458658 0.185222
vt 0.480270 0.193531
vt 0.496091 0.211272
vt 0.501882 0.233691
vt 0.118127 0.287882
vt 0.118127 0.389034
vt 0.126499 0.389034
vt 0.126499 0.287882
vt 0.678162 0.601820
vt 0.778144 0.601820
vt 0.778144 0.610095
vt 0.678162 0.610095
vt 0.323500 0.016011
vt 0.331745 0.019426
vt 0.335159 0.027670
vt 0.309861 0.016011
vt 0.104279 0.389034
vt 0.104279 0.287882
vt 0.046629 0.016011
vt 0.071927 0.027670
vt 0.068512 0.019426
vt 0.060268 0.016011
vt 0.624205 0.807210
vt 0.624205 0.890450
vt 0.710749 0.807210
vt 0.710749 0.890450
vt 0.869309 0.907025
vt 0.872332 0.887316
vt 0.890635 0.887316
vt 0.890635 0.904810
vt 0.222790 0.972355
vt 0.141317 0.972355
vt 0.141317 0.963523
vt 0.222790 0.963523
vt 0.608008 0.986149
vt 0.689481 0.986149
vt 0.689481 0.977317
vt 0.608008 0.977317
vt 0.299004 0.949365
vt 0.383713 0.949365
vt 0.383713 0.940533
vt 0.299004 0.940533
vt 0.817425 0.887316
vt 0.817425 0.904810
vt 0.817425 0.922304
vt 0.817425 0.939797
vt 0.817425 0.957291
vt 0.811676 0.963040
vt 0.811676 0.881567
vt 0.854030 0.887316
vt 0.835727 0.887316
vt 0.896384 0.881567
vt 0.835727 0.957291
vt 0.854030 0.957291
vt 0.872332 0.957291
vt 0.890635 0.957291
vt 0.896384 0.963040
vt 0.890635 0.939797
vt 0.890635 0.922304
vt 0.869309 0.937583
vt 0.875638 0.922304
vt 0.384615 0.541923
vt 0.368718 0.541923
vt 0.368718 0.563538
vt 0.384615 0.563538
vt 0.838750 0.907025
vt 0.854030 0.900696
vt 0.104336 0.551119
vt 0.120233 0.551119
vt 0.120233 0.572734
vt 0.104336 0.572734
vt 0.832421 0.922304
vt 0.838750 0.937583
vt 0.854030 0.943912
vt 0.977553 0.015458
vt 0.961657 0.015458
vt 0.961657 0.037073
vt 0.977553 0.037073
vt 0.400511 0.541923
vt 0.400511 0.563538
vt 0.468739 0.837227
vt 0.462410 0.821948
vt 0.484018 0.821948
vt 0.484018 0.843556
vt 0.468739 0.806669
vt 0.484018 0.800340
vt 0.505626 0.821948
vt 0.499297 0.837227
vt 0.499297 0.806669
vt 0.961657 0.075232
vt 0.977553 0.075232
vt 0.977553 0.096846
vt 0.961657 0.096846
vt 0.945761 0.015458
vt 0.945761 0.037073
vt 0.136129 0.551119
vt 0.136129 0.572734
vt 0.945761 0.075232
vt 0.945761 0.096846
vt 0.266129 0.506838
vt 0.286680 0.504814
vt 0.306441 0.498820
vt 0.324653 0.489085
vt 0.340616 0.475985
vt 0.353716 0.460022
vt 0.363450 0.441810
vt 0.369445 0.422049
vt 0.371469 0.401498
vt 0.369445 0.380947
vt 0.363450 0.361186
vt 0.353716 0.342974
vt 0.340616 0.327011
vt 0.324653 0.313910
vt 0.306441 0.304176
vt 0.286680 0.298181
vt 0.266129 0.296157
vt 0.245578 0.298181
vt 0.225816 0.304176
vt 0.207605 0.313910
vt 0.191642 0.327011
vt 0.178541 0.342974
vt 0.168807 0.361186
vt 0.162812 0.380947
vt 0.160788 0.401498
vt 0.162812 0.422049
vt 0.168807 0.441810
vt 0.178541 0.460022
vt 0.191642 0.475985
vt 0.207605 0.489085
vt 0.225816 0.498820
vt 0.245578 0.504814
vt 0.578125 0.707031
vt 0.574219 0.644531
vt 0.546875 0.707031
vt 0.765625 0.871094
vt 0.804688 0.871094
vt 0.785156 0.812500
vt 0.800781 0.976562
vt 0.781250 0.976562
vt 0.781250 0.980469
vt 0.800781 0.980469
vt 0.297062 0.710267
vt 0.279081 0.716881
vt 0.278762 0.713595
vt 0.295398 0.706940
vt 0.314812 0.701923
vt 0.312034 0.698622
vt 0.328400 0.690034
vt 0.325343 0.686977
vt 0.340289 0.676447
vt 0.336988 0.673669
vt 0.348633 0.658697
vt 0.345306 0.657033
vt 0.355246 0.640716
vt 0.351960 0.640397
vt 0.785156 0.781250
vt 0.804688 0.781250
vt 0.804688 0.785156
vt 0.785156 0.785156
vt 0.769531 0.781250
vt 0.769531 0.785156
vt 0.348633 0.585499
vt 0.353623 0.603799
vt 0.351960 0.603799
vt 0.345306 0.587163
vt 0.340289 0.567749
vt 0.336988 0.570527
vt 0.328400 0.554161
vt 0.325343 0.557218
vt 0.314812 0.542272
vt 0.312034 0.545573
vt 0.297062 0.533928
vt 0.295398 0.537255
vt 0.279081 0.527315
vt 0.278762 0.530601
vt 0.785156 0.679688
vt 0.804688 0.679688
vt 0.804688 0.683594
vt 0.785156 0.683594
vt 0.765625 0.679688
vt 0.765625 0.683594
vt 0.223864 0.533928
vt 0.241845 0.527315
vt 0.242164 0.530601
vt 0.225528 0.537255
vt 0.206114 0.542272
vt 0.208892 0.545573
vt 0.192527 0.554161
vt 0.195584 0.557218
vt 0.180638 0.567749
vt 0.183939 0.570527
vt 0.172294 0.585499
vt 0.175621 0.587163
vt 0.165680 0.603480
vt 0.168966 0.603799
vt 0.172294 0.658697
vt 0.165680 0.640716
vt 0.168966 0.640397
vt 0.175621 0.657033
vt 0.180638 0.676447
vt 0.183939 0.673669
vt 0.192527 0.690034
vt 0.195584 0.686977
vt 0.206114 0.701923
vt 0.208892 0.698622
vt 0.223864 0.710267
vt 0.225528 0.706940
vt 0.241845 0.716881
vt 0.242164 0.713595
vt 0.761719 0.976562
vt 0.761719 0.980469
vt 0.804688 0.878906
vt 0.765625 0.878906
vt 0.765625 0.882812
vt 0.804688 0.882812
vt 0.800781 0.968750
vt 0.781250 0.968750
vt 0.386719 0.734375
vt 0.371094 0.734375
vt 0.371094 0.730469
vt 0.386719 0.730469
vt 0.820312 0.968750
vt 0.820312 0.976562
vt 0.761719 0.968750
vt 0.839844 0.968750
vt 0.839844 0.976562
vt 0.851562 0.968750
vt 0.851562 0.976562
vt 0.843750 0.773438
vt 0.855469 0.773438
vt 0.855469 0.781250
vt 0.843750 0.781250
vt 0.824219 0.773438
vt 0.824219 0.781250
vt 0.804688 0.773438
vt 0.785156 0.773438
vt 0.769531 0.773438
vt 0.750000 0.773438
vt 0.750000 0.781250
vt 0.730469 0.773438
vt 0.730469 0.781250
vt 0.718750 0.773438
vt 0.718750 0.781250
vt 0.839844 0.675781
vt 0.855469 0.675781
vt 0.855469 0.679688
vt 0.839844 0.679688
vt 0.824219 0.675781
vt 0.824219 0.679688
vt 0.804688 0.675781
vt 0.785156 0.675781
vt 0.765625 0.675781
vt 0.746094 0.675781
vt 0.746094 0.679688
vt 0.730469 0.675781
vt 0.730469 0.679688
vt 0.714844 0.675781
vt 0.714844 0.679688
vt 0.730469 0.871094
vt 0.714844 0.871094
vt 0.714844 0.878906
vt 0.730469 0.878906
vt 0.750000 0.871094
vt 0.750000 0.878906
vt 0.824219 0.871094
vt 0.824219 0.878906
vt 0.843750 0.871094
vt 0.843750 0.878906
vt 0.855469 0.871094
vt 0.855469 0.878906
vt 0.726562 0.968750
vt 0.710938 0.968750
vt 0.710938 0.976562
vt 0.726562 0.976562
vt 0.742188 0.968750
vt 0.742188 0.976562
vt 0.260463 0.696959
vt 0.275435 0.695295
vt 0.260463 0.715258
vt 0.288744 0.691968
vt 0.302052 0.683650
vt 0.313698 0.675332
vt 0.322015 0.663687
vt 0.330333 0.650379
vt 0.333661 0.637070
vt 0.335324 0.622098
vt 0.353623 0.622098
vt 0.333661 0.607126
vt 0.330333 0.593817
vt 0.322015 0.580508
vt 0.313698 0.568863
vt 0.302052 0.560546
vt 0.288744 0.552228
vt 0.275435 0.548900
vt 0.260463 0.547237
vt 0.260463 0.528938
vt 0.245491 0.548900
vt 0.232182 0.552228
vt 0.218874 0.560546
vt 0.207229 0.568863
vt 0.198911 0.580508
vt 0.190593 0.593817
vt 0.187266 0.607126
vt 0.187266 0.637070
vt 0.190593 0.650379
vt 0.198911 0.663687
vt 0.207229 0.675332
vt 0.218874 0.683650
vt 0.232182 0.691968
vt 0.245491 0.695295
vt 0.089844 0.753906
vt 0.105469 0.753906
vt 0.105469 0.761719
vt 0.089844 0.761719
vt 0.484375 0.734375
vt 0.496094 0.734375
vt 0.496094 0.730469
vt 0.484375 0.730469
vt 0.175781 0.734375
vt 0.164062 0.734375
vt 0.164062 0.730469
vt 0.175781 0.730469
vt 0.472656 0.734375
vt 0.472656 0.730469
vt 0.234375 0.734375
vt 0.218750 0.734375
vt 0.218750 0.730469
vt 0.234375 0.730469
vt 0.191406 0.734375
vt 0.191406 0.730469
vt 0.457031 0.734375
vt 0.457031 0.730469
vt 0.250000 0.734375
vt 0.250000 0.730469
vt 0.203125 0.734375
vt 0.203125 0.730469
vt 0.441406 0.734375
vt 0.441406 0.730469
vt 0.261719 0.734375
vt 0.261719 0.730469
vt 0.425781 0.734375
vt 0.425781 0.730469
vt 0.273438 0.734375
vt 0.273438 0.730469
vt 0.343750 0.734375
vt 0.312500 0.734375
vt 0.312500 0.730469
vt 0.343750 0.730469
vt 0.414062 0.734375
vt 0.414062 0.730469
vt 0.593750 0.734375
vt 0.605469 0.734375
vt 0.605469 0.730469
vt 0.593750 0.730469
vt 0.398438 0.734375
vt 0.398438 0.730469
vt 0.578125 0.734375
vt 0.578125 0.730469
vt 0.566406 0.734375
vt 0.566406 0.730469
vt 0.285156 0.734375
vt 0.285156 0.730469
vt 0.550781 0.734375
vt 0.550781 0.730469
vt 0.300781 0.734375
vt 0.300781 0.730469
vt 0.535156 0.734375
vt 0.535156 0.730469
vt 0.519531 0.734375
vt 0.519531 0.730469
vt 0.359375 0.734375
vt 0.359375 0.730469
vt 0.507812 0.734375
vt 0.507812 0.730469
vt 0.080483 0.739604
vt 0.093651 0.737958
vt 0.095297 0.741250
vt 0.080483 0.742896
vt 0.106819 0.734666
vt 0.108465 0.737958
vt 0.119987 0.728082
vt 0.122464 0.730959
vt 0.129862 0.718206
vt 0.133155 0.721498
vt 0.139739 0.708330
vt 0.143230 0.710592
vt 0.146322 0.695163
vt 0.149614 0.696809
vt 0.149614 0.681995
vt 0.152906 0.683641
vt 0.151260 0.668827
vt 0.155167 0.668827
vt 0.149614 0.655659
vt 0.152906 0.654013
vt 0.146322 0.642491
vt 0.149614 0.640845
vt 0.139739 0.629323
vt 0.142615 0.626846
vt 0.129862 0.619447
vt 0.133155 0.616155
vt 0.119987 0.609571
vt 0.122464 0.606695
vt 0.106819 0.602987
vt 0.108465 0.599695
vt 0.093651 0.599695
vt 0.095297 0.596403
vt 0.080483 0.598049
vt 0.080483 0.594757
vt 0.067315 0.599695
vt 0.065669 0.596403
vt 0.054147 0.602987
vt 0.052501 0.599695
vt 0.040979 0.609571
vt 0.038502 0.606695
vt 0.031103 0.619447
vt 0.027811 0.616155
vt 0.021228 0.629323
vt 0.018351 0.626846
vt 0.014644 0.642491
vt 0.011352 0.640845
vt 0.011352 0.654013
vt 0.008060 0.654013
vt 0.011352 0.683641
vt 0.014644 0.695163
vt 0.011352 0.696808
vt 0.008060 0.683641
vt 0.021228 0.708330
vt 0.018351 0.710808
vt 0.031103 0.718206
vt 0.027811 0.721498
vt 0.040979 0.728082
vt 0.038502 0.730959
vt 0.054147 0.734666
vt 0.052501 0.737958
vt 0.067315 0.737958
vt 0.065669 0.741250
vt 0.103737 0.570609
vt 0.090569 0.572255
vt 0.077401 0.570609
vt 0.064233 0.567317
vt 0.051065 0.560733
vt 0.041189 0.550857
vt 0.031313 0.540981
vt 0.024729 0.527813
vt 0.021437 0.516291
vt 0.021437 0.486663
vt 0.024729 0.475141
vt 0.031313 0.461974
vt 0.041189 0.452098
vt 0.051065 0.442222
vt 0.064233 0.435638
vt 0.077401 0.432346
vt 0.090569 0.430700
vt 0.103737 0.432346
vt 0.116904 0.435638
vt 0.130072 0.442222
vt 0.139948 0.452098
vt 0.149824 0.461974
vt 0.156408 0.475141
vt 0.159700 0.488309
vt 0.161346 0.501477
vt 0.159700 0.514645
vt 0.156408 0.527813
vt 0.149824 0.540981
vt 0.139948 0.550857
vt 0.130072 0.560733
vt 0.116904 0.567317
vt 0.078125 0.753906
vt 0.078125 0.761719
vt 0.382812 0.753906
vt 0.371094 0.753906
vt 0.371094 0.761719
vt 0.382812 0.761719
vt 0.062500 0.753906
vt 0.062500 0.761719
vt 0.359375 0.753906
vt 0.359375 0.761719
vt 0.050781 0.753906
vt 0.050781 0.761719
vt 0.187500 0.753906
vt 0.171875 0.753906
vt 0.171875 0.761719
vt 0.187500 0.761719
vt 0.035156 0.753906
vt 0.035156 0.761719
vt 0.199219 0.753906
vt 0.199219 0.761719
vt 0.023438 0.753906
vt 0.023438 0.761719
vt 0.226562 0.753906
vt 0.214844 0.753906
vt 0.214844 0.761719
vt 0.226562 0.761719
vt 0.007812 0.753906
vt 0.007812 0.761719
vt 0.242188 0.753906
vt 0.242188 0.761719
vt 0.324219 0.753906
vt 0.335938 0.753906
vt 0.335938 0.761719
vt 0.324219 0.761719
vt 0.394531 0.753906
vt 0.394531 0.761719
vt 0.347656 0.753906
vt 0.347656 0.761719
vt 0.160156 0.753906
vt 0.160156 0.761719
vt 0.296875 0.753906
vt 0.281250 0.753906
vt 0.281250 0.761719
vt 0.296875 0.761719
vt 0.257812 0.753906
vt 0.257812 0.761719
vt 0.144531 0.753906
vt 0.144531 0.761719
vt 0.308594 0.753906
vt 0.308594 0.761719
vt 0.269531 0.753906
vt 0.269531 0.761719
vt 0.132812 0.753906
vt 0.132812 0.761719
vt 0.117188 0.753906
vt 0.117188 0.761719
vt 0.406250 0.753906
vt 0.417969 0.753906
vt 0.417969 0.761719
vt 0.406250 0.761719
vt 0.460561 0.432952
vt 0.444577 0.419834
vt 0.442339 0.422072
vt 0.458803 0.435584
vt 0.460585 0.257618
vt 0.444630 0.270720
vt 0.442395 0.268485
vt 0.458829 0.254990
vt 0.577769 0.432952
vt 0.559532 0.442700
vt 0.560743 0.445624
vt 0.579527 0.435584
vt 0.444630 0.419716
vt 0.460585 0.432818
vt 0.458829 0.435446
vt 0.442395 0.421951
vt 0.593754 0.270657
vt 0.606872 0.286642
vt 0.609503 0.284884
vt 0.595991 0.268420
vt 0.559452 0.442568
vt 0.577671 0.432818
vt 0.579427 0.435446
vt 0.560662 0.445488
vt 0.431459 0.286642
vt 0.444577 0.270657
vt 0.442339 0.268420
vt 0.428827 0.284884
vt 0.606728 0.286675
vt 0.593626 0.270720
vt 0.595861 0.268485
vt 0.609356 0.284919
vt 0.478798 0.442700
vt 0.477587 0.445624
vt 0.431528 0.286675
vt 0.428900 0.284919
vt 0.593754 0.419834
vt 0.595991 0.422072
vt 0.478804 0.442568
vt 0.477594 0.445488
vt 0.577769 0.257539
vt 0.579527 0.254908
vt 0.593626 0.419716
vt 0.595861 0.421951
vt 0.421711 0.304879
vt 0.418787 0.303668
vt 0.577671 0.257618
vt 0.579427 0.254990
vt 0.498586 0.448703
vt 0.497969 0.451806
vt 0.421778 0.304894
vt 0.418858 0.303684
vt 0.606872 0.403849
vt 0.609503 0.405608
vt 0.498575 0.448559
vt 0.497958 0.451659
vt 0.559532 0.247791
vt 0.560743 0.244868
vt 0.606728 0.403761
vt 0.609356 0.405517
vt 0.415708 0.324667
vt 0.412604 0.324049
vt 0.559452 0.247868
vt 0.560662 0.244948
vt 0.519165 0.450730
vt 0.519165 0.453894
vt 0.415787 0.324665
vt 0.412687 0.324048
vt 0.616620 0.385613
vt 0.619543 0.386824
vt 0.539744 0.241789
vt 0.540361 0.238685
vt 0.616477 0.385542
vt 0.619398 0.386752
vt 0.519128 0.450582
vt 0.519128 0.453743
vt 0.413681 0.345246
vt 0.410517 0.345246
vt 0.539681 0.241877
vt 0.540298 0.238777
vt 0.781250 0.523438
vt 0.781250 0.578125
vt 0.800781 0.578125
vt 0.800781 0.523438
vt 0.757812 0.523438
vt 0.757812 0.578125
vt 0.824219 0.578125
vt 0.824219 0.523438
vt 0.843750 0.578125
vt 0.843750 0.523438
vt 0.859375 0.578125
vt 0.859375 0.523438
vt 0.859375 0.457031
vt 0.859375 0.511719
vt 0.839844 0.511719
vt 0.839844 0.457031
vt 0.820312 0.511719
vt 0.820312 0.457031
vt 0.800781 0.511719
vt 0.800781 0.457031
vt 0.777344 0.511719
vt 0.777344 0.457031
vt 0.757812 0.511719
vt 0.757812 0.457031
vt 0.734375 0.511719
vt 0.734375 0.457031
vt 0.714844 0.511719
vt 0.714844 0.457031
vt 0.695312 0.511719
vt 0.695312 0.457031
vt 0.703125 0.390625
vt 0.703125 0.445312
vt 0.718750 0.445312
vt 0.718750 0.390625
vt 0.738281 0.445312
vt 0.738281 0.390625
vt 0.757812 0.445312
vt 0.757812 0.390625
vt 0.781250 0.445312
vt 0.781250 0.390625
vt 0.804688 0.445312
vt 0.804688 0.390625
vt 0.824219 0.445312
vt 0.824219 0.390625
vt 0.843750 0.445312
vt 0.843750 0.390625
vt 0.859375 0.445312
vt 0.859375 0.390625
vt 0.703125 0.523438
vt 0.703125 0.578125
vt 0.718750 0.578125
vt 0.718750 0.523438
vt 0.738281 0.578125
vt 0.738281 0.523438
vt 0.568101 0.548102
vt 0.569860 0.566943
vt 0.564636 0.566943
vt 0.562971 0.549114
vt 0.375642 0.567317
vt 0.377347 0.586123
vt 0.381586 0.585287
vt 0.379957 0.567317
vt 0.392427 0.621669
vt 0.404400 0.635634
vt 0.407437 0.632598
vt 0.395995 0.619253
vt 0.435123 0.476667
vt 0.453729 0.471413
vt 0.454742 0.476543
vt 0.437135 0.481516
vt 0.569840 0.567317
vt 0.568086 0.548511
vt 0.563849 0.549347
vt 0.565525 0.567317
vt 0.453911 0.471947
vt 0.435328 0.477187
vt 0.436990 0.481192
vt 0.454747 0.476185
vt 0.377040 0.585785
vt 0.375329 0.566943
vt 0.380552 0.566943
vt 0.382171 0.584773
vt 0.418134 0.647381
vt 0.404129 0.635384
vt 0.407806 0.631709
vt 0.421058 0.643061
vt 0.562846 0.529496
vt 0.557999 0.531507
vt 0.491411 0.662474
vt 0.472570 0.664233
vt 0.472571 0.659008
vt 0.490400 0.657343
vt 0.418365 0.647607
vt 0.420781 0.644039
vt 0.418134 0.486506
vt 0.421058 0.490826
vt 0.562847 0.529929
vt 0.558843 0.531590
vt 0.472717 0.664441
vt 0.491523 0.662687
vt 0.490688 0.658449
vt 0.472717 0.660125
vt 0.418365 0.487027
vt 0.420781 0.490595
vt 0.510018 0.657219
vt 0.508008 0.652371
vt 0.435123 0.657219
vt 0.437135 0.652371
vt 0.553008 0.512507
vt 0.548689 0.515431
vt 0.510105 0.657448
vt 0.508444 0.653442
vt 0.435328 0.657448
vt 0.436990 0.653442
vt 0.404129 0.498502
vt 0.407806 0.502178
vt 0.553007 0.512966
vt 0.549440 0.515381
vt 0.404400 0.499001
vt 0.407437 0.502037
vt 0.527006 0.647381
vt 0.524084 0.643061
vt 0.453729 0.662474
vt 0.454742 0.657343
vt 0.541011 0.498502
vt 0.537336 0.502178
vt 0.527068 0.647607
vt 0.524654 0.644039
vt 0.453911 0.662687
vt 0.454747 0.658449
vt 0.392133 0.512507
vt 0.396453 0.515431
vt 0.541033 0.499001
vt 0.537998 0.502037
vt 0.392427 0.512966
vt 0.395995 0.515381
vt 0.541011 0.635384
vt 0.537336 0.631709
vt 0.761719 0.890625
vt 0.781250 0.890625
vt 0.437500 0.895181
vt 0.437500 0.976562
vt 0.457031 0.976562
vt 0.457031 0.895181
vt 0.416308 0.895181
vt 0.417969 0.976562
vt 0.800781 0.890625
vt 0.820312 0.890625
vt 0.476562 0.976562
vt 0.478223 0.895181
vt 0.839844 0.890625
vt 0.492188 0.976562
vt 0.495509 0.895181
vt 0.855469 0.890625
vt 0.507812 0.976562
vt 0.511134 0.895181
vt 0.859375 0.691406
vt 0.843750 0.691406
vt 0.337598 0.895181
vt 0.335938 0.976562
vt 0.320312 0.976562
vt 0.321973 0.895181
vt 0.828125 0.691406
vt 0.300781 0.976562
vt 0.302442 0.895181
vt 0.808594 0.691406
vt 0.281250 0.976562
vt 0.282911 0.895181
vt 0.785156 0.691406
vt 0.261719 0.976562
vt 0.261719 0.895181
vt 0.765625 0.691406
vt 0.242188 0.976562
vt 0.242188 0.895181
vt 0.746094 0.691406
vt 0.222656 0.976562
vt 0.220995 0.895181
vt 0.730469 0.691406
vt 0.207031 0.976562
vt 0.203710 0.895181
vt 0.714844 0.691406
vt 0.191406 0.976562
vt 0.188085 0.895181
vt 0.855469 0.597656
vt 0.843750 0.597656
vt 0.167384 0.895181
vt 0.164062 0.976562
vt 0.148438 0.976562
vt 0.150098 0.895181
vt 0.824219 0.597656
vt 0.132812 0.976562
vt 0.132812 0.895181
vt 0.804688 0.597656
vt 0.109375 0.976562
vt 0.111036 0.895181
vt 0.785156 0.597656
vt 0.089844 0.976562
vt 0.089844 0.895181
vt 0.765625 0.597656
vt 0.070312 0.976562
vt 0.070312 0.895181
vt 0.746094 0.597656
vt 0.050781 0.976562
vt 0.050781 0.895181
vt 0.726562 0.597656
vt 0.035156 0.976562
vt 0.033495 0.895181
vt 0.710938 0.597656
vt 0.019531 0.976562
vt 0.016210 0.895181
vt 0.714844 0.792969
vt 0.730469 0.792969
vt 0.535741 0.895181
vt 0.539062 0.976562
vt 0.554688 0.976562
vt 0.553027 0.895181
vt 0.746094 0.792969
vt 0.570312 0.976562
vt 0.570313 0.895181
vt 0.765625 0.792969
vt 0.589844 0.976562
vt 0.589844 0.895181
vt 0.785156 0.792969
vt 0.613281 0.895181
vt 0.613281 0.785156
vt 0.589844 0.785156
vt 0.804688 0.792969
vt 0.613281 0.976562
vt 0.632812 0.976562
vt 0.632812 0.895181
vt 0.824219 0.792969
vt 0.652344 0.976562
vt 0.652344 0.895181
vt 0.843750 0.792969
vt 0.667969 0.976562
vt 0.669630 0.895181
vt 0.859375 0.792969
vt 0.683594 0.976562
vt 0.686915 0.895181
vt 0.710938 0.890625
vt 0.726562 0.890625
vt 0.361620 0.895181
vt 0.363281 0.976562
vt 0.378906 0.976562
vt 0.377245 0.895181
vt 0.742188 0.890625
vt 0.398438 0.976562
vt 0.396777 0.895181
vt 0.490015 0.343578
vt 0.513452 0.343578
vt 0.513452 0.339671
vt 0.490015 0.339671
vt 0.470483 0.343578
vt 0.470483 0.339671
vt 0.450952 0.343578
vt 0.450952 0.339671
vt 0.431421 0.343578
vt 0.431421 0.339671
vt 0.575952 0.343578
vt 0.595483 0.343578
vt 0.595483 0.339671
vt 0.575952 0.339671
vt 0.556421 0.343578
vt 0.556421 0.339671
vt 0.536890 0.343578
vt 0.536890 0.339671
vt 0.616477 0.304894
vt 0.619398 0.303684
vt 0.460561 0.257539
vt 0.458803 0.254908
vt 0.539681 0.448559
vt 0.540298 0.451659
vt 0.616620 0.304879
vt 0.619543 0.303668
vt 0.431528 0.403761
vt 0.428900 0.405517
vt 0.539744 0.448703
vt 0.540361 0.451806
vt 0.478804 0.247868
vt 0.477594 0.244948
vt 0.431459 0.403849
vt 0.428827 0.405608
vt 0.622469 0.324665
vt 0.625569 0.324048
vt 0.478798 0.247791
vt 0.477587 0.244868
vt 0.622622 0.324667
vt 0.625726 0.324049
vt 0.421778 0.385542
vt 0.418858 0.386752
vt 0.498575 0.241877
vt 0.497958 0.238777
vt 0.421711 0.385613
vt 0.418787 0.386824
vt 0.624492 0.345218
vt 0.627653 0.345218
vt 0.498586 0.241789
vt 0.497969 0.238685
vt 0.624649 0.345246
vt 0.627814 0.345246
vt 0.415787 0.365771
vt 0.412687 0.366388
vt 0.519128 0.239854
vt 0.519128 0.236693
vt 0.415708 0.365825
vt 0.412604 0.366442
vt 0.622469 0.365771
vt 0.625569 0.366388
vt 0.519165 0.239762
vt 0.519165 0.236597
vt 0.622622 0.365825
vt 0.625726 0.366442
vt 0.413765 0.345218
vt 0.410604 0.345218
vt 0.437500 0.683594
vt 0.457031 0.683594
vt 0.457031 0.679688
vt 0.437500 0.679688
vt 0.417969 0.683594
vt 0.417969 0.679688
vt 0.402344 0.683594
vt 0.402344 0.679688
vt 0.386719 0.683594
vt 0.386719 0.679688
vt 0.511719 0.691406
vt 0.527344 0.691406
vt 0.527344 0.687500
vt 0.511719 0.687500
vt 0.496094 0.691406
vt 0.496094 0.687500
vt 0.476562 0.691406
vt 0.476562 0.687500
vt 0.417969 0.691406
vt 0.437500 0.691406
vt 0.437500 0.687500
vt 0.417969 0.687500
vt 0.398438 0.691406
vt 0.398438 0.687500
vt 0.386719 0.691406
vt 0.386719 0.687500
vt 0.398438 0.699219
vt 0.386719 0.699219
vt 0.386719 0.695312
vt 0.398438 0.695312
vt 0.417969 0.699219
vt 0.417969 0.695312
vt 0.437500 0.699219
vt 0.437500 0.695312
vt 0.457031 0.699219
vt 0.457031 0.695312
vt 0.476562 0.699219
vt 0.476562 0.695312
vt 0.496094 0.699219
vt 0.496094 0.695312
vt 0.511719 0.699219
vt 0.511719 0.695312
vt 0.527344 0.699219
vt 0.527344 0.695312
vt 0.398438 0.707031
vt 0.386719 0.707031
vt 0.386719 0.703125
vt 0.398438 0.703125
vt 0.417969 0.707031
vt 0.417969 0.703125
vt 0.437500 0.707031
vt 0.437500 0.703125
vt 0.457031 0.707031
vt 0.457031 0.703125
vt 0.476562 0.707031
vt 0.476562 0.703125
vt 0.496094 0.707031
vt 0.496094 0.703125
vt 0.511719 0.707031
vt 0.511719 0.703125
vt 0.527344 0.707031
vt 0.527344 0.703125
vt 0.515625 0.683594
vt 0.527344 0.683594
vt 0.527344 0.679688
vt 0.515625 0.679688
vt 0.496094 0.683594
vt 0.496094 0.679688
vt 0.476562 0.683594
vt 0.476562 0.679688
vt 0.457031 0.687500
vt 0.457031 0.691406
vt 0.392133 0.621379
vt 0.396453 0.618456
vt 0.377040 0.548102
vt 0.382171 0.549114
vt 0.472717 0.470194
vt 0.472717 0.474510
vt 0.377347 0.548511
vt 0.381586 0.549347
vt 0.568086 0.586123
vt 0.563849 0.585287
vt 0.472570 0.469654
vt 0.472571 0.474879
vt 0.382586 0.604706
vt 0.386592 0.603044
vt 0.568101 0.585785
vt 0.562971 0.584773
vt 0.382294 0.604391
vt 0.387143 0.602380
vt 0.491523 0.471947
vt 0.490688 0.476185
vt 0.562847 0.604706
vt 0.558843 0.603044
vt 0.491411 0.471413
vt 0.490400 0.476543
vt 0.562846 0.604391
vt 0.557999 0.602380
vt 0.510105 0.477187
vt 0.508444 0.481192
vt 0.553007 0.621669
vt 0.549440 0.619253
vt 0.510018 0.476667
vt 0.508008 0.481516
vt 0.382586 0.529929
vt 0.386592 0.531590
vt 0.553008 0.621379
vt 0.548689 0.618456
vt 0.527068 0.487027
vt 0.524654 0.490595
vt 0.382294 0.529496
vt 0.387143 0.531507
vt 0.541033 0.635634
vt 0.537998 0.632598
vt 0.527006 0.486506
vt 0.524084 0.490826
vt 0.394531 0.785156
vt 0.414062 0.785156
vt 0.375000 0.785156
vt 0.359375 0.785156
vt 0.671875 0.785156
vt 0.691406 0.785156
vt 0.652344 0.785156
vt 0.632812 0.785156
vt 0.570312 0.785156
vt 0.550781 0.785156
vt 0.531250 0.785156
vt 0.031250 0.785156
vt 0.011719 0.785156
vt 0.050781 0.785156
vt 0.070312 0.785156
vt 0.089844 0.785156
vt 0.113281 0.785156
vt 0.132812 0.785156
vt 0.152344 0.785156
vt 0.171875 0.785156
vt 0.199219 0.785156
vt 0.183594 0.785156
vt 0.218750 0.785156
vt 0.242188 0.785156
vt 0.261719 0.785156
vt 0.285156 0.785156
vt 0.304688 0.785156
vt 0.324219 0.785156
vt 0.339844 0.785156
vt 0.500000 0.785156
vt 0.515625 0.785156
vt 0.480469 0.785156
vt 0.457031 0.785156
vt 0.437500 0.785156
s 0
g Electric_Kettle_(Handle)_Material.004
usemtl Material.004
f 39/1/1 2/2/1 4/3/1 40/4/1
f 40/5/2 4/6/2 95/7/2 41/8/2
f 42/9/3 96/10/3 2/11/3 39/12/3
f 95/13/4 4/14/4 2/15/4 96/16/4
f 18/17/3 16/18/3 7/19/3 14/20/3
f 13/21/4 12/22/4 25/23/4 26/24/4
f 11/25/2 8/26/2 15/27/2 17/28/2
f 14/29/5 7/30/5 8/31/5 11/32/5
f 1/33/5 14/29/5 11/32/5 3/34/5
f 10/35/6 9/36/6 15/37/6 16/38/6
f 9/36/6 12/39/6 17/40/6 15/37/6
f 13/41/6 10/35/6 16/38/6 18/42/6
f 12/39/6 13/41/6 18/42/6 17/40/6
f 20/43/3 22/44/3 30/45/3 28/46/3
f 12/47/3 9/48/3 23/49/3 25/50/3
f 10/51/2 13/52/2 26/53/2 24/54/2
f 9/55/7 10/56/7 24/57/7 23/58/7
f 20/59/6 19/60/6 23/61/6 24/62/6
f 19/60/6 21/63/6 25/64/6 23/61/6
f 22/65/6 20/59/6 24/62/6 26/66/6
f 21/63/6 22/65/6 26/66/6 25/64/6
f 29/67/6 27/68/6 28/69/6 30/70/6
f 19/71/4 20/72/4 28/73/4 27/74/4
f 22/75/7 21/76/7 29/77/7 30/78/7
f 21/79/2 19/80/2 27/81/2 29/82/2
f 16/18/3 34/83/3 31/84/3 7/19/3
f 15/37/6 33/85/6 34/86/6 16/38/6
f 8/26/2 32/87/2 33/88/2 15/27/2
f 7/30/1 31/89/1 32/90/1 8/31/1
f 34/83/3 38/91/3 35/92/3 31/84/3
f 32/87/2 36/93/2 37/94/2 33/88/2
f 31/89/1 35/95/1 36/96/1 32/90/1
f 38/91/3 42/9/3 39/12/3 35/92/3
f 37/97/6 41/98/6 42/99/6 38/100/6
f 36/93/2 40/5/2 41/8/2 37/94/2
f 35/95/1 39/1/1 40/4/1 36/96/1
f 34/101/8 33/102/8 47/103/8 48/104/8
f 50/105/3 6/106/3 103/107/3 106/108/3
f 45/109/6 46/110/6 44/111/6 43/112/6
f 51/113/9 56/114/9 58/115/9 53/116/9
f 53/116/10 58/115/10 57/117/10 54/118/10
f 54/119/11 57/120/11 55/121/11 52/122/11
f 98/123/4 97/124/4 56/114/4 51/113/4
f 45/109/6 52/122/6 55/121/6 46/110/6
f 59/125/3 63/126/3 64/127/3 60/128/3 61/129/3 62/130/3
f 65/131/2 69/132/2 70/133/2 66/134/2 67/135/2 68/136/2
f 59/137/12 66/138/12 70/139/12 63/140/12
f 63/140/13 70/139/13 69/141/13 64/142/13
f 64/143/14 69/144/14 65/145/14 60/146/14
f 37/147/15 38/148/15 60/146/15 65/145/15
f 38/91/3 34/83/3 48/149/3 61/129/3 60/128/3
f 33/88/2 37/94/2 65/131/2 68/136/2 47/150/2
f 71/151/2 75/152/2 72/153/2 73/154/2 74/155/2
f 76/156/3 80/157/3 77/158/3 78/159/3 79/160/3
f 71/161/16 77/162/16 80/163/16 75/164/16
f 75/165/17 80/166/17 76/167/17 72/168/17
f 71/151/2 74/155/2 45/169/2 43/170/2 67/135/2 66/134/2
f 41/8/2 95/7/2 98/171/2 73/154/2 72/153/2
f 74/155/2 73/154/2 98/171/2 51/172/2 53/173/2 54/174/2 52/175/2 45/169/2
f 42/176/7 41/177/7 72/168/7 76/167/7
f 77/162/18 71/161/18 66/138/18 59/137/18
f 96/10/3 42/9/3 76/156/3 79/160/3 97/178/3
f 46/179/3 78/159/3 77/158/3 59/125/3 62/130/3 44/180/3
f 97/178/3 79/160/3 78/159/3 46/179/3 55/181/3 57/182/3 58/183/3 56/184/3
f 81/185/19 86/186/19 88/187/19 83/188/19
f 83/188/20 88/187/20 87/189/20 84/190/20
f 84/191/21 87/192/21 85/193/21 82/194/21
f 47/150/2 68/136/2 67/135/2 43/170/2 81/195/2 83/196/2 84/197/2 82/198/2
f 81/185/6 43/112/6 44/111/6 86/186/6
f 48/104/8 47/103/8 82/194/8 85/193/8
f 62/130/3 61/129/3 48/149/3 85/199/3 87/200/3 88/201/3 86/202/3 44/180/3
f 89/203/22 93/204/22 94/205/22 91/206/22
f 91/207/23 94/208/23 92/209/23 90/210/23
f 92/209/6 17/40/6 18/42/6 90/210/6
f 89/211/3 91/212/3 90/213/3 18/17/3 14/20/3 1/214/3
f 3/215/7 93/204/7 89/203/7 1/216/7
f 3/217/2 11/25/2 17/28/2 92/218/2 94/219/2 93/220/2
f 5/221/4 6/222/4 95/13/4 96/16/4
f 49/223/4 5/221/4 96/16/4 97/124/4
f 6/222/4 50/224/4 98/123/4 95/13/4
f 50/224/4 49/223/4 97/124/4 98/123/4
f 126/225/4 116/226/4 101/227/4 118/228/4
f 6/229/6 5/230/6 104/231/6 103/232/6
f 49/233/24 50/234/24 106/235/24 105/236/24
f 5/237/2 49/238/2 105/239/2 104/240/2
f 100/241/4 111/242/4 107/243/4 115/244/4 99/245/4 103/246/4 104/247/4
f 101/227/4 116/226/4 108/248/4 112/249/4 100/241/4 104/247/4 105/250/4
f 99/245/4 117/251/4 109/252/4 113/253/4 102/254/4 106/255/4 103/246/4
f 102/254/4 114/256/4 110/257/4 118/228/4 101/227/4 105/250/4 106/255/4
f 125/258/4 119/259/4 110/257/4 114/256/4
f 121/260/25 124/261/25 133/262/25 131/263/25
f 123/264/4 112/249/4 108/248/4 122/265/4
f 126/266/26 119/267/26 130/268/26 135/269/26
f 107/243/4 111/242/4 123/264/4 120/270/4
f 111/242/4 100/241/4 112/249/4 123/264/4
f 117/251/4 124/271/4 121/272/4 109/252/4
f 99/245/4 115/244/4 124/271/4 117/251/4
f 115/244/4 107/243/4 120/270/4 124/271/4
f 113/253/4 125/258/4 114/256/4 102/254/4
f 109/252/4 121/272/4 125/258/4 113/253/4
f 124/273/27 120/274/27 127/275/27 133/276/27
f 119/259/4 126/225/4 118/228/4 110/257/4
f 125/277/28 121/260/28 131/263/28 134/278/28
f 122/265/4 108/248/4 116/226/4 126/225/4
f 133/279/4 127/280/4 128/281/4 131/282/4
f 127/280/4 132/283/4 129/284/4 128/281/4
f 131/282/4 128/281/4 130/285/4 134/286/4
f 128/281/4 129/284/4 135/287/4 130/285/4
f 122/288/29 126/289/29 135/290/29 129/291/29
f 120/274/30 123/292/30 132/293/30 127/275/30
f 119/267/31 125/294/31 134/295/31 130/268/31
f 123/296/32 122/288/32 129/291/32 132/297/32
g Electric_Kettle_(Handle)_Material.003
usemtl Material.003
f 136/298/7 138/299/7 140/300/7 142/301/7 144/302/7 146/303/7 148/304/7 150/305/7 152/306/7 154/307/7 156/308/7 158/309/7 160/310/7 162/311/7 164/312/7 166/313/7 168/314/7 170/315/7 172/316/7 174/317/7 176/318/7 178/319/7 180/320/7 182/321/7 184/322/7 186/323/7 188/324/7 190/325/7 192/326/7 194/327/7 196/328/7 198/329/7
f 187/330/33 200/331/33 185/332/33
f 200/331/34 183/330/34 185/332/34
f 183/333/35 187/334/35 200/335/35
f 202/336/36 203/337/36 263/338/36 264/339/36
f 206/340/37 202/341/37 264/342/37 265/343/37
f 208/344/38 206/340/38 265/343/38 266/345/38
f 210/346/39 208/344/39 266/345/39 267/347/39
f 212/348/40 210/346/40 267/347/40 268/349/40
f 214/350/41 212/348/41 268/349/41 269/351/41
f 216/352/42 214/350/42 269/351/42 270/353/42
f 218/354/43 216/355/43 270/356/43 271/357/43
f 220/358/44 218/354/44 271/357/44 272/359/44
f 222/360/45 220/361/45 272/362/45 273/363/45
f 224/364/46 222/360/46 273/363/46 274/365/46
f 226/366/47 224/364/47 274/365/47 275/367/47
f 228/368/48 226/366/48 275/367/48 276/369/48
f 230/370/49 228/368/49 276/369/49 277/371/49
f 232/372/50 230/370/50 277/371/50 278/373/50
f 234/374/51 232/375/51 278/376/51 279/377/51
f 236/378/52 234/374/52 279/377/52 280/379/52
f 238/380/53 236/381/53 280/382/53 281/383/53
f 240/384/54 238/380/54 281/383/54 282/385/54
f 242/386/55 240/384/55 282/385/55 283/387/55
f 244/388/56 242/386/56 283/387/56 284/389/56
f 246/390/57 244/388/57 284/389/57 285/391/57
f 248/392/58 246/390/58 285/391/58 286/393/58
f 252/394/59 250/395/59 287/396/59 288/397/59
f 254/398/60 252/394/60 288/397/60 289/399/60
f 256/400/61 254/398/61 289/399/61 290/401/61
f 258/402/62 256/400/62 290/401/62 291/403/62
f 260/404/63 258/402/63 291/403/63 292/405/63
f 262/406/64 260/404/64 292/405/64 293/407/64
f 203/337/65 262/408/65 293/409/65 263/338/65
f 250/410/66 248/411/66 286/412/66 287/413/66
f 139/414/67 137/415/67 203/337/67 202/336/67
f 255/416/68 253/417/68 351/418/68 352/419/68
f 141/420/69 139/414/69 202/336/69 206/421/69
f 137/415/70 199/422/70 262/408/70 203/337/70
f 143/423/71 141/420/71 206/421/71 208/424/71
f 145/425/72 143/423/72 208/424/72 210/426/72
f 147/427/73 145/428/73 210/429/73 212/430/73
f 149/431/74 147/427/74 212/430/74 214/432/74
f 151/433/75 149/431/75 214/432/75 216/355/75
f 153/434/76 151/433/76 216/355/76 218/354/76
f 155/435/77 153/434/77 218/354/77 220/358/77
f 157/436/78 155/435/78 220/358/78 222/437/78
f 159/438/79 157/436/79 222/437/79 224/439/79
f 161/440/80 159/438/80 224/439/80 226/441/80
f 163/442/81 161/443/81 226/444/81 228/445/81
f 165/446/82 163/442/82 228/445/82 230/447/82
f 167/448/83 165/446/83 230/447/83 232/375/83
f 169/449/84 167/448/84 232/375/84 234/374/84
f 171/450/85 169/449/85 234/374/85 236/378/85
f 173/451/86 171/450/86 236/378/86 238/452/86
f 175/453/87 173/451/87 238/452/87 240/454/87
f 177/455/88 175/453/88 240/454/88 242/456/88
f 179/457/89 177/458/89 242/459/89 244/460/89
f 181/461/90 179/457/90 244/460/90 246/462/90
f 183/333/91 181/461/91 246/462/91 248/411/91
f 250/410/24 187/334/24 183/333/24 248/411/24
f 189/463/92 187/334/92 250/410/92 252/464/92
f 191/465/93 189/463/93 252/464/93 254/466/93
f 193/467/94 191/465/94 254/466/94 256/468/94
f 195/469/95 193/470/95 256/471/95 258/472/95
f 197/473/96 195/469/96 258/472/96 260/474/96
f 199/422/97 197/473/97 260/474/97 262/408/97
f 204/475/4 201/476/4 264/342/4 263/477/4
f 201/476/4 205/478/4 265/343/4 264/342/4
f 205/478/4 207/479/4 266/345/4 265/343/4
f 207/479/4 209/480/4 267/347/4 266/345/4
f 209/480/4 211/481/4 268/349/4 267/347/4
f 211/481/4 213/482/4 269/351/4 268/349/4
f 213/482/4 215/483/4 270/353/4 269/351/4
f 215/483/4 217/484/4 271/485/4 270/353/4
f 217/484/4 219/486/4 272/362/4 271/485/4
f 219/486/4 221/487/4 273/363/4 272/362/4
f 221/487/4 223/488/4 274/365/4 273/363/4
f 223/488/4 225/489/4 275/367/4 274/365/4
f 225/489/4 227/490/4 276/369/4 275/367/4
f 227/490/4 229/491/4 277/371/4 276/369/4
f 229/491/4 231/492/4 278/373/4 277/371/4
f 231/492/4 233/493/4 279/494/4 278/373/4
f 233/493/4 235/495/4 280/382/4 279/494/4
f 235/495/4 237/496/4 281/383/4 280/382/4
f 237/496/4 239/497/4 282/385/4 281/383/4
f 239/497/4 241/498/4 283/387/4 282/385/4
f 241/498/4 243/499/4 284/389/4 283/387/4
f 243/499/4 245/500/4 285/391/4 284/389/4
f 245/500/4 247/501/4 286/393/4 285/391/4
f 249/502/4 251/503/4 288/397/4 287/396/4
f 251/503/4 253/504/4 289/399/4 288/397/4
f 253/504/4 255/505/4 290/401/4 289/399/4
f 255/505/4 257/506/4 291/403/4 290/401/4
f 257/506/4 259/507/4 292/405/4 291/403/4
f 259/507/4 261/508/4 293/407/4 292/405/4
f 261/508/4 204/475/4 263/477/4 293/407/4
f 247/501/4 249/502/4 287/396/4 286/393/4
f 313/509/98 312/510/98 374/511/98 375/512/98
f 227/513/99 225/514/99 337/515/99 338/516/99
f 257/517/100 255/518/100 352/519/100 353/520/100
f 229/521/101 227/513/101 338/516/101 339/522/101
f 201/523/102 204/524/102 325/525/102 326/526/102
f 259/527/103 257/517/103 353/520/103 354/528/103
f 231/529/104 229/521/104 339/522/104 340/530/104
f 205/531/105 201/523/105 326/526/105 327/532/105
f 261/533/106 259/527/106 354/528/106 355/534/106
f 233/535/107 231/529/107 340/530/107 341/536/107
f 207/537/108 205/531/108 327/532/108 328/538/108
f 204/524/109 261/533/109 355/534/109 325/525/109
f 235/539/110 233/535/110 341/536/110 342/540/110
f 209/541/111 207/537/111 328/538/111 329/542/111
f 249/543/6 247/544/6 348/545/6 349/546/6
f 237/547/112 235/539/112 342/540/112 343/548/112
f 211/549/113 209/550/113 329/551/113 330/552/113
f 239/553/114 237/547/114 343/548/114 344/554/114
f 213/555/115 211/549/115 330/552/115 331/556/115
f 241/416/116 239/553/116 344/554/116 345/419/116
f 215/557/117 213/555/117 331/556/117 332/558/117
f 243/559/118 241/541/118 345/542/118 346/560/118
f 217/561/119 215/557/119 332/558/119 333/562/119
f 245/563/120 243/559/120 346/560/120 347/564/120
f 219/565/121 217/561/121 333/562/121 334/566/121
f 247/544/122 245/563/122 347/564/122 348/545/122
f 221/567/123 219/565/123 334/566/123 335/568/123
f 251/569/124 249/543/124 349/546/124 350/570/124
f 223/571/125 221/567/125 335/568/125 336/572/125
f 253/417/126 251/569/126 350/570/126 351/418/126
f 225/514/127 223/571/127 336/572/127 337/515/127
f 294/573/4 295/574/4 326/575/4 325/576/4
f 295/574/4 296/577/4 327/578/4 326/575/4
f 296/577/4 297/579/4 328/580/4 327/578/4
f 297/579/4 298/581/4 329/582/4 328/580/4
f 298/581/4 299/583/4 330/584/4 329/582/4
f 299/583/4 300/585/4 331/586/4 330/584/4
f 300/585/4 301/587/4 332/588/4 331/586/4
f 301/587/4 302/589/4 333/590/4 332/588/4
f 302/589/4 303/591/4 334/592/4 333/590/4
f 303/591/4 304/593/4 335/594/4 334/592/4
f 304/593/4 305/595/4 336/596/4 335/594/4
f 305/595/4 306/597/4 337/598/4 336/596/4
f 306/597/4 307/599/4 338/600/4 337/598/4
f 307/599/4 308/601/4 339/602/4 338/600/4
f 308/601/4 309/603/4 340/604/4 339/602/4
f 309/603/4 310/605/4 341/606/4 340/604/4
f 310/605/4 311/607/4 342/608/4 341/606/4
f 311/607/4 312/609/4 343/610/4 342/608/4
f 312/609/4 313/611/4 344/612/4 343/610/4
f 313/611/4 314/613/4 345/614/4 344/612/4
f 314/613/4 315/615/4 346/616/4 345/614/4
f 315/615/4 316/617/4 347/618/4 346/616/4
f 316/617/4 317/619/4 348/620/4 347/618/4
f 318/621/4 319/622/4 350/623/4 349/624/4
f 319/622/4 320/625/4 351/626/4 350/623/4
f 320/625/4 321/627/4 352/628/4 351/626/4
f 321/627/4 322/629/4 353/630/4 352/628/4
f 322/629/4 323/631/4 354/632/4 353/630/4
f 323/631/4 324/633/4 355/634/4 354/632/4
f 324/633/4 294/573/4 325/576/4 355/634/4
f 317/619/4 318/621/4 349/624/4 348/620/4
f 357/635/4 356/636/4 386/637/4 385/638/4 384/639/4 383/640/4 382/641/4 381/642/4 380/643/4 379/644/4 378/645/4 377/646/4 376/647/4 375/648/4 374/649/4 373/650/4 372/651/4 371/652/4 370/653/4 369/654/4 368/655/4 367/656/4 366/657/4 365/658/4 364/659/4 363/660/4 362/661/4 361/662/4 360/663/4 359/664/4 358/665/4
f 300/666/128 299/509/128 361/512/128 362/667/128
f 314/668/129 313/669/129 375/670/129 376/671/129
f 301/672/122 300/666/122 362/667/122 363/673/122
f 315/674/129 314/669/129 376/670/129 377/675/129
f 302/676/130 301/672/130 363/673/130 364/677/130
f 316/678/131 315/679/131 377/680/131 378/681/131
f 303/682/132 302/676/132 364/677/132 365/683/132
f 317/684/133 316/678/133 378/681/133 379/685/133
f 304/686/124 303/682/124 365/683/124 366/687/124
f 319/688/134 318/689/134 380/690/134 381/691/134
f 305/692/135 304/686/135 366/687/135 367/693/135
f 320/694/136 319/688/136 381/691/136 382/695/136
f 306/696/137 305/697/137 367/698/137 368/699/137
f 321/700/138 320/668/138 382/671/138 383/701/138
f 307/702/137 306/674/137 368/675/137 369/703/137
f 322/702/138 321/697/138 383/698/138 384/703/138
f 308/704/139 307/679/139 369/680/139 370/705/139
f 295/706/140 294/707/140 356/708/140 357/709/140
f 323/710/141 322/694/141 384/695/141 385/711/141
f 309/712/106 308/704/106 370/705/106 371/713/106
f 296/714/112 295/706/112 357/709/112 358/715/112
f 324/716/104 323/710/104 385/711/104 386/717/104
f 310/718/142 309/712/142 371/713/142 372/719/142
f 297/696/143 296/714/143 358/715/143 359/699/143
f 294/707/144 324/716/144 386/717/144 356/708/144
f 311/720/145 310/718/145 372/719/145 373/721/145
f 298/722/146 297/723/146 359/724/146 360/725/146
f 318/689/24 317/684/24 379/685/24 380/690/24
f 312/510/105 311/720/105 373/721/105 374/511/105
f 299/722/146 298/700/146 360/701/146 361/725/146
f 445/726/147 443/727/147 523/728/147 521/729/147
f 426/730/148 428/731/148 540/732/148 542/733/148
f 393/734/149 391/735/149 575/736/149 573/737/149
f 444/738/150 446/739/150 522/740/150 524/741/150
f 411/742/151 409/743/151 557/744/151 555/745/151
f 392/746/152 394/747/152 574/748/152 576/749/152
f 429/750/153 427/751/153 539/752/153 537/753/153
f 410/754/154 412/755/154 556/756/154 558/757/154
f 447/758/155 445/726/155 521/729/155 519/759/155
f 428/731/156 430/760/156 538/761/156 540/732/156
f 395/762/157 393/734/157 573/737/157 571/763/157
f 446/739/158 448/764/158 520/765/158 522/740/158
f 413/766/159 411/742/159 555/745/159 553/767/159
f 394/747/160 396/768/160 572/769/160 574/748/160
f 431/770/161 429/750/161 537/753/161 535/771/161
f 412/755/162 414/772/162 554/773/162 556/756/162
f 449/774/163 447/758/163 519/759/163 515/775/163
f 430/760/164 432/776/164 536/777/164 538/761/164
f 397/778/165 395/762/165 571/763/165 569/779/165
f 448/764/166 450/780/166 516/781/166 520/765/166
f 415/782/167 413/766/167 553/767/167 551/783/167
f 396/768/168 398/784/168 570/785/168 572/769/168
f 433/786/169 431/770/169 535/771/169 533/787/169
f 414/772/170 416/788/170 552/789/170 554/773/170
f 388/790/171 449/774/171 515/775/171 518/791/171
f 432/776/172 434/792/172 534/793/172 536/777/172
f 399/794/173 397/778/173 569/779/173 567/795/173
f 417/796/174 415/782/174 551/783/174 549/797/174
f 398/784/175 400/798/175 568/799/175 570/785/175
f 450/780/176 387/800/176 517/801/176 516/781/176
f 435/802/177 433/786/177 533/787/177 531/803/177
f 416/788/178 418/804/178 550/805/178 552/789/178
f 136/806/179 388/807/179 389/808/179 138/809/179
f 198/810/180 449/811/180 388/807/180 136/806/180
f 138/809/181 389/808/181 391/812/181 140/813/181
f 140/813/182 391/812/182 393/814/182 142/815/182
f 142/815/183 393/814/183 395/816/183 144/817/183
f 144/818/184 395/819/184 397/820/184 146/821/184
f 146/821/185 397/820/185 399/822/185 148/823/185
f 148/823/186 399/822/186 401/824/186 150/825/186
f 150/825/187 401/824/187 403/826/187 152/827/187
f 152/827/188 403/826/188 405/828/188 154/829/188
f 154/829/189 405/828/189 407/830/189 156/831/189
f 156/831/190 407/830/190 409/832/190 158/833/190
f 158/833/191 409/832/191 411/834/191 160/835/191
f 160/818/192 411/819/192 413/820/192 162/821/192
f 162/821/193 413/820/193 415/822/193 164/823/193
f 164/823/194 415/822/194 417/824/194 166/825/194
f 166/825/195 417/824/195 419/826/195 168/827/195
f 168/827/196 419/826/196 421/828/196 170/829/196
f 170/829/197 421/828/197 423/830/197 172/831/197
f 172/831/198 423/830/198 425/832/198 174/833/198
f 174/833/199 425/832/199 427/834/199 176/835/199
f 176/836/200 427/837/200 429/838/200 178/839/200
f 178/839/201 429/838/201 431/840/201 180/841/201
f 180/841/202 431/840/202 433/842/202 182/843/202
f 182/843/203 433/842/203 435/844/203 184/845/203
f 184/845/204 435/844/204 437/846/204 186/847/204
f 186/847/205 437/846/205 439/848/205 188/849/205
f 188/849/206 439/848/206 441/850/206 190/851/206
f 190/851/207 441/850/207 443/852/207 192/853/207
f 192/854/208 443/855/208 445/856/208 194/857/208
f 194/857/209 445/856/209 447/858/209 196/859/209
f 196/859/210 447/858/210 449/811/210 198/810/210
f 469/860/211 467/861/211 625/862/211 623/863/211
f 514/864/212 500/865/212 594/866/212 642/867/212
f 504/868/213 506/869/213 588/870/213 590/871/213
f 487/872/214 485/873/214 607/874/214 605/875/214
f 468/876/215 470/877/215 624/878/215 626/879/215
f 486/880/216 488/881/216 606/882/216 608/883/216
f 499/884/217 513/885/217 641/886/217 593/887/217
f 507/888/218 505/889/218 587/890/218 585/891/218
f 471/892/219 469/860/219 623/863/219 621/893/219
f 453/894/220 452/895/220 582/896/220 639/897/220
f 506/869/221 508/898/221 586/899/221 588/870/221
f 489/900/222 487/872/222 605/875/222 603/901/222
f 470/877/223 472/902/223 622/903/223 624/878/223
f 451/904/224 454/905/224 640/906/224 581/907/224
f 488/881/225 490/908/225 604/909/225 606/882/225
f 455/910/226 453/894/226 639/897/226 637/911/226
f 509/912/227 507/888/227 585/891/227 583/913/227
f 473/914/228 471/892/228 621/893/228 619/915/228
f 454/905/229 456/916/229 638/917/229 640/906/229
f 508/898/230 510/918/230 584/919/230 586/899/230
f 491/920/231 489/900/231 603/901/231 601/921/231
f 472/902/232 474/922/232 620/923/232 622/903/232
f 490/908/233 492/924/233 602/925/233 604/909/233
f 457/926/234 455/910/234 637/911/234 635/927/234
f 511/928/235 509/912/235 583/913/235 579/929/235
f 475/930/236 473/914/236 619/915/236 617/931/236
f 456/916/237 458/932/237 636/933/237 638/917/237
f 510/918/238 512/934/238 580/935/238 584/919/238
f 493/936/239 491/920/239 601/921/239 599/937/239
f 474/922/240 476/938/240 618/939/240 620/923/240
f 492/924/241 494/940/241 600/941/241 602/925/241
f 459/942/242 457/926/242 635/927/242 633/943/242
f 512/944/243 199/422/243 137/415/243 451/945/243
f 643/946/244 452/947/244 453/948/244 644/949/244
f 645/950/245 511/951/245 452/947/245 643/946/245
f 451/945/246 137/415/246 139/414/246 454/952/246
f 454/952/247 139/414/247 141/420/247 456/953/247
f 644/949/248 453/948/248 455/954/248 646/955/248
f 456/953/249 141/420/249 143/423/249 458/956/249
f 646/955/250 455/954/250 457/957/250 647/958/250
f 458/956/251 143/423/251 145/425/251 460/959/251
f 647/958/252 457/957/252 459/960/252 648/961/252
f 460/962/253 145/428/253 147/427/253 462/963/253
f 648/964/254 459/965/254 461/966/254 649/967/254
f 462/963/255 147/427/255 149/431/255 464/968/255
f 649/967/256 461/966/256 463/969/256 650/970/256
f 464/968/257 149/431/257 151/433/257 466/971/257
f 650/970/258 463/969/258 465/972/258 651/973/258
f 466/971/259 151/433/259 153/434/259 468/974/259
f 651/973/260 465/972/260 467/975/260 652/976/260
f 468/974/261 153/434/261 155/435/261 470/977/261
f 652/976/262 467/975/262 469/978/262 653/979/262
f 470/977/263 155/435/263 157/436/263 472/980/263
f 653/979/264 469/978/264 471/981/264 654/982/264
f 472/980/265 157/436/265 159/438/265 474/983/265
f 654/982/266 471/981/266 473/984/266 655/985/266
f 474/983/267 159/438/267 161/440/267 476/986/267
f 655/985/268 473/984/268 475/987/268 656/988/268
f 476/989/269 161/443/269 163/442/269 478/990/269
f 656/991/270 475/992/270 477/993/270 657/994/270
f 478/990/271 163/442/271 165/446/271 480/995/271
f 657/994/272 477/993/272 479/996/272 658/997/272
f 480/995/273 165/446/273 167/448/273 482/998/273
f 658/997/274 479/996/274 481/999/274 659/1000/274
f 482/998/275 167/448/275 169/449/275 484/1001/275
f 659/1000/276 481/999/276 483/1002/276 660/1003/276
f 484/1001/277 169/449/277 171/450/277 486/1004/277
f 660/1003/278 483/1002/278 485/1005/278 661/1006/278
f 486/1004/279 171/450/279 173/451/279 488/1007/279
f 661/1006/280 485/1005/280 487/1008/280 662/1009/280
f 488/1007/281 173/451/281 175/453/281 490/1010/281
f 662/1009/282 487/1008/282 489/1011/282 663/1012/282
f 490/1010/283 175/453/283 177/455/283 492/1013/283
f 663/1012/284 489/1011/284 491/1014/284 664/1015/284
f 492/1016/285 177/458/285 179/457/285 494/1017/285
f 664/1018/286 491/1019/286 493/1020/286 665/1021/286
f 494/1017/287 179/457/287 181/461/287 496/1022/287
f 665/1021/288 493/1020/288 495/1023/288 666/1024/288
f 496/1022/289 181/461/289 183/333/289 497/1025/289
f 666/1024/290 495/1023/290 498/1026/290 667/1027/290
f 514/1028/291 497/1025/291 183/333/291 200/335/291
f 667/1027/292 668/1029/292 436/1030/292 434/1031/292
f 500/1032/293 514/1028/293 200/335/293 187/334/293
f 668/1029/294 513/1033/294 499/1034/294 669/1035/294
f 500/1032/295 187/334/295 189/463/295 502/1036/295
f 669/1035/296 499/1034/296 501/1037/296 670/1038/296
f 502/1036/297 189/463/297 191/465/297 504/1039/297
f 670/1038/298 501/1037/298 503/1040/298 671/1041/298
f 504/1039/299 191/465/299 193/467/299 506/1042/299
f 671/1041/300 503/1040/300 505/1043/300 672/1044/300
f 506/1045/301 193/470/301 195/469/301 508/1046/301
f 672/1047/302 505/1048/302 507/1049/302 673/1050/302
f 508/1046/303 195/469/303 197/473/303 510/1051/303
f 673/1050/304 507/1049/304 509/1052/304 674/1053/304
f 510/1051/305 197/473/305 199/422/305 512/944/305
f 674/1053/306 509/1052/306 511/951/306 645/950/306
f 516/1054/307 517/1055/307 518/1056/307 515/1057/307
f 520/1058/308 516/1054/308 515/1057/308 519/1059/308
f 522/1060/309 520/1058/309 519/1059/309 521/1061/309
f 524/1062/310 522/1060/310 521/1061/310 523/1063/310
f 526/1064/311 524/1065/311 523/1066/311 525/1067/311
f 528/1068/312 526/1064/312 525/1067/312 527/1069/312
f 530/1070/313 528/1068/313 527/1069/313 529/1071/313
f 532/1055/314 530/1070/314 529/1071/314 531/1056/314
f 534/1054/315 532/1055/315 531/1056/315 533/1057/315
f 536/1058/316 534/1054/316 533/1057/316 535/1059/316
f 538/1060/317 536/1058/317 535/1059/317 537/1061/317
f 540/1062/318 538/1060/318 537/1061/318 539/1063/318
f 542/1060/319 540/1062/319 539/1063/319 541/1061/319
f 544/1058/320 542/1060/320 541/1061/320 543/1059/320
f 546/1054/321 544/1058/321 543/1059/321 545/1057/321
f 548/1055/322 546/1054/322 545/1057/322 547/1056/322
f 550/1070/323 548/1055/323 547/1056/323 549/1071/323
f 552/1068/324 550/1070/324 549/1071/324 551/1069/324
f 554/1064/325 552/1068/325 551/1069/325 553/1067/325
f 556/1065/326 554/1064/326 553/1067/326 555/1066/326
f 558/1060/327 556/1062/327 555/1063/327 557/1061/327
f 560/1058/328 558/1060/328 557/1061/328 559/1059/328
f 562/1054/329 560/1058/329 559/1059/329 561/1057/329
f 564/1055/330 562/1054/330 561/1057/330 563/1056/330
f 566/1070/331 564/1055/331 563/1056/331 565/1071/331
f 568/1068/332 566/1070/332 565/1071/332 567/1069/332
f 570/1064/333 568/1068/333 567/1069/333 569/1067/333
f 572/1065/334 570/1064/334 569/1067/334 571/1066/334
f 574/1064/335 572/1065/335 571/1066/335 573/1067/335
f 576/1068/336 574/1064/336 573/1067/336 575/1069/336
f 578/1070/337 576/1068/337 575/1069/337 577/1071/337
f 517/1055/338 578/1070/338 577/1071/338 518/1056/338
f 408/1072/339 410/754/339 558/757/339 560/1073/339
f 427/751/340 425/1074/340 541/1075/340 539/752/340
f 390/1076/341 392/746/341 576/749/341 578/1077/341
f 409/743/342 407/1078/342 559/1079/342 557/744/342
f 442/1080/343 444/738/343 524/741/343 526/1081/343
f 391/735/344 389/1082/344 577/1083/344 575/736/344
f 424/1084/345 426/730/345 542/733/345 544/1085/345
f 443/727/346 441/1086/346 525/1087/346 523/728/346
f 387/800/347 390/1076/347 578/1077/347 517/801/347
f 406/1088/348 408/1072/348 560/1073/348 562/1089/348
f 425/1074/349 423/1090/349 543/1091/349 541/1075/349
f 389/1082/350 388/790/350 518/791/350 577/1083/350
f 407/1078/351 405/1092/351 561/1093/351 559/1079/351
f 440/1094/352 442/1080/352 526/1081/352 528/1095/352
f 422/1096/353 424/1084/353 544/1085/353 546/1097/353
f 441/1086/354 439/1098/354 527/1099/354 525/1087/354
f 404/1100/355 406/1088/355 562/1089/355 564/1101/355
f 423/1090/356 421/1102/356 545/1103/356 543/1091/356
f 405/1092/357 403/1104/357 563/1105/357 561/1093/357
f 438/1106/358 440/1094/358 528/1095/358 530/1107/358
f 420/1108/359 422/1096/359 546/1097/359 548/1109/359
f 439/1098/360 437/1110/360 529/1111/360 527/1099/360
f 402/1112/361 404/1100/361 564/1101/361 566/1113/361
f 421/1102/362 419/1114/362 547/1115/362 545/1103/362
f 403/1104/363 401/1116/363 565/1117/363 563/1105/363
f 436/1118/364 438/1106/364 530/1107/364 532/1119/364
f 418/804/365 420/1108/365 548/1109/365 550/805/365
f 437/1110/366 435/802/366 531/803/366 529/1111/366
f 400/798/367 402/1112/367 566/1113/367 568/799/367
f 419/1114/368 417/796/368 549/797/368 547/1115/368
f 401/1116/369 399/794/369 567/795/369 565/1117/369
f 434/792/370 436/1118/370 532/1119/370 534/793/370
f 580/1120/371 581/1121/371 582/1122/371 579/1123/371
f 584/1124/372 580/1120/372 579/1123/372 583/1125/372
f 586/1126/373 584/1124/373 583/1125/373 585/1127/373
f 588/1128/374 586/1126/374 585/1127/374 587/1129/374
f 590/1130/375 588/1131/375 587/1132/375 589/1133/375
f 592/1134/376 590/1130/376 589/1133/376 591/1135/376
f 594/1136/377 592/1134/377 591/1135/377 593/1137/377
f 596/1138/378 597/1139/378 598/1140/378 595/1141/378
f 600/1142/379 596/1138/379 595/1141/379 599/1143/379
f 602/1144/380 600/1142/380 599/1143/380 601/1145/380
f 604/1146/381 602/1147/381 601/1148/381 603/1149/381
f 606/1150/382 604/1146/382 603/1149/382 605/1151/382
f 608/1152/383 606/1150/383 605/1151/383 607/1153/383
f 610/1154/384 608/1152/384 607/1153/384 609/1155/384
f 612/1156/385 610/1154/385 609/1155/385 611/1157/385
f 614/1158/386 612/1156/386 611/1157/386 613/1159/386
f 616/1160/387 614/1158/387 613/1159/387 615/1161/387
f 618/1162/388 616/1160/388 615/1161/388 617/1163/388
f 620/1164/389 618/1165/389 617/1166/389 619/1167/389
f 622/1168/390 620/1164/390 619/1167/390 621/1169/390
f 624/1170/391 622/1168/391 621/1169/391 623/1171/391
f 626/1172/392 624/1170/392 623/1171/392 625/1173/392
f 628/1174/393 626/1172/393 625/1173/393 627/1175/393
f 630/1176/394 628/1174/394 627/1175/394 629/1177/394
f 632/1178/395 630/1176/395 629/1177/395 631/1179/395
f 634/1180/396 632/1178/396 631/1179/396 633/1181/396
f 636/1182/397 634/1183/397 633/1184/397 635/1185/397
f 638/1186/398 636/1182/398 635/1185/398 637/1187/398
f 640/1188/399 638/1186/399 637/1187/399 639/1189/399
f 581/1121/400 640/1188/400 639/1189/400 582/1122/400
f 593/1137/401 641/1190/401 642/1191/401 594/1136/401
f 641/1190/402 598/1140/402 597/1139/402 642/1191/402
f 505/889/403 503/1192/403 589/1193/403 587/890/403
f 513/885/404 498/1194/404 598/1195/404 641/886/404
f 484/1196/405 486/880/405 608/883/405 610/1197/405
f 497/1198/406 514/864/406 642/867/406 597/1199/406
f 466/1200/407 468/876/407 626/879/407 628/1201/407
f 485/873/408 483/1202/408 609/1203/408 607/874/408
f 502/1204/409 504/868/409 590/871/409 592/1205/409
f 467/861/410 465/1206/410 627/1207/410 625/862/410
f 503/1192/411 501/1208/411 591/1209/411 589/1193/411
f 482/1210/412 484/1196/412 610/1197/412 612/1211/412
f 464/1212/413 466/1200/413 628/1201/413 630/1213/413
f 483/1202/414 481/1214/414 611/1215/414 609/1203/414
f 500/865/415 502/1204/415 592/1205/415 594/866/415
f 465/1206/416 463/1216/416 629/1217/416 627/1207/416
f 501/1208/417 499/884/417 593/887/417 591/1209/417
f 480/1218/418 482/1210/418 612/1211/418 614/1219/418
f 462/1220/419 464/1212/419 630/1213/419 632/1221/419
f 481/1214/420 479/1222/420 613/1223/420 611/1215/420
f 496/1224/421 497/1198/421 597/1199/421 596/1225/421
f 463/1216/422 461/1226/422 631/1227/422 629/1217/422
f 478/1228/423 480/1218/423 614/1219/423 616/1229/423
f 498/1194/424 495/1230/424 595/1231/424 598/1195/424
f 460/1232/425 462/1220/425 632/1221/425 634/1233/425
f 479/1222/426 477/1234/426 615/1235/426 613/1223/426
f 461/1226/427 459/942/427 633/943/427 631/1227/427
f 494/940/428 496/1224/428 596/1225/428 600/941/428
f 512/934/429 451/904/429 581/907/429 580/935/429
f 476/938/430 478/1228/430 616/1229/430 618/939/430
f 495/1230/431 493/936/431 599/937/431 595/1231/431
f 458/932/432 460/1232/432 634/1233/432 636/933/432
f 477/1234/433 475/930/433 617/931/433 615/1235/433
f 452/895/434 511/928/434 579/929/434 582/896/434
f 448/1236/435 674/1053/435 645/950/435 450/1237/435
f 446/1238/436 673/1050/436 674/1053/436 448/1236/436
f 444/1239/437 672/1047/437 673/1050/437 446/1238/437
f 442/1240/438 671/1041/438 672/1044/438 444/1241/438
f 440/1242/439 670/1038/439 671/1041/439 442/1240/439
f 438/1243/440 669/1035/440 670/1038/440 440/1242/440
f 436/1030/441 668/1029/441 669/1035/441 438/1243/441
f 498/1026/442 513/1033/442 668/1029/442 667/1027/442
f 432/1244/443 666/1024/443 667/1027/443 434/1031/443
f 430/1245/444 665/1021/444 666/1024/444 432/1244/444
f 428/1246/445 664/1018/445 665/1021/445 430/1245/445
f 426/1247/446 663/1012/446 664/1015/446 428/1248/446
f 424/1249/447 662/1009/447 663/1012/447 426/1247/447
f 422/1250/448 661/1006/448 662/1009/448 424/1249/448
f 420/1251/449 660/1003/449 661/1006/449 422/1250/449
f 418/1252/450 659/1000/450 660/1003/450 420/1251/450
f 416/1253/451 658/997/451 659/1000/451 418/1252/451
f 414/1254/452 657/994/452 658/997/452 416/1253/452
f 412/1255/453 656/991/453 657/994/453 414/1254/453
f 410/1256/454 655/985/454 656/988/454 412/1257/454
f 408/1258/455 654/982/455 655/985/455 410/1256/455
f 406/1259/456 653/979/456 654/982/456 408/1258/456
f 404/1260/457 652/976/457 653/979/457 406/1259/457
f 402/1261/458 651/973/458 652/976/458 404/1260/458
f 400/1262/459 650/970/459 651/973/459 402/1261/459
f 398/1263/460 649/967/460 650/970/460 400/1262/460
f 396/1264/461 648/964/461 649/967/461 398/1263/461
f 394/1265/462 647/958/462 648/961/462 396/1266/462
f 392/1267/463 646/955/463 647/958/463 394/1265/463
f 390/1268/464 644/949/464 646/955/464 392/1267/464
f 450/1237/465 645/950/465 643/946/465 387/1269/465
f 387/1269/466 643/946/466 644/949/466 390/1268/466
