# Blender 5.0.0
# www.blender.org
mtllib Flashlight.mtl
o Flashlight
v -0.505144 0.000000 -0.124001
v 0.505144 -0.000000 -0.124001
v -0.505144 -0.024191 -0.121619
v 0.505144 -0.024191 -0.121619
v -0.505144 -0.047453 -0.114562
v 0.505144 -0.047453 -0.114562
v -0.505144 -0.068891 -0.103103
v 0.505144 -0.068891 -0.103103
v -0.505144 -0.087682 -0.087682
v 0.505144 -0.087682 -0.087682
v -0.505144 -0.103103 -0.068891
v 0.505144 -0.103103 -0.068891
v -0.505144 -0.114562 -0.047453
v 0.505144 -0.114562 -0.047453
v -0.505144 -0.121619 -0.024191
v 0.505144 -0.121619 -0.024191
v -0.505144 -0.124001 0.000000
v 0.505144 -0.124001 0.000000
v -0.505144 -0.121619 0.024191
v 0.505144 -0.121619 0.024191
v -0.505144 -0.114562 0.047453
v 0.505144 -0.114562 0.047453
v -0.505144 -0.103103 0.068891
v 0.505144 -0.103103 0.068891
v -0.505144 -0.087682 0.087682
v 0.505144 -0.087682 0.087682
v -0.505144 -0.068891 0.103103
v 0.505144 -0.068891 0.103103
v -0.505144 -0.047453 0.114562
v 0.505144 -0.047453 0.114562
v -0.505144 -0.024191 0.121619
v 0.505144 -0.024191 0.121619
v -0.505144 0.000000 0.124001
v 0.505144 -0.000000 0.124001
v -0.505144 0.024191 0.121619
v 0.505144 0.024191 0.121619
v -0.505144 0.047453 0.114562
v 0.505144 0.047453 0.114562
v -0.505144 0.068891 0.103103
v 0.505144 0.068891 0.103103
v -0.505144 0.087682 0.087682
v 0.505144 0.087682 0.087682
v -0.505144 0.103103 0.068891
v 0.505144 0.103103 0.068891
v -0.505144 0.114562 0.047453
v 0.505144 0.114562 0.047453
v -0.505144 0.121619 0.024191
v 0.505144 0.121619 0.024191
v -0.505144 0.124001 0.000000
v 0.505144 0.124001 0.000000
v -0.505144 0.121619 -0.024191
v 0.505144 0.121619 -0.024191
v -0.505144 0.114562 -0.047453
v 0.505144 0.114562 -0.047453
v -0.505144 0.103103 -0.068891
v 0.505144 0.103103 -0.068891
v -0.505144 0.087682 -0.087682
v 0.505144 0.087682 -0.087682
v -0.505144 0.068891 -0.103103
v 0.505144 0.068891 -0.103103
v -0.505144 0.047453 -0.114562
v 0.505144 0.047453 -0.114562
v -0.505144 0.024191 -0.121619
v 0.505144 0.024191 -0.121619
v 0.629576 -0.044122 -0.221814
v 0.629576 -0.000000 -0.226159
v 0.629576 -0.086547 -0.208944
v 0.629576 -0.125647 -0.188045
v 0.629576 -0.159919 -0.159919
v 0.629576 -0.188045 -0.125647
v 0.629576 -0.208944 -0.086547
v 0.629576 -0.221814 -0.044122
v 0.629576 -0.226159 0.000000
v 0.629576 -0.221814 0.044122
v 0.629576 -0.208944 0.086547
v 0.629576 -0.188045 0.125647
v 0.629576 -0.159919 0.159919
v 0.629576 -0.125647 0.188045
v 0.629576 -0.086547 0.208944
v 0.629576 -0.044122 0.221814
v 0.629576 -0.000000 0.226159
v 0.629576 0.044121 0.221814
v 0.629576 0.086547 0.208944
v 0.629576 0.125647 0.188045
v 0.629576 0.159919 0.159919
v 0.629576 0.188045 0.125647
v 0.629576 0.208944 0.086547
v 0.629576 0.221814 0.044122
v 0.629576 0.226159 0.000000
v 0.629576 0.221814 -0.044122
v 0.629576 0.208944 -0.086547
v 0.629576 0.188045 -0.125647
v 0.629576 0.159919 -0.159919
v 0.629576 0.125647 -0.188045
v 0.629576 0.086547 -0.208944
v 0.629576 0.044121 -0.221814
v 0.693013 -0.037469 -0.188369
v 0.693013 -0.000000 -0.192059
v 0.693013 -0.073498 -0.177439
v 0.693013 -0.106702 -0.159691
v 0.693013 -0.135806 -0.135806
v 0.693013 -0.159691 -0.106702
v 0.693013 -0.177439 -0.073498
v 0.693013 -0.188369 -0.037469
v 0.693013 -0.192059 0.000000
v 0.693013 -0.188369 0.037469
v 0.693013 -0.177439 0.073498
v 0.693013 -0.159691 0.106702
v 0.693013 -0.135806 0.135806
v 0.693013 -0.106702 0.159691
v 0.693013 -0.073498 0.177439
v 0.693013 -0.037469 0.188369
v 0.693013 -0.000000 0.192059
v 0.693013 0.037469 0.188369
v 0.693013 0.073498 0.177439
v 0.693013 0.106702 0.159691
v 0.693013 0.135806 0.135806
v 0.693013 0.159691 0.106702
v 0.693013 0.177439 0.073498
v 0.693013 0.188369 0.037469
v 0.693013 0.192059 0.000000
v 0.693013 0.188369 -0.037469
v 0.693013 0.177439 -0.073498
v 0.693013 0.159691 -0.106702
v 0.693013 0.135806 -0.135806
v 0.693013 0.106702 -0.159691
v 0.693013 0.073498 -0.177439
v 0.693013 0.037469 -0.188369
v 0.693013 -0.044122 -0.221814
v 0.693013 -0.000000 -0.226159
v 0.693013 -0.086547 -0.208944
v 0.693013 -0.125647 -0.188045
v 0.693013 -0.159919 -0.159919
v 0.693013 -0.188045 -0.125647
v 0.693013 -0.208944 -0.086547
v 0.693013 -0.221814 -0.044122
v 0.693013 -0.226159 0.000000
v 0.693013 -0.221814 0.044122
v 0.693013 -0.208944 0.086547
v 0.693013 -0.188045 0.125647
v 0.693013 -0.159919 0.159919
v 0.693013 -0.125647 0.188045
v 0.693013 -0.086547 0.208944
v 0.693013 -0.044122 0.221814
v 0.693013 -0.000000 0.226159
v 0.693013 0.044121 0.221814
v 0.693013 0.086547 0.208944
v 0.693013 0.125647 0.188045
v 0.693013 0.159919 0.159919
v 0.693013 0.188045 0.125647
v 0.693013 0.208944 0.086547
v 0.693013 0.221814 0.044122
v 0.693013 0.226159 0.000000
v 0.693013 0.221814 -0.044122
v 0.693013 0.208944 -0.086547
v 0.693013 0.188045 -0.125647
v 0.693013 0.159919 -0.159919
v 0.693013 0.125647 -0.188045
v 0.693013 0.086547 -0.208944
v 0.693013 0.044121 -0.221814
v 0.633160 -0.037469 -0.188369
v 0.633160 -0.000000 -0.192059
v 0.633160 -0.073498 -0.177439
v 0.633160 -0.106702 -0.159691
v 0.633160 -0.135806 -0.135806
v 0.633160 -0.159691 -0.106702
v 0.633160 -0.177439 -0.073498
v 0.633160 -0.188369 -0.037469
v 0.633160 -0.192059 0.000000
v 0.633160 -0.188369 0.037469
v 0.633160 -0.177439 0.073498
v 0.633160 -0.159691 0.106702
v 0.633160 -0.135806 0.135806
v 0.633160 -0.106702 0.159691
v 0.633160 -0.073498 0.177439
v 0.633160 -0.037469 0.188369
v 0.633160 -0.000000 0.192059
v 0.633160 0.037469 0.188369
v 0.633160 0.073498 0.177439
v 0.633160 0.106702 0.159691
v 0.633160 0.135806 0.135806
v 0.633160 0.159691 0.106702
v 0.633160 0.177439 0.073498
v 0.633160 0.188369 0.037469
v 0.633160 0.192059 0.000000
v 0.633160 0.188369 -0.037469
v 0.633160 0.177439 -0.073498
v 0.633160 0.159691 -0.106702
v 0.633160 0.135806 -0.135806
v 0.633160 0.106702 -0.159691
v 0.633160 0.073498 -0.177439
v 0.633160 0.037469 -0.188369
vn -0.0000 -0.0980 -0.9952
vn -0.0000 -0.2903 -0.9569
vn -0.0000 -0.4714 -0.8819
vn -0.0000 -0.6344 -0.7730
vn -0.0000 -0.7730 -0.6344
vn -0.0000 -0.8819 -0.4714
vn -0.0000 -0.9569 -0.2903
vn -0.0000 -0.9952 -0.0980
vn -0.0000 -0.9952 0.0980
vn -0.0000 -0.9569 0.2903
vn -0.0000 -0.8819 0.4714
vn -0.0000 -0.7730 0.6344
vn -0.0000 -0.6344 0.7730
vn -0.0000 -0.4714 0.8819
vn -0.0000 -0.2903 0.9569
vn -0.0000 -0.0980 0.9952
vn -0.0000 0.0980 0.9952
vn -0.0000 0.2903 0.9569
vn -0.0000 0.4714 0.8819
vn -0.0000 0.6344 0.7730
vn -0.0000 0.7730 0.6344
vn -0.0000 0.8819 0.4714
vn -0.0000 0.9569 0.2903
vn -0.0000 0.9952 0.0980
vn -0.0000 0.9952 -0.0980
vn -0.0000 0.9569 -0.2903
vn -0.0000 0.8819 -0.4714
vn -0.0000 0.7730 -0.6344
vn -0.0000 0.6344 -0.7730
vn -0.0000 0.4714 -0.8819
vn -0.6327 0.7410 -0.2248
vn -0.0000 0.2903 -0.9569
vn -0.0000 0.0980 -0.9952
vn -1.0000 -0.0000 -0.0000
vn -0.6327 -0.4913 -0.5986
vn -0.6327 -0.4913 0.5986
vn -0.6327 0.6830 0.3650
vn -0.6327 0.2248 -0.7410
vn -0.6327 -0.7707 0.0759
vn -0.6327 0.2248 0.7410
vn -0.6327 0.6830 -0.3650
vn -0.6327 -0.5986 -0.4913
vn -0.6327 -0.3650 0.6830
vn -0.6327 0.7410 0.2248
vn -0.6327 -0.0759 -0.7707
vn -0.6327 0.0759 -0.7707
vn -0.6327 -0.7410 0.2248
vn -0.6327 0.3650 0.6830
vn -0.6327 0.5986 -0.4913
vn -0.6327 -0.6830 -0.3650
vn -0.6327 -0.2248 0.7410
vn -0.6327 0.7707 0.0759
vn -0.6327 -0.2248 -0.7410
vn -0.6327 -0.6830 0.3650
vn -0.6327 0.4913 0.5986
vn -0.6327 0.4913 -0.5986
vn -0.6327 -0.7410 -0.2248
vn -0.6327 -0.0759 0.7707
vn -0.6327 0.7707 -0.0759
vn -0.6327 -0.3650 -0.6830
vn -0.6327 -0.5986 0.4913
vn -0.6327 0.5986 0.4913
vn -0.6327 0.3650 -0.6830
vn -0.6327 -0.7707 -0.0759
vn -0.6327 0.0759 0.7707
vn 1.0000 -0.0000 -0.0000
vt 0.859375 0.421875
vt 0.859375 0.671875
vt 0.875000 0.671875
vt 0.875000 0.421875
vt 0.906250 0.671875
vt 0.906250 0.421875
vt 0.921875 0.671875
vt 0.921875 0.421875
vt 0.937500 0.671875
vt 0.937500 0.421875
vt 0.828125 0.671875
vt 0.828125 0.421875
vt 0.796875 0.671875
vt 0.796875 0.421875
vt 0.781250 0.671875
vt 0.781250 0.421875
vt 0.765625 0.671875
vt 0.765625 0.421875
vt 0.671875 0.687500
vt 0.671875 0.953125
vt 0.656250 0.953125
vt 0.656250 0.687500
vt 0.625000 0.953125
vt 0.625000 0.687500
vt 0.609375 0.953125
vt 0.609375 0.687500
vt 0.578125 0.953125
vt 0.578125 0.687500
vt 0.562500 0.953125
vt 0.562500 0.687500
vt 0.531250 0.953125
vt 0.531250 0.687500
vt 0.515625 0.953125
vt 0.515625 0.687500
vt 0.484375 0.953125
vt 0.484375 0.687500
vt 0.127677 0.289998
vt 0.120611 0.266705
vt 0.020283 0.286661
vt 0.033170 0.329144
vt 0.616748 0.669786
vt 0.640454 0.667451
vt 0.663248 0.660537
vt 0.684256 0.649308
vt 0.702670 0.634196
vt 0.717781 0.615783
vt 0.729010 0.594775
vt 0.735925 0.571980
vt 0.738259 0.548274
vt 0.735925 0.524569
vt 0.729010 0.501774
vt 0.717781 0.480766
vt 0.702670 0.462353
vt 0.684256 0.447241
vt 0.663248 0.436012
vt 0.640454 0.429098
vt 0.616748 0.426763
vt 0.593042 0.429098
vt 0.570247 0.436012
vt 0.549240 0.447241
vt 0.530826 0.462353
vt 0.515715 0.480766
vt 0.504486 0.501774
vt 0.497571 0.524569
vt 0.495236 0.548274
vt 0.497571 0.571980
vt 0.504486 0.594775
vt 0.515715 0.615783
vt 0.530826 0.634196
vt 0.549240 0.649308
vt 0.570247 0.660537
vt 0.593042 0.667451
vt 0.734375 0.968750
vt 0.781250 0.968750
vt 0.781250 0.984375
vt 0.734375 0.984375
vt 0.330189 0.330280
vt 0.311373 0.345721
vt 0.368205 0.430775
vt 0.402521 0.402612
vt 0.311373 0.139241
vt 0.330189 0.154683
vt 0.402521 0.082351
vt 0.368205 0.054188
vt 0.127677 0.194965
vt 0.139151 0.173499
vt 0.054097 0.116667
vt 0.033170 0.155819
vt 0.218167 0.364261
vt 0.194875 0.357195
vt 0.155729 0.451702
vt 0.198211 0.464589
vt 0.364171 0.218258
vt 0.366556 0.242481
vt 0.468850 0.242481
vt 0.464498 0.198301
vt 0.194875 0.127767
vt 0.218167 0.120702
vt 0.198211 0.020374
vt 0.155729 0.033260
vt 0.139151 0.311464
vt 0.054097 0.368295
vt 0.345631 0.311464
vt 0.430685 0.368295
vt 0.289907 0.127767
vt 0.329053 0.033260
vt 0.120611 0.218258
vt 0.020283 0.198301
vt 0.266614 0.364261
vt 0.242391 0.366647
vt 0.242391 0.468940
vt 0.286571 0.464589
vt 0.357105 0.194965
vt 0.451612 0.155819
vt 0.173408 0.139241
vt 0.116577 0.054188
vt 0.154592 0.330280
vt 0.082260 0.402612
vt 0.357105 0.289998
vt 0.451612 0.329144
vt 0.266614 0.120702
vt 0.286571 0.020374
vt 0.118225 0.242481
vt 0.015932 0.242481
vt 0.289907 0.357195
vt 0.329053 0.451702
vt 0.345631 0.173499
vt 0.430685 0.116667
vt 0.154592 0.154683
vt 0.082260 0.082351
vt 0.173408 0.345721
vt 0.116577 0.430775
vt 0.364171 0.266705
vt 0.464498 0.286661
vt 0.242391 0.118316
vt 0.242391 0.016022
vt 0.750000 0.703125
vt 0.781250 0.703125
vt 0.781250 0.687500
vt 0.750000 0.687500
vt 0.015625 0.968750
vt 0.046875 0.968750
vt 0.046875 0.984375
vt 0.015625 0.984375
vt 0.703125 0.968750
vt 0.703125 0.984375
vt 0.656250 0.968750
vt 0.656250 0.984375
vt 0.093750 0.968750
vt 0.093750 0.984375
vt 0.609375 0.968750
vt 0.609375 0.984375
vt 0.125000 0.968750
vt 0.125000 0.984375
vt 0.562500 0.968750
vt 0.562500 0.984375
vt 0.171875 0.968750
vt 0.171875 0.984375
vt 0.515625 0.968750
vt 0.515625 0.984375
vt 0.218750 0.968750
vt 0.218750 0.984375
vt 0.484375 0.968750
vt 0.484375 0.984375
vt 0.265625 0.968750
vt 0.265625 0.984375
vt 0.312500 0.968750
vt 0.343750 0.968750
vt 0.343750 0.984375
vt 0.312500 0.984375
vt 0.812500 0.968750
vt 0.812500 0.984375
vt 0.242391 0.907743
vt 0.279107 0.904127
vt 0.285626 0.936901
vt 0.242391 0.941159
vt 0.314413 0.893417
vt 0.327200 0.924289
vt 0.346951 0.876025
vt 0.365515 0.903810
vt 0.375470 0.852620
vt 0.399099 0.876249
vt 0.398876 0.824100
vt 0.426660 0.842665
vt 0.416267 0.791563
vt 0.447140 0.804350
vt 0.426977 0.756257
vt 0.459751 0.762776
vt 0.430593 0.719541
vt 0.464009 0.719541
vt 0.426977 0.682824
vt 0.459751 0.676305
vt 0.416267 0.647518
vt 0.447140 0.634731
vt 0.398876 0.614981
vt 0.426660 0.596416
vt 0.375470 0.586461
vt 0.399099 0.562833
vt 0.346951 0.563056
vt 0.365515 0.535271
vt 0.314413 0.545664
vt 0.327200 0.514792
vt 0.279107 0.534954
vt 0.285626 0.502180
vt 0.242391 0.531338
vt 0.242391 0.497922
vt 0.205674 0.534954
vt 0.199155 0.502180
vt 0.170369 0.545664
vt 0.157581 0.514792
vt 0.137831 0.563056
vt 0.119266 0.535271
vt 0.109311 0.586461
vt 0.085683 0.562833
vt 0.085906 0.614981
vt 0.058122 0.596416
vt 0.068514 0.647518
vt 0.037642 0.634731
vt 0.057804 0.682824
vt 0.025031 0.676305
vt 0.054188 0.719541
vt 0.020772 0.719541
vt 0.057804 0.756257
vt 0.025031 0.762776
vt 0.068514 0.791563
vt 0.037642 0.804350
vt 0.085906 0.824100
vt 0.058122 0.842665
vt 0.109311 0.852620
vt 0.085683 0.876249
vt 0.137831 0.876025
vt 0.119266 0.903810
vt 0.170369 0.893417
vt 0.157581 0.924289
vt 0.205674 0.904127
vt 0.199155 0.936901
vt 0.721884 0.392786
vt 0.685168 0.396402
vt 0.648451 0.392786
vt 0.613146 0.382076
vt 0.580608 0.364684
vt 0.552088 0.341279
vt 0.528683 0.312759
vt 0.511291 0.280221
vt 0.500581 0.244916
vt 0.496965 0.208199
vt 0.500581 0.171483
vt 0.511291 0.136177
vt 0.528683 0.103639
vt 0.552088 0.075120
vt 0.580608 0.051714
vt 0.613146 0.034323
vt 0.648451 0.023613
vt 0.685168 0.019996
vt 0.721884 0.023613
vt 0.757190 0.034323
vt 0.789728 0.051714
vt 0.818247 0.075120
vt 0.841653 0.103639
vt 0.859044 0.136177
vt 0.869754 0.171483
vt 0.873371 0.208199
vt 0.869754 0.244916
vt 0.859045 0.280221
vt 0.841653 0.312759
vt 0.818247 0.341279
vt 0.789728 0.364684
vt 0.757190 0.382076
vt 0.828125 0.750000
vt 0.781250 0.750000
vt 0.781250 0.734375
vt 0.828125 0.734375
vt 0.718750 0.703125
vt 0.718750 0.687500
vt 0.859375 0.750000
vt 0.859375 0.734375
vt 0.687500 0.703125
vt 0.687500 0.687500
vt 0.906250 0.750000
vt 0.906250 0.734375
vt 0.937500 0.750000
vt 0.968750 0.750000
vt 0.968750 0.734375
vt 0.937500 0.734375
vt 0.859375 0.703125
vt 0.828125 0.703125
vt 0.828125 0.687500
vt 0.859375 0.687500
vt 0.906250 0.703125
vt 0.906250 0.687500
vt 0.937500 0.703125
vt 0.937500 0.687500
vt 0.968750 0.703125
vt 0.968750 0.687500
vt 0.750000 0.750000
vt 0.750000 0.734375
vt 0.718750 0.750000
vt 0.718750 0.734375
vt 0.687500 0.750000
vt 0.687500 0.734375
s 0
g Flashlight_Material.003
usemtl Material.003
f 1/1/1 2/2/1 4/3/1 3/4/1
f 3/4/2 4/3/2 6/5/2 5/6/2
f 5/6/3 6/5/3 8/7/3 7/8/3
f 7/8/4 8/7/4 10/9/4 9/10/4
f 9/10/5 10/9/5 12/7/5 11/8/5
f 11/8/6 12/7/6 14/5/6 13/6/6
f 13/6/7 14/5/7 16/3/7 15/4/7
f 15/4/8 16/3/8 18/2/8 17/1/8
f 17/1/9 18/2/9 20/11/9 19/12/9
f 19/12/10 20/11/10 22/13/10 21/14/10
f 21/14/11 22/13/11 24/15/11 23/16/11
f 23/16/12 24/15/12 26/17/12 25/18/12
f 25/19/13 26/20/13 28/21/13 27/22/13
f 27/22/14 28/21/14 30/23/14 29/24/14
f 29/24/15 30/23/15 32/25/15 31/26/15
f 31/26/16 32/25/16 34/27/16 33/28/16
f 33/28/17 34/27/17 36/29/17 35/30/17
f 35/30/18 36/29/18 38/31/18 37/32/18
f 37/32/19 38/31/19 40/33/19 39/34/19
f 39/34/20 40/33/20 42/35/20 41/36/20
f 41/36/21 42/35/21 44/33/21 43/34/21
f 43/34/22 44/33/22 46/31/22 45/32/22
f 45/32/23 46/31/23 48/29/23 47/30/23
f 47/30/24 48/29/24 50/27/24 49/28/24
f 49/28/25 50/27/25 52/25/25 51/26/25
f 51/26/26 52/25/26 54/23/26 53/24/26
f 53/24/27 54/23/27 56/21/27 55/22/27
f 55/22/28 56/21/28 58/20/28 57/19/28
f 57/18/29 58/17/29 60/15/29 59/16/29
f 59/16/30 60/15/30 62/13/30 61/14/30
f 54/37/31 52/38/31 90/39/31 91/40/31
f 61/14/32 62/13/32 64/11/32 63/12/32
f 63/12/33 64/11/33 2/2/33 1/1/33
f 1/41/34 3/42/34 5/43/34 7/44/34 9/45/34 11/46/34 13/47/34 15/48/34 17/49/34 19/50/34 21/51/34 23/52/34 25/53/34 27/54/34 29/55/34 31/56/34 33/57/34 35/58/34 37/59/34 39/60/34 41/61/34 43/62/34 45/63/34 47/64/34 49/65/34 51/66/34 53/67/34 55/68/34 57/69/34 59/70/34 61/71/34 63/72/34
f 71/73/6 70/74/6 134/75/6 135/76/6
f 10/77/35 8/78/35 68/79/35 69/80/35
f 28/81/36 26/82/36 77/83/36 78/84/36
f 46/85/37 44/86/37 86/87/37 87/88/37
f 64/89/38 62/90/38 95/91/38 96/92/38
f 20/93/39 18/94/39 73/95/39 74/96/39
f 38/97/40 36/98/40 82/99/40 83/100/40
f 56/101/41 54/37/41 91/40/41 92/102/41
f 12/103/42 10/77/42 69/80/42 70/104/42
f 30/105/43 28/81/43 78/84/43 79/106/43
f 48/107/44 46/85/44 87/88/44 88/108/44
f 4/109/45 2/110/45 66/111/45 65/112/45
f 2/110/46 64/89/46 96/92/46 66/111/46
f 22/113/47 20/93/47 74/96/47 75/114/47
f 40/115/48 38/97/48 83/100/48 84/116/48
f 58/117/49 56/101/49 92/102/49 93/118/49
f 14/119/50 12/103/50 70/104/50 71/120/50
f 32/121/51 30/105/51 79/106/51 80/122/51
f 50/123/52 48/107/52 88/108/52 89/124/52
f 6/125/53 4/109/53 65/112/53 67/126/53
f 24/127/54 22/113/54 75/114/54 76/128/54
f 42/129/55 40/115/55 84/116/55 85/130/55
f 60/131/56 58/117/56 93/118/56 94/132/56
f 16/133/57 14/119/57 71/120/57 72/134/57
f 34/135/58 32/121/58 80/122/58 81/136/58
f 52/38/59 50/123/59 89/124/59 90/39/59
f 8/78/60 6/125/60 67/126/60 68/79/60
f 26/82/61 24/127/61 76/128/61 77/83/61
f 44/86/62 42/129/62 85/130/62 86/87/62
f 62/90/63 60/131/63 94/132/63 95/91/63
f 18/94/64 16/133/64 72/134/64 73/95/64
f 36/98/65 34/135/65 81/136/65 82/99/65
f 107/137/26 106/138/26 170/139/26 171/140/26
f 85/141/20 84/142/20 148/143/20 149/144/20
f 72/145/7 71/73/7 135/76/7 136/146/7
f 86/142/21 85/141/21 149/144/21 150/143/21
f 73/147/8 72/145/8 136/146/8 137/148/8
f 87/149/22 86/142/22 150/143/22 151/150/22
f 74/151/9 73/147/9 137/148/9 138/152/9
f 88/153/23 87/149/23 151/150/23 152/154/23
f 75/155/10 74/151/10 138/152/10 139/156/10
f 89/157/24 88/153/24 152/154/24 153/158/24
f 76/159/11 75/155/11 139/156/11 140/160/11
f 90/161/25 89/157/25 153/158/25 154/162/25
f 77/163/12 76/159/12 140/160/12 141/164/12
f 91/165/26 90/161/26 154/162/26 155/166/26
f 78/167/13 77/168/13 141/169/13 142/170/13
f 92/167/27 91/165/27 155/166/27 156/170/27
f 79/165/14 78/167/14 142/170/14 143/166/14
f 65/145/1 66/147/1 130/148/1 129/146/1
f 93/168/28 92/167/28 156/170/28 157/169/28
f 80/161/15 79/165/15 143/166/15 144/162/15
f 67/73/2 65/145/2 129/146/2 131/76/2
f 94/159/29 93/163/29 157/164/29 158/160/29
f 81/157/16 80/161/16 144/162/16 145/158/16
f 68/74/3 67/73/3 131/76/3 132/75/3
f 95/155/30 94/159/30 158/160/30 159/156/30
f 82/153/17 81/157/17 145/158/17 146/154/17
f 69/171/4 68/74/4 132/75/4 133/172/4
f 96/151/32 95/155/32 159/156/32 160/152/32
f 83/149/18 82/153/18 146/154/18 147/150/18
f 70/74/5 69/171/5 133/172/5 134/75/5
f 66/147/33 96/151/33 160/152/33 130/148/33
f 84/142/19 83/149/19 147/150/19 148/143/19
f 98/173/66 97/174/66 129/175/66 130/176/66
f 97/174/66 99/177/66 131/178/66 129/175/66
f 99/177/66 100/179/66 132/180/66 131/178/66
f 100/179/66 101/181/66 133/182/66 132/180/66
f 101/181/66 102/183/66 134/184/66 133/182/66
f 102/183/66 103/185/66 135/186/66 134/184/66
f 103/185/66 104/187/66 136/188/66 135/186/66
f 104/187/66 105/189/66 137/190/66 136/188/66
f 105/189/66 106/191/66 138/192/66 137/190/66
f 106/191/66 107/193/66 139/194/66 138/192/66
f 107/193/66 108/195/66 140/196/66 139/194/66
f 108/195/66 109/197/66 141/198/66 140/196/66
f 109/197/66 110/199/66 142/200/66 141/198/66
f 110/199/66 111/201/66 143/202/66 142/200/66
f 111/201/66 112/203/66 144/204/66 143/202/66
f 112/203/66 113/205/66 145/206/66 144/204/66
f 113/205/66 114/207/66 146/208/66 145/206/66
f 114/207/66 115/209/66 147/210/66 146/208/66
f 115/209/66 116/211/66 148/212/66 147/210/66
f 116/211/66 117/213/66 149/214/66 148/212/66
f 117/213/66 118/215/66 150/216/66 149/214/66
f 118/215/66 119/217/66 151/218/66 150/216/66
f 119/217/66 120/219/66 152/220/66 151/218/66
f 120/219/66 121/221/66 153/222/66 152/220/66
f 121/221/66 122/223/66 154/224/66 153/222/66
f 122/223/66 123/225/66 155/226/66 154/224/66
f 123/225/66 124/227/66 156/228/66 155/226/66
f 124/227/66 125/229/66 157/230/66 156/228/66
f 125/229/66 126/231/66 158/232/66 157/230/66
f 126/231/66 127/233/66 159/234/66 158/232/66
f 127/233/66 128/235/66 160/236/66 159/234/66
f 128/235/66 98/173/66 130/176/66 160/236/66
f 161/237/66 162/238/66 192/239/66 191/240/66 190/241/66 189/242/66 188/243/66 187/244/66 186/245/66 185/246/66 184/247/66 183/248/66 182/249/66 181/250/66 180/251/66 179/252/66 178/253/66 177/254/66 176/255/66 175/256/66 174/257/66 173/258/66 172/259/66 171/260/66 170/261/66 169/262/66 168/263/66 167/264/66 166/265/66 165/266/66 164/267/66 163/268/66
f 121/269/8 120/270/8 184/271/8 185/272/8
f 108/273/27 107/137/27 171/140/27 172/274/27
f 122/275/9 121/269/9 185/272/9 186/276/9
f 109/277/28 108/273/28 172/274/28 173/278/28
f 123/279/10 122/275/10 186/276/10 187/280/10
f 110/281/29 109/282/29 173/283/29 174/284/29
f 124/281/11 123/279/11 187/280/11 188/284/11
f 111/279/30 110/281/30 174/284/30 175/280/30
f 97/285/17 98/286/17 162/287/17 161/288/17
f 125/282/12 124/281/12 188/284/12 189/283/12
f 112/275/32 111/279/32 175/280/32 176/276/32
f 99/289/18 97/285/18 161/288/18 163/290/18
f 126/273/13 125/277/13 189/278/13 190/274/13
f 113/269/33 112/275/33 176/276/33 177/272/33
f 100/291/19 99/289/19 163/290/19 164/292/19
f 127/137/14 126/273/14 190/274/14 191/140/14
f 114/270/1 113/269/1 177/272/1 178/271/1
f 101/293/20 100/291/20 164/292/20 165/294/20
f 128/138/15 127/137/15 191/140/15 192/139/15
f 115/295/2 114/270/2 178/271/2 179/296/2
f 102/291/21 101/293/21 165/294/21 166/292/21
f 98/286/16 128/138/16 192/139/16 162/287/16
f 116/297/3 115/295/3 179/296/3 180/298/3
f 103/289/22 102/291/22 166/292/22 167/290/22
f 117/299/4 116/297/4 180/298/4 181/300/4
f 104/285/23 103/289/23 167/290/23 168/288/23
f 118/297/5 117/299/5 181/300/5 182/298/5
f 105/286/24 104/285/24 168/288/24 169/287/24
f 119/295/6 118/297/6 182/298/6 183/296/6
f 106/138/25 105/286/25 169/287/25 170/139/25
f 120/270/7 119/295/7 183/296/7 184/271/7
