# Blender 4.5.4 LTS
# www.blender.org
mtllib Glue.mtl
o Glue
v 0.000000 -0.835111 -0.283766
v 0.000000 0.818323 -0.283766
v 0.028962 -0.835111 -0.278313
v 0.055360 0.818323 -0.278313
v 0.056811 -0.835111 -0.262165
v 0.108592 0.818323 -0.262165
v 0.082476 -0.835111 -0.235943
v 0.157652 0.818323 -0.235943
v 0.104972 -0.835111 -0.200653
v 0.200653 0.818323 -0.200653
v 0.123434 -0.835111 -0.157652
v 0.235943 0.818323 -0.157652
v 0.137153 -0.835111 -0.108592
v 0.262165 0.818323 -0.108592
v 0.145601 -0.835111 -0.055360
v 0.278313 0.818323 -0.055360
v 0.148453 -0.835111 0.000000
v 0.283766 0.818323 0.000000
v 0.145601 -0.835111 0.055360
v 0.278313 0.818323 0.055360
v 0.137153 -0.835111 0.108592
v 0.262165 0.818323 0.108592
v 0.123434 -0.835111 0.157652
v 0.235943 0.818323 0.157652
v 0.104972 -0.835111 0.200653
v 0.200653 0.818323 0.200653
v 0.082476 -0.835111 0.235943
v 0.157652 0.818323 0.235943
v 0.056811 -0.835111 0.262165
v 0.108592 0.818323 0.262165
v 0.028962 -0.835111 0.278313
v 0.055360 0.818323 0.278313
v 0.000000 -0.835111 0.283766
v 0.000000 0.818323 0.283766
v -0.028962 -0.835111 0.278313
v -0.055360 0.818323 0.278313
v -0.056811 -0.835111 0.262165
v -0.108592 0.818323 0.262165
v -0.082476 -0.835111 0.235943
v -0.157652 0.818323 0.235943
v -0.104972 -0.835111 0.200653
v -0.200653 0.818323 0.200653
v -0.123434 -0.835111 0.157652
v -0.235943 0.818323 0.157652
v -0.137153 -0.835111 0.108592
v -0.262165 0.818323 0.108592
v -0.145601 -0.835111 0.055360
v -0.278313 0.818323 0.055360
v -0.148453 -0.835111 0.000000
v -0.283766 0.818323 0.000000
v -0.145601 -0.835111 -0.055360
v -0.278313 0.818323 -0.055360
v -0.137153 -0.835111 -0.108592
v -0.262165 0.818323 -0.108592
v -0.123434 -0.835111 -0.157652
v -0.235943 0.818323 -0.157652
v -0.104972 -0.835111 -0.200653
v -0.200653 0.818323 -0.200653
v -0.082476 -0.835111 -0.235943
v -0.157652 0.818323 -0.235943
v -0.056811 -0.835111 -0.262165
v -0.108592 0.818323 -0.262165
v -0.028962 -0.835111 -0.278313
v -0.055360 0.818323 -0.278313
v 0.031613 0.880678 -0.158931
v -0.000000 0.880678 -0.162044
v 0.062012 0.880678 -0.149709
v 0.090027 0.880678 -0.134735
v 0.114583 0.880678 -0.114583
v 0.134735 0.880678 -0.090027
v 0.149709 0.880678 -0.062012
v 0.158931 0.880678 -0.031613
v 0.162044 0.880678 -0.000000
v 0.158931 0.880678 0.031613
v 0.149709 0.880678 0.062012
v 0.134735 0.880678 0.090027
v 0.114583 0.880678 0.114583
v 0.090027 0.880678 0.134735
v 0.062012 0.880678 0.149709
v 0.031613 0.880678 0.158931
v -0.000000 0.880678 0.162044
v -0.031613 0.880678 0.158931
v -0.062012 0.880678 0.149709
v -0.090027 0.880678 0.134735
v -0.114583 0.880678 0.114583
v -0.134735 0.880678 0.090027
v -0.149709 0.880678 0.062012
v -0.158931 0.880678 0.031613
v -0.162044 0.880678 -0.000000
v -0.158931 0.880678 -0.031613
v -0.149709 0.880678 -0.062012
v -0.134735 0.880678 -0.090027
v -0.114583 0.880678 -0.114583
v -0.090027 0.880678 -0.134735
v -0.062012 0.880678 -0.149709
v -0.031613 0.880678 -0.158931
v 0.044583 0.880678 -0.224134
v 0.000000 0.880678 -0.228525
v 0.087453 0.880678 -0.211130
v 0.126962 0.880678 -0.190012
v 0.161592 0.880678 -0.161592
v 0.190012 0.880678 -0.126962
v 0.211130 0.880678 -0.087453
v 0.224134 0.880678 -0.044583
v 0.228525 0.880678 -0.000000
v 0.224134 0.880678 0.044583
v 0.211130 0.880678 0.087453
v 0.190012 0.880678 0.126962
v 0.161592 0.880678 0.161592
v 0.126962 0.880678 0.190012
v 0.087453 0.880678 0.211130
v 0.044583 0.880678 0.224134
v 0.000000 0.880678 0.228525
v -0.044583 0.880678 0.224134
v -0.087453 0.880678 0.211130
v -0.126962 0.880678 0.190012
v -0.161592 0.880678 0.161592
v -0.190012 0.880678 0.126962
v -0.211130 0.880678 0.087453
v -0.224134 0.880678 0.044583
v -0.228525 0.880678 -0.000000
v -0.224134 0.880678 -0.044583
v -0.211130 0.880678 -0.087453
v -0.190012 0.880678 -0.126962
v -0.161592 0.880678 -0.161592
v -0.126962 0.880678 -0.190012
v -0.087453 0.880678 -0.211130
v -0.044583 0.880678 -0.224134
v 0.020338 0.944099 -0.102247
v -0.000000 0.944099 -0.104250
v 0.039895 0.944099 -0.096314
v 0.057918 0.944099 -0.086681
v 0.073716 0.944099 -0.073716
v 0.086681 0.944099 -0.057918
v 0.096314 0.944099 -0.039895
v 0.102247 0.944099 -0.020338
v 0.104250 0.944099 -0.000000
v 0.102247 0.944099 0.020338
v 0.096314 0.944099 0.039895
v 0.086681 0.944099 0.057918
v 0.073716 0.944099 0.073716
v 0.057918 0.944099 0.086681
v 0.039895 0.944099 0.096314
v 0.020338 0.944099 0.102247
v -0.000000 0.944099 0.104250
v -0.020338 0.944099 0.102247
v -0.039895 0.944099 0.096314
v -0.057918 0.944099 0.086681
v -0.073716 0.944099 0.073716
v -0.086681 0.944099 0.057918
v -0.096314 0.944099 0.039895
v -0.102247 0.944099 0.020338
v -0.104250 0.944099 -0.000000
v -0.102247 0.944099 -0.020338
v -0.096314 0.944099 -0.039895
v -0.086681 0.944099 -0.057918
v -0.073716 0.944099 -0.073716
v -0.057918 0.944099 -0.086681
v -0.039895 0.944099 -0.096314
v -0.020338 0.944099 -0.102247
v 0.025259 0.944099 -0.126987
v -0.000000 0.944099 -0.129475
v 0.049548 0.944099 -0.119619
v 0.071932 0.944099 -0.107654
v 0.091552 0.944099 -0.091552
v 0.107654 0.944099 -0.071932
v 0.119619 0.944099 -0.049548
v 0.126987 0.944099 -0.025259
v 0.129475 0.944099 -0.000000
v 0.126987 0.944099 0.025259
v 0.119619 0.944099 0.049548
v 0.107654 0.944099 0.071932
v 0.091552 0.944099 0.091552
v 0.071932 0.944099 0.107654
v 0.049548 0.944099 0.119619
v 0.025259 0.944099 0.126987
v -0.000000 0.944099 0.129475
v -0.025259 0.944099 0.126987
v -0.049548 0.944099 0.119619
v -0.071932 0.944099 0.107654
v -0.091552 0.944099 0.091552
v -0.107654 0.944099 0.071932
v -0.119619 0.944099 0.049548
v -0.126987 0.944099 0.025259
v -0.129475 0.944099 -0.000000
v -0.126987 0.944099 -0.025259
v -0.119619 0.944099 -0.049548
v -0.107654 0.944099 -0.071932
v -0.091552 0.944099 -0.091552
v -0.071932 0.944099 -0.107654
v -0.049548 0.944099 -0.119619
v -0.025259 0.944099 -0.126987
v 0.004951 1.383442 -0.024890
v -0.000000 1.383442 -0.025377
v 0.009712 1.383442 -0.023446
v 0.014099 1.383442 -0.021101
v 0.017945 1.383442 -0.017945
v 0.021101 1.383442 -0.014099
v 0.023446 1.383442 -0.009712
v 0.024890 1.383442 -0.004951
v 0.025377 1.383442 -0.000000
v 0.024890 1.383442 0.004951
v 0.023446 1.383442 0.009712
v 0.021101 1.383442 0.014099
v 0.017945 1.383442 0.017945
v 0.014099 1.383442 0.021101
v 0.009712 1.383442 0.023446
v 0.004951 1.383442 0.024890
v -0.000000 1.383442 0.025377
v -0.004951 1.383442 0.024890
v -0.009712 1.383442 0.023446
v -0.014099 1.383442 0.021101
v -0.017945 1.383442 0.017945
v -0.021101 1.383442 0.014099
v -0.023446 1.383442 0.009712
v -0.024890 1.383442 0.004951
v -0.025377 1.383442 -0.000000
v -0.024890 1.383442 -0.004951
v -0.023446 1.383442 -0.009712
v -0.021101 1.383442 -0.014099
v -0.017945 1.383442 -0.017945
v -0.014099 1.383442 -0.021101
v -0.009712 1.383442 -0.023446
v -0.004951 1.383442 -0.024890
vn 0.1283 -0.0010 -0.9917
vn 0.3700 -0.0087 -0.9290
vn 0.5743 -0.0220 -0.8183
vn 0.7325 -0.0378 -0.6797
vn 0.8468 -0.0533 -0.5293
vn 0.9242 -0.0664 -0.3762
vn 0.9715 -0.0757 -0.2244
vn 0.9940 -0.0806 -0.0746
vn 0.9940 -0.0806 0.0746
vn 0.9715 -0.0757 0.2244
vn 0.9242 -0.0664 0.3762
vn 0.8468 -0.0533 0.5293
vn 0.7325 -0.0378 0.6797
vn 0.5743 -0.0220 0.8183
vn 0.3700 -0.0087 0.9290
vn 0.1283 -0.0010 0.9917
vn -0.1283 -0.0010 0.9917
vn -0.3700 -0.0087 0.9290
vn -0.5743 -0.0220 0.8183
vn -0.7325 -0.0378 0.6797
vn -0.8468 -0.0533 0.5293
vn -0.9242 -0.0664 0.3762
vn -0.9715 -0.0757 0.2244
vn -0.9940 -0.0806 0.0746
vn -0.9940 -0.0806 -0.0746
vn -0.9715 -0.0757 -0.2244
vn -0.9242 -0.0664 -0.3762
vn -0.8468 -0.0533 -0.5293
vn -0.7325 -0.0378 -0.6797
vn -0.5743 -0.0220 -0.8183
vn 0.4759 0.6613 -0.5798
vn -0.3700 -0.0087 -0.9290
vn -0.1283 -0.0010 -0.9917
vn -0.0000 -1.0000 -0.0000
vn -0.8521 0.4551 -0.2585
vn 0.4759 0.6613 0.5798
vn -0.6615 0.6613 0.3536
vn -0.2177 0.6613 -0.7178
vn 0.7465 0.6613 0.0735
vn -0.2177 0.6613 0.7178
vn -0.6615 0.6613 -0.3536
vn 0.5798 0.6613 -0.4759
vn 0.3536 0.6613 0.6615
vn -0.7178 0.6613 0.2177
vn 0.0735 0.6613 -0.7465
vn -0.0735 0.6613 -0.7465
vn 0.7178 0.6613 0.2177
vn -0.3536 0.6613 0.6615
vn -0.5798 0.6613 -0.4759
vn 0.6615 0.6613 -0.3536
vn 0.2177 0.6613 0.7178
vn -0.7465 0.6613 0.0735
vn 0.2177 0.6613 -0.7178
vn 0.6615 0.6613 0.3536
vn -0.4759 0.6613 0.5798
vn -0.4759 0.6613 -0.5798
vn 0.7178 0.6613 -0.2177
vn 0.0735 0.6613 0.7465
vn -0.7465 0.6613 -0.0735
vn 0.3536 0.6613 -0.6615
vn 0.5798 0.6613 0.4759
vn -0.5798 0.6613 0.4759
vn -0.3536 0.6613 -0.6615
vn 0.7465 0.6613 -0.0735
vn -0.0735 0.6613 0.7465
vn -0.7178 0.6613 -0.2177
vn -0.0000 1.0000 -0.0000
vn 0.6245 0.1759 0.7610
vn 0.5649 0.4551 0.6883
vn -0.7853 0.4551 -0.4198
vn 0.4198 0.4551 0.7853
vn 0.0873 0.4551 -0.8862
vn -0.6883 0.4551 -0.5649
vn 0.2585 0.4551 0.8521
vn 0.2585 0.4551 -0.8521
vn -0.5649 0.4551 -0.6883
vn 0.0873 0.4551 0.8862
vn 0.4198 0.4551 -0.7853
vn -0.4198 0.4551 -0.7853
vn -0.0873 0.4551 0.8862
vn 0.5649 0.4551 -0.6883
vn -0.2585 0.4551 -0.8521
vn -0.2585 0.4551 0.8521
vn 0.6883 0.4551 -0.5649
vn -0.0873 0.4551 -0.8862
vn -0.4198 0.4551 0.7853
vn 0.7853 0.4551 -0.4198
vn -0.5649 0.4551 0.6883
vn 0.8521 0.4551 -0.2585
vn -0.6883 0.4551 0.5649
vn 0.8862 0.4551 -0.0873
vn -0.7853 0.4551 0.4198
vn 0.8862 0.4551 0.0873
vn -0.8521 0.4551 0.2585
vn 0.8521 0.4551 0.2585
vn -0.8862 0.4551 0.0873
vn 0.7853 0.4551 0.4198
vn -0.8862 0.4551 -0.0873
vn 0.6883 0.4551 0.5649
vn -0.8682 0.1759 -0.4640
vn 0.4641 0.1759 0.8682
vn 0.0965 0.1759 -0.9797
vn -0.7610 0.1759 -0.6245
vn 0.2858 0.1759 0.9420
vn 0.2858 0.1759 -0.9420
vn -0.6245 0.1759 -0.7610
vn 0.0965 0.1759 0.9797
vn 0.4640 0.1759 -0.8682
vn -0.4640 0.1759 -0.8682
vn -0.0965 0.1759 0.9797
vn 0.6245 0.1759 -0.7610
vn -0.2858 0.1759 -0.9420
vn -0.2858 0.1759 0.9420
vn 0.7610 0.1759 -0.6245
vn -0.0965 0.1759 -0.9797
vn -0.4640 0.1759 0.8682
vn 0.8682 0.1759 -0.4640
vn -0.6245 0.1759 0.7610
vn 0.9420 0.1759 -0.2858
vn -0.7610 0.1759 0.6245
vn 0.9797 0.1759 -0.0965
vn -0.8682 0.1759 0.4640
vn 0.9797 0.1759 0.0965
vn -0.9420 0.1759 0.2858
vn 0.9420 0.1759 0.2858
vn -0.9797 0.1759 0.0965
vn 0.8682 0.1759 0.4640
vn -0.9797 0.1759 -0.0965
vn 0.7610 0.1759 0.6245
vn -0.9420 0.1759 -0.2858
vt 0.558697 0.091216
vt 0.558697 0.679109
vt 0.578381 0.679109
vt 0.568995 0.091216
vt 0.597308 0.679109
vt 0.578897 0.091216
vt 0.614752 0.679109
vt 0.588022 0.091216
vt 0.259181 0.090127
vt 0.259181 0.680119
vt 0.246589 0.680119
vt 0.246589 0.090127
vt 0.231245 0.680119
vt 0.231245 0.090127
vt 0.213739 0.680119
vt 0.213739 0.090127
vt 0.194744 0.680119
vt 0.194744 0.090127
vt 0.174990 0.680119
vt 0.174990 0.090127
vt 0.155236 0.680119
vt 0.155236 0.090127
vt 0.136241 0.680119
vt 0.136241 0.090127
vt 0.118736 0.680119
vt 0.118736 0.090127
vt 0.103392 0.680119
vt 0.103392 0.090127
vt 0.090799 0.680119
vt 0.090799 0.090127
vt 0.738107 0.091216
vt 0.764836 0.679109
vt 0.747393 0.679109
vt 0.728981 0.091216
vt 0.728466 0.679109
vt 0.719079 0.091216
vt 0.708782 0.679109
vt 0.708782 0.091216
vt 0.689098 0.679109
vt 0.698484 0.091216
vt 0.670171 0.679109
vt 0.688582 0.091216
vt 0.652727 0.679109
vt 0.679457 0.091216
vt 0.296576 0.090127
vt 0.296576 0.680119
vt 0.309168 0.680119
vt 0.309168 0.090127
vt 0.324512 0.680119
vt 0.324512 0.090127
vt 0.342018 0.680119
vt 0.342018 0.090127
vt 0.361013 0.680119
vt 0.361013 0.090127
vt 0.380767 0.680119
vt 0.380767 0.090127
vt 0.400521 0.680119
vt 0.400521 0.090127
vt 0.419516 0.680119
vt 0.419516 0.090127
vt 0.437021 0.680119
vt 0.437021 0.090127
vt 0.452365 0.680119
vt 0.452365 0.090127
vt 0.464958 0.680119
vt 0.464958 0.090127
vt 0.529372 0.091216
vt 0.502643 0.679109
vt 0.520086 0.679109
vt 0.538498 0.091216
vt 0.246074 0.894320
vt 0.230840 0.906822
vt 0.219968 0.890551
vt 0.232236 0.880483
vt 0.539014 0.679109
vt 0.548400 0.091216
vt 0.855595 0.287477
vt 0.865335 0.285643
vt 0.874700 0.280212
vt 0.883332 0.271393
vt 0.890897 0.259525
vt 0.897106 0.245064
vt 0.901720 0.228565
vt 0.904561 0.210663
vt 0.905520 0.192045
vt 0.904561 0.173428
vt 0.901720 0.155525
vt 0.897106 0.139027
vt 0.890897 0.124565
vt 0.883332 0.112697
vt 0.874700 0.103878
vt 0.865335 0.098448
vt 0.855595 0.096614
vt 0.845855 0.098448
vt 0.836489 0.103878
vt 0.827858 0.112697
vt 0.820292 0.124565
vt 0.814083 0.139027
vt 0.809470 0.155525
vt 0.806629 0.173428
vt 0.805669 0.192045
vt 0.806629 0.210663
vt 0.809470 0.228565
vt 0.814083 0.245064
vt 0.820292 0.259525
vt 0.827858 0.271393
vt 0.836489 0.280212
vt 0.845855 0.285643
vt 0.490916 0.738696
vt 0.479507 0.738696
vt 0.477123 0.762498
vt 0.486238 0.762498
vt 0.230840 0.739651
vt 0.246074 0.752153
vt 0.232236 0.765991
vt 0.219968 0.755923
vt 0.335463 0.702369
vt 0.349561 0.702369
vt 0.527603 0.701280
vt 0.542845 0.701280
vt 0.174990 0.702369
vt 0.159082 0.702369
vt 0.692930 0.701280
vt 0.677687 0.701280
vt 0.411972 0.702369
vt 0.426070 0.702369
vt 0.258576 0.879087
vt 0.242304 0.868215
vt 0.753924 0.701280
vt 0.739877 0.701280
vt 0.364858 0.702369
vt 0.558697 0.701280
vt 0.574549 0.701280
vt 0.143785 0.702369
vt 0.663639 0.701280
vt 0.103907 0.894320
vt 0.091405 0.879087
vt 0.107676 0.868215
vt 0.117744 0.880483
vt 0.220294 0.702369
vt 0.206196 0.702369
vt 0.724634 0.701280
vt 0.380767 0.702369
vt 0.589792 0.701280
vt 0.129687 0.702369
vt 0.103907 0.752153
vt 0.119140 0.739651
vt 0.130012 0.755923
vt 0.117744 0.765991
vt 0.119140 0.906822
vt 0.130012 0.890551
vt 0.190899 0.702369
vt 0.708782 0.701280
vt 0.396675 0.702369
vt 0.603840 0.701280
vt 0.258576 0.767387
vt 0.242304 0.778259
vt 0.091405 0.767387
vt 0.107676 0.778259
vt 0.513555 0.701280
vt 0.174990 0.880643
vt 0.186190 0.879540
vt 0.190784 0.902639
vt 0.174990 0.904195
vt 0.196959 0.876273
vt 0.205972 0.898032
vt 0.206883 0.870968
vt 0.215583 0.863829
vt 0.222722 0.855130
vt 0.228027 0.845205
vt 0.249786 0.854218
vt 0.231293 0.834436
vt 0.254393 0.839031
vt 0.232396 0.823237
vt 0.255948 0.823237
vt 0.231293 0.812037
vt 0.254393 0.807443
vt 0.228027 0.801268
vt 0.249786 0.792256
vt 0.222722 0.791344
vt 0.215583 0.782645
vt 0.206883 0.775505
vt 0.196959 0.770200
vt 0.205972 0.748441
vt 0.186190 0.766934
vt 0.190784 0.743834
vt 0.174990 0.765831
vt 0.174990 0.742279
vt 0.163791 0.766934
vt 0.159196 0.743834
vt 0.153022 0.770200
vt 0.144009 0.748441
vt 0.143097 0.775505
vt 0.134398 0.782645
vt 0.127259 0.791344
vt 0.121954 0.801268
vt 0.100195 0.792256
vt 0.118687 0.812037
vt 0.095588 0.807443
vt 0.117584 0.823237
vt 0.094032 0.823237
vt 0.118687 0.834436
vt 0.095588 0.839031
vt 0.121954 0.845205
vt 0.100195 0.854218
vt 0.127259 0.855130
vt 0.134398 0.863829
vt 0.143097 0.870968
vt 0.153022 0.876273
vt 0.144009 0.898032
vt 0.163791 0.879540
vt 0.159196 0.902639
vt 0.849686 0.330634
vt 0.855325 0.330634
vt 0.835418 0.487454
vt 0.834045 0.487454
vt 0.501430 0.738696
vt 0.510646 0.738696
vt 0.502003 0.762498
vt 0.494639 0.762498
vt 0.718402 0.738696
vt 0.706537 0.738696
vt 0.706537 0.762498
vt 0.716017 0.762498
vt 0.510646 0.738696
vt 0.729810 0.738696
vt 0.725133 0.762498
vt 0.672750 0.738696
vt 0.663534 0.738696
vt 0.672178 0.762498
vt 0.679541 0.762498
vt 0.467643 0.738696
vt 0.467643 0.762498
vt 0.740324 0.738696
vt 0.733534 0.762498
vt 0.683264 0.738696
vt 0.687942 0.762498
vt 0.455778 0.738696
vt 0.458163 0.762498
vt 0.749540 0.738696
vt 0.740897 0.762498
vt 0.694673 0.738696
vt 0.697057 0.762498
vt 0.444370 0.738696
vt 0.449048 0.762498
vt 0.620877 0.738696
vt 0.630093 0.738696
vt 0.621450 0.762498
vt 0.614086 0.762498
vt 0.433856 0.738696
vt 0.440647 0.762498
vt 0.610363 0.738696
vt 0.605685 0.762498
vt 0.424640 0.738696
vt 0.433283 0.762498
vt 0.598955 0.738696
vt 0.596570 0.762498
vt 0.587090 0.738696
vt 0.587090 0.762498
vt 0.575226 0.738696
vt 0.577610 0.762498
vt 0.563817 0.738696
vt 0.568495 0.762498
vt 0.553303 0.738696
vt 0.560094 0.762498
vt 0.544087 0.738696
vt 0.552730 0.762498
vt 0.342899 0.820428
vt 0.349739 0.819755
vt 0.351394 0.828075
vt 0.342899 0.828912
vt 0.356316 0.817760
vt 0.359562 0.825597
vt 0.362377 0.814520
vt 0.367090 0.821573
vt 0.367690 0.810160
vt 0.373688 0.816158
vt 0.372050 0.804847
vt 0.379103 0.809560
vt 0.375290 0.798786
vt 0.383127 0.802032
vt 0.377285 0.792209
vt 0.385605 0.793864
vt 0.377958 0.785369
vt 0.386442 0.785369
vt 0.377285 0.778529
vt 0.385605 0.776874
vt 0.375290 0.771952
vt 0.383127 0.768706
vt 0.372050 0.765891
vt 0.379103 0.761178
vt 0.367690 0.760578
vt 0.373688 0.754580
vt 0.362377 0.756218
vt 0.367090 0.749164
vt 0.356316 0.752978
vt 0.359562 0.745141
vt 0.349739 0.750983
vt 0.351394 0.742663
vt 0.342899 0.750309
vt 0.342899 0.741826
vt 0.336059 0.750983
vt 0.334404 0.742663
vt 0.329482 0.752978
vt 0.326236 0.745141
vt 0.323421 0.756218
vt 0.318708 0.749164
vt 0.318108 0.760578
vt 0.312110 0.754580
vt 0.313748 0.765891
vt 0.306695 0.761178
vt 0.310508 0.771952
vt 0.302671 0.768706
vt 0.308513 0.778529
vt 0.300193 0.776874
vt 0.307839 0.785369
vt 0.299356 0.785369
vt 0.308513 0.792209
vt 0.300193 0.793864
vt 0.310508 0.798786
vt 0.302671 0.802032
vt 0.313748 0.804847
vt 0.306695 0.809560
vt 0.318108 0.810160
vt 0.312110 0.816158
vt 0.323421 0.814520
vt 0.318708 0.821573
vt 0.329482 0.817760
vt 0.326236 0.825597
vt 0.336059 0.819755
vt 0.334404 0.828075
vt 0.795922 0.756715
vt 0.794257 0.756879
vt 0.792592 0.756715
vt 0.790991 0.756229
vt 0.789515 0.755440
vt 0.788222 0.754379
vt 0.787161 0.753086
vt 0.786372 0.751610
vt 0.785886 0.750009
vt 0.785722 0.748344
vt 0.785886 0.746679
vt 0.786372 0.745078
vt 0.787161 0.743603
vt 0.788222 0.742309
vt 0.789515 0.741248
vt 0.790991 0.740459
vt 0.792592 0.739974
vt 0.794257 0.739810
vt 0.795922 0.739974
vt 0.797523 0.740459
vt 0.798998 0.741248
vt 0.800292 0.742309
vt 0.801353 0.743603
vt 0.802142 0.745078
vt 0.802627 0.746679
vt 0.802791 0.748344
vt 0.802627 0.750009
vt 0.802142 0.751610
vt 0.801353 0.753086
vt 0.800292 0.754379
vt 0.798998 0.755440
vt 0.797523 0.756229
vt 0.843253 0.330634
vt 0.832479 0.487454
vt 0.836272 0.524836
vt 0.829013 0.524836
vt 0.829013 0.681656
vt 0.830780 0.681656
vt 0.836272 0.330634
vt 0.830780 0.487454
vt 0.843253 0.524836
vt 0.832479 0.681656
vt 0.808339 0.524836
vt 0.802700 0.524836
vt 0.822607 0.681656
vt 0.823980 0.681656
vt 0.829013 0.330634
vt 0.829013 0.487454
vt 0.849686 0.524836
vt 0.834045 0.681656
vt 0.814772 0.524836
vt 0.825546 0.681656
vt 0.821753 0.330634
vt 0.827245 0.487454
vt 0.855325 0.524836
vt 0.835418 0.681656
vt 0.821753 0.524836
vt 0.827245 0.681656
vt 0.814773 0.330634
vt 0.825546 0.487454
vt 0.808339 0.330634
vt 0.823980 0.487454
vt 0.802700 0.330634
vt 0.822607 0.487454
vt 0.830780 0.681656
vt 0.829013 0.681656
vt 0.821753 0.330634
s 0
usemtl Glue
f 1/1/1 2/2/1 4/3/1 3/4/1
f 3/4/2 4/3/2 6/5/2 5/6/2
f 5/6/3 6/5/3 8/7/3 7/8/3
f 7/9/4 8/10/4 10/11/4 9/12/4
f 9/12/5 10/11/5 12/13/5 11/14/5
f 11/14/6 12/13/6 14/15/6 13/16/6
f 13/16/7 14/15/7 16/17/7 15/18/7
f 15/18/8 16/17/8 18/19/8 17/20/8
f 17/20/9 18/19/9 20/21/9 19/22/9
f 19/22/10 20/21/10 22/23/10 21/24/10
f 21/24/11 22/23/11 24/25/11 23/26/11
f 23/26/12 24/25/12 26/27/12 25/28/12
f 25/28/13 26/27/13 28/29/13 27/30/13
f 27/31/14 28/32/14 30/33/14 29/34/14
f 29/34/15 30/33/15 32/35/15 31/36/15
f 31/36/16 32/35/16 34/37/16 33/38/16
f 33/38/17 34/37/17 36/39/17 35/40/17
f 35/40/18 36/39/18 38/41/18 37/42/18
f 37/42/19 38/41/19 40/43/19 39/44/19
f 39/45/20 40/46/20 42/47/20 41/48/20
f 41/48/21 42/47/21 44/49/21 43/50/21
f 43/50/22 44/49/22 46/51/22 45/52/22
f 45/52/23 46/51/23 48/53/23 47/54/23
f 47/54/24 48/53/24 50/55/24 49/56/24
f 49/56/25 50/55/25 52/57/25 51/58/25
f 51/58/26 52/57/26 54/59/26 53/60/26
f 53/60/27 54/59/27 56/61/27 55/62/27
f 55/62/28 56/61/28 58/63/28 57/64/28
f 57/64/29 58/63/29 60/65/29 59/66/29
f 59/67/30 60/68/30 62/69/30 61/70/30
f 10/71/31 8/72/31 100/73/31 101/74/31
f 61/70/32 62/69/32 64/75/32 63/76/32
f 63/76/33 64/75/33 2/2/33 1/1/33
f 1/77/34 3/78/34 5/79/34 7/80/34 9/81/34 11/82/34 13/83/34 15/84/34 17/85/34 19/86/34 21/87/34 23/88/34 25/89/34 27/90/34 29/91/34 31/92/34 33/93/34 35/94/34 37/95/34 39/96/34 41/97/34 43/98/34 45/99/34 47/100/34 49/101/34 51/102/34 53/103/34 55/104/34 57/105/34 59/106/34 61/107/34 63/108/34
f 91/109/35 90/110/35 186/111/35 187/112/35
f 28/113/36 26/114/36 109/115/36 110/116/36
f 46/51/37 44/49/37 118/117/37 119/118/37
f 64/75/38 62/69/38 127/119/38 128/120/38
f 20/21/39 18/19/39 105/121/39 106/122/39
f 38/41/40 36/39/40 114/123/40 115/124/40
f 56/61/41 54/59/41 123/125/41 124/126/41
f 12/127/42 10/71/42 101/74/42 102/128/42
f 30/33/43 28/32/43 110/129/43 111/130/43
f 48/53/44 46/51/44 119/118/44 120/131/44
f 4/3/45 2/2/45 98/132/45 97/133/45
f 2/2/46 64/75/46 128/120/46 98/132/46
f 22/23/47 20/21/47 106/122/47 107/134/47
f 40/43/48 38/41/48 115/124/48 116/135/48
f 58/136/49 56/137/49 124/138/49 125/139/49
f 14/15/50 12/13/50 102/140/50 103/141/50
f 32/35/51 30/33/51 111/130/51 112/142/51
f 50/55/52 48/53/52 120/131/52 121/143/52
f 6/5/53 4/3/53 97/133/53 99/144/53
f 24/25/54 22/23/54 107/134/54 108/145/54
f 42/146/55 40/147/55 116/148/55 117/149/55
f 60/150/56 58/136/56 125/139/56 126/151/56
f 16/17/57 14/15/57 103/141/57 104/152/57
f 34/37/58 32/35/58 112/142/58 113/153/58
f 52/57/59 50/55/59 121/143/59 122/154/59
f 8/7/60 6/5/60 99/144/60 100/155/60
f 26/114/61 24/156/61 108/157/61 109/115/61
f 44/158/62 42/146/62 117/149/62 118/159/62
f 62/69/63 60/68/63 126/160/63 127/119/63
f 18/19/64 16/17/64 104/152/64 105/121/64
f 36/39/65 34/37/65 113/153/65 114/123/65
f 54/59/66 52/57/66 122/154/66 123/125/66
f 66/161/67 65/162/67 97/163/67 98/164/67
f 65/162/67 67/165/67 99/166/67 97/163/67
f 67/165/67 68/167/67 100/73/67 99/166/67
f 68/167/67 69/168/67 101/74/67 100/73/67
f 69/168/67 70/169/67 102/128/67 101/74/67
f 70/169/67 71/170/67 103/171/67 102/128/67
f 71/170/67 72/172/67 104/173/67 103/171/67
f 72/172/67 73/174/67 105/175/67 104/173/67
f 73/174/67 74/176/67 106/177/67 105/175/67
f 74/176/67 75/178/67 107/179/67 106/177/67
f 75/178/67 76/180/67 108/157/67 107/179/67
f 76/180/67 77/181/67 109/115/67 108/157/67
f 77/181/67 78/182/67 110/116/67 109/115/67
f 78/182/67 79/183/67 111/184/67 110/116/67
f 79/183/67 80/185/67 112/186/67 111/184/67
f 80/185/67 81/187/67 113/188/67 112/186/67
f 81/187/67 82/189/67 114/190/67 113/188/67
f 82/189/67 83/191/67 115/192/67 114/190/67
f 83/191/67 84/193/67 116/148/67 115/192/67
f 84/193/67 85/194/67 117/149/67 116/148/67
f 85/194/67 86/195/67 118/159/67 117/149/67
f 86/195/67 87/196/67 119/197/67 118/159/67
f 87/196/67 88/198/67 120/199/67 119/197/67
f 88/198/67 89/200/67 121/201/67 120/199/67
f 89/200/67 90/202/67 122/203/67 121/201/67
f 90/202/67 91/204/67 123/205/67 122/203/67
f 91/204/67 92/206/67 124/138/67 123/205/67
f 92/206/67 93/207/67 125/139/67 124/138/67
f 93/207/67 94/208/67 126/151/67 125/139/67
f 94/208/67 95/209/67 127/210/67 126/151/67
f 95/209/67 96/211/67 128/212/67 127/210/67
f 96/211/67 66/161/67 98/164/67 128/212/67
f 142/213/68 141/214/68 205/215/68 206/216/68
f 78/217/69 77/218/69 173/219/69 174/220/69
f 92/217/70 91/109/70 187/112/70 188/220/70
f 79/109/71 78/217/71 174/220/71 175/112/71
f 65/221/72 66/222/72 162/223/72 161/224/72
f 93/225/73 92/217/73 188/220/73 189/219/73
f 80/110/74 79/109/74 175/112/74 176/111/74
f 67/226/75 65/221/75 161/224/75 163/227/75
f 94/228/76 93/229/76 189/230/76 190/231/76
f 81/232/77 80/110/77 176/111/77 177/233/77
f 68/234/78 67/226/78 163/227/78 164/235/78
f 95/236/79 94/228/79 190/231/79 191/237/79
f 82/238/80 81/232/80 177/233/80 178/239/80
f 69/240/81 68/234/81 164/235/81 165/241/81
f 96/242/82 95/236/82 191/237/82 192/243/82
f 83/244/83 82/238/83 178/239/83 179/245/83
f 70/246/84 69/247/84 165/248/84 166/249/84
f 66/222/85 96/242/85 192/243/85 162/223/85
f 84/250/86 83/244/86 179/245/86 180/251/86
f 71/252/87 70/246/87 166/249/87 167/253/87
f 85/254/88 84/250/88 180/251/88 181/255/88
f 72/256/89 71/252/89 167/253/89 168/257/89
f 86/250/90 85/254/90 181/255/90 182/251/90
f 73/258/91 72/256/91 168/257/91 169/259/91
f 87/244/92 86/250/92 182/251/92 183/245/92
f 74/260/93 73/258/93 169/259/93 170/261/93
f 88/238/94 87/244/94 183/245/94 184/239/94
f 75/262/95 74/260/95 170/261/95 171/263/95
f 89/232/96 88/238/96 184/239/96 185/233/96
f 76/264/97 75/262/97 171/263/97 172/265/97
f 90/110/98 89/232/98 185/233/98 186/111/98
f 77/266/99 76/264/99 172/265/99 173/267/99
f 130/268/67 129/269/67 161/270/67 162/271/67
f 129/269/67 131/272/67 163/273/67 161/270/67
f 131/272/67 132/274/67 164/275/67 163/273/67
f 132/274/67 133/276/67 165/277/67 164/275/67
f 133/276/67 134/278/67 166/279/67 165/277/67
f 134/278/67 135/280/67 167/281/67 166/279/67
f 135/280/67 136/282/67 168/283/67 167/281/67
f 136/282/67 137/284/67 169/285/67 168/283/67
f 137/284/67 138/286/67 170/287/67 169/285/67
f 138/286/67 139/288/67 171/289/67 170/287/67
f 139/288/67 140/290/67 172/291/67 171/289/67
f 140/290/67 141/292/67 173/293/67 172/291/67
f 141/292/67 142/294/67 174/295/67 173/293/67
f 142/294/67 143/296/67 175/297/67 174/295/67
f 143/296/67 144/298/67 176/299/67 175/297/67
f 144/298/67 145/300/67 177/301/67 176/299/67
f 145/300/67 146/302/67 178/303/67 177/301/67
f 146/302/67 147/304/67 179/305/67 178/303/67
f 147/304/67 148/306/67 180/307/67 179/305/67
f 148/306/67 149/308/67 181/309/67 180/307/67
f 149/308/67 150/310/67 182/311/67 181/309/67
f 150/310/67 151/312/67 183/313/67 182/311/67
f 151/312/67 152/314/67 184/315/67 183/313/67
f 152/314/67 153/316/67 185/317/67 184/315/67
f 153/316/67 154/318/67 186/319/67 185/317/67
f 154/318/67 155/320/67 187/321/67 186/319/67
f 155/320/67 156/322/67 188/323/67 187/321/67
f 156/322/67 157/324/67 189/325/67 188/323/67
f 157/324/67 158/326/67 190/327/67 189/325/67
f 158/326/67 159/328/67 191/329/67 190/327/67
f 159/328/67 160/330/67 192/331/67 191/329/67
f 160/330/67 130/268/67 162/271/67 192/331/67
f 193/332/67 194/333/67 224/334/67 223/335/67 222/336/67 221/337/67 220/338/67 219/339/67 218/340/67 217/341/67 216/342/67 215/343/67 214/344/67 213/345/67 212/346/67 211/347/67 210/348/67 209/349/67 208/350/67 207/351/67 206/352/67 205/353/67 204/354/67 203/355/67 202/356/67 201/357/67 200/358/67 199/359/67 198/360/67 197/361/67 196/362/67 195/363/67
f 156/213/100 155/364/100 219/365/100 220/216/100
f 143/364/101 142/213/101 206/216/101 207/365/101
f 129/366/102 130/367/102 194/368/102 193/369/102
f 157/214/103 156/213/103 220/216/103 221/215/103
f 144/370/104 143/364/104 207/365/104 208/371/104
f 131/372/105 129/366/105 193/369/105 195/373/105
f 158/374/106 157/375/106 221/376/106 222/377/106
f 145/378/107 144/370/107 208/371/107 209/379/107
f 132/380/108 131/372/108 195/373/108 196/381/108
f 159/382/109 158/374/109 222/377/109 223/383/109
f 146/384/110 145/378/110 209/379/110 210/385/110
f 133/386/111 132/380/111 196/381/111 197/387/111
f 160/388/112 159/382/112 223/383/112 224/389/112
f 147/390/113 146/384/113 210/385/113 211/391/113
f 134/380/114 133/386/114 197/387/114 198/381/114
f 130/367/115 160/388/115 224/389/115 194/368/115
f 148/392/116 147/390/116 211/391/116 212/393/116
f 135/372/117 134/380/117 198/381/117 199/373/117
f 149/394/118 148/392/118 212/393/118 213/395/118
f 136/366/119 135/372/119 199/373/119 200/396/119
f 150/392/120 149/394/120 213/395/120 214/393/120
f 137/367/121 136/366/121 200/396/121 201/397/121
f 151/390/122 150/392/122 214/393/122 215/391/122
f 138/388/123 137/367/123 201/397/123 202/389/123
f 152/398/124 151/390/124 215/391/124 216/385/124
f 139/382/125 138/388/125 202/389/125 203/383/125
f 153/378/126 152/398/126 216/385/126 217/379/126
f 140/374/127 139/382/127 203/383/127 204/377/127
f 154/370/128 153/378/128 217/379/128 218/371/128
f 141/375/129 140/374/129 204/377/129 205/376/129
f 155/364/130 154/370/130 218/371/130 219/365/130
