# Blender 4.5.4 LTS
# www.blender.org
mtllib Hammer.mtl
o Hammer
v -0.189000 -2.016000 0.189000
v -0.126000 -0.252000 0.126000
v -0.189000 -2.016000 -0.189000
v -0.126000 -0.252000 -0.126000
v 0.189000 -2.016000 0.189000
v 0.126000 -0.252000 0.126000
v 0.189000 -2.016000 -0.189000
v 0.126000 -0.252000 -0.126000
v -0.189000 -0.252000 0.189000
v -0.189000 -0.252000 -0.189000
v 0.189000 -0.252000 -0.189000
v 0.189000 -0.252000 0.189000
v -0.063000 -0.189000 0.063000
v -0.063000 -0.189000 -0.063000
v 0.063000 -0.189000 -0.063000
v 0.063000 -0.189000 0.063000
v -0.063000 1.008000 0.063000
v -0.063000 1.008000 -0.063000
v 0.063000 1.008000 -0.063000
v 0.063000 1.008000 0.063000
v -0.126000 1.071000 0.126000
v -0.126000 1.071000 -0.126000
v 0.126000 1.071000 -0.126000
v 0.126000 1.071000 0.126000
v -0.126000 1.512000 0.126000
v -0.126000 1.512000 -0.126000
v 0.126000 1.512000 -0.126000
v 0.126000 1.512000 0.126000
v 0.063000 1.323000 0.315000
v -0.063000 1.323000 0.315000
v 0.063000 1.512000 0.315000
v -0.063000 1.512000 0.315000
v 0.063000 1.323000 0.567000
v -0.063000 1.323000 0.567000
v 0.063000 1.449000 0.567000
v -0.063000 1.449000 0.567000
v 0.000000 1.260000 0.756000
v 0.000000 1.260000 0.756000
v 0.000000 1.323000 0.756000
v 0.000000 1.323000 0.756000
v 0.000000 1.134000 0.882000
v 0.000000 1.134000 0.882000
v 0.000000 1.197000 0.882000
v 0.000000 1.197000 0.882000
v -0.126000 1.071000 -0.315000
v 0.126000 1.071000 -0.315000
v -0.126000 1.512000 -0.315000
v 0.126000 1.512000 -0.315000
v -0.189000 1.008000 -0.441000
v 0.189000 1.008000 -0.441000
v -0.189000 1.575000 -0.441000
v 0.189000 1.575000 -0.441000
v -0.189000 1.008000 -0.693000
v 0.189000 1.008000 -0.693000
v -0.189000 1.575000 -0.693000
v 0.189000 1.575000 -0.693000
v -0.126000 1.071000 -0.819000
v 0.126000 1.071000 -0.819000
v -0.126000 1.512000 -0.819000
v 0.126000 1.512000 -0.819000
vn -1.0000 -0.0000 -0.0000
vn -0.0000 -0.0000 -1.0000
vn 1.0000 -0.0000 -0.0000
vn -0.0000 -0.0000 1.0000
vn -0.0000 -1.0000 -0.0000
vn -0.0000 0.7071 0.7071
vn -0.0000 1.0000 -0.0000
vn -0.0000 0.7071 -0.7071
vn 0.7071 0.7071 -0.0000
vn -0.7071 0.7071 -0.0000
vn 0.7071 -0.7071 -0.0000
vn -0.0000 -0.6000 0.8000
vn -0.7071 -0.7071 -0.0000
vn -0.0000 -0.7071 0.7071
vn -0.0000 -0.7071 -0.7071
vn 0.9487 -0.0000 0.3162
vn -0.9487 -0.0000 0.3162
vn -0.0000 0.9701 0.2425
vn -0.0000 0.8321 0.5547
vn -0.0000 -0.9487 -0.3162
vn 0.8944 -0.0000 0.4472
vn -0.0000 0.8944 0.4472
vn -0.8944 -0.0000 0.4472
vn -0.0000 -0.8944 0.4472
vn 0.8944 -0.0000 -0.4472
vn -0.0000 0.8944 -0.4472
vn -0.8944 -0.0000 -0.4472
vn -0.0000 -0.8944 -0.4472
vt 0.540609 0.079748
vt 0.540609 0.528125
vt 0.636690 0.528125
vt 0.636690 0.079748
vt 0.662832 0.079748
vt 0.662832 0.528125
vt 0.758913 0.528125
vt 0.758913 0.079748
vt 0.172781 0.421819
vt 0.172781 0.870196
vt 0.076701 0.870196
vt 0.076701 0.421819
vt 0.295005 0.421819
vt 0.295005 0.870196
vt 0.198924 0.870196
vt 0.198924 0.421819
vt 0.785056 0.840484
vt 0.881136 0.840484
vt 0.881136 0.744404
vt 0.785056 0.744404
vt 0.564340 0.843524
vt 0.611103 0.843524
vt 0.607253 0.857684
vt 0.569166 0.857684
vt 0.545394 0.842259
vt 0.545394 0.906313
vt 0.533775 0.922326
vt 0.533775 0.826246
vt 0.556183 0.905825
vt 0.620237 0.905825
vt 0.636250 0.921838
vt 0.540169 0.921838
vt 0.627073 0.905336
vt 0.627073 0.841282
vt 0.636250 0.825757
vt 0.620237 0.841771
vt 0.556183 0.841771
vt 0.540169 0.830408
vt 0.636250 0.830408
vt 0.816568 0.412333
vt 0.784541 0.412333
vt 0.784541 0.716589
vt 0.816568 0.716589
vt 0.617150 0.905537
vt 0.559269 0.905537
vt 0.569166 0.892841
vt 0.607253 0.892841
vt 0.623855 0.846512
vt 0.623855 0.901083
vt 0.611647 0.892841
vt 0.611647 0.854754
vt 0.550123 0.902295
vt 0.550123 0.845300
vt 0.569166 0.854754
vt 0.605504 0.568801
vt 0.605504 0.602510
vt 0.622359 0.619365
vt 0.622359 0.551947
vt 0.442856 0.422127
vt 0.474883 0.422127
vt 0.474883 0.718082
vt 0.442856 0.718082
vt 0.816568 0.078590
vt 0.784541 0.078590
vt 0.784541 0.373545
vt 0.816568 0.373545
vt 0.662318 0.558770
vt 0.694345 0.558770
vt 0.694345 0.857166
vt 0.662318 0.857166
vt 0.848901 0.072881
vt 0.905379 0.072881
vt 0.891870 0.139266
vt 0.856063 0.139266
vt 0.571795 0.602510
vt 0.571795 0.568801
vt 0.554940 0.551947
vt 0.554940 0.619365
vt 0.401735 0.678557
vt 0.336640 0.678557
vt 0.336640 0.628110
vt 0.401735 0.628110
vt 0.336263 0.092413
vt 0.336263 0.206317
vt 0.385079 0.206317
vt 0.385079 0.092413
vt 0.271176 0.265890
vt 0.327650 0.265890
vt 0.327650 0.373934
vt 0.271176 0.373934
vt 0.271176 0.092413
vt 0.271176 0.206317
vt 0.222360 0.328536
vt 0.222360 0.374276
vt 0.157272 0.361080
vt 0.157272 0.328536
vt 0.263178 0.283792
vt 0.263178 0.384078
vt 0.222360 0.377352
vt 0.264239 0.199457
vt 0.263851 0.094855
vt 0.222848 0.161407
vt 0.222748 0.197015
vt 0.401735 0.613462
vt 0.336640 0.613462
vt 0.352914 0.564641
vt 0.385461 0.564641
vt 0.157272 0.190045
vt 0.157272 0.157501
vt 0.108457 0.141229
vt 0.108457 0.157501
vt 0.352914 0.560765
vt 0.385462 0.560765
vt 0.385461 0.499546
vt 0.352914 0.499546
vt 0.216989 0.206317
vt 0.216989 0.157501
vt 0.385461 0.559758
vt 0.352914 0.559758
vt 0.369188 0.450725
vt 0.157272 0.359235
vt 0.110302 0.328536
vt 0.110302 0.312265
vt 0.393076 0.377352
vt 0.393076 0.263449
vt 0.417623 0.247177
vt 0.417623 0.393624
vt 0.622359 0.626747
vt 0.554940 0.626747
vt 0.554940 0.669929
vt 0.622359 0.669929
vt 0.336263 0.373477
vt 0.336263 0.263449
vt 0.385079 0.263449
vt 0.385079 0.373477
vt 0.336640 0.687346
vt 0.401735 0.687346
vt 0.401735 0.717612
vt 0.336640 0.717612
vt 0.417623 0.076141
vt 0.417623 0.222588
vt 0.482710 0.222588
vt 0.482710 0.076141
vt 0.336640 0.727378
vt 0.401735 0.727378
vt 0.418009 0.759925
vt 0.320367 0.759925
vt 0.622359 0.674850
vt 0.554940 0.674850
vt 0.538086 0.703638
vt 0.639213 0.703638
vt 0.482710 0.393624
vt 0.482710 0.247177
vt 0.515254 0.263449
vt 0.515254 0.377352
vt 0.538086 0.771056
vt 0.639213 0.771056
vt 0.418009 0.825020
vt 0.320367 0.825020
vt 0.507167 0.752861
vt 0.443114 0.752861
vt 0.443114 0.864955
vt 0.507167 0.864955
vt 0.401735 0.857567
vt 0.336640 0.857567
vt 0.515254 0.206317
vt 0.515254 0.092413
vt 0.554940 0.804765
vt 0.622359 0.804765
s 0
usemtl Hammer
f 1/1/1 9/2/1 10/3/1 3/4/1
f 3/5/2 10/6/2 11/7/2 7/8/2
f 7/9/3 11/10/3 12/11/3 5/12/3
f 5/13/4 12/14/4 9/15/4 1/16/4
f 3/17/5 7/18/5 5/19/5 1/20/5
f 2/21/6 6/22/6 16/23/6 13/24/6
f 2/25/7 4/26/7 10/27/7 9/28/7
f 4/29/7 8/30/7 11/31/7 10/32/7
f 8/33/7 6/34/7 12/35/7 11/31/7
f 6/36/7 2/37/7 9/38/7 12/39/7
f 15/40/2 14/41/2 18/42/2 19/43/2
f 8/44/8 4/45/8 14/46/8 15/47/8
f 6/48/9 8/49/9 15/50/9 16/51/9
f 4/52/10 2/53/10 13/54/10 14/46/10
f 20/55/11 19/56/11 23/57/11 24/58/11
f 16/59/3 15/60/3 19/61/3 20/62/3
f 14/63/1 13/64/1 17/65/1 18/66/1
f 13/67/4 16/68/4 20/69/4 17/70/4
f 21/71/12 24/72/12 29/73/12 30/74/12
f 18/75/13 17/76/13 21/77/13 22/78/13
f 17/76/14 20/55/14 24/58/14 21/77/14
f 19/56/15 18/75/15 22/78/15 23/57/15
f 27/79/7 26/80/7 25/81/7 28/82/7
f 22/83/1 26/84/1 47/85/1 45/86/1
f 24/87/3 23/88/3 27/89/3 28/90/3
f 22/83/1 21/91/1 25/92/1 26/84/1
f 29/93/3 31/94/3 35/95/3 33/96/3
f 24/97/16 28/98/16 31/99/16 29/93/16
f 25/100/17 21/101/17 30/102/17 32/103/17
f 28/104/7 25/105/7 32/106/7 31/107/7
f 36/108/17 34/109/17 38/110/17 40/111/17
f 30/112/5 29/113/5 33/114/5 34/115/5
f 32/116/1 30/117/1 34/109/1 36/108/1
f 31/118/18 32/119/18 36/115/18 35/114/18
f 35/114/19 36/115/19 40/120/19 39/120/19
f 33/96/16 35/121/16 39/122/16 37/123/16
f 34/115/20 33/114/20 37/120/20 38/120/20
f 48/124/21 46/125/21 50/126/21 52/127/21
f 23/128/5 22/129/5 45/130/5 46/131/5
f 27/132/3 23/133/3 46/134/3 48/135/3
f 26/136/7 27/137/7 48/138/7 47/139/7
f 49/140/1 51/141/1 55/142/1 53/143/1
f 47/144/22 48/145/22 52/146/22 51/147/22
f 45/86/23 47/85/23 51/141/23 49/140/23
f 46/148/24 45/149/24 49/150/24 50/151/24
f 56/152/25 54/153/25 58/154/25 60/155/25
f 50/151/5 49/150/5 53/156/5 54/157/5
f 52/127/3 50/126/3 54/153/3 56/152/3
f 51/147/7 52/146/7 56/158/7 55/159/7
f 58/160/2 57/161/2 59/162/2 60/163/2
f 55/159/26 56/158/26 60/164/26 59/165/26
f 53/143/27 55/142/27 59/166/27 57/167/27
f 54/157/28 53/156/28 57/168/28 58/169/28
l 41 42
l 43 44
