# Blender 5.0.0
# www.blender.org
mtllib Medicine_01.mtl
o Medicine(Bottle)
v 0.000000 -0.501492 -0.374534
v -0.046442 0.629652 -0.233479
v 0.073068 -0.501492 -0.367337
v -0.091099 0.629652 -0.219932
v 0.143328 -0.501492 -0.346024
v -0.132255 0.629652 -0.197934
v 0.208080 -0.501492 -0.311413
v -0.168329 0.629652 -0.168329
v 0.264835 -0.501492 -0.264835
v -0.197934 0.629652 -0.132255
v 0.311413 -0.501492 -0.208080
v -0.219932 0.629652 -0.091099
v 0.346024 -0.501492 -0.143328
v -0.233479 0.629652 -0.046442
v 0.367337 -0.501492 -0.073068
v -0.238053 0.629652 0.000000
v 0.374534 -0.501492 0.000000
v -0.233479 0.629652 0.046442
v 0.367337 -0.501492 0.073068
v -0.219932 0.629652 0.091099
v 0.346024 -0.501492 0.143328
v -0.197934 0.629652 0.132255
v 0.311413 -0.501492 0.208080
v -0.168329 0.629652 0.168329
v 0.264835 -0.501492 0.264835
v -0.132255 0.629652 0.197934
v 0.208080 -0.501492 0.311413
v -0.091099 0.629652 0.219932
v 0.143328 -0.501492 0.346024
v -0.046442 0.629652 0.233479
v 0.073068 -0.501492 0.367337
v 0.000000 0.629652 0.238053
v 0.000000 -0.501492 0.374534
v 0.046442 0.629652 0.233479
v -0.073068 -0.501492 0.367337
v 0.091099 0.629652 0.219932
v -0.143328 -0.501492 0.346024
v 0.132255 0.629652 0.197934
v -0.208080 -0.501492 0.311413
v 0.168329 0.629652 0.168329
v -0.264835 -0.501492 0.264835
v 0.197934 0.629652 0.132255
v -0.311413 -0.501492 0.208080
v 0.219932 0.629652 0.091099
v -0.346024 -0.501492 0.143328
v 0.233479 0.629652 0.046442
v -0.367337 -0.501492 0.073068
v 0.238053 0.629652 0.000000
v -0.374534 -0.501492 0.000000
v 0.233479 0.629652 -0.046442
v -0.367337 -0.501492 -0.073068
v 0.219932 0.629652 -0.091099
v -0.346024 -0.501492 -0.143328
v 0.197934 0.629652 -0.132255
v -0.311413 -0.501492 -0.208080
v 0.168329 0.629652 -0.168329
v -0.264835 -0.501492 -0.264835
v 0.132255 0.629652 -0.197934
v -0.208080 -0.501492 -0.311413
v 0.091099 0.629652 -0.219932
v -0.143328 -0.501492 -0.346024
v 0.046442 0.629652 -0.233479
v -0.073068 -0.501492 -0.367337
v 0.000000 0.629652 -0.238053
v 0.000000 0.501492 -0.238053
v 0.000000 0.319628 -0.374534
v 0.000000 0.496933 -0.268423
v 0.000000 0.483482 -0.297270
v 0.000000 0.461815 -0.323147
v 0.000000 0.433018 -0.344758
v 0.000000 0.398536 -0.361018
v 0.000000 0.360096 -0.371112
v 0.046442 0.501492 -0.233479
v 0.073068 0.319628 -0.367337
v 0.052367 0.496933 -0.263265
v 0.057994 0.483482 -0.291558
v 0.063043 0.461815 -0.316938
v 0.067259 0.433018 -0.338133
v 0.070431 0.398536 -0.354081
v 0.072400 0.360096 -0.363981
v 0.091099 0.501492 -0.219932
v 0.143328 0.319628 -0.346024
v 0.102721 0.496933 -0.247990
v 0.113760 0.483482 -0.274641
v 0.123663 0.461815 -0.298549
v 0.131933 0.433018 -0.318515
v 0.138156 0.398536 -0.333537
v 0.142018 0.360096 -0.342862
v 0.132255 0.501492 -0.197934
v 0.208080 0.319628 -0.311413
v 0.149128 0.496933 -0.223185
v 0.165154 0.483482 -0.247171
v 0.179531 0.461815 -0.268687
v 0.191537 0.433018 -0.286656
v 0.200571 0.398536 -0.300175
v 0.206179 0.360096 -0.308568
v 0.168329 0.501492 -0.168329
v 0.264835 0.319628 -0.264835
v 0.189803 0.496933 -0.189803
v 0.210201 0.483482 -0.210201
v 0.228500 0.461815 -0.228500
v 0.243781 0.433018 -0.243781
v 0.255278 0.398536 -0.255278
v 0.262416 0.360096 -0.262416
v 0.197934 0.501492 -0.132255
v 0.311413 0.319628 -0.208080
v 0.223185 0.496933 -0.149128
v 0.247171 0.483482 -0.165154
v 0.268687 0.461815 -0.179531
v 0.286656 0.433018 -0.191537
v 0.300175 0.398536 -0.200571
v 0.308568 0.360096 -0.206179
v 0.219932 0.501492 -0.091099
v 0.346024 0.319628 -0.143328
v 0.247990 0.496933 -0.102721
v 0.274641 0.483482 -0.113760
v 0.298549 0.461815 -0.123663
v 0.318515 0.433018 -0.131933
v 0.333537 0.398536 -0.138156
v 0.342862 0.360096 -0.142018
v 0.233479 0.501492 -0.046442
v 0.367337 0.319628 -0.073068
v 0.263265 0.496933 -0.052367
v 0.291558 0.483482 -0.057994
v 0.316938 0.461815 -0.063043
v 0.338133 0.433018 -0.067259
v 0.354081 0.398536 -0.070431
v 0.363981 0.360096 -0.072400
v 0.238053 0.501492 0.000000
v 0.374534 0.319628 0.000000
v 0.268423 0.496933 0.000000
v 0.297270 0.483482 0.000000
v 0.323147 0.461815 0.000000
v 0.344758 0.433018 0.000000
v 0.361018 0.398536 0.000000
v 0.371112 0.360096 0.000000
v 0.233479 0.501492 0.046442
v 0.367337 0.319628 0.073068
v 0.263265 0.496933 0.052367
v 0.291558 0.483482 0.057994
v 0.316938 0.461815 0.063043
v 0.338133 0.433018 0.067259
v 0.354081 0.398536 0.070431
v 0.363981 0.360096 0.072400
v 0.219932 0.501492 0.091099
v 0.346024 0.319628 0.143328
v 0.247990 0.496933 0.102721
v 0.274641 0.483482 0.113760
v 0.298549 0.461815 0.123663
v 0.318515 0.433018 0.131933
v 0.333537 0.398536 0.138156
v 0.342862 0.360096 0.142018
v 0.197934 0.501492 0.132255
v 0.311413 0.319628 0.208080
v 0.223185 0.496933 0.149128
v 0.247171 0.483482 0.165154
v 0.268687 0.461815 0.179531
v 0.286656 0.433018 0.191537
v 0.300175 0.398536 0.200571
v 0.308568 0.360096 0.206179
v 0.168329 0.501492 0.168329
v 0.264835 0.319628 0.264835
v 0.189803 0.496933 0.189803
v 0.210201 0.483482 0.210201
v 0.228500 0.461815 0.228500
v 0.243781 0.433018 0.243781
v 0.255278 0.398536 0.255278
v 0.262416 0.360096 0.262416
v 0.132255 0.501492 0.197934
v 0.208080 0.319628 0.311413
v 0.149128 0.496933 0.223185
v 0.165154 0.483482 0.247171
v 0.179531 0.461815 0.268687
v 0.191537 0.433018 0.286656
v 0.200571 0.398536 0.300175
v 0.206179 0.360096 0.308568
v 0.091099 0.501492 0.219932
v 0.143328 0.319628 0.346024
v 0.102721 0.496933 0.247990
v 0.113760 0.483482 0.274641
v 0.123663 0.461815 0.298549
v 0.131933 0.433018 0.318515
v 0.138156 0.398536 0.333537
v 0.142018 0.360096 0.342862
v 0.046442 0.501492 0.233479
v 0.073068 0.319628 0.367337
v 0.052367 0.496933 0.263265
v 0.057994 0.483482 0.291558
v 0.063043 0.461815 0.316938
v 0.067259 0.433018 0.338133
v 0.070431 0.398536 0.354081
v 0.072400 0.360096 0.363981
v 0.000000 0.501492 0.238053
v 0.000000 0.319628 0.374534
v 0.000000 0.496933 0.268423
v 0.000000 0.483482 0.297270
v 0.000000 0.461815 0.323147
v 0.000000 0.433018 0.344758
v 0.000000 0.398536 0.361018
v 0.000000 0.360096 0.371112
v -0.046442 0.501492 0.233479
v -0.073068 0.319628 0.367337
v -0.052367 0.496933 0.263265
v -0.057994 0.483482 0.291558
v -0.063043 0.461815 0.316938
v -0.067259 0.433018 0.338133
v -0.070431 0.398536 0.354081
v -0.072400 0.360096 0.363981
v -0.091099 0.501492 0.219932
v -0.143328 0.319628 0.346024
v -0.102721 0.496933 0.247990
v -0.113760 0.483482 0.274641
v -0.123663 0.461815 0.298549
v -0.131933 0.433018 0.318515
v -0.138156 0.398536 0.333537
v -0.142018 0.360096 0.342862
v -0.132255 0.501492 0.197934
v -0.208080 0.319628 0.311413
v -0.149128 0.496933 0.223185
v -0.165154 0.483482 0.247171
v -0.179531 0.461815 0.268687
v -0.191537 0.433018 0.286656
v -0.200571 0.398536 0.300175
v -0.206179 0.360096 0.308568
v -0.168329 0.501492 0.168329
v -0.264835 0.319628 0.264835
v -0.189803 0.496933 0.189803
v -0.210201 0.483482 0.210201
v -0.228500 0.461815 0.228500
v -0.243781 0.433018 0.243781
v -0.255278 0.398536 0.255278
v -0.262416 0.360096 0.262416
v -0.197934 0.501492 0.132255
v -0.311413 0.319628 0.208080
v -0.223185 0.496933 0.149128
v -0.247171 0.483482 0.165154
v -0.268687 0.461815 0.179531
v -0.286656 0.433018 0.191537
v -0.300175 0.398536 0.200571
v -0.308568 0.360096 0.206179
v -0.219932 0.501492 0.091099
v -0.346024 0.319628 0.143328
v -0.247990 0.496933 0.102721
v -0.274641 0.483482 0.113760
v -0.298549 0.461815 0.123663
v -0.318515 0.433018 0.131933
v -0.333537 0.398536 0.138156
v -0.342862 0.360096 0.142018
v -0.233479 0.501492 0.046442
v -0.367337 0.319628 0.073068
v -0.263265 0.496933 0.052367
v -0.291558 0.483482 0.057994
v -0.316938 0.461815 0.063043
v -0.338133 0.433018 0.067259
v -0.354081 0.398536 0.070431
v -0.363981 0.360096 0.072400
v -0.238053 0.501492 0.000000
v -0.374534 0.319628 0.000000
v -0.268423 0.496933 0.000000
v -0.297270 0.483482 0.000000
v -0.323147 0.461815 0.000000
v -0.344758 0.433018 0.000000
v -0.361018 0.398536 0.000000
v -0.371112 0.360096 0.000000
v -0.233479 0.501492 -0.046442
v -0.367337 0.319628 -0.073068
v -0.263265 0.496933 -0.052367
v -0.291558 0.483482 -0.057994
v -0.316938 0.461815 -0.063043
v -0.338133 0.433018 -0.067259
v -0.354081 0.398536 -0.070431
v -0.363981 0.360096 -0.072400
v -0.219932 0.501492 -0.091099
v -0.346024 0.319628 -0.143328
v -0.247990 0.496933 -0.102721
v -0.274641 0.483482 -0.113760
v -0.298549 0.461815 -0.123663
v -0.318515 0.433018 -0.131933
v -0.333537 0.398536 -0.138156
v -0.342862 0.360096 -0.142018
v -0.197934 0.501492 -0.132255
v -0.311413 0.319628 -0.208080
v -0.223185 0.496933 -0.149128
v -0.247171 0.483482 -0.165154
v -0.268687 0.461815 -0.179531
v -0.286656 0.433018 -0.191537
v -0.300175 0.398536 -0.200571
v -0.308568 0.360096 -0.206179
v -0.168329 0.501492 -0.168329
v -0.264835 0.319628 -0.264835
v -0.189803 0.496933 -0.189803
v -0.210201 0.483482 -0.210201
v -0.228500 0.461815 -0.228500
v -0.243781 0.433018 -0.243781
v -0.255278 0.398536 -0.255278
v -0.262416 0.360096 -0.262416
v -0.132255 0.501492 -0.197934
v -0.208080 0.319628 -0.311413
v -0.149128 0.496933 -0.223185
v -0.165154 0.483482 -0.247171
v -0.179531 0.461815 -0.268687
v -0.191537 0.433018 -0.286656
v -0.200571 0.398536 -0.300175
v -0.206179 0.360096 -0.308568
v -0.091099 0.501492 -0.219932
v -0.143328 0.319628 -0.346024
v -0.102721 0.496933 -0.247990
v -0.113760 0.483482 -0.274641
v -0.123663 0.461815 -0.298549
v -0.131933 0.433018 -0.318515
v -0.138156 0.398536 -0.333537
v -0.142018 0.360096 -0.342862
v -0.046442 0.501492 -0.233479
v -0.073068 0.319628 -0.367337
v -0.052367 0.496933 -0.263265
v -0.057994 0.483482 -0.291558
v -0.063043 0.461815 -0.316938
v -0.067259 0.433018 -0.338133
v -0.070431 0.398536 -0.354081
v -0.072400 0.360096 -0.363981
vn -0.0980 -0.0000 -0.9952
vn -0.4714 -0.0000 0.8819
vn 0.2903 -0.0000 -0.9569
vn -0.8819 -0.0000 -0.4714
vn 0.9569 -0.0000 0.2903
vn -0.2903 -0.0000 0.9569
vn 0.0980 -0.0000 -0.9952
vn -0.9569 -0.0000 -0.2903
vn 0.9952 -0.0000 0.0980
vn -0.0980 -0.0000 0.9952
vn -0.9952 -0.0000 -0.0980
vn 0.9952 -0.0000 -0.0980
vn 0.0980 -0.0000 0.9952
vn -0.9952 -0.0000 0.0980
vn 0.9569 -0.0000 -0.2903
vn -0.0000 1.0000 -0.0000
vn -0.9569 -0.0000 0.2903
vn 0.8819 -0.0000 -0.4714
vn -0.2903 -0.0000 -0.9569
vn 0.4714 -0.0000 0.8819
vn -0.8819 -0.0000 0.4714
vn 0.7730 -0.0000 -0.6344
vn -0.4714 -0.0000 -0.8819
vn 0.6344 -0.0000 0.7730
vn -0.7730 -0.0000 0.6344
vn 0.6344 -0.0000 -0.7730
vn -0.6344 -0.0000 -0.7730
vn 0.7730 -0.0000 0.6344
vn -0.6344 -0.0000 0.7730
vn 0.4714 -0.0000 -0.8819
vn -0.7730 -0.0000 -0.6344
vn 0.8819 -0.0000 0.4714
vn -0.0000 -1.0000 -0.0000
vn 0.0977 0.0839 -0.9917
vn 0.0948 0.2528 -0.9628
vn 0.0887 0.4248 -0.9009
vn 0.0785 0.5984 -0.7974
vn 0.0631 0.7652 -0.6407
vn 0.0416 0.9055 -0.4222
vn 0.0146 0.9888 -0.1485
vn 0.2893 0.0839 -0.9536
vn 0.2809 0.2528 -0.9258
vn 0.2628 0.4248 -0.8663
vn 0.2326 0.5984 -0.7667
vn 0.1869 0.7652 -0.6161
vn 0.1232 0.9055 -0.4060
vn 0.0433 0.9888 -0.1428
vn 0.4697 0.0839 -0.8788
vn 0.4561 0.2528 -0.8533
vn 0.4267 0.4248 -0.7984
vn 0.3777 0.5984 -0.7066
vn 0.3035 0.7652 -0.5678
vn 0.2000 0.9055 -0.3742
vn 0.0703 0.9888 -0.1316
vn 0.6322 0.0839 -0.7703
vn 0.6138 0.2528 -0.7479
vn 0.5743 0.4248 -0.6998
vn 0.5083 0.5984 -0.6193
vn 0.4084 0.7652 -0.4977
vn 0.2692 0.9055 -0.3280
vn 0.0946 0.9888 -0.1153
vn 0.7703 0.0839 -0.6322
vn 0.7479 0.2528 -0.6138
vn 0.6998 0.4248 -0.5743
vn 0.6193 0.5984 -0.5083
vn 0.4977 0.7652 -0.4084
vn 0.3280 0.9055 -0.2692
vn 0.1153 0.9888 -0.0946
vn 0.8788 0.0839 -0.4697
vn 0.8533 0.2528 -0.4561
vn 0.7984 0.4248 -0.4267
vn 0.7066 0.5984 -0.3777
vn 0.5678 0.7652 -0.3035
vn 0.3742 0.9055 -0.2000
vn 0.1316 0.9888 -0.0703
vn 0.9536 0.0839 -0.2893
vn 0.9258 0.2528 -0.2809
vn 0.8663 0.4248 -0.2628
vn 0.7667 0.5984 -0.2326
vn 0.6161 0.7652 -0.1869
vn 0.4060 0.9055 -0.1232
vn 0.1428 0.9888 -0.0433
vn 0.9917 0.0839 -0.0977
vn 0.9628 0.2528 -0.0948
vn 0.9009 0.4248 -0.0887
vn 0.7974 0.5984 -0.0785
vn 0.6407 0.7652 -0.0631
vn 0.4222 0.9055 -0.0416
vn 0.1485 0.9888 -0.0146
vn 0.9917 0.0839 0.0977
vn 0.9628 0.2528 0.0948
vn 0.9009 0.4248 0.0887
vn 0.7974 0.5984 0.0785
vn 0.6407 0.7652 0.0631
vn 0.4222 0.9055 0.0416
vn 0.1485 0.9888 0.0146
vn 0.9536 0.0839 0.2893
vn 0.9258 0.2528 0.2809
vn 0.8663 0.4248 0.2628
vn 0.7667 0.5984 0.2326
vn 0.6161 0.7652 0.1869
vn 0.4060 0.9055 0.1232
vn 0.1428 0.9888 0.0433
vn 0.8788 0.0839 0.4697
vn 0.8533 0.2528 0.4561
vn 0.7984 0.4248 0.4267
vn 0.7066 0.5984 0.3777
vn 0.5678 0.7652 0.3035
vn 0.3742 0.9055 0.2000
vn 0.1316 0.9888 0.0703
vn 0.7703 0.0839 0.6322
vn 0.7479 0.2528 0.6138
vn 0.6998 0.4248 0.5743
vn 0.6193 0.5984 0.5083
vn 0.4977 0.7652 0.4084
vn 0.3280 0.9055 0.2692
vn 0.1153 0.9888 0.0946
vn 0.6322 0.0839 0.7703
vn 0.6138 0.2528 0.7479
vn 0.5743 0.4248 0.6998
vn 0.5083 0.5984 0.6193
vn 0.4084 0.7652 0.4977
vn 0.2692 0.9055 0.3280
vn 0.0946 0.9888 0.1153
vn 0.4697 0.0839 0.8788
vn 0.4561 0.2528 0.8533
vn 0.4267 0.4248 0.7984
vn 0.3777 0.5984 0.7066
vn 0.3035 0.7652 0.5678
vn 0.2000 0.9055 0.3742
vn 0.0703 0.9888 0.1316
vn 0.2893 0.0839 0.9536
vn 0.2809 0.2528 0.9258
vn 0.2628 0.4248 0.8663
vn 0.2326 0.5984 0.7667
vn 0.1869 0.7652 0.6161
vn 0.1232 0.9055 0.4060
vn 0.0433 0.9888 0.1428
vn 0.0977 0.0839 0.9917
vn 0.0948 0.2528 0.9628
vn 0.0887 0.4248 0.9009
vn 0.0785 0.5984 0.7974
vn 0.0631 0.7652 0.6407
vn 0.0416 0.9055 0.4222
vn 0.0146 0.9888 0.1485
vn -0.0977 0.0839 0.9917
vn -0.0948 0.2528 0.9628
vn -0.0887 0.4248 0.9009
vn -0.0785 0.5984 0.7974
vn -0.0631 0.7652 0.6407
vn -0.0416 0.9055 0.4222
vn -0.0146 0.9888 0.1485
vn -0.2893 0.0839 0.9536
vn -0.2809 0.2528 0.9258
vn -0.2628 0.4248 0.8663
vn -0.2326 0.5984 0.7667
vn -0.1869 0.7652 0.6161
vn -0.1232 0.9055 0.4060
vn -0.0433 0.9888 0.1428
vn -0.4697 0.0839 0.8788
vn -0.4561 0.2528 0.8533
vn -0.4267 0.4248 0.7984
vn -0.3777 0.5984 0.7066
vn -0.3035 0.7652 0.5678
vn -0.2000 0.9055 0.3742
vn -0.0703 0.9888 0.1316
vn -0.6322 0.0839 0.7703
vn -0.6138 0.2528 0.7479
vn -0.5743 0.4248 0.6998
vn -0.5083 0.5984 0.6193
vn -0.4084 0.7652 0.4977
vn -0.2692 0.9055 0.3280
vn -0.0946 0.9888 0.1153
vn -0.7703 0.0839 0.6322
vn -0.7479 0.2528 0.6138
vn -0.6998 0.4248 0.5743
vn -0.6193 0.5984 0.5083
vn -0.4977 0.7652 0.4084
vn -0.3280 0.9055 0.2692
vn -0.1153 0.9888 0.0946
vn -0.8788 0.0839 0.4697
vn -0.8533 0.2528 0.4561
vn -0.7984 0.4248 0.4267
vn -0.7066 0.5984 0.3777
vn -0.5678 0.7652 0.3035
vn -0.3742 0.9055 0.2000
vn -0.1316 0.9888 0.0703
vn -0.9536 0.0839 0.2893
vn -0.9258 0.2528 0.2809
vn -0.8663 0.4248 0.2628
vn -0.7667 0.5984 0.2326
vn -0.6161 0.7652 0.1869
vn -0.4060 0.9055 0.1232
vn -0.1428 0.9888 0.0433
vn -0.9917 0.0839 0.0977
vn -0.9628 0.2528 0.0948
vn -0.9009 0.4248 0.0887
vn -0.7974 0.5984 0.0785
vn -0.6407 0.7652 0.0631
vn -0.4222 0.9055 0.0416
vn -0.1485 0.9888 0.0146
vn -0.9917 0.0839 -0.0977
vn -0.9628 0.2528 -0.0948
vn -0.9009 0.4248 -0.0887
vn -0.7974 0.5984 -0.0785
vn -0.6407 0.7652 -0.0631
vn -0.4222 0.9055 -0.0416
vn -0.1485 0.9888 -0.0146
vn -0.9536 0.0839 -0.2893
vn -0.9258 0.2528 -0.2809
vn -0.8663 0.4248 -0.2628
vn -0.7667 0.5984 -0.2326
vn -0.6161 0.7652 -0.1869
vn -0.4060 0.9055 -0.1232
vn -0.1428 0.9888 -0.0433
vn -0.8788 0.0839 -0.4697
vn -0.8533 0.2528 -0.4561
vn -0.7984 0.4248 -0.4267
vn -0.7066 0.5984 -0.3777
vn -0.5678 0.7652 -0.3035
vn -0.3742 0.9055 -0.2000
vn -0.1316 0.9888 -0.0703
vn -0.7703 0.0839 -0.6322
vn -0.7479 0.2528 -0.6138
vn -0.6998 0.4248 -0.5743
vn -0.6193 0.5984 -0.5083
vn -0.4977 0.7652 -0.4084
vn -0.3280 0.9055 -0.2692
vn -0.1153 0.9888 -0.0946
vn -0.6322 0.0839 -0.7703
vn -0.6138 0.2528 -0.7479
vn -0.5743 0.4248 -0.6998
vn -0.5083 0.5984 -0.6193
vn -0.4084 0.7652 -0.4977
vn -0.2692 0.9055 -0.3280
vn -0.0946 0.9888 -0.1153
vn -0.4697 0.0839 -0.8788
vn -0.4561 0.2528 -0.8533
vn -0.4267 0.4248 -0.7984
vn -0.3777 0.5984 -0.7066
vn -0.3035 0.7652 -0.5678
vn -0.2000 0.9055 -0.3742
vn -0.0703 0.9888 -0.1316
vn -0.2893 0.0839 -0.9536
vn -0.2809 0.2528 -0.9258
vn -0.2628 0.4248 -0.8663
vn -0.2326 0.5984 -0.7667
vn -0.1869 0.7652 -0.6161
vn -0.1232 0.9055 -0.4060
vn -0.0433 0.9888 -0.1428
vn -0.0977 0.0839 -0.9917
vn -0.0948 0.2528 -0.9628
vn -0.0887 0.4248 -0.9009
vn -0.0785 0.5984 -0.7974
vn -0.0631 0.7652 -0.6407
vn -0.0416 0.9055 -0.4222
vn -0.0146 0.9888 -0.1485
vn 0.2903 -0.0000 0.9569
vt 0.510978 0.494312
vt 0.485032 0.494312
vt 0.485032 0.547784
vt 0.510978 0.547784
vt 0.037520 0.451724
vt 0.060512 0.451724
vt 0.060512 0.505197
vt 0.037520 0.505197
vt 0.561871 0.494312
vt 0.536923 0.494312
vt 0.536923 0.547784
vt 0.561871 0.547784
vt 0.607410 0.094740
vt 0.584417 0.094740
vt 0.584417 0.148212
vt 0.607410 0.148212
vt 0.437537 0.017081
vt 0.462486 0.017081
vt 0.462486 0.070553
vt 0.437537 0.070553
vt 0.085460 0.451724
vt 0.085460 0.505197
vt 0.559469 0.094740
vt 0.559469 0.148212
vt 0.488431 0.017081
vt 0.488431 0.070553
vt 0.111406 0.451724
vt 0.111406 0.505197
vt 0.533524 0.094740
vt 0.533524 0.148212
vt 0.514376 0.017081
vt 0.514376 0.070553
vt 0.137351 0.451724
vt 0.137351 0.505197
vt 0.507578 0.094740
vt 0.507578 0.148212
vt 0.539325 0.017081
vt 0.539325 0.070553
vt 0.795086 0.895233
vt 0.770448 0.897659
vt 0.745810 0.895233
vt 0.722119 0.888046
vt 0.700285 0.876376
vt 0.681147 0.860670
vt 0.665441 0.841532
vt 0.653771 0.819698
vt 0.646584 0.796007
vt 0.644158 0.771369
vt 0.646584 0.746731
vt 0.653771 0.723040
vt 0.665441 0.701206
vt 0.681147 0.682068
vt 0.700285 0.666363
vt 0.722119 0.654692
vt 0.745810 0.647505
vt 0.770448 0.645079
vt 0.795086 0.647505
vt 0.818777 0.654692
vt 0.840611 0.666363
vt 0.859749 0.682068
vt 0.875455 0.701206
vt 0.887125 0.723040
vt 0.894312 0.746731
vt 0.896738 0.771369
vt 0.894312 0.796007
vt 0.887125 0.819698
vt 0.875455 0.841532
vt 0.859749 0.860670
vt 0.840611 0.876376
vt 0.818777 0.888046
vt 0.482630 0.094740
vt 0.482630 0.148212
vt 0.562317 0.017081
vt 0.562317 0.070553
vt 0.460084 0.494312
vt 0.460084 0.547784
vt 0.162299 0.451724
vt 0.185292 0.451724
vt 0.185292 0.505197
vt 0.162299 0.505197
vt 0.459638 0.094740
vt 0.459638 0.148212
vt 0.582470 0.017081
vt 0.582470 0.070553
vt 0.437091 0.494312
vt 0.437091 0.547784
vt 0.205445 0.451724
vt 0.205445 0.505197
vt 0.439485 0.094740
vt 0.439485 0.148212
vt 0.605017 0.494312
vt 0.584864 0.494312
vt 0.584864 0.547784
vt 0.605017 0.547784
vt 0.416938 0.494312
vt 0.416938 0.547784
vt 0.394392 0.017081
vt 0.414545 0.017081
vt 0.414545 0.070553
vt 0.394392 0.070553
vt 0.017367 0.451724
vt 0.017367 0.505197
vt 0.627563 0.094740
vt 0.627563 0.148212
vt 0.225092 0.423455
vt 0.263855 0.419638
vt 0.301129 0.408331
vt 0.335481 0.389969
vt 0.365590 0.365259
vt 0.390301 0.335149
vt 0.408662 0.300798
vt 0.419969 0.263524
vt 0.423787 0.224760
vt 0.419969 0.185997
vt 0.408662 0.148723
vt 0.390301 0.114371
vt 0.365590 0.084261
vt 0.335481 0.059551
vt 0.301129 0.041190
vt 0.263855 0.029883
vt 0.225092 0.026065
vt 0.186328 0.029883
vt 0.149054 0.041190
vt 0.114702 0.059551
vt 0.084593 0.084261
vt 0.059883 0.114371
vt 0.041521 0.148723
vt 0.030214 0.185997
vt 0.026396 0.224760
vt 0.030214 0.263524
vt 0.041521 0.300798
vt 0.059883 0.335149
vt 0.084593 0.365259
vt 0.114702 0.389969
vt 0.149054 0.408331
vt 0.186328 0.419637
vt 0.205392 0.888267
vt 0.164389 0.888267
vt 0.164389 0.905227
vt 0.205018 0.905227
vt 0.164389 0.921337
vt 0.203913 0.921337
vt 0.164389 0.935789
vt 0.202132 0.935789
vt 0.561855 0.716298
vt 0.523424 0.720083
vt 0.523424 0.707735
vt 0.559446 0.704187
vt 0.523424 0.692949
vt 0.556561 0.689685
vt 0.523424 0.676466
vt 0.553345 0.673519
vt 0.523424 0.659113
vt 0.549960 0.656499
vt 0.244820 0.888267
vt 0.244085 0.905227
vt 0.241917 0.921337
vt 0.238426 0.935789
vt 0.598809 0.705088
vt 0.594083 0.693680
vt 0.588425 0.680019
vt 0.582117 0.664791
vt 0.575476 0.648759
vt 0.281157 0.888267
vt 0.280090 0.905227
vt 0.276943 0.921337
vt 0.271873 0.935789
vt 0.632866 0.686884
vt 0.626006 0.676617
vt 0.617791 0.664323
vt 0.608634 0.650618
vt 0.598993 0.636189
vt 0.313006 0.888267
vt 0.311648 0.905227
vt 0.307643 0.921337
vt 0.301191 0.935789
vt 0.662717 0.662386
vt 0.653986 0.653654
vt 0.643530 0.643199
vt 0.631875 0.631544
vt 0.619605 0.619273
vt 0.281157 0.888267
vt 0.687216 0.632534
vt 0.676948 0.625674
vt 0.664654 0.617459
vt 0.650949 0.608302
vt 0.636521 0.598661
vt 0.705419 0.598477
vt 0.694011 0.593752
vt 0.680351 0.588093
vt 0.665123 0.581786
vt 0.649091 0.575145
vt 0.205392 0.888267
vt 0.716629 0.561523
vt 0.704519 0.559114
vt 0.690017 0.556229
vt 0.673850 0.553014
vt 0.656831 0.549628
vt 0.164389 0.888267
vt 0.720414 0.523092
vt 0.708066 0.523092
vt 0.693280 0.523092
vt 0.676797 0.523092
vt 0.659445 0.523092
vt 0.123386 0.888267
vt 0.123760 0.905227
vt 0.124865 0.921337
vt 0.126645 0.935789
vt 0.716629 0.484661
vt 0.704519 0.487070
vt 0.690017 0.489955
vt 0.673850 0.493170
vt 0.656831 0.496556
vt 0.083958 0.888267
vt 0.084693 0.905227
vt 0.086860 0.921337
vt 0.090352 0.935789
vt 0.705419 0.447707
vt 0.694011 0.452432
vt 0.680351 0.458091
vt 0.665123 0.464398
vt 0.649091 0.471039
vt 0.047621 0.888267
vt 0.048688 0.905227
vt 0.051835 0.921337
vt 0.056904 0.935789
vt 0.687216 0.413650
vt 0.676948 0.420510
vt 0.664654 0.428725
vt 0.650949 0.437882
vt 0.636521 0.447523
vt 0.015772 0.888267
vt 0.017130 0.905227
vt 0.021135 0.921337
vt 0.027587 0.935789
vt 0.662717 0.383798
vt 0.653986 0.392530
vt 0.643530 0.402985
vt 0.631875 0.414640
vt 0.619605 0.426911
vt 0.952537 0.359680
vt 0.984387 0.359680
vt 0.983029 0.376640
vt 0.951470 0.376640
vt 0.979023 0.392750
vt 0.948323 0.392750
vt 0.972571 0.407202
vt 0.943254 0.407202
vt 0.632866 0.359300
vt 0.626006 0.369567
vt 0.617791 0.381861
vt 0.608634 0.395566
vt 0.598993 0.409995
vt 0.916200 0.359680
vt 0.915466 0.376640
vt 0.913298 0.392750
vt 0.909806 0.407202
vt 0.598809 0.341096
vt 0.594083 0.352504
vt 0.588425 0.366165
vt 0.582117 0.381393
vt 0.575476 0.397425
vt 0.876773 0.359680
vt 0.876398 0.376640
vt 0.875293 0.392750
vt 0.873513 0.407202
vt 0.561855 0.329886
vt 0.559446 0.341997
vt 0.556561 0.356499
vt 0.553345 0.372665
vt 0.549960 0.389685
vt 0.835770 0.359680
vt 0.835769 0.376640
vt 0.835769 0.392750
vt 0.835770 0.407202
vt 0.523424 0.326101
vt 0.523424 0.338449
vt 0.523424 0.353235
vt 0.523424 0.369718
vt 0.523424 0.387071
vt 0.794766 0.359680
vt 0.795141 0.376640
vt 0.796246 0.392750
vt 0.798026 0.407202
vt 0.484993 0.329886
vt 0.487401 0.341997
vt 0.490286 0.356499
vt 0.493502 0.372665
vt 0.496887 0.389685
vt 0.755339 0.359680
vt 0.756073 0.376640
vt 0.758241 0.392750
vt 0.761733 0.407202
vt 0.448038 0.341096
vt 0.452764 0.352504
vt 0.458422 0.366165
vt 0.464730 0.381393
vt 0.471371 0.397425
vt 0.719002 0.359680
vt 0.720069 0.376640
vt 0.723216 0.392750
vt 0.728285 0.407202
vt 0.413981 0.359300
vt 0.420841 0.369567
vt 0.429056 0.381861
vt 0.438214 0.395566
vt 0.447854 0.409995
vt 0.687153 0.359680
vt 0.688510 0.376640
vt 0.692516 0.392750
vt 0.698968 0.407202
vt 0.384130 0.383798
vt 0.392861 0.392530
vt 0.403317 0.402985
vt 0.414972 0.414640
vt 0.427242 0.426911
vt 0.720069 0.376640
vt 0.723216 0.392750
vt 0.359632 0.413650
vt 0.369899 0.420510
vt 0.382193 0.428725
vt 0.395898 0.437882
vt 0.410326 0.447523
vt 0.756073 0.376640
vt 0.341428 0.447707
vt 0.352836 0.452432
vt 0.366496 0.458091
vt 0.381725 0.464398
vt 0.397757 0.471039
vt 0.795141 0.376640
vt 0.330218 0.484661
vt 0.342328 0.487070
vt 0.356830 0.489955
vt 0.372997 0.493170
vt 0.390016 0.496556
vt 0.835769 0.359680
vt 0.326433 0.523092
vt 0.338781 0.523092
vt 0.353567 0.523092
vt 0.370050 0.523092
vt 0.387403 0.523092
vt 0.330218 0.561523
vt 0.342328 0.559114
vt 0.356830 0.556229
vt 0.372997 0.553014
vt 0.390016 0.549628
vt 0.915466 0.376640
vt 0.913298 0.392750
vt 0.341428 0.598477
vt 0.352836 0.593752
vt 0.366496 0.588094
vt 0.381725 0.581786
vt 0.397757 0.575145
vt 0.359632 0.632534
vt 0.369899 0.625674
vt 0.382193 0.617459
vt 0.395898 0.608302
vt 0.410326 0.598661
vt 0.384130 0.662386
vt 0.392861 0.653654
vt 0.403317 0.643199
vt 0.414972 0.631544
vt 0.427242 0.619273
vt 0.047621 0.888267
vt 0.413981 0.686884
vt 0.420841 0.676617
vt 0.429056 0.664323
vt 0.438214 0.650618
vt 0.447854 0.636189
vt 0.084693 0.905227
vt 0.448038 0.705088
vt 0.452764 0.693680
vt 0.458422 0.680019
vt 0.464730 0.664791
vt 0.471371 0.648759
vt 0.484993 0.716298
vt 0.487401 0.704187
vt 0.490286 0.689685
vt 0.493502 0.673519
vt 0.496887 0.656499
vt 0.164389 0.544134
vt 0.205392 0.544134
vt 0.123386 0.544134
vt 0.244820 0.544134
vt 0.281157 0.544134
vt 0.313006 0.544134
vt 0.083958 0.544134
vt 0.047621 0.544134
vt 0.015772 0.544134
vt 0.984387 0.015547
vt 0.952537 0.015547
vt 0.916200 0.015547
vt 0.876773 0.015547
vt 0.835770 0.015547
vt 0.794766 0.015547
vt 0.755339 0.015547
vt 0.719002 0.015547
vt 0.687153 0.015547
s 0
g Medicine(Bottle)_Material.005
usemtl Material.005
f 65/1/1 313/2/1 2/3/1 64/4/1
f 217/5/2 209/6/2 28/7/2 26/8/2
f 81/9/3 73/10/3 62/11/3 60/12/3
f 281/13/4 273/14/4 12/15/4 10/16/4
f 145/17/5 137/18/5 46/19/5 44/20/5
f 209/6/6 201/21/6 30/22/6 28/7/6
f 73/10/7 65/1/7 64/4/7 62/11/7
f 273/14/8 265/23/8 14/24/8 12/15/8
f 137/18/9 129/25/9 48/26/9 46/19/9
f 201/21/10 193/27/10 32/28/10 30/22/10
f 265/23/11 257/29/11 16/30/11 14/24/11
f 129/25/12 121/31/12 50/32/12 48/26/12
f 193/27/13 185/33/13 34/34/13 32/28/13
f 257/29/14 249/35/14 18/36/14 16/30/14
f 121/31/15 113/37/15 52/38/15 50/32/15
f 62/39/16 64/40/16 2/41/16 4/42/16 6/43/16 8/44/16 10/45/16 12/46/16 14/47/16 16/48/16 18/49/16 20/50/16 22/51/16 24/52/16 26/53/16 28/54/16 30/55/16 32/56/16 34/57/16 36/58/16 38/59/16 40/60/16 42/61/16 44/62/16 46/63/16 48/64/16 50/65/16 52/66/16 54/67/16 56/68/16 58/69/16 60/70/16
f 249/35/17 241/71/17 20/72/17 18/36/17
f 113/37/18 105/73/18 54/74/18 52/38/18
f 313/2/19 305/75/19 4/76/19 2/3/19
f 177/77/20 169/78/20 38/79/20 36/80/20
f 241/71/21 233/81/21 22/82/21 20/72/21
f 105/73/22 97/83/22 56/84/22 54/74/22
f 305/75/23 297/85/23 6/86/23 4/76/23
f 169/78/24 161/87/24 40/88/24 38/79/24
f 233/81/25 225/89/25 24/90/25 22/82/25
f 97/91/26 89/92/26 58/93/26 56/94/26
f 297/85/27 289/95/27 8/96/27 6/86/27
f 161/97/28 153/98/28 42/99/28 40/100/28
f 225/101/29 217/5/29 26/8/29 24/102/29
f 89/92/30 81/9/30 60/12/30 58/93/30
f 289/103/31 281/13/31 10/16/31 8/104/31
f 153/98/32 145/17/32 44/20/32 42/99/32
f 1/105/33 3/106/33 5/107/33 7/108/33 9/109/33 11/110/33 13/111/33 15/112/33 17/113/33 19/114/33 21/115/33 23/116/33 25/117/33 27/118/33 29/119/33 31/120/33 33/121/33 35/122/33 37/123/33 39/124/33 41/125/33 43/126/33 45/127/33 47/128/33 49/129/33 51/130/33 53/131/33 55/132/33 57/133/33 59/134/33 61/135/33 63/136/33
f 74/137/34 66/138/34 72/139/34 80/140/34
f 80/140/35 72/139/35 71/141/35 79/142/35
f 79/142/36 71/141/36 70/143/36 78/144/36
f 78/145/37 70/146/37 69/147/37 77/148/37
f 77/148/38 69/147/38 68/149/38 76/150/38
f 76/150/39 68/149/39 67/151/39 75/152/39
f 75/152/40 67/151/40 65/153/40 73/154/40
f 82/155/41 74/137/41 80/140/41 88/156/41
f 88/156/42 80/140/42 79/142/42 87/157/42
f 87/157/43 79/142/43 78/144/43 86/158/43
f 86/159/44 78/145/44 77/148/44 85/160/44
f 85/160/45 77/148/45 76/150/45 84/161/45
f 84/161/46 76/150/46 75/152/46 83/162/46
f 83/162/47 75/152/47 73/154/47 81/163/47
f 90/164/48 82/155/48 88/156/48 96/165/48
f 96/165/49 88/156/49 87/157/49 95/166/49
f 95/166/50 87/157/50 86/158/50 94/167/50
f 94/168/51 86/159/51 85/160/51 93/169/51
f 93/169/52 85/160/52 84/161/52 92/170/52
f 92/170/53 84/161/53 83/162/53 91/171/53
f 91/171/54 83/162/54 81/163/54 89/172/54
f 98/173/55 90/164/55 96/165/55 104/174/55
f 104/174/56 96/165/56 95/166/56 103/175/56
f 103/175/57 95/166/57 94/167/57 102/176/57
f 102/177/58 94/168/58 93/169/58 101/178/58
f 101/178/59 93/169/59 92/170/59 100/179/59
f 100/179/60 92/170/60 91/171/60 99/180/60
f 99/180/61 91/171/61 89/172/61 97/181/61
f 106/182/62 98/173/62 104/174/62 112/165/62
f 112/165/63 104/174/63 103/175/63 111/166/63
f 111/166/64 103/175/64 102/176/64 110/167/64
f 110/183/65 102/177/65 101/178/65 109/184/65
f 109/184/66 101/178/66 100/179/66 108/185/66
f 108/185/67 100/179/67 99/180/67 107/186/67
f 107/186/68 99/180/68 97/181/68 105/187/68
f 114/155/69 106/182/69 112/165/69 120/156/69
f 120/156/70 112/165/70 111/166/70 119/157/70
f 119/157/71 111/166/71 110/167/71 118/158/71
f 118/188/72 110/183/72 109/184/72 117/189/72
f 117/189/73 109/184/73 108/185/73 116/190/73
f 116/190/74 108/185/74 107/186/74 115/191/74
f 115/191/75 107/186/75 105/187/75 113/192/75
f 122/193/76 114/155/76 120/156/76 128/140/76
f 128/140/77 120/156/77 119/157/77 127/142/77
f 127/142/78 119/157/78 118/158/78 126/144/78
f 126/194/79 118/188/79 117/189/79 125/195/79
f 125/195/80 117/189/80 116/190/80 124/196/80
f 124/196/81 116/190/81 115/191/81 123/197/81
f 123/197/82 115/191/82 113/192/82 121/198/82
f 130/199/83 122/193/83 128/140/83 136/139/83
f 136/139/84 128/140/84 127/142/84 135/141/84
f 135/141/85 127/142/85 126/144/85 134/143/85
f 134/200/86 126/194/86 125/195/86 133/201/86
f 133/201/87 125/195/87 124/196/87 132/202/87
f 132/202/88 124/196/88 123/197/88 131/203/88
f 131/203/89 123/197/89 121/198/89 129/204/89
f 138/205/90 130/199/90 136/139/90 144/206/90
f 144/206/91 136/139/91 135/141/91 143/207/91
f 143/207/92 135/141/92 134/143/92 142/208/92
f 142/209/93 134/200/93 133/201/93 141/210/93
f 141/210/94 133/201/94 132/202/94 140/211/94
f 140/211/95 132/202/95 131/203/95 139/212/95
f 139/212/96 131/203/96 129/204/96 137/213/96
f 146/214/97 138/205/97 144/206/97 152/215/97
f 152/215/98 144/206/98 143/207/98 151/216/98
f 151/216/99 143/207/99 142/208/99 150/217/99
f 150/218/100 142/209/100 141/210/100 149/219/100
f 149/219/101 141/210/101 140/211/101 148/220/101
f 148/220/102 140/211/102 139/212/102 147/221/102
f 147/221/103 139/212/103 137/213/103 145/222/103
f 154/223/104 146/214/104 152/215/104 160/224/104
f 160/224/105 152/215/105 151/216/105 159/225/105
f 159/225/106 151/216/106 150/217/106 158/226/106
f 158/227/107 150/218/107 149/219/107 157/228/107
f 157/228/108 149/219/108 148/220/108 156/229/108
f 156/229/109 148/220/109 147/221/109 155/230/109
f 155/230/110 147/221/110 145/222/110 153/231/110
f 162/232/111 154/223/111 160/224/111 168/233/111
f 168/233/112 160/224/112 159/225/112 167/234/112
f 167/234/113 159/225/113 158/226/113 166/235/113
f 166/236/114 158/227/114 157/228/114 165/237/114
f 165/237/115 157/228/115 156/229/115 164/238/115
f 164/238/116 156/229/116 155/230/116 163/239/116
f 163/239/117 155/230/117 153/231/117 161/240/117
f 170/241/118 162/242/118 168/243/118 176/244/118
f 176/244/119 168/243/119 167/245/119 175/246/119
f 175/246/120 167/245/120 166/247/120 174/248/120
f 174/249/121 166/236/121 165/237/121 173/250/121
f 173/250/122 165/237/122 164/238/122 172/251/122
f 172/251/123 164/238/123 163/239/123 171/252/123
f 171/252/124 163/239/124 161/240/124 169/253/124
f 178/254/125 170/241/125 176/244/125 184/255/125
f 184/255/126 176/244/126 175/246/126 183/256/126
f 183/256/127 175/246/127 174/248/127 182/257/127
f 182/258/128 174/249/128 173/250/128 181/259/128
f 181/259/129 173/250/129 172/251/129 180/260/129
f 180/260/130 172/251/130 171/252/130 179/261/130
f 179/261/131 171/252/131 169/253/131 177/262/131
f 186/263/132 178/254/132 184/255/132 192/264/132
f 192/264/133 184/255/133 183/256/133 191/265/133
f 191/265/134 183/256/134 182/257/134 190/266/134
f 190/267/135 182/258/135 181/259/135 189/268/135
f 189/268/136 181/259/136 180/260/136 188/269/136
f 188/269/137 180/260/137 179/261/137 187/270/137
f 187/270/138 179/261/138 177/262/138 185/271/138
f 194/272/139 186/263/139 192/264/139 200/273/139
f 200/273/140 192/264/140 191/265/140 199/274/140
f 199/274/141 191/265/141 190/266/141 198/275/141
f 198/276/142 190/267/142 189/268/142 197/277/142
f 197/277/143 189/268/143 188/269/143 196/278/143
f 196/278/144 188/269/144 187/270/144 195/279/144
f 195/279/145 187/270/145 185/271/145 193/280/145
f 202/281/146 194/272/146 200/273/146 208/282/146
f 208/282/147 200/273/147 199/274/147 207/283/147
f 207/283/148 199/274/148 198/275/148 206/284/148
f 206/285/149 198/276/149 197/277/149 205/286/149
f 205/286/150 197/277/150 196/278/150 204/287/150
f 204/287/151 196/278/151 195/279/151 203/288/151
f 203/288/152 195/279/152 193/280/152 201/289/152
f 210/290/153 202/281/153 208/282/153 216/291/153
f 216/291/154 208/282/154 207/283/154 215/292/154
f 215/292/155 207/283/155 206/284/155 214/293/155
f 214/294/156 206/285/156 205/286/156 213/295/156
f 213/295/157 205/286/157 204/287/157 212/296/157
f 212/296/158 204/287/158 203/288/158 211/297/158
f 211/297/159 203/288/159 201/289/159 209/298/159
f 218/299/160 210/290/160 216/291/160 224/300/160
f 224/300/161 216/291/161 215/292/161 223/301/161
f 223/301/162 215/292/162 214/293/162 222/302/162
f 222/303/163 214/294/163 213/295/163 221/304/163
f 221/304/164 213/295/164 212/296/164 220/305/164
f 220/305/165 212/296/165 211/297/165 219/306/165
f 219/306/166 211/297/166 209/298/166 217/307/166
f 226/308/167 218/299/167 224/300/167 232/309/167
f 232/309/168 224/300/168 223/301/168 231/310/168
f 231/310/169 223/301/169 222/302/169 230/311/169
f 230/312/170 222/303/170 221/304/170 229/313/170
f 229/313/171 221/304/171 220/305/171 228/314/171
f 228/314/172 220/305/172 219/306/172 227/315/172
f 227/315/173 219/306/173 217/307/173 225/316/173
f 234/299/174 226/308/174 232/309/174 240/317/174
f 240/317/175 232/309/175 231/310/175 239/318/175
f 239/318/176 231/310/176 230/311/176 238/302/176
f 238/319/177 230/312/177 229/313/177 237/320/177
f 237/320/178 229/313/178 228/314/178 236/321/178
f 236/321/179 228/314/179 227/315/179 235/322/179
f 235/322/180 227/315/180 225/316/180 233/323/180
f 242/290/181 234/299/181 240/317/181 248/324/181
f 248/324/182 240/317/182 239/318/182 247/292/182
f 247/292/183 239/318/183 238/302/183 246/293/183
f 246/325/184 238/319/184 237/320/184 245/326/184
f 245/326/185 237/320/185 236/321/185 244/327/185
f 244/327/186 236/321/186 235/322/186 243/328/186
f 243/328/187 235/322/187 233/323/187 241/329/187
f 250/281/188 242/290/188 248/324/188 256/330/188
f 256/330/189 248/324/189 247/292/189 255/283/189
f 255/283/190 247/292/190 246/293/190 254/284/190
f 254/331/191 246/325/191 245/326/191 253/332/191
f 253/332/192 245/326/192 244/327/192 252/333/192
f 252/333/193 244/327/193 243/328/193 251/334/193
f 251/334/194 243/328/194 241/329/194 249/335/194
f 258/336/195 250/281/195 256/330/195 264/273/195
f 264/273/196 256/330/196 255/283/196 263/274/196
f 263/274/197 255/283/197 254/284/197 262/275/197
f 262/337/198 254/331/198 253/332/198 261/338/198
f 261/338/199 253/332/199 252/333/199 260/339/199
f 260/339/200 252/333/200 251/334/200 259/340/200
f 259/340/201 251/334/201 249/335/201 257/341/201
f 266/263/202 258/336/202 264/273/202 272/264/202
f 272/264/203 264/273/203 263/274/203 271/265/203
f 271/265/204 263/274/204 262/275/204 270/266/204
f 270/342/205 262/337/205 261/338/205 269/343/205
f 269/343/206 261/338/206 260/339/206 268/344/206
f 268/344/207 260/339/207 259/340/207 267/345/207
f 267/345/208 259/340/208 257/341/208 265/346/208
f 274/254/209 266/263/209 272/264/209 280/347/209
f 280/347/210 272/264/210 271/265/210 279/348/210
f 279/348/211 271/265/211 270/266/211 278/257/211
f 278/349/212 270/342/212 269/343/212 277/350/212
f 277/350/213 269/343/213 268/344/213 276/351/213
f 276/351/214 268/344/214 267/345/214 275/352/214
f 275/352/215 267/345/215 265/346/215 273/353/215
f 282/241/216 274/254/216 280/347/216 288/244/216
f 288/244/217 280/347/217 279/348/217 287/246/217
f 287/246/218 279/348/218 278/257/218 286/248/218
f 286/354/219 278/349/219 277/350/219 285/355/219
f 285/355/220 277/350/220 276/351/220 284/356/220
f 284/356/221 276/351/221 275/352/221 283/357/221
f 283/357/222 275/352/222 273/353/222 281/358/222
f 290/242/223 282/241/223 288/244/223 296/243/223
f 296/243/224 288/244/224 287/246/224 295/245/224
f 295/245/225 287/246/225 286/248/225 294/247/225
f 294/359/226 286/354/226 285/355/226 293/360/226
f 293/360/227 285/355/227 284/356/227 292/361/227
f 292/361/228 284/356/228 283/357/228 291/362/228
f 291/362/229 283/357/229 281/358/229 289/363/229
f 298/364/230 290/232/230 296/233/230 304/224/230
f 304/224/231 296/233/231 295/234/231 303/225/231
f 303/225/232 295/234/232 294/235/232 302/226/232
f 302/365/233 294/359/233 293/360/233 301/366/233
f 301/366/234 293/360/234 292/361/234 300/367/234
f 300/367/235 292/361/235 291/362/235 299/368/235
f 299/368/236 291/362/236 289/363/236 297/369/236
f 306/214/237 298/364/237 304/224/237 312/370/237
f 312/370/238 304/224/238 303/225/238 311/216/238
f 311/216/239 303/225/239 302/226/239 310/217/239
f 310/371/240 302/365/240 301/366/240 309/372/240
f 309/372/241 301/366/241 300/367/241 308/373/241
f 308/373/242 300/367/242 299/368/242 307/374/242
f 307/374/243 299/368/243 297/369/243 305/375/243
f 314/205/244 306/214/244 312/370/244 320/206/244
f 320/206/245 312/370/245 311/216/245 319/207/245
f 319/207/246 311/216/246 310/217/246 318/208/246
f 318/376/247 310/371/247 309/372/247 317/377/247
f 317/377/248 309/372/248 308/373/248 316/378/248
f 316/378/249 308/373/249 307/374/249 315/379/249
f 315/379/250 307/374/250 305/375/250 313/380/250
f 66/138/251 314/205/251 320/206/251 72/139/251
f 72/139/252 320/206/252 319/207/252 71/141/252
f 71/141/253 319/207/253 318/208/253 70/143/253
f 70/146/254 318/376/254 317/377/254 69/147/254
f 69/147/255 317/377/255 316/378/255 68/149/255
f 68/149/256 316/378/256 315/379/256 67/151/256
f 67/151/257 315/379/257 313/380/257 65/153/257
f 185/33/258 177/77/258 36/80/258 34/34/258
f 1/381/7 66/138/7 74/137/7 3/382/7
f 63/383/1 314/205/1 66/138/1 1/381/1
f 3/382/3 74/137/3 82/155/3 5/384/3
f 5/384/30 82/155/30 90/164/30 7/385/30
f 7/385/26 90/164/26 98/173/26 9/386/26
f 9/386/22 98/173/22 106/182/22 11/385/22
f 11/385/18 106/182/18 114/155/18 13/384/18
f 13/384/15 114/155/15 122/193/15 15/382/15
f 15/382/12 122/193/12 130/199/12 17/381/12
f 17/381/9 130/199/9 138/205/9 19/383/9
f 19/383/5 138/205/5 146/214/5 21/387/5
f 21/387/32 146/214/32 154/223/32 23/388/32
f 23/388/28 154/223/28 162/232/28 25/389/28
f 25/390/24 162/242/24 170/241/24 27/391/24
f 27/391/20 170/241/20 178/254/20 29/392/20
f 29/392/258 178/254/258 186/263/258 31/393/258
f 31/393/13 186/263/13 194/272/13 33/394/13
f 33/394/10 194/272/10 202/281/10 35/395/10
f 35/395/6 202/281/6 210/290/6 37/396/6
f 37/396/2 210/290/2 218/299/2 39/397/2
f 39/397/29 218/299/29 226/308/29 41/398/29
f 41/398/25 226/308/25 234/299/25 43/397/25
f 43/397/21 234/299/21 242/290/21 45/396/21
f 45/396/17 242/290/17 250/281/17 47/395/17
f 47/395/14 250/281/14 258/336/14 49/394/14
f 49/394/11 258/336/11 266/263/11 51/393/11
f 51/393/8 266/263/8 274/254/8 53/392/8
f 53/392/4 274/254/4 282/241/4 55/391/4
f 55/391/31 282/241/31 290/242/31 57/390/31
f 57/389/27 290/232/27 298/364/27 59/388/27
f 59/388/23 298/364/23 306/214/23 61/387/23
f 61/387/19 306/214/19 314/205/19 63/383/19
