# Blender 5.0.0
# www.blender.org
mtllib Money.mtl
o Money(Stacked)
v -0.982082 0.059070 0.543216
v 1.025563 0.059070 0.455839
v -1.025563 0.059070 -0.455839
v 0.982082 0.059070 -0.543216
v -1.025563 0.083831 -0.455839
v -0.982082 0.083831 0.543216
v 1.025563 0.083831 0.455839
v 0.982082 0.083831 -0.543216
v -1.004772 0.000000 0.500000
v 1.004772 0.000000 0.500000
v -1.004772 0.000000 -0.500000
v 1.004772 0.000000 -0.500000
v -1.004772 0.024761 -0.500000
v -1.004772 0.024761 0.500000
v 1.004772 0.024761 0.500000
v 1.004772 0.024761 -0.500000
v -1.057693 0.028261 0.375304
v 0.937214 0.028261 0.617412
v -0.937214 0.028261 -0.617412
v 1.057693 0.028261 -0.375304
v -0.937214 0.053022 -0.617412
v -1.057693 0.053022 0.375304
v 0.937214 0.053022 0.617412
v 1.057693 0.053022 -0.375304
v -0.946205 0.087331 0.603542
v 1.052051 0.087331 0.390841
v -1.052051 0.087331 -0.390841
v 0.946205 0.087331 -0.603542
v -1.052051 0.112092 -0.390841
v -0.946205 0.112092 0.603542
v 1.052051 0.112092 0.390841
v 0.946205 0.112092 -0.603542
vn -0.0000 -1.0000 -0.0000
vn -0.0000 1.0000 -0.0000
vn 0.9991 -0.0000 -0.0435
vn -0.9991 -0.0000 0.0435
vn -0.0435 -0.0000 -0.9991
vn 0.0435 -0.0000 0.9991
vn 1.0000 -0.0000 -0.0000
vn -1.0000 -0.0000 -0.0000
vn -0.0000 -0.0000 -1.0000
vn -0.0000 -0.0000 1.0000
vn 0.9927 -0.0000 0.1205
vn -0.9927 -0.0000 -0.1205
vn 0.1205 -0.0000 -0.9927
vn -0.1205 -0.0000 0.9927
vn 0.9944 -0.0000 -0.1058
vn -0.9944 -0.0000 0.1058
vn -0.1058 -0.0000 -0.9944
vn 0.1058 -0.0000 0.9944
vt 0.020833 0.500000
vt 0.020833 0.979167
vt 0.791667 0.979167
vt 0.791667 0.500000
vt 0.020833 0.395833
vt 0.500000 0.395833
vt 0.500000 0.416667
vt 0.020833 0.416667
vt 0.500000 0.437500
vt 0.020833 0.437500
vt 0.020833 0.458333
vt 0.500000 0.458333
s 0
g Money(Stacked)_Money
usemtl Money
f 1/1/1 3/2/1 4/3/1 2/4/1
f 6/1/2 7/4/2 8/3/2 5/2/2
f 2/5/3 4/6/3 8/7/3 7/8/3
f 3/9/4 1/10/4 6/11/4 5/12/4
f 4/6/5 3/5/5 5/8/5 8/7/5
f 1/10/6 2/9/6 7/12/6 6/11/6
f 9/1/1 11/2/1 12/3/1 10/4/1
f 14/1/2 15/4/2 16/3/2 13/2/2
f 10/5/7 12/6/7 16/7/7 15/8/7
f 11/9/8 9/10/8 14/11/8 13/12/8
f 12/6/9 11/5/9 13/8/9 16/7/9
f 9/10/10 10/9/10 15/12/10 14/11/10
f 17/1/1 19/2/1 20/3/1 18/4/1
f 22/1/2 23/4/2 24/3/2 21/2/2
f 18/5/11 20/6/11 24/7/11 23/8/11
f 19/9/12 17/10/12 22/11/12 21/12/12
f 20/6/13 19/5/13 21/8/13 24/7/13
f 17/10/14 18/9/14 23/12/14 22/11/14
f 25/1/1 27/2/1 28/3/1 26/4/1
f 30/1/2 31/4/2 32/3/2 29/2/2
f 26/5/15 28/6/15 32/7/15 31/8/15
f 27/9/16 25/10/16 30/11/16 29/12/16
f 28/6/17 27/5/17 29/8/17 32/7/17
f 25/10/18 26/9/18 31/12/18 30/11/18
