# Blender 4.5.4 LTS
# www.blender.org
mtllib Nails.mtl
o Nails
v -0.014620 -0.419671 0.034285
v -0.050127 0.455502 0.025625
v -0.014620 -0.421258 0.003883
v -0.050127 0.450062 -0.078610
v 0.014620 -0.419671 0.034285
v 0.050127 0.455502 0.025625
v 0.014620 -0.421258 0.003883
v 0.050127 0.450062 -0.078610
v -0.125741 0.459443 0.101135
v -0.125741 0.446121 -0.154120
v 0.125741 0.446121 -0.154120
v 0.125741 0.459443 0.101135
v -0.125259 0.525105 0.097473
v -0.125259 0.511808 -0.157313
v 0.125259 0.511808 -0.157313
v 0.125259 0.525105 0.097473
v -0.198005 -0.336213 0.002248
v 0.251288 0.408130 -0.104299
v -0.198005 -0.342003 -0.027640
v 0.251288 0.388279 -0.206770
v -0.173542 -0.351939 0.005294
v 0.335163 0.354215 -0.093854
v -0.173542 -0.357729 -0.024593
v 0.335163 0.334364 -0.196325
v 0.188028 0.463175 -0.037944
v 0.188028 0.414561 -0.288881
v 0.398423 0.279319 -0.262681
v 0.398423 0.327933 -0.011743
v 0.224455 0.516886 -0.048589
v 0.224455 0.468362 -0.299064
v 0.434044 0.333638 -0.272964
v 0.434044 0.382162 -0.022489
v 0.454645 -0.028924 0.163378
v -0.416716 0.040624 0.219569
v 0.454645 -0.021294 0.133907
v -0.416716 0.066784 0.118524
v 0.458544 -0.000869 0.170641
v -0.403348 0.136812 0.244472
v 0.458544 0.006760 0.141170
v -0.403348 0.162972 0.143427
v -0.426799 -0.050874 0.273987
v -0.426799 0.013188 0.026543
v -0.393265 0.254469 0.089009
v -0.393265 0.190407 0.336454
v -0.491911 -0.041863 0.276077
v -0.491911 0.022081 0.029088
v -0.458506 0.262437 0.091315
v -0.458506 0.198493 0.338304
v 0.351460 -0.267740 0.063720
v -0.332944 0.271719 0.152260
v 0.351460 -0.264852 0.033414
v -0.332944 0.281620 0.048354
v 0.370597 -0.245731 0.065817
v -0.267332 0.347180 0.159450
v 0.370597 -0.242843 0.035512
v -0.267332 0.357081 0.055545
v -0.382429 0.207632 0.222109
v -0.382429 0.231879 -0.032342
v -0.217847 0.421168 -0.014304
v -0.217847 0.396921 0.240146
v -0.431838 0.250862 0.225992
v -0.431838 0.275064 -0.027990
v -0.267887 0.463628 -0.010021
v -0.267887 0.439426 0.243960
vn -0.9992 -0.0405 0.0021
vn -0.0000 -0.0943 -0.9955
vn 0.9992 -0.0405 0.0021
vn -0.0000 0.0099 1.0000
vn -0.0000 -0.9986 0.0521
vn -1.0000 0.0073 -0.0004
vn -0.0000 0.9986 -0.0521
vn -0.0000 0.0557 0.9984
vn -0.0000 -0.0485 -0.9988
vn 1.0000 0.0073 -0.0004
vn -0.8582 0.5040 -0.0976
vn -0.0231 -0.2247 -0.9742
vn 0.8137 -0.5707 0.1106
vn -0.0231 0.1553 0.9876
vn -0.5478 -0.8214 0.1591
vn -0.8326 0.5438 -0.1053
vn 0.5478 0.8214 -0.1591
vn 0.0020 0.1931 0.9812
vn 0.0020 -0.1873 -0.9823
vn 0.8406 -0.5317 0.1030
vn -0.0930 -0.9639 -0.2495
vn 0.0419 0.2450 -0.9686
vn 0.1734 0.9534 0.2468
vn 0.0419 -0.2559 0.9658
vn 0.9911 -0.1291 -0.0334
vn -0.1406 -0.9585 -0.2481
vn -0.9911 0.1291 0.0334
vn -0.0035 -0.2502 0.9682
vn -0.0035 0.2511 -0.9680
vn 0.1261 0.9604 0.2486
vn -0.6232 -0.7785 -0.0742
vn 0.0319 0.0673 -0.9972
vn 0.6846 0.7256 0.0691
vn 0.0319 -0.1223 0.9920
vn 0.7561 -0.6515 -0.0621
vn -0.6600 -0.7479 -0.0713
vn -0.7561 0.6515 0.0621
vn -0.0027 -0.0925 0.9957
vn -0.0027 0.0972 -0.9953
vn 0.6489 0.7575 0.0722
vt 0.083756 0.049697
vt 0.046191 0.938297
vt 0.152257 0.938297
vt 0.114692 0.049697
vt 0.340072 0.049682
vt 0.303988 0.938312
vt 0.405871 0.938312
vt 0.369787 0.049682
vt 0.243591 0.049697
vt 0.281157 0.938297
vt 0.175090 0.938297
vt 0.212656 0.049697
vt 0.494500 0.049682
vt 0.530583 0.938312
vt 0.428701 0.938312
vt 0.464784 0.049682
vt 0.830810 -0.011750
vt 0.735512 -0.011750
vt 0.735512 -0.042673
vt 0.830810 -0.042673
vt 0.755261 0.126611
vt 0.857098 0.126611
vt 0.933904 0.049805
vt 0.678454 0.049805
vt 0.755261 0.232634
vt 0.678454 0.309441
vt 0.857098 0.232634
vt 0.933904 0.309441
vt 0.938093 0.614402
vt 0.678453 0.614402
vt 0.678692 0.681204
vt 0.937854 0.681204
vt 0.932925 0.591512
vt 0.678454 0.591512
vt 0.678454 0.332354
vt 0.932925 0.332354
vt 0.678454 0.793740
vt 0.933905 0.793740
vt 0.933415 0.860541
vt 0.678944 0.860541
vt 0.933905 0.883408
vt 0.678454 0.883408
vt 0.678944 0.950210
vt 0.933415 0.950210
vt 0.678453 0.704071
vt 0.938093 0.704071
vt 0.937854 0.770873
vt 0.678692 0.770873
s 0
usemtl Nails
f 1/1/1 2/2/1 4/3/1 3/4/1
f 3/5/2 4/6/2 8/7/2 7/8/2
f 7/9/3 8/10/3 6/11/3 5/12/3
f 5/13/4 6/14/4 2/15/4 1/16/4
f 3/17/5 7/18/5 5/19/5 1/20/5
f 2/21/5 6/22/5 12/23/5 9/24/5
f 4/25/5 2/21/5 9/24/5 10/26/5
f 6/22/5 8/27/5 11/28/5 12/23/5
f 8/27/5 4/25/5 10/26/5 11/28/5
f 10/29/6 9/30/6 13/31/6 14/32/6
f 15/33/7 14/34/7 13/35/7 16/36/7
f 9/37/8 12/38/8 16/39/8 13/40/8
f 11/41/9 10/42/9 14/43/9 15/44/9
f 12/45/10 11/46/10 15/47/10 16/48/10
f 17/1/11 18/2/11 20/3/11 19/4/11
f 19/5/12 20/6/12 24/7/12 23/8/12
f 23/9/13 24/10/13 22/11/13 21/12/13
f 21/13/14 22/14/14 18/15/14 17/16/14
f 19/17/15 23/18/15 21/19/15 17/20/15
f 18/21/15 22/22/15 28/23/15 25/24/15
f 20/25/15 18/21/15 25/24/15 26/26/15
f 22/22/15 24/27/15 27/28/15 28/23/15
f 24/27/15 20/25/15 26/26/15 27/28/15
f 26/29/16 25/30/16 29/31/16 30/32/16
f 31/33/17 30/34/17 29/35/17 32/36/17
f 25/37/18 28/38/18 32/39/18 29/40/18
f 27/41/19 26/42/19 30/43/19 31/44/19
f 28/45/20 27/46/20 31/47/20 32/48/20
f 33/1/21 34/2/21 36/3/21 35/4/21
f 35/5/22 36/6/22 40/7/22 39/8/22
f 39/9/23 40/10/23 38/11/23 37/12/23
f 37/13/24 38/14/24 34/15/24 33/16/24
f 35/17/25 39/18/25 37/19/25 33/20/25
f 34/21/25 38/22/25 44/23/25 41/24/25
f 36/25/25 34/21/25 41/24/25 42/26/25
f 38/22/25 40/27/25 43/28/25 44/23/25
f 40/27/25 36/25/25 42/26/25 43/28/25
f 42/29/26 41/30/26 45/31/26 46/32/26
f 47/33/27 46/34/27 45/35/27 48/36/27
f 41/37/28 44/38/28 48/39/28 45/40/28
f 43/41/29 42/42/29 46/43/29 47/44/29
f 44/45/30 43/46/30 47/47/30 48/48/30
f 49/1/31 50/2/31 52/3/31 51/4/31
f 51/5/32 52/6/32 56/7/32 55/8/32
f 55/9/33 56/10/33 54/11/33 53/12/33
f 53/13/34 54/14/34 50/15/34 49/16/34
f 51/17/35 55/18/35 53/19/35 49/20/35
f 50/21/35 54/22/35 60/23/35 57/24/35
f 52/25/35 50/21/35 57/24/35 58/26/35
f 54/22/35 56/27/35 59/28/35 60/23/35
f 56/27/35 52/25/35 58/26/35 59/28/35
f 58/29/36 57/30/36 61/31/36 62/32/36
f 63/33/37 62/34/37 61/35/37 64/36/37
f 57/37/38 60/38/38 64/39/38 61/40/38
f 59/41/39 58/42/39 62/43/39 63/44/39
f 60/45/40 59/46/40 63/47/40 64/48/40
