# Blender 5.0.0
# www.blender.org
mtllib Pail.mtl
o Pail
v 0.000000 -1.987518 -1.609890
v 0.314074 -1.987518 -1.578956
v 0.616078 -1.987518 -1.487344
v 0.894407 -1.987518 -1.338575
v 1.138364 -1.987518 -1.138364
v 1.338575 -1.987518 -0.894407
v 1.487344 -1.987518 -0.616078
v 1.578956 -1.987518 -0.314074
v 1.609890 -1.987518 -0.000000
v 1.578956 -1.987518 0.314074
v 1.487344 -1.987518 0.616078
v 1.338575 -1.987518 0.894407
v 1.138364 -1.987518 1.138364
v 0.894407 -1.987518 1.338575
v 0.616078 -1.987518 1.487344
v 0.314074 -1.987518 1.578956
v 0.000000 -1.987518 1.609890
v -0.314074 -1.987518 1.578956
v -0.616078 -1.987518 1.487344
v -0.894407 -1.987518 1.338575
v -1.138364 -1.987518 1.138364
v -1.338575 -1.987518 0.894407
v -1.487344 -1.987518 0.616078
v -1.578956 -1.987518 0.314074
v -1.609890 -1.987518 -0.000000
v -1.578956 -1.987518 -0.314074
v -1.487344 -1.987518 -0.616078
v -1.338575 -1.987518 -0.894407
v -1.138364 -1.987518 -1.138364
v -0.894407 -1.987518 -1.338575
v -0.616078 -1.987518 -1.487344
v -0.314074 -1.987518 -1.578956
v 0.000000 1.744148 -1.987518
v 0.387746 1.744148 -1.949328
v 0.760590 1.744148 -1.836227
v 1.104206 1.744148 -1.652561
v 1.405387 1.744148 -1.405387
v 1.652561 1.744148 -1.104206
v 1.836227 1.744148 -0.760590
v 1.949328 1.744148 -0.387746
v 1.987518 1.744148 0.000000
v 1.949328 1.744148 0.387746
v 1.836227 1.744148 0.760590
v 1.652561 1.744148 1.104206
v 1.405387 1.744148 1.405387
v 1.104206 1.744148 1.652561
v 0.760590 1.744148 1.836227
v 0.387746 1.744148 1.949328
v 0.000000 1.744148 1.987518
v -0.387746 1.744148 1.949328
v -0.760590 1.744148 1.836227
v -1.104206 1.744148 1.652561
v -1.405387 1.744148 1.405387
v -1.652561 1.744148 1.104206
v -1.836227 1.744148 0.760590
v -1.949328 1.744148 0.387746
v -1.987518 1.744148 0.000000
v -1.949328 1.744148 -0.387746
v -1.836227 1.744148 -0.760590
v -1.652561 1.744148 -1.104206
v -1.405387 1.744148 -1.405387
v -1.104206 1.744148 -1.652561
v -0.760590 1.744148 -1.836227
v -0.387746 1.744148 -1.949328
v 0.374841 1.998420 -1.884452
v 0.000000 1.998420 -1.921370
v 0.000000 1.733246 -2.165584
v 0.735277 1.998420 -1.775115
v 1.067456 1.998420 -1.597561
v 1.358614 1.998420 -1.358614
v 1.597561 1.998420 -1.067456
v 1.775115 1.998420 -0.735277
v 1.884452 1.998420 -0.374841
v 1.921370 1.998420 -0.000000
v 1.884452 1.998420 0.374841
v 1.775115 1.998420 0.735277
v 1.597561 1.998420 1.067456
v 1.358614 1.998420 1.358614
v 1.067456 1.998420 1.597561
v 0.735277 1.998420 1.775115
v 0.374841 1.998420 1.884452
v 0.000000 1.998420 1.921370
v -0.374841 1.998420 1.884452
v -0.735277 1.998420 1.775115
v -1.067456 1.998420 1.597561
v -1.358614 1.998420 1.358614
v -1.597561 1.998420 1.067456
v -1.775115 1.998420 0.735277
v -1.884452 1.998420 0.374841
v -1.921370 1.998420 -0.000000
v -1.884452 1.998420 -0.374841
v -1.775115 1.998420 -0.735277
v -1.597561 1.998420 -1.067456
v -1.358614 1.998420 -1.358614
v -1.067456 1.998420 -1.597561
v -0.735277 1.998420 -1.775115
v -0.374841 1.998420 -1.884452
v 0.422485 1.733246 -2.123973
v 0.828733 1.733246 -2.000739
v 1.203134 1.733246 -1.800617
v 1.531299 1.733246 -1.531299
v 1.800617 1.733246 -1.203134
v 2.000739 1.733246 -0.828733
v 2.123973 1.733246 -0.422485
v 2.165584 1.733246 0.000000
v 2.123973 1.733246 0.422485
v 2.000739 1.733246 0.828733
v 1.800617 1.733246 1.203134
v 1.531299 1.733246 1.531299
v 1.203134 1.733246 1.800617
v 0.828733 1.733246 2.000739
v 0.422485 1.733246 2.123973
v 0.000000 1.733246 2.165584
v -0.422485 1.733246 2.123973
v -0.828733 1.733246 2.000739
v -1.203134 1.733246 1.800617
v -1.531299 1.733246 1.531299
v -1.800617 1.733246 1.203134
v -2.000739 1.733246 0.828733
v -2.123973 1.733246 0.422485
v -2.165584 1.733246 0.000000
v -2.123973 1.733246 -0.422485
v -2.000739 1.733246 -0.828733
v -1.800617 1.733246 -1.203134
v -1.531299 1.733246 -1.531299
v -1.203134 1.733246 -1.800617
v -0.828733 1.733246 -2.000739
v -0.422485 1.733246 -2.123973
v 0.422485 1.998420 -2.123973
v 0.000000 1.998420 -2.165584
v 0.828733 1.998420 -2.000739
v 1.203134 1.998420 -1.800617
v 1.531299 1.998420 -1.531299
v 1.800617 1.998420 -1.203134
v 2.000739 1.998420 -0.828733
v 2.123973 1.998420 -0.422485
v 2.165584 1.998420 0.000000
v 2.123973 1.998420 0.422485
v 2.000739 1.998420 0.828733
v 1.800617 1.998420 1.203134
v 1.531299 1.998420 1.531299
v 1.203134 1.998420 1.800617
v 0.828733 1.998420 2.000739
v 0.422485 1.998420 2.123973
v 0.000000 1.998420 2.165584
v -0.422485 1.998420 2.123973
v -0.828733 1.998420 2.000739
v -1.203134 1.998420 1.800617
v -1.531299 1.998420 1.531299
v -1.800617 1.998420 1.203134
v -2.000739 1.998420 0.828733
v -2.123973 1.998420 0.422485
v -2.165584 1.998420 0.000000
v -2.123973 1.998420 -0.422485
v -2.000739 1.998420 -0.828733
v -1.800617 1.998420 -1.203134
v -1.531299 1.998420 -1.531299
v -1.203134 1.998420 -1.800617
v -0.828733 1.998420 -2.000739
v -0.422485 1.998420 -2.123973
v 0.292376 -1.840539 -1.469872
v 0.000000 -1.840539 -1.498669
v 0.573516 -1.840539 -1.384590
v 0.832616 -1.840539 -1.246098
v 1.059719 -1.840539 -1.059719
v 1.246098 -1.840539 -0.832616
v 1.384590 -1.840539 -0.573516
v 1.469872 -1.840539 -0.292376
v 1.498669 -1.840539 0.000000
v 1.469872 -1.840539 0.292376
v 1.384590 -1.840539 0.573516
v 1.246098 -1.840539 0.832616
v 1.059719 -1.840539 1.059719
v 0.832616 -1.840539 1.246098
v 0.573516 -1.840539 1.384590
v 0.292376 -1.840539 1.469872
v 0.000000 -1.840539 1.498669
v -0.292376 -1.840539 1.469872
v -0.573516 -1.840539 1.384590
v -0.832616 -1.840539 1.246098
v -1.059719 -1.840539 1.059719
v -1.246098 -1.840539 0.832616
v -1.384590 -1.840539 0.573516
v -1.469872 -1.840539 0.292376
v -1.498669 -1.840539 0.000000
v -1.469872 -1.840539 -0.292376
v -1.384590 -1.840539 -0.573516
v -1.246098 -1.840539 -0.832616
v -1.059719 -1.840539 -1.059719
v -0.832616 -1.840539 -1.246098
v -0.573516 -1.840539 -1.384590
v -0.292376 -1.840539 -1.469872
vn 0.0390 -0.9981 -0.0475
vn -0.0588 -0.9981 0.0178
vn 0.0475 -0.9981 -0.0390
vn -0.0611 -0.9981 0.0060
vn 0.0542 -0.9981 -0.0289
vn -0.0611 -0.9981 -0.0060
vn 0.0588 -0.9981 -0.0178
vn -0.0588 -0.9981 -0.0178
vn 0.0611 -0.9981 -0.0060
vn -0.0542 -0.9981 -0.0289
vn 0.0611 -0.9981 0.0060
vn -0.0475 -0.9981 -0.0390
vn 0.0588 -0.9981 0.0178
vn -0.0390 -0.9981 -0.0475
vn 0.0542 -0.9981 0.0289
vn -0.0289 -0.9981 -0.0542
vn -0.0060 -0.9981 0.0611
vn 0.0475 -0.9981 0.0390
vn -0.0178 -0.9981 -0.0588
vn -0.0178 -0.9981 0.0588
vn 0.0390 -0.9981 0.0475
vn -0.0060 -0.9981 -0.0611
vn -0.0289 -0.9981 0.0542
vn 0.0289 -0.9981 0.0542
vn 0.0060 -0.9981 -0.0611
vn -0.0390 -0.9981 0.0475
vn 0.0178 -0.9981 0.0588
vn 0.0178 -0.9981 -0.0588
vn -0.0475 -0.9981 0.0390
vn 0.0060 -0.9981 0.0611
vn 0.0289 -0.9981 -0.0542
vn -0.0542 -0.9981 0.0289
vn -0.0000 -1.0000 -0.0000
vn -0.0975 -0.1002 -0.9902
vn -0.2888 -0.1002 -0.9521
vn -0.4690 -0.1002 -0.8775
vn -0.6312 -0.1002 -0.7691
vn -0.7691 -0.1002 -0.6312
vn -0.8775 -0.1002 -0.4690
vn -0.9521 -0.1002 -0.2888
vn -0.9902 -0.1002 -0.0975
vn -0.9902 -0.1002 0.0975
vn -0.9521 -0.1002 0.2888
vn -0.8775 -0.1002 0.4690
vn -0.7691 -0.1002 0.6312
vn -0.6312 -0.1002 0.7691
vn -0.4690 -0.1002 0.8775
vn -0.2888 -0.1002 0.9521
vn -0.0975 -0.1002 0.9902
vn 0.0975 -0.1002 0.9902
vn 0.2888 -0.1002 0.9521
vn 0.4690 -0.1002 0.8775
vn 0.6312 -0.1002 0.7691
vn 0.7691 -0.1002 0.6312
vn 0.8775 -0.1002 0.4690
vn 0.9521 -0.1002 0.2888
vn 0.9902 -0.1002 0.0975
vn 0.9902 -0.1002 -0.0975
vn 0.9521 -0.1002 -0.2888
vn 0.8775 -0.1002 -0.4690
vn 0.7691 -0.1002 -0.6312
vn 0.6312 -0.1002 -0.7691
vn 0.4690 -0.1002 -0.8775
vn 0.2888 -0.1002 -0.9521
vn 0.0975 -0.1002 -0.9902
vn 0.0980 -0.0000 -0.9952
vn 0.2903 -0.0000 -0.9569
vn 0.4714 -0.0000 -0.8819
vn 0.6344 -0.0000 -0.7730
vn 0.7730 -0.0000 -0.6344
vn 0.8819 -0.0000 -0.4714
vn 0.9569 -0.0000 -0.2903
vn 0.9952 -0.0000 -0.0980
vn 0.9952 -0.0000 0.0980
vn 0.9569 -0.0000 0.2903
vn 0.8819 -0.0000 0.4714
vn 0.7730 -0.0000 0.6344
vn 0.6344 -0.0000 0.7730
vn 0.4714 -0.0000 0.8819
vn 0.2903 -0.0000 0.9569
vn 0.0980 -0.0000 0.9952
vn -0.0980 -0.0000 0.9952
vn -0.2903 -0.0000 0.9569
vn -0.4714 -0.0000 0.8819
vn -0.6344 -0.0000 0.7730
vn -0.7730 -0.0000 0.6344
vn -0.8819 -0.0000 0.4714
vn -0.9569 -0.0000 0.2903
vn -0.9952 -0.0000 0.0980
vn -0.9952 -0.0000 -0.0980
vn -0.9569 -0.0000 -0.2903
vn -0.8819 -0.0000 -0.4714
vn -0.7730 -0.0000 -0.6344
vn -0.6344 -0.0000 -0.7730
vn -0.4714 -0.0000 -0.8819
vn 0.9512 0.1089 -0.2886
vn -0.2903 -0.0000 -0.9569
vn -0.0980 -0.0000 -0.9952
vn -0.0000 1.0000 -0.0000
vn -0.9512 0.1089 -0.2886
vn 0.9893 0.1089 -0.0974
vn -0.8767 0.1089 -0.4686
vn 0.9893 0.1089 0.0974
vn -0.7684 0.1089 -0.6306
vn 0.9512 0.1089 0.2886
vn -0.6306 0.1089 -0.7684
vn 0.8767 0.1089 0.4686
vn -0.4686 0.1089 -0.8767
vn -0.0974 0.1089 0.9893
vn 0.7684 0.1089 0.6306
vn -0.2886 0.1089 -0.9512
vn -0.2886 0.1089 0.9512
vn 0.6306 0.1089 0.7684
vn -0.0974 0.1089 -0.9893
vn -0.4686 0.1089 0.8767
vn 0.4686 0.1089 0.8767
vn 0.0974 0.1089 -0.9893
vn -0.6306 0.1089 0.7684
vn 0.2886 0.1089 0.9512
vn 0.2886 0.1089 -0.9512
vn -0.7684 0.1089 0.6306
vn 0.0974 0.1089 0.9893
vn 0.4686 0.1089 -0.8767
vn -0.8767 0.1089 0.4686
vn 0.6306 0.1089 -0.7684
vn -0.9512 0.1089 0.2886
vn 0.7684 0.1089 -0.6306
vn -0.9893 0.1089 0.0974
vn 0.8767 0.1089 -0.4686
vn -0.9893 0.1089 -0.0974
vt 0.079996 0.080041
vt 0.103724 0.060568
vt 0.095930 0.048904
vt 0.070077 0.070122
vt 0.344287 0.221308
vt 0.335377 0.250681
vt 0.348337 0.256050
vt 0.358046 0.224044
vt 0.060524 0.103769
vt 0.048859 0.095975
vt 0.347296 0.190760
vt 0.361324 0.190760
vt 0.046054 0.130840
vt 0.033093 0.125471
vt 0.344287 0.160213
vt 0.358046 0.157476
vt 0.037144 0.160213
vt 0.023385 0.157476
vt 0.335377 0.130840
vt 0.348337 0.125471
vt 0.034135 0.190760
vt 0.020107 0.190760
vt 0.320907 0.103769
vt 0.332572 0.095975
vt 0.037144 0.221308
vt 0.023385 0.224044
vt 0.301435 0.080041
vt 0.311354 0.070122
vt 0.046054 0.250681
vt 0.033093 0.256050
vt 0.277707 0.060568
vt 0.285501 0.048904
vt 0.060524 0.277752
vt 0.048859 0.285546
vt 0.250636 0.046099
vt 0.256005 0.033138
vt 0.221263 0.344332
vt 0.190715 0.347341
vt 0.190715 0.361369
vt 0.224000 0.358091
vt 0.079996 0.301479
vt 0.070077 0.311399
vt 0.221263 0.037189
vt 0.224000 0.023430
vt 0.250636 0.335422
vt 0.256005 0.348382
vt 0.103724 0.320952
vt 0.095930 0.332616
vt 0.190715 0.034180
vt 0.190715 0.020152
vt 0.277707 0.320952
vt 0.285501 0.332616
vt 0.130795 0.335422
vt 0.125426 0.348382
vt 0.160168 0.037189
vt 0.157431 0.023430
vt 0.301435 0.301479
vt 0.311354 0.311399
vt 0.160168 0.344332
vt 0.157431 0.358091
vt 0.130795 0.046099
vt 0.125426 0.033138
vt 0.320907 0.277752
vt 0.332572 0.285546
vt 0.189186 0.318302
vt 0.213906 0.315867
vt 0.237676 0.308657
vt 0.259582 0.296947
vt 0.278784 0.281189
vt 0.294542 0.261988
vt 0.306251 0.240081
vt 0.313462 0.216311
vt 0.315896 0.191591
vt 0.313462 0.166871
vt 0.306251 0.143101
vt 0.294542 0.121195
vt 0.278784 0.101994
vt 0.259582 0.086236
vt 0.237676 0.074526
vt 0.213906 0.067316
vt 0.189186 0.064881
vt 0.164466 0.067316
vt 0.140696 0.074526
vt 0.118789 0.086236
vt 0.099588 0.101994
vt 0.083830 0.121195
vt 0.072121 0.143101
vt 0.064910 0.166871
vt 0.062475 0.191591
vt 0.064910 0.216311
vt 0.072121 0.240081
vt 0.083830 0.261988
vt 0.099588 0.281189
vt 0.118789 0.296947
vt 0.140696 0.308657
vt 0.164466 0.315867
vt 0.103178 0.393224
vt 0.097056 0.703300
vt 0.129276 0.703300
vt 0.129276 0.393224
vt 0.078084 0.393224
vt 0.066076 0.703300
vt 0.054956 0.393224
vt 0.037523 0.703300
vt 0.034685 0.393224
vt 0.012497 0.703300
vt 0.807934 0.011971
vt 0.825367 0.322047
vt 0.850393 0.322047
vt 0.828205 0.011971
vt 0.784807 0.011971
vt 0.796815 0.322047
vt 0.759712 0.011971
vt 0.765834 0.322047
vt 0.733615 0.011971
vt 0.733615 0.322047
vt 0.707517 0.011971
vt 0.701396 0.322047
vt 0.682423 0.011971
vt 0.670415 0.322047
vt 0.659296 0.011971
vt 0.641863 0.322047
vt 0.639024 0.011971
vt 0.616836 0.322047
vt 0.707517 0.011971
vt 0.765834 0.322047
vt 0.097056 0.703300
vt 0.129276 0.703300
vt 0.155373 0.393224
vt 0.161495 0.703300
vt 0.180467 0.393224
vt 0.192475 0.703300
vt 0.203595 0.393224
vt 0.221028 0.703300
vt 0.223866 0.393224
vt 0.246054 0.703300
vt 0.445881 0.014048
vt 0.445881 0.036027
vt 0.480898 0.036027
vt 0.480898 0.014048
vt 0.514570 0.036027
vt 0.514570 0.014048
vt 0.545601 0.036027
vt 0.545601 0.014048
vt 0.572801 0.036027
vt 0.572801 0.014048
vt 0.410864 0.036027
vt 0.410864 0.014048
vt 0.377192 0.036027
vt 0.377192 0.014048
vt 0.346161 0.036027
vt 0.346161 0.014048
vt 0.318961 0.036027
vt 0.318961 0.014048
vt 0.903299 0.353989
vt 0.903299 0.375967
vt 0.876099 0.375967
vt 0.876099 0.353989
vt 0.845068 0.375967
vt 0.845068 0.353989
vt 0.811396 0.375967
vt 0.811396 0.353989
vt 0.776379 0.375967
vt 0.776379 0.353989
vt 0.741362 0.375967
vt 0.741362 0.353989
vt 0.707691 0.375967
vt 0.707691 0.353989
vt 0.676659 0.375967
vt 0.676659 0.353989
vt 0.649459 0.375967
vt 0.649459 0.353989
vt 0.715742 0.861588
vt 0.685778 0.861588
vt 0.699226 0.542449
vt 0.722597 0.542449
vt 0.465737 0.617008
vt 0.495240 0.614102
vt 0.498990 0.632955
vt 0.465737 0.636230
vt 0.523609 0.605497
vt 0.530965 0.623255
vt 0.549754 0.591522
vt 0.560433 0.607504
vt 0.572670 0.572715
vt 0.586262 0.586307
vt 0.591477 0.549799
vt 0.607459 0.560478
vt 0.605452 0.523654
vt 0.623210 0.531009
vt 0.614058 0.495285
vt 0.632910 0.499035
vt 0.616963 0.465782
vt 0.636185 0.465782
vt 0.614058 0.436279
vt 0.632910 0.432529
vt 0.605452 0.407910
vt 0.623210 0.400554
vt 0.591477 0.381765
vt 0.607459 0.371086
vt 0.572670 0.358849
vt 0.586262 0.345257
vt 0.549754 0.340042
vt 0.560433 0.324060
vt 0.523609 0.326067
vt 0.530965 0.308309
vt 0.495240 0.317461
vt 0.498990 0.298609
vt 0.465737 0.314556
vt 0.465737 0.295334
vt 0.436234 0.317461
vt 0.432484 0.298609
vt 0.407865 0.326067
vt 0.400509 0.308309
vt 0.381720 0.340042
vt 0.371041 0.324060
vt 0.358804 0.358849
vt 0.345212 0.345257
vt 0.339997 0.381765
vt 0.324015 0.371086
vt 0.326022 0.407910
vt 0.308264 0.400554
vt 0.317416 0.436279
vt 0.298564 0.432529
vt 0.314511 0.465782
vt 0.295289 0.465782
vt 0.317416 0.495285
vt 0.298564 0.499035
vt 0.326022 0.523654
vt 0.308264 0.531009
vt 0.339997 0.549799
vt 0.324015 0.560478
vt 0.358804 0.572715
vt 0.345212 0.586307
vt 0.381720 0.591522
vt 0.371041 0.607504
vt 0.407865 0.605497
vt 0.400509 0.623255
vt 0.436234 0.614102
vt 0.432484 0.632955
vt 0.485740 0.580823
vt 0.462728 0.583090
vt 0.439716 0.580823
vt 0.417588 0.574111
vt 0.397195 0.563211
vt 0.379320 0.548541
vt 0.364651 0.530667
vt 0.353750 0.510273
vt 0.347038 0.488146
vt 0.344771 0.465133
vt 0.347038 0.442121
vt 0.353750 0.419993
vt 0.364651 0.399600
vt 0.379320 0.381726
vt 0.397195 0.367056
vt 0.417588 0.356156
vt 0.439716 0.349443
vt 0.462728 0.347177
vt 0.485740 0.349443
vt 0.507868 0.356156
vt 0.528261 0.367056
vt 0.546136 0.381726
vt 0.560805 0.399600
vt 0.571705 0.419993
vt 0.578418 0.442121
vt 0.580684 0.465133
vt 0.578418 0.488146
vt 0.571705 0.510273
vt 0.560805 0.530667
vt 0.546136 0.548541
vt 0.528261 0.563211
vt 0.507868 0.574111
vt 0.302164 0.989066
vt 0.332128 0.989066
vt 0.338983 0.669927
vt 0.315612 0.669927
vt 0.746903 0.861588
vt 0.746903 0.542449
vt 0.274550 0.989066
vt 0.294072 0.669927
vt 0.778064 0.861588
vt 0.771208 0.542449
vt 0.250345 0.989065
vt 0.275193 0.669927
vt 0.808027 0.861588
vt 0.794580 0.542449
vt 0.835642 0.861588
vt 0.859846 0.861588
vt 0.834999 0.542449
vt 0.816119 0.542449
vt 0.394450 0.989066
vt 0.363289 0.989066
vt 0.363289 0.669927
vt 0.387595 0.669927
vt 0.424414 0.989066
vt 0.410966 0.669927
vt 0.274550 0.989065
vt 0.452028 0.989066
vt 0.432506 0.669927
vt 0.302164 0.989065
vt 0.476233 0.989066
vt 0.451385 0.669927
vt 0.685778 0.861588
vt 0.658164 0.861588
vt 0.677686 0.542449
vt 0.633959 0.861588
vt 0.658807 0.542449
s 0
g Pail_Material.010
usemtl Material.010
f 53/1/1 52/2/1 116/3/1 117/4/1
f 40/5/2 39/6/2 103/7/2 104/8/2
f 54/9/3 53/1/3 117/4/3 118/10/3
f 41/11/4 40/5/4 104/8/4 105/12/4
f 55/13/5 54/9/5 118/10/5 119/14/5
f 42/15/6 41/11/6 105/12/6 106/16/6
f 56/17/7 55/13/7 119/14/7 120/18/7
f 43/19/8 42/15/8 106/16/8 107/20/8
f 57/21/9 56/17/9 120/18/9 121/22/9
f 44/23/10 43/19/10 107/20/10 108/24/10
f 58/25/11 57/21/11 121/22/11 122/26/11
f 45/27/12 44/23/12 108/24/12 109/28/12
f 59/29/13 58/25/13 122/26/13 123/30/13
f 46/31/14 45/27/14 109/28/14 110/32/14
f 60/33/15 59/29/15 123/30/15 124/34/15
f 47/35/16 46/31/16 110/32/16 111/36/16
f 34/37/17 33/38/17 67/39/17 98/40/17
f 61/41/18 60/33/18 124/34/18 125/42/18
f 48/43/19 47/35/19 111/36/19 112/44/19
f 35/45/20 34/37/20 98/40/20 99/46/20
f 62/47/21 61/41/21 125/42/21 126/48/21
f 49/49/22 48/43/22 112/44/22 113/50/22
f 36/51/23 35/45/23 99/46/23 100/52/23
f 63/53/24 62/47/24 126/48/24 127/54/24
f 50/55/25 49/49/25 113/50/25 114/56/25
f 37/57/26 36/51/26 100/52/26 101/58/26
f 64/59/27 63/53/27 127/54/27 128/60/27
f 51/61/28 50/55/28 114/56/28 115/62/28
f 38/63/29 37/57/29 101/58/29 102/64/29
f 33/38/30 64/59/30 128/60/30 67/39/30
f 52/2/31 51/61/31 115/62/31 116/3/31
f 39/6/32 38/63/32 102/64/32 103/7/32
f 1/65/33 2/66/33 3/67/33 4/68/33 5/69/33 6/70/33 7/71/33 8/72/33 9/73/33 10/74/33 11/75/33 12/76/33 13/77/33 14/78/33 15/79/33 16/80/33 17/81/33 18/82/33 19/83/33 20/84/33 21/85/33 22/86/33 23/87/33 24/88/33 25/89/33 26/90/33 27/91/33 28/92/33 29/93/33 30/94/33 31/95/33 32/96/33
f 32/97/34 64/98/34 33/99/34 1/100/34
f 31/101/35 63/102/35 64/98/35 32/97/35
f 30/103/36 62/104/36 63/102/36 31/101/36
f 29/105/37 61/106/37 62/104/37 30/103/37
f 28/107/38 60/108/38 61/109/38 29/110/38
f 27/111/39 59/112/39 60/108/39 28/107/39
f 26/113/40 58/114/40 59/112/40 27/111/40
f 25/115/41 57/116/41 58/114/41 26/113/41
f 24/117/42 56/118/42 57/116/42 25/115/42
f 23/119/43 55/120/43 56/118/43 24/117/43
f 22/121/44 54/122/44 55/120/44 23/119/44
f 21/123/45 53/124/45 54/122/45 22/121/45
f 20/121/46 52/122/46 53/124/46 21/123/46
f 19/119/47 51/120/47 52/122/47 20/121/47
f 18/125/48 50/118/48 51/120/48 19/119/48
f 17/115/49 49/116/49 50/118/49 18/125/49
f 16/113/50 48/126/50 49/116/50 17/115/50
f 15/111/51 47/112/51 48/126/51 16/113/51
f 14/107/52 46/108/52 47/112/52 15/111/52
f 13/110/53 45/109/53 46/108/53 14/107/53
f 12/103/54 44/104/54 45/106/54 13/105/54
f 11/101/55 43/102/55 44/104/55 12/103/55
f 10/97/56 42/127/56 43/102/56 11/101/56
f 9/100/57 41/128/57 42/127/57 10/97/57
f 8/129/58 40/130/58 41/128/58 9/100/58
f 7/131/59 39/132/59 40/130/59 8/129/59
f 6/133/60 38/134/60 39/132/60 7/131/60
f 5/135/61 37/136/61 38/134/61 6/133/61
f 4/133/62 36/134/62 37/136/62 5/135/62
f 3/131/63 35/132/63 36/134/63 4/133/63
f 2/129/64 34/130/64 35/132/64 3/131/64
f 1/100/65 33/99/65 34/130/65 2/129/65
f 67/137/66 130/138/66 129/139/66 98/140/66
f 98/140/67 129/139/67 131/141/67 99/142/67
f 99/142/68 131/141/68 132/143/68 100/144/68
f 100/144/69 132/143/69 133/145/69 101/146/69
f 101/146/70 133/145/70 134/143/70 102/144/70
f 102/144/71 134/143/71 135/141/71 103/142/71
f 103/142/72 135/141/72 136/139/72 104/140/72
f 104/140/73 136/139/73 137/138/73 105/137/73
f 105/137/74 137/138/74 138/147/74 106/148/74
f 106/148/75 138/147/75 139/149/75 107/150/75
f 107/150/76 139/149/76 140/151/76 108/152/76
f 108/152/77 140/151/77 141/153/77 109/154/77
f 109/155/78 141/156/78 142/157/78 110/158/78
f 110/158/79 142/157/79 143/159/79 111/160/79
f 111/160/80 143/159/80 144/161/80 112/162/80
f 112/162/81 144/161/81 145/163/81 113/164/81
f 113/164/82 145/163/82 146/165/82 114/166/82
f 114/166/83 146/165/83 147/167/83 115/168/83
f 115/168/84 147/167/84 148/169/84 116/170/84
f 116/170/85 148/169/85 149/171/85 117/172/85
f 117/172/86 149/171/86 150/169/86 118/170/86
f 118/170/87 150/169/87 151/167/87 119/168/87
f 119/168/88 151/167/88 152/165/88 120/166/88
f 120/166/89 152/165/89 153/163/89 121/164/89
f 121/164/90 153/163/90 154/161/90 122/162/90
f 122/162/91 154/161/91 155/159/91 123/160/91
f 123/160/92 155/159/92 156/157/92 124/158/92
f 124/158/93 156/157/93 157/156/93 125/155/93
f 125/154/94 157/153/94 158/151/94 126/152/94
f 126/152/95 158/151/95 159/149/95 127/150/95
f 89/173/96 88/174/96 183/175/96 184/176/96
f 127/150/97 159/149/97 160/147/97 128/148/97
f 128/148/98 160/147/98 130/138/98 67/137/98
f 66/177/99 65/178/99 129/179/99 130/180/99
f 65/178/99 68/181/99 131/182/99 129/179/99
f 68/181/99 69/183/99 132/184/99 131/182/99
f 69/183/99 70/185/99 133/186/99 132/184/99
f 70/185/99 71/187/99 134/188/99 133/186/99
f 71/187/99 72/189/99 135/190/99 134/188/99
f 72/189/99 73/191/99 136/192/99 135/190/99
f 73/191/99 74/193/99 137/194/99 136/192/99
f 74/193/99 75/195/99 138/196/99 137/194/99
f 75/195/99 76/197/99 139/198/99 138/196/99
f 76/197/99 77/199/99 140/200/99 139/198/99
f 77/199/99 78/201/99 141/202/99 140/200/99
f 78/201/99 79/203/99 142/204/99 141/202/99
f 79/203/99 80/205/99 143/206/99 142/204/99
f 80/205/99 81/207/99 144/208/99 143/206/99
f 81/207/99 82/209/99 145/210/99 144/208/99
f 82/209/99 83/211/99 146/212/99 145/210/99
f 83/211/99 84/213/99 147/214/99 146/212/99
f 84/213/99 85/215/99 148/216/99 147/214/99
f 85/215/99 86/217/99 149/218/99 148/216/99
f 86/217/99 87/219/99 150/220/99 149/218/99
f 87/219/99 88/221/99 151/222/99 150/220/99
f 88/221/99 89/223/99 152/224/99 151/222/99
f 89/223/99 90/225/99 153/226/99 152/224/99
f 90/225/99 91/227/99 154/228/99 153/226/99
f 91/227/99 92/229/99 155/230/99 154/228/99
f 92/229/99 93/231/99 156/232/99 155/230/99
f 93/231/99 94/233/99 157/234/99 156/232/99
f 94/233/99 95/235/99 158/236/99 157/234/99
f 95/235/99 96/237/99 159/238/99 158/236/99
f 96/237/99 97/239/99 160/240/99 159/238/99
f 97/239/99 66/177/99 130/180/99 160/240/99
f 161/241/99 162/242/99 192/243/99 191/244/99 190/245/99 189/246/99 188/247/99 187/248/99 186/249/99 185/250/99 184/251/99 183/252/99 182/253/99 181/254/99 180/255/99 179/256/99 178/257/99 177/258/99 176/259/99 175/260/99 174/261/99 173/262/99 172/263/99 171/264/99 170/265/99 169/266/99 168/267/99 167/268/99 166/269/99 165/270/99 164/271/99 163/272/99
f 76/273/100 75/274/100 170/275/100 171/276/100
f 90/277/101 89/173/101 184/176/101 185/278/101
f 77/279/102 76/273/102 171/276/102 172/280/102
f 91/281/103 90/277/103 185/278/103 186/282/103
f 78/283/104 77/279/104 172/280/104 173/284/104
f 92/285/105 91/281/105 186/282/105 187/286/105
f 79/287/106 78/288/106 173/289/106 174/290/106
f 93/287/107 92/285/107 187/286/107 188/290/107
f 80/285/108 79/287/108 174/290/108 175/286/108
f 65/291/109 66/292/109 162/293/109 161/294/109
f 94/288/110 93/287/110 188/290/110 189/289/110
f 81/281/111 80/285/111 175/286/111 176/282/111
f 68/295/112 65/291/112 161/294/112 163/296/112
f 95/297/113 94/283/113 189/284/113 190/280/113
f 82/277/114 81/281/114 176/282/114 177/278/114
f 69/298/115 68/295/115 163/296/115 164/299/115
f 96/300/116 95/297/116 190/280/116 191/276/116
f 83/173/117 82/277/117 177/278/117 178/176/117
f 70/301/118 69/298/118 164/299/118 165/302/118
f 97/274/119 96/300/119 191/276/119 192/275/119
f 84/303/120 83/173/120 178/176/120 179/175/120
f 71/298/121 70/301/121 165/302/121 166/299/121
f 66/292/122 97/274/122 192/275/122 162/293/122
f 85/304/123 84/303/123 179/175/123 180/305/123
f 72/295/124 71/298/124 166/299/124 167/296/124
f 86/306/125 85/304/125 180/305/125 181/307/125
f 73/291/126 72/295/126 167/296/126 168/294/126
f 87/304/127 86/306/127 181/307/127 182/305/127
f 74/292/128 73/291/128 168/294/128 169/293/128
f 88/174/129 87/304/129 182/305/129 183/175/129
f 75/274/130 74/292/130 169/293/130 170/275/130
