# Blender 5.0.0
# www.blender.org
mtllib Plastic Bottle 01.mtl
o Bottles
v 0.000000 2.992500 -0.976500
v 0.190506 2.992500 -0.957737
v 0.373690 2.992500 -0.902168
v 0.542514 2.992500 -0.811930
v 0.690490 2.992500 -0.690490
v 0.811930 2.992500 -0.542514
v 0.902168 2.992500 -0.373690
v 0.957737 2.992500 -0.190506
v 0.976500 2.992500 0.000000
v 0.957737 2.992500 0.190506
v 0.902168 2.992500 0.373690
v 0.811930 2.992500 0.542514
v 0.690490 2.992500 0.690490
v 0.542514 2.992500 0.811930
v 0.373690 2.992500 0.902168
v 0.190506 2.992500 0.957737
v 0.000000 2.992500 0.976500
v -0.190506 2.992500 0.957737
v -0.373690 2.992500 0.902168
v -0.542514 2.992500 0.811930
v -0.690490 2.992500 0.690490
v -0.811930 2.992500 0.542514
v -0.902168 2.992500 0.373690
v -0.957737 2.992500 0.190506
v -0.976500 2.992500 0.000000
v -0.957737 2.992500 -0.190506
v -0.902168 2.992500 -0.373690
v -0.811930 2.992500 -0.542514
v -0.690490 2.992500 -0.690490
v -0.542514 2.992500 -0.811930
v -0.373690 2.992500 -0.902168
v -0.190506 2.992500 -0.957737
v -0.229939 3.710700 -0.555121
v -0.499596 3.710700 -0.333819
v -0.600859 3.710700 0.000000
v -0.499596 3.710700 0.333819
v -0.229939 3.710700 0.555121
v 0.117222 3.710700 0.589314
v 0.424872 3.710700 0.424872
v 0.589314 3.710700 0.117222
v 0.555121 3.710700 -0.229939
v 0.333819 3.710700 -0.499596
v 0.229939 3.710700 -0.555121
v 0.117222 3.710700 -0.589314
v 0.499596 3.710700 -0.333819
v 0.424872 3.710700 -0.424872
v 0.600859 3.710700 -0.000000
v 0.589314 3.710700 -0.117222
v 0.499596 3.710700 0.333819
v 0.555121 3.710700 0.229939
v 0.229939 3.710700 0.555121
v 0.333819 3.710700 0.499596
v -0.117222 3.710700 0.589314
v 0.000000 3.710700 0.600859
v -0.424872 3.710700 0.424872
v -0.333819 3.710700 0.499596
v -0.589314 3.710700 0.117222
v -0.555121 3.710700 0.229939
v -0.555121 3.710700 -0.229939
v -0.589314 3.710700 -0.117222
v -0.333819 3.710700 -0.499596
v -0.424872 3.710700 -0.424872
v -0.000000 3.710700 -0.600859
v -0.117222 3.710700 -0.589314
v 0.000000 1.182801 -0.976500
v 0.000000 0.833199 -0.976500
v 0.190506 0.833199 -0.957737
v 0.190506 1.182801 -0.957737
v 0.373690 0.833199 -0.902168
v 0.373690 1.182801 -0.902168
v 0.542514 0.833199 -0.811930
v 0.542514 1.182801 -0.811930
v 0.690490 0.833199 -0.690490
v 0.690490 1.182801 -0.690490
v 0.811930 0.833199 -0.542514
v 0.811930 1.182801 -0.542514
v 0.902168 0.833199 -0.373690
v 0.902168 1.182801 -0.373690
v 0.957737 0.833199 -0.190506
v 0.957737 1.182801 -0.190506
v 0.976500 0.833199 0.000000
v 0.976500 1.182801 0.000000
v 0.957737 0.833199 0.190506
v 0.957737 1.182801 0.190506
v 0.902168 0.833199 0.373690
v 0.902168 1.182801 0.373690
v 0.811930 0.833199 0.542514
v 0.811930 1.182801 0.542514
v 0.690490 0.833199 0.690490
v 0.690490 1.182801 0.690490
v 0.542514 0.833199 0.811930
v 0.542514 1.182801 0.811930
v 0.373690 0.833199 0.902168
v 0.373690 1.182801 0.902168
v 0.190506 0.833199 0.957737
v 0.190506 1.182801 0.957737
v 0.000000 0.833199 0.976500
v 0.000000 1.182801 0.976500
v -0.190506 0.833199 0.957737
v -0.190506 1.182801 0.957737
v -0.373690 0.833199 0.902168
v -0.373690 1.182801 0.902168
v -0.542514 0.833199 0.811930
v -0.542514 1.182801 0.811930
v -0.690490 0.833199 0.690490
v -0.690490 1.182801 0.690490
v -0.811930 0.833199 0.542514
v -0.811930 1.182801 0.542514
v -0.902168 0.833199 0.373690
v -0.902168 1.182801 0.373690
v -0.957737 0.833199 0.190506
v -0.957737 1.182801 0.190506
v -0.976500 0.833199 0.000000
v -0.976500 1.182801 0.000000
v -0.957737 0.833199 -0.190506
v -0.957737 1.182801 -0.190506
v -0.902168 0.833199 -0.373690
v -0.902168 1.182801 -0.373690
v -0.811930 0.833199 -0.542514
v -0.811930 1.182801 -0.542514
v -0.690490 0.833199 -0.690490
v -0.690490 1.182801 -0.690490
v -0.542514 0.833199 -0.811930
v -0.542514 1.182801 -0.811930
v -0.373690 0.833199 -0.902168
v -0.373690 1.182801 -0.902168
v -0.190506 0.833199 -0.957737
v -0.190506 1.182801 -0.957737
v -0.000000 -1.014300 -0.769536
v -0.000000 -0.909700 -0.908888
v 0.150129 -1.014300 -0.754749
v 0.177315 -0.909700 -0.891424
v 0.294489 -1.014300 -0.710958
v 0.347816 -0.909700 -0.839703
v 0.427531 -1.014300 -0.639846
v 0.504951 -0.909700 -0.755713
v 0.544144 -1.014300 -0.544144
v 0.642681 -0.909700 -0.642681
v 0.639846 -1.014300 -0.427531
v 0.755713 -0.909700 -0.504951
v 0.710958 -1.014300 -0.294489
v 0.839703 -0.909700 -0.347816
v 0.754749 -1.014300 -0.150129
v 0.891424 -0.909700 -0.177315
v 0.769536 -1.014300 0.000000
v 0.908888 -0.909700 0.000000
v 0.754749 -1.014300 0.150129
v 0.891424 -0.909700 0.177315
v 0.710958 -1.014300 0.294489
v 0.839703 -0.909700 0.347816
v 0.639846 -1.014300 0.427531
v 0.755713 -0.909700 0.504951
v 0.544144 -1.014300 0.544144
v 0.642681 -0.909700 0.642681
v 0.427531 -1.014300 0.639846
v 0.504951 -0.909700 0.755713
v 0.294489 -1.014300 0.710958
v 0.347816 -0.909700 0.839703
v 0.150129 -1.014300 0.754749
v 0.177315 -0.909700 0.891424
v 0.000000 -1.014300 0.769536
v -0.000000 -0.909700 0.908888
v -0.150129 -1.014300 0.754749
v -0.177315 -0.909700 0.891424
v -0.294489 -1.014300 0.710958
v -0.347816 -0.909700 0.839703
v -0.427531 -1.014300 0.639846
v -0.504951 -0.909700 0.755713
v -0.544144 -1.014300 0.544144
v -0.642681 -0.909700 0.642681
v -0.639846 -1.014300 0.427531
v -0.755713 -0.909700 0.504951
v -0.710958 -1.014300 0.294489
v -0.839703 -0.909700 0.347816
v -0.754749 -1.014300 0.150129
v -0.891424 -0.909700 0.177315
v -0.769536 -1.014300 0.000000
v -0.908888 -0.909700 0.000000
v -0.754749 -1.014300 -0.150129
v -0.891424 -0.909700 -0.177315
v -0.710958 -1.014300 -0.294489
v -0.839703 -0.909700 -0.347816
v -0.639846 -1.014300 -0.427531
v -0.755713 -0.909700 -0.504951
v -0.544144 -1.014300 -0.544144
v -0.642681 -0.909700 -0.642681
v -0.427531 -1.014300 -0.639846
v -0.504951 -0.909700 -0.755713
v -0.294489 -1.014300 -0.710958
v -0.347816 -0.909700 -0.839703
v -0.150129 -1.014300 -0.754749
v -0.177315 -0.909700 -0.891424
v 0.207672 0.460432 -1.044037
v 0.203452 -0.443175 -1.022822
v 0.213769 0.252284 -1.074687
v 0.215107 0.007468 -1.081418
v 0.211485 -0.236745 -1.063205
v 0.407363 0.460431 -0.983462
v 0.399085 -0.443175 -0.963477
v 0.419322 0.252284 -1.012333
v 0.421948 0.007468 -1.018674
v 0.414842 -0.236745 -1.001518
v 0.591400 0.460432 -0.885092
v 0.579382 -0.443175 -0.867106
v 0.608761 0.252284 -0.911076
v 0.612574 0.007468 -0.916782
v 0.602257 -0.236745 -0.901342
v 0.752709 0.460432 -0.752709
v 0.737413 -0.443175 -0.737413
v 0.774806 0.252284 -0.774806
v 0.779659 0.007468 -0.779659
v 0.766528 -0.236745 -0.766528
v 0.885092 0.460432 -0.591400
v 0.867106 -0.443175 -0.579382
v 0.911076 0.252284 -0.608761
v 0.916782 0.007468 -0.612574
v 0.901342 -0.236745 -0.602257
v 0.983462 0.460431 -0.407363
v 0.963477 -0.443175 -0.399085
v 1.012333 0.252284 -0.419322
v 1.018674 0.007468 -0.421948
v 1.001518 -0.236745 -0.414842
v 1.044037 0.460432 -0.207672
v 1.022822 -0.443175 -0.203452
v 1.074687 0.252284 -0.213769
v 1.081418 0.007468 -0.215107
v 1.063205 -0.236745 -0.211485
v 1.064491 0.460432 0.000000
v 1.042860 -0.443175 0.000000
v 1.095742 0.252284 0.000000
v 1.102605 0.007468 0.000000
v 1.084035 -0.236745 0.000000
v 1.044037 0.460432 0.207672
v 1.022822 -0.443175 0.203452
v 1.074687 0.252284 0.213769
v 1.081418 0.007468 0.215107
v 1.063205 -0.236745 0.211485
v 0.983462 0.460431 0.407363
v 0.963477 -0.443175 0.399085
v 1.012333 0.252284 0.419322
v 1.018674 0.007468 0.421948
v 1.001518 -0.236745 0.414842
v 0.885092 0.460432 0.591400
v 0.867106 -0.443175 0.579382
v 0.911076 0.252284 0.608761
v 0.916782 0.007468 0.612574
v 0.901342 -0.236745 0.602257
v 0.752709 0.460432 0.752709
v 0.737413 -0.443175 0.737413
v 0.774806 0.252284 0.774806
v 0.779659 0.007468 0.779659
v 0.766528 -0.236745 0.766528
v 0.591400 0.460432 0.885092
v 0.579382 -0.443175 0.867106
v 0.608761 0.252284 0.911076
v 0.612574 0.007468 0.916782
v 0.602257 -0.236745 0.901342
v 0.407363 0.460431 0.983462
v 0.399085 -0.443175 0.963477
v 0.419322 0.252284 1.012333
v 0.421948 0.007468 1.018674
v 0.414842 -0.236745 1.001518
v 0.207672 0.460432 1.044037
v 0.203452 -0.443175 1.022822
v 0.213769 0.252284 1.074687
v 0.215107 0.007468 1.081418
v 0.211485 -0.236745 1.063205
v 0.000000 0.460432 1.064491
v 0.000000 -0.443175 1.042860
v 0.000000 0.252284 1.095742
v 0.000000 0.007468 1.102605
v 0.000000 -0.236745 1.084035
v -0.207672 0.460432 1.044037
v -0.203452 -0.443175 1.022822
v -0.213769 0.252284 1.074687
v -0.215107 0.007468 1.081418
v -0.211485 -0.236745 1.063205
v -0.407363 0.460431 0.983462
v -0.399085 -0.443175 0.963477
v -0.419322 0.252284 1.012333
v -0.421948 0.007468 1.018674
v -0.414842 -0.236745 1.001518
v -0.591400 0.460432 0.885092
v -0.579382 -0.443175 0.867106
v -0.608761 0.252284 0.911076
v -0.612574 0.007468 0.916782
v -0.602257 -0.236745 0.901342
v -0.752709 0.460432 0.752709
v -0.737413 -0.443175 0.737413
v -0.774806 0.252284 0.774806
v -0.779659 0.007468 0.779659
v -0.766528 -0.236745 0.766528
v -0.885092 0.460432 0.591400
v -0.867106 -0.443175 0.579382
v -0.911076 0.252284 0.608761
v -0.916782 0.007468 0.612574
v -0.901342 -0.236745 0.602257
v -0.983462 0.460431 0.407363
v -0.963477 -0.443175 0.399085
v -1.012333 0.252284 0.419322
v -1.018674 0.007468 0.421948
v -1.001518 -0.236745 0.414842
v -1.044037 0.460432 0.207672
v -1.022822 -0.443175 0.203452
v -1.074687 0.252284 0.213769
v -1.081418 0.007468 0.215107
v -1.063205 -0.236745 0.211485
v -1.064491 0.460432 0.000000
v -1.042860 -0.443175 0.000000
v -1.095742 0.252284 0.000000
v -1.102605 0.007468 0.000000
v -1.084035 -0.236745 0.000000
v -1.044037 0.460432 -0.207672
v -1.022822 -0.443175 -0.203452
v -1.074687 0.252284 -0.213769
v -1.081418 0.007468 -0.215107
v -1.063205 -0.236745 -0.211485
v -0.983462 0.460431 -0.407363
v -0.963477 -0.443175 -0.399085
v -1.012333 0.252284 -0.419322
v -1.018674 0.007468 -0.421948
v -1.001518 -0.236745 -0.414842
v -0.885092 0.460432 -0.591400
v -0.867106 -0.443175 -0.579382
v -0.911076 0.252284 -0.608761
v -0.916782 0.007468 -0.612574
v -0.901342 -0.236745 -0.602257
v -0.752709 0.460432 -0.752709
v -0.737413 -0.443175 -0.737413
v -0.774806 0.252284 -0.774806
v -0.779659 0.007468 -0.779659
v -0.766528 -0.236745 -0.766528
v -0.591400 0.460432 -0.885092
v -0.579382 -0.443175 -0.867106
v -0.608761 0.252284 -0.911076
v -0.612574 0.007468 -0.916782
v -0.602257 -0.236745 -0.901342
v -0.407363 0.460431 -0.983462
v -0.399085 -0.443175 -0.963477
v -0.419322 0.252284 -1.012333
v -0.421948 0.007468 -1.018674
v -0.414842 -0.236745 -1.001518
v -0.207672 0.460432 -1.044037
v -0.203452 -0.443175 -1.022822
v -0.213769 0.252284 -1.074687
v -0.215107 0.007468 -1.081418
v -0.211485 -0.236745 -1.063205
v 0.000000 -0.443175 -1.042860
v 0.000000 0.460431 -1.064491
v 0.000000 -0.236745 -1.084035
v 0.000000 0.007468 -1.102604
v 0.000000 0.252284 -1.095742
v 0.000000 2.572622 -1.060829
v 0.000000 1.471232 -1.043777
v 0.000000 2.319399 -1.093551
v 0.000000 2.021168 -1.101800
v 0.000000 1.723331 -1.084322
v 0.203631 1.471232 -1.023721
v 0.206958 2.572622 -1.040446
v 0.211541 1.723331 -1.063487
v 0.214951 2.021168 -1.080629
v 0.213341 2.319399 -1.072538
v 0.399436 1.471232 -0.964324
v 0.405962 2.572622 -0.980078
v 0.414952 1.723331 -1.001783
v 0.421641 2.021168 -1.017931
v 0.418484 2.319399 -1.010309
v 0.579891 1.471232 -0.867869
v 0.589365 2.572622 -0.882047
v 0.602417 1.723331 -0.901581
v 0.612128 2.021168 -0.916113
v 0.607544 2.319399 -0.909254
v 0.738062 1.471232 -0.738062
v 0.750120 2.572622 -0.750120
v 0.766732 1.723331 -0.766732
v 0.779091 2.021168 -0.779091
v 0.773257 2.319399 -0.773257
v 0.867869 1.471232 -0.579891
v 0.882047 2.572622 -0.589365
v 0.901581 1.723331 -0.602417
v 0.916113 2.021168 -0.612128
v 0.909254 2.319399 -0.607544
v 0.964324 1.471232 -0.399436
v 0.980078 2.572622 -0.405962
v 1.001783 1.723331 -0.414952
v 1.017931 2.021168 -0.421641
v 1.010309 2.319399 -0.418484
v 1.023721 1.471232 -0.203631
v 1.040446 2.572622 -0.206958
v 1.063487 1.723331 -0.211541
v 1.080629 2.021168 -0.214951
v 1.072538 2.319399 -0.213341
v 1.043777 1.471232 -0.000000
v 1.060829 2.572622 -0.000000
v 1.084322 1.723331 -0.000000
v 1.101800 2.021168 -0.000000
v 1.093551 2.319399 -0.000000
v 1.023721 1.471232 0.203631
v 1.040446 2.572622 0.206958
v 1.063487 1.723331 0.211541
v 1.080629 2.021168 0.214951
v 1.072538 2.319399 0.213341
v 0.964324 1.471232 0.399436
v 0.980078 2.572622 0.405962
v 1.001783 1.723331 0.414952
v 1.017931 2.021168 0.421641
v 1.010309 2.319399 0.418484
v 0.867869 1.471232 0.579891
v 0.882047 2.572622 0.589365
v 0.901581 1.723331 0.602417
v 0.916113 2.021168 0.612128
v 0.909254 2.319399 0.607544
v 0.738062 1.471232 0.738062
v 0.750120 2.572622 0.750120
v 0.766732 1.723331 0.766732
v 0.779091 2.021168 0.779091
v 0.773257 2.319399 0.773257
v 0.579891 1.471232 0.867869
v 0.589365 2.572622 0.882047
v 0.602417 1.723331 0.901581
v 0.612128 2.021168 0.916113
v 0.607544 2.319399 0.909254
v 0.399436 1.471232 0.964324
v 0.405962 2.572622 0.980078
v 0.414952 1.723331 1.001783
v 0.421641 2.021168 1.017931
v 0.418484 2.319399 1.010309
v 0.203631 1.471232 1.023721
v 0.206958 2.572622 1.040446
v 0.211541 1.723331 1.063487
v 0.214951 2.021168 1.080629
v 0.213341 2.319399 1.072538
v 0.000000 1.471232 1.043777
v 0.000000 2.572622 1.060829
v 0.000000 1.723331 1.084322
v 0.000000 2.021168 1.101800
v 0.000000 2.319399 1.093551
v -0.203631 1.471232 1.023721
v -0.206958 2.572622 1.040446
v -0.211541 1.723331 1.063487
v -0.214951 2.021168 1.080629
v -0.213341 2.319399 1.072538
v -0.399436 1.471232 0.964324
v -0.405962 2.572622 0.980078
v -0.414952 1.723331 1.001783
v -0.421641 2.021168 1.017931
v -0.418484 2.319399 1.010309
v -0.579891 1.471232 0.867869
v -0.589365 2.572622 0.882047
v -0.602417 1.723331 0.901581
v -0.612128 2.021168 0.916113
v -0.607544 2.319399 0.909254
v -0.738062 1.471232 0.738062
v -0.750120 2.572622 0.750120
v -0.766732 1.723331 0.766732
v -0.779091 2.021168 0.779091
v -0.773257 2.319399 0.773257
v -0.867869 1.471232 0.579891
v -0.882047 2.572622 0.589365
v -0.901581 1.723331 0.602417
v -0.916113 2.021168 0.612128
v -0.909254 2.319399 0.607544
v -0.964324 1.471232 0.399436
v -0.980078 2.572622 0.405962
v -1.001783 1.723331 0.414952
v -1.017931 2.021168 0.421641
v -1.010309 2.319399 0.418484
v -1.023721 1.471232 0.203631
v -1.040446 2.572622 0.206958
v -1.063487 1.723331 0.211541
v -1.080629 2.021168 0.214951
v -1.072538 2.319399 0.213341
v -1.043777 1.471232 -0.000000
v -1.060829 2.572622 -0.000000
v -1.084322 1.723331 -0.000000
v -1.101800 2.021168 -0.000000
v -1.093551 2.319399 -0.000000
v -1.023721 1.471232 -0.203631
v -1.040446 2.572622 -0.206958
v -1.063487 1.723331 -0.211541
v -1.080629 2.021168 -0.214951
v -1.072538 2.319399 -0.213341
v -0.964324 1.471232 -0.399436
v -0.980078 2.572622 -0.405962
v -1.001783 1.723331 -0.414952
v -1.017931 2.021168 -0.421641
v -1.010309 2.319399 -0.418484
v -0.867869 1.471232 -0.579891
v -0.882047 2.572622 -0.589365
v -0.901581 1.723331 -0.602417
v -0.916113 2.021168 -0.612128
v -0.909254 2.319399 -0.607544
v -0.738062 1.471232 -0.738062
v -0.750120 2.572622 -0.750120
v -0.766732 1.723331 -0.766732
v -0.779091 2.021168 -0.779091
v -0.773257 2.319399 -0.773257
v -0.579891 1.471232 -0.867869
v -0.589365 2.572622 -0.882047
v -0.602417 1.723331 -0.901581
v -0.612128 2.021168 -0.916113
v -0.607544 2.319399 -0.909254
v -0.399436 1.471232 -0.964324
v -0.405962 2.572622 -0.980078
v -0.414952 1.723331 -1.001783
v -0.421641 2.021168 -1.017931
v -0.418484 2.319399 -1.010309
v -0.203631 1.471232 -1.023721
v -0.206958 2.572622 -1.040446
v -0.211541 1.723331 -1.063487
v -0.214951 2.021168 -1.080629
v -0.213341 2.319399 -1.072538
v -0.190506 3.185668 -0.957737
v -0.117222 3.559500 -0.589314
v -0.184927 3.328727 -0.929692
v -0.169041 3.450007 -0.849828
v -0.145266 3.531044 -0.730303
v -0.229939 3.559500 -0.555121
v -0.373690 3.185668 -0.902168
v -0.284950 3.531044 -0.687931
v -0.331587 3.450007 -0.800521
v -0.362748 3.328727 -0.875751
v -0.333819 3.559500 -0.499596
v -0.542514 3.185668 -0.811930
v -0.413684 3.531044 -0.619121
v -0.481389 3.450007 -0.720450
v -0.526628 3.328727 -0.788155
v -0.690490 3.185668 -0.690490
v -0.424872 3.559500 -0.424872
v -0.670271 3.328727 -0.670271
v -0.612692 3.450007 -0.612692
v -0.526519 3.531044 -0.526519
v -0.499596 3.559500 -0.333819
v -0.811930 3.185668 -0.542514
v -0.619121 3.531044 -0.413684
v -0.720450 3.450007 -0.481389
v -0.788155 3.328727 -0.526628
v -0.555121 3.559500 -0.229939
v -0.902168 3.185668 -0.373690
v -0.687931 3.531044 -0.284950
v -0.800521 3.450007 -0.331587
v -0.875751 3.328727 -0.362748
v -0.589314 3.559500 -0.117222
v -0.957737 3.185668 -0.190506
v -0.730303 3.531044 -0.145266
v -0.849828 3.450007 -0.169041
v -0.929692 3.328727 -0.184927
v -0.600859 3.559500 0.000000
v -0.976500 3.185668 0.000000
v -0.744611 3.531044 0.000000
v -0.866477 3.450007 0.000000
v -0.947906 3.328727 0.000000
v -0.589314 3.559500 0.117222
v -0.957737 3.185668 0.190506
v -0.730303 3.531044 0.145266
v -0.849828 3.450007 0.169041
v -0.929692 3.328727 0.184927
v -0.555121 3.559500 0.229939
v -0.902168 3.185668 0.373690
v -0.687931 3.531044 0.284950
v -0.800521 3.450007 0.331587
v -0.875751 3.328727 0.362748
v -0.499596 3.559500 0.333819
v -0.811930 3.185668 0.542514
v -0.619121 3.531044 0.413684
v -0.720450 3.450007 0.481389
v -0.788155 3.328727 0.526628
v -0.424872 3.559500 0.424872
v -0.690490 3.185668 0.690490
v -0.526519 3.531044 0.526519
v -0.612692 3.450007 0.612692
v -0.670271 3.328727 0.670271
v -0.333819 3.559500 0.499596
v -0.542514 3.185668 0.811930
v -0.413684 3.531044 0.619121
v -0.481389 3.450007 0.720450
v -0.526628 3.328727 0.788155
v -0.229939 3.559500 0.555121
v -0.373690 3.185668 0.902168
v -0.284950 3.531044 0.687931
v -0.331587 3.450007 0.800521
v -0.362748 3.328727 0.875751
v -0.117222 3.559500 0.589314
v -0.190506 3.185668 0.957737
v -0.145266 3.531044 0.730303
v -0.169041 3.450007 0.849828
v -0.184927 3.328727 0.929692
v 0.000000 3.185668 0.976500
v 0.000000 3.559500 0.600859
v 0.000000 3.328727 0.947906
v 0.000000 3.450007 0.866477
v 0.000000 3.531044 0.744611
v 0.117222 3.559500 0.589314
v 0.190506 3.185668 0.957737
v 0.145266 3.531044 0.730303
v 0.169041 3.450007 0.849828
v 0.184927 3.328727 0.929692
v 0.229939 3.559500 0.555121
v 0.373690 3.185668 0.902168
v 0.284950 3.531044 0.687931
v 0.331587 3.450007 0.800521
v 0.362748 3.328727 0.875751
v 0.333819 3.559500 0.499596
v 0.542514 3.185668 0.811930
v 0.413684 3.531044 0.619121
v 0.481389 3.450007 0.720450
v 0.526628 3.328727 0.788155
v 0.424872 3.559500 0.424872
v 0.690490 3.185668 0.690490
v 0.526519 3.531044 0.526519
v 0.612692 3.450007 0.612692
v 0.670271 3.328727 0.670271
v 0.499596 3.559500 0.333819
v 0.811930 3.185668 0.542514
v 0.619121 3.531044 0.413684
v 0.720450 3.450007 0.481389
v 0.788155 3.328727 0.526628
v 0.555121 3.559500 0.229939
v 0.902168 3.185668 0.373690
v 0.687931 3.531044 0.284950
v 0.800521 3.450007 0.331587
v 0.875751 3.328727 0.362748
v 0.589314 3.559500 0.117222
v 0.957737 3.185668 0.190506
v 0.730303 3.531044 0.145266
v 0.849828 3.450007 0.169041
v 0.929692 3.328727 0.184927
v 0.600859 3.559500 -0.000000
v 0.976500 3.185668 0.000000
v 0.744611 3.531044 -0.000000
v 0.866477 3.450007 -0.000000
v 0.947906 3.328727 -0.000000
v 0.589314 3.559500 -0.117222
v 0.957737 3.185668 -0.190506
v 0.730303 3.531044 -0.145266
v 0.849828 3.450007 -0.169041
v 0.929692 3.328727 -0.184927
v 0.555121 3.559500 -0.229939
v 0.902168 3.185668 -0.373690
v 0.687931 3.531044 -0.284950
v 0.800521 3.450007 -0.331587
v 0.875751 3.328727 -0.362748
v 0.499596 3.559500 -0.333819
v 0.811930 3.185668 -0.542514
v 0.619121 3.531044 -0.413684
v 0.720450 3.450007 -0.481389
v 0.788155 3.328727 -0.526628
v 0.690490 3.185668 -0.690490
v 0.424872 3.559500 -0.424872
v 0.670271 3.328727 -0.670271
v 0.612692 3.450007 -0.612692
v 0.526519 3.531044 -0.526519
v 0.333819 3.559500 -0.499596
v 0.542514 3.185668 -0.811930
v 0.413684 3.531044 -0.619121
v 0.481389 3.450007 -0.720450
v 0.526628 3.328727 -0.788155
v 0.229939 3.559500 -0.555121
v 0.373690 3.185668 -0.902168
v 0.284950 3.531044 -0.687931
v 0.331587 3.450007 -0.800521
v 0.362748 3.328727 -0.875751
v -0.000000 3.559500 -0.600859
v 0.000000 3.185668 -0.976500
v -0.000000 3.531044 -0.744611
v -0.000000 3.450007 -0.866477
v -0.000000 3.328727 -0.947906
v 0.190506 3.185668 -0.957737
v 0.117222 3.559500 -0.589314
v 0.184927 3.328727 -0.929692
v 0.169041 3.450007 -0.849828
v 0.145266 3.531044 -0.730303
v -0.387231 3.675420 0.579531
v -0.492851 3.675420 0.492851
v 0.579531 3.675420 0.387231
v 0.492851 3.675420 0.492851
v -0.135977 3.675420 0.683604
v -0.266729 3.675420 0.643941
v -0.266729 3.675420 -0.643941
v -0.135977 3.675420 -0.683604
v 0.387231 3.675420 0.579531
v 0.266729 3.675420 0.643941
v 0.135977 3.675420 0.683604
v -0.387231 3.675420 -0.579531
v 0.135977 3.675420 -0.683604
v 0.266729 3.675420 -0.643941
v -0.643941 3.675420 0.266729
v -0.683604 3.675420 0.135977
v 0.683604 3.675420 -0.135977
v 0.696997 3.675420 -0.000000
v 0.683604 3.675420 0.135977
v 0.643941 3.675420 0.266729
v -0.579531 3.675420 -0.387231
v -0.492851 3.675420 -0.492851
v -0.579531 3.675420 0.387231
v -0.683604 3.675420 -0.135977
v -0.643941 3.675420 -0.266729
v 0.000000 3.675420 0.696997
v -0.000000 3.675420 -0.696997
v 0.579531 3.675420 -0.387231
v 0.643941 3.675420 -0.266729
v 0.387231 3.675420 -0.579531
v -0.696997 3.675420 0.000000
v 0.492851 3.675420 -0.492851
v -0.387231 4.186980 0.579531
v -0.492851 4.186980 0.492851
v 0.579531 4.186980 0.387231
v 0.492851 4.186980 0.492851
v -0.135977 4.186980 0.683604
v -0.266729 4.186980 0.643941
v -0.266729 4.186980 -0.643941
v -0.135977 4.186980 -0.683604
v 0.387231 4.186980 0.579531
v 0.266729 4.186980 0.643941
v 0.135977 4.186980 0.683604
v -0.387231 4.186980 -0.579531
v 0.135977 4.186980 -0.683604
v 0.266729 4.186980 -0.643941
v -0.643941 4.186980 0.266729
v -0.683604 4.186980 0.135977
v 0.683604 4.186980 -0.135977
v 0.696997 4.186980 -0.000000
v 0.683604 4.186980 0.135977
v 0.643941 4.186980 0.266729
v -0.579531 4.186980 -0.387231
v -0.492851 4.186980 -0.492851
v -0.579531 4.186980 0.387231
v -0.683604 4.186980 -0.135977
v -0.643941 4.186980 -0.266729
v 0.000000 4.186980 0.696997
v -0.000000 4.186980 -0.696997
v 0.579531 4.186980 -0.387231
v 0.643941 4.186980 -0.266729
v 0.387231 4.186980 -0.579531
v -0.696997 4.186980 0.000000
v 0.492851 4.186980 -0.492851
vn -0.7730 -0.0000 0.6344
vn -0.4714 -0.0000 -0.8819
vn 0.8819 -0.0000 -0.4714
vn -0.9952 -0.0000 -0.0980
vn 0.0980 -0.0000 0.9952
vn 0.9569 -0.0000 -0.2903
vn 0.2903 -0.0000 0.9569
vn -0.0980 -0.0000 -0.9952
vn -0.9569 -0.0000 -0.2903
vn -0.9952 -0.0000 0.0980
vn -0.0980 -0.0000 0.9952
vn 0.8819 -0.0000 0.4714
vn -0.2903 -0.0000 -0.9569
vn -0.6344 -0.0000 -0.7730
vn -0.7730 -0.0000 -0.6344
vn -0.8819 -0.0000 -0.4714
vn -0.9569 -0.0000 0.2903
vn -0.8819 -0.0000 0.4714
vn -0.6344 -0.0000 0.7730
vn -0.4714 -0.0000 0.8819
vn -0.2903 -0.0000 0.9569
vn 0.4714 -0.0000 0.8819
vn 0.6344 -0.0000 0.7730
vn 0.7730 -0.0000 0.6344
vn 0.9569 -0.0000 0.2903
vn 0.9952 -0.0000 0.0980
vn 0.9952 -0.0000 -0.0980
vn 0.7730 -0.0000 -0.6344
vn 0.6344 -0.0000 -0.7730
vn 0.4714 -0.0000 -0.8819
vn 0.2903 -0.0000 -0.9569
vn 0.0980 -0.0000 -0.9952
vn 0.2674 -0.9382 -0.2195
vn 0.0590 -0.7984 -0.5993
vn 0.1748 -0.7984 -0.5762
vn 0.2839 -0.7984 -0.5311
vn 0.3820 -0.7984 -0.4655
vn 0.4655 -0.7984 -0.3820
vn 0.5311 -0.7984 -0.2839
vn 0.5762 -0.7984 -0.1748
vn 0.5993 -0.7984 -0.0590
vn 0.5993 -0.7984 0.0590
vn 0.5762 -0.7984 0.1748
vn 0.5311 -0.7984 0.2839
vn 0.4655 -0.7984 0.3820
vn 0.3820 -0.7984 0.4655
vn 0.2839 -0.7984 0.5311
vn 0.1748 -0.7984 0.5762
vn 0.0590 -0.7984 0.5993
vn -0.0590 -0.7984 0.5993
vn -0.1748 -0.7984 0.5762
vn -0.2839 -0.7984 0.5311
vn -0.3820 -0.7984 0.4655
vn -0.4655 -0.7984 0.3820
vn -0.5311 -0.7984 0.2839
vn -0.5762 -0.7984 0.1748
vn -0.5993 -0.7984 0.0590
vn -0.5993 -0.7984 -0.0590
vn -0.5762 -0.7984 -0.1748
vn -0.5311 -0.7984 -0.2839
vn -0.4655 -0.7984 -0.3820
vn -0.3820 -0.7984 -0.4655
vn -0.2839 -0.7984 -0.5311
vn -0.1748 -0.7984 -0.5762
vn -0.0590 -0.7984 -0.5993
vn -0.0000 -1.0000 -0.0000
vn 0.0969 0.1478 -0.9843
vn 0.0980 0.0279 -0.9948
vn 0.0977 -0.0755 -0.9923
vn 0.0961 -0.1947 -0.9761
vn 0.2871 0.1478 -0.9464
vn 0.2902 0.0279 -0.9566
vn 0.2895 -0.0755 -0.9542
vn 0.2847 -0.1947 -0.9386
vn 0.4662 0.1478 -0.8722
vn 0.4712 0.0279 -0.8816
vn 0.4701 -0.0755 -0.8794
vn 0.4624 -0.1947 -0.8650
vn 0.6274 0.1478 -0.7645
vn 0.6341 0.0279 -0.7727
vn 0.6326 -0.0755 -0.7708
vn 0.6223 -0.1947 -0.7582
vn 0.7645 0.1478 -0.6274
vn 0.7727 0.0279 -0.6341
vn 0.7708 -0.0755 -0.6326
vn 0.7582 -0.1947 -0.6223
vn 0.8722 0.1478 -0.4662
vn 0.8816 0.0279 -0.4712
vn 0.8794 -0.0755 -0.4701
vn 0.8650 -0.1947 -0.4624
vn 0.9464 0.1478 -0.2871
vn 0.9566 0.0279 -0.2902
vn 0.9542 -0.0755 -0.2895
vn 0.9386 -0.1947 -0.2847
vn 0.9843 0.1478 -0.0969
vn 0.9948 0.0279 -0.0980
vn 0.9923 -0.0755 -0.0977
vn 0.9761 -0.1947 -0.0961
vn 0.9843 0.1478 0.0969
vn 0.9948 0.0279 0.0980
vn 0.9923 -0.0755 0.0977
vn 0.9761 -0.1947 0.0961
vn 0.9464 0.1478 0.2871
vn 0.9566 0.0279 0.2902
vn 0.9542 -0.0755 0.2895
vn 0.9386 -0.1947 0.2847
vn 0.8722 0.1478 0.4662
vn 0.8816 0.0279 0.4712
vn 0.8794 -0.0755 0.4701
vn 0.8650 -0.1947 0.4624
vn 0.7645 0.1478 0.6274
vn 0.7727 0.0279 0.6341
vn 0.7708 -0.0755 0.6326
vn 0.7582 -0.1947 0.6223
vn 0.6274 0.1478 0.7645
vn 0.6341 0.0279 0.7727
vn 0.6326 -0.0755 0.7708
vn 0.6223 -0.1947 0.7582
vn 0.4662 0.1478 0.8722
vn 0.4712 0.0279 0.8816
vn 0.4701 -0.0755 0.8794
vn 0.4624 -0.1947 0.8650
vn 0.2871 0.1478 0.9464
vn 0.2902 0.0279 0.9566
vn 0.2895 -0.0755 0.9542
vn 0.2847 -0.1947 0.9386
vn 0.0969 0.1478 0.9843
vn 0.0980 0.0279 0.9948
vn 0.0977 -0.0755 0.9923
vn 0.0961 -0.1947 0.9761
vn -0.0969 0.1478 0.9843
vn -0.0980 0.0279 0.9948
vn -0.0977 -0.0755 0.9923
vn -0.0961 -0.1947 0.9761
vn -0.2871 0.1478 0.9464
vn -0.2902 0.0279 0.9566
vn -0.2895 -0.0755 0.9542
vn -0.2847 -0.1947 0.9386
vn -0.4662 0.1478 0.8722
vn -0.4712 0.0279 0.8816
vn -0.4701 -0.0755 0.8794
vn -0.4624 -0.1947 0.8650
vn -0.6274 0.1478 0.7645
vn -0.6341 0.0279 0.7727
vn -0.6326 -0.0755 0.7708
vn -0.6223 -0.1947 0.7582
vn -0.7645 0.1478 0.6274
vn -0.7727 0.0279 0.6341
vn -0.7708 -0.0755 0.6326
vn -0.7582 -0.1947 0.6223
vn -0.8722 0.1478 0.4662
vn -0.8816 0.0279 0.4712
vn -0.8794 -0.0755 0.4701
vn -0.8650 -0.1947 0.4624
vn -0.9464 0.1478 0.2871
vn -0.9566 0.0279 0.2902
vn -0.9542 -0.0755 0.2895
vn -0.9386 -0.1947 0.2847
vn -0.9843 0.1478 0.0969
vn -0.9948 0.0279 0.0980
vn -0.9923 -0.0755 0.0977
vn -0.9761 -0.1947 0.0961
vn -0.9843 0.1478 -0.0969
vn -0.9948 0.0279 -0.0980
vn -0.9923 -0.0755 -0.0977
vn -0.9761 -0.1947 -0.0961
vn -0.9464 0.1478 -0.2871
vn -0.9566 0.0279 -0.2902
vn -0.9542 -0.0755 -0.2895
vn -0.9386 -0.1947 -0.2847
vn -0.8722 0.1478 -0.4662
vn -0.8816 0.0279 -0.4712
vn -0.8794 -0.0755 -0.4701
vn -0.8650 -0.1947 -0.4624
vn -0.7645 0.1478 -0.6274
vn -0.7727 0.0279 -0.6341
vn -0.7708 -0.0755 -0.6326
vn -0.7582 -0.1947 -0.6223
vn -0.6274 0.1478 -0.7645
vn -0.6341 0.0279 -0.7727
vn -0.6326 -0.0755 -0.7708
vn -0.6223 -0.1947 -0.7582
vn -0.4662 0.1478 -0.8722
vn -0.4712 0.0279 -0.8816
vn -0.4701 -0.0755 -0.8794
vn -0.4624 -0.1947 -0.8650
vn -0.2871 0.1478 -0.9464
vn -0.2902 0.0279 -0.9566
vn -0.2895 -0.0755 -0.9542
vn -0.2847 -0.1947 -0.9386
vn -0.0969 0.1478 -0.9843
vn -0.0980 0.0279 -0.9948
vn -0.0977 -0.0755 -0.9923
vn -0.0961 -0.1947 -0.9761
vn 0.0942 -0.2748 -0.9569
vn 0.0954 0.2287 -0.9688
vn 0.2791 -0.2748 -0.9201
vn 0.2826 0.2287 -0.9316
vn 0.4533 -0.2748 -0.8480
vn 0.4589 0.2287 -0.8586
vn 0.6100 -0.2748 -0.7433
vn 0.6176 0.2287 -0.7525
vn 0.7433 -0.2748 -0.6100
vn 0.7525 0.2287 -0.6176
vn 0.8480 -0.2748 -0.4533
vn 0.8586 0.2287 -0.4589
vn 0.9201 -0.2748 -0.2791
vn 0.9316 0.2287 -0.2826
vn 0.9569 -0.2748 -0.0942
vn 0.9688 0.2287 -0.0954
vn 0.9569 -0.2748 0.0942
vn 0.9688 0.2287 0.0954
vn 0.9201 -0.2748 0.2791
vn 0.9316 0.2287 0.2826
vn 0.8480 -0.2748 0.4533
vn 0.8586 0.2287 0.4589
vn 0.7433 -0.2748 0.6100
vn 0.7525 0.2287 0.6176
vn 0.6100 -0.2748 0.7433
vn 0.6176 0.2287 0.7525
vn 0.4533 -0.2748 0.8480
vn 0.4589 0.2287 0.8586
vn 0.2791 -0.2748 0.9201
vn 0.2826 0.2287 0.9316
vn 0.0942 -0.2748 0.9569
vn 0.0954 0.2287 0.9688
vn -0.0942 -0.2748 0.9569
vn -0.0954 0.2287 0.9688
vn -0.2791 -0.2748 0.9201
vn -0.2826 0.2287 0.9316
vn -0.4533 -0.2748 0.8480
vn -0.4589 0.2287 0.8586
vn -0.6100 -0.2748 0.7433
vn -0.6176 0.2287 0.7525
vn -0.7433 -0.2748 0.6100
vn -0.7525 0.2287 0.6176
vn -0.8480 -0.2748 0.4533
vn -0.8586 0.2287 0.4589
vn -0.9201 -0.2748 0.2791
vn -0.9316 0.2287 0.2826
vn -0.9569 -0.2748 0.0942
vn -0.9688 0.2287 0.0954
vn -0.9569 -0.2748 -0.0942
vn -0.9688 0.2287 -0.0954
vn -0.9201 -0.2748 -0.2791
vn -0.9316 0.2287 -0.2826
vn -0.8480 -0.2748 -0.4533
vn -0.8586 0.2287 -0.4589
vn -0.7433 -0.2748 -0.6100
vn -0.7525 0.2287 -0.6176
vn -0.6100 -0.2748 -0.7433
vn -0.6176 0.2287 -0.7525
vn -0.4533 -0.2748 -0.8480
vn -0.4589 0.2287 -0.8586
vn -0.2791 -0.2748 -0.9201
vn -0.2826 0.2287 -0.9316
vn -0.0942 -0.2748 -0.9569
vn -0.0954 0.2287 -0.9688
vn -0.0972 0.1275 -0.9871
vn -0.0980 0.0275 -0.9948
vn -0.0979 -0.0583 -0.9935
vn -0.0968 -0.1580 -0.9827
vn -0.2879 0.1275 -0.9491
vn -0.2902 0.0275 -0.9566
vn -0.2898 -0.0583 -0.9553
vn -0.2866 -0.1580 -0.9449
vn -0.4675 0.1275 -0.8747
vn -0.4712 0.0275 -0.8816
vn -0.4706 -0.0583 -0.8804
vn -0.4655 -0.1580 -0.8708
vn -0.6292 0.1275 -0.7667
vn -0.6342 0.0275 -0.7727
vn -0.6333 -0.0583 -0.7717
vn -0.6264 -0.1580 -0.7633
vn -0.7667 0.1275 -0.6292
vn -0.7727 0.0275 -0.6342
vn -0.7717 -0.0583 -0.6333
vn -0.7633 -0.1580 -0.6264
vn -0.8747 0.1275 -0.4675
vn -0.8816 0.0275 -0.4712
vn -0.8804 -0.0583 -0.4706
vn -0.8708 -0.1580 -0.4655
vn -0.9491 0.1275 -0.2879
vn -0.9566 0.0275 -0.2902
vn -0.9553 -0.0583 -0.2898
vn -0.9449 -0.1580 -0.2866
vn -0.9871 0.1275 -0.0972
vn -0.9948 0.0275 -0.0980
vn -0.9935 -0.0583 -0.0979
vn -0.9827 -0.1580 -0.0968
vn -0.9871 0.1275 0.0972
vn -0.9948 0.0275 0.0980
vn -0.9935 -0.0583 0.0979
vn -0.9827 -0.1580 0.0968
vn -0.9491 0.1275 0.2879
vn -0.9566 0.0275 0.2902
vn -0.9553 -0.0583 0.2898
vn -0.9449 -0.1580 0.2866
vn -0.8747 0.1275 0.4675
vn -0.8816 0.0275 0.4712
vn -0.8804 -0.0583 0.4706
vn -0.8708 -0.1580 0.4655
vn -0.7667 0.1275 0.6292
vn -0.7727 0.0275 0.6342
vn -0.7717 -0.0583 0.6333
vn -0.7633 -0.1580 0.6264
vn -0.6292 0.1275 0.7667
vn -0.6342 0.0275 0.7727
vn -0.6333 -0.0583 0.7717
vn -0.6264 -0.1580 0.7633
vn -0.4675 0.1275 0.8747
vn -0.4712 0.0275 0.8816
vn -0.4706 -0.0583 0.8804
vn -0.4655 -0.1580 0.8708
vn -0.2879 0.1275 0.9491
vn -0.2902 0.0275 0.9566
vn -0.2898 -0.0583 0.9553
vn -0.2866 -0.1580 0.9449
vn -0.0972 0.1275 0.9871
vn -0.0980 0.0275 0.9948
vn -0.0979 -0.0583 0.9935
vn -0.0968 -0.1580 0.9827
vn 0.0972 0.1275 0.9871
vn 0.0980 0.0275 0.9948
vn 0.0979 -0.0583 0.9935
vn 0.0968 -0.1580 0.9827
vn 0.2879 0.1275 0.9491
vn 0.2902 0.0275 0.9566
vn 0.2898 -0.0583 0.9553
vn 0.2866 -0.1580 0.9449
vn 0.4675 0.1275 0.8747
vn 0.4712 0.0275 0.8816
vn 0.4706 -0.0583 0.8804
vn 0.4655 -0.1580 0.8708
vn 0.6292 0.1275 0.7667
vn 0.6342 0.0275 0.7727
vn 0.6333 -0.0583 0.7717
vn 0.6264 -0.1580 0.7633
vn 0.7667 0.1275 0.6292
vn 0.7727 0.0275 0.6342
vn 0.7717 -0.0583 0.6333
vn 0.7633 -0.1580 0.6264
vn 0.8747 0.1275 0.4675
vn 0.8816 0.0275 0.4712
vn 0.8804 -0.0583 0.4706
vn 0.8708 -0.1580 0.4655
vn 0.9491 0.1275 0.2879
vn 0.9566 0.0275 0.2902
vn 0.9553 -0.0583 0.2898
vn 0.9449 -0.1580 0.2866
vn 0.9871 0.1275 0.0972
vn 0.9948 0.0275 0.0980
vn 0.9935 -0.0583 0.0979
vn 0.9827 -0.1580 0.0968
vn 0.9871 0.1275 -0.0972
vn 0.9948 0.0275 -0.0980
vn 0.9935 -0.0583 -0.0979
vn 0.9827 -0.1580 -0.0968
vn 0.9491 0.1275 -0.2879
vn 0.9566 0.0275 -0.2902
vn 0.9553 -0.0583 -0.2898
vn 0.9449 -0.1580 -0.2866
vn 0.8747 0.1275 -0.4675
vn 0.8816 0.0275 -0.4712
vn 0.8804 -0.0583 -0.4706
vn 0.8708 -0.1580 -0.4655
vn 0.7667 0.1275 -0.6292
vn 0.7727 0.0275 -0.6342
vn 0.7717 -0.0583 -0.6333
vn 0.7633 -0.1580 -0.6264
vn 0.6292 0.1275 -0.7667
vn 0.6342 0.0275 -0.7727
vn 0.6333 -0.0583 -0.7717
vn 0.6264 -0.1580 -0.7633
vn 0.4675 0.1275 -0.8747
vn 0.4712 0.0275 -0.8816
vn 0.4706 -0.0583 -0.8804
vn 0.4655 -0.1580 -0.8708
vn 0.2879 0.1275 -0.9491
vn 0.2902 0.0275 -0.9566
vn 0.2898 -0.0583 -0.9553
vn 0.2866 -0.1580 -0.9449
vn 0.0972 0.1275 -0.9871
vn 0.0980 0.0275 -0.9948
vn 0.0979 -0.0583 -0.9935
vn 0.0968 -0.1580 -0.9827
vn -0.0961 0.1960 -0.9759
vn 0.0955 -0.2261 -0.9694
vn -0.0955 -0.2261 -0.9694
vn 0.0961 0.1960 -0.9759
vn 0.2847 0.1960 -0.9384
vn 0.2828 -0.2261 -0.9322
vn 0.4623 0.1960 -0.8648
vn 0.4592 -0.2261 -0.8591
vn 0.6221 0.1960 -0.7580
vn 0.6180 -0.2261 -0.7530
vn 0.7580 0.1960 -0.6221
vn 0.7530 -0.2261 -0.6180
vn 0.8648 0.1960 -0.4623
vn 0.8591 -0.2261 -0.4592
vn 0.9384 0.1960 -0.2847
vn 0.9322 -0.2261 -0.2828
vn 0.9759 0.1960 -0.0961
vn 0.9694 -0.2261 -0.0955
vn 0.9759 0.1960 0.0961
vn 0.9694 -0.2261 0.0955
vn 0.9384 0.1960 0.2847
vn 0.9322 -0.2261 0.2828
vn 0.8648 0.1960 0.4623
vn 0.8591 -0.2261 0.4592
vn 0.7580 0.1960 0.6221
vn 0.7530 -0.2261 0.6180
vn 0.6221 0.1960 0.7580
vn 0.6180 -0.2261 0.7530
vn 0.4623 0.1960 0.8648
vn 0.4592 -0.2261 0.8591
vn 0.2847 0.1960 0.9384
vn 0.2828 -0.2261 0.9322
vn 0.0961 0.1960 0.9759
vn 0.0955 -0.2261 0.9694
vn -0.0961 0.1960 0.9759
vn -0.0955 -0.2261 0.9694
vn -0.2847 0.1960 0.9384
vn -0.2828 -0.2261 0.9322
vn -0.4623 0.1960 0.8648
vn -0.4592 -0.2261 0.8591
vn -0.6221 0.1960 0.7580
vn -0.6180 -0.2261 0.7530
vn -0.7580 0.1960 0.6221
vn -0.7530 -0.2261 0.6180
vn -0.8648 0.1960 0.4623
vn -0.8591 -0.2261 0.4592
vn -0.9384 0.1960 0.2847
vn -0.9322 -0.2261 0.2828
vn -0.9759 0.1960 0.0961
vn -0.9694 -0.2261 0.0955
vn -0.9759 0.1960 -0.0961
vn -0.9694 -0.2261 -0.0955
vn -0.9384 0.1960 -0.2847
vn -0.9322 -0.2261 -0.2828
vn -0.8648 0.1960 -0.4623
vn -0.8591 -0.2261 -0.4592
vn -0.7580 0.1960 -0.6221
vn -0.7530 -0.2261 -0.6180
vn -0.6221 0.1960 -0.7580
vn -0.6180 -0.2261 -0.7530
vn -0.4623 0.1960 -0.8648
vn -0.4592 -0.2261 -0.8591
vn -0.2847 0.1960 -0.9384
vn -0.2828 -0.2261 -0.9322
vn -0.0961 0.1951 -0.9761
vn -0.0815 0.5556 -0.8275
vn -0.0545 0.8315 -0.5529
vn -0.0191 0.9808 -0.1942
vn -0.6222 0.1951 -0.7582
vn -0.5275 0.5556 -0.6427
vn -0.3525 0.8315 -0.4295
vn -0.1238 0.9808 -0.1508
vn -0.9386 0.1951 -0.2847
vn -0.7957 0.5556 -0.2414
vn -0.5316 0.8315 -0.1613
vn -0.1867 0.9808 -0.0566
vn -0.9386 0.1951 0.2847
vn -0.7957 0.5556 0.2414
vn -0.5316 0.8315 0.1613
vn -0.1867 0.9808 0.0566
vn -0.6222 0.1951 0.7582
vn -0.5275 0.5556 0.6427
vn -0.3524 0.8315 0.4295
vn -0.1238 0.9808 0.1508
vn -0.0961 0.1951 0.9761
vn -0.0815 0.5556 0.8275
vn -0.0545 0.8315 0.5529
vn -0.0191 0.9808 0.1942
vn 0.4623 0.1951 0.8650
vn 0.3920 0.5556 0.7333
vn 0.2619 0.8315 0.4900
vn 0.0920 0.9808 0.1721
vn 0.8650 0.1951 0.4623
vn 0.7333 0.5556 0.3920
vn 0.4900 0.8315 0.2619
vn 0.1721 0.9808 0.0920
vn 0.9761 0.1951 -0.0961
vn 0.8275 0.5556 -0.0815
vn 0.5529 0.8315 -0.0545
vn 0.1941 0.9808 -0.0191
vn 0.7582 0.1951 -0.6222
vn 0.6427 0.5556 -0.5275
vn 0.4295 0.8315 -0.3525
vn 0.1508 0.9808 -0.1238
vn 0.2847 0.1951 -0.9386
vn 0.2414 0.5556 -0.7957
vn 0.1613 0.8315 -0.5316
vn 0.0566 0.9808 -0.1867
vn 0.6222 0.1951 -0.7582
vn 0.5275 0.5556 -0.6427
vn 0.3524 0.8315 -0.4295
vn 0.1238 0.9808 -0.1508
vn 0.9386 0.1951 -0.2847
vn 0.7957 0.5556 -0.2414
vn 0.5316 0.8315 -0.1613
vn 0.1867 0.9808 -0.0566
vn 0.9386 0.1951 0.2847
vn 0.7957 0.5556 0.2414
vn 0.5316 0.8315 0.1613
vn 0.1867 0.9808 0.0566
vn 0.6222 0.1951 0.7582
vn 0.5275 0.5556 0.6427
vn 0.3525 0.8315 0.4295
vn 0.1238 0.9808 0.1508
vn 0.0961 0.1951 0.9761
vn 0.0815 0.5556 0.8275
vn 0.0545 0.8315 0.5529
vn 0.0191 0.9808 0.1942
vn -0.4623 0.1951 0.8650
vn -0.3920 0.5556 0.7333
vn -0.2619 0.8315 0.4900
vn -0.0920 0.9808 0.1721
vn -0.8650 0.1951 0.4623
vn -0.7333 0.5556 0.3920
vn -0.4900 0.8315 0.2619
vn -0.1721 0.9808 0.0920
vn -0.9761 0.1951 -0.0961
vn -0.8275 0.5556 -0.0815
vn -0.5529 0.8315 -0.0545
vn -0.1942 0.9808 -0.0191
vn -0.7582 0.1951 -0.6222
vn -0.6427 0.5556 -0.5275
vn -0.4295 0.8315 -0.3525
vn -0.1508 0.9808 -0.1238
vn -0.2847 0.1951 -0.9386
vn -0.2414 0.5556 -0.7957
vn -0.1613 0.8315 -0.5316
vn -0.0566 0.9808 -0.1867
vn 0.0961 0.1951 -0.9761
vn 0.0815 0.5556 -0.8275
vn 0.0545 0.8315 -0.5529
vn 0.0191 0.9808 -0.1942
vn -0.4623 0.1951 -0.8650
vn -0.3920 0.5556 -0.7333
vn -0.2619 0.8315 -0.4900
vn -0.0920 0.9808 -0.1721
vn -0.8650 0.1951 -0.4623
vn -0.7333 0.5556 -0.3920
vn -0.4900 0.8315 -0.2619
vn -0.1721 0.9808 -0.0920
vn -0.9761 0.1951 0.0961
vn -0.8275 0.5556 0.0815
vn -0.5529 0.8315 0.0545
vn -0.1941 0.9808 0.0191
vn -0.7582 0.1951 0.6222
vn -0.6427 0.5556 0.5275
vn -0.4295 0.8315 0.3525
vn -0.1508 0.9808 0.1238
vn -0.2847 0.1951 0.9386
vn -0.2414 0.5556 0.7957
vn -0.1613 0.8315 0.5316
vn -0.0566 0.9808 0.1867
vn 0.2847 0.1951 0.9386
vn 0.2414 0.5556 0.7957
vn 0.1613 0.8315 0.5316
vn 0.0566 0.9808 0.1867
vn 0.7582 0.1951 0.6222
vn 0.6427 0.5556 0.5275
vn 0.4295 0.8315 0.3525
vn 0.1508 0.9808 0.1238
vn 0.9761 0.1951 0.0961
vn 0.8275 0.5556 0.0815
vn 0.5529 0.8315 0.0545
vn 0.1942 0.9808 0.0191
vn 0.8650 0.1951 -0.4623
vn 0.7333 0.5556 -0.3920
vn 0.4900 0.8315 -0.2619
vn 0.1721 0.9808 -0.0920
vn 0.4623 0.1951 -0.8650
vn 0.3920 0.5556 -0.7333
vn 0.2619 0.8315 -0.4900
vn 0.0920 0.9808 -0.1721
vn -0.2195 -0.9382 0.2674
vn -0.0339 -0.9382 0.3443
vn 0.3443 -0.9382 0.0339
vn 0.2674 -0.9382 0.2195
vn 0.3051 -0.9382 -0.1631
vn -0.3311 -0.9382 -0.1004
vn 0.3051 -0.9382 0.1631
vn -0.0339 -0.9382 -0.3443
vn 0.3443 -0.9382 -0.0339
vn -0.3443 -0.9382 0.0339
vn -0.3443 -0.9382 -0.0339
vn 0.0339 -0.9382 0.3443
vn 0.3311 -0.9382 -0.1004
vn 0.3311 -0.9382 0.1004
vn -0.2195 -0.9382 -0.2674
vn -0.1004 -0.9382 0.3311
vn 0.1631 -0.9382 -0.3051
vn -0.3051 -0.9382 -0.1631
vn 0.1004 -0.9382 0.3311
vn 0.2195 -0.9382 0.2674
vn 0.1631 -0.9382 0.3051
vn -0.1004 -0.9382 -0.3311
vn 0.1004 -0.9382 -0.3311
vn -0.1631 -0.9382 -0.3051
vn -0.2674 -0.9382 -0.2195
vn -0.1631 -0.9382 0.3051
vn 0.2195 -0.9382 -0.2674
vn -0.3051 -0.9382 0.1631
vn -0.2674 -0.9382 0.2195
vn -0.3311 -0.9382 0.1004
vn 0.0339 -0.9382 -0.3443
vn -0.0000 1.0000 -0.0000
vt 0.584454 0.885896
vt 0.569920 0.885896
vt 0.569920 0.910031
vt 0.584454 0.910031
vt 0.759054 0.885896
vt 0.742473 0.885896
vt 0.742473 0.910031
vt 0.759054 0.910031
vt 0.832461 0.885896
vt 0.849043 0.885896
vt 0.849043 0.910031
vt 0.832461 0.910031
vt 0.656451 0.885896
vt 0.637739 0.885896
vt 0.637739 0.910031
vt 0.656451 0.910031
vt 0.814469 0.885896
vt 0.814469 0.910031
vt 0.674443 0.885896
vt 0.674443 0.910031
vt 0.795758 0.885896
vt 0.777047 0.885896
vt 0.777047 0.910031
vt 0.795758 0.910031
vt 0.619028 0.885896
vt 0.619028 0.910031
vt 0.120547 0.363191
vt 0.151238 0.363191
vt 0.151238 0.306871
vt 0.120547 0.306871
vt 0.091036 0.363191
vt 0.091036 0.306871
vt 0.063839 0.363191
vt 0.063839 0.306871
vt 0.040000 0.363191
vt 0.040000 0.306871
vt 0.510298 0.363191
vt 0.534137 0.363191
vt 0.534137 0.306871
vt 0.510298 0.306871
vt 0.483101 0.363191
vt 0.483101 0.306871
vt 0.453590 0.363191
vt 0.453590 0.306871
vt 0.422899 0.363191
vt 0.422899 0.306871
vt 0.392209 0.363191
vt 0.392209 0.306871
vt 0.362698 0.363191
vt 0.362698 0.306871
vt 0.335501 0.363191
vt 0.335501 0.306871
vt 0.311662 0.363191
vt 0.311662 0.306871
vt 0.453590 0.306871
vt 0.120547 0.363191
vt 0.151238 0.306871
vt 0.181928 0.363191
vt 0.181928 0.306871
vt 0.211439 0.363191
vt 0.211439 0.306871
vt 0.238637 0.363191
vt 0.238637 0.306871
vt 0.262476 0.363191
vt 0.262476 0.306871
vt 0.181928 0.306871
vt 0.727939 0.885896
vt 0.727939 0.910031
vt 0.601036 0.885896
vt 0.601036 0.910031
vt 0.691025 0.885896
vt 0.691025 0.910031
vt 0.705559 0.885896
vt 0.705559 0.910031
vt 0.863577 0.885896
vt 0.863577 0.910031
vt 0.603141 0.700061
vt 0.614834 0.685813
vt 0.604196 0.675175
vt 0.590632 0.691703
vt 0.715258 0.316320
vt 0.743080 0.313580
vt 0.738814 0.292135
vt 0.715258 0.294455
vt 0.769832 0.305465
vt 0.761465 0.285264
vt 0.794488 0.292286
vt 0.782340 0.274106
vt 0.816098 0.274551
vt 0.800637 0.259090
vt 0.833834 0.252940
vt 0.815654 0.240792
vt 0.847012 0.228285
vt 0.826811 0.219917
vt 0.855128 0.201532
vt 0.833683 0.197266
vt 0.857868 0.173710
vt 0.836003 0.173710
vt 0.855128 0.145888
vt 0.833683 0.150154
vt 0.847012 0.119136
vt 0.826812 0.127503
vt 0.833834 0.094480
vt 0.815654 0.106628
vt 0.816098 0.072870
vt 0.800637 0.088331
vt 0.794488 0.055134
vt 0.782340 0.073315
vt 0.769832 0.041956
vt 0.761465 0.062157
vt 0.743080 0.033840
vt 0.738814 0.055285
vt 0.715258 0.031100
vt 0.715258 0.052965
vt 0.687436 0.033840
vt 0.691702 0.055285
vt 0.660683 0.041956
vt 0.669051 0.062157
vt 0.636028 0.055134
vt 0.648176 0.073315
vt 0.614417 0.072870
vt 0.629878 0.088331
vt 0.596682 0.094480
vt 0.614862 0.106628
vt 0.583503 0.119136
vt 0.603704 0.127503
vt 0.575388 0.145888
vt 0.596833 0.150154
vt 0.572648 0.173710
vt 0.594513 0.173710
vt 0.575388 0.201532
vt 0.596833 0.197266
vt 0.583503 0.228285
vt 0.603704 0.219917
vt 0.596682 0.252940
vt 0.614862 0.240792
vt 0.614417 0.274551
vt 0.629878 0.259090
vt 0.636028 0.292286
vt 0.648176 0.274106
vt 0.660683 0.305465
vt 0.669051 0.285264
vt 0.687436 0.313580
vt 0.691702 0.292135
vt 0.151238 0.246818
vt 0.184694 0.246818
vt 0.185676 0.213285
vt 0.151238 0.213285
vt 0.185892 0.173845
vt 0.151238 0.173845
vt 0.185308 0.134503
vt 0.151238 0.134503
vt 0.184014 0.101247
vt 0.151238 0.101247
vt 0.216864 0.246818
vt 0.218791 0.213285
vt 0.219214 0.173845
vt 0.218069 0.134503
vt 0.215530 0.101247
vt 0.246512 0.246818
vt 0.249309 0.213285
vt 0.249924 0.173845
vt 0.248261 0.134503
vt 0.244576 0.101247
vt 0.272499 0.246818
vt 0.276059 0.213285
vt 0.276841 0.173845
vt 0.274725 0.134503
vt 0.270035 0.101247
vt 0.246512 0.246818
vt 0.218791 0.213285
vt 0.218069 0.134503
vt 0.215531 0.101247
vt 0.151238 0.246818
vt 0.117782 0.246818
vt 0.116800 0.213285
vt 0.116584 0.173845
vt 0.117168 0.134503
vt 0.118462 0.101247
vt 0.085612 0.246818
vt 0.083685 0.213285
vt 0.083262 0.173845
vt 0.084407 0.134503
vt 0.086945 0.101247
vt 0.055964 0.246818
vt 0.053167 0.213285
vt 0.052552 0.173845
vt 0.054214 0.134503
vt 0.057900 0.101247
vt 0.029977 0.246818
vt 0.026417 0.213285
vt 0.025635 0.173845
vt 0.027750 0.134503
vt 0.032441 0.101247
vt 0.544161 0.246818
vt 0.518174 0.246818
vt 0.520971 0.213285
vt 0.547721 0.213285
vt 0.521585 0.173846
vt 0.548502 0.173846
vt 0.519923 0.134503
vt 0.546387 0.134503
vt 0.516238 0.101247
vt 0.541697 0.101247
vt 0.488526 0.246818
vt 0.490452 0.213285
vt 0.490875 0.173846
vt 0.489730 0.134503
vt 0.487192 0.101247
vt 0.456355 0.246818
vt 0.457338 0.213285
vt 0.457553 0.173846
vt 0.456970 0.134503
vt 0.455676 0.101247
vt 0.422899 0.246818
vt 0.422899 0.213285
vt 0.422899 0.173846
vt 0.422899 0.134503
vt 0.422899 0.101247
vt 0.389444 0.246818
vt 0.388461 0.213285
vt 0.388246 0.173846
vt 0.388829 0.134503
vt 0.390123 0.101247
vt 0.357273 0.246818
vt 0.355347 0.213285
vt 0.354924 0.173846
vt 0.356069 0.134503
vt 0.358607 0.101247
vt 0.327625 0.246818
vt 0.324828 0.213285
vt 0.324214 0.173846
vt 0.325876 0.134503
vt 0.329561 0.101247
vt 0.301638 0.246818
vt 0.298078 0.213285
vt 0.297297 0.173846
vt 0.299412 0.134503
vt 0.304102 0.101247
vt 0.355347 0.213285
vt 0.354924 0.173846
vt 0.358607 0.101247
vt 0.457553 0.173846
vt 0.487192 0.101247
vt 0.083262 0.173845
vt 0.151238 0.026090
vt 0.179803 0.026090
vt 0.207271 0.026090
vt 0.232585 0.026090
vt 0.254774 0.026090
vt 0.122672 0.026090
vt 0.095205 0.026090
vt 0.069890 0.026090
vt 0.047702 0.026090
vt 0.526435 0.026090
vt 0.504247 0.026090
vt 0.478933 0.026090
vt 0.451465 0.026090
vt 0.422899 0.026090
vt 0.394334 0.026090
vt 0.366866 0.026090
vt 0.341552 0.026090
vt 0.319364 0.026090
vt 0.366866 0.026090
vt 0.122672 0.026090
vt 0.117897 0.587091
vt 0.151238 0.587091
vt 0.151238 0.546297
vt 0.116869 0.546297
vt 0.151238 0.498252
vt 0.116609 0.498252
vt 0.151238 0.450271
vt 0.117159 0.450271
vt 0.151238 0.409658
vt 0.118433 0.409658
vt 0.085837 0.587091
vt 0.083820 0.546297
vt 0.083312 0.498252
vt 0.084389 0.450271
vt 0.086889 0.409658
vt 0.056291 0.587091
vt 0.053363 0.546297
vt 0.052624 0.498252
vt 0.054189 0.450271
vt 0.057817 0.409658
vt 0.030394 0.587091
vt 0.026666 0.546297
vt 0.025727 0.498252
vt 0.027718 0.450271
vt 0.032336 0.409658
vt 0.517846 0.587091
vt 0.543744 0.587091
vt 0.547471 0.546297
vt 0.520775 0.546297
vt 0.548411 0.498252
vt 0.521513 0.498252
vt 0.546420 0.450271
vt 0.519949 0.450271
vt 0.541801 0.409658
vt 0.516320 0.409658
vt 0.488300 0.587091
vt 0.490317 0.546297
vt 0.490826 0.498252
vt 0.489748 0.450271
vt 0.487249 0.409658
vt 0.456240 0.587091
vt 0.457269 0.546297
vt 0.457528 0.498252
vt 0.456979 0.450271
vt 0.455704 0.409658
vt 0.422899 0.587091
vt 0.422899 0.546297
vt 0.422899 0.498252
vt 0.422899 0.450271
vt 0.422899 0.409658
vt 0.389559 0.587091
vt 0.388530 0.546297
vt 0.388271 0.498252
vt 0.388820 0.450271
vt 0.390095 0.409658
vt 0.357499 0.587091
vt 0.355482 0.546297
vt 0.354973 0.498252
vt 0.356051 0.450271
vt 0.358550 0.409658
vt 0.327953 0.587091
vt 0.325024 0.546297
vt 0.324286 0.498252
vt 0.325850 0.450271
vt 0.329479 0.409658
vt 0.302055 0.587091
vt 0.298328 0.546297
vt 0.297388 0.498252
vt 0.299379 0.450271
vt 0.303998 0.409658
vt 0.354973 0.498252
vt 0.389559 0.587091
vt 0.422899 0.587091
vt 0.422899 0.546297
vt 0.422899 0.498252
vt 0.422899 0.409658
vt 0.456240 0.587091
vt 0.457528 0.498252
vt 0.456979 0.450271
vt 0.488300 0.587091
vt 0.521513 0.498252
vt 0.052624 0.498252
vt 0.117897 0.587091
vt 0.184579 0.587091
vt 0.185607 0.546297
vt 0.185866 0.498252
vt 0.185317 0.450271
vt 0.184043 0.409658
vt 0.216638 0.587091
vt 0.218656 0.546297
vt 0.219164 0.498252
vt 0.218087 0.450271
vt 0.215587 0.409658
vt 0.246185 0.587091
vt 0.249113 0.546297
vt 0.249852 0.498252
vt 0.248287 0.450271
vt 0.244658 0.409658
vt 0.272082 0.587091
vt 0.275810 0.546297
vt 0.276749 0.498252
vt 0.274758 0.450271
vt 0.270140 0.409658
vt 0.249852 0.498252
vt 0.219164 0.498252
vt 0.218087 0.450271
vt 0.215587 0.409658
vt 0.185866 0.498252
vt 0.185317 0.450271
vt 0.120547 0.654734
vt 0.151238 0.654734
vt 0.181928 0.654734
vt 0.211439 0.654734
vt 0.238637 0.654734
vt 0.262476 0.654734
vt 0.091036 0.654734
vt 0.063839 0.654734
vt 0.040000 0.654734
vt 0.534137 0.654734
vt 0.510298 0.654734
vt 0.483101 0.654734
vt 0.453590 0.654734
vt 0.422899 0.654734
vt 0.392209 0.654734
vt 0.362698 0.654734
vt 0.335501 0.654734
vt 0.311662 0.654734
vt 0.453590 0.654734
vt 0.151238 0.685853
vt 0.120547 0.685853
vt 0.121446 0.708900
vt 0.151238 0.708900
vt 0.124005 0.728438
vt 0.151238 0.728438
vt 0.708466 0.618463
vt 0.681448 0.615802
vt 0.685248 0.596698
vt 0.708466 0.598985
vt 0.689730 0.574164
vt 0.708466 0.576009
vt 0.063839 0.685853
vt 0.040000 0.685853
vt 0.043257 0.708900
vt 0.066398 0.708900
vt 0.052533 0.728438
vt 0.073686 0.728438
vt 0.631525 0.595123
vt 0.610539 0.577900
vt 0.624312 0.564127
vt 0.642346 0.578928
vt 0.640558 0.547881
vt 0.655111 0.559824
vt 0.483101 0.685853
vt 0.453590 0.685853
vt 0.452691 0.708900
vt 0.481338 0.708900
vt 0.450132 0.728438
vt 0.476318 0.728438
vt 0.580518 0.532971
vt 0.572637 0.506991
vt 0.591741 0.503191
vt 0.598513 0.525517
vt 0.614275 0.498709
vt 0.619740 0.516725
vt 0.392209 0.685853
vt 0.362698 0.685853
vt 0.364461 0.708900
vt 0.393108 0.708900
vt 0.369481 0.728438
vt 0.395667 0.728438
vt 0.572637 0.452955
vt 0.580518 0.426976
vt 0.598513 0.434429
vt 0.591741 0.456755
vt 0.619740 0.443222
vt 0.614275 0.461238
vt 0.311662 0.685853
vt 0.335501 0.685853
vt 0.338060 0.708900
vt 0.314919 0.708900
vt 0.345348 0.728438
vt 0.324195 0.728438
vt 0.610539 0.382046
vt 0.631525 0.364823
vt 0.642346 0.381019
vt 0.624312 0.395819
vt 0.655111 0.400122
vt 0.640558 0.412066
vt 0.392209 0.685853
vt 0.422899 0.685853
vt 0.422899 0.708900
vt 0.422899 0.728438
vt 0.395667 0.728438
vt 0.681448 0.344144
vt 0.708466 0.341483
vt 0.708466 0.360961
vt 0.685248 0.363248
vt 0.708466 0.383937
vt 0.689730 0.385783
vt 0.510298 0.685853
vt 0.507739 0.708900
vt 0.481338 0.708900
vt 0.500451 0.728438
vt 0.761464 0.352025
vt 0.785407 0.364823
vt 0.774585 0.381019
vt 0.754010 0.370021
vt 0.761820 0.400122
vt 0.745217 0.391248
vt 0.091036 0.685853
vt 0.092799 0.708900
vt 0.097819 0.728438
vt 0.823616 0.403032
vt 0.836414 0.426976
vt 0.818418 0.434429
vt 0.807420 0.413854
vt 0.797191 0.443222
vt 0.788317 0.426619
vt 0.181928 0.685853
vt 0.181030 0.708900
vt 0.178470 0.728438
vt 0.846956 0.479973
vt 0.844295 0.506991
vt 0.825191 0.503191
vt 0.827478 0.479973
vt 0.802656 0.498709
vt 0.804502 0.479973
vt 0.238637 0.685853
vt 0.262476 0.685853
vt 0.259218 0.708900
vt 0.236078 0.708900
vt 0.249942 0.728438
vt 0.228790 0.728438
vt 0.823616 0.556914
vt 0.806393 0.577900
vt 0.792620 0.564127
vt 0.807420 0.546093
vt 0.776373 0.547881
vt 0.788317 0.533328
vt 0.211439 0.685853
vt 0.181928 0.685853
vt 0.209677 0.708900
vt 0.204656 0.728438
vt 0.761464 0.607921
vt 0.735484 0.615802
vt 0.731684 0.596698
vt 0.754010 0.589926
vt 0.727201 0.574164
vt 0.745217 0.568699
vt 0.238637 0.685853
vt 0.236078 0.708900
vt 0.785407 0.595123
vt 0.774585 0.578928
vt 0.761820 0.559824
vt 0.209677 0.708900
vt 0.836414 0.532971
vt 0.818418 0.525517
vt 0.797191 0.516725
vt 0.120547 0.685853
vt 0.844295 0.452955
vt 0.825191 0.456755
vt 0.802656 0.461238
vt 0.534137 0.685853
vt 0.530880 0.708900
vt 0.521604 0.728438
vt 0.806393 0.382046
vt 0.792620 0.395819
vt 0.776373 0.412066
vt 0.453590 0.685853
vt 0.735484 0.344144
vt 0.731684 0.363248
vt 0.727201 0.385783
vt 0.655468 0.352025
vt 0.662922 0.370021
vt 0.671714 0.391248
vt 0.593316 0.403032
vt 0.609511 0.413854
vt 0.628615 0.426619
vt 0.422899 0.708900
vt 0.569976 0.479973
vt 0.589454 0.479973
vt 0.612430 0.479973
vt 0.593316 0.556914
vt 0.609511 0.546093
vt 0.628615 0.533328
vt 0.655468 0.607921
vt 0.662922 0.589926
vt 0.671714 0.568699
vt 0.747810 0.818788
vt 0.733561 0.830482
vt 0.741920 0.842991
vt 0.758448 0.829426
vt 0.699666 0.844522
vt 0.681322 0.846329
vt 0.681322 0.861373
vt 0.702601 0.859277
vt 0.589101 0.770645
vt 0.587294 0.752301
vt 0.572250 0.752301
vt 0.574345 0.773580
vt 0.614834 0.818788
vt 0.603141 0.804540
vt 0.590632 0.812898
vt 0.604196 0.829426
vt 0.594452 0.716318
vt 0.580552 0.710560
vt 0.768193 0.716318
vt 0.773543 0.733957
vt 0.788299 0.731022
vt 0.782092 0.710560
vt 0.594452 0.788284
vt 0.580552 0.794041
vt 0.681322 0.658273
vt 0.699666 0.660079
vt 0.702601 0.645324
vt 0.681322 0.643228
vt 0.589101 0.733957
vt 0.574345 0.731022
vt 0.775350 0.752301
vt 0.773543 0.770645
vt 0.788299 0.773580
vt 0.790395 0.752301
vt 0.662978 0.844522
vt 0.660043 0.859277
vt 0.733561 0.674119
vt 0.747810 0.685813
vt 0.758448 0.675175
vt 0.741920 0.661610
vt 0.717305 0.839171
vt 0.723062 0.853070
vt 0.629083 0.674119
vt 0.645339 0.665430
vt 0.639582 0.651531
vt 0.620725 0.661610
vt 0.759504 0.700061
vt 0.772013 0.691703
vt 0.645339 0.839171
vt 0.639582 0.853070
vt 0.629083 0.830482
vt 0.620725 0.842991
vt 0.717305 0.665430
vt 0.723062 0.651531
vt 0.662978 0.660079
vt 0.660043 0.645324
vt 0.768193 0.788284
vt 0.759504 0.804540
vt 0.772013 0.812898
vt 0.782092 0.794041
vt 0.158610 0.963558
vt 0.137999 0.965588
vt 0.117388 0.963558
vt 0.097568 0.957546
vt 0.079303 0.947783
vt 0.063293 0.934644
vt 0.050154 0.918634
vt 0.040390 0.900368
vt 0.034378 0.880549
vt 0.032348 0.859937
vt 0.034378 0.839326
vt 0.040390 0.819507
vt 0.050154 0.801241
vt 0.063293 0.785231
vt 0.079303 0.772092
vt 0.097568 0.762329
vt 0.117388 0.756317
vt 0.137999 0.754287
vt 0.158610 0.756317
vt 0.178430 0.762329
vt 0.196695 0.772092
vt 0.212705 0.785231
vt 0.225844 0.801241
vt 0.235608 0.819507
vt 0.241620 0.839326
vt 0.243650 0.859937
vt 0.241620 0.880549
vt 0.235608 0.900368
vt 0.225844 0.918634
vt 0.212705 0.934644
vt 0.196695 0.947783
vt 0.178430 0.957546
vt 0.328782 0.748445
vt 0.350487 0.748445
vt 0.350487 0.830102
vt 0.328782 0.830102
vt 0.372192 0.852301
vt 0.393063 0.852301
vt 0.393063 0.933958
vt 0.372192 0.933958
vt 0.412298 0.852301
vt 0.429158 0.852301
vt 0.429158 0.933958
vt 0.412298 0.933958
vt 0.271817 0.748445
vt 0.288676 0.748445
vt 0.288676 0.830102
vt 0.271817 0.830102
vt 0.271817 0.852301
vt 0.288676 0.852301
vt 0.288676 0.933958
vt 0.271817 0.933958
vt 0.393063 0.748445
vt 0.412298 0.748445
vt 0.412298 0.830102
vt 0.393063 0.830102
vt 0.307911 0.748445
vt 0.307911 0.830102
vt 0.372193 0.748445
vt 0.372193 0.830102
vt 0.307911 0.852301
vt 0.307911 0.933958
vt 0.328782 0.852301
vt 0.328782 0.933958
vt 0.429158 0.748445
vt 0.429158 0.830102
vt 0.328782 0.748445
vt 0.328782 0.830102
vt 0.350487 0.852301
vt 0.350487 0.933958
s 0
g Bottles_Material.012
usemtl Material.012
f 563/1/1 568/2/1 55/3/1 36/4/1
f 518/5/2 523/6/2 61/7/2 33/8/2
f 638/9/3 643/10/3 45/11/3 41/12/3
f 543/13/4 548/14/4 35/15/4 60/16/4
f 589/14/5 593/13/5 38/16/5 54/15/5
f 633/17/6 638/9/6 41/12/6 48/18/6
f 593/13/7 598/19/7 51/20/7 38/16/7
f 663/21/8 514/22/8 64/23/8 63/24/8
f 538/19/9 543/13/9 60/16/9 59/20/9
f 548/14/10 553/25/10 57/26/10 35/15/10
f 583/25/11 589/14/11 54/15/11 53/26/11
f 613/6/12 618/5/12 50/8/12 49/7/12
f 128/27/8 65/28/8 66/29/8 127/30/8
f 126/31/13 128/27/13 127/30/13 125/32/13
f 124/33/2 126/31/2 125/32/2 123/34/2
f 122/35/14 124/33/14 123/34/14 121/36/14
f 120/37/15 122/38/15 121/39/15 119/40/15
f 118/41/16 120/37/16 119/40/16 117/42/16
f 116/43/9 118/41/9 117/42/9 115/44/9
f 114/45/4 116/43/4 115/44/4 113/46/4
f 112/47/10 114/45/10 113/46/10 111/48/10
f 110/49/17 112/47/17 111/48/17 109/50/17
f 108/51/18 110/49/18 109/50/18 107/52/18
f 106/53/1 108/51/1 107/52/1 105/54/1
f 104/51/19 106/53/19 105/54/19 103/52/19
f 102/49/20 104/51/20 103/52/20 101/50/20
f 100/47/21 102/49/21 101/50/21 99/48/21
f 98/45/11 100/47/11 99/48/11 97/46/11
f 96/43/5 98/45/5 97/46/5 95/55/5
f 94/41/7 96/43/7 95/55/7 93/42/7
f 92/37/22 94/41/22 93/42/22 91/40/22
f 90/38/23 92/37/23 91/40/23 89/39/23
f 88/33/24 90/35/24 89/36/24 87/34/24
f 86/31/12 88/33/12 87/34/12 85/32/12
f 84/56/25 86/31/25 85/32/25 83/30/25
f 82/28/26 84/56/26 83/30/26 81/57/26
f 80/58/27 82/28/27 81/57/27 79/59/27
f 78/60/6 80/58/6 79/59/6 77/61/6
f 76/62/3 78/60/3 77/61/3 75/63/3
f 74/64/28 76/62/28 75/63/28 73/65/28
f 72/62/29 74/64/29 73/65/29 71/63/29
f 70/60/30 72/62/30 71/63/30 69/61/30
f 68/58/31 70/60/31 69/61/31 67/66/31
f 65/28/32 68/58/32 67/66/32 66/29/32
f 523/6/14 529/67/14 62/68/14 61/7/14
f 553/25/17 558/69/17 58/70/17 57/26/17
f 568/2/19 573/1/19 56/4/19 55/3/19
f 598/19/22 603/71/22 52/72/22 51/20/22
f 669/17/32 663/21/32 63/24/32 44/18/32
f 623/22/26 628/21/26 47/24/26 40/23/26
f 628/21/27 633/17/27 48/18/27 47/24/27
f 529/73/15 533/71/15 34/72/15 62/74/15
f 643/10/28 649/75/28 46/76/28 45/11/28
f 573/1/20 578/69/20 37/70/20 56/4/20
f 618/5/25 623/22/25 40/23/25 50/8/25
f 658/9/31 669/17/31 44/18/31 43/12/31
f 578/69/21 583/25/21 53/26/21 37/70/21
f 533/71/16 538/19/16 59/20/16 34/72/16
f 653/10/30 658/9/30 43/12/30 42/11/30
f 514/22/13 518/5/13 33/8/13 64/23/13
f 558/69/18 563/1/18 36/4/18 58/70/18
f 608/67/24 613/6/24 49/7/24 39/68/24
f 603/71/23 608/73/23 39/74/23 52/72/23
f 36/77/33 55/78/33 674/79/33 695/80/33
f 130/81/34 132/82/34 131/83/34 129/84/34
f 132/82/35 134/85/35 133/86/35 131/83/35
f 134/85/36 136/87/36 135/88/36 133/86/36
f 136/87/37 138/89/37 137/90/37 135/88/37
f 138/89/38 140/91/38 139/92/38 137/90/38
f 140/91/39 142/93/39 141/94/39 139/92/39
f 142/93/40 144/95/40 143/96/40 141/94/40
f 144/95/41 146/97/41 145/98/41 143/96/41
f 146/97/42 148/99/42 147/100/42 145/98/42
f 148/99/43 150/101/43 149/102/43 147/100/43
f 150/101/44 152/103/44 151/104/44 149/102/44
f 152/103/45 154/105/45 153/106/45 151/104/45
f 154/105/46 156/107/46 155/108/46 153/106/46
f 156/107/47 158/109/47 157/110/47 155/108/47
f 158/109/48 160/111/48 159/112/48 157/110/48
f 160/111/49 162/113/49 161/114/49 159/112/49
f 162/113/50 164/115/50 163/116/50 161/114/50
f 164/115/51 166/117/51 165/118/51 163/116/51
f 166/117/52 168/119/52 167/120/52 165/118/52
f 168/119/53 170/121/53 169/122/53 167/120/53
f 170/121/54 172/123/54 171/124/54 169/122/54
f 172/123/55 174/125/55 173/126/55 171/124/55
f 174/125/56 176/127/56 175/128/56 173/126/56
f 176/127/57 178/129/57 177/130/57 175/128/57
f 178/129/58 180/131/58 179/132/58 177/130/58
f 180/131/59 182/133/59 181/134/59 179/132/59
f 182/133/60 184/135/60 183/136/60 181/134/60
f 184/135/61 186/137/61 185/138/61 183/136/61
f 186/137/62 188/139/62 187/140/62 185/138/62
f 188/139/63 190/141/63 189/142/63 187/140/63
f 190/141/64 192/143/64 191/144/64 189/142/64
f 192/143/65 130/81/65 129/84/65 191/144/65
f 129/84/66 131/83/66 133/86/66 135/88/66 137/90/66 139/92/66 141/94/66 143/96/66 145/98/66 147/100/66 149/102/66 151/104/66 153/106/66 155/108/66 157/110/66 159/112/66 161/114/66 163/116/66 165/118/66 167/120/66 169/122/66 171/124/66 173/126/66 175/128/66 177/130/66 179/132/66 181/134/66 183/136/66 185/138/66 187/140/66 189/142/66 191/144/66
f 349/145/67 193/146/67 195/147/67 352/148/67
f 352/148/68 195/147/68 196/149/68 351/150/68
f 351/150/69 196/149/69 197/151/69 350/152/69
f 350/152/70 197/151/70 194/153/70 348/154/70
f 193/146/71 198/155/71 200/156/71 195/147/71
f 195/147/72 200/156/72 201/157/72 196/149/72
f 196/149/73 201/157/73 202/158/73 197/151/73
f 197/151/74 202/158/74 199/159/74 194/153/74
f 198/155/75 203/160/75 205/161/75 200/156/75
f 200/156/76 205/161/76 206/162/76 201/157/76
f 201/157/77 206/162/77 207/163/77 202/158/77
f 202/158/78 207/163/78 204/164/78 199/159/78
f 203/160/79 208/165/79 210/166/79 205/161/79
f 205/161/80 210/166/80 211/167/80 206/162/80
f 206/162/81 211/167/81 212/168/81 207/163/81
f 207/163/82 212/168/82 209/169/82 204/164/82
f 208/165/83 213/170/83 215/161/83 210/166/83
f 210/166/84 215/161/84 216/162/84 211/167/84
f 211/167/85 216/162/85 217/163/85 212/168/85
f 212/168/86 217/163/86 214/164/86 209/169/86
f 213/170/87 218/155/87 220/171/87 215/161/87
f 215/161/88 220/171/88 221/157/88 216/162/88
f 216/162/89 221/157/89 222/172/89 217/163/89
f 217/163/90 222/172/90 219/173/90 214/164/90
f 218/155/91 223/146/91 225/147/91 220/171/91
f 220/171/92 225/147/92 226/149/92 221/157/92
f 221/157/93 226/149/93 227/151/93 222/172/93
f 222/172/94 227/151/94 224/153/94 219/173/94
f 223/146/95 228/174/95 230/148/95 225/147/95
f 225/147/96 230/148/96 231/150/96 226/149/96
f 226/149/97 231/150/97 232/152/97 227/151/97
f 227/151/98 232/152/98 229/154/98 224/153/98
f 228/174/99 233/175/99 235/176/99 230/148/99
f 230/148/100 235/176/100 236/177/100 231/150/100
f 231/150/101 236/177/101 237/178/101 232/152/101
f 232/152/102 237/178/102 234/179/102 229/154/102
f 233/175/103 238/180/103 240/181/103 235/176/103
f 235/176/104 240/181/104 241/182/104 236/177/104
f 236/177/105 241/182/105 242/183/105 237/178/105
f 237/178/106 242/183/106 239/184/106 234/179/106
f 238/180/107 243/185/107 245/186/107 240/181/107
f 240/181/108 245/186/108 246/187/108 241/182/108
f 241/182/109 246/187/109 247/188/109 242/183/109
f 242/183/110 247/188/110 244/189/110 239/184/110
f 243/185/111 248/190/111 250/191/111 245/186/111
f 245/186/112 250/191/112 251/192/112 246/187/112
f 246/187/113 251/192/113 252/193/113 247/188/113
f 247/188/114 252/193/114 249/194/114 244/189/114
f 248/195/115 253/196/115 255/197/115 250/198/115
f 250/198/116 255/197/116 256/199/116 251/200/116
f 251/200/117 256/199/117 257/201/117 252/202/117
f 252/202/118 257/201/118 254/203/118 249/204/118
f 253/196/119 258/205/119 260/206/119 255/197/119
f 255/197/120 260/206/120 261/207/120 256/199/120
f 256/199/121 261/207/121 262/208/121 257/201/121
f 257/201/122 262/208/122 259/209/122 254/203/122
f 258/205/123 263/210/123 265/211/123 260/206/123
f 260/206/124 265/211/124 266/212/124 261/207/124
f 261/207/125 266/212/125 267/213/125 262/208/125
f 262/208/126 267/213/126 264/214/126 259/209/126
f 263/210/127 268/215/127 270/216/127 265/211/127
f 265/211/128 270/216/128 271/217/128 266/212/128
f 266/212/129 271/217/129 272/218/129 267/213/129
f 267/213/130 272/218/130 269/219/130 264/214/130
f 268/215/131 273/220/131 275/221/131 270/216/131
f 270/216/132 275/221/132 276/222/132 271/217/132
f 271/217/133 276/222/133 277/223/133 272/218/133
f 272/218/134 277/223/134 274/224/134 269/219/134
f 273/220/135 278/225/135 280/226/135 275/221/135
f 275/221/136 280/226/136 281/227/136 276/222/136
f 276/222/137 281/227/137 282/228/137 277/223/137
f 277/223/138 282/228/138 279/229/138 274/224/138
f 278/225/139 283/230/139 285/231/139 280/226/139
f 280/226/140 285/231/140 286/232/140 281/227/140
f 281/227/141 286/232/141 287/233/141 282/228/141
f 282/228/142 287/233/142 284/234/142 279/229/142
f 283/230/143 288/235/143 290/236/143 285/231/143
f 285/231/144 290/236/144 291/237/144 286/232/144
f 286/232/145 291/237/145 292/238/145 287/233/145
f 287/233/146 292/238/146 289/239/146 284/234/146
f 288/235/147 293/230/147 295/231/147 290/236/147
f 290/236/148 295/231/148 296/232/148 291/237/148
f 291/237/149 296/232/149 297/233/149 292/238/149
f 292/238/150 297/233/150 294/234/150 289/239/150
f 293/230/151 298/225/151 300/240/151 295/231/151
f 295/231/152 300/240/152 301/241/152 296/232/152
f 296/232/153 301/241/153 302/228/153 297/233/153
f 297/233/154 302/228/154 299/242/154 294/234/154
f 298/225/155 303/220/155 305/221/155 300/240/155
f 300/240/156 305/221/156 306/222/156 301/241/156
f 301/241/157 306/222/157 307/223/157 302/228/157
f 302/228/158 307/223/158 304/224/158 299/242/158
f 303/220/159 308/215/159 310/216/159 305/221/159
f 305/221/160 310/216/160 311/217/160 306/222/160
f 306/222/161 311/217/161 312/218/161 307/223/161
f 307/223/162 312/218/162 309/219/162 304/224/162
f 308/215/163 313/210/163 315/211/163 310/216/163
f 310/216/164 315/211/164 316/243/164 311/217/164
f 311/217/165 316/243/165 317/213/165 312/218/165
f 312/218/166 317/213/166 314/214/166 309/219/166
f 313/210/167 318/205/167 320/206/167 315/211/167
f 315/211/168 320/206/168 321/207/168 316/243/168
f 316/243/169 321/207/169 322/208/169 317/213/169
f 317/213/170 322/208/170 319/244/170 314/214/170
f 318/205/171 323/196/171 325/197/171 320/206/171
f 320/206/172 325/197/172 326/199/172 321/207/172
f 321/207/173 326/199/173 327/201/173 322/208/173
f 322/208/174 327/201/174 324/203/174 319/244/174
f 323/196/175 328/195/175 330/198/175 325/197/175
f 325/197/176 330/198/176 331/200/176 326/199/176
f 326/199/177 331/200/177 332/202/177 327/201/177
f 327/201/178 332/202/178 329/204/178 324/203/178
f 328/190/179 333/185/179 335/186/179 330/191/179
f 330/191/180 335/186/180 336/187/180 331/192/180
f 331/192/181 336/187/181 337/188/181 332/193/181
f 332/193/182 337/188/182 334/189/182 329/194/182
f 333/185/183 338/180/183 340/181/183 335/186/183
f 335/186/184 340/181/184 341/245/184 336/187/184
f 336/187/185 341/245/185 342/183/185 337/188/185
f 337/188/186 342/183/186 339/184/186 334/189/186
f 338/180/187 343/175/187 345/176/187 340/181/187
f 340/181/188 345/176/188 346/177/188 341/245/188
f 341/245/189 346/177/189 347/178/189 342/183/189
f 342/183/190 347/178/190 344/179/190 339/184/190
f 343/175/191 349/145/191 352/148/191 345/176/191
f 345/176/192 352/148/192 351/150/192 346/177/192
f 346/177/193 351/150/193 350/152/193 347/178/193
f 347/178/194 350/152/194 348/154/194 344/179/194
f 130/246/195 348/154/195 194/153/195 132/247/195
f 349/145/196 66/29/196 67/66/196 193/146/196
f 132/247/197 194/153/197 199/159/197 134/248/197
f 193/146/198 67/66/198 69/61/198 198/155/198
f 134/248/199 199/159/199 204/164/199 136/249/199
f 198/155/200 69/61/200 71/63/200 203/160/200
f 136/249/201 204/164/201 209/169/201 138/250/201
f 203/160/202 71/63/202 73/65/202 208/165/202
f 138/250/203 209/169/203 214/164/203 140/249/203
f 208/165/204 73/65/204 75/63/204 213/170/204
f 140/249/205 214/164/205 219/173/205 142/248/205
f 213/170/206 75/63/206 77/61/206 218/155/206
f 142/248/207 219/173/207 224/153/207 144/247/207
f 218/155/208 77/61/208 79/59/208 223/146/208
f 144/247/209 224/153/209 229/154/209 146/246/209
f 223/146/210 79/59/210 81/57/210 228/174/210
f 146/246/211 229/154/211 234/179/211 148/251/211
f 228/174/212 81/57/212 83/30/212 233/175/212
f 148/251/213 234/179/213 239/184/213 150/252/213
f 233/175/214 83/30/214 85/32/214 238/180/214
f 150/252/215 239/184/215 244/189/215 152/253/215
f 238/180/216 85/32/216 87/34/216 243/185/216
f 152/253/217 244/189/217 249/194/217 154/254/217
f 243/185/218 87/34/218 89/36/218 248/190/218
f 154/255/219 249/204/219 254/203/219 156/256/219
f 248/195/220 89/39/220 91/40/220 253/196/220
f 156/256/221 254/203/221 259/209/221 158/257/221
f 253/196/222 91/40/222 93/42/222 258/205/222
f 158/257/223 259/209/223 264/214/223 160/258/223
f 258/205/224 93/42/224 95/55/224 263/210/224
f 160/258/225 264/214/225 269/219/225 162/259/225
f 263/210/226 95/55/226 97/46/226 268/215/226
f 162/259/227 269/219/227 274/224/227 164/260/227
f 268/215/228 97/46/228 99/48/228 273/220/228
f 164/260/229 274/224/229 279/229/229 166/261/229
f 273/220/230 99/48/230 101/50/230 278/225/230
f 166/261/231 279/229/231 284/234/231 168/262/231
f 278/225/232 101/50/232 103/52/232 283/230/232
f 168/262/233 284/234/233 289/239/233 170/263/233
f 283/230/234 103/52/234 105/54/234 288/235/234
f 170/263/235 289/239/235 294/234/235 172/262/235
f 288/235/236 105/54/236 107/52/236 293/230/236
f 172/262/237 294/234/237 299/242/237 174/264/237
f 293/230/238 107/52/238 109/50/238 298/225/238
f 174/264/239 299/242/239 304/224/239 176/260/239
f 298/225/240 109/50/240 111/48/240 303/220/240
f 176/260/241 304/224/241 309/219/241 178/259/241
f 303/220/242 111/48/242 113/46/242 308/215/242
f 178/259/243 309/219/243 314/214/243 180/258/243
f 308/215/244 113/46/244 115/44/244 313/210/244
f 180/258/245 314/214/245 319/244/245 182/257/245
f 313/210/246 115/44/246 117/42/246 318/205/246
f 182/257/247 319/244/247 324/203/247 184/256/247
f 318/205/248 117/42/248 119/40/248 323/196/248
f 184/256/249 324/203/249 329/204/249 186/255/249
f 323/196/250 119/40/250 121/39/250 328/195/250
f 186/254/251 329/194/251 334/189/251 188/253/251
f 328/190/252 121/36/252 123/34/252 333/185/252
f 188/253/253 334/189/253 339/184/253 190/252/253
f 333/185/254 123/34/254 125/32/254 338/180/254
f 190/252/255 339/184/255 344/179/255 192/265/255
f 338/180/256 125/32/256 127/30/256 343/175/256
f 192/265/257 344/179/257 348/154/257 130/246/257
f 343/175/258 127/30/258 66/29/258 349/145/258
f 509/266/259 353/267/259 355/268/259 512/269/259
f 512/269/260 355/268/260 356/270/260 511/271/260
f 511/271/261 356/270/261 357/272/261 510/273/261
f 510/273/262 357/272/262 354/274/262 508/275/262
f 504/276/263 509/266/263 512/269/263 507/277/263
f 507/277/264 512/269/264 511/271/264 506/278/264
f 506/278/265 511/271/265 510/273/265 505/279/265
f 505/279/266 510/273/266 508/275/266 503/280/266
f 499/281/267 504/276/267 507/277/267 502/282/267
f 502/282/268 507/277/268 506/278/268 501/283/268
f 501/283/269 506/278/269 505/279/269 500/284/269
f 500/284/270 505/279/270 503/280/270 498/285/270
f 494/286/271 499/281/271 502/282/271 497/287/271
f 497/287/272 502/282/272 501/283/272 496/288/272
f 496/288/273 501/283/273 500/284/273 495/289/273
f 495/289/274 500/284/274 498/285/274 493/290/274
f 489/291/275 494/292/275 497/293/275 492/294/275
f 492/294/276 497/293/276 496/295/276 491/296/276
f 491/296/277 496/295/277 495/297/277 490/298/277
f 490/298/278 495/297/278 493/299/278 488/300/278
f 484/301/279 489/291/279 492/294/279 487/302/279
f 487/302/280 492/294/280 491/296/280 486/303/280
f 486/303/281 491/296/281 490/298/281 485/304/281
f 485/304/282 490/298/282 488/300/282 483/305/282
f 479/306/283 484/301/283 487/302/283 482/307/283
f 482/307/284 487/302/284 486/303/284 481/308/284
f 481/308/285 486/303/285 485/304/285 480/309/285
f 480/309/286 485/304/286 483/305/286 478/310/286
f 474/311/287 479/306/287 482/307/287 477/312/287
f 477/312/288 482/307/288 481/308/288 476/313/288
f 476/313/289 481/308/289 480/309/289 475/314/289
f 475/314/290 480/309/290 478/310/290 473/315/290
f 469/316/291 474/311/291 477/312/291 472/317/291
f 472/317/292 477/312/292 476/313/292 471/318/292
f 471/318/293 476/313/293 475/314/293 470/319/293
f 470/319/294 475/314/294 473/315/294 468/320/294
f 464/321/295 469/316/295 472/317/295 467/322/295
f 467/322/296 472/317/296 471/318/296 466/323/296
f 466/323/297 471/318/297 470/319/297 465/324/297
f 465/324/298 470/319/298 468/320/298 463/325/298
f 459/326/299 464/321/299 467/322/299 462/327/299
f 462/327/300 467/322/300 466/323/300 461/328/300
f 461/328/301 466/323/301 465/324/301 460/329/301
f 460/329/302 465/324/302 463/325/302 458/330/302
f 454/331/303 459/326/303 462/327/303 457/332/303
f 457/332/304 462/327/304 461/328/304 456/333/304
f 456/333/305 461/328/305 460/329/305 455/334/305
f 455/334/306 460/329/306 458/330/306 453/335/306
f 449/326/307 454/331/307 457/332/307 452/327/307
f 452/327/308 457/332/308 456/333/308 451/328/308
f 451/328/309 456/333/309 455/334/309 450/329/309
f 450/329/310 455/334/310 453/335/310 448/330/310
f 444/321/311 449/326/311 452/327/311 447/322/311
f 447/322/312 452/327/312 451/328/312 446/336/312
f 446/336/313 451/328/313 450/329/313 445/324/313
f 445/324/314 450/329/314 448/330/314 443/325/314
f 439/337/315 444/321/315 447/322/315 442/317/315
f 442/317/316 447/322/316 446/336/316 441/318/316
f 441/318/317 446/336/317 445/324/317 440/319/317
f 440/319/318 445/324/318 443/325/318 438/320/318
f 434/338/319 439/337/319 442/317/319 437/339/319
f 437/339/320 442/317/320 441/318/320 436/340/320
f 436/340/321 441/318/321 440/319/321 435/314/321
f 435/314/322 440/319/322 438/320/322 433/341/322
f 429/342/323 434/338/323 437/339/323 432/307/323
f 432/307/324 437/339/324 436/340/324 431/343/324
f 431/343/325 436/340/325 435/314/325 430/344/325
f 430/344/326 435/314/326 433/341/326 428/310/326
f 424/345/327 429/342/327 432/307/327 427/302/327
f 427/302/328 432/307/328 431/343/328 426/303/328
f 426/303/329 431/343/329 430/344/329 425/304/329
f 425/304/330 430/344/330 428/310/330 423/305/330
f 419/291/331 424/345/331 427/302/331 422/294/331
f 422/294/332 427/302/332 426/303/332 421/346/332
f 421/346/333 426/303/333 425/304/333 420/298/333
f 420/298/334 425/304/334 423/305/334 418/300/334
f 414/292/335 419/291/335 422/294/335 417/293/335
f 417/293/336 422/294/336 421/346/336 416/295/336
f 416/295/337 421/346/337 420/298/337 415/297/337
f 415/297/338 420/298/338 418/300/338 413/299/338
f 409/281/339 414/286/339 417/287/339 412/282/339
f 412/282/340 417/287/340 416/288/340 411/347/340
f 411/347/341 416/288/341 415/289/341 410/284/341
f 410/284/342 415/289/342 413/290/342 408/285/342
f 404/276/343 409/281/343 412/282/343 407/277/343
f 407/277/344 412/282/344 411/347/344 406/278/344
f 406/278/345 411/347/345 410/284/345 405/279/345
f 405/279/346 410/284/346 408/285/346 403/280/346
f 399/348/347 404/276/347 407/277/347 402/269/347
f 402/269/348 407/277/348 406/278/348 401/271/348
f 401/271/349 406/278/349 405/279/349 400/273/349
f 400/273/350 405/279/350 403/280/350 398/275/350
f 394/267/351 399/348/351 402/269/351 397/268/351
f 397/268/352 402/269/352 401/271/352 396/270/352
f 396/270/353 401/271/353 400/273/353 395/272/353
f 395/272/354 400/273/354 398/275/354 393/274/354
f 389/349/355 394/267/355 397/268/355 392/350/355
f 392/350/356 397/268/356 396/270/356 391/351/356
f 391/351/357 396/270/357 395/272/357 390/352/357
f 390/352/358 395/272/358 393/274/358 388/353/358
f 384/354/359 389/349/359 392/350/359 387/355/359
f 387/355/360 392/350/360 391/351/360 386/356/360
f 386/356/361 391/351/361 390/352/361 385/357/361
f 385/357/362 390/352/362 388/353/362 383/358/362
f 379/359/363 384/354/363 387/355/363 382/360/363
f 382/360/364 387/355/364 386/356/364 381/361/364
f 381/361/365 386/356/365 385/357/365 380/362/365
f 380/362/366 385/357/366 383/358/366 378/363/366
f 374/364/367 379/359/367 382/360/367 377/365/367
f 377/365/368 382/360/368 381/361/368 376/366/368
f 376/366/369 381/361/369 380/362/369 375/367/369
f 375/367/370 380/362/370 378/363/370 373/368/370
f 369/359/371 374/364/371 377/365/371 372/360/371
f 372/360/372 377/365/372 376/366/372 371/369/372
f 371/369/373 376/366/373 375/367/373 370/362/373
f 370/362/374 375/367/374 373/368/374 368/363/374
f 364/354/375 369/359/375 372/360/375 367/355/375
f 367/355/376 372/360/376 371/369/376 366/370/376
f 366/370/377 371/369/377 370/362/377 365/371/377
f 365/371/378 370/362/378 368/363/378 363/372/378
f 359/349/379 364/354/379 367/355/379 362/350/379
f 362/350/380 367/355/380 366/370/380 361/373/380
f 361/373/381 366/370/381 365/371/381 360/374/381
f 360/374/382 365/371/382 363/372/382 358/353/382
f 353/267/383 359/349/383 362/350/383 355/268/383
f 355/268/384 362/350/384 361/373/384 356/270/384
f 356/270/385 361/373/385 360/374/385 357/272/385
f 357/272/386 360/374/386 358/353/386 354/274/386
f 509/266/387 32/375/387 1/376/387 353/267/387
f 65/28/388 354/274/388 358/353/388 68/58/388
f 128/27/389 508/275/389 354/274/389 65/28/389
f 353/267/390 1/376/390 2/377/390 359/349/390
f 359/349/391 2/377/391 3/378/391 364/354/391
f 68/58/392 358/353/392 363/372/392 70/60/392
f 364/354/393 3/378/393 4/379/393 369/359/393
f 70/60/394 363/372/394 368/363/394 72/62/394
f 369/359/395 4/379/395 5/380/395 374/364/395
f 72/62/396 368/363/396 373/368/396 74/64/396
f 374/364/397 5/380/397 6/379/397 379/359/397
f 74/64/398 373/368/398 378/363/398 76/62/398
f 379/359/399 6/379/399 7/378/399 384/354/399
f 76/62/400 378/363/400 383/358/400 78/60/400
f 384/354/401 7/378/401 8/377/401 389/349/401
f 78/60/402 383/358/402 388/353/402 80/58/402
f 389/349/403 8/377/403 9/376/403 394/267/403
f 80/58/404 388/353/404 393/274/404 82/28/404
f 394/267/405 9/376/405 10/375/405 399/348/405
f 82/28/406 393/274/406 398/275/406 84/56/406
f 399/348/407 10/375/407 11/381/407 404/276/407
f 84/56/408 398/275/408 403/280/408 86/31/408
f 404/276/409 11/381/409 12/382/409 409/281/409
f 86/31/410 403/280/410 408/285/410 88/33/410
f 409/281/411 12/382/411 13/383/411 414/286/411
f 88/33/412 408/285/412 413/290/412 90/35/412
f 414/292/413 13/384/413 14/385/413 419/291/413
f 90/38/414 413/299/414 418/300/414 92/37/414
f 419/291/415 14/385/415 15/386/415 424/345/415
f 92/37/416 418/300/416 423/305/416 94/41/416
f 424/345/417 15/386/417 16/387/417 429/342/417
f 94/41/418 423/305/418 428/310/418 96/43/418
f 429/342/419 16/387/419 17/388/419 434/338/419
f 96/43/420 428/310/420 433/341/420 98/45/420
f 434/338/421 17/388/421 18/389/421 439/337/421
f 98/45/422 433/341/422 438/320/422 100/47/422
f 439/337/423 18/389/423 19/390/423 444/321/423
f 100/47/424 438/320/424 443/325/424 102/49/424
f 444/321/425 19/390/425 20/391/425 449/326/425
f 102/49/426 443/325/426 448/330/426 104/51/426
f 449/326/427 20/391/427 21/392/427 454/331/427
f 104/51/428 448/330/428 453/335/428 106/53/428
f 454/331/429 21/392/429 22/391/429 459/326/429
f 106/53/430 453/335/430 458/330/430 108/51/430
f 459/326/431 22/391/431 23/390/431 464/321/431
f 108/51/432 458/330/432 463/325/432 110/49/432
f 464/321/433 23/390/433 24/389/433 469/316/433
f 110/49/434 463/325/434 468/320/434 112/47/434
f 469/316/435 24/389/435 25/388/435 474/311/435
f 112/47/436 468/320/436 473/315/436 114/45/436
f 474/311/437 25/388/437 26/393/437 479/306/437
f 114/45/438 473/315/438 478/310/438 116/43/438
f 479/306/439 26/393/439 27/386/439 484/301/439
f 116/43/440 478/310/440 483/305/440 118/41/440
f 484/301/441 27/386/441 28/385/441 489/291/441
f 118/41/442 483/305/442 488/300/442 120/37/442
f 489/291/443 28/385/443 29/384/443 494/292/443
f 120/37/444 488/300/444 493/299/444 122/38/444
f 494/286/445 29/383/445 30/382/445 499/281/445
f 122/35/446 493/290/446 498/285/446 124/33/446
f 499/281/447 30/382/447 31/381/447 504/276/447
f 124/33/448 498/285/448 503/280/448 126/31/448
f 504/276/449 31/381/449 32/375/449 509/266/449
f 126/31/450 503/280/450 508/275/450 128/27/450
f 664/394/451 513/395/451 515/396/451 667/397/451
f 667/397/452 515/396/452 516/398/452 666/399/452
f 666/400/453 516/401/453 517/402/453 665/403/453
f 665/403/454 517/402/454 514/404/454 663/405/454
f 524/406/455 528/407/455 530/408/455 527/409/455
f 527/409/456 530/408/456 531/410/456 526/411/456
f 526/412/457 531/413/457 532/414/457 525/415/457
f 525/415/458 532/414/458 529/416/458 523/417/458
f 539/418/459 544/419/459 547/420/459 542/421/459
f 542/421/460 547/420/460 546/422/460 541/423/460
f 541/424/461 546/425/461 545/426/461 540/427/461
f 540/427/462 545/426/462 543/428/462 538/429/462
f 554/430/463 559/431/463 562/432/463 557/433/463
f 557/433/464 562/432/464 561/434/464 556/435/464
f 556/436/465 561/437/465 560/438/465 555/439/465
f 555/439/466 560/438/466 558/440/466 553/441/466
f 569/442/467 574/443/467 577/444/467 572/445/467
f 572/445/468 577/444/468 576/446/468 571/447/468
f 571/448/469 576/449/469 575/450/469 570/451/469
f 570/451/470 575/450/470 573/452/470 568/453/470
f 584/454/471 588/455/471 590/456/471 587/433/471
f 587/433/472 590/456/472 591/457/472 586/458/472
f 586/459/473 591/460/473 592/461/473 585/462/473
f 585/462/474 592/461/474 589/463/474 583/464/474
f 599/418/475 604/465/475 607/466/475 602/467/475
f 602/467/476 607/466/476 606/468/476 601/423/476
f 601/469/477 606/470/477 605/471/477 600/472/477
f 600/472/478 605/471/478 603/473/478 598/474/478
f 614/406/479 619/475/479 622/476/479 617/409/479
f 617/409/480 622/476/480 621/477/480 616/411/480
f 616/478/481 621/479/481 620/480/481 615/481/481
f 615/481/482 620/480/482 618/482/482 613/483/482
f 629/394/483 634/484/483 637/485/483 632/397/483
f 632/397/484 637/485/484 636/486/484 631/399/484
f 631/487/485 636/488/485 635/489/485 630/490/485
f 630/490/486 635/489/486 633/491/486 628/492/486
f 644/493/487 648/494/487 650/495/487 647/496/487
f 647/496/488 650/495/488 651/497/488 646/498/488
f 646/499/489 651/500/489 652/501/489 645/502/489
f 645/502/490 652/501/490 649/503/490 643/504/490
f 659/505/491 668/506/491 670/485/491 662/507/491
f 662/507/492 670/485/492 671/486/492 661/508/492
f 661/509/493 671/510/493 672/511/493 660/512/493
f 660/512/494 672/511/494 669/513/494 658/514/494
f 648/494/495 654/515/495 657/516/495 650/495/495
f 650/495/496 657/516/496 656/498/496 651/497/496
f 651/500/497 656/517/497 655/518/497 652/501/497
f 652/501/498 655/518/498 653/519/498 649/503/498
f 634/484/499 639/505/499 642/520/499 637/485/499
f 637/485/500 642/520/500 641/508/500 636/486/500
f 636/488/501 641/521/501 640/522/501 635/489/501
f 635/489/502 640/522/502 638/523/502 633/491/502
f 619/475/503 624/524/503 627/396/503 622/476/503
f 622/476/504 627/396/504 626/398/504 621/477/504
f 621/479/505 626/525/505 625/526/505 620/480/505
f 620/480/506 625/526/506 623/527/506 618/482/506
f 604/465/507 609/528/507 612/529/507 607/466/507
f 607/466/508 612/529/508 611/530/508 606/468/508
f 606/470/509 611/531/509 610/532/509 605/471/509
f 605/471/510 610/532/510 608/533/510 603/473/510
f 588/455/511 594/534/511 597/420/511 590/456/511
f 590/456/512 597/420/512 596/422/512 591/457/512
f 591/460/513 596/535/513 595/536/513 592/461/513
f 592/461/514 595/536/514 593/537/514 589/463/514
f 574/443/515 579/431/515 582/432/515 577/444/515
f 577/444/516 582/432/516 581/434/516 576/446/516
f 576/449/517 581/538/517 580/539/517 575/450/517
f 575/450/518 580/539/518 578/540/518 573/452/518
f 559/431/519 564/443/519 567/444/519 562/432/519
f 562/432/520 567/444/520 566/446/520 561/434/520
f 561/437/521 566/541/521 565/542/521 560/438/521
f 560/438/522 565/542/522 563/543/522 558/440/522
f 544/419/523 549/455/523 552/544/523 547/420/523
f 547/420/524 552/544/524 551/457/524 546/422/524
f 546/425/525 551/545/525 550/546/525 545/426/525
f 545/426/526 550/546/526 548/547/526 543/428/526
f 528/528/527 534/465/527 537/466/527 530/529/527
f 530/529/528 537/466/528 536/468/528 531/530/528
f 531/413/529 536/548/529 535/549/529 532/414/529
f 532/414/530 535/549/530 533/550/530 529/416/530
f 513/395/531 519/475/531 522/476/531 515/396/531
f 515/396/532 522/476/532 521/477/532 516/398/532
f 516/401/533 521/551/533 520/552/533 517/402/533
f 517/402/534 520/552/534 518/553/534 514/404/534
f 668/506/535 664/394/535 667/397/535 670/485/535
f 670/485/536 667/397/536 666/399/536 671/486/536
f 671/510/537 666/400/537 665/403/537 672/511/537
f 672/511/538 665/403/538 663/405/538 669/513/538
f 519/475/539 524/406/539 527/409/539 522/476/539
f 522/476/540 527/409/540 526/411/540 521/477/540
f 521/551/541 526/412/541 525/415/541 520/552/541
f 520/552/542 525/415/542 523/417/542 518/553/542
f 534/465/543 539/418/543 542/421/543 537/466/543
f 537/466/544 542/421/544 541/423/544 536/468/544
f 536/548/545 541/424/545 540/427/545 535/549/545
f 535/549/546 540/427/546 538/429/546 533/550/546
f 549/455/547 554/430/547 557/433/547 552/544/547
f 552/544/548 557/433/548 556/435/548 551/457/548
f 551/545/549 556/436/549 555/439/549 550/546/549
f 550/546/550 555/439/550 553/441/550 548/547/550
f 564/443/551 569/442/551 572/445/551 567/444/551
f 567/444/552 572/445/552 571/447/552 566/446/552
f 566/541/553 571/448/553 570/451/553 565/542/553
f 565/542/554 570/451/554 568/453/554 563/543/554
f 579/431/555 584/454/555 587/433/555 582/432/555
f 582/432/556 587/433/556 586/458/556 581/434/556
f 581/538/557 586/459/557 585/462/557 580/539/557
f 580/539/558 585/462/558 583/464/558 578/540/558
f 594/534/559 599/418/559 602/467/559 597/420/559
f 597/420/560 602/467/560 601/423/560 596/422/560
f 596/535/561 601/469/561 600/472/561 595/536/561
f 595/536/562 600/472/562 598/474/562 593/537/562
f 609/407/563 614/406/563 617/409/563 612/408/563
f 612/408/564 617/409/564 616/411/564 611/410/564
f 611/531/565 616/478/565 615/481/565 610/532/565
f 610/532/566 615/481/566 613/483/566 608/533/566
f 624/524/567 629/394/567 632/397/567 627/396/567
f 627/396/568 632/397/568 631/399/568 626/398/568
f 626/525/569 631/487/569 630/490/569 625/526/569
f 625/526/570 630/490/570 628/492/570 623/527/570
f 639/505/571 644/493/571 647/496/571 642/520/571
f 642/520/572 647/496/572 646/498/572 641/508/572
f 641/521/573 646/499/573 645/502/573 640/522/573
f 640/522/574 645/502/574 643/504/574 638/523/574
f 654/515/575 659/505/575 662/507/575 657/516/575
f 657/516/576 662/507/576 661/508/576 656/498/576
f 656/517/577 661/509/577 660/512/577 655/518/577
f 655/518/578 660/512/578 658/514/578 653/519/578
f 1/376/8 32/375/8 513/395/8 664/394/8
f 649/75/29 653/10/29 42/11/29 46/76/29
f 32/375/13 31/381/13 519/475/13 513/395/13
f 31/381/2 30/382/2 524/406/2 519/475/2
f 30/382/14 29/383/14 528/407/14 524/406/14
f 29/384/15 28/385/15 534/465/15 528/528/15
f 28/385/16 27/386/16 539/418/16 534/465/16
f 27/386/9 26/393/9 544/419/9 539/418/9
f 26/393/4 25/388/4 549/455/4 544/419/4
f 25/388/10 24/389/10 554/430/10 549/455/10
f 24/389/17 23/390/17 559/431/17 554/430/17
f 23/390/18 22/391/18 564/443/18 559/431/18
f 22/391/1 21/392/1 569/442/1 564/443/1
f 21/392/19 20/391/19 574/443/19 569/442/19
f 20/391/20 19/390/20 579/431/20 574/443/20
f 19/390/21 18/389/21 584/454/21 579/431/21
f 18/389/11 17/388/11 588/455/11 584/454/11
f 17/388/5 16/387/5 594/534/5 588/455/5
f 16/387/7 15/386/7 599/418/7 594/534/7
f 15/386/22 14/385/22 604/465/22 599/418/22
f 14/385/23 13/384/23 609/528/23 604/465/23
f 13/383/24 12/382/24 614/406/24 609/407/24
f 12/382/12 11/381/12 619/475/12 614/406/12
f 11/381/25 10/375/25 624/524/25 619/475/25
f 10/375/26 9/376/26 629/394/26 624/524/26
f 9/376/27 8/377/27 634/484/27 629/394/27
f 8/377/6 7/378/6 639/505/6 634/484/6
f 7/378/3 6/379/3 644/493/3 639/505/3
f 6/379/28 5/380/28 648/494/28 644/493/28
f 5/380/29 4/379/29 654/515/29 648/494/29
f 4/379/30 3/378/30 659/505/30 654/515/30
f 3/378/31 2/377/31 668/506/31 659/505/31
f 2/377/32 1/376/32 664/394/32 668/506/32
f 46/554/579 42/555/579 702/556/579 704/557/579
f 44/558/580 63/559/580 699/560/580 685/561/580
f 60/562/581 35/563/581 703/564/581 696/565/581
f 62/566/582 34/567/582 693/568/582 694/569/582
f 58/570/583 36/77/583 695/80/583 687/571/583
f 50/572/584 40/573/584 691/574/584 692/575/584
f 34/567/585 59/576/585 697/577/585 693/568/585
f 54/578/586 38/579/586 683/580/586 698/581/586
f 35/563/587 57/582/587 688/583/587 703/564/587
f 47/584/588 48/585/588 689/586/588 690/587/588
f 40/573/589 47/584/589 690/587/589 691/574/589
f 63/559/590 64/588/590 680/589/590 699/560/590
f 57/582/591 58/570/591 687/571/591 688/583/591
f 59/576/592 60/562/592 696/565/592 697/577/592
f 52/590/593 39/591/593 676/592/593 681/593/593
f 43/594/594 44/558/594 685/561/594 686/595/594
f 56/596/595 37/597/595 678/598/595 673/599/595
f 49/600/596 50/572/596 692/575/596 675/601/596
f 64/588/597 33/602/597 679/603/597 680/589/597
f 61/604/598 62/566/598 694/569/598 684/605/598
f 33/602/599 61/604/599 684/605/599 679/603/599
f 38/579/600 51/606/600 682/607/600 683/580/600
f 37/597/601 53/608/601 677/609/601 678/598/601
f 51/606/602 52/590/602 681/593/602 682/607/602
f 39/591/603 49/600/603 675/601/603 676/592/603
f 42/555/604 43/594/604 686/595/604 702/556/604
f 55/78/605 56/596/605 673/599/605 674/79/605
f 41/610/606 45/611/606 700/612/606 701/613/606
f 45/611/607 46/554/607 704/557/607 700/612/607
f 48/585/608 41/610/608 701/613/608 689/586/608
f 53/608/609 54/578/609 698/581/609 677/609/609
f 717/614/610 731/615/610 712/616/610 711/617/610 716/618/610 726/619/610 725/620/610 729/621/610 728/622/610 735/623/610 720/624/610 719/625/610 727/626/610 706/627/610 705/628/610 710/629/610 709/630/610 730/631/610 715/632/610 714/633/610 713/634/610 708/635/610 707/636/610 724/637/610 723/638/610 722/639/610 721/640/610 733/641/610 732/642/610 736/643/610 734/644/610 718/645/610
f 677/646/11 698/647/11 730/648/11 709/649/11
f 689/650/6 701/651/6 733/652/6 721/653/6
f 700/654/28 704/655/28 736/656/28 732/657/28
f 701/651/3 700/654/3 732/657/3 733/652/3
f 674/658/19 673/659/19 705/660/19 706/661/19
f 702/654/30 686/651/30 718/652/30 734/657/30
f 676/662/24 675/663/24 707/664/24 708/665/24
f 682/666/22 681/667/22 713/668/22 714/669/22
f 678/670/21 677/646/21 709/649/21 710/671/21
f 683/672/7 682/666/7 714/669/7 715/673/7
f 679/674/2 684/663/2 716/664/2 711/675/2
f 684/663/14 694/662/14 726/665/14 716/664/14
f 680/676/13 679/674/13 711/675/13 712/677/13
f 675/663/12 692/674/12 724/675/12 707/664/12
f 673/659/20 678/670/20 710/671/20 705/660/20
f 686/651/31 685/650/31 717/653/31 718/652/31
f 681/667/23 676/678/23 708/679/23 713/668/23
f 697/666/9 696/672/9 728/673/9 729/669/9
f 688/680/17 687/670/17 719/671/17 720/681/17
f 699/682/8 680/676/8 712/677/8 731/683/8
f 691/676/26 690/682/26 722/683/26 723/677/26
f 690/682/27 689/650/27 721/653/27 722/683/27
f 703/647/10 688/680/10 720/681/10 735/648/10
f 698/647/5 683/672/5 715/673/5 730/648/5
f 693/667/16 697/666/16 729/669/16 725/668/16
f 692/674/25 691/676/25 723/677/25 724/675/25
f 687/670/18 695/659/18 727/660/18 719/671/18
f 694/678/15 693/667/15 725/668/15 726/679/15
f 696/672/4 703/647/4 735/648/4 728/673/4
f 685/650/32 699/682/32 731/683/32 717/653/32
f 704/655/29 702/654/29 734/657/29 736/656/29
f 695/659/1 674/658/1 706/661/1 727/660/1
