# Blender 5.0.0
# www.blender.org
mtllib Radio.mtl
o Radio
v -8.063999 -5.040000 2.016000
v -8.063999 5.040000 2.016000
v -8.063999 -5.040000 -2.016000
v -8.063999 5.040000 -2.016000
v 8.063999 -5.040000 2.016000
v 8.063999 5.040000 2.016000
v 8.063999 -5.040000 -2.016000
v 8.063999 5.040000 -2.016000
v -8.063999 -5.040000 -0.672000
v -8.063999 -5.040000 0.672000
v -8.063999 5.040000 0.672000
v -8.063999 5.040000 -0.672000
v 8.063999 -5.040000 0.672000
v 8.063999 -5.040000 -0.672000
v 8.063999 5.040000 -0.672000
v 8.063999 5.040000 0.672000
v -8.063999 5.040000 -0.000000
v 8.063999 5.040000 0.000000
v 0.000000 5.040000 -0.672000
v 0.000000 5.040000 0.672000
v 0.000000 5.040000 0.000000
v -8.063999 5.040000 -0.336000
v 8.063999 5.040000 0.336000
v 4.032000 5.040000 -0.672000
v 4.032000 5.040000 0.672000
v -8.063999 5.040000 0.336000
v 8.063999 5.040000 -0.336000
v -4.032000 5.040000 -0.672000
v -4.032000 5.040000 0.672000
v 0.000000 5.040000 0.336000
v 0.000000 5.040000 -0.336000
v 4.247785 5.040000 0.000000
v -4.166310 5.040000 -0.000000
v -4.422208 5.040000 -0.337459
v 4.479819 5.040000 -0.339274
v 4.479819 5.040000 0.339274
v -4.422208 5.040000 0.337459
v -6.048000 5.040000 -0.672000
v -6.048000 5.040000 0.672000
v -5.913691 5.040000 -0.000000
v -5.657793 5.040000 -0.337459
v -5.657793 5.040000 0.337459
v 6.048000 5.040000 -0.672000
v 6.048000 5.040000 0.672000
v 5.832215 5.040000 0.000000
v 5.600181 5.040000 -0.339274
v 5.600181 5.040000 0.339274
v -5.040000 5.040000 -0.672000
v -5.040000 5.040000 0.672000
v -5.040000 5.040000 -0.477239
v -5.040000 5.040000 0.477239
v 5.040000 5.040000 -0.672000
v 5.040000 5.040000 0.672000
v 5.040000 5.040000 -0.479805
v 5.040000 5.040000 0.479806
v 2.919167 7.940355 0.000000
v -4.166310 5.983020 -0.000000
v -4.422208 5.983020 -0.337459
v -5.040000 5.983020 -0.477239
v 4.479819 5.983020 -0.339274
v 4.247785 5.983020 0.000000
v 4.479819 5.983020 0.339274
v -4.422208 5.983020 0.337459
v -5.040000 5.983020 0.477239
v -5.913691 5.983020 -0.000000
v -5.657793 5.983020 0.337459
v -5.657793 5.983020 -0.337459
v 3.871182 7.143788 0.000000
v 5.832215 5.983020 0.000000
v 5.040000 5.983020 -0.479805
v 5.600181 5.983020 -0.339274
v 5.040000 5.983020 0.479806
v 5.600181 5.983020 0.339274
v 1.569202 8.416945 0.000000
v 0.000001 8.574115 0.000000
v -1.562233 8.405157 0.000000
v -2.891800 7.921767 0.000000
v -3.815155 7.128765 -0.000000
v -4.047044 7.190946 0.337686
v -3.059687 8.035801 0.337912
v -1.646701 8.548078 0.338139
v 0.000001 8.724372 0.338366
v 1.651629 8.556414 0.338593
v 3.079038 8.048944 0.338820
v 4.086661 7.201570 0.339047
v -4.606875 7.341067 0.477559
v -3.465000 8.311099 0.477880
v -1.850625 8.893118 0.478201
v 0.000001 9.087125 0.478522
v 1.850627 8.893118 0.478843
v 3.465002 8.311098 0.479164
v 4.606875 7.341066 0.479485
v -5.166707 7.491185 0.337685
v -3.870313 8.586397 0.337912
v -2.054548 9.238159 0.338139
v 0.000001 9.449878 0.338366
v 2.049623 9.229824 0.338593
v 3.850966 8.573254 0.338820
v 5.127090 7.480562 0.339047
v -5.398596 7.553367 -0.000000
v -4.038200 8.700429 -0.000000
v -2.139017 9.381080 -0.000000
v 0.000001 9.600136 -0.000000
v 2.132051 9.369292 0.000000
v 4.010837 8.681843 0.000000
v 5.342571 7.538342 0.000000
v -5.166707 7.491185 -0.337686
v -3.870314 8.586397 -0.337913
v -2.054548 9.238161 -0.338139
v 0.000001 9.449879 -0.338366
v 2.049624 9.229825 -0.338593
v 3.850966 8.573255 -0.338820
v 5.127091 7.480562 -0.339047
v -4.606875 7.341066 -0.477559
v -3.465000 8.311099 -0.477880
v -1.850625 8.893119 -0.478201
v 0.000001 9.087125 -0.478522
v 1.850627 8.893119 -0.478843
v 3.465002 8.311099 -0.479164
v 4.606875 7.341065 -0.479485
v -4.047044 7.190946 -0.337686
v -3.059687 8.035800 -0.337912
v -1.646701 8.548079 -0.338139
v 0.000001 8.724372 -0.338366
v 1.651630 8.556414 -0.338593
v 3.079038 8.048944 -0.338820
v 4.086661 7.201570 -0.339047
v -8.063999 4.707692 -2.016000
v 8.063999 4.707692 -2.016000
v -8.063999 2.852308 -2.016000
v 8.063999 2.852308 -2.016000
v -8.063999 2.859215 2.016000
v -8.063999 4.709519 2.016000
v 6.931406 2.979867 -2.016000
v 7.058967 -5.040000 -2.016000
v 0.008712 2.440791 -2.016000
v -8.063999 2.440791 -2.016000
v 8.063999 2.440791 -2.016000
v 0.009487 2.979867 -2.016000
v 7.058966 2.440791 -2.016000
v -0.005382 -5.040000 -2.016000
v 8.063999 -4.642550 -2.016000
v -8.063999 -4.642552 -2.016000
v -0.004633 -4.642550 -2.016000
v 7.058967 -4.642550 -2.016000
v 6.931404 4.580133 -2.016000
v 7.058963 5.040000 -2.016000
v -6.923190 2.979867 -2.016000
v -7.050749 5.040000 -2.016000
v -6.923190 4.580133 -2.016000
v 3.533839 2.440791 -2.016000
v 7.058967 -1.100879 -2.016000
v 0.002039 -1.100880 -2.016000
v 3.527167 -4.642550 -2.016000
v 1.771275 2.440791 -2.016000
v 7.058966 0.669956 -2.016000
v -0.001297 -2.871715 -2.016000
v 1.761267 -4.642550 -2.016000
v 5.296402 2.440791 -2.016000
v 7.058967 -2.871715 -2.016000
v 0.005375 0.669956 -2.016000
v 5.293067 -4.642550 -2.016000
v 0.889993 2.440791 -2.016000
v 7.058966 1.555374 -2.016000
v -0.002965 -3.757133 -2.016000
v 0.878317 -4.642550 -2.016000
v 4.415121 2.440791 -2.016000
v 7.058967 -1.986297 -2.016000
v 0.003707 -0.215462 -2.016000
v 4.410117 -4.642550 -2.016000
v 3.529377 2.009766 -2.017587
v 6.792487 -1.099805 -2.016000
v 2.652557 2.440791 -2.016000
v 7.058966 -0.215462 -2.016000
v 0.000371 -1.986297 -2.016000
v 2.644217 -4.642550 -2.016000
v 6.177684 2.440791 -2.016000
v 7.058967 -3.757132 -2.016000
v 0.007043 1.555373 -2.016000
v 6.176017 -4.642550 -2.016000
v 3.531629 -4.211524 -2.017587
v 0.268520 -1.101954 -2.016000
v 1.900487 -3.795315 -2.036455
v 0.706106 -2.657132 -2.016000
v 5.162470 -3.794241 -2.036333
v 6.356027 -2.655272 -2.016000
v 1.898536 1.592481 -2.036304
v 0.704979 0.453513 -2.016000
v 5.160519 1.593555 -2.036426
v 6.354900 0.455373 -2.016000
v 6.681046 -0.294748 -2.016000
v 5.836278 1.099438 -2.023019
v 0.379377 -0.296823 -2.016000
v 2.685152 1.903495 -2.026526
v 4.375855 -4.105254 -2.026530
v 5.837871 -3.299678 -2.022888
v 6.681629 -1.904936 -2.016000
v 1.224729 -3.301197 -2.023047
v 2.687328 -4.105810 -2.026492
v 0.379960 -1.907011 -2.016000
v 1.223136 1.097919 -2.022860
v 4.373679 1.904051 -2.026489
v 3.529837 -2.195112 -3.218769
v 3.530503 -1.100879 -3.218769
v 2.826419 -1.100880 -3.218769
v 3.531169 -0.006647 -3.218769
v 3.531834 1.087585 -2.868371
v 3.531629 -4.211524 -2.546199
v 3.529171 -3.289344 -2.868371
v 4.234586 -1.100879 -3.218769
v 4.938670 -1.100879 -3.047010
v 0.268520 -1.101954 -2.539308
v 2.122336 -1.100880 -3.047011
v 2.121338 -2.195112 -3.046941
v 1.900487 -3.795315 -2.574421
v 2.120339 -3.289344 -2.771352
v 2.824755 -3.289344 -2.868371
v 0.706106 -2.657132 -2.539308
v 4.938337 -2.195112 -3.046941
v 5.162470 -3.794241 -2.574260
v 4.938004 -3.289343 -2.771679
v 4.233588 -3.289343 -2.868371
v 2.123335 -0.006648 -3.047081
v 2.124333 1.087584 -2.771924
v 2.828084 1.087585 -2.868371
v 0.704979 0.453513 -2.539308
v 4.939002 -0.006647 -3.047081
v 4.939335 1.087585 -2.771597
v 4.235584 1.087585 -2.868371
v 3.529377 2.009766 -2.546199
v 6.792487 -1.099805 -2.539308
v 6.356027 -2.655272 -2.539308
v 1.898536 1.592481 -2.574222
v 5.160519 1.593555 -2.574384
v 6.354900 0.455373 -2.539308
v 4.235085 -0.006647 -3.218769
v 6.681046 -0.294748 -2.539308
v 5.836278 1.099438 -2.555549
v 0.379377 -0.296823 -2.539308
v 2.827251 -0.006647 -3.218769
v 2.685152 1.903495 -2.560764
v 4.375855 -4.105254 -2.560768
v 5.837871 -3.299678 -2.555348
v 6.681629 -1.904936 -2.539308
v 1.224729 -3.301197 -2.555593
v 2.687328 -4.105810 -2.560714
v 2.825587 -2.195112 -3.218769
v 0.379960 -1.907011 -2.539308
v 4.234088 -2.195112 -3.218769
v 1.223136 1.097919 -2.555305
v 4.373679 1.904051 -2.560710
v 0.009487 2.852308 -2.016000
v 7.058966 2.852308 -2.016000
v -7.050749 2.852308 -2.016000
v -7.050749 4.707692 -2.016000
v 7.058963 4.707692 -2.016000
v 0.009487 2.979867 -2.205000
v 6.931406 2.979867 -2.205000
v -6.923190 2.979867 -2.205000
v -6.923190 4.580133 -2.205000
v 6.931404 4.580133 -2.205000
v -7.036539 -0.031815 -2.016000
v -7.036538 2.440791 -2.016000
v 0.004053 -0.031846 -2.016000
v -8.063999 -0.031811 -2.016000
v -8.063999 -1.098485 -2.016000
v -0.001651 -3.059747 -2.016000
v -8.063999 -3.059787 -2.016000
v -4.003244 2.440791 -2.016000
v -4.003245 -0.031829 -2.016000
v -5.001544 -3.059772 -2.016000
v -5.001528 -1.099394 -2.016000
v -7.074934 -3.059782 -2.016000
v -7.074921 -1.098778 -2.016000
v -4.022434 -1.099685 -2.016000
v -4.022443 -3.059767 -2.016000
v -2.006638 -1.100283 -2.016000
v -2.006647 -3.059757 -2.016000
v -5.519892 -0.031822 -2.016000
v -5.519891 2.440791 -2.016000
v -7.036539 1.204488 -2.016000
v -4.003244 1.204481 -2.016000
v -5.001536 -2.079583 -2.016000
v -6.038239 -3.059777 -2.016000
v -6.038224 -1.099086 -2.016000
v -7.074927 -2.079280 -2.016000
v -3.014536 -1.099984 -2.016000
v -3.014545 -3.059762 -2.016000
v -4.022438 -2.079726 -2.016000
v -2.006643 -2.080020 -2.016000
v -6.278215 -0.031819 -2.016000
v -6.278214 2.440791 -2.016000
v -7.036539 0.586336 -2.016000
v -4.003245 0.586326 -2.016000
v -5.001540 -2.569677 -2.016000
v -6.556587 -3.059779 -2.016000
v -6.556572 -1.098932 -2.016000
v -7.074931 -2.569531 -2.016000
v -3.518485 -1.099834 -2.016000
v -3.518494 -3.059764 -2.016000
v -4.022440 -2.569746 -2.016000
v -2.006645 -2.569888 -2.016000
v -4.761569 -0.031825 -2.016000
v -4.761567 2.440791 -2.016000
v -7.036538 1.822639 -2.016000
v -4.003244 1.822636 -2.016000
v -5.001533 -1.589488 -2.016000
v -5.519892 -3.059774 -2.016000
v -5.519876 -1.099240 -2.016000
v -7.074924 -1.589029 -2.016000
v -2.510587 -1.100134 -2.016000
v -2.510596 -3.059759 -2.016000
v -4.022436 -1.589705 -2.016000
v -2.006640 -1.590152 -2.016000
v -6.657377 -0.031817 -2.016000
v -6.657376 2.440791 -2.016000
v -7.036539 0.277260 -2.016000
v -4.003245 0.277249 -2.016000
v -5.140731 -0.031824 -2.016000
v -5.140729 2.440791 -2.016000
v -7.036538 1.513564 -2.016000
v -4.003244 1.513558 -2.016000
v -6.715359 1.204485 -2.016000
v -5.519891 2.399951 -2.016000
v -5.899054 -0.031820 -2.016000
v -5.899053 2.440791 -2.016000
v -7.036539 0.895412 -2.016000
v -4.003244 0.895404 -2.016000
v -4.382407 -0.031827 -2.016000
v -4.382405 2.440791 -2.016000
v -7.036538 2.131715 -2.016000
v -4.003244 2.131713 -2.016000
v -4.324425 1.204483 -2.016000
v -5.519893 0.009017 -2.016000
v -4.484587 0.606750 -2.016000
v -4.922159 0.169179 -2.016000
v -4.484586 1.802217 -2.016000
v -4.922157 2.239789 -2.016000
v -6.555196 1.802219 -2.016000
v -6.117624 2.239790 -2.016000
v -6.555197 0.606752 -2.016000
v -6.117626 0.169180 -2.016000
v -5.829302 0.049752 -2.016000
v -6.674624 0.895076 -2.016000
v -5.829300 2.359217 -2.016000
v -6.365214 2.049808 -2.016000
v -4.365159 1.513893 -2.016000
v -4.674568 2.049807 -2.016000
v -5.210481 2.359217 -2.016000
v -4.674570 0.359161 -2.016000
v -4.365160 0.895074 -2.016000
v -5.210483 0.049752 -2.016000
v -6.674624 1.513895 -2.016000
v -6.365215 0.359162 -2.016000
v -5.001542 -2.814724 -2.016000
v -6.815761 -3.059781 -2.016000
v -6.815746 -1.098855 -2.016000
v -7.074933 -2.814656 -2.016000
v -5.001534 -1.834536 -2.016000
v -5.779066 -3.059775 -2.016000
v -5.779050 -1.099163 -2.016000
v -7.074925 -1.834155 -2.016000
v -6.911578 -2.079382 -2.016000
v -6.038182 -1.206085 -2.016000
v -5.001538 -2.324630 -2.016000
v -6.297413 -3.059778 -2.016000
v -6.297399 -1.099009 -2.016000
v -7.074929 -2.324406 -2.016000
v -5.001531 -1.344441 -2.016000
v -5.260718 -3.059773 -2.016000
v -5.260702 -1.099317 -2.016000
v -7.074923 -1.343904 -2.016000
v -5.164884 -2.079481 -2.016000
v -6.038280 -2.952778 -2.016000
v -5.281915 -2.516147 -2.016000
v -5.601600 -2.835797 -2.016000
v -5.281866 -1.642801 -2.016000
v -5.601515 -1.323116 -2.016000
v -6.794547 -1.642716 -2.016000
v -8.063999 -3.308732 -1.008000
v -6.474862 -1.323066 -2.016000
v -8.063999 -3.307492 1.008000
v -6.794596 -2.516062 -2.016000
v -8.063999 -3.808275 -1.008000
v -8.063999 -3.807861 1.008000
v -6.474947 -2.835747 -2.016000
v -6.264317 -2.923007 -2.016000
v -8.063999 -3.306872 2.016000
v -6.881832 -2.305423 -2.016000
v -8.063999 -3.057308 1.008000
v -6.264222 -1.235831 -2.016000
v -6.655746 -1.461847 -2.016000
v -5.194630 -1.853440 -2.016000
v -5.420647 -1.461917 -2.016000
v -5.812145 -1.235856 -2.016000
v -5.420716 -2.697016 -2.016000
v -5.194655 -2.305518 -2.016000
v -8.063999 -3.808481 -2.016000
v -5.812240 -2.923032 -2.016000
v -8.063999 -4.058046 -1.008000
v -6.881806 -1.853345 -2.016000
v -6.655815 -2.696946 -2.016000
v -3.770459 -1.099760 -2.016000
v -3.770468 -3.059765 -2.016000
v -4.022442 -2.814756 -2.016000
v -2.006646 -2.814822 -2.016000
v -2.762562 -1.100059 -2.016000
v -2.762570 -3.059760 -2.016000
v -4.022437 -1.834715 -2.016000
v -2.006641 -1.835086 -2.016000
v -3.875068 -2.079910 -2.016000
v -8.063999 -4.058046 1.008000
v -3.014577 -1.219345 -2.016000
v -8.063999 -3.309351 -2.016000
v -3.266510 -1.099909 -2.016000
v -3.266520 -3.059763 -2.016000
v -4.022439 -2.324736 -2.016000
v -2.006644 -2.324954 -2.016000
v -2.258613 -1.100209 -2.016000
v -2.258621 -3.059758 -2.016000
v -4.022435 -1.344695 -2.016000
v -2.006639 -1.345217 -2.016000
v -8.063999 -3.058960 -1.008000
v -2.154013 -2.079836 -2.016000
v -8.063999 -3.807655 2.016000
v -3.014503 -2.940400 -2.016000
v -8.188501 -3.378881 -0.074254
v -2.269283 -2.510105 -2.016000
v -8.188501 -3.752074 0.000022
v -2.584245 -2.825093 -2.016000
v -8.063999 -3.557677 1.008000
v -2.269320 -1.649577 -2.016000
v -2.584309 -1.334616 -2.016000
v -8.063999 -3.558503 -1.008000
v -3.759798 -1.649641 -2.016000
v -8.188501 -3.364106 -0.000022
v -3.444836 -1.334653 -2.016000
v -8.063999 -3.557264 2.016000
v -3.759761 -2.510169 -2.016000
v -8.063999 -3.058134 0.000000
v -8.063999 -3.558916 -2.016000
v -3.444772 -2.825130 -2.016000
v -3.237226 -2.911088 -2.016000
v -8.063999 -4.058046 0.000000
v -3.845737 -2.302629 -2.016000
v -8.063999 -4.058046 -2.016000
v -3.237297 -1.248677 -2.016000
v -3.623051 -1.471414 -2.016000
v -2.183344 -1.857116 -2.016000
v -2.406082 -1.471362 -2.016000
v -2.791855 -1.248658 -2.016000
v -2.406029 -2.688332 -2.016000
v -2.183325 -2.302558 -2.016000
v -8.063999 -4.058046 2.016000
v -2.791784 -2.911069 -2.016000
v -8.063999 -3.056481 2.016000
v -3.845756 -1.857188 -2.016000
v -3.622999 -2.688384 -2.016000
v -2.762566 -2.079910 -2.320747
v -3.014540 -2.079873 -2.320747
v -3.014541 -2.324845 -2.320747
v -5.779058 -2.079469 -2.320747
v -6.038232 -2.079432 -2.320747
v -6.038234 -2.324518 -2.320747
v -5.140730 1.204484 -2.320747
v -5.519892 1.204484 -2.320747
v -5.519892 0.895408 -2.320747
v -3.266515 -2.079836 -2.320747
v -3.518489 -2.079799 -2.320747
v -2.154013 -2.079836 -2.320747
v -2.510592 -2.079947 -2.320747
v -3.014539 -1.834901 -2.320747
v -3.014538 -1.589929 -2.320747
v -3.014503 -2.940400 -2.320747
v -3.014543 -2.569817 -2.320747
v -6.297406 -2.079394 -2.320747
v -6.556580 -2.079356 -2.320747
v -5.164884 -2.079481 -2.320747
v -5.519884 -2.079507 -2.320747
v -6.038230 -1.834345 -2.320747
v -6.038228 -1.589259 -2.320747
v -6.038280 -2.952778 -2.320747
v -6.038236 -2.569604 -2.320747
v -5.899054 1.204485 -2.320747
v -6.278215 1.204486 -2.320747
v -4.324425 1.204483 -2.320747
v -4.761568 1.204483 -2.320747
v -5.519892 1.513561 -2.320747
v -5.519891 1.822638 -2.320747
v -5.519893 0.009017 -2.320747
v -5.519892 0.586331 -2.320747
v -5.140730 0.586330 -2.320747
v -4.484587 0.606750 -2.320747
v -4.761568 0.586329 -2.320747
v -4.761568 0.895406 -2.320747
v -4.922159 0.169179 -2.320747
v -5.140730 1.822637 -2.320747
v -4.484586 1.802217 -2.320747
v -4.761568 1.822637 -2.320747
v -4.761568 1.513560 -2.320747
v -5.899053 1.822638 -2.320747
v -6.278214 1.822639 -2.320747
v -6.278215 1.513562 -2.320747
v -5.779062 -2.569623 -2.320747
v -5.281915 -2.516147 -2.320747
v -5.519888 -2.569641 -2.320747
v -5.519886 -2.324574 -2.320747
v -5.601600 -2.835797 -2.320747
v -5.779054 -1.589316 -2.320747
v -5.281866 -1.642801 -2.320747
v -5.519880 -1.589374 -2.320747
v -5.519882 -1.834440 -2.320747
v -6.297402 -1.589201 -2.320747
v -6.556576 -1.589144 -2.320747
v -6.556578 -1.834250 -2.320747
v -2.762568 -2.569835 -2.320747
v -2.269283 -2.510105 -2.320747
v -2.510594 -2.569853 -2.320747
v -2.510592 -2.324900 -2.320747
v -2.584245 -2.825093 -2.320747
v -2.762564 -1.589984 -2.320747
v -2.269320 -1.649577 -2.320747
v -2.510589 -1.590040 -2.320747
v -2.510590 -1.834993 -2.320747
v -3.266512 -1.589873 -2.320747
v -3.518487 -1.589817 -2.320747
v -3.518488 -1.834808 -2.320747
v -3.266517 -2.569799 -2.320747
v -3.518492 -2.569782 -2.320747
v -3.518490 -2.324790 -2.320747
v -3.444772 -2.825130 -2.320747
v -6.297410 -2.569586 -2.320747
v -6.556583 -2.569568 -2.320747
v -6.556581 -2.324462 -2.320747
v -6.474947 -2.835747 -2.320747
v -5.899054 0.586332 -2.320747
v -6.278215 0.586334 -2.320747
v -6.278215 0.895410 -2.320747
v -6.117626 0.169180 -2.320747
v -6.715359 1.204485 -2.320747
v -5.519891 2.399951 -2.320747
v -4.922157 2.239789 -2.320747
v -6.555196 1.802219 -2.320747
v -6.117624 2.239790 -2.320747
v -6.555197 0.606752 -2.320747
v -5.829302 0.049752 -2.320747
v -5.899054 0.895409 -2.320747
v -6.674624 0.895076 -2.320747
v -5.899054 1.513562 -2.320747
v -5.829300 2.359217 -2.320747
v -6.365214 2.049808 -2.320747
v -4.365159 1.513893 -2.320747
v -4.674568 2.049807 -2.320747
v -5.210481 2.359217 -2.320747
v -4.674570 0.359161 -2.320747
v -4.365160 0.895074 -2.320747
v -5.140730 0.895407 -2.320747
v -5.210483 0.049752 -2.320747
v -5.140730 1.513560 -2.320747
v -6.674624 1.513895 -2.320747
v -6.365215 0.359162 -2.320747
v -6.911578 -2.079382 -2.320747
v -6.038182 -1.206085 -2.320747
v -5.601515 -1.323116 -2.320747
v -6.794547 -1.642716 -2.320747
v -6.474862 -1.323066 -2.320747
v -6.794596 -2.516062 -2.320747
v -6.264317 -2.923007 -2.320747
v -6.297408 -2.324490 -2.320747
v -6.881832 -2.305423 -2.320747
v -6.297404 -1.834298 -2.320747
v -6.264222 -1.235831 -2.320747
v -6.655746 -1.461847 -2.320747
v -5.194630 -1.853440 -2.320747
v -5.420647 -1.461917 -2.320747
v -5.812145 -1.235856 -2.320747
v -5.420716 -2.697016 -2.320747
v -5.194655 -2.305518 -2.320747
v -5.779060 -2.324546 -2.320747
v -5.812240 -2.923032 -2.320747
v -5.779056 -1.834393 -2.320747
v -6.881806 -1.853345 -2.320747
v -6.655815 -2.696946 -2.320747
v -3.875068 -2.079910 -2.320747
v -3.014577 -1.219345 -2.320747
v -2.584309 -1.334616 -2.320747
v -3.759798 -1.649641 -2.320747
v -3.444836 -1.334653 -2.320747
v -3.759761 -2.510169 -2.320747
v -3.237226 -2.911088 -2.320747
v -3.266516 -2.324818 -2.320747
v -3.845737 -2.302629 -2.320747
v -3.266514 -1.834854 -2.320747
v -3.237297 -1.248677 -2.320747
v -3.623051 -1.471414 -2.320747
v -2.183344 -1.857116 -2.320747
v -2.406082 -1.471362 -2.320747
v -2.791855 -1.248658 -2.320747
v -2.406029 -2.688332 -2.320747
v -2.183325 -2.302558 -2.320747
v -2.762567 -2.324872 -2.320747
v -2.791784 -2.911069 -2.320747
v -2.762565 -1.834947 -2.320747
v -3.845756 -1.857188 -2.320747
v -3.622999 -2.688384 -2.320747
v -8.063996 -3.420938 -0.137183
v -8.063999 -3.183846 -1.008000
v -8.063999 -3.433618 -1.008000
v -8.063996 -3.420907 0.137152
v -8.063999 -3.182400 1.008000
v -8.063999 -3.432585 1.008000
v -8.063996 -3.695273 -0.137152
v -8.063999 -3.683389 -1.008000
v -8.063999 -3.933160 -1.008000
v -8.063996 -3.695242 0.137183
v -8.063999 -3.682769 1.008000
v -8.063999 -3.932954 1.008000
v -8.063999 -3.057721 0.504000
v -8.063999 -4.058046 -0.504000
v -8.188501 -3.632304 0.179226
v -8.063996 -3.364106 -0.000022
v -8.063996 -3.558068 0.193984
v -8.063996 -3.558112 -0.193984
v -8.188501 -3.695242 0.137183
v -8.063996 -3.752074 0.000022
v -8.063999 -3.058547 -0.504000
v -8.063999 -4.058046 0.504000
v -8.063996 -3.737299 0.074254
v -8.063996 -3.483835 0.179209
v -8.063996 -3.632304 0.179226
v -8.063996 -3.737316 -0.074214
v -8.063996 -3.632344 -0.179209
v -8.063996 -3.378864 0.074214
v -8.063996 -3.483876 -0.179226
v -8.063996 -3.378881 -0.074254
v -8.466015 -3.420938 -0.137183
v -8.188501 -3.737299 0.074254
v -8.466015 -3.695273 -0.137152
v -8.188501 -3.632344 -0.179209
v -8.188501 -3.558068 0.193984
v -8.466015 -3.364106 -0.000022
v -8.466015 -3.558112 -0.193984
v -8.188501 -3.558112 -0.193984
v -8.188501 -3.483876 -0.179226
v -8.466015 -3.420907 0.137152
v -8.466015 -3.695242 0.137183
v -8.466015 -3.558068 0.193984
v -8.466015 -3.752074 0.000022
v -8.466015 -3.737299 0.074254
v -8.466015 -3.483835 0.179209
v -8.466015 -3.632304 0.179226
v -8.466015 -3.737316 -0.074214
v -8.466015 -3.632344 -0.179209
v -8.466015 -3.378864 0.074214
v -8.466015 -3.483876 -0.179226
v -8.466015 -3.378881 -0.074254
v -8.188501 -3.420938 -0.137183
v -8.188501 -3.695273 -0.137152
v -8.188501 -3.737316 -0.074214
v -8.188501 -3.378864 0.074214
v -8.188501 -3.483835 0.179209
v -8.188501 -3.420907 0.137152
v -8.388916 -3.558112 -0.193984
v -8.388916 -3.558068 0.193984
v -8.388916 -3.632304 0.179226
v -8.388916 -3.752074 0.000022
v -8.388916 -3.420938 -0.137183
v -8.388916 -3.737316 -0.074214
v -8.388916 -3.378864 0.074214
v -8.388916 -3.420907 0.137152
v -8.388916 -3.483835 0.179209
v -8.388916 -3.695273 -0.137152
v -8.388916 -3.378881 -0.074254
v -8.388916 -3.364106 -0.000022
v -8.388916 -3.695242 0.137183
v -8.388916 -3.737299 0.074254
v -8.388916 -3.632344 -0.179209
v -8.388916 -3.483876 -0.179226
v -8.427465 -3.558112 -0.193984
v -8.427465 -3.558068 0.193984
v -8.427465 -3.632304 0.179226
v -8.427465 -3.752074 0.000022
v -8.427465 -3.420938 -0.137183
v -8.427465 -3.737316 -0.074214
v -8.427465 -3.378864 0.074214
v -8.427465 -3.420907 0.137152
v -8.427465 -3.483835 0.179209
v -8.427465 -3.695273 -0.137152
v -8.427465 -3.378881 -0.074254
v -8.427465 -3.364106 -0.000022
v -8.427465 -3.695242 0.137183
v -8.427465 -3.737299 0.074254
v -8.427465 -3.632344 -0.179209
v -8.427465 -3.483876 -0.179226
v -8.288709 -3.483835 0.179209
v -8.288709 -3.695273 -0.137152
v -8.288709 -3.378881 -0.074254
v -8.288709 -3.695242 0.137183
v -8.288709 -3.737299 0.074254
v -8.288709 -3.632344 -0.179209
v -8.288709 -3.483876 -0.179226
v -8.288709 -3.558112 -0.193984
v -8.288709 -3.558068 0.193984
v -8.288709 -3.632304 0.179226
v -8.288709 -3.752074 0.000022
v -8.288709 -3.420938 -0.137183
v -8.288709 -3.737316 -0.074214
v -8.288709 -3.378864 0.074214
v -8.288709 -3.420907 0.137152
v -8.288709 7.003438 -0.074254
v -8.188501 7.003438 -0.074254
v -8.288709 6.885448 -0.144817
v -8.188501 7.018212 -0.000022
v -8.188501 7.003454 0.074214
v -8.288709 7.003454 0.074214
v -8.388916 7.003454 0.074214
v -8.388916 7.003438 -0.074254
v -8.388916 7.018212 -0.000022
v -8.093249 6.885448 -0.144817
v -8.093249 7.326777 0.144778
v -8.093249 6.885480 0.144778
v -8.093249 6.914267 -0.000023
v -8.288709 6.885480 0.144778
v -8.484168 6.885480 0.144778
v -8.484168 6.885448 -0.144817
v -8.484168 6.914267 -0.000023
v -8.093249 7.355563 -0.000023
v -8.484168 7.326744 -0.144817
v -8.484168 7.355563 -0.000023
v -8.288709 7.326744 -0.144817
v -8.093249 7.326744 -0.144817
v -8.288709 7.355563 -0.000023
v -8.288709 7.326777 0.144778
v -8.484168 7.326777 0.144778
vn -1.0000 -0.0000 -0.0000
vn -0.0000 -0.0000 -1.0000
vn 1.0000 -0.0000 -0.0000
vn -0.0000 -0.0000 1.0000
vn -0.0000 -1.0000 -0.0000
vn -0.0000 1.0000 -0.0000
vn 0.2207 -0.0000 0.9753
vn -0.2207 -0.0000 -0.9753
vn 0.7968 -0.0000 -0.6042
vn 0.2433 -0.0000 0.9699
vn -0.7968 -0.0000 0.6042
vn 0.2433 -0.0000 -0.9699
vn 0.7968 -0.0000 0.6042
vn -0.8254 -0.0000 -0.5645
vn -0.7963 -0.2576 -0.5473
vn -0.2416 -0.0773 -0.9673
vn 0.2416 0.0769 -0.9673
vn 0.7979 0.2516 -0.5478
vn 0.7979 0.2516 0.5478
vn 0.2416 0.0769 0.9673
vn -0.2416 -0.0773 0.9673
vn -0.7963 -0.2576 0.5473
vn 0.8254 -0.0000 0.5645
vn -0.7968 -0.0000 -0.6042
vn -0.2207 -0.0000 0.9753
vn -0.2433 -0.0000 -0.9699
vn -0.8254 -0.0000 0.5645
vn -0.2433 -0.0000 0.9699
vn 0.2207 -0.0000 -0.9753
vn 0.8254 -0.0000 -0.5645
vn -0.5646 -0.6730 0.4778
vn -0.3029 -0.8548 0.4214
vn -0.0920 -0.9113 0.4012
vn 0.0977 -0.9086 0.4060
vn 0.3071 -0.8459 0.4361
vn 0.5622 -0.6559 0.5037
vn 0.7763 -0.2396 0.5830
vn -0.1940 -0.2291 0.9539
vn -0.1168 -0.3256 0.9383
vn -0.0376 -0.3626 0.9312
vn 0.0378 -0.3584 0.9328
vn 0.1134 -0.3141 0.9426
vn 0.1832 -0.2153 0.9592
vn 0.2220 -0.0701 0.9725
vn 0.1945 0.2282 0.9540
vn 0.1176 0.3248 0.9384
vn 0.0383 0.3624 0.9312
vn -0.0374 0.3585 0.9328
vn -0.1132 0.3143 0.9425
vn -0.1830 0.2158 0.9591
vn -0.2218 0.0713 0.9725
vn 0.5711 0.6661 0.4797
vn 0.3108 0.8512 0.4229
vn 0.0982 0.9105 0.4016
vn -0.0934 0.9092 0.4057
vn -0.3039 0.8473 0.4355
vn -0.5577 0.6608 0.5024
vn -0.7731 0.2526 0.5818
vn 0.5711 0.6661 -0.4797
vn 0.3108 0.8512 -0.4229
vn 0.0982 0.9105 -0.4016
vn -0.0934 0.9092 -0.4057
vn -0.3039 0.8473 -0.4355
vn -0.5577 0.6608 -0.5024
vn -0.7731 0.2526 -0.5818
vn 0.1945 0.2282 -0.9540
vn 0.1176 0.3248 -0.9384
vn 0.0383 0.3624 -0.9312
vn -0.0374 0.3585 -0.9328
vn -0.1132 0.3143 -0.9425
vn -0.1830 0.2158 -0.9591
vn -0.2218 0.0713 -0.9725
vn -0.1940 -0.2291 -0.9539
vn -0.1168 -0.3256 -0.9383
vn -0.0376 -0.3626 -0.9312
vn 0.0378 -0.3584 -0.9328
vn 0.1134 -0.3141 -0.9426
vn 0.1832 -0.2153 -0.9592
vn 0.2220 -0.0701 -0.9725
vn -0.5646 -0.6730 -0.4778
vn -0.3029 -0.8548 -0.4214
vn -0.0920 -0.9113 -0.4012
vn 0.0977 -0.9086 -0.4060
vn 0.3071 -0.8459 -0.4361
vn 0.5622 -0.6559 -0.5037
vn 0.7763 -0.2396 -0.5830
vn -0.0044 0.0127 -0.9999
vn -0.0000 -0.4575 0.8892
vn -0.0027 0.0027 -1.0000
vn -0.0047 0.0030 -1.0000
vn 0.0017 0.0224 -0.9997
vn 0.0118 0.0100 -0.9999
vn 0.9171 0.3987 -0.0000
vn 0.0027 0.0027 -1.0000
vn 0.0047 -0.0030 -1.0000
vn 0.3677 -0.9300 -0.0000
vn 0.1242 0.9923 -0.0000
vn 0.5902 0.8072 -0.0000
vn -0.9906 -0.1371 -0.0000
vn 0.9174 -0.3981 -0.0000
vn 0.3671 0.9302 -0.0000
vn 0.0044 0.0126 -0.9999
vn 0.9907 -0.1364 -0.0000
vn 0.7789 0.6272 -0.0000
vn 0.5908 -0.8068 -0.0000
vn -0.0017 -0.0225 -0.9997
vn -0.0044 -0.0126 -0.9999
vn 0.0046 0.0029 -1.0000
vn 0.0027 -0.0027 -1.0000
vn 0.0118 -0.0099 -0.9999
vn -0.5902 -0.8072 -0.0000
vn -0.3677 0.9299 -0.0000
vn -0.0118 -0.0100 -0.9999
vn -0.0027 -0.0027 -1.0000
vn -0.1249 0.9922 -0.0000
vn 0.0044 -0.0127 -0.9999
vn 0.0018 -0.0226 -0.9997
vn -0.7789 -0.6272 -0.0000
vn -0.5908 0.8068 -0.0000
vn -0.3671 -0.9302 -0.0000
vn 0.7793 -0.6266 -0.0000
vn -0.9907 0.1364 -0.0000
vn -0.7793 0.6266 -0.0000
vn 0.9906 0.1371 -0.0000
vn -0.1242 -0.9923 -0.0000
vn -0.0118 0.0099 -0.9999
vn 0.1249 -0.9922 -0.0000
vn -0.0046 -0.0029 -1.0000
vn -0.0018 0.0226 -0.9997
vn -0.9174 0.3981 -0.0000
vn -0.9171 -0.3987 -0.0000
vn -0.2370 0.0002 -0.9715
vn -0.1202 -0.3254 -0.9379
vn 0.2728 -0.0160 -0.9619
vn 0.2264 -0.2080 -0.9516
vn 0.0145 -0.3396 -0.9405
vn -0.1801 0.2705 -0.9457
vn 0.2761 0.1895 -0.9423
vn -0.0000 0.3050 -0.9524
vn 0.1804 0.2704 -0.9457
vn 0.2370 -0.0001 -0.9715
vn 0.2729 0.0159 -0.9619
vn 0.2264 0.2083 -0.9515
vn -0.2759 0.1894 -0.9423
vn -0.2728 0.0160 -0.9619
vn -0.0145 0.3396 -0.9405
vn -0.1201 0.3253 -0.9379
vn 0.1202 -0.3253 -0.9380
vn 0.2760 -0.1894 -0.9423
vn -0.2265 -0.2083 -0.9515
vn -0.0144 -0.3396 -0.9405
vn -0.0000 -0.3050 -0.9524
vn -0.1805 -0.2704 -0.9457
vn -0.2729 -0.0159 -0.9619
vn -0.2761 -0.1895 -0.9423
vn 0.1803 -0.2704 -0.9457
vn -0.2263 0.2080 -0.9516
vn 0.1201 0.3254 -0.9379
vn 0.0144 0.3396 -0.9405
vn -0.0000 0.4248 0.9053
vn -0.0000 0.1950 -0.9808
vn -0.0000 0.9137 -0.4064
vn -0.0000 -0.1950 0.9808
vn -0.0000 -0.5557 -0.8314
vn -0.6088 0.7933 -0.0000
vn -0.1305 0.9914 -0.0000
vn 0.9239 -0.3827 -0.0000
vn -0.1305 0.9915 -0.0000
vn -0.3827 0.9239 -0.0000
vn 0.9914 -0.1305 -0.0000
vn -0.1306 0.9914 -0.0000
vn -0.3826 0.9239 -0.0000
vn 0.9239 -0.3826 -0.0000
vn 0.9914 -0.1306 -0.0000
vn 0.9915 -0.1305 -0.0000
vn 0.7934 -0.6088 -0.0000
vn 0.7933 -0.6088 -0.0000
vn -0.9239 -0.3827 -0.0000
vn -0.9239 -0.3826 -0.0000
vn 0.7934 -0.6087 -0.0000
vn -0.9914 -0.1305 -0.0000
vn 0.6088 -0.7934 -0.0000
vn -0.7934 -0.6088 -0.0000
vn -0.9915 -0.1305 -0.0000
vn 0.6087 -0.7934 -0.0000
vn -0.7934 -0.6087 -0.0000
vn -0.6088 -0.7934 -0.0000
vn -0.9914 -0.1306 -0.0000
vn 0.6088 -0.7933 -0.0000
vn -0.7933 -0.6088 -0.0000
vn -0.6088 -0.7933 -0.0000
vn -0.6087 -0.7934 -0.0000
vn 0.3827 0.9239 -0.0000
vn -0.9914 0.1305 -0.0000
vn -0.9914 0.1306 -0.0000
vn 0.1305 0.9914 -0.0000
vn -0.9239 0.3827 -0.0000
vn 0.3826 0.9239 -0.0000
vn 0.1306 0.9914 -0.0000
vn -0.9915 0.1305 -0.0000
vn 0.7934 0.6088 -0.0000
vn 0.1305 0.9915 -0.0000
vn 0.7934 0.6087 -0.0000
vn -0.9239 0.3826 -0.0000
vn 0.7933 0.6088 -0.0000
vn 0.6088 0.7934 -0.0000
vn 0.6088 0.7933 -0.0000
vn -0.1305 -0.9914 -0.0000
vn 0.9914 0.1305 -0.0000
vn -0.1306 -0.9914 -0.0000
vn 0.6087 0.7934 -0.0000
vn 0.9915 0.1305 -0.0000
vn -0.3827 -0.9239 -0.0000
vn 0.9239 0.3827 -0.0000
vn -0.1305 -0.9915 -0.0000
vn 0.9914 0.1306 -0.0000
vn 0.9239 0.3826 -0.0000
vn -0.3826 -0.9239 -0.0000
vn -0.7934 0.6088 -0.0000
vn 0.3827 -0.9239 -0.0000
vn -0.7933 0.6088 -0.0000
vn 0.3826 -0.9239 -0.0000
vn 0.1305 -0.9914 -0.0000
vn -0.7934 0.6087 -0.0000
vn -0.6088 0.7934 -0.0000
vn 0.1305 -0.9915 -0.0000
vn -0.6087 0.7934 -0.0000
vn 0.1306 -0.9914 -0.0000
vn -0.0000 -0.8314 0.5557
vn -0.0000 0.9808 0.1950
vn -0.0000 -0.5555 0.8315
vn -0.0000 0.9808 -0.1952
vn -0.0000 -0.9808 -0.1950
vn -0.0000 0.8314 -0.5557
vn -0.0000 -0.8315 -0.5555
vn -0.0000 0.8315 0.5555
vn -0.0000 0.5557 0.8314
vn -0.0000 -0.1952 -0.9808
vn -0.0000 0.5555 -0.8315
vn -0.0000 -0.9808 0.1952
vn -0.0000 0.1952 0.9808
vn -0.0000 -0.5133 0.8582
vn -0.0000 -0.5133 -0.8582
vn -0.7307 -0.6696 0.1333
vn 0.7307 -0.6696 -0.1331
vn -0.7307 -0.6696 -0.1331
vn 0.7307 -0.6696 0.1333
vt 0.605469 0.593750
vt 0.496094 0.593750
vt 0.496094 0.605469
vt 0.531250 0.605469
vt 0.539062 0.605469
vt 0.550781 0.605469
vt 0.558594 0.605469
vt 0.566406 0.605469
vt 0.605469 0.605469
vt 0.019531 0.285156
vt 0.046875 0.285156
vt 0.046875 0.234375
vt 0.019531 0.234375
vt 0.675781 0.328125
vt 0.675781 0.605469
vt 0.640625 0.605469
vt 0.640625 0.328125
vt 0.460938 0.328125
vt 0.460938 0.605469
vt 0.019531 0.605469
vt 0.019531 0.593750
vt 0.019531 0.542969
vt 0.019531 0.382812
vt 0.019531 0.375000
vt 0.019531 0.371094
vt 0.019531 0.363281
vt 0.019531 0.355469
vt 0.019531 0.328125
vt 0.019531 0.675781
vt 0.460938 0.675781
vt 0.460938 0.640625
vt 0.019531 0.640625
vt 0.460938 0.820312
vt 0.402344 0.820312
vt 0.375000 0.820312
vt 0.347656 0.820312
vt 0.238281 0.820312
vt 0.128906 0.820312
vt 0.101562 0.820312
vt 0.074219 0.820312
vt 0.019531 0.820312
vt 0.019531 0.785156
vt 0.460938 0.785156
vt 0.460938 0.894531
vt 0.433594 0.894531
vt 0.046875 0.894531
vt 0.019531 0.894531
vt 0.019531 0.859375
vt 0.074219 0.859375
vt 0.101562 0.859375
vt 0.128906 0.859375
vt 0.238281 0.859375
vt 0.347656 0.859375
vt 0.375000 0.859375
vt 0.402344 0.859375
vt 0.460938 0.859375
vt 0.085938 0.832031
vt 0.019531 0.832031
vt 0.019531 0.750000
vt 0.238281 0.750000
vt 0.433594 0.750000
vt 0.460938 0.750000
vt 0.460938 0.714844
vt 0.019531 0.714844
vt 0.750000 0.542969
vt 0.750000 0.593750
vt 0.750000 0.605469
vt 0.714844 0.605469
vt 0.714844 0.328125
vt 0.750000 0.328125
vt 0.750000 0.339844
vt 0.750000 0.531250
vt 0.703125 0.605469
vt 0.695312 0.605469
vt 0.683594 0.605469
vt 0.496094 0.542969
vt 0.605469 0.542969
vt 0.605469 0.531250
vt 0.605469 0.464844
vt 0.605469 0.437500
vt 0.605469 0.382812
vt 0.578125 0.382812
vt 0.562500 0.382812
vt 0.550781 0.382812
vt 0.535156 0.382812
vt 0.523438 0.382812
vt 0.496094 0.382812
vt 0.363281 0.832031
vt 0.238281 0.832031
vt 0.363281 0.847656
vt 0.238281 0.847656
vt 0.238281 0.839844
vt 0.355469 0.839844
vt 0.085938 0.847656
vt 0.019531 0.847656
vt 0.019531 0.839844
vt 0.078125 0.839844
vt 0.117188 0.847656
vt 0.125000 0.839844
vt 0.509358 0.016858
vt 0.526601 0.016858
vt 0.526601 0.043178
vt 0.509358 0.043178
vt 0.375000 0.851562
vt 0.375000 0.828125
vt 0.509358 0.171876
vt 0.492115 0.171876
vt 0.492115 0.198196
vt 0.509358 0.198196
vt 0.117188 0.832031
vt 0.966269 0.324333
vt 0.976651 0.324333
vt 0.976651 0.353345
vt 0.966269 0.353345
vt 0.101562 0.851562
vt 0.790698 0.016858
vt 0.806333 0.016858
vt 0.806333 0.043178
vt 0.790698 0.043178
vt 0.101562 0.828125
vt 0.460938 0.839844
vt 0.398438 0.839844
vt 0.390625 0.832031
vt 0.460938 0.832031
vt 0.390625 0.847656
vt 0.460938 0.847656
vt 0.894531 0.093750
vt 0.886719 0.093750
vt 0.886719 0.125000
vt 0.894531 0.125000
vt 0.806333 0.171876
vt 0.790698 0.171876
vt 0.790698 0.198196
vt 0.806333 0.198196
vt 0.955888 0.324333
vt 0.955888 0.353345
vt 0.957031 0.097656
vt 0.949219 0.097656
vt 0.949219 0.125000
vt 0.957031 0.125000
vt 0.949219 0.160156
vt 0.957031 0.160156
vt 0.775063 0.198196
vt 0.764090 0.232207
vt 0.778609 0.236100
vt 0.793129 0.239994
vt 0.917969 0.867188
vt 0.929688 0.867188
vt 0.929688 0.914062
vt 0.917969 0.914062
vt 0.906250 0.867188
vt 0.906250 0.914062
vt 0.793129 0.084976
vt 0.778609 0.081082
vt 0.775063 0.043178
vt 0.764090 0.077189
vt 0.937500 0.125000
vt 0.937500 0.160156
vt 0.906250 0.839844
vt 0.917969 0.839844
vt 0.906250 0.093750
vt 0.906250 0.125000
vt 0.492115 0.016858
vt 0.492115 0.043178
vt 0.775063 0.171876
vt 0.937500 0.097656
vt 0.775063 0.016858
vt 0.526601 0.171876
vt 0.526601 0.198196
vt 0.929688 0.839844
vt 0.937500 0.800781
vt 0.941406 0.789062
vt 0.910156 0.789062
vt 0.906250 0.800781
vt 0.867188 0.789062
vt 0.867188 0.800781
vt 0.820312 0.789062
vt 0.820312 0.800781
vt 0.769531 0.789062
vt 0.773438 0.800781
vt 0.726562 0.789062
vt 0.730469 0.800781
vt 0.695312 0.789062
vt 0.703125 0.800781
vt 0.966269 0.388593
vt 0.955881 0.390506
vt 0.746739 0.108157
vt 0.735966 0.100840
vt 0.701680 0.124401
vt 0.696126 0.115003
vt 0.650028 0.129816
vt 0.650028 0.119691
vt 0.598376 0.124401
vt 0.604067 0.114771
vt 0.553317 0.108157
vt 0.564630 0.100473
vt 0.521447 0.081082
vt 0.537072 0.076892
vt 0.757511 0.115473
vt 0.707235 0.133799
vt 0.650028 0.139941
vt 0.592684 0.134031
vt 0.542005 0.115840
vt 0.505821 0.085272
vt 0.797924 0.920296
vt 0.804436 0.930543
vt 0.764189 0.930543
vt 0.759357 0.920303
vt 0.707409 0.930543
vt 0.704918 0.920310
vt 0.642975 0.930543
vt 0.642975 0.920317
vt 0.578330 0.930543
vt 0.580883 0.920324
vt 0.520934 0.930543
vt 0.526008 0.920331
vt 0.479821 0.930543
vt 0.486829 0.920337
vt 0.886719 0.171875
vt 0.894531 0.171875
vt 0.797924 0.940789
vt 0.759357 0.940783
vt 0.704918 0.940776
vt 0.642975 0.940769
vt 0.580883 0.940762
vt 0.526008 0.940755
vt 0.486829 0.940748
vt 0.906250 0.171875
vt 0.746739 0.263174
vt 0.757511 0.270491
vt 0.701680 0.279419
vt 0.707235 0.288817
vt 0.650028 0.284834
vt 0.650028 0.294959
vt 0.598376 0.279419
vt 0.592684 0.289049
vt 0.553317 0.263174
vt 0.542005 0.270858
vt 0.521447 0.236100
vt 0.505821 0.240290
vt 0.735966 0.255857
vt 0.696126 0.270021
vt 0.650028 0.274709
vt 0.604067 0.269789
vt 0.564630 0.255491
vt 0.537072 0.231910
vt 0.941406 0.812500
vt 0.910156 0.812500
vt 0.867188 0.812500
vt 0.820312 0.812500
vt 0.769531 0.812500
vt 0.726562 0.812500
vt 0.695312 0.812500
vt 0.976658 0.390506
vt 0.358530 0.208161
vt 0.335512 0.211043
vt 0.335938 0.222656
vt 0.359375 0.222656
vt 0.019531 0.019531
vt 0.019531 0.031250
vt 0.238281 0.031250
vt 0.238281 0.019531
vt 0.460938 0.222656
vt 0.433594 0.222656
vt 0.433594 0.234375
vt 0.460938 0.234375
vt 0.238281 0.222656
vt 0.128906 0.222656
vt 0.121094 0.222656
vt 0.109375 0.222656
vt 0.097656 0.222656
vt 0.089844 0.222656
vt 0.078125 0.222656
vt 0.066406 0.222656
vt 0.058594 0.222656
vt 0.046875 0.222656
vt 0.019531 0.222656
vt 0.238281 0.234375
vt 0.433594 0.019531
vt 0.433594 0.031250
vt 0.460938 0.031250
vt 0.460938 0.019531
vt 0.460938 0.292969
vt 0.460938 0.285156
vt 0.433594 0.285156
vt 0.433594 0.292969
vt 0.144531 0.074219
vt 0.089844 0.074219
vt 0.097656 0.074219
vt 0.101562 0.074219
vt 0.128906 0.074219
vt 0.136719 0.074219
vt 0.261719 0.031250
vt 0.289062 0.031250
vt 0.312500 0.031250
vt 0.335938 0.031250
vt 0.359375 0.031250
vt 0.382812 0.031250
vt 0.406250 0.031250
vt 0.406250 0.222656
vt 0.382812 0.222656
vt 0.312500 0.222656
vt 0.289062 0.222656
vt 0.261719 0.222656
vt 0.433594 0.054688
vt 0.433594 0.078125
vt 0.433594 0.101562
vt 0.433594 0.125000
vt 0.433594 0.148438
vt 0.433594 0.175781
vt 0.433594 0.199219
vt 0.272637 0.186183
vt 0.238281 0.199219
vt 0.046875 0.292969
vt 0.019531 0.292969
vt 0.957015 0.581728
vt 0.957015 0.625355
vt 0.962168 0.625355
vt 0.962168 0.581728
vt 0.250000 0.105469
vt 0.238281 0.101562
vt 0.238281 0.125000
vt 0.246094 0.125000
vt 0.272681 0.066250
vt 0.238281 0.054688
vt 0.238281 0.074219
vt 0.238281 0.078125
vt 0.258541 0.083809
vt 0.312496 0.208145
vt 0.291051 0.199666
vt 0.250000 0.148438
vt 0.238281 0.148438
vt 0.238281 0.156250
vt 0.238281 0.175781
vt 0.258511 0.168615
vt 0.398405 0.186224
vt 0.379982 0.199695
vt 0.421436 0.148215
vt 0.412545 0.168665
vt 0.425781 0.125000
vt 0.835938 0.277344
vt 0.835938 0.257812
vt 0.851562 0.257812
vt 0.851562 0.277344
vt 0.917969 0.691406
vt 0.894531 0.691406
vt 0.894531 0.707031
vt 0.917969 0.707031
vt 0.871094 0.742188
vt 0.894531 0.742188
vt 0.894531 0.757812
vt 0.871094 0.757812
vt 0.917969 0.742188
vt 0.937500 0.742188
vt 0.937500 0.757812
vt 0.917969 0.757812
vt 0.835938 0.054688
vt 0.835938 0.078125
vt 0.851562 0.078125
vt 0.851562 0.054688
vt 0.835938 0.210938
vt 0.835938 0.187500
vt 0.851562 0.187500
vt 0.851562 0.210938
vt 0.835938 0.234375
vt 0.851562 0.234375
vt 0.835938 0.296875
vt 0.851562 0.296875
vt 0.937500 0.691406
vt 0.937500 0.707031
vt 0.358590 0.044329
vt 0.380035 0.052808
vt 0.335574 0.041431
vt 0.398449 0.066291
vt 0.412575 0.083860
vt 0.421452 0.104316
vt 0.824219 0.691406
vt 0.804688 0.691406
vt 0.804688 0.707031
vt 0.824219 0.707031
vt 0.824219 0.742188
vt 0.847656 0.742188
vt 0.847656 0.757812
vt 0.824219 0.757812
vt 0.291104 0.052779
vt 0.312555 0.044314
vt 0.835938 0.015625
vt 0.835938 0.035156
vt 0.851562 0.035156
vt 0.851562 0.015625
vt 0.804688 0.742188
vt 0.804688 0.757812
vt 0.847656 0.691406
vt 0.847656 0.707031
vt 0.835938 0.167969
vt 0.851562 0.167969
vt 0.835938 0.101562
vt 0.851562 0.101562
vt 0.835938 0.125000
vt 0.835938 0.140625
vt 0.851562 0.140625
vt 0.851562 0.125000
vt 0.871094 0.691406
vt 0.871094 0.707031
vt 0.603848 0.693509
vt 0.584207 0.693509
vt 0.584226 0.724026
vt 0.603862 0.724026
vt 0.564567 0.693509
vt 0.544926 0.693509
vt 0.544954 0.724026
vt 0.564590 0.724026
vt 0.560711 0.640222
vt 0.538767 0.648882
vt 0.544898 0.662993
vt 0.564543 0.662993
vt 0.672107 0.701602
vt 0.623488 0.693509
vt 0.623498 0.724026
vt 0.675198 0.724056
vt 0.648575 0.662705
vt 0.629739 0.648912
vt 0.623479 0.662993
vt 0.663026 0.680676
vt 0.607801 0.640238
vt 0.584257 0.637274
vt 0.584189 0.662993
vt 0.603834 0.662993
vt 0.564613 0.754543
vt 0.544981 0.754543
vt 0.545009 0.785059
vt 0.564636 0.785059
vt 0.672090 0.746508
vt 0.623507 0.754543
vt 0.623516 0.785059
vt 0.662994 0.767428
vt 0.603876 0.754543
vt 0.584244 0.754543
vt 0.584263 0.785059
vt 0.603889 0.785059
vt 0.629685 0.799170
vt 0.648531 0.785390
vt 0.496345 0.746450
vt 0.505426 0.767376
vt 0.493253 0.723996
vt 0.560650 0.807814
vt 0.584194 0.810778
vt 0.538712 0.799140
vt 0.519921 0.662662
vt 0.505457 0.680624
vt 0.496361 0.701544
vt 0.519876 0.785348
vt 0.607741 0.807830
vt 0.238281 0.238281
vt 0.429688 0.238281
vt 0.050781 0.238281
vt 0.429688 0.281250
vt 0.050781 0.281250
vt 0.496018 0.843525
vt 0.496018 0.887153
vt 0.873733 0.887153
vt 0.873733 0.843525
vt 0.685022 0.843525
vt 0.019531 0.968750
vt 0.398438 0.968750
vt 0.398438 0.972656
vt 0.019531 0.972656
vt 0.398438 0.929688
vt 0.207031 0.929688
vt 0.207031 0.933594
vt 0.398438 0.933594
vt 0.960938 0.886719
vt 0.960938 0.843750
vt 0.964844 0.843750
vt 0.964844 0.886719
vt 0.019531 0.929688
vt 0.019531 0.933594
vt 0.046875 0.214844
vt 0.046875 0.207031
vt 0.046875 0.199219
vt 0.046875 0.187500
vt 0.046875 0.179688
vt 0.046875 0.171875
vt 0.046875 0.164062
vt 0.046875 0.156250
vt 0.019531 0.156250
vt 0.183594 0.125000
vt 0.175781 0.125000
vt 0.171875 0.125000
vt 0.164062 0.125000
vt 0.156250 0.125000
vt 0.148438 0.125000
vt 0.144531 0.125000
vt 0.136719 0.125000
vt 0.128906 0.125000
vt 0.101562 0.125000
vt 0.097656 0.125000
vt 0.089844 0.125000
vt 0.082031 0.125000
vt 0.074219 0.125000
vt 0.066406 0.125000
vt 0.058594 0.125000
vt 0.054688 0.125000
vt 0.046875 0.125000
vt 0.019531 0.125000
vt 0.058594 0.156250
vt 0.066406 0.156250
vt 0.078125 0.156250
vt 0.089844 0.156250
vt 0.097656 0.156250
vt 0.109375 0.156250
vt 0.121094 0.156250
vt 0.128906 0.156250
vt 0.183594 0.074219
vt 0.183594 0.078125
vt 0.183594 0.085938
vt 0.183594 0.093750
vt 0.183594 0.097656
vt 0.183594 0.105469
vt 0.183594 0.113281
vt 0.183594 0.121094
vt 0.128906 0.164062
vt 0.128906 0.171875
vt 0.128906 0.179688
vt 0.128906 0.187500
vt 0.128906 0.199219
vt 0.128906 0.207031
vt 0.128906 0.214844
vt 0.065756 0.166042
vt 0.057833 0.082723
vt 0.054688 0.074219
vt 0.046875 0.074219
vt 0.046875 0.078125
vt 0.046875 0.121094
vt 0.046875 0.113281
vt 0.046875 0.105469
vt 0.046875 0.097656
vt 0.046875 0.093750
vt 0.046875 0.085938
vt 0.019531 0.074219
vt 0.128906 0.085938
vt 0.128906 0.078125
vt 0.101562 0.078125
vt 0.101562 0.085938
vt 0.140517 0.082957
vt 0.134444 0.105618
vt 0.133645 0.099546
vt 0.128906 0.097656
vt 0.128906 0.105469
vt 0.163178 0.076886
vt 0.164062 0.074219
vt 0.156250 0.074219
vt 0.157106 0.076086
vt 0.128906 0.113281
vt 0.101562 0.097656
vt 0.101562 0.105469
vt 0.101562 0.113281
vt 0.051672 0.105723
vt 0.050860 0.099560
vt 0.080831 0.076560
vt 0.082031 0.074219
vt 0.074219 0.074219
vt 0.074669 0.075749
vt 0.057320 0.197524
vt 0.056210 0.189088
vt 0.097237 0.157607
vt 0.088802 0.156496
vt 0.171875 0.074219
vt 0.058594 0.074219
vt 0.066406 0.074219
vt 0.019531 0.046875
vt 0.019531 0.050781
vt 0.019531 0.058594
vt 0.019531 0.066406
vt 0.175781 0.074219
vt 0.111848 0.166042
vt 0.105098 0.160863
vt 0.065756 0.212134
vt 0.060576 0.205384
vt 0.091506 0.082722
vt 0.086574 0.078938
vt 0.057835 0.116396
vt 0.054051 0.111465
vt 0.128906 0.121094
vt 0.101562 0.121094
vt 0.173695 0.082958
vt 0.168836 0.079230
vt 0.605469 0.375000
vt 0.578125 0.375000
vt 0.578125 0.378906
vt 0.552387 0.375017
vt 0.554400 0.373671
vt 0.555745 0.371657
vt 0.578125 0.371094
vt 0.556218 0.369282
vt 0.140515 0.116135
vt 0.136787 0.111276
vt 0.554688 0.988281
vt 0.554688 0.984375
vt 0.550781 0.984375
vt 0.550781 0.988281
vt 0.523438 0.378906
vt 0.523438 0.375000
vt 0.496094 0.375000
vt 0.134444 0.093474
vt 0.136788 0.087816
vt 0.128906 0.093750
vt 0.523438 0.371094
vt 0.496094 0.371094
vt 0.151034 0.076885
vt 0.148438 0.074219
vt 0.145376 0.079229
vt 0.101562 0.093750
vt 0.051671 0.093398
vt 0.054049 0.087655
vt 0.605469 0.371094
vt 0.605469 0.363281
vt 0.578125 0.363281
vt 0.578125 0.367188
vt 0.068507 0.076560
vt 0.062764 0.078939
vt 0.057320 0.180653
vt 0.060576 0.172792
vt 0.555745 0.366907
vt 0.554399 0.364894
vt 0.080366 0.157607
vt 0.072506 0.160863
vt 0.785156 0.664062
vt 0.714844 0.664062
vt 0.714844 0.656250
vt 0.722656 0.656250
vt 0.777344 0.656250
vt 0.785156 0.656250
vt 0.552386 0.363548
vt 0.578125 0.359375
vt 0.578125 0.355469
vt 0.562500 0.355469
vt 0.593750 0.976562
vt 0.593750 0.984375
vt 0.589844 0.984375
vt 0.589844 0.976562
vt 0.523438 0.367188
vt 0.523438 0.363281
vt 0.496094 0.363281
vt 0.523438 0.359375
vt 0.523438 0.355469
vt 0.496094 0.355469
vt 0.554688 0.976562
vt 0.554688 0.972656
vt 0.550781 0.972656
vt 0.550781 0.976562
vt 0.535156 0.355469
vt 0.550781 0.355469
vt 0.605469 0.355469
vt 0.605469 0.339844
vt 0.605469 0.328125
vt 0.566406 0.328125
vt 0.531250 0.328125
vt 0.496094 0.328125
vt 0.547635 0.363549
vt 0.550010 0.363076
vt 0.414062 0.976562
vt 0.417969 0.976562
vt 0.417969 0.984375
vt 0.414062 0.984375
vt 0.082031 0.218750
vt 0.072506 0.217314
vt 0.900792 0.202931
vt 0.909670 0.202931
vt 0.909670 0.211675
vt 0.900792 0.211675
vt 0.773438 0.953125
vt 0.785156 0.953125
vt 0.785156 0.960938
vt 0.773438 0.960938
vt 0.507812 0.953125
vt 0.515625 0.953125
vt 0.515625 0.960938
vt 0.507812 0.960938
vt 0.120283 0.197524
vt 0.117027 0.205384
vt 0.121394 0.189088
vt 0.111848 0.212134
vt 0.105098 0.217314
vt 0.097656 0.218750
vt 0.433594 0.937500
vt 0.433594 0.933594
vt 0.441406 0.933594
vt 0.441406 0.937500
vt 0.892520 0.202931
vt 0.892520 0.211675
vt 0.117027 0.172792
vt 0.765625 0.953125
vt 0.765625 0.960938
vt 0.120283 0.180653
vt 0.421875 0.976562
vt 0.429688 0.976562
vt 0.429688 0.984375
vt 0.421875 0.984375
vt 0.500000 0.953125
vt 0.500000 0.960938
vt 0.664062 0.953125
vt 0.667969 0.953125
vt 0.667969 0.960938
vt 0.664062 0.960938
vt 0.433594 0.945312
vt 0.441406 0.945312
vt 0.656250 0.953125
vt 0.656250 0.960938
vt 0.789062 0.953125
vt 0.789062 0.960938
vt 0.433594 0.929688
vt 0.441406 0.929688
vt 0.726562 0.953125
vt 0.718750 0.953125
vt 0.718750 0.960938
vt 0.726562 0.960938
vt 0.967453 0.022281
vt 0.967453 0.028324
vt 0.976197 0.028324
vt 0.976197 0.022281
vt 0.675781 0.953125
vt 0.675781 0.960938
vt 0.710938 0.953125
vt 0.710938 0.960938
vt 0.589844 0.953125
vt 0.582031 0.953125
vt 0.582031 0.960938
vt 0.589844 0.960938
vt 0.734375 0.953125
vt 0.734375 0.960938
vt 0.628906 0.953125
vt 0.625000 0.953125
vt 0.625000 0.960938
vt 0.628906 0.960938
vt 0.967453 0.034810
vt 0.976197 0.034810
vt 0.492188 0.953125
vt 0.488281 0.953125
vt 0.488281 0.960938
vt 0.492188 0.960938
vt 0.967453 0.017091
vt 0.976197 0.017091
vt 0.546875 0.953125
vt 0.539062 0.953125
vt 0.539062 0.960938
vt 0.546875 0.960938
vt 0.617188 0.953125
vt 0.617188 0.960938
vt 0.492188 0.976562
vt 0.488281 0.976562
vt 0.488281 0.984375
vt 0.492188 0.984375
vt 0.068509 0.122558
vt 0.062766 0.120180
vt 0.074672 0.123369
vt 0.632812 0.953125
vt 0.632812 0.960938
vt 0.464844 0.953125
vt 0.457031 0.953125
vt 0.457031 0.960938
vt 0.464844 0.960938
vt 0.460938 0.976562
vt 0.457031 0.976562
vt 0.457031 0.984375
vt 0.460938 0.984375
vt 0.097669 0.105720
vt 0.095291 0.111463
vt 0.098480 0.099557
vt 0.091508 0.116394
vt 0.086576 0.120178
vt 0.080834 0.122557
vt 0.918547 0.202931
vt 0.926819 0.202931
vt 0.926819 0.211675
vt 0.918547 0.211675
vt 0.699219 0.953125
vt 0.699219 0.960938
vt 0.095290 0.087653
vt 0.519531 0.953125
vt 0.527344 0.953125
vt 0.527344 0.960938
vt 0.519531 0.960938
vt 0.097669 0.093395
vt 0.967453 0.041295
vt 0.976197 0.041295
vt 0.691406 0.953125
vt 0.691406 0.960938
vt 0.437500 0.976562
vt 0.441406 0.976562
vt 0.441406 0.984375
vt 0.437500 0.984375
vt 0.609375 0.953125
vt 0.609375 0.960938
vt 0.967453 0.047338
vt 0.976197 0.047338
vt 0.742188 0.953125
vt 0.750000 0.953125
vt 0.750000 0.960938
vt 0.742188 0.960938
vt 0.433594 0.964844
vt 0.433594 0.957031
vt 0.441406 0.957031
vt 0.441406 0.964844
vt 0.605469 0.953125
vt 0.605469 0.960938
vt 0.640625 0.953125
vt 0.644531 0.953125
vt 0.644531 0.960938
vt 0.640625 0.960938
vt 0.933923 0.202931
vt 0.933923 0.211675
vt 0.531250 0.953125
vt 0.531250 0.960938
vt 0.562500 0.953125
vt 0.554688 0.953125
vt 0.554688 0.960938
vt 0.562500 0.960938
vt 0.757812 0.953125
vt 0.757812 0.960938
vt 0.476562 0.953125
vt 0.468750 0.953125
vt 0.468750 0.960938
vt 0.476562 0.960938
vt 0.449219 0.976562
vt 0.449219 0.984375
vt 0.433594 0.953125
vt 0.441406 0.953125
vt 0.151032 0.122208
vt 0.145374 0.119864
vt 0.157104 0.123007
vt 0.472656 0.976562
vt 0.468750 0.976562
vt 0.468750 0.984375
vt 0.472656 0.984375
vt 0.648438 0.953125
vt 0.648438 0.960938
vt 0.179766 0.105620
vt 0.177422 0.111278
vt 0.180566 0.099548
vt 0.173694 0.116137
vt 0.168835 0.119865
vt 0.163176 0.122208
vt 0.177423 0.087817
vt 0.179767 0.093476
vt 0.683594 0.953125
vt 0.683594 0.960938
vt 0.574219 0.953125
vt 0.574219 0.960938
vt 0.967453 0.052528
vt 0.976197 0.052528
vt 0.480469 0.953125
vt 0.480469 0.960938
vt 0.597656 0.953125
vt 0.597656 0.960938
vt 0.480469 0.976562
vt 0.480469 0.984375
vt 0.885416 0.202931
vt 0.885416 0.211675
vt 0.496094 0.953125
vt 0.496094 0.960938
vt 0.916958 0.048159
vt 0.916958 0.041481
vt 0.910088 0.041482
vt 0.910088 0.048160
vt 0.917505 0.276072
vt 0.917505 0.269391
vt 0.910439 0.269392
vt 0.910439 0.276074
vt 0.750887 0.732501
vt 0.750887 0.724074
vt 0.740550 0.724074
vt 0.740550 0.732501
vt 0.750887 0.715648
vt 0.750887 0.707222
vt 0.740550 0.707222
vt 0.740550 0.715648
vt 0.772031 0.715639
vt 0.768775 0.707779
vt 0.761224 0.707222
vt 0.761224 0.715648
vt 0.748985 0.755556
vt 0.750887 0.740927
vt 0.740550 0.740927
vt 0.740550 0.756666
vt 0.763596 0.747120
vt 0.768775 0.740370
vt 0.761224 0.740927
vt 0.756846 0.752300
vt 0.772031 0.732510
vt 0.773142 0.724074
vt 0.761224 0.724074
vt 0.761224 0.732501
vt 0.732115 0.755556
vt 0.730213 0.740927
vt 0.719876 0.740927
vt 0.724254 0.752300
vt 0.730213 0.732501
vt 0.730213 0.724074
vt 0.719876 0.724074
vt 0.719876 0.732501
vt 0.917505 0.262709
vt 0.917505 0.256028
vt 0.910439 0.256028
vt 0.910439 0.262710
vt 0.933437 0.263228
vt 0.931058 0.257486
vt 0.924571 0.256027
vt 0.924571 0.262709
vt 0.916603 0.292390
vt 0.917505 0.282754
vt 0.910439 0.282755
vt 0.910440 0.293202
vt 0.927276 0.286227
vt 0.931060 0.281296
vt 0.924571 0.282752
vt 0.922345 0.290011
vt 0.933438 0.275553
vt 0.934249 0.269390
vt 0.924571 0.269390
vt 0.924571 0.276071
vt 0.904278 0.292391
vt 0.903373 0.282757
vt 0.896308 0.282758
vt 0.898535 0.290012
vt 0.903373 0.276075
vt 0.903373 0.269393
vt 0.896307 0.269394
vt 0.896307 0.276076
vt 0.916958 0.034802
vt 0.916958 0.028124
vt 0.910088 0.028124
vt 0.910088 0.034803
vt 0.932750 0.035411
vt 0.930406 0.029752
vt 0.923827 0.028123
vt 0.923827 0.034801
vt 0.916159 0.064143
vt 0.916958 0.054837
vt 0.910088 0.054839
vt 0.910087 0.064942
vt 0.926677 0.058071
vt 0.930405 0.053213
vt 0.923828 0.054836
vt 0.921818 0.061799
vt 0.932749 0.047554
vt 0.933549 0.041483
vt 0.923827 0.041480
vt 0.923827 0.048158
vt 0.904015 0.064142
vt 0.903219 0.054840
vt 0.896349 0.054842
vt 0.898357 0.061798
vt 0.903219 0.048161
vt 0.903219 0.041483
vt 0.896349 0.041484
vt 0.896349 0.048163
vt 0.903219 0.034804
vt 0.903219 0.028125
vt 0.896349 0.028125
vt 0.896349 0.034804
vt 0.903373 0.262711
vt 0.903373 0.256029
vt 0.896307 0.256029
vt 0.896307 0.262712
vt 0.730213 0.715648
vt 0.730213 0.707222
vt 0.719876 0.707222
vt 0.719876 0.715648
vt 0.732115 0.692593
vt 0.724254 0.695849
vt 0.740550 0.691483
vt 0.709069 0.715639
vt 0.707958 0.724075
vt 0.712325 0.707779
vt 0.712325 0.740371
vt 0.717504 0.747120
vt 0.763596 0.701029
vt 0.756846 0.695849
vt 0.748985 0.692593
vt 0.709069 0.732510
vt 0.717504 0.701029
vt 0.904275 0.246394
vt 0.898533 0.248773
vt 0.910438 0.245582
vt 0.887440 0.263231
vt 0.886629 0.269393
vt 0.889818 0.257488
vt 0.889820 0.281298
vt 0.893604 0.286229
vt 0.927274 0.252555
vt 0.922343 0.248771
vt 0.916600 0.246393
vt 0.887441 0.275556
vt 0.893602 0.252557
vt 0.904017 0.018820
vt 0.898359 0.021164
vt 0.910089 0.018021
vt 0.887428 0.035409
vt 0.886628 0.041481
vt 0.889771 0.029750
vt 0.889771 0.053211
vt 0.893499 0.058070
vt 0.926678 0.024893
vt 0.921819 0.021165
vt 0.916161 0.018821
vt 0.887427 0.047553
vt 0.893500 0.024892
vt 0.545622 0.364895
vt 0.644531 0.976562
vt 0.644531 0.972656
vt 0.640625 0.972656
vt 0.640625 0.976562
vt 0.544277 0.371659
vt 0.543804 0.369284
vt 0.545623 0.373672
vt 0.511719 0.976562
vt 0.511719 0.980469
vt 0.507812 0.980469
vt 0.507812 0.976562
vt 0.544276 0.366908
vt 0.593750 0.972656
vt 0.589844 0.972656
vt 0.511719 0.984375
vt 0.507812 0.984375
vt 0.644531 0.988281
vt 0.644531 0.980469
vt 0.640625 0.980469
vt 0.640625 0.988281
vt 0.511719 0.992188
vt 0.507812 0.992188
vt 0.547636 0.375017
vt 0.550012 0.375490
vt 0.644531 0.992188
vt 0.640625 0.992188
vt 0.511719 0.972656
vt 0.507812 0.972656
vt 0.593750 0.988281
vt 0.593750 0.992188
vt 0.589844 0.992188
vt 0.589844 0.988281
vt 0.636719 0.972656
vt 0.636719 0.976562
vt 0.621094 0.976562
vt 0.621094 0.972656
vt 0.546875 0.980469
vt 0.546875 0.984375
vt 0.535156 0.984375
vt 0.535156 0.980469
vt 0.687500 0.988281
vt 0.687500 0.980469
vt 0.671875 0.980469
vt 0.671875 0.988281
vt 0.546875 0.992188
vt 0.535156 0.992188
vt 0.687500 0.992188
vt 0.671875 0.992188
vt 0.546875 0.972656
vt 0.546875 0.976562
vt 0.535156 0.976562
vt 0.535156 0.972656
vt 0.636719 0.988281
vt 0.636719 0.992188
vt 0.621094 0.992188
vt 0.621094 0.988281
vt 0.585938 0.984375
vt 0.585938 0.976562
vt 0.574219 0.976562
vt 0.574219 0.984375
vt 0.585938 0.992188
vt 0.585938 0.988281
vt 0.574219 0.988281
vt 0.574219 0.992188
vt 0.687500 0.976562
vt 0.671875 0.976562
vt 0.636719 0.984375
vt 0.621094 0.984375
vt 0.967282 0.194458
vt 0.963173 0.197205
vt 0.960428 0.201315
vt 0.959464 0.206162
vt 0.960429 0.211009
vt 0.963175 0.215119
vt 0.967285 0.217864
vt 0.972133 0.218828
vt 0.976980 0.217863
vt 0.981089 0.215117
vt 0.983835 0.211007
vt 0.984798 0.206159
vt 0.983833 0.201312
vt 0.981087 0.197203
vt 0.976977 0.194457
vt 0.972130 0.193494
vt 0.554688 0.992188
vt 0.550781 0.992188
vt 0.687500 0.972656
vt 0.671875 0.972656
vt 0.585938 0.972656
vt 0.574219 0.972656
vt 0.609375 0.984375
vt 0.609375 0.988281
vt 0.597656 0.988281
vt 0.597656 0.984375
vt 0.660156 0.980469
vt 0.660156 0.976562
vt 0.648438 0.976562
vt 0.648438 0.980469
vt 0.566406 0.992188
vt 0.566406 0.988281
vt 0.558594 0.988281
vt 0.558594 0.992188
vt 0.566406 0.984375
vt 0.566406 0.976562
vt 0.558594 0.976562
vt 0.558594 0.984375
vt 0.609375 0.992188
vt 0.597656 0.992188
vt 0.523438 0.972656
vt 0.523438 0.976562
vt 0.515625 0.976562
vt 0.515625 0.972656
vt 0.660156 0.992188
vt 0.660156 0.988281
vt 0.648438 0.988281
vt 0.648438 0.992188
vt 0.523438 0.984375
vt 0.523438 0.992188
vt 0.515625 0.992188
vt 0.515625 0.984375
vt 0.854492 0.335938
vt 0.846680 0.335938
vt 0.846680 0.613281
vt 0.854492 0.613281
vt 0.609375 0.972656
vt 0.609375 0.976562
vt 0.597656 0.976562
vt 0.597656 0.972656
vt 0.838867 0.335938
vt 0.838867 0.613281
vt 0.660156 0.972656
vt 0.648438 0.972656
vt 0.566406 0.972656
vt 0.558594 0.972656
vt 0.515625 0.980469
vt 0.838867 0.617188
vt 0.846680 0.617188
vt 0.854492 0.617188
vt 0.846680 0.628906
vt 0.838867 0.628906
vt 0.854492 0.628906
vt 0.973711 0.249386
vt 0.973711 0.253372
vt 0.968330 0.253372
vt 0.968330 0.249386
vt 0.973711 0.245400
vt 0.968330 0.245400
vt 0.979091 0.245400
vt 0.979091 0.249386
vt 0.979091 0.253372
s 0
g Radio_Material.005
usemtl Material.005
f 128/1/1 133/2/1 2/3/1 11/4/1 26/5/1 17/6/1 22/7/1 12/8/1 4/9/1
f 128/10/2 255/11/2 254/12/2 130/13/2
f 13/14/3 16/15/3 6/16/3 5/17/3
f 5/18/4 6/19/4 2/20/4 133/21/4 132/22/4 456/23/4 388/24/4 438/25/4 425/26/4 454/27/4 1/28/4
f 10/29/5 13/30/5 5/31/5 1/32/5
f 16/33/6 44/34/6 53/35/6 25/36/6 20/37/6 29/38/6 49/39/6 39/40/6 11/41/6 2/42/6 6/43/6
f 8/44/6 147/45/6 149/46/6 4/47/6 12/48/6 38/49/6 48/50/6 28/51/6 19/52/6 24/53/6 52/54/6 43/55/6 15/56/6
f 42/57/6 26/58/6 11/41/6 39/40/6
f 3/59/5 141/60/5 135/61/5 7/62/5 14/63/5 9/64/5
f 9/64/5 14/63/5 13/30/5 10/29/5
f 131/65/3 129/66/3 8/67/3 15/68/3 14/69/3 7/70/3 142/71/3 138/72/3
f 14/69/3 15/68/3 27/73/3 18/74/3 23/75/3 16/15/3 13/14/3
f 132/76/1 130/77/1 137/78/1 265/79/1 266/80/1 268/81/1 423/82/1 626/83/1 440/84/1 618/85/1 390/86/1 456/87/1
f 36/88/6 30/89/6 20/37/6 25/36/6
f 35/90/6 31/91/6 21/92/6 32/93/6
f 41/94/6 22/95/6 17/96/6 40/97/6
f 31/91/6 34/98/6 33/99/6 21/92/6
f 19/52/6 28/51/6 34/98/6 31/91/6
f 38/49/6 12/48/6 22/95/6 41/94/6
f 51/100/7 37/101/7 63/102/7 64/103/7
f 52/54/6 24/53/6 35/90/6 54/104/6
f 24/53/6 19/52/6 31/91/6 35/90/6
f 55/105/6 36/88/6 25/36/6 53/35/6
f 50/106/8 41/107/8 67/108/8 59/109/8
f 32/93/6 21/92/6 30/89/6 36/88/6
f 30/89/6 37/110/6 29/38/6 20/37/6
f 21/92/6 33/99/6 37/110/6 30/89/6
f 40/97/6 17/96/6 26/58/6 42/57/6
f 33/111/9 34/112/9 58/113/9 57/114/9
f 48/50/6 38/49/6 41/94/6 50/115/6
f 55/116/10 47/117/10 73/118/10 72/119/10
f 51/120/6 42/57/6 39/40/6 49/39/6
f 18/121/6 45/122/6 47/123/6 23/124/6
f 23/124/6 47/123/6 44/34/6 16/33/6
f 15/56/6 43/55/6 46/125/6 27/126/6
f 27/126/6 46/125/6 45/122/6 18/121/6
f 37/110/6 51/120/6 49/39/6 29/38/6
f 40/127/11 42/128/11 66/129/11 65/130/11
f 28/51/6 48/50/6 50/115/6 34/98/6
f 46/131/12 54/132/12 70/133/12 71/134/12
f 37/135/13 33/111/13 57/114/13 63/136/13
f 47/123/6 55/105/6 53/35/6 44/34/6
f 43/55/6 52/54/6 54/104/6 46/125/6
f 35/137/14 32/138/14 61/139/14 60/140/14
f 60/140/15 61/139/15 68/141/15 127/142/15
f 70/133/16 60/143/16 127/144/16 120/145/16
f 71/134/17 70/133/17 120/145/17 113/146/17
f 69/147/18 71/148/18 113/149/18 106/150/18
f 73/151/19 69/147/19 106/150/19 99/152/19
f 72/119/20 73/118/20 99/153/20 92/154/20
f 62/155/21 72/119/21 92/154/21 85/156/21
f 61/139/22 62/157/22 85/158/22 68/141/22
f 47/159/23 45/160/23 69/147/23 73/151/23
f 41/161/24 40/127/24 65/130/24 67/162/24
f 42/163/25 51/100/25 64/103/25 66/164/25
f 54/132/26 35/165/26 60/143/26 70/133/26
f 32/138/27 36/166/27 62/157/27 61/139/27
f 36/167/28 55/116/28 72/119/28 62/155/28
f 34/168/29 50/106/29 59/109/29 58/169/29
f 45/160/30 46/170/30 71/148/30 69/147/30
f 68/171/31 85/172/31 84/173/31 56/174/31
f 56/174/32 84/173/32 83/175/32 74/176/32
f 74/176/33 83/175/33 82/177/33 75/178/33
f 75/178/34 82/177/34 81/179/34 76/180/34
f 76/180/35 81/179/35 80/181/35 77/182/35
f 77/182/36 80/181/36 79/183/36 78/184/36
f 78/185/37 79/186/37 63/136/37 57/114/37
f 85/156/38 92/154/38 91/187/38 84/188/38
f 84/188/39 91/187/39 90/189/39 83/190/39
f 83/190/40 90/189/40 89/191/40 82/192/40
f 82/192/41 89/191/41 88/193/41 81/194/41
f 81/194/42 88/193/42 87/195/42 80/196/42
f 80/196/43 87/195/43 86/197/43 79/198/43
f 79/198/44 86/197/44 64/103/44 63/102/44
f 92/154/45 99/153/45 98/199/45 91/187/45
f 91/187/46 98/199/46 97/200/46 90/189/46
f 90/189/47 97/200/47 96/201/47 89/191/47
f 89/191/48 96/201/48 95/202/48 88/193/48
f 88/193/49 95/202/49 94/203/49 87/195/49
f 87/195/50 94/203/50 93/204/50 86/197/50
f 86/197/51 93/204/51 66/164/51 64/103/51
f 99/205/52 106/206/52 105/207/52 98/208/52
f 98/208/53 105/207/53 104/209/53 97/210/53
f 97/210/54 104/209/54 103/211/54 96/212/54
f 96/212/55 103/211/55 102/213/55 95/214/55
f 95/214/56 102/213/56 101/215/56 94/216/56
f 94/216/57 101/215/57 100/217/57 93/218/57
f 93/219/58 100/220/58 65/130/58 66/129/58
f 106/206/59 113/221/59 112/222/59 105/207/59
f 105/207/60 112/222/60 111/223/60 104/209/60
f 104/209/61 111/223/61 110/224/61 103/211/61
f 103/211/62 110/224/62 109/225/62 102/213/62
f 102/213/63 109/225/63 108/226/63 101/215/63
f 101/215/64 108/226/64 107/227/64 100/217/64
f 100/220/65 107/228/65 67/162/65 65/130/65
f 113/146/66 120/145/66 119/229/66 112/230/66
f 112/230/67 119/229/67 118/231/67 111/232/67
f 111/232/68 118/231/68 117/233/68 110/234/68
f 110/234/69 117/233/69 116/235/69 109/236/69
f 109/236/70 116/235/70 115/237/70 108/238/70
f 108/238/71 115/237/71 114/239/71 107/240/71
f 107/240/72 114/239/72 59/109/72 67/108/72
f 120/145/73 127/144/73 126/241/73 119/229/73
f 119/229/74 126/241/74 125/242/74 118/231/74
f 118/231/75 125/242/75 124/243/75 117/233/75
f 117/233/76 124/243/76 123/244/76 116/235/76
f 116/235/77 123/244/77 122/245/77 115/237/77
f 115/237/78 122/245/78 121/246/78 114/239/78
f 114/239/79 121/246/79 58/169/79 59/109/79
f 127/247/80 68/171/80 56/174/80 126/248/80
f 126/248/81 56/174/81 74/176/81 125/249/81
f 125/249/82 74/176/82 75/178/82 124/250/82
f 124/250/83 75/178/83 76/180/83 123/251/83
f 123/251/84 76/180/84 77/182/84 122/252/84
f 122/252/85 77/182/85 78/184/85 121/253/85
f 121/254/86 78/185/86 57/114/86 58/113/86
f 202/255/87 171/256/87 151/257/87 167/258/87
f 130/77/1 132/76/1 133/2/1 128/1/1
f 3/259/2 143/260/2 144/261/2 141/262/2
f 138/263/2 140/264/2 253/265/2 131/266/2
f 136/267/2 269/268/2 330/269/2 304/270/2 320/271/2 280/272/2 326/273/2 292/274/2 316/275/2 263/276/2 137/277/2 130/13/2 254/12/2 252/278/2
f 135/279/2 145/280/2 142/281/2 7/282/2
f 8/283/2 129/284/2 256/285/2 147/286/2
f 300/287/88 308/288/88 370/289/88 271/290/88 276/291/88 404/292/88
f 141/262/2 144/261/2 166/293/2 158/294/2 176/295/2 154/296/2 170/297/2 162/298/2 180/299/2 145/280/2 135/279/2
f 140/264/2 177/300/2 159/301/2 167/258/2 151/257/2 173/302/2 155/303/2 163/304/2 136/267/2 252/278/2 253/265/2
f 142/281/2 145/280/2 178/305/2 160/306/2 168/307/2 152/308/2 174/309/2 156/310/2 164/311/2 140/264/2 138/263/2
f 201/312/89 179/313/89 136/267/89 163/304/89
f 253/265/2 256/285/2 129/284/2 131/266/2
f 147/286/2 256/285/2 255/11/2 149/314/2
f 149/314/2 255/11/2 128/10/2 4/315/2
f 148/316/1 150/317/1 260/318/1 259/319/1
f 200/320/2 175/321/2 153/322/2 182/323/2
f 198/324/90 165/325/90 267/326/90 157/327/90 184/328/90
f 194/329/91 187/330/91 155/303/91 173/302/91
f 193/331/2 169/332/2 264/333/2 161/334/2 188/335/2
f 192/336/92 189/337/92 159/301/92 177/300/92
f 174/309/2 191/338/2 190/339/2 156/310/2
f 152/308/2 172/340/2 191/338/2 174/309/2
f 190/341/93 191/342/93 237/343/93 235/344/93
f 164/311/94 192/336/94 177/300/94 140/264/94
f 156/310/95 190/339/95 192/336/95 164/311/95
f 185/345/96 195/346/96 242/347/96 220/348/96
f 171/349/97 202/350/97 251/351/97 230/352/97
f 189/353/98 192/354/98 238/355/98 234/356/98
f 182/323/2 153/322/2 169/332/2 193/331/2
f 200/357/99 182/358/99 212/359/99 248/360/99
f 197/361/100 186/362/100 232/363/100 244/364/100
f 202/350/101 189/353/101 234/356/101 251/351/101
f 171/256/102 194/329/102 173/302/102 151/257/102
f 172/365/103 197/361/103 244/364/103 231/366/103
f 192/367/104 190/341/104 235/344/104 238/368/104
f 196/369/105 185/345/105 220/348/105 243/370/105
f 162/298/106 170/297/106 195/371/106 185/372/106
f 170/297/107 154/296/107 181/373/107 195/371/107
f 178/305/108 196/374/108 186/375/108 160/306/108
f 145/280/109 180/299/109 196/374/109 178/305/109
f 180/299/110 162/298/110 185/372/110 196/374/110
f 168/307/2 197/376/2 172/340/2 152/308/2
f 160/306/2 186/375/2 197/376/2 168/307/2
f 183/377/111 198/378/111 245/379/111 215/380/111
f 187/381/112 194/382/112 241/383/112 233/384/112
f 158/294/113 166/293/113 198/324/113 183/385/113
f 166/293/114 144/261/114 165/325/114 198/324/114
f 194/382/115 171/349/115 230/352/115 241/383/115
f 154/296/116 176/295/116 199/386/116 181/373/116
f 176/295/117 158/294/117 183/385/117 199/386/117
f 198/387/118 184/388/118 218/389/118 245/390/118
f 201/391/119 187/381/119 233/384/119 250/392/119
f 199/393/120 183/377/120 215/380/120 246/394/120
f 186/362/121 196/395/121 243/396/121 232/363/121
f 182/358/122 193/397/122 239/398/122 212/359/122
f 184/328/2 157/327/2 175/321/2 200/320/2
f 188/399/123 201/400/123 250/401/123 226/402/123
f 191/342/124 172/365/124 231/366/124 237/343/124
f 181/403/125 199/393/125 246/394/125 208/404/125
f 187/330/126 201/312/126 163/304/126 155/303/126
f 195/346/127 181/403/127 208/404/127 242/347/127
f 188/335/128 161/334/128 179/313/128 201/312/128
f 189/337/129 202/255/129 167/258/129 159/301/129
f 193/397/130 188/399/130 226/402/130 239/398/130
f 184/388/131 200/357/131 248/360/131 218/389/131
f 249/405/2 203/406/2 204/407/2 210/408/2
f 247/409/132 214/410/132 213/411/132 205/412/132
f 246/413/133 215/414/133 216/415/133 217/416/133
f 244/417/134 219/418/134 211/419/134 231/420/134
f 243/421/135 220/422/135 221/423/135 232/424/135
f 242/425/136 208/426/136 209/427/136 222/428/136
f 240/429/137 223/430/137 224/431/137 225/432/137
f 237/433/138 227/434/138 228/435/138 235/436/138
f 236/437/139 206/438/139 207/439/139 229/440/139
f 227/434/140 236/437/140 229/440/140 228/435/140
f 211/419/141 210/408/141 236/437/141 227/434/141
f 210/408/2 204/407/2 206/438/2 236/437/2
f 231/420/142 211/419/142 227/434/142 237/433/142
f 235/436/143 228/435/143 234/441/143 238/442/143
f 223/430/144 239/443/144 226/444/144 224/431/144
f 213/411/145 212/445/145 239/443/145 223/430/145
f 206/438/139 240/429/139 225/432/139 207/439/139
f 204/407/2 205/412/2 240/429/2 206/438/2
f 205/412/132 213/411/132 223/430/132 240/429/132
f 207/439/146 225/432/146 241/446/146 230/447/146
f 225/432/147 224/431/147 233/448/147 241/446/147
f 220/422/148 242/425/148 222/428/148 221/423/148
f 232/424/149 221/423/149 219/418/149 244/417/149
f 215/414/150 245/449/150 218/450/150 216/415/150
f 208/426/151 246/413/151 217/416/151 209/427/151
f 203/406/2 247/409/2 205/412/2 204/407/2
f 209/427/152 217/416/152 247/409/152 203/406/152
f 217/416/153 216/415/153 214/410/153 247/409/153
f 214/410/154 248/451/154 212/445/154 213/411/154
f 216/415/155 218/450/155 248/451/155 214/410/155
f 219/418/141 249/405/141 210/408/141 211/419/141
f 221/423/156 222/428/156 249/405/156 219/418/156
f 222/428/152 209/427/152 203/406/152 249/405/152
f 224/431/157 226/444/157 250/452/157 233/448/157
f 228/435/158 229/440/158 251/453/158 234/441/158
f 229/440/159 207/439/159 230/447/159 251/453/159
f 139/454/2 134/455/2 253/265/2 252/278/2
f 148/456/2 139/454/2 252/278/2 254/12/2
f 146/457/2 150/458/2 255/11/2 256/285/2
f 134/455/2 146/457/2 256/285/2 253/265/2
f 150/458/2 148/456/2 254/12/2 255/11/2
f 259/459/2 260/460/2 261/461/2 258/462/2 257/463/2
f 150/464/6 146/465/6 261/466/6 260/467/6
f 134/468/5 139/469/5 257/470/5 258/471/5
f 146/472/3 134/473/3 258/474/3 261/475/3
f 139/469/5 148/476/5 259/477/5 257/470/5
f 263/276/2 331/478/2 305/479/2 321/480/2 281/481/2 327/482/2 293/483/2 317/484/2 262/485/2 265/486/2 137/277/2
f 153/322/2 277/487/2 419/488/2 311/489/2 407/490/2 287/491/2 415/492/2 299/493/2 403/494/2 275/495/2 272/496/2 371/497/2 309/498/2 361/499/2 285/500/2 367/501/2 297/502/2 357/503/2 274/504/2 266/505/2 265/486/2 262/485/2 315/506/2 291/507/2 325/508/2 279/509/2 319/510/2 303/511/2 329/512/2 270/513/2 264/333/2 169/332/2
f 267/326/2 278/514/2 406/515/2 302/516/2 418/517/2 290/518/2 410/519/2 314/520/2 422/521/2 277/487/2 153/322/2 175/321/2 157/327/2
f 264/333/2 270/513/2 318/522/2 294/523/2 328/524/2 282/525/2 322/526/2 306/527/2 332/528/2 269/268/2 136/267/2 179/313/2 161/334/2
f 354/529/2 315/506/2 262/485/2 317/484/2
f 402/530/2 356/531/2 273/532/2 358/533/2
f 274/504/2 372/534/2 310/535/2 362/536/2 286/537/2 368/538/2 298/539/2 358/533/2 273/532/2 268/540/2 266/505/2
f 301/541/2 405/542/2 276/291/2 271/290/2 355/543/2 295/544/2
f 458/545/2 404/292/2 276/291/2 405/542/2
f 457/546/2 411/547/2 289/548/2 409/549/2
f 455/550/2 408/551/2 288/552/2 426/553/2
f 313/554/2 409/549/2 289/548/2 283/555/2 359/556/2 307/557/2
f 401/558/2 363/559/2 286/537/2 362/536/2
f 399/560/2 360/561/2 284/562/2 374/563/2
f 353/564/2 323/565/2 281/481/2 321/480/2
f 352/566/2 319/510/2 279/509/2 334/567/2
f 312/568/160 296/569/160 366/570/160 284/562/160 288/552/160 408/551/160
f 144/261/2 143/260/2 446/571/2 398/572/2 441/573/2 414/574/2 268/540/2 273/532/2 356/531/2 296/569/2 312/568/2 420/575/2 278/514/2 267/326/2 165/325/2
f 350/576/2 329/512/2 303/511/2 336/577/2
f 346/578/2 339/579/2 305/479/2 331/478/2
f 396/580/2 370/289/2 308/288/2 376/581/2
f 392/582/2 379/583/2 310/535/2 372/534/2
f 275/495/2 421/584/2 313/554/2 307/557/2 369/585/2 272/496/2
f 452/586/2 420/575/2 312/568/2 430/587/2
f 423/82/1 268/81/1 414/588/1 380/589/1 607/590/1
f 635/591/1 607/590/1 380/589/1 606/592/1
f 634/593/1 608/594/1 434/594/1 623/595/1
f 448/596/2 435/597/2 313/554/2 421/584/2
f 694/598/161 679/599/161 642/600/161 655/601/161
f 456/87/1 390/86/1 610/602/1 382/603/1 388/604/1
f 445/605/2 439/606/2 301/541/2 417/607/2
f 388/604/1 382/603/1 611/608/1 431/608/1 438/609/1
f 443/610/2 416/611/2 300/287/2 442/612/2
f 289/548/2 417/607/2 301/541/2 295/544/2 365/613/2 283/555/2
f 389/614/2 383/615/2 298/539/2 368/538/2
f 434/594/1 441/616/1 398/617/1 384/618/1 613/619/1
f 387/620/2 366/570/2 296/569/2 386/621/2
f 344/622/2 341/623/2 293/483/2 327/482/2
f 632/624/1 613/619/1 384/618/1 612/625/1
f 343/626/2 325/508/2 291/507/2 342/627/2
f 288/628/162 284/629/162 360/630/162 308/631/162 300/632/162 416/633/162
f 631/634/1 614/635/1 400/636/1 619/637/1
f 681/638/163 680/639/163 647/640/163 651/641/163
f 334/567/2 279/509/2 325/508/2 343/626/2
f 438/609/1 431/608/1 616/642/1 385/643/1 425/644/1
f 425/644/1 385/643/1 617/645/1 412/646/1 454/647/1
f 380/589/1 414/588/1 441/616/1 434/594/1 608/594/1
f 323/565/2 344/622/2 327/482/2 281/481/2
f 693/648/164 688/649/164 638/650/164 653/651/164
f 454/647/1 412/646/1 627/652/1 444/653/1 619/637/1 400/636/1 446/654/1 143/655/1 3/656/1 9/657/1 10/658/1 1/659/1
f 384/618/1 398/617/1 446/654/1 400/636/1 614/635/1
f 628/660/1 625/661/1 444/653/1 627/652/1
f 448/662/165 437/663/165 588/664/165 595/665/165
f 326/273/2 345/666/2 340/667/2 292/274/2
f 280/272/2 324/272/2 345/666/2 326/273/2
f 345/668/166 324/669/166 541/670/166 550/671/166
f 316/275/2 346/578/2 331/478/2 263/276/2
f 292/274/2 340/667/2 346/578/2 316/275/2
f 351/672/167 335/673/167 493/674/167 556/675/167
f 391/676/168 364/677/168 563/678/168 572/679/168
f 306/527/2 322/526/2 347/680/2 337/681/2
f 322/526/2 282/525/2 333/682/2 347/680/2
f 330/269/2 348/683/2 338/684/2 304/270/2
f 269/268/2 332/528/2 348/683/2 330/269/2
f 332/528/2 306/527/2 337/681/2 348/683/2
f 320/271/2 349/685/2 324/272/2 280/272/2
f 304/270/2 338/684/2 349/685/2 320/271/2
f 397/686/167 375/687/167 505/688/167 578/689/167
f 340/690/169 345/668/169 550/671/169 544/691/169
f 294/523/2 318/522/2 350/576/2 335/692/2
f 318/522/2 270/513/2 329/512/2 350/576/2
f 333/693/170 351/672/170 556/675/170 486/694/170
f 282/525/2 328/524/2 351/695/2 333/682/2
f 328/524/2 294/523/2 335/692/2 351/695/2
f 447/696/171 413/697/171 585/698/171 594/699/171
f 381/700/172 391/676/172 572/679/172 566/701/172
f 453/702/173 428/703/173 517/704/173 600/705/173
f 373/706/174 397/686/174 578/689/174 478/707/174
f 437/663/169 447/696/169 594/699/169 588/664/169
f 336/577/2 303/511/2 319/510/2 352/566/2
f 424/708/175 453/702/175 600/705/175 470/709/175
f 335/673/176 350/710/176 555/711/176 493/674/176
f 375/687/177 396/712/177 577/713/177 505/688/177
f 339/579/2 353/564/2 321/480/2 305/479/2
f 341/714/178 344/715/178 548/716/178 545/717/178
f 383/718/179 389/719/179 570/720/179 567/721/179
f 341/623/2 354/529/2 317/484/2 293/483/2
f 428/703/180 452/722/180 599/723/180 517/704/180
f 342/627/2 291/507/2 315/506/2 354/529/2
f 344/715/181 323/724/181 540/725/181 548/716/181
f 350/726/182 336/727/182 496/728/182 555/729/182
f 374/563/2 284/562/2 366/570/2 387/620/2
f 354/730/183 341/714/183 545/717/183 561/731/183
f 439/732/178 445/733/178 592/734/178 589/735/178
f 389/719/184 363/736/184 562/737/184 570/720/184
f 363/559/2 389/614/2 368/538/2 286/537/2
f 396/738/185 376/739/185 508/740/185 577/741/185
f 402/742/186 383/718/186 567/721/186 583/743/186
f 342/744/187 354/745/187 561/746/187 539/747/187
f 445/733/188 411/748/188 584/749/188 592/734/188
f 452/750/189 430/751/189 520/752/189 599/753/189
f 367/501/2 391/754/2 381/755/2 297/502/2
f 285/500/2 364/756/2 391/754/2 367/501/2
f 458/757/190 439/732/190 589/735/190 605/758/190
f 357/503/2 392/582/2 372/534/2 274/504/2
f 297/502/2 381/755/2 392/582/2 357/503/2
f 386/759/191 402/760/191 583/761/191 535/762/191
f 442/763/192 458/764/192 605/765/192 531/766/192
f 307/557/2 359/556/2 393/767/2 377/768/2
f 359/556/2 283/555/2 373/769/2 393/767/2
f 371/497/2 394/770/2 378/771/2 309/498/2
f 272/496/2 369/585/2 394/770/2 371/497/2
f 369/585/2 307/557/2 377/768/2 394/770/2
f 361/499/2 395/772/2 364/756/2 285/500/2
f 309/498/2 378/771/2 395/772/2 361/499/2
f 349/773/193 338/774/193 542/775/193 554/776/193
f 323/724/194 353/777/194 560/778/194 540/725/194
f 295/544/2 355/543/2 396/580/2 375/779/2
f 355/543/2 271/290/2 370/289/2 396/580/2
f 395/780/193 378/781/193 564/782/193 576/783/193
f 283/555/2 365/613/2 397/784/2 373/769/2
f 365/613/2 295/544/2 375/779/2 397/784/2
f 363/736/195 401/785/195 582/786/195 562/737/195
f 324/669/196 349/773/196 554/776/196 541/670/196
f 353/777/197 339/787/197 543/788/197 560/778/197
f 451/789/198 433/790/198 586/791/198 598/792/198
f 364/677/199 395/780/199 576/783/199 563/678/199
f 376/581/2 308/288/2 360/561/2 399/560/2
f 411/748/200 457/793/200 604/794/200 584/749/200
f 401/785/197 379/795/197 565/796/197 582/786/197
f 348/797/201 337/798/201 498/799/201 553/800/201
f 379/583/2 401/558/2 362/536/2 310/535/2
f 413/697/202 451/789/202 598/792/202 585/698/202
f 394/801/203 377/802/203 510/803/203 575/804/203
f 383/615/2 402/530/2 358/533/2 298/539/2
f 457/793/204 435/805/204 587/806/204 604/794/204
f 386/621/2 296/569/2 356/531/2 402/530/2
f 450/807/205 432/808/205 522/809/205 597/810/205
f 338/774/206 348/811/206 553/812/206 542/775/206
f 426/553/2 288/552/2 416/611/2 443/610/2
f 378/781/207 394/813/207 575/814/207 564/782/207
f 334/815/208 343/816/208 546/817/208 490/818/208
f 347/819/209 333/693/209 486/694/209 552/820/209
f 411/547/2 445/605/2 417/607/2 289/548/2
f 374/821/210 387/822/210 568/823/210 482/824/210
f 433/790/211 450/825/211 597/826/211 586/791/211
f 393/827/212 373/706/212 478/707/212 574/828/212
f 343/816/213 342/744/213 539/747/213 546/817/213
f 337/798/214 347/819/214 552/820/214 498/799/214
f 415/492/2 447/829/2 437/830/2 299/493/2
f 287/491/2 413/831/2 447/829/2 415/492/2
f 426/832/215 443/833/215 590/834/215 474/835/215
f 403/494/2 448/596/2 421/584/2 275/495/2
f 299/493/2 437/830/2 448/596/2 403/494/2
f 387/822/213 386/759/213 535/762/213 568/823/213
f 449/836/216 424/708/216 470/709/216 596/837/216
f 314/520/2 410/519/2 449/838/2 432/839/2
f 410/519/2 290/518/2 424/840/2 449/838/2
f 419/488/2 450/841/2 433/842/2 311/489/2
f 277/487/2 422/521/2 450/841/2 419/488/2
f 422/521/2 314/520/2 432/839/2 450/841/2
f 407/490/2 451/843/2 413/831/2 287/491/2
f 311/489/2 433/842/2 451/843/2 407/490/2
f 377/802/217 393/827/217 574/828/217 510/803/217
f 443/833/218 442/763/218 531/766/218 590/834/218
f 302/516/2 406/515/2 452/586/2 428/844/2
f 406/515/2 278/514/2 420/575/2 452/586/2
f 432/808/214 449/836/214 596/837/214 522/809/214
f 290/518/2 418/517/2 453/845/2 424/840/2
f 418/517/2 302/516/2 428/844/2 453/845/2
f 339/787/219 346/846/219 551/847/219 543/788/219
f 336/727/220 352/848/220 558/849/220 496/728/220
f 379/795/221 392/850/221 573/851/221 565/796/221
f 376/739/222 399/852/222 580/853/222 508/740/222
f 352/848/223 334/815/223 490/818/223 558/849/223
f 430/587/2 312/568/2 408/551/2 455/550/2
f 435/805/224 448/854/224 595/855/224 587/806/224
f 430/751/220 455/856/220 602/857/220 520/752/220
f 346/858/225 340/690/225 544/691/225 551/859/225
f 435/597/2 457/546/2 409/549/2 313/554/2
f 399/852/226 374/821/226 482/824/226 580/853/226
f 392/860/227 381/700/227 566/701/227 573/861/227
f 439/606/2 458/545/2 405/542/2 301/541/2
f 455/856/228 426/832/228 474/835/228 602/857/228
f 442/612/2 300/287/2 404/292/2 458/545/2
f 603/862/2 459/863/2 460/864/2 472/865/2
f 581/866/2 462/867/2 463/868/2 480/869/2
f 559/870/2 465/871/2 466/872/2 488/873/2
f 557/874/2 492/875/2 491/876/2 467/877/2
f 556/878/2 493/879/2 494/880/2 495/881/2
f 554/882/2 497/883/2 489/884/2 541/885/2
f 553/886/2 498/887/2 499/888/2 542/889/2
f 552/890/2 486/891/2 487/892/2 500/893/2
f 550/894/2 501/895/2 502/896/2 544/897/2
f 549/898/2 484/899/2 485/900/2 503/901/2
f 579/902/2 504/903/2 483/904/2 464/905/2
f 578/906/2 505/907/2 506/908/2 507/909/2
f 576/910/2 509/911/2 481/912/2 563/913/2
f 575/914/2 510/915/2 511/916/2 564/917/2
f 574/918/2 478/919/2 479/920/2 512/921/2
f 572/922/2 513/923/2 514/924/2 566/925/2
f 571/926/2 476/927/2 477/928/2 515/929/2
f 601/930/2 516/931/2 475/932/2 461/933/2
f 600/934/2 517/935/2 518/936/2 519/937/2
f 598/938/2 521/939/2 473/940/2 585/941/2
f 597/942/2 522/943/2 523/944/2 586/945/2
f 596/946/2 470/947/2 471/948/2 524/949/2
f 594/950/2 525/951/2 526/952/2 588/953/2
f 593/954/2 468/955/2 469/956/2 527/957/2
f 591/958/2 528/959/2 529/960/2 530/961/2
f 569/962/2 532/963/2 533/964/2 534/965/2
f 547/966/2 536/967/2 537/968/2 538/969/2
f 536/967/2 546/970/2 539/971/2 537/968/2
f 491/876/2 490/972/2 546/970/2 536/967/2
f 484/899/2 547/966/2 538/969/2 485/900/2
f 466/872/2 467/877/2 547/966/2 484/899/2
f 467/877/2 491/876/2 536/967/2 547/966/2
f 485/900/2 538/969/2 548/973/2 540/974/2
f 538/969/2 537/968/2 545/975/2 548/973/2
f 501/895/2 549/898/2 503/901/2 502/896/2
f 489/884/2 488/873/2 549/898/2 501/895/2
f 488/873/2 466/872/2 484/899/2 549/898/2
f 541/885/2 489/884/2 501/895/2 550/894/2
f 544/897/2 502/896/2 543/976/2 551/977/2
f 498/887/2 552/890/2 500/893/2 499/888/2
f 542/889/2 499/888/2 497/883/2 554/882/2
f 493/879/2 555/978/2 496/979/2 494/880/2
f 486/891/2 556/878/2 495/881/2 487/892/2
f 465/871/2 557/874/2 467/877/2 466/872/2
f 487/892/2 495/881/2 557/874/2 465/871/2
f 495/881/2 494/880/2 492/875/2 557/874/2
f 492/875/2 558/980/2 490/972/2 491/876/2
f 494/880/2 496/979/2 558/980/2 492/875/2
f 497/883/2 559/870/2 488/873/2 489/884/2
f 499/888/2 500/893/2 559/870/2 497/883/2
f 500/893/2 487/892/2 465/871/2 559/870/2
f 502/896/2 503/901/2 560/981/2 543/976/2
f 503/901/2 485/900/2 540/974/2 560/981/2
f 537/968/2 539/971/2 561/982/2 545/975/2
f 532/963/2 568/983/2 535/984/2 533/964/2
f 483/904/2 482/985/2 568/983/2 532/963/2
f 476/927/2 569/962/2 534/965/2 477/928/2
f 463/868/2 464/905/2 569/962/2 476/927/2
f 464/905/2 483/904/2 532/963/2 569/962/2
f 477/928/2 534/965/2 570/986/2 562/987/2
f 534/965/2 533/964/2 567/988/2 570/986/2
f 513/923/2 571/926/2 515/929/2 514/924/2
f 481/912/2 480/869/2 571/926/2 513/923/2
f 480/869/2 463/868/2 476/927/2 571/926/2
f 563/913/2 481/912/2 513/923/2 572/922/2
f 566/925/2 514/924/2 565/989/2 573/990/2
f 510/915/2 574/918/2 512/921/2 511/916/2
f 564/917/2 511/916/2 509/911/2 576/910/2
f 505/907/2 577/991/2 508/992/2 506/908/2
f 478/919/2 578/906/2 507/909/2 479/920/2
f 462/867/2 579/902/2 464/905/2 463/868/2
f 479/920/2 507/909/2 579/902/2 462/867/2
f 507/909/2 506/908/2 504/903/2 579/902/2
f 504/903/2 580/993/2 482/985/2 483/904/2
f 506/908/2 508/992/2 580/993/2 504/903/2
f 509/911/2 581/866/2 480/869/2 481/912/2
f 511/916/2 512/921/2 581/866/2 509/911/2
f 512/921/2 479/920/2 462/867/2 581/866/2
f 514/924/2 515/929/2 582/994/2 565/989/2
f 515/929/2 477/928/2 562/987/2 582/994/2
f 533/964/2 535/984/2 583/995/2 567/988/2
f 528/959/2 590/996/2 531/997/2 529/960/2
f 475/932/2 474/998/2 590/996/2 528/959/2
f 468/955/2 591/958/2 530/961/2 469/956/2
f 460/864/2 461/933/2 591/958/2 468/955/2
f 461/933/2 475/932/2 528/959/2 591/958/2
f 469/956/2 530/961/2 592/999/2 584/1000/2
f 530/961/2 529/960/2 589/1001/2 592/999/2
f 525/951/2 593/954/2 527/957/2 526/952/2
f 473/940/2 472/865/2 593/954/2 525/951/2
f 472/865/2 460/864/2 468/955/2 593/954/2
f 585/941/2 473/940/2 525/951/2 594/950/2
f 588/953/2 526/952/2 587/1002/2 595/1003/2
f 522/943/2 596/946/2 524/949/2 523/944/2
f 586/945/2 523/944/2 521/939/2 598/938/2
f 517/935/2 599/1004/2 520/1005/2 518/936/2
f 470/947/2 600/934/2 519/937/2 471/948/2
f 459/863/2 601/930/2 461/933/2 460/864/2
f 471/948/2 519/937/2 601/930/2 459/863/2
f 519/937/2 518/936/2 516/931/2 601/930/2
f 516/931/2 602/1006/2 474/998/2 475/932/2
f 518/936/2 520/1005/2 602/1006/2 516/931/2
f 521/939/2 603/862/2 472/865/2 473/940/2
f 523/944/2 524/949/2 603/862/2 521/939/2
f 524/949/2 471/948/2 459/863/2 603/862/2
f 526/952/2 527/957/2 604/1007/2 587/1002/2
f 527/957/2 469/956/2 584/1000/2 604/1007/2
f 529/960/2 531/997/2 605/1008/2 589/1001/2
f 617/645/1 628/660/1 627/652/1 412/646/1
f 385/643/1 615/1009/1 628/660/1 617/645/1
f 692/1010/229 691/1011/229 646/1012/229 649/1013/229
f 611/608/1 629/1014/1 622/1015/1 431/608/1
f 382/603/1 609/1016/1 629/1014/1 611/608/1
f 685/1017/230 690/1018/230 641/1019/230 654/1020/230
f 616/642/1 630/1021/1 615/1009/1 385/643/1
f 431/608/1 622/1015/1 630/1021/1 616/642/1
f 691/1022/231 681/638/231 651/641/231 646/1023/231
f 625/661/1 631/634/1 619/637/1 444/653/1
f 690/1018/232 689/1024/232 656/1025/232 641/1019/232
f 612/625/1 384/618/1 614/635/1 631/634/1
f 684/1026/233 682/1027/233 648/1028/233 652/1029/233
f 689/1024/234 683/1030/234 636/1031/234 656/1025/234
f 623/595/1 434/594/1 613/619/1 632/624/1
f 610/602/1 633/1032/1 609/1016/1 382/603/1
f 390/86/1 618/85/1 633/1032/1 610/602/1
f 618/85/1 440/84/1 621/1033/1 633/1032/1
f 688/1034/235 684/1026/235 652/1029/235 638/1035/235
f 686/1036/236 685/1017/236 654/1020/236 645/1037/236
f 606/592/1 380/589/1 608/594/1 634/593/1
f 687/1038/237 686/1039/237 645/1040/237 650/1041/237
f 440/84/1 626/83/1 635/591/1 621/1033/1
f 626/83/1 423/82/1 607/590/1 635/591/1
f 615/1042/231 630/1043/231 620/1044/231 624/1045/231
f 621/1046/232 635/1047/232 427/1048/232 436/1049/232
f 631/1050/233 625/1051/233 429/1052/233 659/1053/233
f 635/1047/234 606/1054/234 657/1055/234 427/1048/234
f 612/1056/235 631/1050/235 659/1053/235 658/1057/235
f 609/1058/236 633/1059/236 660/1060/236 662/1061/236
f 629/1062/237 609/1063/237 662/1064/237 661/1065/237
f 623/1066/238 632/1067/238 639/1068/238 643/1069/238
f 606/1070/239 634/1071/239 644/1072/239 657/1073/239
f 625/1051/240 628/1074/240 637/1075/240 429/1052/240
f 622/1076/241 629/1062/241 661/1065/241 640/1077/241
f 649/1078/1 646/1079/1 651/1080/1 647/1081/1 650/1082/1 645/1083/1 654/1084/1 641/1085/1 656/1086/1 636/1087/1 655/1088/1 642/1089/1 653/1090/1 638/1091/1 652/1092/1 648/1093/1
f 679/599/238 693/648/238 653/651/238 642/600/238
f 683/1094/239 694/598/239 655/601/239 636/1095/239
f 682/1027/240 692/1010/240 649/1013/240 648/1028/240
f 680/639/241 687/1038/241 650/1041/241 647/640/241
f 633/1059/230 621/1046/230 436/1049/230 660/1060/230
f 628/1074/229 615/1096/229 624/1097/229 637/1075/229
f 632/1067/164 612/1098/164 658/1099/164 639/1068/164
f 630/1043/163 622/1076/163 640/1077/163 620/1044/163
f 634/1071/161 623/1066/161 643/1069/161 644/1072/161
f 703/1100/241 695/1101/241 671/1102/241 664/1103/241
f 705/1104/240 699/1105/240 676/1106/240 666/1107/240
f 706/1108/239 701/1109/239 678/1110/239 667/1111/239
f 702/1112/238 700/1113/238 677/1114/238 663/1115/238
f 695/1101/237 709/1116/237 670/1117/237 671/1102/237
f 709/1118/236 708/1119/236 669/1120/236 670/1121/236
f 696/1122/235 707/1123/235 668/1124/235 672/1125/235
f 697/1126/234 706/1127/234 667/1128/234 673/1129/234
f 707/1123/233 705/1104/233 666/1107/233 668/1124/233
f 673/1130/1 674/1131/1 718/1132/1 717/1133/1
f 698/1134/231 704/1135/231 665/1136/231 675/1137/231
f 674/1131/1 669/1138/1 716/1139/1 718/1132/1
f 699/1105/229 698/1140/229 675/1141/229 676/1106/229
f 700/1113/164 696/1142/164 672/1143/164 677/1114/164
f 704/1135/163 703/1100/163 664/1103/163 665/1136/163
f 701/1109/161 702/1112/161 663/1115/161 678/1110/161
f 664/1103/241 671/1102/241 687/1038/241 680/639/241
f 666/1107/240 676/1106/240 692/1010/240 682/1027/240
f 667/1111/239 678/1110/239 694/598/239 683/1094/239
f 663/1115/238 677/1114/238 693/648/238 679/599/238
f 671/1102/237 670/1117/237 686/1039/237 687/1038/237
f 670/1121/236 669/1120/236 685/1017/236 686/1036/236
f 672/1125/235 668/1124/235 684/1026/235 688/1034/235
f 673/1129/234 667/1128/234 683/1030/234 689/1024/234
f 668/1124/233 666/1107/233 682/1027/233 684/1026/233
f 674/1144/232 673/1129/232 689/1024/232 690/1018/232
f 675/1137/231 665/1136/231 681/638/231 691/1022/231
f 669/1120/230 674/1144/230 690/1018/230 685/1017/230
f 676/1106/229 675/1141/229 691/1011/229 692/1010/229
f 677/1114/164 672/1143/164 688/649/164 693/648/164
f 665/1136/163 664/1103/163 680/639/163 681/638/163
f 678/1110/161 663/1115/161 679/599/161 694/598/161
f 644/1072/161 643/1069/161 702/1112/161 701/1109/161
f 620/1044/163 640/1077/163 703/1100/163 704/1135/163
f 639/1068/164 658/1099/164 696/1142/164 700/1113/164
f 637/1075/229 624/1097/229 698/1140/229 699/1105/229
f 697/1131/2 673/1138/2 717/1139/2 710/1132/2
f 624/1045/231 620/1044/231 704/1135/231 698/1134/231
f 427/1130/2 697/1131/2 710/1132/2 711/1133/2
f 659/1053/233 429/1052/233 705/1104/233 707/1123/233
f 427/1048/234 657/1055/234 706/1127/234 697/1126/234
f 658/1057/235 659/1053/235 707/1123/235 696/1122/235
f 662/1061/236 660/1060/236 708/1119/236 709/1118/236
f 661/1065/237 662/1064/237 709/1116/237 695/1101/237
f 643/1069/238 639/1068/238 700/1113/238 702/1112/238
f 657/1073/239 644/1072/239 701/1109/239 706/1108/239
f 429/1052/240 637/1075/240 699/1105/240 705/1104/240
f 640/1077/241 661/1065/241 695/1101/241 703/1100/241
f 708/1131/4 660/1130/4 714/1133/4 715/1132/4
f 660/1138/3 436/1131/3 713/1132/3 714/1139/3
f 669/1138/4 708/1131/4 715/1132/4 716/1139/4
f 436/1131/3 427/1130/3 711/1133/3 713/1132/3
f 710/1132/242 717/1139/242 725/1145/242 712/1146/242
f 715/1132/243 714/1133/243 721/1147/243 723/1146/243
f 711/1133/242 710/1132/242 712/1146/242 719/1147/242
f 713/1132/244 711/1133/244 719/1147/244 722/1146/244
f 716/1139/243 715/1132/243 723/1146/243 724/1145/243
f 718/1132/245 716/1139/245 724/1145/245 726/1146/245
f 714/1139/246 713/1132/246 722/1146/246 721/1145/246
f 717/1133/247 718/1132/247 726/1146/247 725/1147/247
f 724/1145/4 723/1146/4 733/1148/4 734/1149/4
f 726/1146/1 724/1145/1 734/1149/1 729/1148/1
f 721/1145/3 722/1146/3 727/1148/3 720/1149/3
f 725/1147/1 726/1146/1 729/1148/1 728/1150/1
f 732/1151/232 730/1152/232 728/1153/232 729/1154/232
f 733/1155/230 732/1151/230 729/1154/230 734/1156/230
f 720/1157/230 727/1158/230 732/1151/230 733/1155/230
f 727/1158/232 731/1159/232 730/1152/232 732/1151/232
f 722/1146/3 719/1147/3 731/1150/3 727/1148/3
f 719/1147/2 712/1146/2 730/1148/2 731/1150/2
f 723/1146/4 721/1147/4 720/1150/4 733/1148/4
f 712/1146/2 725/1145/2 728/1149/2 730/1148/2
