# Blender 5.0.0
# www.blender.org
mtllib Refrigerator.mtl
o Refigerator
v -4.032000 -8.064000 4.032000
v -4.032000 8.064000 4.032000
v -4.032000 -8.064000 -4.032000
v -4.032000 8.064000 -4.032000
v 4.032000 -8.064000 4.032000
v 4.032000 8.064000 4.032000
v 4.032000 -8.064000 -4.032000
v 4.032000 8.064000 -4.032000
v -4.032000 3.017497 4.032000
v -4.032000 3.017497 -4.032000
v 4.032000 3.017497 -4.032000
v 4.032000 3.017497 4.032000
v 3.847956 3.201540 4.032000
v 3.847956 7.879957 4.032000
v -3.847956 7.879957 4.032000
v -3.847956 3.201540 4.032000
v 3.847956 -7.879956 4.032000
v 3.847956 2.833453 4.032000
v -3.847956 2.833453 4.032000
v -3.847956 -7.879956 4.032000
v 3.847956 7.879957 4.360412
v 3.847956 3.201540 4.360412
v -3.847956 3.201540 4.360412
v -3.847956 7.879957 4.360412
v 3.847956 2.833453 4.360412
v 3.847956 -7.879956 4.360412
v -3.847956 -7.879956 4.360412
v -3.847956 2.833453 4.360412
v 3.085073 -1.551803 5.019614
v 3.085073 1.551803 5.019614
v 3.085073 -1.551803 4.019614
v 3.085073 1.551803 4.019614
v 3.402664 -1.551803 5.019614
v 3.402664 1.551803 5.019614
v 3.402664 -1.551803 4.019614
v 3.402664 1.551803 4.019614
v 3.085073 1.135960 5.019614
v 3.085073 1.135960 4.019614
v 3.402664 1.135960 4.019614
v 3.402664 1.135960 5.019614
v 3.085073 -1.083481 4.019614
v 3.402664 -1.083481 4.019614
v 3.402664 -1.083481 5.019614
v 3.085073 -1.083481 5.019614
v 3.085073 -1.551803 4.669614
v 3.085073 1.551803 4.669614
v 3.402664 -1.551803 4.669614
v 3.402664 1.551803 4.669614
v 3.402664 1.135960 4.669614
v 3.085073 1.135960 4.669614
v 3.085073 -1.083481 4.669614
v 3.402664 -1.083481 4.669614
v 3.085073 4.045089 5.019614
v 3.085073 5.687923 5.019614
v 3.085073 4.045089 4.019614
v 3.085073 5.687923 4.019614
v 3.402664 4.045089 5.019614
v 3.402664 5.687923 5.019614
v 3.402664 4.045089 4.019614
v 3.402664 5.687923 4.019614
v 3.085073 5.467805 5.019614
v 3.085073 5.467805 4.019614
v 3.402664 5.467805 4.019614
v 3.402664 5.467805 5.019614
v 3.085073 4.292986 4.019614
v 3.402664 4.292986 4.019614
v 3.402664 4.292986 5.019614
v 3.085073 4.292986 5.019614
v 3.085073 4.045089 4.669614
v 3.085073 5.687923 4.669614
v 3.402664 4.045089 4.669614
v 3.402664 5.687923 4.669614
v 3.402664 5.467805 4.669614
v 3.085073 5.467805 4.669614
v 3.085073 4.292986 4.669614
v 3.402664 4.292986 4.669614
vn -1.0000 -0.0000 -0.0000
vn -0.0000 -0.0000 -1.0000
vn 1.0000 -0.0000 -0.0000
vn -0.0000 -1.0000 -0.0000
vn -0.0000 1.0000 -0.0000
vn -0.0000 -0.0000 1.0000
vt 0.015625 0.328125
vt 0.015625 0.468750
vt 0.242188 0.468750
vt 0.242188 0.328125
vt 0.273438 0.328125
vt 0.273438 0.468750
vt 0.500000 0.468750
vt 0.500000 0.328125
vt 0.750000 0.328125
vt 0.750000 0.468750
vt 0.523438 0.468750
vt 0.523438 0.328125
vt 0.820312 0.015625
vt 0.820312 0.148438
vt 0.812500 0.148438
vt 0.812500 0.015625
vt 0.515625 0.726562
vt 0.742188 0.726562
vt 0.742188 0.500000
vt 0.515625 0.500000
vt 0.742188 0.976562
vt 0.515625 0.976562
vt 0.515625 0.750000
vt 0.742188 0.750000
vt 0.789062 0.320312
vt 0.789062 0.015625
vt 0.773438 0.015625
vt 0.773438 0.320312
vt 0.750000 0.015625
vt 0.523438 0.015625
vt 0.273438 0.015625
vt 0.500000 0.015625
vt 0.015625 0.015625
vt 0.242188 0.015625
vt 0.242188 0.812500
vt 0.242188 0.953125
vt 0.234375 0.945312
vt 0.234375 0.820312
vt 0.015625 0.953125
vt 0.023438 0.945312
vt 0.015625 0.812500
vt 0.023438 0.820312
vt 0.242188 0.492188
vt 0.234375 0.804688
vt 0.234375 0.507812
vt 0.023438 0.804688
vt 0.015625 0.492188
vt 0.023438 0.507812
vt 0.484375 0.828125
vt 0.484375 0.960938
vt 0.273438 0.960938
vt 0.273438 0.828125
vt 0.484375 0.500000
vt 0.484375 0.804688
vt 0.273438 0.804688
vt 0.273438 0.500000
vt 0.765625 0.757812
vt 0.984375 0.757812
vt 0.984375 0.750000
vt 0.765625 0.750000
vt 0.820312 0.304688
vt 0.820312 0.171875
vt 0.812500 0.171875
vt 0.812500 0.304688
vt 0.765625 0.726562
vt 0.984375 0.726562
vt 0.984375 0.718750
vt 0.765625 0.718750
vt 0.984375 0.687500
vt 0.765625 0.687500
vt 0.765625 0.679688
vt 0.984375 0.679688
vt 0.789062 0.343750
vt 0.789062 0.648438
vt 0.773438 0.648438
vt 0.773438 0.343750
vt 0.984375 0.796875
vt 0.765625 0.796875
vt 0.765625 0.789062
vt 0.984375 0.789062
vt 0.591503 0.087500
vt 0.625000 0.087500
vt 0.625000 0.250000
vt 0.591503 0.250000
vt 0.625000 0.500000
vt 0.591503 0.500000
vt 0.591503 0.662500
vt 0.625000 0.662500
vt 0.625000 0.750000
vt 0.591503 0.750000
vt 0.625000 1.000000
vt 0.591503 1.000000
vt 0.125000 0.662500
vt 0.375000 0.662500
vt 0.375000 0.750000
vt 0.125000 0.750000
vt 0.875000 0.662500
vt 0.875000 0.750000
vt 0.412724 0.750000
vt 0.412724 1.000000
vt 0.412724 0.662500
vt 0.375000 0.087500
vt 0.412724 0.087500
vt 0.412724 0.250000
vt 0.375000 0.250000
vt 0.412724 0.500000
vt 0.375000 0.500000
vt 0.375000 1.000000
vt 0.375000 0.000000
vt 0.412724 0.000000
vt 0.591503 0.000000
vt 0.875000 0.500000
vt 0.125000 0.500000
vt 0.625000 0.000000
s 0
g Refigerator_Material.006
usemtl Material.006
f 9/1/1 2/2/1 4/3/1 10/4/1
f 10/5/2 4/6/2 8/7/2 11/8/2
f 11/9/3 8/10/3 6/11/3 12/12/3
f 13/13/3 14/14/3 21/15/3 22/16/3
f 3/17/4 7/18/4 5/19/4 1/20/4
f 8/21/5 4/22/5 2/23/5 6/24/5
f 19/25/1 20/26/1 27/27/1 28/28/1
f 7/29/3 11/9/3 12/12/3 5/30/3
f 3/31/2 10/5/2 11/8/2 7/32/2
f 1/33/1 9/1/1 10/4/1 3/34/1
f 12/35/6 6/36/6 14/37/6 13/38/6
f 6/36/6 2/39/6 15/40/6 14/37/6
f 2/39/6 9/41/6 16/42/6 15/40/6
f 9/41/6 12/35/6 13/38/6 16/42/6
f 5/43/6 12/35/6 18/44/6 17/45/6
f 12/35/6 9/41/6 19/46/6 18/44/6
f 9/41/6 1/47/6 20/48/6 19/46/6
f 1/47/6 5/43/6 17/45/6 20/48/6
f 22/49/6 21/50/6 24/51/6 23/52/6
f 26/53/6 25/54/6 28/55/6 27/56/6
f 20/57/4 17/58/4 26/59/4 27/60/4
f 15/61/1 16/62/1 23/63/1 24/64/1
f 16/65/4 13/66/4 22/67/4 23/68/4
f 18/69/5 19/70/5 28/71/5 25/72/5
f 17/73/3 18/74/3 25/75/3 26/76/3
f 14/77/5 15/78/5 24/79/5 21/80/5
g Refigerator_Handle
usemtl Handle
f 50/81/1 46/82/1 32/83/1 38/84/1
f 38/84/2 32/83/2 36/85/2 39/86/2
f 49/87/3 48/88/3 34/89/3 40/90/3
f 40/90/6 34/89/6 30/91/6 37/92/6
f 45/93/4 47/94/4 33/95/4 29/96/4
f 48/88/5 46/97/5 30/98/5 34/89/5
f 43/99/6 40/90/6 37/92/6 44/100/6
f 52/101/3 49/87/3 40/90/3 43/99/3
f 45/102/1 51/103/1 41/104/1 31/105/1
f 31/105/2 41/104/2 42/106/2 35/107/2
f 47/94/3 52/101/3 43/99/3 33/95/3
f 33/95/6 43/99/6 44/100/6 29/108/6
f 35/107/3 42/106/3 52/101/3 47/94/3
f 29/109/1 44/110/1 51/103/1 45/102/1
f 44/110/1 37/111/1 50/81/1 51/103/1
f 39/86/4 49/87/4 50/81/4 38/84/4
f 36/85/5 32/112/5 46/97/5 48/88/5
f 31/113/4 35/107/4 47/94/4 45/93/4
f 39/86/3 36/85/3 48/88/3 49/87/3
f 37/111/1 30/114/1 46/82/1 50/81/1
f 51/103/5 52/101/5 42/106/5 41/104/5
f 49/87/2 52/101/2 51/103/2 50/81/2
f 74/81/1 70/82/1 56/83/1 62/84/1
f 62/84/2 56/83/2 60/85/2 63/86/2
f 73/87/3 72/88/3 58/89/3 64/90/3
f 64/90/6 58/89/6 54/91/6 61/92/6
f 69/93/4 71/94/4 57/95/4 53/96/4
f 72/88/5 70/97/5 54/98/5 58/89/5
f 67/99/6 64/90/6 61/92/6 68/100/6
f 76/101/3 73/87/3 64/90/3 67/99/3
f 69/102/1 75/103/1 65/104/1 55/105/1
f 55/105/2 65/104/2 66/106/2 59/107/2
f 71/94/3 76/101/3 67/99/3 57/95/3
f 57/95/6 67/99/6 68/100/6 53/108/6
f 59/107/3 66/106/3 76/101/3 71/94/3
f 53/109/1 68/110/1 75/103/1 69/102/1
f 68/110/1 61/111/1 74/81/1 75/103/1
f 63/86/4 73/87/4 74/81/4 62/84/4
f 60/85/5 56/112/5 70/97/5 72/88/5
f 55/113/4 59/107/4 71/94/4 69/93/4
f 63/86/3 60/85/3 72/88/3 73/87/3
f 61/111/1 54/114/1 70/82/1 74/81/1
f 75/103/5 76/101/5 66/106/5 65/104/5
f 73/87/2 76/101/2 75/103/2 74/81/2
