# Blender 4.5.4 LTS
# www.blender.org
mtllib Supplybox.mtl
o Supply_box
v -2.016000 -2.016000 2.016000
v -2.016000 2.016000 2.016000
v -2.016000 -2.016000 -2.016000
v -2.016000 2.016000 -2.016000
v 2.016000 -2.016000 2.016000
v 2.016000 2.016000 2.016000
v 2.016000 -2.016000 -2.016000
v 2.016000 2.016000 -2.016000
vn -1.0000 -0.0000 -0.0000
vn -0.0000 -0.0000 -1.0000
vn 1.0000 -0.0000 -0.0000
vn -0.0000 -0.0000 1.0000
vn -0.0000 -1.0000 -0.0000
vn -0.0000 1.0000 -0.0000
vt 0.009434 0.011501
vt 0.009434 0.323899
vt 0.323899 0.323899
vt 0.323899 0.011501
vt 0.009434 0.342767
vt 0.009434 0.657233
vt 0.323899 0.657233
vt 0.323899 0.342767
vt 0.323899 0.676101
vt 0.323899 0.990566
vt 0.009434 0.990566
vt 0.009434 0.676101
vt 0.657233 0.676101
vt 0.657233 0.990566
vt 0.342767 0.990566
vt 0.342767 0.676101
vt 0.342767 0.657233
vt 0.657233 0.657233
vt 0.657233 0.342767
vt 0.342767 0.342767
vt 0.657233 0.323899
vt 0.342767 0.323899
vt 0.342767 0.009434
vt 0.657233 0.009434
s 0
g Supply_box_Cardboard_Box
usemtl Cardboard_Box
f 1/1/1 2/2/1 4/3/1 3/4/1
f 3/5/2 4/6/2 8/7/2 7/8/2
f 7/9/3 8/10/3 6/11/3 5/12/3
f 5/13/4 6/14/4 2/15/4 1/16/4
f 3/17/5 7/18/5 5/19/5 1/20/5
f 8/21/6 4/22/6 2/23/6 6/24/6
