# Blender 5.0.0
# www.blender.org
mtllib Television.mtl
o Television
v 6.552000 -5.481000 0.243338
v 6.552000 -5.355000 0.369338
v 6.552000 -5.292000 -0.513873
v 6.552000 -4.851000 -0.513873
v 7.560000 -5.481000 0.243338
v 7.560000 -5.355000 0.369338
v 7.560000 -5.292000 -0.513873
v 7.560000 -4.851000 -0.513873
v 6.678000 -5.985000 0.747338
v 6.678000 -5.985000 0.936338
v 7.434000 -5.985000 0.936338
v 7.434000 -5.985000 0.747338
v -6.552000 -5.481000 0.243338
v -6.552000 -5.355000 0.369338
v -6.552000 -5.292000 -0.513873
v -6.552000 -4.851000 -0.513873
v -7.559999 -5.481000 0.243338
v -7.559999 -5.355000 0.369338
v -7.559999 -5.292000 -0.513873
v -7.559999 -4.851000 -0.513873
v -6.677999 -5.985000 0.747338
v -6.677999 -5.985000 0.936338
v -7.434000 -5.985000 0.936338
v -7.434000 -5.985000 0.747338
v 6.552000 -5.481000 -1.271084
v 6.552000 -5.355000 -1.397084
v 7.560000 -5.481000 -1.271084
v 7.560000 -5.355000 -1.397084
v 6.678000 -5.985000 -1.775084
v 6.678000 -5.985000 -1.964084
v 7.434000 -5.985000 -1.964084
v 7.434000 -5.985000 -1.775084
v -6.552000 -5.481000 -1.271084
v -6.552000 -5.355000 -1.397084
v -7.559999 -5.481000 -1.271084
v -7.559999 -5.355000 -1.397084
v -6.677999 -5.985000 -1.775084
v -6.677999 -5.985000 -1.964084
v -7.434000 -5.985000 -1.964084
v -7.434000 -5.985000 -1.775084
v -8.078190 -5.052886 -0.000640
v -8.078190 5.052885 -0.000640
v -8.078190 -5.052886 -1.032364
v -8.078190 5.052885 -1.032364
v 8.078190 -5.052886 -0.000640
v 8.078190 5.052885 -0.000640
v 8.078190 -5.052886 -1.032364
v 8.078190 5.052885 -1.032364
v 7.250643 -4.225338 -0.000640
v 7.250643 4.225338 -0.000640
v -7.250642 4.225338 -0.000640
v -7.250642 -4.225338 -0.000640
v 5.944277 3.464048 0.556338
v 5.944277 -3.464049 0.556338
v -5.944276 -3.464049 0.556338
v -5.944276 3.464048 0.556338
v -7.486110 -4.460805 -1.032364
v -7.486110 4.460806 -1.032364
v 7.486110 4.460806 -1.032364
v 7.486110 -4.460805 -1.032364
v -7.486110 4.460806 -0.858977
v -7.486110 -4.460805 -0.858977
v 7.486110 -4.460805 -0.858977
v 7.486110 4.460806 -0.858977
vn -1.0000 -0.0000 -0.0000
vn -0.0000 -0.0000 -1.0000
vn 1.0000 -0.0000 -0.0000
vn -0.9852 -0.1589 0.0636
vn -0.0000 -0.9702 -0.2422
vn -0.0000 0.8685 0.4956
vn -0.0000 -1.0000 -0.0000
vn -0.0000 -0.7071 -0.7071
vn -0.0000 0.6690 0.7433
vn 0.9852 -0.1589 0.0636
vn -0.9852 -0.1589 -0.0636
vn -0.0000 -0.9702 0.2422
vn -0.0000 0.8685 -0.4956
vn -0.0000 -0.7071 0.7071
vn -0.0000 0.6690 -0.7433
vn 0.9852 -0.1589 -0.0636
vn -0.0000 0.5905 0.8071
vn -0.0000 1.0000 -0.0000
vn -0.0000 -0.0000 1.0000
vn 0.3922 -0.0000 0.9199
vn -0.3922 -0.0000 0.9199
vn -0.0000 -0.5905 0.8071
vt 0.122507 0.092182
vt 0.103313 0.111375
vt 0.237850 0.188148
vt 0.237850 0.120972
vt 0.231188 0.893865
vt 0.231188 0.960849
vt 0.384295 0.960849
vt 0.384295 0.893865
vt 0.237850 0.258979
vt 0.237850 0.326156
vt 0.103313 0.249383
vt 0.122507 0.230189
vt 0.045734 0.015409
vt 0.016944 0.015409
vt 0.320070 0.727498
vt 0.475508 0.727498
vt 0.475508 0.610732
vt 0.320070 0.610732
vt 0.681560 0.482347
vt 0.517273 0.482347
vt 0.517273 0.338398
vt 0.681560 0.338398
vt 0.632267 0.989575
vt 0.632267 0.960867
vt 0.517436 0.960867
vt 0.517436 0.989575
vt 0.711963 0.515567
vt 0.894040 0.515567
vt 0.871280 0.424529
vt 0.734723 0.424529
vt 0.878093 0.877462
vt 0.700504 0.877462
vt 0.722703 0.766469
vt 0.855895 0.766469
vt 0.016944 0.153417
vt 0.045734 0.153417
vt 0.122507 0.368197
vt 0.237850 0.396987
vt 0.237850 0.464163
vt 0.103313 0.387390
vt 0.168965 0.893865
vt 0.015857 0.893865
vt 0.015857 0.960849
vt 0.168965 0.960849
vt 0.237850 0.534994
vt 0.122507 0.506204
vt 0.103313 0.525397
vt 0.237850 0.602170
vt 0.016944 0.291424
vt 0.045734 0.291424
vt 0.170130 0.727498
vt 0.170130 0.610732
vt 0.014692 0.610732
vt 0.014692 0.727498
vt 0.517273 0.153478
vt 0.517273 0.009530
vt 0.681560 0.009530
vt 0.681560 0.153478
vt 0.127884 0.040163
vt 0.242714 0.040163
vt 0.242714 0.011456
vt 0.127884 0.011456
vt 0.890125 0.235638
vt 0.867365 0.144599
vt 0.730808 0.144599
vt 0.708048 0.235638
vt 0.510622 0.767839
vt 0.532820 0.656846
vt 0.666012 0.656846
vt 0.688211 0.767839
vt 0.045734 0.429431
vt 0.016944 0.429431
vt 0.367757 0.092182
vt 0.252414 0.120972
vt 0.252414 0.188148
vt 0.386951 0.111375
vt 0.252414 0.258979
vt 0.367757 0.230189
vt 0.386951 0.249383
vt 0.252414 0.326156
vt 0.473320 0.015409
vt 0.444530 0.015409
vt 0.320070 0.733680
vt 0.320070 0.850446
vt 0.475508 0.850446
vt 0.475508 0.733680
vt 0.681560 0.481805
vt 0.681560 0.625753
vt 0.517273 0.625753
vt 0.517273 0.481805
vt 0.984626 0.960867
vt 0.869795 0.960867
vt 0.869795 0.989575
vt 0.984626 0.989575
vt 0.496633 0.928611
vt 0.519392 0.837572
vt 0.655950 0.837572
vt 0.678709 0.928611
vt 0.887881 0.117933
vt 0.865682 0.006940
vt 0.732491 0.006940
vt 0.710292 0.117933
vt 0.444530 0.153417
vt 0.473320 0.153417
vt 0.367757 0.368197
vt 0.386951 0.387390
vt 0.252414 0.464163
vt 0.252414 0.396987
vt 0.252414 0.534994
vt 0.252414 0.602170
vt 0.386951 0.525397
vt 0.367757 0.506204
vt 0.444530 0.291424
vt 0.473320 0.291424
vt 0.170130 0.733680
vt 0.014692 0.733680
vt 0.014692 0.850445
vt 0.170130 0.850445
vt 0.517273 0.152936
vt 0.681560 0.152936
vt 0.681560 0.296885
vt 0.517273 0.296885
vt 0.711233 0.909971
vt 0.711233 0.938679
vt 0.826064 0.938679
vt 0.826064 0.909971
vt 0.890125 0.398114
vt 0.708048 0.398114
vt 0.730808 0.307076
vt 0.867365 0.307076
vt 0.700504 0.705198
vt 0.878093 0.705198
vt 0.855895 0.594205
vt 0.722703 0.594205
vt 0.473320 0.429431
vt 0.444530 0.429431
vt 0.572917 0.010417
vt 0.572917 0.322917
vt 0.604167 0.322917
vt 0.604167 0.010417
vt 0.520833 0.734375
vt 0.989583 0.734375
vt 0.989583 0.723958
vt 0.520833 0.723958
vt 0.489583 0.291667
vt 0.031250 0.291667
vt 0.072917 0.270833
vt 0.447917 0.270833
vt 0.489583 0.708333
vt 0.989583 0.708333
vt 0.989583 0.677083
vt 0.489583 0.677083
vt 0.989583 0.708167
vt 0.489583 0.708167
vt 0.489583 0.676917
vt 0.989583 0.676917
vt 0.510417 0.000000
vt 0.510417 0.322917
vt 0.489583 0.031250
vt 0.000000 0.322917
vt 0.000000 0.000000
vt 0.031250 0.031250
vt 0.447917 0.052083
vt 0.072917 0.052083
vt 0.010417 0.343750
vt 0.010417 0.656250
vt 0.020833 0.635417
vt 0.020833 0.354167
vt 0.510417 0.656250
vt 0.489583 0.635417
vt 0.510417 0.343750
vt 0.489583 0.354167
vt 0.010417 0.677083
vt 0.010417 0.947917
vt 0.468750 0.947917
vt 0.468750 0.677083
vt 0.604167 0.343750
vt 0.604167 0.614583
vt 0.593750 0.614583
vt 0.593750 0.343750
vt 0.989583 0.734288
vt 0.520833 0.734288
vt 0.520833 0.723872
vt 0.989583 0.723872
s 0
g Television_Material.007
usemtl Material.007
f 1/1/1 2/2/1 4/3/1 3/4/1
f 3/5/2 4/6/2 8/7/2 7/8/2
f 7/9/3 8/10/3 6/11/3 5/12/3
f 2/2/4 1/1/4 9/13/4 10/14/4
f 3/15/5 7/16/5 5/17/5 1/18/5
f 8/19/6 4/20/6 2/21/6 6/22/6
f 12/23/7 11/24/7 10/25/7 9/26/7
f 1/27/8 5/28/8 12/29/8 9/30/8
f 6/31/9 2/32/9 10/33/9 11/34/9
f 5/12/10 6/11/10 11/35/10 12/36/10
f 13/37/3 15/38/3 16/39/3 14/40/3
f 15/41/2 19/42/2 20/43/2 16/44/2
f 19/45/1 17/46/1 18/47/1 20/48/1
f 14/40/10 22/49/10 21/50/10 13/37/10
f 15/51/5 13/52/5 17/53/5 19/54/5
f 20/55/6 18/56/6 14/57/6 16/58/6
f 24/59/7 21/60/7 22/61/7 23/62/7
f 13/63/8 21/64/8 24/65/8 17/66/8
f 18/67/9 23/68/9 22/69/9 14/70/9
f 17/46/4 24/71/4 23/72/4 18/47/4
f 25/73/1 3/74/1 4/75/1 26/76/1
f 7/77/3 27/78/3 28/79/3 8/80/3
f 26/76/11 30/81/11 29/82/11 25/73/11
f 3/83/12 25/84/12 27/85/12 7/86/12
f 8/87/13 28/88/13 26/89/13 4/90/13
f 32/91/7 29/92/7 30/93/7 31/94/7
f 25/95/14 29/96/14 32/97/14 27/98/14
f 28/99/15 31/100/15 30/101/15 26/102/15
f 27/78/16 32/103/16 31/104/16 28/79/16
f 33/105/3 34/106/3 16/107/3 15/108/3
f 19/109/1 20/110/1 36/111/1 35/112/1
f 34/106/16 33/105/16 37/113/16 38/114/16
f 15/115/12 19/116/12 35/117/12 33/118/12
f 20/119/13 16/120/13 34/121/13 36/122/13
f 40/123/7 39/124/7 38/125/7 37/126/7
f 33/127/14 35/128/14 40/129/14 37/130/14
f 36/131/15 34/132/15 38/133/15 39/134/15
f 35/112/11 36/111/11 39/135/11 40/136/11
g Television_TV
usemtl TV
f 41/137/1 42/138/1 44/139/1 43/140/1
f 58/141/7 59/142/7 64/143/7 61/144/7
f 47/140/3 48/139/3 46/138/3 45/137/3
f 50/145/17 51/146/17 56/147/17 53/148/17
f 43/149/7 47/150/7 45/151/7 41/152/7
f 48/153/18 44/154/18 42/155/18 46/156/18
f 45/157/19 46/158/19 50/145/19 49/159/19
f 46/158/19 42/160/19 51/146/19 50/145/19
f 42/160/19 41/161/19 52/162/19 51/146/19
f 41/161/19 45/157/19 49/159/19 52/162/19
f 54/163/19 53/148/19 56/147/19 55/164/19
f 49/159/20 50/145/20 53/148/20 54/163/20
f 51/146/21 52/162/21 55/164/21 56/147/21
f 52/162/22 49/159/22 54/163/22 55/164/22
f 43/165/2 44/166/2 58/167/2 57/168/2
f 44/166/2 48/169/2 59/170/2 58/167/2
f 48/169/2 47/171/2 60/172/2 59/170/2
f 47/171/2 43/165/2 57/168/2 60/172/2
f 62/173/2 61/174/2 64/175/2 63/176/2
f 57/177/3 58/178/3 61/179/3 62/180/3
f 59/178/1 60/177/1 63/180/1 64/179/1
f 60/181/18 57/182/18 62/183/18 63/184/18
