# Blender 4.5.4 LTS
# www.blender.org
mtllib Toolbox.mtl
o Toolbox
v -1.043018 -1.043018 2.990821
v -1.043018 1.043018 2.990821
v -1.043018 -1.043018 -2.990821
v -1.043018 1.043018 -2.990821
v 1.043018 -1.043018 2.990821
v 1.043018 1.043018 2.990821
v 1.043018 -1.043018 -2.990821
v 1.043018 1.043018 -2.990821
v -1.190384 1.043018 3.138187
v -1.190384 1.043018 -3.138187
v 1.190384 1.043018 -3.138187
v 1.190384 1.043018 3.138187
v -0.262406 1.377669 2.224543
v -0.262406 1.377669 -2.224543
v 0.262406 1.377669 -2.224543
v 0.262406 1.377669 2.224543
v -1.171903 1.377669 3.134039
v -1.171903 1.377669 -3.134039
v 1.171903 1.377669 -3.134039
v 1.171903 1.377669 3.134039
v -0.262406 1.377669 0.000000
v 0.000000 1.377669 -2.224543
v 0.262406 1.377669 0.000000
v 0.000000 1.377669 2.224543
v 0.000000 1.377669 0.000000
v -0.262406 1.377669 -1.112272
v 0.131203 1.377669 -2.224543
v 0.262406 1.377669 1.112272
v -0.131203 1.377669 2.224543
v -0.262406 1.377669 1.112272
v -0.131203 1.377669 -2.224543
v 0.262406 1.377669 -1.112272
v 0.131203 1.377669 2.224543
v 0.000000 1.377669 1.112272
v 0.000000 1.377669 -1.112272
v 0.131203 1.377669 0.000000
v -0.131203 1.377669 0.000000
v -0.131203 1.377669 -1.112272
v 0.131203 1.377669 -1.112272
v 0.131203 1.377669 1.112272
v -0.131203 1.377669 1.112272
v -0.262406 1.377669 -1.668407
v 0.196805 1.377669 -2.224543
v 0.262406 1.377669 1.668407
v -0.196805 1.377669 2.224543
v -0.262406 1.377669 0.556136
v -0.065602 1.377669 -2.224543
v 0.262406 1.377669 -0.556136
v 0.065602 1.377669 2.224543
v 0.000000 1.377669 1.668407
v 0.000000 1.377669 -0.556136
v 0.196805 1.377669 0.000000
v -0.065602 1.377669 0.000000
v -0.262406 1.377669 -0.556136
v 0.065602 1.377669 -2.224543
v 0.262406 1.377669 0.556136
v -0.065602 1.377669 2.224543
v -0.262406 1.377669 1.668407
v -0.196805 1.377669 -2.224543
v 0.262406 1.377669 -1.668407
v 0.196805 1.377669 2.224543
v 0.000000 1.377669 0.556136
v 0.000000 1.377669 -1.668407
v 0.065602 1.377669 0.000000
v -0.196805 1.377669 0.000000
v -0.131203 1.377669 -0.556136
v -0.131203 1.377669 -1.668407
v -0.065602 1.377669 -1.112272
v -0.196805 1.377669 -1.112272
v 0.131203 1.377669 -0.556136
v 0.131203 1.377669 -1.668407
v 0.196805 1.377669 -1.112272
v 0.065602 1.377669 -1.112272
v 0.131203 1.377669 1.668407
v 0.131203 1.377669 0.556136
v 0.196805 1.377669 1.112272
v 0.065602 1.377669 1.112272
v -0.131203 1.377669 1.668407
v -0.131203 1.377669 0.556136
v -0.065602 1.377669 1.112272
v -0.196805 1.377669 1.112272
v -0.196805 1.377669 0.556136
v -0.065602 1.377669 0.556136
v -0.065602 1.377669 1.668407
v 0.065602 1.377669 0.556136
v 0.196805 1.377669 0.556136
v 0.196805 1.377669 1.668407
v 0.065602 1.377669 -1.668407
v 0.196805 1.377669 -1.668407
v 0.196805 1.377669 -0.556136
v -0.196805 1.377669 -1.668407
v -0.065602 1.377669 -1.668407
v -0.065602 1.377669 -0.556136
v -0.196805 1.377669 -0.556136
v 0.065602 1.377669 -0.556136
v 0.065602 1.377669 1.668407
v -0.196805 1.377669 1.668407
v -0.262406 1.377669 -0.959687
v -0.129368 1.377669 -0.910507
v -0.196805 1.377669 -0.959687
v 0.262406 1.377669 -0.959687
v 0.000000 1.377669 -0.985198
v -0.074691 1.377669 -0.965185
v 0.129368 1.377669 -0.910507
v 0.196805 1.377669 -0.959687
v 0.074691 1.377669 -0.965185
v -0.149382 1.377669 -0.835816
v -0.196805 1.377669 -0.835816
v 0.262406 1.377669 -0.835816
v -0.262406 1.377669 -0.835816
v 0.149382 1.377669 -0.835816
v 0.196805 1.377669 -0.835816
v -0.129368 1.377669 -0.761125
v -0.196805 1.377669 -0.711946
v 0.262406 1.377669 -0.711946
v -0.000000 1.377669 -0.686435
v -0.262406 1.377669 -0.711946
v -0.074691 1.377669 -0.706448
v 0.129368 1.377669 -0.761125
v 0.196805 1.377669 -0.711946
v 0.074691 1.377669 -0.706448
v -0.262406 1.377669 0.736799
v 0.196805 1.377669 0.736799
v -0.071030 1.377669 0.727769
v 0.123027 1.377669 0.779766
v 0.262406 1.377669 0.736799
v 0.071030 1.377669 0.727769
v 0.000000 1.377669 0.708736
v -0.196805 1.377669 0.736799
v -0.123027 1.377669 0.779766
v -0.000000 1.377669 0.992855
v 0.196805 1.377669 0.962997
v -0.071030 1.377669 0.973823
v 0.123027 1.377669 0.921826
v 0.262406 1.377669 0.962997
v 0.071030 1.377669 0.973823
v -0.262406 1.377669 0.962997
v -0.196805 1.377669 0.962997
v -0.123027 1.377669 0.921826
v -0.196805 1.377669 0.855284
v 0.196805 1.377669 0.855284
v -0.142059 1.377669 0.850796
v -0.262406 1.377669 0.855284
v 0.142059 1.377669 0.850796
v 0.262406 1.377669 0.855284
v -0.129368 1.888931 -0.910507
v 0.000000 1.888931 -0.985198
v -0.074691 1.888931 -0.965185
v 0.129368 1.888931 -0.910507
v 0.074691 1.888931 -0.965185
v -0.149382 1.888931 -0.835816
v 0.149382 1.888931 -0.835816
v -0.129368 1.888931 -0.761125
v 0.000000 1.875220 -0.699777
v -0.120424 1.944747 -0.699777
v 0.129368 1.888931 -0.761125
v 0.120424 1.944747 -0.699777
v -0.119362 1.945360 0.721425
v 0.123027 1.888931 0.779766
v 0.119362 1.945360 0.721425
v 0.000000 1.876447 0.721425
v -0.123027 1.888931 0.779766
v -0.000000 1.888931 0.992855
v -0.071030 1.888931 0.973823
v 0.123027 1.888931 0.921826
v 0.071030 1.888931 0.973823
v -0.123027 1.888931 0.921826
v -0.142059 1.888931 0.850796
v 0.142059 1.888931 0.850796
v 0.000000 2.139616 -0.985198
v 0.074691 2.139616 -0.965185
v -0.074691 2.139616 -0.965185
v 0.129368 2.139616 -0.910507
v -0.129368 2.139616 -0.910507
v -0.149382 2.139616 -0.835816
v 0.149382 2.139616 -0.835816
v -0.129368 2.139616 -0.761125
v 0.129368 2.139616 -0.761125
v -0.120424 2.083800 -0.699777
v -0.000000 2.153327 -0.699777
v 0.120424 2.083800 -0.699777
v 0.119362 2.083187 0.721425
v 0.123027 2.139616 0.779766
v 0.000000 2.152101 0.721425
v -0.123027 2.139616 0.779766
v -0.119362 2.083187 0.721425
v 0.142059 2.139616 0.850796
v 0.123027 2.139616 0.921826
v -0.142059 2.139616 0.850796
v -0.123027 2.139616 0.921826
v 0.071030 2.139616 0.973823
v -0.071030 2.139616 0.973823
v -0.000000 2.139616 0.992855
vn -1.0000 -0.0000 -0.0000
vn -0.0000 -0.0000 -1.0000
vn 1.0000 -0.0000 -0.0000
vn -0.0000 -0.0000 1.0000
vn -0.0000 -1.0000 -0.0000
vn 0.9985 0.0551 -0.0000
vn -0.0000 1.0000 -0.0000
vn -0.9985 0.0551 -0.0000
vn -0.0000 0.0124 0.9999
vn -0.0000 0.0124 -0.9999
vn -0.9659 -0.0000 -0.2588
vn 0.1014 0.0019 0.9948
vn 0.7071 -0.0000 -0.7071
vn -0.8832 -0.0423 -0.4672
vn -0.7071 -0.0000 -0.7071
vn 0.9659 -0.0000 0.2588
vn 0.2588 -0.0000 -0.9659
vn 0.9659 -0.0000 -0.2588
vn -0.8679 -0.0399 0.4951
vn -0.0990 0.0014 -0.9951
vn -0.7071 -0.0000 0.7071
vn -0.9659 -0.0000 0.2588
vn -0.1014 0.0019 0.9948
vn -0.2588 -0.0000 -0.9659
vn 0.7071 -0.0000 0.7071
vn 0.8832 -0.0423 -0.4672
vn -0.2588 -0.0000 0.9659
vn 0.8679 -0.0399 0.4951
vn 0.0990 0.0014 -0.9951
vn 0.2588 -0.0000 0.9659
vn -0.9895 -0.0000 0.1443
vn -0.0000 0.9968 0.0797
vn -0.0000 0.9963 -0.0859
vn 0.9980 -0.0000 -0.0627
vn 1.0000 -0.0000 0.0007
vn -0.9980 -0.0000 -0.0627
vn 0.5000 0.8660 0.0007
vn -0.5000 0.8660 0.0007
vn 0.9895 -0.0000 0.1443
vn -1.0000 -0.0000 0.0007
vn 0.5000 -0.8660 0.0007
vn -0.5000 -0.8660 0.0007
vt 0.014378 0.530979
vt 0.014378 0.693968
vt 0.481744 0.693968
vt 0.481744 0.530979
vt 0.507579 0.530979
vt 0.507579 0.693968
vt 0.670568 0.693968
vt 0.670568 0.530979
vt 0.481744 0.719550
vt 0.481744 0.882539
vt 0.014378 0.882539
vt 0.014378 0.719550
vt 0.786068 0.014458
vt 0.786068 0.177447
vt 0.623078 0.177447
vt 0.623078 0.014458
vt 0.434507 0.482077
vt 0.597497 0.482077
vt 0.597497 0.014711
vt 0.434507 0.014711
vt 0.025658 0.026244
vt 0.188647 0.026244
vt 0.200161 0.014730
vt 0.014144 0.014730
vt 0.025658 0.493611
vt 0.014144 0.505125
vt 0.188647 0.493611
vt 0.200161 0.505125
vt 0.014210 0.907997
vt 0.504979 0.907997
vt 0.504654 0.934165
vt 0.014535 0.934165
vt 0.301967 0.129244
vt 0.296841 0.129244
vt 0.296841 0.085792
vt 0.301967 0.085792
vt 0.504979 0.959499
vt 0.014210 0.959499
vt 0.014535 0.985666
vt 0.504654 0.985666
vt 0.507595 0.719436
vt 0.693619 0.719436
vt 0.692176 0.745584
vt 0.509039 0.745584
vt 0.693619 0.770937
vt 0.507595 0.770937
vt 0.509039 0.797086
vt 0.692176 0.797086
vt 0.296841 0.172697
vt 0.296841 0.184361
vt 0.296841 0.192777
vt 0.296841 0.202034
vt 0.296841 0.216150
vt 0.296841 0.259603
vt 0.296841 0.303056
vt 0.296841 0.315230
vt 0.296841 0.324908
vt 0.296841 0.334587
vt 0.296841 0.346509
vt 0.296841 0.389961
vt 0.296841 0.433414
vt 0.225779 0.504476
vt 0.225779 0.014729
vt 0.301967 0.433414
vt 0.307093 0.433414
vt 0.312218 0.433414
vt 0.317344 0.433414
vt 0.322470 0.433414
vt 0.327595 0.433414
vt 0.332721 0.433414
vt 0.337847 0.433414
vt 0.408909 0.504476
vt 0.337847 0.389961
vt 0.337847 0.346509
vt 0.337847 0.334587
vt 0.337847 0.324908
vt 0.337847 0.315230
vt 0.337847 0.303056
vt 0.337847 0.259603
vt 0.337847 0.216150
vt 0.337847 0.202034
vt 0.337847 0.192777
vt 0.337847 0.184361
vt 0.337847 0.172697
vt 0.337847 0.129244
vt 0.337847 0.085792
vt 0.408909 0.014729
vt 0.332721 0.085792
vt 0.327595 0.085792
vt 0.322470 0.085792
vt 0.317344 0.085792
vt 0.312218 0.085792
vt 0.307093 0.085792
vt 0.322470 0.129244
vt 0.317344 0.129244
vt 0.322470 0.303056
vt 0.317344 0.303056
vt 0.317344 0.259603
vt 0.322470 0.259603
vt 0.301967 0.303056
vt 0.301967 0.259603
vt 0.312218 0.303056
vt 0.307093 0.303056
vt 0.307093 0.259603
vt 0.312218 0.259603
vt 0.312218 0.389961
vt 0.307093 0.389961
vt 0.307093 0.346509
vt 0.312218 0.346509
vt 0.301967 0.389961
vt 0.301967 0.346509
vt 0.332721 0.303056
vt 0.327595 0.303056
vt 0.327595 0.259603
vt 0.332721 0.259603
vt 0.332721 0.389961
vt 0.327595 0.389961
vt 0.327595 0.346509
vt 0.332721 0.346509
vt 0.322470 0.389961
vt 0.317344 0.389961
vt 0.317344 0.346509
vt 0.322470 0.346509
vt 0.332721 0.129244
vt 0.327595 0.129244
vt 0.332721 0.216150
vt 0.327595 0.216150
vt 0.326956 0.198677
vt 0.332721 0.202034
vt 0.322470 0.216150
vt 0.317344 0.216150
vt 0.317344 0.204227
vt 0.322894 0.202740
vt 0.312218 0.129244
vt 0.307093 0.129244
vt 0.312218 0.216150
vt 0.307093 0.216150
vt 0.307731 0.198677
vt 0.311794 0.202740
vt 0.301967 0.216150
vt 0.301967 0.202034
vt 0.317344 0.172697
vt 0.312218 0.172697
vt 0.307093 0.172697
vt 0.332721 0.172697
vt 0.327595 0.172697
vt 0.332721 0.334587
vt 0.327452 0.330744
vt 0.311508 0.335016
vt 0.317344 0.336580
vt 0.307236 0.330744
vt 0.301967 0.334587
vt 0.323180 0.335016
vt 0.322470 0.172697
vt 0.301967 0.172697
vt 0.301967 0.324908
vt 0.305672 0.324908
vt 0.332721 0.324908
vt 0.329016 0.324908
vt 0.301967 0.315230
vt 0.332721 0.315230
vt 0.327452 0.319072
vt 0.307236 0.319072
vt 0.317344 0.313236
vt 0.311508 0.314800
vt 0.323180 0.314800
vt 0.301967 0.192777
vt 0.306244 0.193127
vt 0.332721 0.192777
vt 0.328444 0.193127
vt 0.326956 0.187577
vt 0.322894 0.183515
vt 0.317344 0.182028
vt 0.311794 0.183515
vt 0.301967 0.184361
vt 0.307731 0.187577
vt 0.332721 0.184361
vt 0.635510 0.201606
vt 0.629711 0.201606
vt 0.629711 0.243347
vt 0.635510 0.243347
vt 0.676528 0.457616
vt 0.682402 0.457616
vt 0.685998 0.502211
vt 0.676528 0.496744
vt 0.773508 0.286549
vt 0.777972 0.286549
vt 0.777972 0.328290
vt 0.773508 0.328290
vt 0.639755 0.201606
vt 0.640273 0.247954
vt 0.777972 0.201606
vt 0.773508 0.201606
vt 0.773508 0.243347
vt 0.777972 0.243347
vt 0.761312 0.286549
vt 0.767410 0.286549
vt 0.767410 0.328290
vt 0.761312 0.328290
vt 0.678887 0.372309
vt 0.672949 0.372309
vt 0.672949 0.412954
vt 0.678887 0.412954
vt 0.629711 0.286549
vt 0.635510 0.286549
vt 0.635510 0.328290
vt 0.629711 0.328290
vt 0.767410 0.201606
vt 0.767410 0.243347
vt 0.761312 0.201606
vt 0.756848 0.201606
vt 0.756304 0.247904
vt 0.761312 0.243347
vt 0.720605 0.457620
vt 0.715020 0.457620
vt 0.711220 0.502256
vt 0.720605 0.496837
vt 0.623912 0.201606
vt 0.619667 0.201606
vt 0.619667 0.243347
vt 0.623912 0.243347
vt 0.670654 0.457616
vt 0.667058 0.502211
vt 0.667011 0.372309
vt 0.667011 0.412954
vt 0.619667 0.286549
vt 0.623912 0.286549
vt 0.623912 0.328290
vt 0.619667 0.328290
vt 0.639755 0.286549
vt 0.640273 0.332897
vt 0.704017 0.372309
vt 0.709664 0.372309
vt 0.709664 0.412954
vt 0.704017 0.412954
vt 0.756848 0.286549
vt 0.756304 0.332847
vt 0.726190 0.457620
vt 0.729990 0.502256
vt 0.715311 0.372309
vt 0.715311 0.412954
vt 0.767410 0.263813
vt 0.773508 0.263813
vt 0.756304 0.259256
vt 0.761312 0.263813
vt 0.713904 0.688656
vt 0.707706 0.690317
vt 0.701508 0.688656
vt 0.696971 0.684119
vt 0.695310 0.677921
vt 0.696971 0.671724
vt 0.697713 0.666633
vt 0.707706 0.666633
vt 0.717699 0.666633
vt 0.718441 0.671724
vt 0.720102 0.677921
vt 0.718441 0.684119
vt 0.717915 0.543861
vt 0.717611 0.548702
vt 0.707706 0.548702
vt 0.697801 0.548702
vt 0.697497 0.543861
vt 0.695918 0.537967
vt 0.697497 0.532073
vt 0.701812 0.527758
vt 0.707706 0.526179
vt 0.713600 0.527758
vt 0.717915 0.532073
vt 0.719494 0.537967
vt 0.709664 0.432883
vt 0.704017 0.432883
vt 0.640273 0.344149
vt 0.635510 0.348756
vt 0.773508 0.348756
vt 0.767410 0.348756
vt 0.715311 0.432883
vt 0.756304 0.344199
vt 0.619667 0.263813
vt 0.623912 0.263813
vt 0.635510 0.263813
vt 0.640273 0.259206
vt 0.761312 0.348756
vt 0.629711 0.263813
vt 0.672949 0.432883
vt 0.678887 0.432883
vt 0.629711 0.348756
vt 0.667011 0.432883
vt 0.623912 0.348756
vt 0.777972 0.348756
vt 0.777972 0.263813
vt 0.619667 0.348756
vt 0.642389 0.368732
vt 0.632368 0.368732
vt 0.632368 0.488056
vt 0.642478 0.488056
vt 0.622346 0.368732
vt 0.622257 0.488056
s 0
g Toolbox_Toolbox
usemtl Toolbox
f 1/1/1 2/2/1 4/3/1 3/4/1
f 3/5/2 4/6/2 8/7/2 7/8/2
f 7/9/3 8/10/3 6/11/3 5/12/3
f 5/13/4 6/14/4 2/15/4 1/16/4
f 3/17/5 7/18/5 5/19/5 1/20/5
f 2/21/5 6/22/5 12/23/5 9/24/5
f 4/25/5 2/21/5 9/24/5 10/26/5
f 6/22/5 8/27/5 11/28/5 12/23/5
f 8/27/5 4/25/5 10/26/5 11/28/5
f 12/29/6 11/30/6 19/31/6 20/32/6
f 97/33/7 58/34/7 13/35/7 45/36/7
f 10/37/8 9/38/8 17/39/8 18/40/8
f 9/41/9 12/42/9 20/43/9 17/44/9
f 11/45/10 10/46/10 18/47/10 19/48/10
f 13/35/7 58/34/7 30/49/7 137/50/7 143/51/7 122/52/7 46/53/7 21/54/7 54/55/7 117/56/7 110/57/7 98/58/7 26/59/7 42/60/7 14/61/7 18/62/7 17/63/7
f 14/61/7 59/64/7 31/65/7 47/66/7 22/67/7 55/68/7 27/69/7 43/70/7 15/71/7 19/72/7 18/62/7
f 15/71/7 60/73/7 32/74/7 101/75/7 109/76/7 115/77/7 48/78/7 23/79/7 56/80/7 126/81/7 145/82/7 135/83/7 28/84/7 44/85/7 16/86/7 20/87/7 19/72/7
f 16/86/7 61/88/7 33/89/7 49/90/7 24/91/7 57/92/7 29/93/7 45/36/7 13/35/7 17/63/7 20/87/7
f 96/94/7 50/95/7 24/91/7 49/90/7
f 95/96/7 51/97/7 25/98/7 64/99/7
f 94/100/7 54/55/7 21/54/7 65/101/7
f 93/102/7 66/103/7 37/104/7 53/105/7
f 92/106/7 67/107/7 38/108/7 68/109/7
f 91/110/7 42/60/7 26/59/7 69/111/7
f 90/112/7 70/113/7 36/114/7 52/115/7
f 89/116/7 71/117/7 39/118/7 72/119/7
f 88/120/7 63/121/7 35/122/7 73/123/7
f 87/124/7 74/125/7 33/89/7 61/88/7
f 86/126/7 75/127/7 125/128/7 123/129/7
f 85/130/7 62/131/7 128/132/7 127/133/7
f 84/134/7 78/135/7 29/93/7 57/92/7
f 83/136/7 79/137/7 130/138/7 124/139/7
f 82/140/7 46/53/7 122/52/7 129/141/7
f 79/137/7 82/140/7 129/141/7 130/138/7
f 37/104/7 65/101/7 82/140/7 79/137/7
f 65/101/7 21/54/7 46/53/7 82/140/7
f 62/131/7 83/136/7 124/139/7 128/132/7
f 25/98/7 53/105/7 83/136/7 62/131/7
f 53/105/7 37/104/7 79/137/7 83/136/7
f 50/95/7 84/134/7 57/92/7 24/91/7
f 34/142/7 80/143/7 84/134/7 50/95/7
f 80/143/7 41/144/7 78/135/7 84/134/7
f 75/127/7 85/130/7 127/133/7 125/128/7
f 36/114/7 64/99/7 85/130/7 75/127/7
f 64/99/7 25/98/7 62/131/7 85/130/7
f 56/80/7 86/126/7 123/129/7 126/81/7
f 23/79/7 52/115/7 86/126/7 56/80/7
f 52/115/7 36/114/7 75/127/7 86/126/7
f 44/85/7 87/124/7 61/88/7 16/86/7
f 28/84/7 76/145/7 87/124/7 44/85/7
f 76/145/7 40/146/7 74/125/7 87/124/7
f 71/117/7 88/120/7 73/123/7 39/118/7
f 27/69/7 55/68/7 88/120/7 71/117/7
f 55/68/7 22/67/7 63/121/7 88/120/7
f 60/73/7 89/116/7 72/119/7 32/74/7
f 15/71/7 43/70/7 89/116/7 60/73/7
f 43/70/7 27/69/7 71/117/7 89/116/7
f 48/78/7 90/112/7 52/115/7 23/79/7
f 32/74/7 72/119/7 105/147/7 101/75/7
f 72/119/7 39/118/7 104/148/7 105/147/7
f 67/107/7 91/110/7 69/111/7 38/108/7
f 31/65/7 59/64/7 91/110/7 67/107/7
f 59/64/7 14/61/7 42/60/7 91/110/7
f 63/121/7 92/106/7 68/109/7 35/122/7
f 22/67/7 47/66/7 92/106/7 63/121/7
f 47/66/7 31/65/7 67/107/7 92/106/7
f 51/97/7 93/102/7 53/105/7 25/98/7
f 35/122/7 68/109/7 103/149/7 102/150/7
f 68/109/7 38/108/7 99/151/7 103/149/7
f 66/103/7 94/100/7 65/101/7 37/104/7
f 38/108/7 69/111/7 100/152/7 99/151/7
f 69/111/7 26/59/7 98/58/7 100/152/7
f 70/113/7 95/96/7 64/99/7 36/114/7
f 39/118/7 73/123/7 106/153/7 104/148/7
f 73/123/7 35/122/7 102/150/7 106/153/7
f 74/125/7 96/94/7 49/90/7 33/89/7
f 40/146/7 77/154/7 96/94/7 74/125/7
f 77/154/7 34/142/7 50/95/7 96/94/7
f 78/135/7 97/33/7 45/36/7 29/93/7
f 41/144/7 81/155/7 97/33/7 78/135/7
f 81/155/7 30/49/7 58/34/7 97/33/7
f 99/151/7 100/152/7 108/156/7 107/157/7
f 100/152/7 98/58/7 110/57/7 108/156/7
f 101/75/7 105/147/7 112/158/7 109/76/7
f 105/147/7 104/148/7 111/159/7 112/158/7
f 108/156/7 110/57/7 117/56/7 114/160/7
f 109/76/7 112/158/7 120/161/7 115/77/7
f 112/158/7 111/159/7 119/162/7 120/161/7
f 107/157/7 108/156/7 114/160/7 113/163/7
f 113/163/7 114/160/7 94/100/7 66/103/7
f 116/164/7 118/165/7 93/102/7 51/97/7
f 115/77/7 120/161/7 90/112/7 48/78/7
f 119/162/7 121/166/7 95/96/7 70/113/7
f 121/166/7 116/164/7 51/97/7 95/96/7
f 114/160/7 117/56/7 54/55/7 94/100/7
f 120/161/7 119/162/7 70/113/7 90/112/7
f 118/165/7 113/163/7 66/103/7 93/102/7
f 130/138/7 129/141/7 140/167/7 142/168/7
f 126/81/7 123/129/7 141/169/7 145/82/7
f 129/141/7 122/52/7 143/51/7 140/167/7
f 123/129/7 125/128/7 144/170/7 141/169/7
f 134/171/7 136/172/7 77/154/7 40/146/7
f 131/173/7 133/174/7 80/143/7 34/142/7
f 136/172/7 131/173/7 34/142/7 77/154/7
f 138/175/7 137/50/7 30/49/7 81/155/7
f 139/176/7 138/175/7 81/155/7 41/144/7
f 132/177/7 134/171/7 40/146/7 76/145/7
f 133/174/7 139/176/7 41/144/7 80/143/7
f 135/83/7 132/177/7 76/145/7 28/84/7
f 140/167/7 143/51/7 137/50/7 138/175/7
f 142/168/7 140/167/7 138/175/7 139/176/7
f 141/169/7 144/170/7 134/171/7 132/177/7
f 145/82/7 141/169/7 132/177/7 135/83/7
f 130/178/11 142/179/11 168/180/11 162/181/11
f 116/182/12 121/183/12 157/184/12 154/185/12
f 104/186/13 106/187/13 150/188/13 149/189/13
f 124/190/14 130/178/14 162/181/14 158/191/14
f 103/192/15 99/193/15 146/194/15 148/195/15
f 119/196/16 111/197/16 152/198/16 156/199/16
f 106/200/17 102/201/17 147/202/17 150/203/17
f 144/204/18 125/205/18 159/206/18 169/207/18
f 99/193/11 107/208/11 151/209/11 146/194/11
f 113/210/19 118/211/19 155/212/19 153/213/19
f 128/214/20 124/215/20 158/216/20 161/217/20
f 139/218/21 133/219/21 164/220/21 167/221/21
f 142/179/22 139/218/22 167/221/22 168/180/22
f 118/222/23 116/182/23 154/185/23 155/223/23
f 102/201/24 103/224/24 148/225/24 147/202/24
f 136/226/25 134/227/25 165/228/25 166/229/25
f 107/208/22 113/210/22 153/213/22 151/209/22
f 125/205/26 127/230/26 160/231/26 159/206/26
f 133/232/27 131/233/27 163/234/27 164/235/27
f 111/197/18 104/186/18 149/189/18 152/198/18
f 121/236/28 119/196/28 156/199/28 157/237/28
f 127/238/29 128/214/29 161/217/29 160/239/29
f 131/233/30 136/240/30 166/241/30 163/234/30
f 134/227/16 144/204/16 169/207/16 165/228/16
f 146/194/11 151/209/11 175/242/11 174/243/11
f 153/213/31 155/212/31 179/244/31 177/245/31
f 171/246/32 170/247/32 172/248/32 174/249/32 175/250/32 177/251/32 179/252/32 180/253/32 181/254/32 178/255/32 176/256/32 173/257/32
f 183/258/33 182/259/33 184/260/33 186/261/33 185/262/33 189/263/33 190/264/33 192/265/33 193/266/33 191/267/33 188/268/33 187/269/33
f 164/235/27 163/234/27 193/270/27 192/271/27
f 159/206/34 160/231/34 182/272/34 183/273/34
f 152/198/18 149/189/18 173/274/18 176/275/18
f 163/234/30 166/241/30 191/276/30 193/270/30
f 182/272/35 160/231/35 157/237/35 181/277/35
f 151/209/22 153/213/22 177/245/22 175/242/22
f 167/221/21 164/220/21 192/278/21 190/279/21
f 158/191/36 162/181/36 185/280/36 186/281/36
f 156/199/16 152/198/16 176/275/16 178/282/16
f 162/181/11 168/180/11 189/283/11 185/280/11
f 150/203/17 147/202/17 170/284/17 171/285/17
f 184/260/37 182/259/37 181/254/37 180/253/37
f 186/261/38 184/260/38 180/253/38 179/252/38
f 169/207/18 159/206/18 183/273/18 187/286/18
f 147/202/24 148/225/24 172/287/24 170/284/24
f 165/228/16 169/207/16 187/286/16 188/288/16
f 157/237/39 156/199/39 178/282/39 181/277/39
f 149/189/13 150/188/13 171/289/13 173/274/13
f 168/180/22 167/221/22 190/279/22 189/283/22
f 158/191/40 186/281/40 179/244/40 155/212/40
f 148/195/15 146/194/15 174/243/15 172/290/15
f 166/229/25 165/228/25 188/288/25 191/291/25
f 160/292/41 161/293/41 154/294/41 157/295/41
f 161/293/42 158/296/42 155/297/42 154/294/42
