# Blender 5.0.0
# www.blender.org
mtllib Totebag.mtl
o PlasticBag
v -2.040560 2.075852 0.469708
v -2.040560 2.075852 -0.469708
v 2.040560 2.075852 0.469708
v 2.040560 2.075852 -0.469708
v -2.145000 2.000000 0.650000
v -2.145000 2.000000 -0.650000
v 2.145000 2.000000 -0.650000
v 2.145000 2.000000 0.650000
v -1.571231 -1.872118 0.420081
v -1.571231 -1.872118 -0.420081
v 1.571231 -1.872118 -0.420081
v 1.571231 -1.872118 0.420081
v -1.354173 -2.000000 0.204173
v -1.686456 -1.705404 0.511047
v -1.470156 -1.977575 0.318222
v -1.574032 -1.913715 0.416590
v -1.649987 -1.818141 0.484301
v -1.354173 -2.000000 -0.204173
v -1.686456 -1.705404 -0.511047
v -1.470156 -1.977575 -0.318222
v -1.574032 -1.913715 -0.416590
v -1.649987 -1.818141 -0.484301
v 1.354173 -2.000000 0.204173
v 1.686456 -1.705404 0.511047
v 1.470156 -1.977575 0.318222
v 1.574032 -1.913715 0.416590
v 1.649987 -1.818141 0.484301
v 1.354173 -2.000000 -0.204173
v 1.686456 -1.705404 -0.511047
v 1.470156 -1.977575 -0.318222
v 1.574032 -1.913715 -0.416590
v 1.649987 -1.818141 -0.484301
v 0.000000 2.000000 -0.650000
v 0.000000 2.000000 -0.545560
v 1.072500 2.000000 -0.650000
v 1.020280 2.000000 -0.545560
v -1.072500 2.000000 -0.650000
v -1.020280 2.000000 -0.545560
v -2.145000 2.075852 -0.468651
v -2.145000 2.075852 0.469675
v 2.145000 2.075852 0.469676
v 2.145000 2.075852 -0.468651
v -2.040560 2.318675 -0.469708
v -2.040560 2.727733 -0.060626
v -2.040560 2.479257 -0.437765
v -2.040560 2.609059 -0.351029
v -2.040560 2.695791 -0.221219
v 2.040560 2.318675 0.469708
v 2.040560 2.727733 0.060650
v 2.040560 2.479258 0.437766
v 2.040560 2.609060 0.351035
v 2.040560 2.695791 0.221233
v 2.040560 2.727733 -0.060626
v 2.040560 2.318675 -0.469708
v 2.040560 2.695791 -0.221219
v 2.040560 2.609059 -0.351029
v 2.040560 2.479257 -0.437765
v -2.145000 2.318675 0.469675
v -2.145000 2.727733 0.060617
v -2.145000 2.479258 0.437733
v -2.145000 2.609060 0.351002
v -2.145000 2.695791 0.221200
v -2.040560 2.727733 0.060650
v -2.040560 2.318675 0.469708
v -2.040560 2.695791 0.221233
v -2.040560 2.609060 0.351035
v -2.040560 2.479258 0.437766
v 2.145000 2.318675 -0.468651
v 2.145000 2.727733 -0.059568
v 2.145000 2.479257 -0.436707
v 2.145000 2.609059 -0.349972
v 2.145000 2.695791 -0.220162
v -2.145000 2.727733 -0.059568
v -2.145000 2.318675 -0.468651
v -2.145000 2.695791 -0.220161
v -2.145000 2.609059 -0.349972
v -2.145000 2.479257 -0.436707
v 2.145000 2.727733 0.060617
v 2.145000 2.318675 0.469676
v 2.145000 2.695791 0.221200
v 2.145000 2.609060 0.351002
v 2.145000 2.479258 0.437734
v -2.040560 2.000000 0.545560
v -2.040560 2.000000 -0.545560
v 2.040560 2.000000 -0.545560
v 2.040560 2.000000 0.545560
v -2.145000 2.000000 0.545527
v -2.145000 2.000000 -0.544503
v 2.145000 2.000000 -0.544503
v 2.145000 2.000000 0.545527
v -2.040560 2.508854 -0.509215
v -2.040560 2.326146 -0.545560
v -2.145000 2.326146 -0.544503
v -2.145000 2.508854 -0.508158
v -2.040560 2.663746 -0.405714
v -2.145000 2.663746 -0.404657
v -2.040560 2.767242 -0.250814
v -2.145000 2.767242 -0.249756
v -2.040560 2.803585 -0.068096
v -2.145000 2.803585 -0.067039
v -2.040560 2.767242 0.250829
v -2.040560 2.803585 0.068121
v -2.145000 2.803585 0.068088
v -2.145000 2.767242 0.250796
v -2.040560 2.663746 0.405721
v -2.145000 2.663746 0.405688
v -2.040560 2.508854 0.509217
v -2.145000 2.508854 0.509184
v -2.040560 2.326146 0.545560
v -2.145000 2.326146 0.545527
v 2.040560 2.508854 0.509217
v 2.040560 2.326146 0.545560
v 2.145000 2.326146 0.545527
v 2.145000 2.508854 0.509184
v 2.040560 2.663746 0.405721
v 2.145000 2.663746 0.405688
v 2.040560 2.767242 0.250829
v 2.145000 2.767242 0.250796
v 2.040560 2.803585 0.068121
v 2.145000 2.803585 0.068088
v 2.040560 2.767242 -0.250814
v 2.040560 2.803585 -0.068096
v 2.145000 2.803585 -0.067039
v 2.145000 2.767242 -0.249756
v 2.040560 2.663746 -0.405714
v 2.145000 2.663746 -0.404657
v 2.040560 2.508854 -0.509215
v 2.145000 2.508854 -0.508158
v 2.040560 2.326146 -0.545560
v 2.145000 2.326146 -0.544503
vn -0.0000 0.0324 -0.9995
vn -0.0000 1.0000 -0.0000
vn -0.0000 0.0324 0.9995
vn -0.9927 0.1203 -0.0000
vn 0.9927 0.1203 -0.0000
vn -0.1898 -0.9818 -0.0000
vn -0.5237 -0.8519 -0.0000
vn -0.7829 -0.6222 -0.0000
vn -0.9515 -0.3078 -0.0000
vn -0.0000 -0.9812 -0.1929
vn -0.0000 -0.8388 -0.5445
vn -0.0000 -0.5781 -0.8160
vn -0.0000 -0.2308 -0.9730
vn 0.1898 -0.9818 -0.0000
vn 0.5237 -0.8519 -0.0000
vn 0.7829 -0.6222 -0.0000
vn 0.9515 -0.3078 -0.0000
vn -0.0000 -0.9812 0.1929
vn -0.0000 -0.8388 0.5445
vn -0.0000 -0.5781 0.8160
vn -0.0000 -0.2308 0.9730
vn -0.0000 -1.0000 -0.0000
vn -0.9924 -0.1228 -0.0000
vn -0.0000 -0.0375 0.9993
vn -0.0000 -0.0375 -0.9993
vn 0.9924 -0.1228 -0.0000
vn -0.0099 0.1951 -0.9807
vn -0.0084 0.5556 -0.8314
vn -0.0056 0.8315 -0.5555
vn -0.0020 0.9808 -0.1951
vn -0.0001 0.9808 0.1951
vn -0.0002 0.8315 0.5556
vn -0.0003 0.5556 0.8315
vn -0.0003 0.1951 0.9808
vn 0.0003 0.1951 0.9808
vn 0.0003 0.5556 0.8315
vn 0.0002 0.8315 0.5556
vn 0.0001 0.9808 0.1951
vn 0.0020 0.9808 -0.1951
vn 0.0056 0.8315 -0.5555
vn 0.0084 0.5556 -0.8314
vn 0.0099 0.1951 -0.9807
vn -0.0101 -0.0000 -0.9999
vn 0.0003 -0.0000 1.0000
vn 0.0101 -0.0000 -0.9999
vn -0.0003 -0.0000 1.0000
vn 1.0000 -0.0000 -0.0000
vn -1.0000 -0.0000 -0.0000
vn 0.0101 -0.0000 0.9999
vn 0.0099 -0.1951 0.9807
vn 0.0084 -0.5556 0.8314
vn 0.0056 -0.8315 0.5555
vn 0.0020 -0.9808 0.1951
vn 0.0001 -0.9808 -0.1951
vn 0.0002 -0.8315 -0.5556
vn 0.0003 -0.5556 -0.8315
vn 0.0003 -0.1951 -0.9808
vn 0.0003 -0.0000 -1.0000
vn -0.0003 -0.0000 -1.0000
vn -0.0003 -0.1951 -0.9808
vn -0.0003 -0.5556 -0.8315
vn -0.0002 -0.8315 -0.5556
vn -0.0001 -0.9808 -0.1951
vn -0.0020 -0.9808 0.1951
vn -0.0056 -0.8315 0.5555
vn -0.0084 -0.5556 0.8314
vn -0.0099 -0.1951 0.9807
vn -0.0101 -0.0000 0.9999
vt 0.398441 0.335227
vt 0.727728 0.335227
vt 0.689860 0.022804
vt 0.436309 0.022804
vt 0.651834 0.772043
vt 0.398350 0.772043
vt 0.398350 0.704272
vt 0.651834 0.704272
vt 0.727728 0.676158
vt 0.645406 0.676158
vt 0.563085 0.676158
vt 0.480763 0.676158
vt 0.398441 0.676158
vt 0.436309 0.363734
vt 0.689860 0.363734
vt 0.888472 0.335727
vt 0.976789 0.335727
vt 0.966632 0.022312
vt 0.898628 0.022312
vt 0.976789 0.741707
vt 0.888472 0.741707
vt 0.898628 0.428292
vt 0.966632 0.428292
vt 0.038121 0.761562
vt 0.038121 0.727656
vt 0.028491 0.718187
vt 0.028491 0.771032
vt 0.019866 0.710019
vt 0.019866 0.779200
vt 0.842192 0.021716
vt 0.774543 0.021716
vt 0.769045 0.029476
vt 0.847690 0.029476
vt 0.766873 0.038630
vt 0.849861 0.038630
vt 0.263001 0.761562
vt 0.272632 0.771032
vt 0.281257 0.779200
vt 0.324132 0.022375
vt 0.069430 0.022375
vt 0.063285 0.030107
vt 0.330278 0.030107
vt 0.060334 0.039229
vt 0.333228 0.039229
vt 0.263001 0.727656
vt 0.272632 0.718187
vt 0.281257 0.710019
vt 0.774543 0.431063
vt 0.842192 0.431063
vt 0.847690 0.438823
vt 0.769045 0.438823
vt 0.849861 0.447977
vt 0.766873 0.447977
vt 0.069430 0.366672
vt 0.324132 0.366672
vt 0.330278 0.374405
vt 0.063285 0.374405
vt 0.333228 0.383526
vt 0.060334 0.383526
vt 0.755591 0.339487
vt 0.764074 0.339487
vt 0.852578 0.339487
vt 0.861144 0.339487
vt 0.370328 0.683321
vt 0.023234 0.683321
vt 0.023234 0.339024
vt 0.110008 0.339024
vt 0.196781 0.339024
vt 0.283555 0.339024
vt 0.370328 0.339024
vt 0.861144 0.748834
vt 0.852578 0.748834
vt 0.764074 0.748834
vt 0.755591 0.748834
vt 0.023756 0.841852
vt 0.369806 0.841852
vt 0.361382 0.850276
vt 0.032181 0.850276
vt 0.369806 0.850279
vt 0.361381 0.805915
vt 0.369806 0.814340
vt 0.283294 0.814340
vt 0.196781 0.814340
vt 0.110269 0.814340
vt 0.023757 0.814340
vt 0.032181 0.805915
vt 0.114481 0.805915
vt 0.196781 0.805915
vt 0.279081 0.805915
vt 0.023757 0.805830
vt 0.023756 0.850279
vt 0.369806 0.805830
vt 0.478324 0.826037
vt 0.469680 0.826037
vt 0.469680 0.841158
vt 0.478324 0.841158
vt 0.469680 0.853978
vt 0.478324 0.853978
vt 0.314079 0.777839
vt 0.305299 0.777750
vt 0.305299 0.764727
vt 0.314079 0.764816
vt 0.305299 0.749366
vt 0.314079 0.749455
vt 0.314079 0.738003
vt 0.305299 0.738005
vt 0.305299 0.722645
vt 0.314079 0.722642
vt 0.305299 0.709623
vt 0.314079 0.709620
vt 0.514260 0.853977
vt 0.505617 0.853977
vt 0.505617 0.841158
vt 0.514260 0.841158
vt 0.505617 0.826037
vt 0.514260 0.826037
vt 0.541553 0.826037
vt 0.550197 0.826037
vt 0.550197 0.841158
vt 0.541553 0.841158
vt 0.550197 0.853977
vt 0.541553 0.853977
vt 0.341235 0.709620
vt 0.350016 0.709623
vt 0.350016 0.722645
vt 0.341235 0.722642
vt 0.350016 0.738005
vt 0.341235 0.738003
vt 0.341235 0.749455
vt 0.350016 0.749366
vt 0.350016 0.764727
vt 0.341235 0.764816
vt 0.350016 0.777750
vt 0.341235 0.777839
vt 0.577490 0.853978
vt 0.586134 0.853978
vt 0.586134 0.841158
vt 0.577490 0.841158
vt 0.586134 0.826037
vt 0.577490 0.826037
vt 0.478324 0.799043
vt 0.469680 0.799043
vt 0.541553 0.799044
vt 0.550197 0.799044
vt 0.586134 0.799043
vt 0.577490 0.799043
vt 0.505617 0.799044
vt 0.514260 0.799044
vt 0.688205 0.780064
vt 0.679781 0.779978
vt 0.679781 0.704289
vt 0.688205 0.704286
vt 0.970649 0.747846
vt 0.894611 0.747846
vt 0.894611 0.341866
vt 0.970649 0.341866
vt 0.770232 0.345645
vt 0.846419 0.345645
vt 0.846419 0.754993
vt 0.770232 0.754993
vt 0.968064 0.780499
vt 0.970649 0.767501
vt 0.976789 0.768106
vt 0.973847 0.782894
vt 0.846419 0.365361
vt 0.843825 0.378399
vt 0.849627 0.380803
vt 0.852578 0.365968
vt 0.961043 0.791005
vt 0.965469 0.795431
vt 0.836783 0.388939
vt 0.841223 0.393379
vt 0.950536 0.798025
vt 0.952931 0.803809
vt 0.826243 0.395981
vt 0.828646 0.401782
vt 0.937537 0.800611
vt 0.938142 0.806750
vt 0.813204 0.398574
vt 0.813810 0.404733
vt 0.914723 0.798025
vt 0.927721 0.800611
vt 0.927116 0.806750
vt 0.912328 0.803809
vt 0.803446 0.398574
vt 0.790407 0.395981
vt 0.788004 0.401782
vt 0.802839 0.404733
vt 0.904217 0.791005
vt 0.899791 0.795431
vt 0.779868 0.388939
vt 0.775428 0.393379
vt 0.897197 0.780499
vt 0.891413 0.782894
vt 0.772826 0.378400
vt 0.767025 0.380803
vt 0.894611 0.767501
vt 0.888472 0.768106
vt 0.770232 0.365361
vt 0.764074 0.365968
vt 0.897197 0.374519
vt 0.894611 0.361521
vt 0.888472 0.362125
vt 0.891413 0.376914
vt 0.770232 0.774709
vt 0.772826 0.787747
vt 0.767025 0.790150
vt 0.764074 0.775315
vt 0.904217 0.385025
vt 0.899791 0.389451
vt 0.779868 0.798286
vt 0.775428 0.802727
vt 0.914723 0.392045
vt 0.912328 0.397828
vt 0.790407 0.805328
vt 0.788004 0.811130
vt 0.927721 0.394630
vt 0.927117 0.400770
vt 0.803446 0.807922
vt 0.802839 0.814081
vt 0.950536 0.392045
vt 0.937537 0.394630
vt 0.938142 0.400770
vt 0.952932 0.397828
vt 0.813204 0.807922
vt 0.826243 0.805328
vt 0.828646 0.811130
vt 0.813811 0.814081
vt 0.961043 0.385025
vt 0.965469 0.389451
vt 0.836783 0.798286
vt 0.841223 0.802727
vt 0.968064 0.374518
vt 0.973847 0.376914
vt 0.843825 0.787747
vt 0.849627 0.790150
vt 0.970649 0.361521
vt 0.976789 0.362125
vt 0.846419 0.774709
vt 0.852578 0.775315
vt 0.724257 0.827291
vt 0.715602 0.827291
vt 0.715602 0.807170
vt 0.724257 0.807170
vt 0.724257 0.840598
vt 0.715602 0.840598
vt 0.724257 0.851354
vt 0.715602 0.851354
vt 0.406514 0.846640
vt 0.397743 0.846551
vt 0.397743 0.857453
vt 0.406514 0.857542
vt 0.406514 0.833153
vt 0.397743 0.833064
vt 0.406514 0.822968
vt 0.397743 0.822971
vt 0.406514 0.809482
vt 0.397743 0.809485
vt 0.406514 0.798581
vt 0.397743 0.798583
vt 0.622076 0.832563
vt 0.613422 0.832563
vt 0.613422 0.843318
vt 0.622076 0.843318
vt 0.622076 0.819257
vt 0.613422 0.819257
vt 0.622076 0.799136
vt 0.613422 0.799136
vt 0.715717 0.704286
vt 0.724142 0.704289
vt 0.724142 0.779978
vt 0.715717 0.780064
vt 0.679666 0.827291
vt 0.688320 0.827291
vt 0.688320 0.807170
vt 0.679666 0.807170
vt 0.679666 0.840597
vt 0.688320 0.840597
vt 0.679666 0.851353
vt 0.688320 0.851353
vt 0.433679 0.809482
vt 0.442451 0.809485
vt 0.442451 0.798584
vt 0.433679 0.798581
vt 0.433679 0.822968
vt 0.442451 0.822971
vt 0.433679 0.833153
vt 0.442451 0.833064
vt 0.433679 0.846640
vt 0.442451 0.846552
vt 0.433679 0.857542
vt 0.442451 0.857453
vt 0.755650 0.873904
vt 0.764304 0.873904
vt 0.764304 0.884661
vt 0.755650 0.884661
vt 0.755650 0.860598
vt 0.764304 0.860598
vt 0.755650 0.840476
vt 0.764304 0.840476
s 0
g PlasticBag_Material.015
usemtl Material.015
f 83/1/1 86/2/1 12/3/1 9/4/1
f 11/5/2 10/6/2 9/7/2 12/8/2
f 85/9/3 36/10/3 34/11/3 38/12/3 84/13/3 10/14/3 11/15/3
f 86/16/4 85/17/4 11/18/4 12/19/4
f 84/20/5 83/21/5 9/22/5 10/23/5
f 18/24/6 13/25/6 15/26/6 20/27/6
f 20/27/7 15/26/7 16/28/7 21/29/7
f 21/30/8 16/31/8 17/32/8 22/33/8
f 22/33/9 17/32/9 14/34/9 19/35/9
f 28/36/10 18/24/10 20/27/10 30/37/10
f 30/37/11 20/27/11 21/29/11 31/38/11
f 31/39/12 21/40/12 22/41/12 32/42/12
f 32/42/13 22/41/13 19/43/13 29/44/13
f 23/45/14 28/36/14 30/37/14 25/46/14
f 25/46/15 30/37/15 31/38/15 26/47/15
f 26/48/16 31/49/16 32/50/16 27/51/16
f 27/51/17 32/50/17 29/52/17 24/53/17
f 13/25/18 23/45/18 25/46/18 15/26/18
f 15/26/19 25/46/19 26/47/19 16/28/19
f 16/54/20 26/55/20 27/56/20 17/57/20
f 17/57/21 27/56/21 24/58/21 14/59/21
f 18/24/22 28/36/22 23/45/22 13/25/22
f 14/34/23 5/60/23 87/61/23 88/62/23 6/63/23 19/35/23
f 24/58/24 8/64/24 5/65/24 14/59/24
f 19/43/25 6/66/25 37/67/25 33/68/25 35/69/25 7/70/25 29/44/25
f 29/52/26 7/71/26 89/72/26 90/73/26 8/74/26 24/53/26
f 5/75/2 8/76/2 86/77/2 83/78/2
f 8/76/2 90/79/2 86/77/2
f 85/80/2 7/81/2 35/82/2 33/83/2 37/84/2 6/85/2 84/86/2 38/87/2 34/88/2 36/89/2
f 6/85/2 88/90/2 84/86/2
f 83/78/2 87/91/2 5/75/2
f 85/80/2 89/92/2 7/81/2
f 92/93/27 93/94/27 94/95/27 91/96/27
f 91/96/28 94/95/28 96/97/28 95/98/28
f 95/99/29 96/100/29 98/101/29 97/102/29
f 97/102/30 98/101/30 100/103/30 99/104/30
f 102/105/31 103/106/31 104/107/31 101/108/31
f 101/108/32 104/107/32 106/109/32 105/110/32
f 105/111/33 106/112/33 108/113/33 107/114/33
f 107/114/34 108/113/34 110/115/34 109/116/34
f 112/117/35 113/118/35 114/119/35 111/120/35
f 111/120/36 114/119/36 116/121/36 115/122/36
f 115/123/37 116/124/37 118/125/37 117/126/37
f 117/126/38 118/125/38 120/127/38 119/128/38
f 122/129/39 123/130/39 124/131/39 121/132/39
f 121/132/40 124/131/40 126/133/40 125/134/40
f 125/135/41 126/136/41 128/137/41 127/138/41
f 127/138/42 128/137/42 130/139/42 129/140/42
f 99/104/2 100/103/2 103/106/2 102/105/2
f 84/141/43 88/142/43 93/94/43 92/93/43
f 119/128/2 120/127/2 123/130/2 122/129/2
f 86/143/44 90/144/44 113/118/44 112/117/44
f 89/145/45 85/146/45 129/140/45 130/139/45
f 87/147/46 83/148/46 109/116/46 110/115/46
f 2/149/2 39/150/2 40/151/2 1/152/2
f 2/153/47 1/154/47 83/21/47 84/20/47
f 3/155/48 4/156/48 85/17/48 86/16/48
f 40/157/48 39/158/48 88/62/48 87/61/48
f 42/159/47 41/160/47 90/73/47 89/72/47
f 45/161/47 43/162/47 92/163/47 91/164/47
f 74/165/48 77/166/48 94/167/48 93/168/48
f 46/169/47 45/161/47 91/164/47 95/170/47
f 77/166/48 76/171/48 96/172/48 94/167/48
f 47/173/47 46/169/47 95/170/47 97/174/47
f 76/171/48 75/175/48 98/176/48 96/172/48
f 44/177/47 47/173/47 97/174/47 99/178/47
f 75/175/48 73/179/48 100/180/48 98/176/48
f 65/181/47 63/182/47 102/183/47 101/184/47
f 59/185/48 62/186/48 104/187/48 103/188/48
f 66/189/47 65/181/47 101/184/47 105/190/47
f 62/186/48 61/191/48 106/192/48 104/187/48
f 67/193/47 66/189/47 105/190/47 107/194/47
f 61/191/48 60/195/48 108/196/48 106/192/48
f 64/197/47 67/193/47 107/194/47 109/198/47
f 60/195/48 58/199/48 110/200/48 108/196/48
f 50/201/48 48/202/48 112/203/48 111/204/48
f 79/205/47 82/206/47 114/207/47 113/208/47
f 51/209/48 50/201/48 111/204/48 115/210/48
f 82/206/47 81/211/47 116/212/47 114/207/47
f 52/213/48 51/209/48 115/210/48 117/214/48
f 81/211/47 80/215/47 118/216/47 116/212/47
f 49/217/48 52/213/48 117/214/48 119/218/48
f 80/215/47 78/219/47 120/220/47 118/216/47
f 55/221/48 53/222/48 122/223/48 121/224/48
f 69/225/47 72/226/47 124/227/47 123/228/47
f 56/229/48 55/221/48 121/224/48 125/230/48
f 72/226/47 71/231/47 126/232/47 124/227/47
f 57/233/48 56/229/48 125/230/48 127/234/48
f 71/231/47 70/235/47 128/236/47 126/232/47
f 54/237/48 57/233/48 127/234/48 129/238/48
f 70/235/47 68/239/47 130/240/47 128/236/47
f 1/154/47 64/197/47 109/198/47 83/21/47
f 43/162/47 2/153/47 84/20/47 92/163/47
f 63/182/47 44/177/47 99/178/47 102/183/47
f 73/179/48 59/185/48 103/188/48 100/180/48
f 39/158/48 74/165/48 93/168/48 88/62/48
f 48/202/48 3/155/48 86/16/48 112/203/48
f 53/222/48 49/217/48 119/218/48 122/223/48
f 4/156/48 54/237/48 129/238/48 85/17/48
f 78/219/47 69/225/47 123/228/47 120/220/47
f 41/160/47 79/205/47 113/208/47 90/73/47
f 68/239/47 42/159/47 89/72/47 130/240/47
f 58/199/48 40/157/48 87/61/48 110/200/48
f 43/241/49 74/242/49 39/243/49 2/244/49
f 45/245/50 77/246/50 74/242/50 43/241/50
f 46/247/51 76/248/51 77/246/51 45/245/51
f 47/249/52 75/250/52 76/251/52 46/252/52
f 44/253/53 73/254/53 75/250/53 47/249/53
f 63/255/22 59/256/22 73/254/22 44/253/22
f 65/257/54 62/258/54 59/256/54 63/255/54
f 66/259/55 61/260/55 62/258/55 65/257/55
f 67/261/56 60/262/56 61/263/56 66/264/56
f 64/265/57 58/266/57 60/262/57 67/261/57
f 64/265/58 1/267/58 40/268/58 58/266/58
f 3/269/2 41/270/2 42/271/2 4/272/2
f 48/273/59 79/274/59 41/275/59 3/276/59
f 50/277/60 82/278/60 79/274/60 48/273/60
f 51/279/61 81/280/61 82/278/61 50/277/61
f 52/281/62 80/282/62 81/283/62 51/284/62
f 49/285/63 78/286/63 80/282/63 52/281/63
f 53/287/22 69/288/22 78/286/22 49/285/22
f 55/289/64 72/290/64 69/288/64 53/287/64
f 56/291/65 71/292/65 72/290/65 55/289/65
f 57/293/66 70/294/66 71/295/66 56/296/66
f 54/297/67 68/298/67 70/294/67 57/293/67
f 4/299/68 42/300/68 68/298/68 54/297/68
