# Blender 5.0.0
# www.blender.org
mtllib Water Dispenser.mtl
o Water_Dispenser
v -2.016000 -5.040000 2.038923
v -2.016000 5.040000 2.038923
v -2.016000 -5.040000 -2.038923
v -2.016000 5.040000 -2.038923
v 2.016000 -5.040000 2.038923
v 2.016000 5.040000 2.038923
v 2.016000 -5.040000 -2.038923
v 2.016000 5.040000 -2.038923
v -2.016000 2.005844 2.038923
v -2.016000 2.005844 -2.038923
v 2.016000 2.005844 -2.038923
v 2.016000 2.005844 2.038923
v -2.016000 -1.021071 -2.038923
v 2.016000 -1.021071 -2.038923
v 2.016000 -1.021071 2.038923
v -2.016000 -1.021071 2.038923
v 1.518380 -5.040000 -2.038923
v 1.518380 5.040000 -2.038923
v 1.518380 -5.040000 2.038923
v 1.518380 5.040000 2.038923
v 1.518380 2.005844 2.038923
v 1.518380 2.005844 -2.038923
v 1.518380 -1.021071 -2.038923
v 1.518380 -1.021071 2.038923
v -1.516381 -5.040000 -2.038923
v -1.516381 5.040000 2.038923
v -1.516381 2.005844 2.038923
v -1.516381 -1.021071 2.038923
v -1.516381 5.040000 -2.038923
v -1.516381 -5.040000 2.038923
v -1.516381 2.005844 -2.038923
v -1.516381 -1.021071 -2.038923
v 1.518380 2.005844 0.993123
v 1.518380 -1.021071 0.993123
v -1.516381 2.005844 0.993123
v -1.516381 -1.021071 0.993123
vn -1.0000 -0.0000 -0.0000
vn -0.0000 -0.0000 -1.0000
vn 1.0000 -0.0000 -0.0000
vn -0.0000 -0.0000 1.0000
vn -0.0000 -1.0000 -0.0000
vn -0.0000 1.0000 -0.0000
vt 0.020217 0.656733
vt 0.020217 0.764909
vt 0.294382 0.764909
vt 0.294382 0.656733
vt 0.333984 0.271433
vt 0.333984 0.379610
vt 0.378161 0.379610
vt 0.378161 0.271433
vt 0.594463 0.656733
vt 0.594463 0.764909
vt 0.320298 0.764909
vt 0.320298 0.656733
vt 0.448431 0.271433
vt 0.448431 0.379610
vt 0.404077 0.379610
vt 0.404077 0.271433
vt 0.934146 0.679691
vt 0.978322 0.679691
vt 0.978322 0.405527
vt 0.934146 0.405527
vt 0.664733 0.979772
vt 0.620379 0.979772
vt 0.620379 0.705608
vt 0.664733 0.705608
vt 0.448431 0.163515
vt 0.404077 0.163515
vt 0.594463 0.548814
vt 0.320298 0.548814
vt 0.333984 0.163515
vt 0.378161 0.163515
vt 0.020217 0.548814
vt 0.294382 0.548814
vt 0.020217 0.405527
vt 0.294382 0.405527
vt 0.333984 0.020228
vt 0.378161 0.020228
vt 0.594463 0.405527
vt 0.320298 0.405527
vt 0.448431 0.020228
vt 0.404077 0.020228
vt 0.762020 0.020228
vt 0.762020 0.163515
vt 0.717844 0.163515
vt 0.717844 0.020228
vt 0.064571 0.020228
vt 0.064571 0.163515
vt 0.064571 0.271433
vt 0.762020 0.271433
vt 0.717844 0.271433
vt 0.978322 0.979772
vt 0.934146 0.979772
vt 0.934146 0.705608
vt 0.978322 0.705608
vt 0.664733 0.679691
vt 0.664733 0.405527
vt 0.762020 0.379610
vt 0.717844 0.379610
vt 0.064571 0.379610
vt 0.020217 0.271433
vt 0.020217 0.379610
vt 0.620379 0.679691
vt 0.620379 0.405527
vt 0.020217 0.163515
vt 0.020217 0.020228
vt 0.787937 0.020228
vt 0.787937 0.128146
vt 0.858249 0.128146
vt 0.858249 0.020228
vt 0.289630 0.790826
vt 0.289630 0.898745
vt 0.020217 0.898745
vt 0.020217 0.790826
vt 0.584959 0.790826
vt 0.315546 0.790826
vt 0.315546 0.861138
vt 0.584959 0.861138
vt 0.787937 0.261982
vt 0.787937 0.154063
vt 0.858249 0.154063
vt 0.858249 0.261982
vt 0.315546 0.887054
vt 0.584959 0.887054
vt 0.584959 0.957366
vt 0.315546 0.957366
s 0
g Water_Dispenser_Water_Dispenser
usemtl Water_Dispenser
f 9/1/1 2/2/1 4/3/1 10/4/1
f 22/5/2 18/6/2 8/7/2 11/8/2
f 11/9/3 8/10/3 6/11/3 12/12/3
f 27/13/4 26/14/4 2/15/4 9/16/4
f 17/17/5 7/18/5 5/19/5 19/20/5
f 29/21/6 4/22/6 2/23/6 26/24/6
f 28/25/4 27/13/4 9/16/4 16/26/4
f 14/27/3 11/9/3 12/12/3 15/28/3
f 23/29/2 22/5/2 11/8/2 14/30/2
f 16/31/1 9/1/1 10/4/1 13/32/1
f 1/33/1 16/31/1 13/32/1 3/34/1
f 17/35/2 23/29/2 14/30/2 7/36/2
f 7/37/3 14/27/3 15/28/3 5/38/3
f 30/39/4 28/25/4 16/26/4 1/40/4
f 5/41/4 15/42/4 24/43/4 19/44/4
f 25/45/2 32/46/2 23/29/2 17/35/2
f 32/46/2 31/47/2 22/5/2 23/29/2
f 15/42/4 12/48/4 21/49/4 24/43/4
f 8/50/6 18/51/6 20/52/6 6/53/6
f 25/54/5 17/17/5 19/20/5 30/55/5
f 12/48/4 6/56/4 20/57/4 21/49/4
f 31/47/2 29/58/2 18/6/2 22/5/2
f 10/59/2 4/60/2 29/58/2 31/47/2
f 3/61/5 25/54/5 30/55/5 1/62/5
f 13/63/2 10/59/2 31/47/2 32/46/2
f 3/64/2 13/63/2 32/46/2 25/45/2
f 19/44/4 24/43/4 28/25/4 30/39/4
f 24/65/1 21/66/1 33/67/1 34/68/1
f 18/51/6 29/21/6 26/24/6 20/52/6
f 21/49/4 20/57/4 26/14/4 27/13/4
f 34/69/4 33/70/4 35/71/4 36/72/4
f 21/73/5 27/74/5 35/75/5 33/76/5
f 27/77/3 28/78/3 36/79/3 35/80/3
f 28/81/6 24/82/6 34/83/6 36/84/6
